<?xml version="1.0" standalone="no"?>
<!DOCTYPE svg PUBLIC "-//W3C//DTD SVG 1.1//EN" "http://www.w3.org/Graphics/SVG/1.1/DTD/svg11.dtd" >
<!--
2016-8-30: Created with FontForge (http://fontforge.org)
-->
<svg xmlns="http://www.w3.org/2000/svg" xmlns:xlink="http://www.w3.org/1999/xlink" version="1.1">
<metadata>
Created by FontForge 20160407 at Tue Aug 30 21:18:18 2016
 By Jinik
Copyright (c) 2016, Jinik
</metadata>
<defs>
<font id="icono-arg" horiz-adv-x="449" >
  <font-face 
    font-family="icono-arg"
    font-weight="400"
    font-stretch="normal"
    units-per-em="512"
    panose-1="2 0 5 3 0 0 0 0 0 0"
    ascent="448"
    descent="-64"
    bbox="-0.287254 -40 482 431.216"
    underline-thickness="25.6"
    underline-position="-51.2"
    unicode-range="U+0020-F152"
  />
    <missing-glyph />
    <glyph glyph-name="space" unicode=" " horiz-adv-x="200" 
 />
    <glyph glyph-name="uniF123" unicode="&#xf123;" horiz-adv-x="314" 
d="M113 7c-62 0 -113 49 -113 111c0 51 33 96 82 109c4 1 10 0 14 -2s8 -7 9 -11s0 -10 -2 -14s-6 -9 -11 -10c-31 -9 -53 -37 -53 -70c0 -41 33 -75 74 -75c29 0 56 19 67 46c2 4 6 8 11 10s10 2 15 0c4 -2 8 -5 10 -10s2 -10 0 -15c-17 -42 -57 -69 -103 -69zM93 332
c0 21 17 38 38 38s37 -17 37 -38s-16 -37 -37 -37s-38 16 -38 37zM149 125c-9 0 -17 7 -17 16l-12 118c-1 7 3 15 9 19s14 4 20 0l92 -60c4 -3 7 -7 8 -12s0 -11 -3 -15s-7 -7 -12 -8s-10 0 -14 3l-59 38l6 -63l75 -3c8 0 16 -6 18 -14l24 -87l9 1c5 1 10 -1 14 -4
s6 -9 7 -14c1 -10 -7 -20 -17 -21l-25 -3h-2c-8 0 -17 6 -19 14l-25 91z" />
    <glyph glyph-name="uniF13C" unicode="&#xf13c;" horiz-adv-x="189" 
d="M135 125c0 10 -3 19 -9 25s-16 12 -30 17s-26 10 -35 15c-10 5 -19 12 -27 19c-7 7 -13 14 -17 23s-6 20 -6 32c0 21 7 40 20 53c14 14 33 22 55 24v41h31v-42c22 -3 40 -12 52 -28c13 -15 20 -36 20 -61h-56c0 15 -3 27 -9 35c-6 7 -16 11 -26 11s-18 -3 -24 -9
s-8 -15 -8 -25s3 -17 8 -23c6 -6 16 -12 31 -18s28 -12 38 -17s18 -12 25 -19s13 -14 16 -23c4 -9 5 -19 5 -30c0 -21 -8 -40 -21 -53s-32 -21 -55 -24v-39h-31v38c-26 3 -47 12 -61 27c-14 16 -21 37 -21 63h56c0 -15 4 -27 11 -35s17 -12 31 -12c11 0 21 3 27 9
s10 16 10 26z" />
    <glyph glyph-name="uniF10F" unicode="&#xf10f;" horiz-adv-x="320" 
d="M242 127c4 0 8 4 8 8s-3 9 -8 9h-163c-4 0 -8 -4 -8 -8s4 -8 8 -8zM79 81c-5 0 -8 4 -8 8s4 8 8 8h163c4 0 8 -4 8 -8s-4 -8 -8 -8h-163zM320 310v-270c0 -23 -18 -41 -41 -41h-237c-23 0 -42 18 -42 41v302c0 23 19 41 42 41h210v0l68 -73v0zM304 295h-56v0
c-5 0 -9 4 -9 9v63h-197c-13 0 -25 -11 -25 -24v-302c0 -13 12 -24 25 -24h238c13 0 24 11 24 24v254zM259 350l1 -36h31zM246 237c0 -13 0 -35 -1 -34h-9c-1 -6 -4 -12 -8 -16c-5 -5 -11 -8 -19 -8c-7 0 -14 3 -19 8c-3 3 -5 7 -6 11h-45c-1 -4 -3 -8 -6 -11
c-5 -5 -11 -8 -19 -8c-7 0 -15 3 -20 8c-3 3 -5 7 -6 11h-9s-18 39 23 53c20 7 31 44 76 47c62 4 68 -51 68 -61v0zM123 198c3 3 4 6 4 10s-1 7 -4 10s-6 4 -10 4s-8 -1 -11 -4s-4 -6 -4 -10s1 -7 4 -10s7 -4 11 -4s7 1 10 4zM177 248v37c-23 -2 -37 -18 -53 -37h53z
M220 198c3 3 4 6 4 10s-1 7 -4 10s-6 4 -10 4s-7 -1 -10 -4s-4 -6 -4 -10s1 -7 4 -10s6 -4 10 -4s7 1 10 4zM186 248l43 1c-4 12 -11 34 -43 36v-37z" />
    <glyph glyph-name="uniF113" unicode="&#xf113;" horiz-adv-x="337" 
d="M201 92c-30 0 -57 21 -66 49c-8 -28 -35 -49 -66 -49c-39 0 -69 30 -69 69s31 69 69 69h132c39 0 69 -30 69 -69s-31 -69 -69 -69zM111 148c3 11 13 19 25 19s22 -8 25 -19c5 -18 23 -31 41 -31c23 0 42 20 42 43s-19 43 -42 43h-132c-23 0 -43 -20 -43 -43
s20 -43 43 -43c18 0 36 13 41 31zM310 260h27v-200c0 -39 -31 -69 -69 -69h-76c-39 0 -69 31 -69 69v23c0 7 6 13 13 13s13 -6 13 -13v-23c0 -23 20 -43 43 -43h76c23 0 42 20 42 43v200zM277 295c0 9 7 17 17 17c9 0 17 -8 17 -17s-8 -17 -17 -17s-17 8 -17 17zM294 301
c-4 0 -6 -3 -6 -6s3 -6 6 -6s6 3 6 6s-3 6 -6 6zM273 367c-7 0 -13 6 -13 13s6 13 13 13s13 -6 13 -13s-6 -13 -13 -13zM273 385c-3 0 -5 -2 -5 -5s2 -5 5 -5s5 2 5 5s-2 5 -5 5zM247 304c-13 0 -24 11 -25 25c0 14 11 26 25 26s26 -12 26 -26s-12 -25 -26 -25zM247 343
c-7 0 -13 -7 -14 -15c0 -8 6 -14 14 -14s15 7 15 14c0 8 -8 15 -15 15z" />
    <glyph glyph-name="uniF132" unicode="&#xf132;" horiz-adv-x="419" 
d="M73 305c0 53 42 96 96 96s96 -42 96 -96s-43 -96 -96 -96c-54 0 -96 43 -96 96zM245 305c0 43 -34 76 -76 76s-76 -34 -76 -76s34 -76 76 -76s76 34 76 76zM168 -24c-1 0 -2 0 -4 1c-59 0 -115 19 -163 54v0v0c-5 14 26 119 103 158h1h1c16 -12 36 -18 55 -20h1h3h5h5h3
h1c19 2 39 9 55 20h1h1c1 -1 3 -2 5 -3l1 -2v-1c-2 -5 -4 -10 -6 -16v0v0c-17 -9 -37 -15 -56 -17h-1h-3h-6h-7h-3h-1c-19 2 -38 7 -55 17c-55 -32 -81 -103 -85 -126c42 -30 92 -45 144 -45h3h3v0v0h3h3c27 0 54 4 80 13h1l1 -1c4 -4 8 -8 14 -13v-1l-2 -1
c-30 -11 -62 -17 -94 -17h-3h-2h-2zM367 180l-2 31h45l2 -31h-45zM320 180h-47l2 31h46zM368 163h45l6 -84c0 -44 -33 -80 -75 -80s-75 35 -75 80l4 84h46l-4 -84c0 -17 12 -31 28 -31c15 0 29 14 29 31zM372 334l-15 -46h31l-47 -66l17 51h-30z" />
    <glyph glyph-name="uniF13D" unicode="&#xf13d;" horiz-adv-x="436" 
d="M432 44c2 0 4 -2 4 -5v-25c0 -2 -2 -4 -4 -4h-428c-2 0 -4 2 -4 4v25c0 2 2 4 4 4h35v86c0 2 2 4 4 4h25v82v0v3c0 1 1 2 2 3l211 97l12 50c0 2 2 3 4 3s40 -7 67 -72c11 -27 10 -53 10 -65v-4s0 -2 -1 -3s-2 -1 -3 -1h-6v-60c6 -1 10 -7 10 -13s-4 -11 -10 -13v-96h68z
M175 44h73l-36 47zM220 101l37 -46c-4 16 -11 42 -18 72zM212 112l17 22l-17 22l-17 -22zM220 166l15 -19c-2 9 -5 19 -7 29zM212 176l12 17c-4 17 -8 34 -12 50c-4 -16 -8 -33 -12 -50zM196 176c-2 -10 -4 -20 -7 -29l15 19zM185 127c-7 -29 -14 -56 -18 -73l37 47z
M367 153c0 3 -3 6 -6 6s-6 -2 -6 -6c0 -3 2 -6 6 -6c3 0 6 2 6 6zM357 166v61h-4c-1 0 -2 0 -3 1l-48 60l-79 -38c34 -143 46 -190 49 -206h85v96c-6 1 -10 7 -10 13s4 11 10 13zM76 180h-1v-46h25c2 0 4 -2 4 -4v-86h48c3 16 15 61 46 194z" />
    <glyph glyph-name="uniF140" unicode="&#xf140;" horiz-adv-x="347" 
d="M173 19c-95 0 -173 79 -173 174s78 173 173 173s174 -78 174 -173s-79 -174 -174 -174zM173 341c-81 0 -148 -67 -148 -148c0 -82 67 -149 148 -149c82 0 148 68 148 149c0 82 -67 148 -148 148zM191 163l-114 5v28l74 7l7 111l27 1l12 -153l-4 1h-2z" />
    <glyph glyph-name="uniF102" unicode="&#xf102;" horiz-adv-x="320" 
d="M251 382l68 -74v0l1 -269c0 -23 -18 -41 -41 -41h-237c-23 0 -42 18 -42 41v302c0 23 19 41 42 41h209zM291 312l-31 36v-36h31zM304 40h-2v253h-54v0c-5 0 -9 4 -9 9v63h-197c-13 0 -25 -11 -25 -24v-301c0 -13 12 -24 25 -24h238c13 0 24 11 24 24zM114 193
c-6 3 -45 21 -42 53c0 2 0 5 1 7c7 25 36 27 50 25c1 -1 2 -1 3 -1c2 0 3 -1 4 -1c-4 0 -12 -3 -12 -9c-1 -2 0 -5 2 -8c1 -2 4 -5 7 -8c1 -1 2 -3 3 -4c3 -6 7 -13 6 -22c-1 -11 -12 -26 -16 -30l-1 -1c-11 9 -22 31 -22 49c0 5 0 8 1 12l3 6c1 1 1 2 2 3c1 2 3 5 5 6
c-3 -2 -6 -5 -8 -7c-1 -1 -2 -3 -3 -4c-11 -16 0 -45 17 -66v0v0zM211 166c33 -5 53 -29 59 -50s2 -32 2 -32c-45 22 -106 -10 -150 11c-62 30 -59 104 -59 104h7c18 -5 3 -35 46 -61c32 -19 71 -5 68 8c-2 9 -27 7 -39 23c-9 13 3 26 3 26c5 -15 30 -23 63 -29z" />
    <glyph glyph-name="uniF12A" unicode="&#xf12a;" horiz-adv-x="293" 
d="M292 375l1 -336c0 -21 -18 -37 -38 -37h-217c-21 0 -38 17 -38 37v329v7v7h292v-7zM280 39h-1v330h-267v-330c0 -13 11 -24 24 -24h219c13 0 25 11 25 24zM61 37c-13 0 -25 12 -25 26v174c0 2 3 4 5 4h213c2 0 5 -2 5 -4v-175c0 -13 -12 -25 -25 -25h-173zM251 89v99h-54
v-99h54zM196 234v-1v-1v-35h54v37h-54zM196 47v0l37 -2c10 0 17 9 17 18v19h-54v-34v-1zM106 234v-37h83v37h-83zM106 188v-143h83v143h-83zM44 234v-37h54v37h-54zM44 188v-125c0 -10 8 -18 17 -18h37v143h-54zM146 268c-23 0 -43 19 -43 42s20 43 43 43s43 -20 43 -43
s-20 -42 -43 -42zM146 346c-19 0 -35 -17 -35 -36s16 -35 35 -35s35 16 35 35s-16 36 -35 36zM146 289c-5 0 -10 2 -14 5c-3 4 -5 9 -5 16v1c0 6 2 11 5 15s8 6 14 6c5 0 9 -1 12 -4s5 -7 5 -12h-10c0 2 -1 4 -2 5s-3 2 -5 2c-3 0 -5 -1 -6 -3s-2 -5 -2 -9v-1
c0 -4 1 -7 2 -9s3 -3 6 -3c2 0 4 1 5 2s2 2 2 4h10c0 -3 0 -6 -2 -8c-1 -2 -3 -4 -6 -5s-6 -2 -9 -2z" />
    <glyph glyph-name="uniF137" unicode="&#xf137;" horiz-adv-x="425" 
d="M265 245c0 22 17 40 39 40s40 -18 40 -40s-18 -39 -40 -39s-39 17 -39 39zM228 207c-11 1 -22 1 -34 -1c-3 -1 -5 -2 -8 -3l18 16c-24 29 -47 48 -65 49c-12 1 -25 -8 -39 -23c-6 -6 -16 -7 -23 -1c-1 1 -2 1 -2 2c-5 6 -5 16 0 22c21 24 43 34 66 33
c44 -3 84 -50 137 -124v0l-1 1c-8 9 -24 25 -49 29zM57 143v0c-6 4 -13 9 -21 12c1 1 4 2 5 4c9 9 20 21 42 21h3c19 -1 31 -12 39 -21c0 -1 1 -1 2 -2c-8 -3 -16 -7 -22 -12l-6 6c-5 4 -10 6 -17 6c-11 0 -17 -5 -25 -14zM324 143v0c-6 5 -12 9 -20 13c1 1 3 2 4 4
c7 8 17 17 33 20c3 1 6 1 9 1c22 0 33 -12 42 -21l2 -2c-8 -3 -15 -7 -21 -12c-8 8 -13 12 -23 12c-11 0 -17 -5 -26 -15c1 0 0 0 0 0zM415 144c6 0 11 -5 10 -13c0 -2 -1 -4 -2 -6l-2 -2s-2 -2 -3 -2s-3 -1 -5 -1c-11 0 -18 -6 -26 -15l-2 -2c-9 -9 -20 -19 -40 -19v0
c-14 0 -25 5 -32 11c-3 2 -5 4 -7 6c-1 2 -2 3 -3 4c-4 5 -8 9 -12 11c-3 2 -7 4 -12 4c-3 0 -6 -1 -8 -2c-2 0 -4 -2 -6 -3c-3 -2 -7 -5 -11 -9l-2 -2v0c-9 -9 -20 -19 -40 -19c-19 0 -31 9 -39 18c-1 2 -2 3 -3 4c-4 4 -7 7 -10 9c-4 3 -8 6 -14 6c-3 0 -5 0 -7 -1
c-2 0 -4 -2 -6 -3c-4 -3 -8 -6 -12 -11l-2 -2v0c-5 -5 -12 -11 -20 -15v0c-1 -1 -1 -1 -2 -1c-2 -1 -4 -1 -6 -2c-1 -1 -2 -1 -3 -1c-3 -1 -6 -1 -9 -1v0v0v0v0c-19 0 -30 9 -38 18v0c-1 2 -2 3 -3 4c-5 4 -9 8 -13 10v0c-4 2 -8 4 -13 4h-1h-3s-2 0 -3 1c-3 3 -5 6 -5 10
c0 7 6 12 12 12v0c4 0 8 0 12 -1c8 -3 16 -6 21 -11l9 -9l8 -8c5 -5 10 -7 17 -7v0c3 0 5 0 7 1c1 0 1 1 2 1c4 1 8 4 11 7c2 2 3 4 5 6s5 5 8 7c2 1 3 3 5 4c7 6 16 10 29 10v0c4 0 7 0 10 -2c9 -2 16 -6 22 -11c3 -3 7 -6 10 -9c2 -2 4 -5 6 -7c1 0 1 -1 2 -1v0
c5 -5 10 -7 17 -7v0c2 0 4 1 6 1c5 1 9 3 13 7l1 1c2 2 3 4 5 6c3 3 7 7 12 11c4 3 9 5 14 7s10 3 17 3v0c15 0 24 -5 32 -12l2 -2l7 -7c3 -3 7 -6 9 -8v0c5 -5 10 -7 17 -7v0c2 0 4 1 6 1c4 1 7 3 10 5l4 4c2 2 3 4 5 6c3 3 7 7 12 11c7 6 17 10 30 10v0zM191 143
c-2 1 -4 3 -7 4c-4 3 -10 6 -15 8c1 1 3 2 4 4c7 7 16 15 29 19c4 1 9 2 14 2c3 0 5 -1 8 -1c16 -3 26 -13 34 -21l2 -2c-7 -2 -14 -5 -19 -9c-1 0 -2 -1 -3 -2l-2 2c-6 7 -11 10 -20 10s-14 -3 -20 -9l-5 -5v0z" />
    <glyph glyph-name="uniF10C" unicode="&#xf10c;" horiz-adv-x="360" 
d="M163 278l22 -23h72c4 0 6 -3 6 -6v-159c0 -4 -3 -6 -6 -6h-192c-4 0 -6 3 -6 6v159c0 4 3 6 6 6h72l22 23c1 1 3 1 4 0zM161 272l-17 -17h33zM251 96v148h-180v-148h180zM243 236v-132h-164v132h164zM143 164v0c8 -3 12 -5 27 -9v0c1 1 2 3 3 4c2 3 4 5 6 8
c-3 6 -10 9 -17 9c-9 0 -17 -5 -19 -12zM237 109h1v38c-5 3 -9 8 -13 14c-6 8 -12 16 -21 17c-10 1 -19 -11 -25 -21c-3 -4 -6 -7 -8 -10c-17 -18 -43 -27 -54 -29h-1c-1 0 -3 2 -3 3s1 3 2 3h1c8 2 35 8 51 26l1 1c-16 3 -21 5 -28 8c-3 1 -7 3 -13 5
c-19 7 -40 -16 -43 -20v-35h153zM303 31v265l17 12v-278c0 -23 -18 -41 -41 -41h-237c-23 0 -42 18 -42 41v301c0 23 19 42 42 42h163l-2 -2c-8 -7 -9 -8 -11 -12l-1 -2h-149c-13 0 -25 -12 -25 -25v-301c0 -13 12 -24 25 -24h237c13 0 24 11 24 24zM255 370
c35 30 69 32 101 6l4 -3l-4 1c-38 5 -57 -13 -75 -30c0 -1 -1 -2 -1 -3s0 -3 1 -4l14 -15l-73 -10v2l13 71l14 -15c1 -1 4 -2 6 0z" />
    <glyph glyph-name="uniF146" unicode="&#xf146;" 
d="M418 352c17 0 31 -15 31 -32v-253c0 -17 -14 -32 -31 -32h-387c-17 0 -31 15 -31 32v253c0 17 14 32 31 32h387zM432 66h-1v253c0 7 -6 13 -13 13h-387c-7 0 -13 -6 -13 -13v-253c0 -7 6 -13 13 -13h388c7 0 13 6 13 13zM117 170c0 4 -1 6 -4 8s-8 4 -15 6s-12 4 -16 6
c-11 6 -16 15 -16 24c0 5 1 10 4 14s7 7 12 9s11 3 18 3s14 -1 19 -4c5 -2 9 -6 12 -10s4 -9 4 -15h-19c0 4 -1 8 -4 10s-8 4 -12 4c-5 0 -8 -1 -11 -3s-4 -5 -4 -8s2 -6 5 -8s8 -4 14 -6c11 -3 20 -8 25 -13s8 -11 8 -18c0 -8 -3 -14 -9 -19s-17 -6 -27 -6
c-7 0 -14 1 -20 4s-10 6 -14 11c-3 5 -5 10 -5 16h19c0 -10 6 -16 19 -16c5 0 9 1 12 3s5 5 5 8zM221 240v-63c0 -10 -3 -18 -10 -24c-6 -6 -15 -9 -26 -9s-21 3 -27 9s-10 14 -10 24v64h19v-63c0 -6 1 -11 4 -13s8 -4 13 -4c11 0 16 6 17 17v63h20v-1zM237 145v95h34
c11 0 20 -2 26 -7c6 -4 9 -11 9 -19c0 -5 -1 -9 -4 -12c-2 -4 -6 -6 -10 -8c5 -1 9 -5 11 -8s4 -8 4 -13c0 -9 -3 -16 -9 -20c-6 -5 -14 -7 -25 -7h-36v-1zM257 201h14c10 0 15 4 15 12c0 4 -1 7 -4 9c-2 2 -6 3 -12 3h-13v-24zM257 186v-25h17c5 0 8 1 11 3s4 5 4 9
c0 9 -4 13 -13 13h-19zM380 186h-37v-25h44v-16h-64v95h64v-15h-43v-22h37v-17h-1z" />
    <glyph glyph-name="uniF114" unicode="&#xf114;" horiz-adv-x="417" 
d="M0 276v0l81 105h196v0l81 -105v-123l-18 13v91h-321v-216c0 -16 13 -28 28 -28h197v-1c3 -5 16 -13 24 -15l7 -2h-229c-25 0 -46 21 -46 46v235zM192 363v-86h140l-65 86h-75zM91 363l-65 -86h147v86h-82zM417 67l-103 -73v32c0 5 -4 10 -10 10c-101 5 -131 61 -138 116
c45 -54 91 -54 138 -54c2 0 5 1 7 3s3 4 3 7v33z" />
    <glyph glyph-name="uniF128" unicode="&#xf128;" horiz-adv-x="290" 
d="M227 5v0h-132c4 12 17 21 31 21h26v14c-47 -1 -94 18 -129 53l-6 -6c-3 -3 -9 -3 -12 0s-3 9 0 12l31 32c-1 2 -3 3 -4 5v0c-47 57 -42 141 11 194c15 14 32 26 50 33c-2 -5 -3 -10 -3 -16v-3c-10 -5 -20 -12 -29 -20l34 -34c3 3 7 6 10 9c3 -5 7 -10 10 -15
c-3 -2 -6 -4 -8 -6l37 -37l1 -3l38 39l-1 1l-6 6l9 15l10 -9l1 -1l30 30l1 1l3 3c-8 4 -19 6 -31 4c2 6 3 13 3 18c0 7 -1 12 -3 18c16 -6 30 -16 43 -27l26 28c3 3 9 3 12 0s3 -9 0 -12l-28 -28c52 -57 50 -144 -5 -199c-53 -53 -137 -58 -194 -11v0c-2 1 -3 3 -5 4
l-14 -13c35 -35 83 -51 130 -46c3 0 5 -2 5 -4v-29h27c13 0 24 -7 29 -17v0v0c1 -1 2 -3 2 -4zM51 143l33 33l-28 29c-10 -22 -12 -44 -7 -58v0v0c1 -2 1 -3 2 -4zM67 129c15 -5 36 -2 58 7l-29 28l-33 -33c1 -1 2 -1 4 -2c-1 1 0 0 0 0v0zM94 109c21 -9 45 -12 67 -10
l-23 24c-15 -7 -30 -13 -44 -14zM181 103c18 5 35 15 50 28l-34 34c-14 -14 -30 -24 -44 -33zM243 143c12 14 22 32 27 50l-29 28c-8 -15 -19 -30 -32 -44zM264 280c-2 -13 -7 -29 -14 -45l24 -23c3 23 -1 47 -10 68zM238 307l-30 -29l1 -1l28 -29c11 25 13 49 5 63l-4 -4v0
zM197 266l-39 -39l2 -2l37 -36c13 14 24 29 32 44l-32 33v0zM146 215l-38 -38l3 -3l30 -30c14 8 29 19 43 32l-36 37zM96 266c-14 -14 -24 -30 -32 -45l29 -30l3 -3l39 39l-2 2zM50 311c-13 -14 -22 -32 -27 -50l29 -28c8 15 19 30 32 44zM29 174c1 14 7 29 14 45l-24 23
c-3 -23 1 -47 10 -68zM137 344c0 5 4 9 9 9s9 -4 9 -9s-4 -10 -9 -10s-9 5 -9 10zM183 343c0 -27 -38 -71 -38 -71s-36 44 -36 72c0 20 18 36 38 36s36 -17 36 -37zM125 344c-1 -12 9 -23 21 -23c12 -1 22 10 22 22c1 12 -9 22 -21 22c-12 1 -22 -9 -22 -21z" />
    <glyph glyph-name="uniF121" unicode="&#xf121;" horiz-adv-x="235" 
d="M220 297c8 0 14 -8 15 -17v-167c0 -50 -27 -75 -81 -75v0v0v0h-1c-17 0 -36 6 -50 13c-15 8 -31 23 -38 37c-3 6 -6 12 -9 17c-13 26 -24 45 -38 57c-5 4 -8 6 -10 7c-1 1 -2 1 -3 2h-1c0 1 -1 1 -1 1c-2 1 -3 2 -3 4c0 1 0 3 2 5s4 4 8 6h1v0c2 1 7 2 12 1
c2 -1 4 -1 6 -2c15 -7 27 -21 36 -32c8 -10 14 -18 20 -18v0c1 0 2 0 3 1v0l-1 21v146c0 10 6 17 13 17s14 -8 14 -17v-92c0 -5 2 -8 6 -8s7 4 7 8v116c0 10 6 18 13 18s13 -9 13 -18v-116c0 -5 3 -8 7 -8c3 0 6 4 6 8v104c0 10 7 17 14 17s14 -8 14 -17v-116
c0 -5 3 -9 7 -9c3 0 6 5 6 9v80c0 10 6 17 13 17z" />
    <glyph glyph-name="uniF100" unicode="&#xf100;" horiz-adv-x="398" 
d="M398 116c0 -4 0 -8 -1 -11c-6 -53 -50 -93 -104 -93c-50 0 -91 33 -102 80c-2 8 -3 16 -3 24c0 59 46 106 105 106s105 -48 105 -106zM351 94c3 7 4 14 5 22c0 34 -28 62 -62 62s-62 -29 -62 -62c0 -8 2 -17 5 -24c10 -21 32 -36 57 -36s48 16 57 38zM82 17
c-35 0 -66 24 -78 56c-3 8 -4 16 -4 25c0 45 36 81 81 81s81 -36 81 -81c0 -9 -1 -17 -4 -25c-10 -32 -41 -56 -76 -56zM82 145c-26 0 -48 -22 -46 -48c0 -9 3 -18 8 -25c8 -12 23 -21 39 -21s32 8 40 21c4 7 7 16 7 25c0 26 -22 48 -48 48zM31 178c-1 -1 -2 -1 -2 -1
s-1 1 -1 2c1 34 19 73 58 77v47c0 8 7 14 15 14s16 -7 16 -15v-46h24s29 107 97 107h102c23 0 30 -9 33 -30l11 -134s0 -2 -1 -3c-1 0 -1 0 -2 1c-22 23 -54 38 -88 38c-62 0 -113 -47 -119 -107c0 0 0 -1 -1 -1c0 0 -1 0 -1 1c-13 38 -48 65 -90 65c-18 0 -37 -6 -51 -15z
M279 342v-81h79l-5 65c-1 8 -2 14 -3 15s-4 1 -9 1h-62zM182 299c-8 -15 -14 -30 -17 -39h100v82h-27c-20 0 -39 -15 -56 -43z" />
    <glyph glyph-name="uniF11E" unicode="&#xf11e;" horiz-adv-x="318" 
d="M233 138v0c5 -6 5 -16 -1 -21c-5 -6 -14 -6 -20 0l-36 36c8 5 16 12 21 20zM233 138zM198 210v0c0 -31 -27 -58 -59 -59c-32 0 -59 27 -59 59s27 59 59 59s59 -27 59 -59zM140 166v0c23 0 44 21 44 44c0 24 -20 43 -44 43s-44 -19 -44 -43s20 -44 44 -44zM140 166z
M105 210v0c0 19 16 34 35 34v-10c-13 0 -24 -11 -24 -24h-11zM105 210zM317 309l1 -270c0 -22 -18 -40 -40 -40h-237c-22 0 -41 18 -41 40v302c0 22 19 40 41 40h208zM292 311l-37 40v-40h37zM278 14c14 0 26 12 25 26v255h-26h-30c-4 0 -8 4 -8 8v64h-198
c-14 0 -27 -11 -27 -26v-301c0 -15 13 -26 27 -26h237z" />
    <glyph glyph-name="uniF119" unicode="&#xf119;" horiz-adv-x="470" 
d="M56 133c0 16 13 29 29 29s30 -13 30 -29s-14 -30 -30 -30s-29 14 -29 30zM358 133c0 16 13 29 29 29s30 -13 30 -29s-14 -30 -30 -30s-29 14 -29 30zM421 89c27 0 50 -24 49 -51v-37c0 -6 -4 -10 -10 -10s-10 5 -10 10v37c0 17 -14 32 -31 32h-67c-17 0 -32 -15 -32 -32
v-37c0 -6 -5 -10 -10 -10v0v0c-6 0 -10 5 -10 10v37c0 17 -14 32 -31 32h-67c-17 0 -32 -15 -32 -32v-37c0 -6 -5 -10 -10 -10v0v0c-6 0 -10 5 -10 10v37c0 17 -14 32 -31 32h-67c-17 0 -32 -15 -32 -32v-37c0 -6 -4 -10 -10 -10s-10 5 -10 10v37c0 27 23 51 51 51h70
c17 0 32 -9 41 -22c9 13 25 22 42 22h67c17 0 32 -9 41 -22c9 13 25 22 42 22h67zM207 365c0 16 13 29 29 29s30 -13 30 -29s-14 -30 -30 -30s-29 14 -29 30zM270 266h-69c-9 0 -18 -3 -26 -6v21c0 44 44 43 58 44h4c14 -1 59 -1 59 -44v-22c-8 4 -17 7 -26 7zM207 133
c0 16 13 29 29 29s30 -13 30 -29s-14 -30 -30 -30s-29 14 -29 30zM160 149c-5 0 -9 5 -8 10v38c0 27 23 50 51 50h67c27 0 50 -22 50 -50v-38c0 -6 -4 -10 -10 -10s-10 5 -10 10v38c0 17 -14 31 -31 31h-67c-17 0 -32 -14 -32 -31v-38c0 -6 -5 -10 -10 -10z" />
    <glyph glyph-name="uniF147" unicode="&#xf147;" horiz-adv-x="359" 
d="M307 172c-2 -7 -8 -9 -19 -6c-11 2 -18 5 -18 13s7 19 24 11c11 -5 14 -15 13 -18zM0 282c0 26 14 26 38 24c18 0 75 12 95 24s31 19 44 -5c13 -23 42 -110 14 -161c-21 -40 -49 -53 -52 -54c-3 0 -26 -9 -75 23s-64 122 -64 149zM130 271c-11 -4 -15 -16 -13 -24
c3 -10 13 -5 24 -1s19 10 16 17s-16 12 -27 8zM120 173c-2 0 -29 -5 -42 0c0 0 -7 4 -3 -4c5 -8 25 -23 50 -18c26 6 36 28 36 38c0 9 -5 2 -5 2c-10 -11 -35 -18 -36 -18zM68 254c-12 0 -22 -10 -22 -17s9 -9 21 -9s23 -1 22 10c0 7 -9 16 -21 16zM247 184
c-3 -7 -10 -7 -22 -6c-5 1 -9 2 -12 4l3 18c3 2 7 4 12 4c19 1 22 -13 19 -20zM240 49c-3 0 -29 0 -61 50c-3 5 -6 10 -8 16c6 5 12 12 18 20c3 -9 6 -18 10 -24c14 -21 26 -31 33 -35c2 -1 6 -4 10 -4c2 0 6 1 13 3c9 2 25 8 41 21c8 7 15 17 21 29c6 11 11 24 15 39
c7 28 8 56 7 66c-1 2 -1 3 -1 4c-4 0 -10 0 -14 -1h-1c-17 -2 -43 2 -57 4c-8 1 -35 6 -50 12c-1 8 -2 18 -4 26c3 -1 7 -3 11 -5c16 -8 74 -19 97 -16s37 5 39 -22c3 -27 -5 -119 -51 -154c-18 -14 -35 -21 -47 -25c-11 -4 -20 -4 -21 -4zM213 113c0 0 -6 -4 -2 3
c3 7 19 22 40 18c20 -5 31 -24 31 -32s-4 -2 -4 -2c-8 9 -31 14 -32 14s-22 4 -33 -1z" />
    <glyph glyph-name="uniF10D" unicode="&#xf10d;" horiz-adv-x="342" 
d="M263 122c0 -3 -3 -6 -8 -7h-191c-4 0 -6 4 -6 7v159c0 4 3 6 6 6h72l22 22c1 1 3 1 4 0l23 -22h72c4 0 6 -3 6 -6v-159zM161 303l-17 -16h33zM251 128v147h-180v-147h180zM243 268v-132h-164v132h164zM144 195v0c7 -2 11 -5 27 -10v0c1 1 2 3 3 4l6 9c-3 6 -10 9 -17 9
c-9 0 -17 -5 -19 -12zM238 141v36c-5 3 -9 8 -13 14c-6 8 -12 17 -21 18c-10 1 -19 -12 -25 -22c-3 -4 -6 -7 -8 -10c-17 -18 -43 -26 -54 -28h-1c-1 0 -3 1 -3 2s1 3 2 3h1c8 2 35 8 51 26l1 1c-16 3 -21 5 -28 8c-3 1 -7 4 -13 6c-19 7 -40 -17 -43 -21v-33h154zM279 395
c23 0 41 -19 41 -41v-276l-17 12v264c0 13 -11 24 -24 24h-237c-13 0 -25 -11 -25 -24v-301c0 -13 12 -25 25 -25h149v-1c3 -5 14 -12 21 -14l8 -2h-178c-23 0 -42 19 -42 42v301c0 23 19 41 42 41h237zM282 76l60 -41l-60 -43v20c0 2 -2 4 -4 4c-46 2 -71 23 -77 65l-1 4
l3 -4c23 -29 50 -29 75 -29c1 0 2 0 3 1s1 2 1 3v20z" />
    <glyph glyph-name="uniF117" unicode="&#xf117;" horiz-adv-x="401" 
d="M321 144l23 -3l-17 -15l5 -23l-20 10l-20 -10l4 23l-16 15l22 3l10 20zM258 48c6 -3 11 -9 14 -16v-32c0 -1 1 -2 1 -2s1 -1 2 0l30 20c2 1 5 2 8 2s6 -1 8 -3l30 -20h2s1 1 1 2v32c2 9 6 15 12 18v-51c0 -6 -3 -11 -8 -13c-2 -1 -5 -2 -7 -2c-3 0 -6 1 -8 3l-30 20h-2
l-30 -20c-5 -3 -10 -4 -15 -1s-8 8 -8 13v20v30zM386 188c4 -5 4 -12 -2 -20c-3 -7 0 -16 7 -20c6 -4 10 -9 10 -15s-3 -12 -10 -16s-10 -13 -7 -20s3 -13 0 -18v0c-3 -5 -10 -7 -17 -6c-8 1 -15 -4 -17 -12c-1 -8 -5 -14 -11 -16c-5 -1 -13 1 -18 6c-2 2 -3 2 -5 3
c0 1 0 1 -1 1v0v0c-3 1 -6 1 -9 0v0h-1h-1c-2 -1 -4 -1 -5 -3c-5 -5 -12 -7 -17 -5s-10 8 -11 15s-10 13 -18 12c-7 -1 -13 1 -17 6v0c-3 5 -3 11 0 18s0 16 -7 20c-6 4 -10 10 -10 16s3 11 10 15s10 13 7 20c-3 6 -2 13 1 18s10 8 17 7s16 4 18 12c1 8 5 13 11 15
s12 0 18 -5c2 -1 4 -2 7 -3c0 0 10 -2 15 4c5 5 13 7 18 5s10 -8 11 -15s9 -13 17 -12c7 1 13 -2 17 -7zM312 81c28 0 53 24 53 53s-24 52 -53 52s-52 -23 -52 -52s23 -53 52 -53zM63 336c-4 0 -7 4 -7 8s3 7 7 7h97c4 0 7 -3 7 -7s-3 -8 -7 -8h-97zM63 282c-4 0 -7 3 -7 7
s3 7 7 7h184c4 0 7 -3 7 -7s-3 -7 -7 -7h-184zM63 227c-4 0 -7 3 -7 7s3 7 7 7h184c4 0 7 -3 7 -7s-3 -7 -7 -7h-184zM0 361c0 22 19 41 42 41l208 -1s2 0 68 -72c1 0 2 -1 2 -88v-1h-1c-2 -1 -3 -1 -4 -2c-4 -2 -7 -4 -12 -1h-1v76h-54v0c-5 0 -9 4 -9 9v63h-197
c-14 0 -25 -11 -25 -24v-301c0 -13 11 -25 25 -25h190v-17h-190c-23 0 -42 19 -42 42v301zM291 332l-31 36v-36h31z" />
    <glyph glyph-name="uniF14C" unicode="&#xf14c;" horiz-adv-x="482" 
d="M100 170c1 1 3 2 5 1v35v4v4v4s1 3 1 4s0 2 -1 4c0 1 1 2 2 3l22 21c1 1 3 2 5 3s4 1 6 1l190 1c2 0 4 -1 5 -2c1 -2 2 -3 2 -5v-83v-3s0 -2 -1 -2s-2 -1 -2 -1c0 -1 -1 -1 -2 -1h-2h-4h-2c0 -7 -3 -14 -8 -19s-12 -8 -19 -8s-14 3 -19 8s-8 12 -8 19h-98
c0 -7 -3 -14 -8 -19s-12 -8 -19 -8s-14 3 -19 8s-8 12 -8 19h-7h-3h-3h-2s-1 1 -2 1s-1 1 -2 1c0 1 -1 1 -1 2v3c0 2 1 4 2 5zM297 240v-27h27v27h-27zM289 168c-3 -3 -4 -6 -4 -10s1 -7 4 -10s6 -4 10 -4s7 1 10 4s4 6 4 10s-1 7 -4 10s-6 4 -10 4s-7 -1 -10 -4zM255 240
v-27h28v27h-28zM215 240v-27h27v27h-27zM173 240v-27h28v27h-28zM156 149c3 2 4 5 4 10c0 4 -1 7 -4 10s-6 4 -10 4s-7 -1 -10 -4s-4 -6 -4 -10s1 -7 4 -10s6 -4 10 -4s7 1 10 4zM119 216v-3h41v27h-17c-1 0 -1 0 -2 -1l-21 -21c-1 0 -1 -1 -1 -2zM477 130l5 -5l-5 -5
l-14 -16l-6 -7l-3 -3c1 -4 1 -7 1 -11c0 -9 -2 -18 -6 -25c-5 -9 -13 -17 -22 -22c-7 -4 -15 -6 -24 -6c-8 0 -16 2 -23 5c-8 4 -16 11 -21 19c-6 8 -9 18 -9 29c0 29 24 53 53 53c11 0 21 -3 29 -9c1 -1 3 -2 4 -3l3 3l5 5l2 2c-4 4 -10 7 -15 10v178c0 7 -6 13 -13 13
h-387c-7 0 -13 -6 -13 -13v-254c0 -7 6 -13 13 -13h311c3 -7 8 -14 13 -19h-324c-17 0 -31 15 -31 32v254c0 17 14 32 31 32h387c17 0 31 -15 31 -32v-185l6 5l5 4l5 -5zM457 109l14 16l-11 11l-11 -9l-5 -5l-43 -38l-24 24l-14 -12l38 -48v0v0l50 54z" />
    <glyph glyph-name="uniF141" unicode="&#xf141;" horiz-adv-x="425" 
d="M138 201v-2h-76c-3 0 -6 2 -6 6v6c0 4 2 7 4 9l38 38c3 3 6 4 9 4h31c3 0 6 -2 6 -6v-49c0 -3 -2 -6 -6 -6zM107 251l-36 -36h61v36h-25zM174 90c0 5 3 8 8 8h64c5 0 8 -3 8 -8s-4 -8 -8 -8h-64c-5 0 -8 4 -8 8zM425 343v-222c1 -12 0 -22 -3 -28c-4 -7 -15 -10 -30 -10
c-4 0 -8 2 -8 7s4 8 8 8c13 0 16 3 16 3c1 3 1 15 1 20v223c0 2 -1 4 -2 5c-2 1 -3 2 -5 2h-245c-2 0 -4 -1 -5 -2c-1 -2 -2 -3 -2 -5v-45c0 -5 -4 -8 -8 -8h-38c-3 0 -6 0 -10 -2s-7 -4 -9 -6l-46 -46c-2 -1 -3 -3 -4 -5c-2 -2 -2 -4 -3 -6c0 -1 -1 -3 -1 -7
c-1 -4 -1 -6 -1 -8v-8v-8v-74c0 -5 -4 -9 -8 -9c-2 0 -4 -1 -5 -2c-2 -2 -3 -7 -1 -10c1 -1 3 -2 5 -2h11c4 0 8 -3 8 -7c1 -4 -3 -8 -7 -8c-1 0 3 0 -2 0h-11c-6 1 -11 4 -14 7c-8 8 -8 23 1 32c2 2 5 4 7 5v68v8v9s1 4 1 8s1 7 2 10c1 2 2 5 4 8c1 4 4 7 6 9l46 46
c4 4 8 7 14 9c5 3 11 4 16 4h30v37c0 6 3 12 7 16c5 5 10 7 16 7h245c6 0 13 -3 17 -7c5 -5 7 -10 7 -16zM269 326c23 0 41 -18 44 -38c0 -8 -3 -15 -7 -21c2 -3 4 -7 4 -11c0 -6 -5 -11 -11 -13v-5c0 -8 -7 -15 -15 -15h-28c-8 0 -15 7 -15 15v5c-6 2 -11 7 -11 13
c0 4 1 9 4 11c-5 6 -7 13 -7 21c0 21 19 38 42 38zM250 273c6 0 11 5 11 11s-5 11 -11 11s-11 -5 -11 -11s5 -11 11 -11zM270 256l11 -5l-11 20l-12 -20zM287 273c6 0 11 5 11 11s-5 11 -11 11s-11 -5 -11 -11s5 -11 11 -11zM228 185v0l21 9l-21 10v-1c-3 -5 -9 -7 -14 -5
c-5 3 -7 9 -5 14c1 3 4 5 7 6c-1 3 -1 6 0 9c3 5 9 7 14 5c5 -3 7 -9 5 -14v-1l35 -15l34 14v1c-3 5 0 11 5 13c5 3 11 0 13 -5c1 -3 0 -6 -1 -9c3 -1 6 -3 7 -6c3 -5 0 -11 -5 -13c-5 -3 -11 0 -13 5v1l-21 -9l21 -11v1c3 5 9 7 14 5c5 -3 7 -9 5 -14c-1 -3 -4 -5 -7 -6
c1 -3 1 -6 0 -9c-3 -5 -9 -7 -14 -5c-5 3 -7 9 -5 14v1l-34 15l-35 -14v-1c3 -5 0 -11 -5 -13c-5 -3 -11 0 -13 5c-1 3 0 6 1 9c-3 1 -6 3 -7 6c-3 5 0 11 5 13c5 3 11 0 13 -5zM108 19c-28 0 -51 24 -52 53c0 29 23 53 52 53s53 -24 53 -53s-24 -53 -53 -53zM108 109
c-20 0 -37 -16 -37 -37s17 -38 37 -38c21 0 38 17 38 38s-18 37 -38 37zM267 72c0 29 23 53 52 53s53 -24 53 -53s-24 -53 -53 -53s-52 24 -52 53zM357 72c0 20 -17 37 -38 37s-37 -16 -37 -37s16 -38 37 -38s38 18 38 38z" />
    <glyph glyph-name="uniF120" unicode="&#xf120;" horiz-adv-x="320" 
d="M319 310l1 -270c0 -23 -18 -41 -41 -41h-237c-23 0 -42 18 -42 41v302c0 23 19 41 42 41h209v0l68 -73v0zM303 295h-55v0c-5 0 -9 4 -9 9v63h-197c-13 0 -25 -11 -25 -24v-302c0 -13 12 -24 25 -24h237c13 0 24 11 24 24v254zM259 350l1 -36h31zM241 185l8 -1v-1
c-1 -21 -18 -38 -38 -38h-1c-21 0 -38 17 -38 38v1h8l24 48c-9 4 -25 10 -30 13c-1 -2 -4 -3 -6 -4v-102c2 -1 4 -1 5 -2c6 -3 11 -8 12 -13h10c3 0 5 -3 5 -6s-2 -5 -5 -5v0h-1h-31h-31v0c-3 0 -5 2 -5 5s2 6 5 6h10c2 6 6 10 12 14c2 1 3 2 5 2v102c-2 1 -4 2 -6 4
c-5 -3 -19 -10 -29 -13l23 -48h8v-1c0 -20 -16 -38 -37 -38h-1c-20 0 -38 17 -39 38v1h8l1 1c4 8 11 24 21 47c-7 4 -12 12 -14 14c-1 2 0 5 2 7c1 1 3 1 4 1s2 -1 3 -2c0 -1 1 -2 2 -3l4 -3l2 -1c2 1 4 2 6 2c3 0 5 -2 7 -4c6 3 15 7 25 12c0 4 1 8 4 11c3 2 7 4 11 4v0
c8 -1 15 -8 15 -16c10 -5 20 -10 26 -12c1 3 4 4 7 4c2 0 4 -1 6 -2l1 1l4 4c0 1 1 2 2 3s2 2 3 2c2 0 3 0 4 -1s2 -2 2 -3c0 -2 0 -3 -1 -4c-2 -2 -7 -10 -14 -14c10 -22 17 -38 21 -47c0 0 1 0 1 -1zM230 185c-3 5 -6 14 -9 22c-3 6 -6 13 -9 19l-19 -41h37zM96 185v-1h38
l-19 41c-3 -6 -7 -13 -10 -19c-3 -7 -7 -16 -9 -21z" />
    <glyph glyph-name="uniF130" unicode="&#xf130;" horiz-adv-x="251" 
d="M36 220c-1 -5 1 -10 3 -15l2 -1h-2h-1h-2c-18 0 -18 -24 -18 -25c0 -5 -4 -9 -9 -9s-9 4 -9 9c0 15 7 43 35 43h1v-2v0v0v0zM70 189c1 -7 1 -13 1 -12l1 -199c0 -2 -1 -5 -3 -7c-1 -2 -4 -3 -6 -3c-5 0 -9 5 -9 10l-1 200c1 3 0 8 -1 13l-1 3l2 -1c3 -1 5 -3 7 -3
c3 -1 5 -1 8 0h2v-1zM181 335l68 -133c3 -7 2 -16 -2 -22l-57 -81l23 -109c1 -5 0 -10 -3 -15s-8 -9 -13 -10h-4c-10 0 -19 8 -21 17l-26 118c-1 6 0 11 3 16l56 80l-43 86l-21 -41c-2 -3 -5 -6 -8 -8l-57 -31c-4 -3 -10 -4 -15 -2s-9 5 -12 10c-3 4 -4 10 -2 15s5 9 10 12
l51 29l37 69c3 6 10 11 18 12c8 0 15 -5 18 -12zM152 358c-6 -6 -15 -10 -25 -10s-20 4 -26 10s-10 15 -10 25c0 19 17 36 36 36s35 -16 35 -36c0 -10 -4 -19 -10 -25z" />
    <glyph glyph-name="uniF12F" unicode="&#xf12f;" horiz-adv-x="337" 
d="M75 111l14 -21v-98c0 -3 1 -6 4 -7c2 -2 5 -2 8 0l54 36c7 5 17 5 24 0l54 -37c2 -2 5 -2 8 -1c2 1 4 4 4 7v99l15 20v-118c0 -8 -6 -16 -13 -20c-3 -1 -7 -2 -10 -2c-4 0 -8 2 -12 5l-54 37c-3 2 -6 2 -9 0l-54 -36c-6 -4 -15 -5 -22 -1s-11 11 -11 19v118zM316 223
c-11 -7 -16 -23 -11 -34c6 -12 6 -25 0 -34c-5 -9 -15 -14 -28 -14h-6h-3c-12 0 -24 -9 -26 -20c-5 -21 -19 -30 -31 -30c-8 0 -17 4 -25 11c-4 4 -11 6 -18 6c-6 0 -12 -2 -17 -6c-8 -7 -16 -11 -25 -11c-12 0 -28 8 -32 30c-2 11 -13 20 -25 20h-3h-6c-12 0 -23 5 -29 14
s-6 21 0 34c5 12 0 28 -11 34c-13 7 -20 18 -20 29s7 23 20 30c11 6 16 21 11 33c-6 12 -6 26 0 35c5 9 16 14 29 14h6h3c12 0 23 9 25 20c5 21 20 30 32 30c8 0 17 -5 25 -12c4 -4 10 -6 17 -6c6 0 13 2 18 6c8 7 16 12 25 12c12 0 27 -8 31 -30c2 -11 14 -20 26 -20h3h6
c12 0 22 -5 28 -14s6 -22 0 -35c-5 -12 0 -27 11 -33c13 -7 21 -19 21 -30s-8 -22 -21 -29zM293 183c-9 18 -1 42 15 52c17 9 17 27 0 36s-24 32 -16 50c8 17 1 30 -16 30h-4h-4c-19 0 -36 13 -40 31c-2 12 -9 18 -17 18c-5 0 -11 -3 -15 -9c-7 -7 -17 -10 -27 -10
c-9 0 -19 3 -26 10c-5 6 -11 8 -16 8c-8 0 -16 -6 -18 -18c-4 -18 -21 -31 -39 -31h-4h-4c-16 0 -24 -13 -16 -30c9 -18 0 -40 -17 -50c-17 -9 -17 -26 0 -36c17 -9 25 -33 17 -51c-8 -17 -1 -29 16 -29h4h4c19 0 35 -13 39 -31c2 -12 10 -19 18 -19c5 0 10 3 16 8
c7 7 16 11 26 11c9 0 20 -4 27 -11c5 -6 11 -8 16 -8c8 0 15 7 17 19c4 18 22 31 40 31h4h4c16 0 24 12 16 29zM167 355c57 0 103 -46 103 -103s-46 -102 -103 -102s-102 45 -102 102s45 103 102 103zM167 164c49 0 88 39 88 88s-39 89 -88 89s-88 -40 -88 -89
s39 -88 88 -88zM181 227c3 3 6 8 8 14l17 -5c-3 -10 -7 -16 -13 -21s-15 -7 -24 -7c-11 0 -21 4 -28 12s-11 19 -11 32c0 14 4 26 11 34c8 8 17 12 29 12c10 0 20 -3 26 -9c4 -4 7 -9 9 -16l-17 -4c-1 4 -4 7 -7 10c-4 3 -7 4 -12 4c-6 0 -11 -2 -15 -7s-6 -13 -6 -23
c0 -11 2 -18 6 -23s9 -7 15 -7c5 0 9 1 12 4z" />
    <glyph glyph-name="uniF10B" unicode="&#xf10b;" horiz-adv-x="481" 
d="M96 234c1 1 2 1 3 -1l38 -28c1 0 1 -1 1 -2v-59c0 -2 -1 -3 -3 -3h-74c-2 0 -3 1 -3 3v60c0 1 1 1 1 2zM149 222c-2 0 -4 1 -6 2l-46 34l-43 -33c-1 -2 -4 -2 -6 -2l-6 3c-3 4 -2 9 2 12l49 38c4 2 8 2 11 0l51 -39c1 -2 3 -4 3 -6s-1 -4 -2 -6c-2 -2 -4 -3 -7 -3z
M194 242c-5 0 -8 3 -8 8c0 4 4 8 8 8h77c4 0 8 -4 8 -8s-4 -8 -8 -8h-77zM194 196c-5 0 -8 4 -8 8s4 8 8 8h163c4 0 8 -4 8 -8s-4 -8 -8 -8h-163zM194 149c-5 0 -8 4 -8 8s4 8 8 8h163c4 0 8 -4 8 -8s-4 -8 -8 -8h-163zM464 142l12 -10l5 -5l-5 -5l-14 -16l-6 -7l-3 -3
c1 -4 1 -7 1 -11c0 -9 -2 -18 -6 -25c-5 -9 -13 -17 -22 -22c-7 -4 -16 -6 -25 -6c-8 0 -15 2 -22 5c-8 4 -16 11 -21 19c-6 8 -9 18 -9 29c0 29 23 53 52 53c11 0 22 -4 31 -10c1 -1 3 -2 4 -3l3 3l5 5l2 2c-4 4 -10 7 -15 10v178c0 7 -6 13 -13 13h-387
c-8 0 -14 -6 -13 -13v-254c0 -7 6 -13 13 -13h311c3 -7 8 -14 13 -19h-324c-17 0 -31 15 -31 32v254c0 17 14 32 31 32h386c17 0 31 -15 31 -32v-185l6 5l5 4zM457 110l14 16l-11 11l-11 -9l-5 -5l-43 -38l-24 24l-14 -12l38 -48l50 54z" />
    <glyph glyph-name="uniF138" unicode="&#xf138;" horiz-adv-x="371" 
d="M287 250c49 -11 84 -29 84 -55s-35 -45 -84 -56c16 -47 19 -88 -3 -102c-5 -3 -10 -4 -16 -4c-15 0 -35 10 -56 28c-9 8 -17 16 -26 25c-9 -10 -19 -18 -27 -25c-21 -18 -41 -28 -56 -28c-6 0 -11 1 -16 4c-22 14 -19 55 -3 102c-49 10 -84 30 -84 56s35 44 84 55
c-3 9 -6 19 -8 27c-9 39 -5 65 11 75c17 10 42 1 72 -24c9 -8 18 -16 27 -25c9 10 18 18 26 25c30 25 56 34 72 24c17 -11 20 -36 11 -75c-2 -8 -5 -18 -8 -27zM223 315c-9 -7 -17 -15 -25 -25c9 -9 17 -21 25 -32c16 -2 33 -3 48 -6c3 9 6 19 8 28c7 29 5 50 -4 56
c-2 1 -4 3 -7 3c-10 0 -27 -9 -45 -24zM120 176c-4 -8 -9 -17 -12 -25c9 -2 20 -3 30 -4c-3 4 -5 8 -8 12c-3 6 -7 11 -10 17zM120 212c3 6 7 12 10 17c3 4 5 8 8 12c-10 -1 -21 -2 -30 -4c3 -8 8 -17 12 -25zM129 195l15 -27c5 -7 10 -15 15 -22c9 -1 19 -1 28 -1
c10 0 18 1 27 1c5 7 10 14 15 22l15 27c-5 9 -10 17 -15 26c-5 7 -10 15 -15 22c-9 1 -18 1 -27 1c-10 0 -19 -1 -28 -1c-5 -7 -10 -14 -15 -22c-5 -9 -10 -18 -15 -26zM242 159c-3 -4 -5 -8 -8 -12c10 1 21 2 30 4c-3 8 -8 16 -12 25c-3 -6 -7 -11 -10 -17zM242 229
c3 -5 7 -11 10 -17c4 8 9 17 12 25c-9 2 -20 3 -30 4c3 -4 5 -8 8 -12zM201 260c-5 6 -10 13 -14 19c-5 -6 -10 -13 -15 -19h15h14zM97 337c-9 -6 -11 -27 -4 -55c2 -9 5 -19 8 -28c15 3 32 5 48 6c8 11 17 22 25 32c-8 9 -17 17 -25 24c-18 15 -35 24 -45 24
c-3 0 -5 -2 -7 -3zM17 195c0 -15 29 -31 73 -41c5 13 11 27 18 40c-7 14 -13 27 -18 40c-45 -9 -73 -25 -73 -39zM149 73c8 7 17 15 26 24c-9 9 -17 21 -25 32c-16 2 -33 3 -48 6c-16 -43 -17 -75 -5 -83c9 -6 29 2 52 21zM171 129c5 -6 11 -13 15 -19c5 6 9 13 14 19h-14
h-15zM275 52c12 8 11 40 -4 83c-15 -3 -32 -5 -48 -6c-8 -11 -17 -22 -25 -32c8 -9 17 -17 25 -24c22 -19 43 -27 52 -21zM281 154c45 10 73 26 73 41c0 14 -28 29 -73 39c-5 -13 -11 -27 -18 -40c7 -13 13 -27 18 -40zM154 191c0 17 14 31 31 31s30 -14 30 -31
s-13 -30 -30 -30s-31 13 -31 30z" />
    <glyph glyph-name="uniF14D" unicode="&#xf14d;" horiz-adv-x="448" 
d="M442 125l6 -7l-5 -5l-13 -15l-6 -7l-3 -3c1 -4 1 -7 1 -11c0 -9 -2 -18 -6 -25c-5 -9 -14 -17 -23 -22c-7 -4 -15 -6 -24 -6c-8 0 -15 2 -22 5c-8 4 -17 11 -22 19c-6 8 -9 18 -9 29c0 29 24 53 53 53c11 0 21 -3 29 -9c1 -1 4 -3 5 -4l3 4l5 5l2 2c-4 4 -11 7 -16 10
v189c0 7 -6 14 -13 14h-353c-7 0 -13 -7 -13 -14v-265c0 -7 6 -13 13 -13h277c3 -7 8 -14 13 -19h-290c-17 0 -31 15 -31 32v265c0 17 14 32 31 32h352c17 0 32 -15 32 -32v-195l6 5l5 4l5 -5zM424 104l14 16l-11 11l-11 -9l-5 -6l-43 -37l-24 24l-14 -12l38 -49v0l50 55z
M184 117c-4 0 -9 4 -10 10c0 4 3 7 6 10c2 2 4 3 6 5c2 3 5 6 8 9s7 5 11 3s6 -7 5 -11c-1 -3 -4 -6 -6 -8v0c-4 -4 -8 -9 -12 -13c-2 -3 -5 -5 -8 -5zM309 179c-7 -9 -17 -10 -29 -4c-10 4 -16 12 -23 19c-7 8 -14 16 -21 23l-9 9c-2 3 -5 5 -9 7c-5 2 -9 0 -13 -2
c-3 -1 -5 -3 -8 -4c-4 -3 -8 -5 -12 -7c-3 -2 -8 -4 -11 -6s-7 -3 -11 -1s-5 7 -4 11c2 5 7 7 10 10c4 4 9 7 13 10c5 3 11 7 16 10c4 2 8 5 12 7s9 6 14 7s11 0 16 -2c4 -2 9 -5 13 -8s9 -6 14 -7c3 -1 5 -1 7 0c1 0 2 1 3 1s2 1 3 1s1 0 1 -1v-1c1 -1 1 -2 2 -3
c2 -4 4 -7 6 -11c8 -15 16 -32 24 -47c1 -1 0 -4 -1 -5c0 -2 -2 -4 -3 -6zM163 134c-5 0 -9 3 -9 5c-1 6 4 10 8 14c1 2 3 4 5 6s3 5 6 6c5 2 11 0 13 -4s1 -7 -2 -10c-4 -4 -10 -9 -14 -13c-2 -2 -4 -4 -7 -4zM285 143c-5 -3 -9 -1 -18 -1c0 -3 1 -5 0 -8c0 -3 -2 -6 -5 -8
s-8 -2 -11 -1s-5 3 -8 4c1 -4 1 -9 -2 -13c-2 -3 -7 -5 -12 -4c4 10 -3 23 -14 25c4 14 -9 28 -23 23c-1 7 -8 13 -15 14c-3 0 -7 0 -10 -1c-4 -2 -6 -4 -9 -7c-1 2 -2 5 -4 7c-3 4 -8 6 -13 6c-6 0 -10 -3 -14 -7l-1 -1v0l-2 2c-2 2 -5 4 -7 6s-6 4 -8 6c-1 1 -3 2 -3 3
c0 0 1 2 1 3c1 2 1 4 2 6c5 12 10 23 15 35c3 5 5 11 7 16c1 2 1 3 2 5c0 1 1 2 1 2c1 1 3 -1 4 -1s3 -1 4 -1c3 -1 6 -2 9 -2c6 0 12 1 18 4c5 3 10 6 16 8c5 1 11 1 16 -1c-13 -8 -27 -17 -39 -26c-1 -1 -3 -2 -4 -3c-4 -3 -6 -7 -7 -12c-1 -10 7 -19 17 -20
c7 -1 14 4 20 7s11 6 16 9c2 1 3 2 5 3c3 1 6 4 9 3s5 -4 7 -6l6 -6c4 -4 8 -9 12 -13c6 -8 14 -17 22 -24c4 -3 9 -6 14 -8c2 -1 6 -1 8 -3s3 -4 4 -6v0v0c2 -5 -1 -12 -6 -14zM212 104c-5 -2 -12 1 -13 8c0 4 4 9 7 12s6 6 10 6c7 0 11 -9 7 -15c-1 -2 -3 -4 -5 -6
s-4 -4 -6 -5zM136 155c-8 9 9 24 16 15c1 -3 2 -5 1 -8c0 -3 -2 -4 -4 -6c-3 -4 -9 -5 -13 -1zM152 169c0 0 1 0 0 0c1 0 1 0 0 0zM153 169c1 -2 0 -1 0 0v0zM331 191c-4 6 -8 13 -9 18c-8 15 -15 29 -23 43c-2 2 -3 5 -4 7c0 1 -1 1 -1 2c-1 1 -1 0 0 1s2 1 3 2
c2 1 20 12 20 12v0c1 0 1 -1 1 -1c7 -14 16 -29 23 -43c4 -8 8 -15 12 -23l3 -6v-1c0 -1 -3 -2 -3 -2c-3 -2 -7 -3 -10 -5c-3 -1 -5 -3 -7 -4c-1 0 -3 -1 -4 -1s-1 1 -1 1zM123 267c-2 -6 -4 -12 -6 -16l-21 -51c-1 -2 -1 -3 -2 -5c-1 0 -1 -1 -1 -1l-1 -4h-1
c-1 0 -2 1 -3 1c-4 2 -9 4 -13 6l-8 3c0 1 1 3 2 4c0 1 1 2 1 3c2 5 3 9 5 13c5 14 11 27 16 41c2 4 3 10 5 14l1 3s3 -2 4 -2c2 -1 22 -9 22 -9z" />
    <glyph glyph-name="uniF13E" unicode="&#xf13e;" horiz-adv-x="322" 
d="M321 310l1 -269c0 -23 -19 -42 -42 -42h-237c-23 0 -43 19 -43 42v302c0 23 20 42 43 42h208l1 -1l69 -74v0zM304 294h-54c-6 0 -11 4 -11 10v62h-196c-13 0 -24 -10 -24 -23v-302c0 -13 11 -23 24 -23h238c13 0 23 10 23 23v253zM261 347l1 -32h28zM143 147v3h31v7
c0 7 5 14 11 20l10 9c8 7 13 15 16 21s5 12 5 19c0 15 -5 27 -14 35s-23 13 -40 13s-30 -5 -40 -14s-16 -21 -16 -36h35c1 6 2 11 6 15c3 3 8 5 14 5c13 0 19 -7 19 -20c0 -5 -2 -9 -4 -13s-7 -10 -14 -16c-7 -7 -12 -14 -15 -21s-4 -16 -4 -27zM140 109c0 5 2 11 5 14
c4 3 8 5 14 5s10 -2 14 -5s5 -9 5 -14s-2 -10 -5 -13c-4 -3 -8 -5 -14 -5s-11 2 -14 5s-5 8 -5 13z" />
    <glyph glyph-name="uniF112" unicode="&#xf112;" horiz-adv-x="390" 
d="M102 228c3 1 7 2 25 3c5 1 75 5 75 5l-53 -39s-26 10 -57 22c0 1 0 1 2 2l1 1c4 4 5 5 7 6zM6 117c-13 9 -2 20 19 22c3 1 6 1 10 1c28 1 49 -1 50 -1v0l240 172c13 7 23 11 32 12c15 3 26 -2 30 -8c13 -19 -15 -48 -18 -51l-95 -69l5 12c1 3 0 6 -3 7s-6 0 -7 -3l-2 -5
l-9 -23v0l-39 -96c0 -1 -7 -10 -19 -17l-2 -1c-1 -1 -2 -1 -3 -2v5v3c0 9 -1 38 -1 60v9v15v7v3s-1 1 -1 2c0 2 -2 5 -5 4c-5 -1 -5 -6 -5 -6v-40c-48 -35 -92 -67 -92 -67l-2 -2s-67 46 -83 57z" />
    <glyph glyph-name="uniF152" unicode="&#xf152;" horiz-adv-x="376" 
d="M357 138c10 0 19 -9 19 -20v-32c0 -10 -8 -19 -19 -19h-338c-10 0 -19 8 -19 19v32c0 10 8 20 19 20h338zM132 92h1v17h-104v-17h103zM333 87c8 0 14 6 14 14s-6 14 -14 14s-15 -6 -15 -14s7 -14 15 -14zM357 228c10 0 19 -9 19 -19v-33c0 -10 -8 -19 -19 -19h-338
c-10 0 -19 8 -19 19v33c0 10 8 19 19 19h338zM132 181h1v18h-104v-18h103zM333 177c8 0 14 6 14 14s-6 15 -14 15s-15 -7 -15 -15s7 -14 15 -14zM357 318c10 0 19 -9 19 -20v-32c0 -10 -8 -20 -19 -20h-338c-10 0 -19 9 -19 20v33c0 10 8 19 19 19h338zM132 272h1v17h-104
v-17h103zM333 267c8 0 14 6 14 14s-6 14 -14 14s-15 -6 -15 -14s7 -14 15 -14z" />
    <glyph glyph-name="uniF142" unicode="&#xf142;" horiz-adv-x="438" 
d="M223 327l2 -31h-12l2 31h8zM233 180l12 -122h-49l9 122h28zM231 210h-24v0v0l5 70h14l5 -70v0v0zM40 58h-16h-24l170 269v0h6h5zM407 58h-18l-139 268h4h7v0l177 -268h-31z" />
    <glyph glyph-name="uniF118" unicode="&#xf118;" horiz-adv-x="250" 
d="M6 201v0s1 0 2 3c3 0 6 -1 7 -4c31 -55 65 -59 101 -59v32c0 3 1 6 4 7c2 1 6 1 8 -1l101 -73c2 -2 3 -4 3 -7s-1 -6 -3 -7l-101 -72c-2 -2 -5 -2 -8 -1c-2 1 -4 4 -4 7v34c-47 4 -81 22 -99 53c-15 26 -17 59 -17 80c0 4 3 7 6 8zM124 76v0c4 -1 8 -4 8 -8v-26l78 57
l-79 57v-25c0 -2 -1 -5 -2 -6c-2 -1 -4 -2 -6 -2c-35 0 -73 -1 -106 41c6 -42 29 -84 107 -88zM124 76zM244 183v0c-1 0 -2 0 -2 -3c-3 0 -6 1 -7 4c-31 55 -64 59 -100 59v-32c0 -3 -1 -6 -4 -7c-2 -1 -6 -1 -8 1l-102 73c-2 2 -3 4 -3 7s1 6 3 7l102 72c2 2 5 2 8 1
c2 -1 4 -4 4 -7v-34c47 -4 80 -22 98 -53c15 -26 17 -59 17 -80c0 -4 -3 -7 -6 -8zM127 309v0c-5 0 -8 4 -8 8v26l-79 -57l80 -57v25c0 2 1 5 2 6c2 1 4 2 6 2c35 0 72 1 105 -41c-6 42 -28 84 -106 88zM127 309z" />
    <glyph glyph-name="uniF104" unicode="&#xf104;" horiz-adv-x="247" 
d="M235 204c4 -1 6 -4 12 -7l-2 -116c-1 -9 -36 -29 -36 -29c-19 -10 -50 -23 -85 -23s-66 13 -85 23c-1 1 -37 20 -37 29l-2 116c0 4 3 7 6 7c5 0 10 3 13 7c18 23 12 93 8 118v1v0v1v0v1v0v1v0v1v0h1v0c0 1 1 1 1 1l43 20h1v0h1h1h1h1h1v0v0v0h1v0l1 -1v0v-1v-1v-1
c0 -1 13 -42 41 -42v0c25 0 38 33 40 40v1c0 2 1 3 3 4c1 1 2 1 3 1h3l43 -18v0v0v0c0 -1 1 -1 1 -1v0l1 -1v0v-1v0v-1v0v0v-1v0v-1v0v-1c-4 -25 -10 -96 8 -119c3 -4 7 -7 12 -7zM169 340l-13 -54l23 -8l21 49zM64 339l-28 -13l21 -49l23 7l-14 56zM227 83l3 106
c-6 2 -12 7 -16 12c-14 18 -16 56 -15 85l-8 -19c-1 -2 -3 -5 -6 -5h-3l-35 11c-3 1 -5 5 -4 8l6 26c-8 -7 -18 -12 -30 -12v0v0c-13 0 -23 5 -31 12l7 -27c1 -4 -1 -7 -4 -8l-35 -11h-2c-3 0 -5 2 -6 5l-8 19c1 -29 -2 -65 -16 -83c-5 -6 -10 -10 -16 -12l2 -107
c8 -7 52 -41 109 -41v0c57 0 100 33 108 41zM180 197c4 0 8 -4 7 -7v-37c0 -3 -3 -6 -7 -6h-124c-3 0 -6 2 -6 6v37c0 3 2 7 6 7h124zM174 159v24h-112v-24h112zM180 125c4 0 8 -4 7 -7v-37c0 -3 -3 -6 -7 -6h-124c-3 0 -6 2 -6 6v37c0 3 2 7 6 7h124zM174 87v24h-112v-24
h112z" />
    <glyph glyph-name="uniF139" unicode="&#xf139;" horiz-adv-x="366" 
d="M95 19c-53 0 -95 42 -95 96v138c0 53 42 96 95 96h138c21 0 41 -8 56 -19l-16 -14c-11 7 -26 11 -40 11h-138c-42 0 -75 -33 -75 -75v-137c0 -42 33 -75 75 -75h138c42 0 75 33 75 75v108l20 22v-131c0 -53 -42 -95 -95 -95h-138zM164 195l124 109l15 13l32 29l31 -32
l-40 -43l-18 -21l-143 -159v0v0l-111 140l39 35z" />
    <glyph glyph-name="uniF12C" unicode="&#xf12c;" horiz-adv-x="187" 
d="M78 259c1 0 2 -1 3 -2c-14 -8 -28 -17 -38 -27h99c-4 5 -8 8 -13 12c-11 8 -24 15 -37 22c-2 2 -5 4 -8 6c-6 3 -11 6 -16 9c-2 1 -5 3 -7 4c-13 7 -24 17 -32 27c-25 32 -28 73 -28 75c0 6 5 12 11 12s12 -5 12 -11c0 0 1 -11 5 -25h129c4 14 5 25 5 25c0 7 6 11 12 11
c7 0 12 -6 12 -12c0 -3 -5 -68 -57 -101c-7 5 -16 9 -24 13c3 2 6 3 9 5c7 4 12 8 17 13h-73l6 -6c3 -2 6 -5 10 -7c6 -4 12 -7 19 -11c0 0 1 -1 2 -1c7 -4 16 -8 23 -12c18 -10 35 -22 47 -36s21 -31 21 -52c0 -39 -27 -62 -57 -81c-6 4 -14 9 -22 13c0 0 -1 1 -2 1
c14 8 29 17 39 27h-100c5 -5 11 -9 17 -14c10 -7 21 -14 32 -20c2 -2 5 -3 8 -5c6 -3 12 -6 17 -9c2 -1 5 -3 7 -4c15 -8 26 -19 34 -31c23 -32 27 -70 27 -72c0 -6 -6 -12 -12 -12h-1c-7 0 -12 5 -12 11c0 0 -1 10 -4 22h-129c-3 -13 -4 -22 -4 -22c-1 -6 -6 -11 -12 -11
h-1c-7 0 -11 6 -11 12c0 3 5 68 57 101c7 -5 15 -9 23 -13c-3 -2 -5 -3 -8 -5c-8 -5 -14 -11 -20 -17h79c-1 2 -3 4 -5 6c-5 4 -9 8 -15 11c-6 4 -13 7 -20 11c0 0 -1 1 -2 1c-7 4 -15 8 -22 12c-16 9 -33 20 -45 33c-14 14 -23 32 -23 54c0 39 27 63 57 82
c7 -3 14 -8 21 -12zM153 27c-2 7 -6 16 -11 24h-97c-5 -7 -10 -16 -13 -24h121zM33 351c3 -8 8 -17 14 -24h92c6 7 10 16 13 24h-119zM152 161c5 7 8 15 8 23h-136c1 -8 4 -16 9 -23h119zM152 220h-119c-5 -7 -8 -14 -9 -23h137c-1 8 -4 16 -9 23z" />
    <glyph glyph-name="uniF11C" unicode="&#xf11c;" 
d="M418 351c17 0 31 -15 31 -32v-253c0 -17 -14 -32 -31 -32h-387c-17 0 -31 15 -31 32v253c0 17 14 32 31 32h387zM431 66v253c0 7 -6 13 -13 13h-387c-7 0 -13 -6 -13 -13v-253c0 -7 6 -13 13 -13h387c7 0 13 6 13 13zM78 213c-3 -4 -4 -10 -6 -18v-5c0 -9 1 -15 4 -19
c2 -4 6 -6 12 -6c5 0 9 1 11 3c2 3 4 6 4 11h17c0 -8 -3 -15 -9 -20c-5 -5 -14 -7 -23 -7c-10 0 -18 3 -24 10s-9 16 -9 28v6c0 7 1 14 4 20c3 5 7 10 12 13s11 5 18 5c9 0 17 -3 23 -8s9 -12 10 -21h-17c0 5 -2 9 -4 11s-6 3 -11 3s-9 -2 -12 -6zM150 231v-67h36v-13h-52
v80h16zM238 177v55h16v-53c0 -9 -3 -16 -8 -21s-13 -8 -22 -8s-17 2 -22 7s-8 11 -8 20v54h16v-53c0 -5 2 -9 4 -11c2 -3 6 -4 10 -4c9 0 14 4 14 14zM297 219c-4 0 -8 -1 -8 -2c-2 -2 -3 -4 -3 -7c0 -2 1 -4 4 -6c2 -2 6 -3 11 -5c9 -2 16 -7 20 -11s6 -9 6 -15
c0 -7 -3 -12 -8 -16s-12 -6 -21 -6c-6 0 -12 1 -17 3s-8 5 -11 9s-4 9 -4 14h16c0 -9 6 -13 16 -13c4 0 7 0 9 2s3 4 3 7s-1 5 -3 7c-2 1 -6 3 -12 5c-5 1 -10 3 -13 5c-9 5 -14 13 -14 21c0 4 2 8 4 11s5 6 10 8s9 4 15 4c5 0 11 -2 15 -4s8 -5 10 -9c3 -4 4 -8 4 -13h-16
c0 3 -1 6 -3 8c-3 2 -6 3 -10 3zM354 185v-21h37v-13h-53v80h53v-13h-37v-19h32v-14h-32z" />
    <glyph glyph-name="uniF116" unicode="&#xf116;" horiz-adv-x="310" 
d="M53 18c-28 0 -53 25 -53 53v242c0 29 25 53 53 53h23h182c29 0 52 -25 52 -53v-242c0 -29 -24 -53 -52 -53h-205zM22 246v-172c0 -20 18 -38 38 -38h190c20 0 38 18 38 38v172v38h-266v-38zM56 213c-6 0 -12 5 -12 12v24c0 6 5 12 12 12h24c6 0 12 -5 12 -12v-24
c0 -6 -5 -12 -12 -12h-24zM143 213c-6 0 -12 5 -12 12v24c0 6 5 12 12 12h24c6 0 12 -5 12 -12v-24c0 -6 -5 -12 -12 -12h-24zM230 213c-6 0 -12 5 -12 12v24c0 6 5 12 12 12h24c6 0 13 -5 13 -12v-24c0 -6 -6 -12 -13 -12h-24zM56 136c-6 0 -12 6 -12 12v24c0 6 5 12 12 12
h24c6 0 12 -5 12 -12v-24c0 -6 -5 -12 -12 -12h-24zM230 136c-6 0 -12 6 -12 12v24c0 6 5 12 12 12h24c6 0 13 -5 13 -12v-24c0 -6 -6 -12 -13 -12h-24zM56 60c-6 0 -12 6 -12 13v23c0 6 5 12 12 12h24c6 0 12 -5 12 -12v-24c0 -6 -5 -12 -12 -12h-24zM167 109
c7 0 12 -6 12 -12v-24c0 -6 -5 -12 -12 -12h-24c-6 0 -12 5 -12 12v24c0 6 5 12 12 12h24zM230 60c-6 0 -12 6 -12 13v23c0 6 5 12 12 12h24c6 0 13 -5 13 -12v-24c0 -6 -6 -12 -13 -12h-24zM209 195l-54 -60l-29 37l10 9l19 -19l45 41z" />
    <glyph glyph-name="uniF136" unicode="&#xf136;" horiz-adv-x="335" 
d="M53 83h28h32h39h32h39h31h28h4c2 -1 3 -2 4 -3s2 -1 2 -2c1 -2 2 -4 2 -7s-1 -5 -2 -7c0 -1 -1 -1 -1 -3c-1 -1 -3 -2 -4 -3c-2 -1 -3 -1 -5 -1h-229c-2 0 -3 0 -5 1s-3 2 -4 3s-2 1 -2 2c-1 2 -2 4 -2 7s1 5 2 7l2 2s3 2 4 3c2 1 3 1 5 1zM305 263c0 -1 -1 -3 -2 -5
c-3 -4 -8 -6 -14 -6h-35h-31h-39h-32h-39h-32h-34c-8 0 -15 4 -18 10c-2 5 -1 11 2 15c1 2 3 3 4 4l121 83c3 2 7 3 11 3s8 -1 12 -3l120 -83c3 -2 5 -5 6 -8s1 -7 0 -10zM167 285c12 0 22 10 22 21s-11 21 -22 21s-21 -10 -21 -21s9 -21 21 -21zM81 97v139h32v-139h-32z
M152 97v139h32v-139h-32zM223 97v139h31v-139h-31zM0 32c0 7 6 12 13 12h309c6 0 13 -6 13 -12s-6 -12 -13 -12h-310c-6 0 -12 5 -12 12z" />
    <glyph glyph-name="uniF148" unicode="&#xf148;" horiz-adv-x="358" 
d="M350 343c4 0 8 -5 8 -9v-315c0 -19 -15 -35 -31 -35h-297c-17 0 -30 16 -30 35v315c0 5 4 9 8 9h94c6 0 12 -6 12 -12v-30c0 -6 3 -11 7 -11h116c4 0 7 5 7 11v30c0 6 5 12 11 12h95zM342 19v307h-81v-26c0 -14 -11 -26 -24 -26h-115c-13 0 -24 12 -24 26v26h-82v-307
c0 -10 6 -19 14 -19h297c8 0 15 9 15 19zM260 114c-2 -5 -6 -5 -12 -4c-6 2 -10 4 -10 8s4 12 14 7c6 -2 8 -9 8 -11zM185 202c7 -13 23 -64 7 -93c-12 -22 -28 -30 -30 -30c-1 -1 -15 -6 -42 12s-37 70 -37 85s8 15 21 14c10 0 43 8 55 15c11 7 19 11 26 -3zM157 171
c-6 -3 -9 -10 -7 -13c2 -6 8 -4 14 -1s11 6 9 10s-10 7 -16 4zM108 151c0 -4 7 -5 13 -5c7 0 13 0 13 6c0 4 -5 9 -12 9s-14 -6 -14 -10zM154 101c14 4 20 18 22 23c0 5 -3 1 -3 1c-6 -6 -21 -11 -21 -11c-1 0 -16 -3 -24 0c0 0 -5 3 -2 -2c2 -5 14 -14 28 -11zM225 122
c-2 -4 -6 -6 -13 -4c-3 0 -5 2 -7 3c1 4 2 7 2 10c2 1 4 2 7 2c11 1 13 -7 11 -11zM204 172c2 -1 5 -2 5 -3c9 -5 43 -11 56 -9c13 1 21 2 22 -13s-3 -68 -29 -88c-10 -9 -21 -14 -28 -16s-11 -2 -12 -2s-16 2 -34 29c-2 3 -5 6 -6 9c4 3 8 7 11 11c2 -5 4 -9 6 -13
c8 -12 15 -17 19 -20c2 0 4 -2 6 -2c0 1 3 1 7 2c5 1 14 5 23 12c4 4 9 9 13 16c3 7 6 14 8 23c4 17 5 33 4 39v2c-2 0 -5 -1 -7 -1v0c-10 -1 -26 1 -34 2c-4 1 -19 3 -28 7c0 5 -1 10 -2 15zM205 81c0 0 -4 -3 -1 2c2 4 11 12 23 10c11 -3 17 -13 17 -18c1 -4 -2 -1 -2 -1
c-5 5 -17 8 -18 8c0 0 -13 2 -19 -1zM289 359c-3 0 -6 3 -6 6v24h-209v-25c0 -3 -2 -5 -5 -5s-5 2 -5 5v30c0 3 2 5 5 5h220c3 0 5 -2 5 -5v-30c0 -3 -2 -5 -5 -5z" />
    <glyph glyph-name="uniF108" unicode="&#xf108;" horiz-adv-x="358" 
d="M350 343c4 0 8 -5 8 -9v-315c0 -19 -15 -35 -31 -35h-297c-17 0 -30 16 -30 35v315c0 5 4 9 8 9h94c6 0 12 -6 12 -12v-30c0 -6 3 -11 7 -11h116c4 0 7 5 7 11v30c0 6 5 12 11 12h95zM342 19v307h-81v-26c0 -14 -11 -26 -24 -26h-115c-13 0 -24 12 -24 26v26h-82v-307
c0 -10 6 -19 14 -19h297c8 0 15 9 15 19zM289 359c-3 0 -6 3 -6 6v24h-209v-25c0 -3 -2 -5 -5 -5s-5 2 -5 5v30c0 3 2 5 5 5h220c3 0 5 -2 5 -5v-30c0 -3 -2 -5 -5 -5zM161 96v3h31v7c0 7 4 15 10 21l10 9c8 7 13 14 16 20s5 12 5 19c0 15 -5 28 -14 36s-23 12 -40 12
s-30 -4 -40 -13s-15 -22 -15 -37h35c1 6 3 12 6 15s8 6 14 6c13 0 20 -8 20 -21c0 -5 -2 -9 -4 -13s-8 -10 -15 -16c-7 -7 -12 -13 -15 -20s-4 -17 -4 -28zM157 59c0 5 2 10 5 13c4 3 8 5 14 5s11 -2 15 -5s5 -8 5 -13s-2 -11 -5 -14c-4 -3 -9 -5 -15 -5s-11 2 -14 5
c-3 4 -5 9 -5 14z" />
    <glyph glyph-name="uniF107" unicode="&#xf107;" horiz-adv-x="347" 
d="M50 176c-25 0 -47 22 -50 45c0 26 22 47 47 47h4c-3 5 -4 12 -4 18c0 26 21 46 46 46c10 0 20 -4 28 -9c2 27 25 49 52 49v0v0c27 0 51 -22 53 -49c8 6 17 9 27 9c26 0 47 -21 47 -46c0 -6 -2 -12 -4 -18h4c26 0 47 -22 47 -47c0 -26 -22 -47 -47 -47c-11 0 -21 4 -29 10
c-4 -13 -17 -23 -32 -23c-8 0 -14 3 -20 7c-6 -11 -17 -20 -29 -25c-4 -24 -10 -109 67 -117c2 0 16 -3 13 -6v0v0c-3 -4 -43 4 -45 -1c-2 -4 17 -15 8 -19c-8 -4 -31 20 -39 18s-7 -16 -18 -19c-1 -1 -2 -1 -3 -1v0v0v0v0c-1 0 -2 1 -3 1c-11 3 -9 17 -17 19
c-8 1 -30 -22 -39 -18s10 14 8 19c-1 5 -42 -3 -45 1s13 7 13 7c76 8 71 90 67 116c-12 3 -22 10 -29 20c-2 3 -4 5 -5 8c-5 -4 -13 -7 -21 -7c-13 0 -24 7 -29 18c-7 -4 -14 -6 -23 -6z" />
    <glyph glyph-name="uniF12E" unicode="&#xf12e;" horiz-adv-x="353" 
d="M311 214c3 -2 5 -5 6 -8c0 -1 11 -129 16 -216c0 -4 -3 -8 -5 -11c-3 -3 -7 -5 -11 -5h-302c-4 0 -8 2 -11 5s-4 7 -4 11l18 290c0 8 6 14 14 14h47c7 0 14 -6 14 -14l6 -95l55 28c2 2 5 2 8 0c2 -1 4 -4 4 -7l1 -24l62 31c2 2 5 2 8 0c2 -1 4 -4 4 -7v-23l62 31
c2 2 5 1 8 0zM18 -8l292 1c-3 70 -10 166 -13 200l-62 -32c-2 -2 -5 -2 -8 0c-2 1 -4 4 -4 7l-1 23l-62 -30c-2 -2 -5 -2 -8 0c-2 1 -4 4 -4 7l-1 23l-54 -26c-2 -2 -5 -1 -8 0c-2 1 -4 4 -4 7l-6 106h-41zM344 398c10 -17 12 -38 6 -57c-8 -23 -28 -44 -51 -53
c-10 -4 -20 -6 -30 -6c-38 0 -73 25 -89 55c-19 36 -50 53 -82 45c-24 -6 -42 -24 -42 -42c0 -5 -4 -10 -9 -10v0c-5 0 -9 5 -9 10c0 26 23 51 55 59c41 10 79 -9 102 -53c17 -32 57 -57 96 -42c18 7 35 24 41 42c4 10 5 26 -4 43c-9 16 -28 28 -44 21
c-7 -3 -12 -11 -12 -18c0 -5 2 -8 7 -10c5 -1 7 -6 5 -11c-1 -5 -6 -7 -11 -5c-12 4 -20 14 -20 26c0 15 11 30 24 36c26 11 54 -8 67 -30zM137 122c5 0 9 -4 9 -10c0 -5 -4 -9 -9 -9h-36c-5 0 -9 4 -9 9s4 10 9 10h36zM207 122c5 0 9 -4 9 -10c0 -5 -4 -9 -9 -9h-36
c-5 0 -9 4 -9 9s4 10 9 10h36zM277 122c5 0 9 -4 9 -10c0 -5 -4 -9 -9 -9h-36c-5 0 -9 4 -9 9s4 10 9 10h36z" />
    <glyph glyph-name="uniF13B" unicode="&#xf13b;" horiz-adv-x="293" 
d="M216 -0v-1h-216v338v15v5v0c0 5 1 7 2 10c5 10 17 17 32 17h190c25 0 69 -18 69 -67v-267c0 -24 -18 -41 -44 -41h-5c-8 -6 -17 -9 -28 -9zM243 44h-1v268c0 13 -12 24 -27 24h-196v-316h197c15 0 27 11 27 24zM14 360c1 0 -1 -2 2 -3h200c26 0 48 -21 48 -45v-267
c0 -7 -2 -13 -5 -19c13 3 20 12 20 25v263c0 41 -37 56 -53 56h-187c-19 0 -24 -7 -25 -10zM136 246c36 -3 66 -32 68 -68v0v-9v0c-3 -36 -32 -66 -68 -68v0h-9v0c-36 3 -66 32 -68 68v0v9v0c3 36 32 66 68 68v0h9v0zM104 230c-11 -5 -20 -13 -25 -23h14c3 9 6 17 11 23z
M73 198c-2 -6 -4 -13 -4 -20h19c0 7 1 14 2 20h-17zM69 169c0 -7 2 -14 4 -19h17c-1 6 -2 12 -2 19h-19zM78 140c6 -10 15 -19 25 -24c-4 7 -8 15 -11 24h-14zM127 111v29h-24c5 -15 14 -26 24 -29zM127 149h1v19h-30c0 -7 1 -13 2 -19h27zM127 178h-1v20h-27
c-1 -6 -2 -13 -2 -20h30zM127 208v28c-9 -3 -19 -13 -24 -28h24zM185 208c-6 9 -16 17 -26 23c4 -7 8 -14 11 -23h15zM136 236v-28h23c-5 15 -13 25 -23 28zM136 198h-1v-20h29c0 7 -1 14 -2 20h-26zM136 169h1v-19h26c1 6 2 12 2 19h-29zM136 111c10 2 19 14 23 29h-23v-29
zM158 116c11 5 21 14 27 24h-16c-3 -9 -6 -18 -11 -24zM190 149c2 6 4 13 4 19h-20c0 -7 -1 -13 -2 -19h18zM174 178h21c-1 7 -3 14 -5 20h-18c1 -6 2 -13 2 -20z" />
    <glyph glyph-name="uniF11B" unicode="&#xf11b;" horiz-adv-x="382" 
d="M67 277c-4 0 -8 3 -8 8c0 4 4 8 8 8h99c4 0 8 -4 8 -8s-4 -8 -8 -8h-99zM67 230c-4 0 -8 4 -8 8s4 8 8 8h185c4 0 9 -4 9 -8s-5 -8 -9 -8h-185zM67 183c-4 0 -8 4 -8 8s4 9 8 9h185c4 0 9 -5 9 -9s-5 -8 -9 -8h-185zM42 -31c-23 0 -42 20 -42 41v301c0 23 19 42 42 42
h208l69 -73v0l1 -269c0 -23 -18 -42 -41 -42h-237zM290 284l-31 35v-35h31zM16 312h1v-301c0 -13 12 -24 25 -24h235c13 0 24 11 24 24v253h-54v0c-5 0 -9 5 -9 10v62h-197c-13 0 -25 -11 -25 -24zM63 113c-7 5 -9 15 -3 22c2 3 6 5 10 6c5 1 9 -1 12 -3c5 -3 7 -10 5 -16
l35 -17c6 5 14 6 20 1l1 -1l33 24c-2 4 -1 9 2 13c2 3 7 5 11 6c5 1 9 -1 12 -3c5 -4 7 -10 6 -16l32 -25c5 3 13 3 18 -1c7 -5 8 -15 3 -22c-2 -3 -7 -6 -12 -6l-13 -40c7 -6 8 -15 3 -22c-2 -3 -6 -5 -10 -6h-2c-3 0 -6 1 -9 3s-5 5 -6 9l-41 1c0 -2 -1 -3 -2 -5
c-2 -3 -6 -5 -10 -6c-5 -1 -9 1 -12 3s-5 6 -6 10c-1 5 1 9 3 12c1 2 2 3 4 4l-12 40c-4 0 -8 1 -11 3c-5 4 -7 10 -6 16l-36 17c-5 -5 -13 -5 -19 -1zM145 84c0 -1 -1 -1 -1 -2l13 -42c4 0 7 -1 9 -3c2 -1 4 -4 5 -7l42 -1c1 2 1 3 2 4c3 4 8 6 13 6l13 39c-1 0 -1 1 -2 1
c-5 4 -7 12 -4 19l-31 24c-6 -5 -14 -5 -20 -1h-2l-34 -25c1 -4 0 -9 -3 -12zM341 48c14 0 24 11 24 24v301c0 13 -11 24 -24 24h-238c-13 0 -24 -11 -24 -24v-6h-17v6c0 23 18 42 41 42h238c23 0 41 -19 41 -42v-301c0 -23 -18 -42 -41 -42h-5v18h5z" />
    <glyph glyph-name="uniF12D" unicode="&#xf12d;" horiz-adv-x="358" 
d="M208 19c3 -5 14 -12 21 -15l8 -2h-178c-23 0 -42 18 -42 41v272l17 -12v-259c0 -13 12 -24 25 -24l149 -1v0zM338 69l-18 12v264c0 13 -11 24 -24 24h-151v1c-3 5 -11 10 -22 14l-7 2h180c23 0 42 -18 42 -41v-276zM299 68h1l58 -42l-60 -43v20c0 2 -2 4 -4 4
c-46 2 -71 23 -77 65l-1 4l3 -4c23 -29 50 -30 75 -30c2 0 3 1 4 2s1 3 1 4v20zM0 360l60 40v-20c0 -2 2 -4 4 -4v0c46 -2 71 -23 77 -65l1 -4l-3 4c-23 29 -50 30 -75 30c-1 0 -2 0 -3 -1s-1 -3 -1 -4v-20zM189 155c-1 0 -1 1 -3 1c8 4 15 9 20 14h-52c2 -2 4 -4 7 -6
c6 -4 12 -7 19 -11c1 0 4 -1 5 -2c3 -1 5 -3 8 -4c2 -1 3 -1 4 -2c7 -4 12 -9 16 -14c13 -16 15 -38 15 -39c0 -3 -3 -6 -6 -6s-6 3 -6 6c0 0 -1 6 -3 13h-65c-3 -7 -3 -13 -3 -13c0 -4 -3 -6 -6 -6c-4 0 -6 3 -6 6c0 1 3 35 29 52c4 -3 8 -5 12 -7c-1 0 -3 -1 -4 -2
c-4 -2 -6 -4 -9 -7h38l-3 3c-1 2 -3 3 -5 4c-3 2 -8 4 -11 6c0 1 -1 1 -1 1c-4 2 -7 4 -11 6c-9 5 -18 11 -24 18s-10 16 -10 27c0 19 13 31 29 41c3 -2 7 -4 11 -6c0 -1 1 -1 1 -1c-8 -4 -15 -9 -20 -14h52c-3 2 -6 5 -9 7c-5 4 -12 7 -18 10c-1 0 -3 1 -4 2
c-3 1 -5 3 -8 4c-2 1 -3 1 -4 2c-7 4 -13 10 -17 16c-11 17 -13 37 -13 38c0 3 3 6 6 6v0c3 0 6 -3 6 -6c0 0 0 -5 2 -11h67c2 6 2 11 2 11c0 4 3 6 6 6v0c4 0 6 -3 6 -6c0 -1 -3 -35 -29 -52c-4 3 -8 5 -12 7c1 0 3 1 4 2c4 3 7 6 10 9h-42l3 -3c3 -2 5 -4 8 -6s7 -4 10 -6
c0 -1 1 -1 1 -1l12 -6c9 -5 17 -10 23 -17c7 -7 12 -17 12 -29c0 -19 -13 -31 -29 -41c-4 2 -7 4 -11 6zM150 276c1 -4 3 -9 6 -13h51c3 4 5 9 6 13h-63zM212 108c-2 4 -4 9 -6 13h-48c-3 -4 -5 -9 -7 -13h61zM151 206c-3 -3 -5 -7 -5 -12h70c0 4 -2 8 -4 12h-61zM150 176
h62c2 4 4 8 4 12h-70c0 -4 2 -8 4 -12z" />
    <glyph glyph-name="uniF143" unicode="&#xf143;" horiz-adv-x="372" 
d="M186 133c1 0 2 0 3 -1v0h2c5 0 11 -1 16 -1h3c4 0 8 -1 12 -1c39 -5 74 -17 97 -33c-25 -43 -94 -64 -133 -64h-1h-1c-39 0 -111 21 -134 67c29 18 78 32 133 33v0v0h3zM47 131c33 19 82 31 136 31c57 0 108 -13 142 -34v-13c-34 21 -84 35 -142 35
c-54 0 -102 -13 -136 -32v13zM1 211c-7 7 17 15 23 41c6 28 5 38 30 41c25 2 63 4 95 32c20 18 30 23 34 24v0h1v0v0v0h2h2v0v0v0h1v0c3 -1 12 -6 33 -24c32 -28 71 -30 96 -32s24 -13 30 -41s29 -35 22 -42c-3 -3 -26 -52 -38 -67c-36 22 -89 35 -149 35
c-58 0 -109 -12 -145 -32c-22 44 -34 62 -37 65zM148 276c0 0 -8 -33 23 -57c0 0 11 -6 15 -17c4 11 15 17 15 17c31 25 22 57 22 57c-28 -7 -37 18 -37 18v0s-10 -25 -38 -18z" />
    <glyph glyph-name="uniF10E" unicode="&#xf10e;" horiz-adv-x="426" 
d="M36 97h-30s-36 90 65 121c51 15 71 96 184 104c153 10 169 -136 169 -136v0c1 -5 2 -35 2 -41c0 -19 -7 -31 -19 -38v6v0c-1 31 -28 57 -60 57s-60 -27 -60 -60v-7l1 -6h-137l1 6c1 4 1 7 1 11c0 32 -27 60 -59 60s-60 -27 -60 -60c0 -4 0 -7 1 -11zM275 292v-81l109 1
c-9 26 -28 76 -109 80zM255 292c-59 -4 -87 -38 -129 -82l129 1v81zM396 105c-3 -24 -24 -43 -49 -43c-23 0 -43 16 -48 37c0 3 -1 7 -1 11c0 26 22 49 49 49c26 0 49 -22 49 -49v-5zM374 100c1 3 2 6 2 10c0 15 -12 29 -28 29c-15 0 -28 -13 -28 -29c0 -4 1 -8 2 -11
c5 -10 14 -17 26 -17s22 8 26 18zM94 163c27 0 48 -23 48 -49c0 -5 0 -10 -2 -15c-7 -19 -25 -33 -46 -33c-22 0 -41 14 -47 33c-1 5 -2 10 -2 15c0 26 22 49 49 49zM118 99c2 4 4 9 4 15c0 15 -13 29 -28 29s-29 -13 -29 -29c0 -5 1 -11 4 -15c5 -8 15 -13 25 -13
s19 5 24 13z" />
    <glyph glyph-name="uniF144" unicode="&#xf144;" horiz-adv-x="441" 
d="M189 371c0 1 -1 1 -1 2c-2 10 1 21 9 29c5 5 11 9 17 10c2 1 4 1 6 1c3 0 5 0 8 -1c2 0 4 -2 6 -3s3 -1 4 -2s2 -1 5 -1c0 -1 1 -1 2 -2s3 -3 4 -5l3 -6c3 -7 3 -14 1 -21c-1 -6 -4 -11 -8 -15c-1 -1 -3 -3 -5 -4c-3 -2 -5 -3 -8 -4c-1 0 -2 -1 -4 -1c-1 -1 -3 -1 -4 -1
v0h-2h-2h-2h-3c-2 0 -3 0 -5 1c-1 0 -1 1 -2 1c-2 1 -3 1 -4 2c-1 0 -2 1 -2 1c-2 1 -4 3 -5 4s-3 3 -4 5c-2 3 -3 6 -4 10zM122 308c-4 0 -10 2 -13 6c-5 7 -3 17 4 22c18 14 39 25 61 31h1c2 -8 7 -15 13 -21c9 -9 20 -15 33 -15s24 6 33 15c6 6 11 13 13 21
c21 -5 42 -16 61 -30c7 -5 9 -15 4 -22s-16 -8 -23 -3c-12 9 -25 16 -39 21l-18 -45c-3 -6 -9 -10 -15 -10v0l-29 1c-6 0 -11 4 -14 9l-22 44c-14 -5 -28 -12 -40 -21c-3 -2 -7 -3 -10 -3zM374 225c-18 -18 -18 -48 0 -66c6 -6 13 -10 21 -12c-5 -21 -15 -43 -29 -62
c-3 -4 -8 -6 -13 -6c-3 0 -6 1 -9 3c-7 5 -8 15 -3 22c9 12 16 26 21 40l-46 16c-6 2 -10 8 -10 15l1 30c0 6 4 11 9 14l45 21c-5 14 -12 29 -21 41c-5 7 -4 17 3 22s17 4 22 -3c14 -19 24 -41 30 -63v0c-8 -2 -15 -6 -21 -12zM440 199c1 -2 1 -4 0 -5c0 -8 -4 -18 -10 -24
c-1 -1 -3 -3 -5 -4l-6 -3s-4 -2 -6 -2c-2 -1 -4 -1 -6 -1c-3 0 -7 0 -10 1s-6 2 -9 4c-2 1 -4 3 -5 4s-3 3 -4 5s-2 5 -3 7c-2 5 -2 12 -1 18s4 12 9 17c1 1 3 3 5 4c3 2 6 3 9 4c1 0 2 1 3 1c2 1 5 1 7 1v0c2 0 4 -1 6 -1c6 -1 12 -4 17 -9c3 -3 5 -7 7 -11c1 -2 2 -4 2 -6
zM308 73c7 5 18 4 23 -3s3 -17 -4 -22c-19 -14 -40 -25 -62 -31v0c-2 8 -7 15 -13 21c-9 9 -20 15 -33 15s-24 -6 -33 -15c-6 -6 -11 -13 -13 -21c-21 5 -42 16 -61 30c-7 5 -9 15 -4 22s16 8 23 3c12 -9 25 -16 39 -21l18 45c2 6 9 10 15 10l29 -1c6 0 11 -4 14 -9l22 -44
c14 5 28 12 40 21zM250 17c1 -1 1 -2 0 -4c2 -7 2 -14 -1 -21l-3 -6s-2 -3 -4 -5c-1 -1 -3 -2 -4 -3c-4 -3 -8 -6 -13 -7c-2 -1 -4 -1 -6 -1c-8 0 -17 5 -23 11c-3 3 -5 7 -7 11c-1 4 -2 8 -2 12c0 3 0 6 1 9c1 6 4 11 8 15c2 2 4 4 6 5c1 0 1 1 2 1c2 1 3 1 5 2
c1 1 1 1 2 1c1 1 3 1 5 1h2h1c2 0 4 -1 6 -1s3 0 5 -1c5 -2 9 -4 13 -8c1 -1 3 -3 4 -5zM79 144c5 -14 12 -28 21 -41c5 -7 4 -17 -3 -22c-3 -2 -7 -3 -10 -3c-4 0 -9 2 -12 6c-14 19 -24 41 -30 63v0c8 2 15 6 21 12c9 9 14 22 14 34c0 13 -5 24 -14 33c-6 6 -13 10 -21 12
c5 21 15 43 29 62c5 7 15 8 22 3s8 -15 3 -22c-9 -12 -16 -26 -21 -40l46 -17c6 -2 10 -8 10 -15l-1 -30c0 -6 -4 -11 -9 -14zM61 174c-1 -2 -3 -4 -5 -5c-4 -4 -9 -7 -14 -8v0c-3 0 -7 -1 -10 -1c-4 0 -7 1 -11 2h-1l-6 3s-3 2 -5 4c-3 3 -5 7 -7 11c-1 4 -2 9 -2 13
s0 8 2 12c1 4 4 8 7 11c2 2 4 4 7 5c3 2 7 3 10 4c2 1 4 1 6 1c3 0 7 0 10 -1c6 -1 11 -4 15 -8l6 -9c3 -7 4 -15 3 -22c-1 -2 -1 -4 -2 -6z" />
    <glyph glyph-name="uniF14F" unicode="&#xf14f;" horiz-adv-x="220" 
d="M187 -13c6 0 10 -4 10 -10c0 -5 -4 -11 -10 -11h-96c-5 0 -10 5 -10 11c0 5 4 10 10 10h96zM155 289c-2 1 -3 4 -4 8c3 5 4 11 4 17c0 23 -19 43 -42 43s-43 -20 -43 -43c0 -6 2 -12 4 -17c1 -2 0 -5 -2 -6s-5 0 -6 2c-3 6 -4 13 -4 20c0 28 24 52 52 52s51 -24 51 -52
c0 -8 -1 -14 -4 -21c-1 -2 -2 -3 -4 -3h-2zM53 226c-27 20 -45 52 -45 86c0 58 49 106 107 106s105 -48 105 -106c0 -34 -16 -66 -43 -86c-4 -3 -11 -2 -14 2s-2 10 2 13c23 16 37 43 37 70c0 49 -38 87 -87 87s-87 -39 -87 -87c0 -27 14 -54 36 -70c4 -3 5 -9 2 -13
c-2 -3 -5 -4 -8 -4c-1 0 -3 1 -5 2zM215 142c7 -25 -1 -53 -13 -93v0v-1c-2 -8 -6 -24 -7 -32c0 -5 -4 -9 -9 -9h-47h-2h-41c-5 0 -10 4 -10 9c0 7 -2 16 -5 24c-14 29 -35 40 -42 68c-8 33 -24 51 -36 62c-5 4 -4 12 2 15c8 4 19 6 29 0c22 -14 23 -41 34 -42
c25 -2 20 43 23 85c3 44 -1 66 20 76c6 3 20 4 20 -3c1 -24 3 -78 4 -97c0 -4 67 -11 80 -62z" />
    <glyph glyph-name="uniF151" unicode="&#xf151;" horiz-adv-x="334" 
d="M324 76v0c12 -11 12 -31 0 -42c-11 -11 -30 -11 -41 0l-88 88c16 11 30 25 41 41zM324 76zM235 241v0c0 -65 -52 -117 -117 -117s-118 52 -118 117s53 118 118 118s117 -53 117 -118zM118 153v0c49 0 88 39 88 88s-39 88 -88 88s-89 -39 -89 -88s40 -88 89 -88zM118 153z
M68 231c-5 0 -9 4 -9 9c0 32 27 59 59 59c5 0 9 -4 9 -9s-4 -9 -9 -9c-21 0 -40 -18 -40 -40c0 -5 -4 -10 -10 -10z" />
    <glyph glyph-name="uniF126" unicode="&#xf126;" horiz-adv-x="362" 
d="M191 372h-1v-24h-22v24c0 6 5 11 11 11s12 -5 12 -11zM126 337h43h22h43v-93l-37 26c-5 3 -12 5 -18 5s-12 -2 -17 -5l-36 -25v92zM205 324h-14h-22h-14c-6 0 -11 -5 -11 -11s5 -11 11 -11h50c6 0 11 5 11 11s-5 11 -11 11zM219 61c-6 6 -15 16 -32 18v97v5v5v65l47 -32
l5 -3l5 -4l39 -27c4 -2 5 -5 5 -9c0 -1 -1 -2 -1 -3c-2 -4 -3 -7 -5 -11c-8 -18 -15 -34 -20 -47c-2 -5 -5 -10 -7 -14s-3 -8 -5 -12c-1 -4 -3 -7 -4 -10l-3 -6v0c-6 -4 -11 -9 -14 -12l-4 -4v0h-1h-1zM216 181v0c0 -2 0 -4 1 -5c2 -2 3 -4 6 -4s6 2 7 4s2 3 2 5v0
c0 2 -1 4 -2 5c-2 2 -4 3 -6 3s-5 -1 -6 -3c-1 -1 -2 -3 -2 -5zM133 61c-4 4 -10 10 -20 16c0 1 0 2 -1 3c-1 3 -3 6 -5 10c-1 4 -3 8 -5 12s-4 9 -6 14c-6 13 -12 29 -20 47c-2 3 -3 7 -5 11c-1 1 -1 2 -1 3c0 3 2 7 5 9l40 28l5 3l5 3l45 31v-65v-5v-5v-98
c-14 -2 -23 -11 -28 -17l-4 -4v0v0h-1zM124 181v-5c2 -3 4 -4 7 -4s6 2 7 4s2 3 2 5v0c0 2 -1 4 -2 5c-2 2 -4 3 -6 3s-5 -1 -6 -3c-1 -1 -2 -3 -2 -5v0zM96 64c13 -1 20 -8 25 -15l2 -2c-6 -1 -11 -5 -15 -8c-1 2 -3 3 -4 4c-3 3 -6 5 -11 5c-7 0 -11 -4 -16 -10v0
c-3 3 -8 7 -13 9l3 3c6 6 13 14 27 14h2zM250 39v0c-4 3 -8 7 -14 8l3 3c5 5 12 11 22 13c2 1 4 1 6 1c14 0 21 -8 27 -14l2 -2c-6 -1 -10 -5 -14 -8c-5 5 -8 9 -15 9s-11 -4 -17 -10c1 0 0 0 0 0zM8 49c-4 0 -8 2 -8 7s4 8 8 8c14 0 21 -8 27 -14c1 -1 3 -2 4 -3
c-4 -3 -8 -9 -8 -15v0l-7 7c-6 6 -9 10 -16 10zM326 50c6 6 14 14 28 15c5 0 8 -3 8 -8s-4 -8 -8 -8c-7 0 -11 -4 -16 -10c-3 -4 -7 -7 -12 -10v3c0 5 -2 9 -5 12c1 1 3 4 5 6zM119 14v0c-4 -3 -8 -7 -16 -6v0h-1c-1 0 -3 -1 -4 -1h-2c-2 -1 -4 -1 -6 -1v0v0v0v0
c-13 0 -20 5 -25 11v0c-1 0 -1 1 -2 2c-3 3 -5 5 -8 7v0c-2 1 -5 2 -8 2v0h-2s-1 1 -2 1c-2 1 -3 3 -3 6c0 5 4 8 8 8v0c3 0 6 0 8 -1c5 -2 10 -4 13 -7l6 -6s3 -4 5 -5c3 -2 6 -4 11 -4v0c1 0 3 1 4 1c0 1 1 1 1 1c3 1 5 3 7 5l3 3c2 2 4 3 6 5l3 3c5 3 11 6 19 6v0
c3 0 5 -1 7 -1c6 -1 10 -4 14 -7l6 -6l4 -4c0 -1 1 -1 1 -1v0c3 -2 6 -4 11 -4v0h4c3 1 6 3 9 5l1 1l3 3c2 2 5 5 8 7c2 1 5 3 8 4s7 2 11 2v0c10 0 16 -4 21 -8l1 -1c2 -2 4 -3 5 -5c2 -2 3 -4 5 -5v0c3 -2 7 -4 12 -4v0h4l6 3c1 0 2 1 3 2l3 3c2 2 5 5 8 7c5 3 11 6 19 6
v0c5 0 8 -4 8 -8c0 -2 0 -3 -1 -4c0 -1 0 -2 -1 -2s-1 -1 -2 -1c-1 -1 -2 -1 -3 -1c-7 0 -11 -3 -16 -9l-1 -1c-6 -5 -13 -12 -26 -12v0c-9 0 -16 3 -21 7l-4 4c-1 0 -1 1 -2 2c-3 3 -5 5 -8 7c-2 1 -5 2 -8 2c-2 0 -3 0 -5 -1c-1 0 -3 -1 -4 -2c-3 -1 -5 -3 -7 -6l-1 -1v0
c-6 -5 -14 -12 -27 -12s-20 5 -25 11c-1 0 -1 1 -2 2c-3 3 -5 5 -7 6c-2 2 -5 3 -9 3c-1 0 -3 -1 -4 -1c-2 -1 -3 -1 -4 -2c-3 -2 -5 -4 -8 -7zM164 39c-1 1 -3 2 -5 2c-3 2 -6 5 -9 6l3 3c4 5 10 11 18 13c3 1 6 1 9 1h6c11 -1 17 -8 22 -13l2 -2c-5 -1 -9 -5 -12 -7l-2 -2
c-1 1 -1 2 -2 2c-4 4 -8 7 -14 7s-9 -3 -13 -7c-1 0 -1 -1 -3 -3v0z" />
    <glyph glyph-name="uniF150" unicode="&#xf150;" horiz-adv-x="343" 
d="M62 110v126h28v-126h-28zM126 110v126h28v-126h-28zM189 110v126h28v-126h-28zM252 110v126h29v-126h-29zM304 88c2 -2 3 -4 3 -6s-1 -4 -2 -6c0 -1 0 -1 -1 -2s-3 -1 -4 -2s-2 -1 -4 -1h-247c-1 0 -3 0 -4 1c-2 0 -3 1 -4 2c0 1 -1 1 -1 2c-1 2 -2 4 -2 6s1 4 2 6
c0 1 0 1 1 2s3 1 4 2s2 1 4 1h246c2 0 2 -1 4 -1s3 -1 4 -2c0 -1 1 -1 1 -2zM332 53c6 0 11 -6 11 -12s-5 -11 -11 -11h-321c-6 0 -11 5 -11 11s5 12 11 12h321zM312 289c12 -6 8 -25 -6 -25h-7v-11h-255v11h-8c-13 0 -18 19 -6 25l135 65c4 2 8 2 12 0z" />
    <glyph glyph-name="uniF122" unicode="&#xf122;" horiz-adv-x="314" 
d="M59 314c1 0 2 -1 3 -1s40 2 84 -11c-13 -9 -36 -15 -60 -21c-7 -2 -15 -4 -22 -6c-22 -6 -39 -14 -51 -21c10 23 27 44 46 60zM205 155c-1 -47 -22 -103 -54 -120c-38 2 -72 17 -98 40c5 16 28 78 92 147c20 22 39 40 55 52c2 -2 4 -3 5 -4l9 -9c-17 -18 -14 -49 -11 -76
c1 -11 2 -21 2 -30zM0 193c0 10 1 19 3 29c5 5 23 21 66 33c8 2 15 4 22 6c33 8 62 16 76 33c5 -2 12 -5 17 -8c-15 -13 -34 -30 -53 -51c-58 -62 -83 -119 -93 -144c-23 27 -38 63 -38 102zM156 320c-25 8 -50 12 -67 13c15 7 31 13 48 15c5 -3 19 -15 19 -28zM201 299
c-8 5 -18 10 -26 14c3 14 -3 28 -10 37c29 -2 57 -12 79 -27c-11 -4 -25 -12 -43 -24zM284 100c-23 -32 -57 -55 -97 -62c24 28 38 75 39 117c0 10 -1 20 -2 32c-2 23 -5 48 5 60c36 -42 55 -89 55 -145v-2zM231 273c-4 4 -8 8 -13 11l-1 1c22 15 38 20 46 21
c15 -14 27 -31 36 -50c-19 12 -47 24 -68 17zM314 193c0 -22 -5 -43 -12 -61c-5 47 -24 87 -54 123c20 -2 48 -19 62 -29c3 -10 4 -22 4 -33z" />
    <glyph glyph-name="uniF14A" unicode="&#xf14a;" horiz-adv-x="385" 
d="M229 40c3 -6 5 -11 7 -16c-23 -14 -55 -16 -91 -16c-85 0 -142 12 -143 162c-2 15 -2 32 -1 48c1 8 1 16 1 24c0 63 40 117 97 136v8c0 5 4 9 9 9s9 -4 9 -9v-2c6 1 14 2 20 2v26c0 5 4 9 9 9s9 -4 9 -9v-27c6 0 13 -1 19 -2v3c0 5 4 9 9 9s9 -4 9 -9v-6
c57 -20 98 -74 98 -137v-18v-9c-6 -1 -13 -3 -19 -5v13v18c0 53 -32 99 -79 117v-23c0 -5 -4 -9 -9 -9s-9 4 -9 9v28c-6 2 -13 3 -19 3v-47c0 -5 -4 -9 -9 -9s-9 4 -9 9v47c-6 0 -14 -1 -18 -3v-28c0 -5 -4 -9 -9 -9s-9 4 -9 9v23c-47 -18 -79 -64 -79 -117
c0 -9 -1 -17 -1 -25c0 -15 -1 -30 1 -42v0v-3c2 -11 5 -21 13 -29c16 -18 54 -27 112 -27c23 0 43 3 59 6v-5c0 -5 0 -10 1 -15c-17 -4 -37 -5 -60 -5c-63 0 -103 11 -124 31c10 -101 59 -102 123 -102c33 0 62 0 83 14zM308 195c43 -1 76 -36 77 -79
c0 -54 -73 -138 -76 -142l-2 -4c-1 -1 -1 -1 -2 -1v0c-1 0 -2 0 -2 1l-2 4c-3 4 -71 87 -71 144c0 20 8 40 22 54s35 23 56 23zM332 90c7 7 11 16 11 26c1 10 -3 20 -10 27s-16 11 -26 11h-1c-10 0 -20 -3 -27 -10s-11 -17 -11 -27c-1 -10 3 -19 10 -26s17 -11 27 -11h1
c10 0 19 3 26 10z" />
    <glyph glyph-name="uniF11A" unicode="&#xf11a;" horiz-adv-x="279" 
d="M170 218c20 0 37 -17 36 -37v-25v-89v-27c0 -20 -17 -36 -37 -36h-26h-73h-22c-20 0 -37 16 -37 36v18v77v46c0 20 17 37 37 37h18c2 -5 6 -9 10 -13h-10h-19c-13 0 -24 -11 -24 -24v-39v-89v-13c0 -13 11 -23 24 -23h15h87h20c13 0 24 10 24 23v20v102v19
c0 13 -11 24 -24 24h-9h-21c4 4 7 8 10 13h10h11zM137 184c4 0 6 -3 6 -6s-3 -6 -6 -6h-57c-3 0 -6 3 -6 6s3 6 6 6h57zM144 52v0c2 0 4 -2 3 -4c0 -2 -2 -5 -4 -5h-76c-2 0 -4 3 -4 5s2 4 4 4h12c-9 7 -14 17 -14 28c0 21 17 39 38 40v18c0 2 2 4 4 4h20c2 0 4 -2 4 -4v-37
h2c2 0 4 -2 4 -4v-17c0 -2 -2 -4 -4 -4h-32c-2 0 -4 2 -4 4v17c0 2 2 4 4 4h2v10c-16 -1 -30 -14 -30 -31c0 -18 17 -28 33 -28h38zM129 84v9h-24v-9h24zM112 133v-33h11v33h-11zM112 133zM107 66h20c2 0 4 -2 4 -4s-2 -4 -4 -4h-20c-2 0 -4 2 -4 4s2 4 4 4zM107 66z
M279 381c0 0 -1 -39 0 -53c0 -2 -21 13 -31 -2c-10 -14 -31 -38 -57 -42c-25 -5 -43 -11 -55 -20c6 -7 9 -15 9 -24c0 -20 -17 -36 -37 -36s-36 16 -36 36c0 14 8 27 20 33c-6 7 -21 24 -18 36c1 1 3 5 3 6c-40 -24 -61 -43 -75 -32l-2 1s31 41 97 74c43 21 97 3 145 14
c13 3 34 7 37 9zM135 240c0 6 -2 12 -6 16l-1 -1c-2 -2 -6 -1 -7 1s-2 5 -3 8c-3 1 -7 3 -10 3c-14 0 -26 -13 -26 -27s12 -26 26 -26s27 12 27 26zM162 305c1 5 -4 11 -14 16c-5 2 -32 9 -40 -9c-4 -8 4 -28 6 -34c2 0 4 -1 5 -1c0 1 1 2 2 4c13 17 39 15 41 24zM109 242
c3 -1 6 -2 9 -4c1 -1 2 -3 2 -5c0 -3 0 -5 -2 -6s-4 -2 -6 -2v-6h-4v4c-2 1 -4 1 -6 3c-1 2 -2 4 -2 7v0h6c0 -2 0 -3 1 -4s3 -1 4 -1s2 0 3 1s1 2 1 3s0 2 -1 3c0 1 -2 1 -3 2c-3 1 -7 3 -8 4c-1 2 -2 4 -2 6s1 4 2 5c2 2 4 3 6 3v4h4v-4c2 0 4 -1 5 -3c1 -1 2 -3 2 -6v0
h-6c0 2 0 3 -1 4s-3 1 -4 1c-2 0 -2 0 -3 -1s-1 -2 -1 -3c0 -2 1 -2 1 -3s1 -1 3 -2z" />
    <glyph glyph-name="uniF13F" unicode="&#xf13f;" horiz-adv-x="322" 
d="M161 87c-55 0 -99 44 -99 99s44 100 99 100s100 -45 100 -100s-45 -99 -100 -99zM161 275c-49 0 -87 -40 -87 -88c0 -49 39 -87 87 -87c49 0 87 39 87 87c1 48 -38 88 -87 88zM170 260l6 -93h-5l-68 4v19l44 5l3 64zM321 313l1 -270c0 -23 -19 -42 -42 -42h-237
c-23 0 -43 19 -43 42v302c0 23 20 42 43 42h209v0l69 -74v0zM304 296h-54c-6 0 -11 4 -11 10v62h-196c-13 0 -24 -10 -24 -23v-302c0 -13 11 -23 24 -23h238c13 0 23 10 23 23v253zM261 349l1 -32h28z" />
    <glyph glyph-name="uniF131" unicode="&#xf131;" horiz-adv-x="218" 
d="M62 274c-5 0 -8 4 -8 8c0 29 23 52 52 52c5 0 9 -4 9 -8s-5 -8 -9 -8c-19 0 -35 -16 -35 -35c0 -5 -4 -9 -9 -9zM153 83c5 0 9 -4 9 -9s-4 -9 -9 -9h-86c-5 0 -9 4 -9 9s4 9 9 9h86zM153 49c5 0 9 -5 9 -10s-4 -9 -9 -9h-86c-5 0 -9 4 -9 9s4 10 9 10h86zM134 14
c5 0 9 -4 9 -9s-4 -9 -9 -9h-48c-5 0 -9 4 -9 9s4 9 9 9h48zM125 387c54 -8 94 -54 93 -109c0 -32 -16 -64 -32 -93c-13 -23 -26 -45 -26 -64c0 -7 -6 -13 -12 -13h-39h-1h-38c-7 0 -12 7 -12 13c0 19 -14 42 -27 67c-15 28 -31 60 -31 90c0 55 41 102 95 109c4 1 11 1 16 1
h1c4 0 8 0 13 -1zM112 364h-1h-3c-3 0 -5 -1 -8 -1c-43 -6 -75 -42 -75 -85c0 -24 16 -52 30 -78c13 -23 25 -46 28 -68h28h1h27c3 21 15 43 27 65c14 26 30 54 30 81c0 43 -31 79 -74 85c-4 1 -7 1 -10 1zM111 368v0v0v0z" />
    <glyph glyph-name="uniF110" unicode="&#xf110;" 
d="M418 351c17 0 31 -15 31 -32v-253c0 -17 -14 -32 -31 -32h-387c-17 0 -31 15 -31 32v253c0 17 14 32 31 32h387zM431 66v253c0 7 -6 13 -13 13h-387c-7 0 -13 -6 -13 -13v-253c0 -7 6 -13 13 -13h387c7 0 13 6 13 13zM316 190c0 -15 0 -37 2 -37h-10c-1 -6 -3 -12 -8 -16
c-6 -6 -13 -9 -21 -9s-15 3 -21 9c-3 3 -7 7 -8 11h-48c-2 -4 -4 -8 -7 -11c-6 -6 -14 -9 -22 -9s-15 3 -21 9c-3 3 -6 7 -7 11h-9s-19 43 25 58c22 8 33 47 82 50c67 4 73 -55 73 -66v0zM184 148c3 3 5 6 4 10c0 4 -1 7 -4 10s-7 4 -11 4s-7 -1 -10 -4s-4 -6 -4 -10
s1 -7 4 -10s6 -4 10 -4s8 1 11 4zM242 203v39c-25 -2 -39 -19 -57 -39h57zM288 148c3 3 5 6 4 10c0 4 -1 7 -4 10s-6 4 -10 4s-7 -1 -10 -4s-4 -6 -4 -10s1 -7 4 -10s6 -4 10 -4s7 1 10 4zM251 203h47c-4 13 -13 36 -47 38v-38z" />
    <glyph glyph-name="uniF145" unicode="&#xf145;" horiz-adv-x="438" 
d="M211 101c7 7 17 7 24 0c7 -6 7 -16 1 -23l-12 -12c-3 -3 -8 -5 -12 -5h-1c-4 0 -8 1 -11 4v0c-3 3 -5 8 -5 12c-1 5 1 9 4 12zM220 125c0 -5 -1 -10 -4 -13l-26 -27c-3 -3 -9 -5 -13 -5h-1c-4 0 -8 1 -11 4s-5 8 -5 12c-1 5 1 9 4 12l27 28c3 3 8 5 12 5c5 1 9 -1 12 -4
s5 -8 5 -12zM186 142c0 -4 -2 -8 -5 -12l-23 -25c-2 -3 -7 -5 -11 -5h-1c-4 0 -8 1 -11 4s-5 8 -5 12c-1 5 1 10 4 13l23 24c2 3 7 5 11 5c5 1 9 -1 12 -4s6 -8 6 -12zM137 134l-4 -5c-3 -3 -8 -5 -12 -5h-1c-4 0 -9 1 -12 4c-7 6 -7 16 -1 23l5 5c3 3 8 5 12 5
c5 1 9 -1 12 -4c7 -6 7 -16 1 -23zM324 286l48 -96c1 -1 1 -2 0 -3l-39 -44c0 -1 -1 -1 -2 -1v0c-1 0 -2 0 -3 1c0 0 -55 60 -79 87c-3 4 -6 7 -8 9c0 1 -1 1 -1 2c-12 11 -20 8 -26 4v0l-47 -25c-4 -2 -8 -4 -13 -3s-9 3 -12 7c-2 3 -4 8 -3 13s3 9 7 12l34 26
c3 2 43 29 57 32c10 3 22 1 30 -4c7 -3 13 -7 19 -11c7 -5 14 -10 20 -9c4 0 11 3 14 4c2 1 3 0 4 -1zM436 210c0 -1 0 -2 2 -3c0 -1 -1 -2 -2 -2l-37 -18h-2s-2 1 -3 2l-57 109c-1 2 -1 4 1 5l35 20c1 0 2 1 3 0s2 -1 2 -2zM88 307c1 -1 2 -3 2 -4l-45 -115
c-1 -1 -2 -2 -3 -2h-2l-38 14c-1 0 -2 1 -2 2v3l46 116c0 1 1 2 2 2h3zM340 141c0 0 1 0 2 -2c1 -6 -1 -13 -6 -18c-4 -4 -10 -7 -15 -7c-4 0 -7 1 -10 3v-4c-1 -5 -3 -10 -7 -14s-9 -6 -14 -6s-10 2 -14 5c1 -6 -1 -13 -6 -18c-4 -4 -10 -6 -15 -6c-4 0 -8 1 -11 3
c0 2 1 5 4 6c2 -1 4 -2 6 -2c3 0 7 2 10 4c6 5 6 13 1 19l-12 11c-3 3 -20 22 -20 22c-1 4 1 8 7 7l39 -41c3 -3 6 -4 10 -4c3 0 6 2 9 4c6 5 6 14 1 20l-36 37v1c1 1 2 3 3 4h4l40 -41c3 -3 6 -4 10 -4c3 0 7 2 10 4c3 4 5 9 4 13c1 2 3 5 6 4zM103 162c2 -1 2 -3 0 -5
c-1 -1 -2 -1 -3 -1c0 0 -1 0 -2 1l-35 31c-1 1 -2 4 -1 5l40 99c0 1 1 2 2 2h3c0 0 14 -6 24 -6c17 0 24 5 36 12c1 1 2 1 3 2c9 6 29 8 40 1c2 -1 2 -3 1 -5s-3 -2 -5 -1c-8 5 -24 5 -33 -1c-1 -1 -2 -1 -3 -2c-12 -8 -22 -14 -40 -13c-8 1 -18 4 -23 6l-37 -94z" />
    <glyph glyph-name="uniF101" unicode="&#xf101;" horiz-adv-x="316" 
d="M311 95c9 -33 3 -49 3 -47c-67 34 -161 -15 -226 17c-92 46 -88 156 -88 156h11c27 -8 5 -52 69 -92c49 -30 107 -9 103 11c-2 12 -40 10 -58 34c-14 20 4 39 4 39c7 -24 43 -36 94 -44c51 -9 79 -41 88 -74zM13 301c13 47 75 39 85 33c-8 0 -25 -7 -14 -25
c5 -8 28 -24 26 -51c-2 -20 -24 -45 -27 -47c-27 23 -49 94 -15 114c-41 -20 -25 -75 7 -116c-11 5 -77 35 -62 92z" />
    <glyph glyph-name="uniF133" unicode="&#xf133;" horiz-adv-x="280" 
d="M149 242l-55 2v11l37 4l4 55h11l5 -72h-2v0zM143 395c78 -1 139 -64 137 -142c0 -96 -132 -251 -138 -257l-4 -5c0 -1 -2 -2 -3 -2v0c-1 0 -2 1 -3 2l-4 5c-5 6 -128 159 -128 261c0 36 16 72 42 98c27 26 62 41 101 40zM141 375c-31 0 -62 -12 -84 -34
c-23 -22 -36 -53 -36 -84c0 -81 90 -205 115 -238c28 33 125 158 125 234c0 67 -52 121 -118 122h-2zM77 194c-16 17 -25 39 -24 62s10 46 27 62c17 17 39 26 63 26c23 -1 46 -11 62 -28c17 -17 25 -40 25 -63c-1 -23 -10 -46 -27 -62s-39 -25 -62 -25h-2
c-23 1 -46 11 -62 28zM141 323c-17 0 -35 -7 -47 -19s-20 -30 -20 -48s7 -35 19 -48c13 -12 30 -21 48 -21h1c17 0 34 8 47 20c12 13 20 29 20 47s-7 36 -19 49c-12 12 -30 20 -48 20h-1z" />
    <glyph glyph-name="uniF127" unicode="&#xf127;" horiz-adv-x="368" 
d="M168 329h1v-14h-13v14c0 3 3 6 6 6s6 -3 6 -6zM194 253l-24 15c-3 2 -6 3 -10 3s-7 -1 -10 -3l-21 -15v55h26h13h26v-55zM147 289h29c3 0 6 3 6 6s-3 6 -6 6h-8h-13h-8c-3 0 -6 -3 -6 -6s3 -6 6 -6zM222 220c2 -1 3 -3 4 -6v-2c-1 -3 -2 -5 -3 -7c-5 -11 -9 -20 -12 -28
c-2 -3 -3 -5 -4 -8c-1 -2 -2 -5 -3 -7l-3 -6c-1 -1 -2 -2 -2 -3v0c-4 -2 -6 -5 -8 -7c-1 -1 -2 -3 -3 -3v0v0v0c-1 0 -2 1 -3 2c-4 4 -10 10 -20 11v58v3v3v38l29 -19l3 -2l3 -2zM192 214c0 1 1 2 1 3v0c0 1 0 2 -1 3s-2 2 -4 2s-3 -1 -4 -2c0 -1 -2 -2 -2 -3v0
c0 -1 1 -2 2 -3s2 -2 4 -2s3 1 4 2zM127 238l4 3l27 18v-38v-3v-3v-58c-9 -1 -14 -7 -17 -10c-1 0 -2 -2 -3 -2v0v0v0c-1 0 -2 1 -3 2c-2 2 -6 6 -11 8c0 1 -1 1 -1 2l-3 6s-2 4 -3 7c-2 2 -3 5 -4 8c-4 7 -8 17 -13 28c-1 3 -2 5 -3 7v2c0 2 1 4 3 5l24 16zM133 222
c-1 0 -2 -1 -4 -2c0 -1 -1 -2 -1 -3v0c0 -1 0 -2 1 -3s2 -2 4 -2s3 1 4 2s1 2 1 3v0c0 1 0 2 -1 3s-3 2 -4 2zM101 134v0c-2 2 -4 3 -8 4c0 1 0 1 1 2c4 4 9 8 17 8h1c7 0 11 -5 14 -8l1 -1c-3 -1 -6 -2 -8 -4c0 1 -1 1 -2 2c-2 1 -3 2 -6 2c-4 0 -7 -2 -10 -5zM204 134
c-1 0 -1 0 0 0c-3 2 -5 3 -8 4l2 2c3 3 6 7 12 8h4c8 0 13 -4 16 -8l1 -1c-3 -1 -6 -2 -8 -4c-3 3 -5 5 -9 5c-5 0 -7 -2 -10 -6v0zM237 134c3 0 5 -2 3 -7c0 -1 -1 -1 -1 -2l-1 -1c0 -1 -1 -1 -1 -1c-1 -1 -1 -1 -2 -1c-4 0 -6 -3 -9 -6c-1 0 -1 -1 -1 -1
c-3 -3 -7 -7 -15 -7v0c-5 0 -9 2 -12 4c-1 0 -2 1 -3 2l-1 1c-2 2 -3 4 -5 5s-3 1 -5 1h-4c0 0 -1 0 -2 -1s-3 -3 -4 -5c-1 0 -1 -1 -1 -1v0c-3 -3 -7 -7 -15 -7c-7 0 -11 4 -14 7l-1 1c-2 2 -3 4 -4 5c-2 1 -4 2 -6 2h-3s-1 -1 -2 -1c-2 -1 -3 -3 -5 -5c-1 0 -1 -1 -1 -1v0
c-2 -2 -4 -5 -7 -6v0h-1c0 -1 -1 -1 -2 -1h-1h-4v0v0v0v0c-7 0 -11 4 -14 7v0l-1 1c-1 2 -3 4 -4 5v0c-2 1 -3 1 -5 1v0h-1c0 1 -1 1 -1 1c-1 1 -2 2 -2 4s2 4 4 4v0c2 0 4 -1 5 -1c4 -1 6 -2 8 -4c2 -1 3 -2 4 -3l3 -3c1 -2 3 -4 6 -4v0h4h1l4 4l2 2l3 3s1 2 2 2
c3 2 6 4 11 4v0h4c3 0 6 -2 8 -4l3 -3l2 -2h1v0c1 -1 3 -2 6 -2v0h2c2 1 3 2 5 3l1 1l2 2c2 1 3 3 5 4s3 2 5 3c1 1 5 1 7 1v0c6 0 9 -2 11 -3l1 -1l3 -3l3 -3v0c1 -2 3 -3 6 -3v0h2c2 1 3 1 4 2c1 0 1 0 2 1l2 2c2 1 3 3 5 4c3 2 6 4 11 4v0zM152 134c0 0 -1 1 -3 1
c-1 1 -3 2 -5 3l2 2c3 2 6 6 11 7c1 1 3 1 5 1h3c7 -1 10 -5 13 -8l1 -1c-3 0 -5 -2 -7 -3l-1 -1l-1 1c-3 3 -5 4 -8 4c-4 0 -6 -2 -8 -4l-2 -2c1 0 0 0 0 0zM225 34c0 -6 1 -12 3 -18h-185c-23 0 -43 20 -43 43v301c0 23 20 42 43 42h208l1 -1l69 -73v-1l1 -214
c-5 1 -11 2 -16 2h-3v196h-54c-6 0 -11 4 -11 10v62h-196c-13 0 -24 -10 -24 -23v-302c0 -13 11 -24 24 -24h183v0zM289 332l-28 32v-32h28zM306 97c34 0 62 -28 62 -62s-28 -61 -62 -61s-62 27 -62 61s28 62 62 62zM301 44c-1 2 -2 5 1 7c0 2 1 5 2 6s3 2 6 2
c2 0 4 -1 6 -3c1 -2 2 -5 2 -9h15c0 6 -3 11 -6 15s-7 6 -13 7v10h-8v-10c-6 -1 -11 -3 -14 -6s-5 -8 -5 -13c0 -3 0 -7 1 -9s2 -4 4 -6c1 -1 3 -3 6 -4s6 -3 9 -4s6 -2 7 -4c1 -1 2 -3 2 -6s0 -5 -2 -6s-4 -2 -7 -2c-4 0 -6 1 -8 3s-3 5 -3 9h-14c0 -7 2 -12 5 -16
s9 -6 15 -7v-9h8v9c6 1 11 3 14 6s6 8 6 13c0 3 -1 6 -2 8s-2 4 -4 6c-1 2 -4 4 -6 5s-5 2 -9 4c-4 1 -7 3 -8 4z" />
    <glyph glyph-name="uniF14E" unicode="&#xf14e;" horiz-adv-x="341" 
d="M86 230c-28 -20 -55 -38 -65 -45l-21 26l169 144v1l1 -1l1 1v-1l170 -144l-21 -26c-21 14 -93 66 -135 94v0l-15 10zM48 183c5 4 11 9 18 14v-122c0 -16 13 -30 29 -30h31v95c0 13 10 23 23 23h44c13 0 23 -10 23 -23v-95h30c16 0 30 14 30 30v122c6 -4 12 -9 17 -13
v-112c0 -23 -19 -42 -42 -42h-162c-23 0 -41 19 -41 42v111z" />
    <glyph glyph-name="uniF103" unicode="&#xf103;" horiz-adv-x="363" 
d="M63 3c-23 0 -42 19 -42 41v272l18 -12v-260c0 -13 11 -24 24 -24h149v-1c3 -5 14 -12 21 -14l8 -2h-178zM342 70l-19 12v264c0 13 -11 24 -24 24h-151v1c-3 5 -11 10 -22 14l-7 2h181c23 0 42 -18 42 -41v-276zM362 32l-73 -51v25c0 3 -3 6 -6 6c-58 3 -89 29 -96 81
l-1 4l3 -4c30 -38 63 -37 94 -37c1 0 3 1 4 2s2 2 2 4v25l2 -2l72 -52zM74 299l-74 53l74 53v-25c0 -3 3 -6 6 -6v0c58 -3 89 -29 96 -81l1 -4l-3 4c-30 38 -63 37 -94 37c-1 0 -3 -1 -4 -2s-2 -2 -2 -4v-25zM150 219c-4 3 -7 8 -9 14c-3 12 2 23 11 26c5 1 10 0 14 -3
s7 -7 9 -13c3 -12 -2 -23 -11 -26c-1 -1 -3 -1 -4 -1c-3 0 -7 1 -10 3zM112 212c7 7 20 6 28 -4c4 -5 6 -10 7 -15c1 -6 -1 -12 -4 -15c-3 -2 -7 -4 -11 -4h-2c-6 1 -11 4 -15 8c-4 5 -7 11 -8 16c-1 6 2 11 5 14zM155 138c-4 0 -10 1 -16 5c-2 2 -5 6 -3 13s6 11 10 15
c5 4 10 9 12 19c4 21 22 21 22 21s18 0 22 -21c2 -10 7 -15 12 -19c4 -4 8 -8 10 -15s-1 -11 -3 -13c-5 -5 -14 -5 -18 -4c-7 2 -22 2 -22 2s-14 0 -21 -2c-2 -1 -3 -1 -5 -1zM201 216c-5 2 -8 5 -10 9c-2 5 -3 10 -1 16c1 5 5 10 9 13s9 4 14 3c9 -3 14 -14 11 -26
c-1 -5 -5 -10 -9 -13c-3 -2 -7 -3 -10 -3c-1 0 -3 1 -4 1zM233 175c0 0 -1 0 -2 1c-4 0 -8 1 -11 4c-3 4 -5 10 -4 15c0 6 3 11 7 15s9 6 14 7c6 1 11 -1 14 -4c3 -4 5 -9 4 -14c0 -6 -2 -11 -7 -16s-10 -7 -15 -8z" />
    <glyph glyph-name="uniF105" unicode="&#xf105;" horiz-adv-x="318" 
d="M78 271c-5 0 -8 4 -8 8s4 8 8 8h77c4 0 8 -4 8 -8s-4 -8 -8 -8h-77zM78 224c-5 0 -8 4 -8 8s4 8 8 8h163c4 0 8 -4 8 -8s-4 -8 -8 -8h-163zM78 178c-5 0 -8 4 -8 8s4 9 8 9h163c5 0 8 -5 8 -9s-4 -8 -8 -8h-163zM317 310l1 -270c0 -22 -18 -40 -40 -40h-237
c-22 0 -41 18 -41 40v302c0 22 19 40 41 40h208zM293 313l-36 40v-40h36zM279 16c14 0 25 11 24 26v255h-26h-30c-4 0 -8 4 -8 8v64h-198c-15 0 -27 -12 -27 -26v-301c0 -15 13 -26 27 -26h238zM100 49c-23 0 -42 19 -42 42s19 43 42 43s43 -20 43 -43s-20 -42 -43 -42z
M100 120c-16 0 -29 -14 -29 -30s13 -29 29 -29s30 13 30 29s-14 30 -30 30zM205 59c-6 0 -15 3 -24 11c-3 3 -6 4 -9 4c-6 -1 -11 -7 -11 -7c-2 -3 -6 -3 -9 -1s-3 6 -1 9c1 1 9 10 20 11c6 1 14 -2 20 -7c14 -12 19 -8 26 -1l2 1c6 5 13 8 21 6c9 -2 18 -8 22 -16
c1 -3 0 -7 -3 -8s-8 0 -9 3c-2 5 -7 8 -12 9c-3 1 -7 0 -11 -3l-1 -1c-6 -4 -12 -10 -21 -10zM205 95c-6 0 -15 3 -24 11c-3 3 -6 4 -9 4c-6 -1 -11 -7 -11 -7c-2 -3 -6 -3 -9 -1s-3 6 -1 9c1 1 9 11 20 12c6 1 14 -3 20 -8c14 -12 19 -8 26 -1l2 1c6 5 13 9 21 7
c9 -2 18 -9 22 -17c1 -3 0 -7 -3 -8s-8 0 -9 3c-2 5 -7 8 -12 9c-3 1 -7 0 -11 -3l-1 -1c-6 -4 -12 -10 -21 -10z" />
    <glyph glyph-name="uniF124" unicode="&#xf124;" horiz-adv-x="361" 
d="M52 330h194c4 0 8 -3 8 -8c0 -4 -3 -8 -8 -8h-194c-4 0 -8 3 -8 8c0 4 3 8 8 8zM281 363c0 -5 -3 -9 -8 -10h-224c-17 0 -32 -15 -32 -32s15 -31 32 -31h224c4 0 8 -3 8 -8v-7c-6 -5 -12 -12 -17 -17v15h-215c-12 0 -24 5 -32 12v-227c0 -17 15 -32 32 -32h215v129
c7 6 12 12 17 17v-155c0 -4 -3 -8 -8 -8h-224c-26 0 -49 23 -49 49v264c0 26 23 49 49 49h224c4 0 8 -3 8 -8zM173 103l-3 2c-3 -5 -9 -18 2 -29c0 0 -10 -27 -36 -26c-9 0 -24 -8 -33 -14l32 33c4 -2 9 -1 12 2s2 9 -1 13s-9 4 -13 0c-3 -4 -5 -8 -1 -12l-31 -33
c7 7 13 24 12 34c-3 26 24 38 24 38c11 -11 24 -4 29 -1l-1 1c-5 4 -2 11 2 16s11 12 11 12l22 -21s-7 -7 -11 -12s-11 -7 -16 -3zM360 310c8 -8 -28 -58 -81 -115c-15 -16 -45 -47 -69 -71l-25 23c22 26 50 58 65 75c54 57 102 95 110 88z" />
    <glyph glyph-name="uniF13A" unicode="&#xf13a;" horiz-adv-x="363" 
d="M196 44l-9 12l-2 3l22 20l40 -42l54 48l17 15l9 8l18 17l18 -19l-22 -24l-10 -12l-83 -91zM232 362c53 0 95 -42 94 -94v-127l-15 -14l-5 -5c1 3 1 6 1 9v137c0 42 -33 75 -75 75h-137c-42 0 -75 -33 -75 -75v-138c0 -42 33 -75 75 -75h61l9 -13l7 -8h-77
c-53 0 -95 43 -95 96v137c0 53 42 95 95 95h137zM254 198c0 -51 -41 -92 -92 -93c-51 0 -92 42 -92 93s41 92 92 92s92 -41 92 -92zM189 156c5 5 7 11 7 21c0 8 -2 15 -7 20c-4 4 -13 8 -22 12c-4 1 -7 3 -9 5c-1 1 -2 3 -2 6s1 5 2 7c1 1 3 2 6 2c2 0 4 -1 6 -3s3 -6 3 -10
c0 -1 1 -2 2 -2h19c1 0 2 0 2 1v1c0 8 -2 16 -7 21c-4 5 -11 9 -18 10v12c0 1 -1 2 -2 2h-10c-1 0 -2 -1 -2 -2v-11c-7 -1 -13 -4 -17 -8c-5 -5 -7 -11 -7 -19s2 -14 7 -19c4 -5 12 -10 21 -13c4 -1 7 -3 9 -5c1 -2 2 -4 2 -7s0 -5 -2 -7c-2 -1 -4 -2 -7 -2s-6 1 -8 3
s-3 5 -3 10c0 1 -1 2 -2 2h-18c-1 0 -2 -1 -2 -2v-1c0 -10 2 -18 8 -23c5 -5 12 -8 19 -9v-10c0 -1 1 -2 2 -2h10c1 0 2 1 2 2v10c7 1 14 4 18 8z" />
    <glyph glyph-name="uniF135" unicode="&#xf135;" horiz-adv-x="368" 
d="M254 352v0c11 -9 58 -64 114 -58c0 0 -12 -25 -42 -20c0 0 -16 -16 -42 -5c0 0 -14 -12 -36 -1c0 0 -16 -12 -33 -2c0 0 -10 -8 -18 -7l1 -61h1c4 1 18 4 35 9c18 5 40 13 43 17c0 1 -1 1 -1 1c-2 1 -5 1 -8 2c-7 1 -18 2 -27 2c-18 1 -19 0 -22 0c-5 0 -14 2 -14 10
c0 7 6 10 11 10h14c18 -1 71 4 78 -24v-2c-2 -25 -53 -37 -89 -44c13 -8 19 -19 22 -33c2 -15 -10 -31 -38 -47c21 -15 35 -29 34 -46c-2 -14 -14 -33 -38 -45v0s17 27 18 41c1 7 -5 20 -18 30v-51c0 -6 -5 -12 -12 -12c-6 0 -13 5 -13 12v1v53c-2 -1 -3 -2 -4 -3
c-15 -13 -18 -23 -17 -30c1 -14 18 -41 18 -41v0c-25 12 -37 31 -39 45c-1 17 13 31 34 46c-28 16 -40 31 -39 46c2 14 9 26 21 34c-36 7 -88 18 -90 42v2c6 27 60 24 77 25c11 1 7 1 15 0c5 -1 11 -1 11 -10s-12 -9 -14 -9s-3 1 -22 0c-10 -1 -20 -2 -27 -3
c-3 -1 -6 -2 -8 -3c0 -1 -1 -1 -1 -1c4 -4 25 -12 44 -17s29 -7 38 -9h2l-1 62c-11 -1 -19 5 -19 5c-17 -11 -33 1 -33 1c-21 -11 -36 2 -36 2c-26 -11 -42 5 -42 5c-30 -6 -42 19 -42 19c56 -5 102 50 113 60c11 9 19 6 31 -14c8 -13 20 -14 27 -14v1c-9 4 -15 14 -15 25
c0 15 13 28 28 28s28 -12 28 -27c0 -11 -6 -21 -15 -26v-1c8 0 19 2 26 15c12 21 19 24 31 15zM174 118v50c-24 -9 -22 -19 -22 -24c0 -6 3 -12 9 -17c5 -4 8 -6 13 -9zM218 143v0c0 5 1 15 -18 23v-46c3 2 6 4 9 7c6 5 9 11 9 16zM218 143z" />
    <glyph glyph-name="uniF129" unicode="&#xf129;" horiz-adv-x="368" 
d="M67 99c-3 0 -7 3 -7 7v6h-5c-4 0 -7 4 -7 8s3 7 7 7h5v159c0 4 3 7 7 7s7 -3 7 -7v-159h175c4 0 8 -3 8 -7s-4 -8 -8 -8h-175v-6c0 -4 -3 -7 -7 -7zM115 161c0 -7 -6 -12 -13 -12s-12 5 -12 12v43c0 7 5 12 12 12s13 -5 13 -12v-43zM157 161c0 -7 -5 -12 -12 -12
s-12 5 -12 12v95c0 7 5 13 12 13s12 -6 12 -13v-95zM199 161c0 -7 -5 -12 -12 -12s-13 5 -13 12v141c0 7 6 12 13 12s12 -5 12 -12v-141zM241 161c0 -7 -6 -12 -12 -12c-7 0 -12 5 -12 12v80c0 7 5 12 12 12s12 -5 12 -12v-80zM226 39v0c0 -6 1 -13 2 -19h-185
c-23 0 -43 20 -43 43v301c0 23 20 42 43 42h209l1 -1l69 -73v-1l1 -214c-5 1 -11 3 -16 3h-3v195h-54c-6 0 -11 4 -11 10v62h-196c-13 0 -24 -10 -24 -23v-301c0 -13 11 -24 24 -24h183zM290 336l-28 32v-32h28zM306 101c34 0 62 -28 62 -62s-28 -61 -62 -61s-62 27 -62 61
s28 62 62 62zM332 51h-2v2c0 7 -3 12 -6 16s-8 6 -13 7v11h-10v-10c-5 -1 -10 -3 -13 -6c-4 -4 -6 -8 -6 -14c0 -4 1 -7 2 -9c2 -2 3 -5 5 -7s4 -4 7 -5c2 -1 6 -3 9 -4s6 -3 7 -4s2 -3 2 -5s-1 -4 -2 -5c-2 -1 -4 -2 -6 -2c-3 0 -5 1 -7 3c-1 2 -2 5 -2 8v1h-16v-1
c0 -7 2 -13 6 -17s9 -6 15 -7v-10h10v10c5 1 10 3 13 6c3 4 6 8 6 14c0 3 0 6 -1 8s-3 4 -5 6c-1 2 -3 4 -6 5c-2 1 -5 3 -9 5c-3 1 -6 3 -7 4s-2 3 -2 5s1 4 2 5s3 2 5 2s4 0 5 -2s2 -5 2 -8v-2h17z" />
    <glyph glyph-name="uniF10A" unicode="&#xf10a;" horiz-adv-x="482" 
d="M48 146c0 32 24 60 53 60s54 -28 54 -60v0h-107v0zM70 246c0 17 14 32 31 32s32 -15 32 -32s-15 -31 -32 -31s-31 14 -31 31zM194 242c-4 0 -8 4 -8 8s4 8 8 8h77c4 0 8 -4 8 -8s-4 -8 -8 -8h-77zM194 196c-4 0 -8 3 -8 8c0 4 4 8 8 8h163c4 0 8 -4 8 -8s-4 -8 -8 -8
h-163zM194 149c-4 0 -8 4 -8 8s4 8 8 8h163c4 0 8 -4 8 -8s-4 -8 -8 -8h-163zM465 142l12 -11l5 -5l-5 -5l-14 -16l-6 -7l-3 -3c1 -4 1 -7 1 -11c0 -9 -2 -18 -6 -25c-5 -9 -13 -17 -22 -22c-7 -4 -15 -6 -24 -6c-8 0 -16 2 -23 5c-8 4 -16 11 -21 19c-6 8 -9 18 -9 29
c0 29 24 53 53 53c11 0 21 -3 29 -9c1 -1 3 -2 4 -3l3 3l5 5l2 2c-4 4 -10 7 -15 10v175c0 7 -6 13 -13 13h-387c-7 0 -13 -6 -13 -13v-251c0 -7 6 -13 13 -13h311c3 -7 8 -14 13 -19h-324c-17 0 -31 15 -31 32v251c0 17 14 32 31 32h387c17 0 31 -15 31 -32v-182l6 5l5 4z
M458 110l13 16l-11 11l-11 -9l-5 -5l-43 -38v0l-24 24l-14 -12l38 -48l50 54z" />
    <glyph glyph-name="uniF125" unicode="&#xf125;" horiz-adv-x="322" 
d="M321 310l1 -269c0 -23 -19 -42 -42 -42h-237c-23 0 -43 19 -43 42v302c0 23 20 42 43 42h208l1 -1l69 -74v0zM304 294h-54c-6 0 -11 4 -11 10v62h-196c-13 0 -24 -10 -24 -23v-302c0 -13 11 -23 24 -23h238c13 0 23 10 23 23v253zM261 347l1 -32h28zM211 273h-21l-4 -13
h-14l22 58h11l21 -58h-13zM194 283h14l-7 21zM179 161v58h21c7 0 12 -1 16 -4s5 -7 5 -12c0 -3 -1 -5 -2 -7s-3 -5 -6 -6c3 -1 5 -2 7 -4s3 -5 3 -8c0 -5 -2 -10 -5 -12s-8 -4 -15 -4h-24v-1zM191 195h9c6 0 9 2 9 7c0 3 -1 4 -2 6s-4 2 -7 2h-8v-15h-1zM191 185v-15h10
c3 0 5 1 6 2c2 1 2 3 2 5c0 5 -3 8 -8 8h-10zM224 78c0 -6 -3 -11 -7 -15s-9 -5 -16 -5s-13 2 -17 7s-7 12 -7 20v3c0 5 1 10 3 15c2 4 6 7 9 10c4 2 8 3 13 3c7 0 12 -2 16 -5c4 -4 6 -8 7 -15h-12c0 4 -1 6 -3 8s-4 2 -8 2s-7 -1 -9 -4s-3 -7 -3 -13v-4c0 -6 1 -11 3 -14
s5 -4 9 -4s6 1 8 2s3 4 3 8h11v1zM115 250h-37c-11 0 -20 10 -20 21v36c0 11 9 20 20 20h37c11 0 20 -9 20 -20v-36c0 -11 -9 -21 -20 -21zM78 315c-5 0 -9 -4 -9 -9v-36c0 -5 4 -10 9 -10h37c5 0 9 5 9 10v36c0 5 -4 9 -9 9h-37zM115 47h-37c-11 0 -20 9 -20 20v36
c0 11 9 21 20 21h37c11 0 20 -10 20 -21v-36c0 -11 -9 -20 -20 -20zM78 112c-5 0 -9 -4 -9 -9v-36c0 -5 4 -9 9 -9h37c5 0 9 4 9 9v36c0 5 -4 9 -9 9h-37zM155 240l12 -11l-14 -15l-7 -8l-51 -57l-33 41l-5 8l-2 2l14 12l25 -26l34 30l11 9l5 5z" />
    <glyph glyph-name="uniF111" unicode="&#xf111;" horiz-adv-x="482" 
d="M477 133l5 -6l-5 -5l-14 -16l-6 -7l-3 -3c1 -4 1 -7 1 -11c0 -9 -2 -18 -6 -25c-5 -9 -13 -17 -22 -22c-7 -4 -15 -6 -24 -6c-8 0 -16 2 -23 5c-8 4 -16 11 -21 19c-6 8 -9 18 -9 29c0 29 24 53 53 53c11 0 21 -3 29 -9c1 -1 3 -2 4 -3l3 3l5 5l2 2c-4 4 -10 7 -15 10
v178c0 7 -6 13 -13 13h-387c-7 0 -13 -6 -13 -13v-254c0 -7 6 -13 13 -13h311c3 -7 8 -14 13 -19h-324c-17 0 -31 15 -31 32v254c0 17 14 32 31 32h387c17 0 31 -15 31 -32v-185l6 5l5 5l5 -5zM457 112l14 16l-11 11l-11 -9l-5 -5l-43 -38v0l-24 24l-14 -12l38 -48v0v0
l50 54zM318 195v-40h-10c-1 -7 -4 -12 -9 -17c-6 -6 -13 -9 -22 -9s-17 3 -23 9c-3 4 -5 8 -7 12h-51c-1 -5 -4 -9 -7 -12c-6 -6 -14 -9 -23 -9s-16 3 -22 9c-3 4 -5 8 -7 12h-10s-21 45 26 61c23 8 35 50 87 53c71 5 78 -57 78 -69v0zM177 150c3 3 4 7 5 11c0 4 -2 8 -5 11
s-7 5 -11 5s-8 -2 -11 -5s-5 -7 -5 -11s2 -8 5 -11s7 -5 11 -5s8 2 11 5zM240 208v41c-27 -2 -43 -19 -62 -41h62zM288 150c3 3 5 7 5 11s-2 8 -5 11s-7 5 -11 5s-8 -2 -11 -5s-5 -7 -5 -11s2 -8 5 -11s7 -5 11 -5s8 2 11 5zM249 209l50 1c-4 13 -12 38 -50 40v-41z" />
    <glyph glyph-name="uniF14B" unicode="&#xf14b;" 
d="M418 352c18 0 32 -15 31 -32v-253c0 -17 -14 -32 -31 -32h-387c-17 0 -31 15 -31 32v253c0 17 14 32 31 32h387zM432 66h-1v253c0 7 -6 13 -13 13h-387c-7 0 -13 -6 -13 -13v-253c0 -7 6 -13 13 -13h388c7 0 13 6 13 13zM323 273c1 -2 2 -3 4 -5v-118v-3l-2 -2
c-1 0 -1 -1 -2 -1c-1 -1 -2 -1 -3 -1h-3h-3h-3c0 -8 -3 -15 -9 -21s-13 -10 -21 -10s-15 4 -21 10s-10 13 -10 21h-42c0 -8 -3 -15 -9 -21s-14 -10 -22 -10s-15 4 -21 10s-9 13 -9 21h-7h-3h-3h-3c-2 0 -2 1 -3 1s-1 0 -2 1c-1 0 -2 1 -2 2v3c0 2 1 4 2 5s3 2 5 2v38v4v4v4
s1 3 1 4c1 1 1 2 2 3l3 3l23 23c2 2 4 3 6 4c3 1 5 1 7 1h19v23c0 2 1 4 2 5s3 2 5 2h119c2 0 4 -1 5 -2zM187 131c3 3 5 6 4 10c0 4 -1 7 -4 10s-7 4 -11 4s-7 -1 -10 -4s-4 -6 -4 -10s1 -7 4 -10s6 -4 10 -4s8 1 11 4zM192 201v29h-19c-1 0 -2 0 -3 -1l-22 -22
c-1 -1 -1 -2 -1 -3v-3h45zM291 131c3 3 5 6 4 10c0 4 -1 7 -4 10s-6 4 -10 4s-7 -1 -10 -4s-4 -6 -4 -10s1 -7 4 -10s6 -4 10 -4s7 1 10 4z" />
    <glyph glyph-name="uniF115" unicode="&#xf115;" horiz-adv-x="320" 
d="M278 403c23 0 41 -19 42 -41c0 -23 -19 -43 -42 -43h-36v-212c0 -14 -11 -25 -25 -25h-63c-7 -9 -16 -16 -22 -23c-17 -20 -4 -76 -7 -77c-20 -4 -81 0 -81 0c1 6 8 47 11 65c2 16 -42 94 -35 134c4 26 37 71 58 99v38h-35c-23 0 -43 20 -43 43s20 42 43 42h235zM278 335
c14 0 26 11 26 26s-12 26 -26 26h-235c-14 0 -27 -11 -27 -26s13 -27 27 -27h35v29h20v-155c0 -11 1 -20 2 -22c1 -17 17 -20 24 -17c12 6 -1 52 18 76c1 2 3 4 5 5c5 4 14 7 14 6c5 1 9 0 12 -1c4 -1 5 -6 3 -9c0 -1 -1 -1 -1 -2c-1 -3 -3 -5 -6 -13c-8 -20 -10 -46 0 -85
c2 -5 2 -9 2 -14l-2 -18c-1 -4 -2 -8 -3 -11h51c3 0 5 2 5 5v255h20v-28h36z" />
    <glyph glyph-name="uniF106" unicode="&#xf106;" horiz-adv-x="447" 
d="M348 291c0 17 13 30 30 30s31 -13 31 -30s-14 -31 -31 -31s-30 14 -30 31zM443 44c5 -5 4 -13 0 -15c-1 -1 -1 -2 -2 -2c-5 -3 -11 -2 -15 2l-38 52c-2 2 -8 24 -9 34l-19 -27l-5 -55c0 -6 -5 -12 -12 -12h-3c-6 1 -10 6 -10 12l5 60c0 4 2 7 6 13l32 46l-2 59l-16 -20
c-2 -2 -4 -3 -6 -4l-32 -11c-6 -2 -14 1 -16 8c-2 6 2 14 9 16l29 10l34 40c3 3 9 5 13 4c2 -1 4 -2 6 -4v0l18 -19l23 -24c1 -1 2 -4 3 -6l4 -31c2 -7 -2 -14 -9 -15c-7 -2 -14 2 -15 9l-3 27l-17 18l3 -60l10 -57zM39 291c0 17 13 30 30 30s31 -13 31 -30s-14 -31 -31 -31
s-30 14 -30 31zM137 199c7 -2 11 -10 8 -17c-2 -6 -8 -10 -15 -8l-31 11c-2 1 -4 2 -6 4l-17 20l-2 -59l33 -46c4 -6 6 -10 6 -13l5 -60c0 -6 -4 -11 -10 -12h-3c-7 0 -12 5 -12 12l-6 55l-19 27c-2 -10 -6 -32 -7 -34l-38 -52c-4 -4 -12 -5 -17 -1l-2 2c-5 4 -6 12 -1 17
l35 48l10 57l3 60l-17 -17l-3 -28c-2 -7 -9 -11 -16 -11c-6 2 -10 8 -9 15l4 31c0 2 1 4 3 6l24 24l18 19v0c1 2 4 3 6 4c4 1 9 0 12 -4l35 -40zM328 240c2 -6 -2 -13 -8 -16l-29 -11c-2 -1 -5 -1 -7 0l-30 8v-190c0 -6 -4 -11 -10 -12h-3c-7 0 -13 5 -13 12l-1 95
c-1 5 -7 5 -8 0l-1 -95c0 -6 -5 -12 -12 -12h-3c-6 1 -10 6 -10 12v190l-30 -8c-2 -1 -6 -1 -8 0l-28 11c-6 3 -10 9 -8 16c3 6 9 10 16 8l25 -10l43 13c2 1 11 3 20 3s19 -2 21 -3l42 -13l26 10c7 2 14 -1 16 -8zM193 292c0 17 13 30 30 30s31 -13 31 -30s-14 -31 -31 -31
s-30 14 -30 31z" />
    <glyph glyph-name="uniF109" unicode="&#xf109;" horiz-adv-x="357" 
d="M60 55c0 26 18 46 41 46s43 -20 43 -46v0h-84v0zM78 135c0 13 11 24 24 24s25 -11 25 -24s-12 -25 -25 -25s-24 12 -24 25zM31 21h187c3 -7 8 -13 13 -18h-200c-17 0 -31 14 -31 31v320c0 17 14 31 31 31h173c-8 -3 -12 -10 -15 -18h-158c-7 0 -13 -6 -13 -13v-320
c0 -7 6 -13 13 -13zM342 108l10 -11l5 -5l-5 -5l-13 -15l-6 -7l-3 -3c1 -4 1 -7 1 -11c0 -9 -3 -19 -7 -26c-5 -9 -13 -16 -22 -21c-7 -4 -15 -6 -24 -6c-8 0 -16 2 -23 5c-8 4 -16 10 -21 18c-6 8 -9 19 -9 30c0 29 24 52 53 52c11 0 21 -3 30 -9c1 -1 3 -2 4 -3l3 3l5 5
l2 2c-4 4 -10 7 -15 10v199c6 2 12 6 18 10v-217l7 6l5 4zM334 77l14 15l-11 11l-12 -9l-5 -5l-42 -37l-25 24l-14 -12l39 -49l49 55zM331 358c-39 5 -59 -14 -77 -32c-1 -1 -2 -2 -2 -4c0 -1 1 -3 2 -4l13 -13l-69 -9l13 69l12 -13c2 -2 6 -2 8 0c43 36 77 25 100 6z
M64 290c-4 0 -8 4 -8 8s4 8 8 8h77c5 0 8 -4 8 -8s-4 -8 -8 -8h-77zM227 259c5 0 8 -4 8 -8s-4 -8 -8 -8h-163c-4 0 -8 4 -8 8s4 8 8 8h163zM235 205c0 -4 -3 -8 -8 -8h-163c-4 0 -8 4 -8 8s4 8 8 8h163c4 0 8 -4 8 -8z" />
    <glyph glyph-name="uniF12B" unicode="&#xf12b;" 
d="M388 330c29 0 60 -40 61 -41c0 0 -24 -22 -50 -23c-27 -2 -65 22 -65 22l-42 -171c2 0 3 -1 5 -2c9 -5 14 -16 15 -32c0 -22 -4 -39 -13 -48c-7 -7 -17 -10 -29 -10h-46h-46c-13 0 -22 3 -29 10c-9 9 -14 27 -13 48c1 15 6 26 15 32c1 1 3 1 5 2l-40 171s-40 -23 -66 -22
s-50 23 -50 23s32 40 61 40c27 0 57 -27 76 -10c0 1 24 27 62 40c6 2 17 4 24 4c22 0 45 -11 45 -11v0c23 -11 43 -31 44 -32c20 -17 49 10 76 10zM153 223c6 0 10 4 10 9s-4 10 -9 10s-10 -4 -10 -9s4 -10 9 -10zM176 61c7 0 14 5 14 12s-6 13 -13 13s-13 -5 -13 -12
s5 -13 12 -13zM224 109c4 0 18 0 30 4c-3 7 -6 19 -11 34c-14 48 -9 80 -6 89c8 27 23 49 35 64c-4 -2 -35 -12 -48 -12c-14 0 -45 11 -49 12c13 -15 27 -37 35 -64c3 -9 8 -41 -6 -89c-5 -16 -8 -27 -11 -34c13 -4 27 -4 31 -4zM276 61c7 0 12 6 12 13s-6 12 -13 12
s-12 -6 -12 -13s6 -12 13 -12zM295 224c5 0 9 4 9 10c0 5 -5 9 -10 9s-9 -5 -9 -10s5 -9 10 -9z" />
    <glyph glyph-name="uniF11D" unicode="&#xf11d;" horiz-adv-x="367" 
d="M111 18c-3 0 -6 1 -7 4c-2 2 -2 5 -1 8l56 152c-15 9 -25 26 -25 44c0 28 24 51 51 51c28 0 50 -24 50 -51c0 -18 -10 -35 -25 -44l56 -152c1 -3 1 -6 -1 -8c-2 -3 -4 -4 -7 -4h-147zM151 226c0 -18 15 -33 35 -33c4 0 8 1 11 2v0v0c12 5 21 17 21 31c0 18 -15 33 -33 33
s-34 -15 -34 -33zM174 176l-25 -67h68l-24 67c-3 -1 -6 -1 -9 -1s-7 1 -10 1zM144 91l-21 -56h121l-20 56h-80zM131 304c-25 -17 -42 -47 -43 -79c0 -24 11 -48 28 -66c4 -4 3 -10 0 -13c-2 -2 -4 -3 -6 -3s-5 1 -7 3c-21 21 -32 50 -32 79c0 38 19 72 50 93c4 3 9 2 12 -2
s2 -9 -2 -12zM248 318c29 -21 48 -56 47 -92c0 -28 -10 -56 -30 -77c-1 -2 -4 -3 -6 -3s-5 0 -7 2c-3 4 -3 9 0 13c17 17 27 41 27 65c0 31 -16 61 -41 78c-4 2 -5 8 -2 12c2 4 8 5 12 2zM55 95c-35 34 -56 81 -55 130c0 62 30 120 82 154c4 3 9 2 12 -2s2 -9 -3 -11
c-47 -31 -74 -83 -74 -139c0 -45 19 -88 50 -119c3 -4 3 -10 0 -13c-1 -2 -4 -3 -6 -3s-4 1 -6 3zM288 378c51 -34 80 -91 79 -153c0 -49 -20 -96 -54 -130c-1 -2 -4 -3 -6 -3s-4 1 -6 3c-3 4 -3 10 0 13c31 31 49 73 49 118c0 56 -26 107 -72 138c-4 2 -5 8 -2 12
c2 4 8 5 12 2z" />
    <glyph glyph-name="uniF149" unicode="&#xf149;" horiz-adv-x="272" 
d="M170 343c17 0 31 -14 32 -32v-3c42 -23 70 -68 70 -119c0 -22 -1 -59 -1 -61c0 -4 -4 -9 -8 -10c-3 -1 -58 -21 -125 -21c-16 0 -32 1 -47 3l-21 3c-4 1 -7 1 -10 2c-29 6 -50 13 -52 13c-5 1 -8 6 -8 11v61c0 34 13 66 34 90c10 12 24 22 37 29v3c0 17 13 31 30 31
c2 0 3 -1 5 -1c3 13 16 23 30 23s26 -10 29 -23c1 1 3 1 5 1zM111 247v65c0 6 -5 10 -11 10s-10 -4 -10 -10v-65c0 -6 4 -10 10 -10s11 4 11 10zM146 232v103c0 6 -4 11 -10 11s-10 -5 -10 -11v-103c0 -6 4 -10 10 -10s10 4 10 10zM180 247v65c0 6 -4 10 -10 10
s-10 -4 -10 -10v-65c0 -6 4 -10 10 -10s10 4 10 10zM55 50c-27 38 -51 23 -52 48h5c48 -13 90 -20 129 -20c28 0 73 4 125 20h5c0 -24 -25 -10 -52 -48c-18 -25 -54 -32 -80 -32s-62 7 -80 32z" />
    <glyph glyph-name="uniF134" unicode="&#xf134;" horiz-adv-x="409" 
d="M47 129c2 -20 15 -38 31 -49h1v-1l-3 -18v-2l-2 1c-26 13 -44 38 -48 66l-25 197c-3 22 3 45 17 63c13 18 34 30 56 33l8 1c47 6 89 -26 95 -73l15 -119l-17 -20l-3 23l-136 -17zM33 233l136 20l-12 93c-2 17 -10 32 -24 42c-11 8 -26 13 -40 13c-2 0 -5 -1 -8 -1l-8 -1
c-35 -5 -61 -38 -56 -73zM68 375c3 0 5 -2 6 -5c1 -2 1 -5 1 -7s-2 -5 -4 -6c-15 -9 -14 -26 -12 -37v-5c-1 -5 -5 -8 -10 -9h-1h-1c-5 0 -9 4 -9 9v1c-4 26 3 46 22 58c3 1 5 2 8 1zM379 261c35 -30 40 -84 9 -120l-129 -151c-17 -19 -41 -30 -65 -30c-19 0 -38 8 -54 21
l-6 5c-35 30 -40 84 -10 119l129 152c30 35 85 40 120 10zM300 68l-105 89l-55 -65c-11 -12 -17 -30 -16 -47c1 -18 10 -33 23 -44l6 -5c27 -23 68 -20 91 7zM374 155c22 26 19 68 -7 91l-6 5c-27 23 -69 20 -92 -7l-60 -71l104 -89zM330 247c3 -1 5 -3 4 -3c1 -3 2 -5 1 -8
c-1 -5 -7 -8 -12 -7c-17 5 -28 -7 -35 -16c-1 -2 -2 -3 -3 -4c-2 -1 -4 -2 -6 -2s-5 0 -7 2c0 0 -1 0 -1 1c-3 4 -3 9 1 13l1 1c16 21 36 29 57 23z" />
    <glyph glyph-name="uniF11F" unicode="&#xf11f;" horiz-adv-x="369" 
d="M10 12c-5 0 -10 5 -10 10v289c0 6 4 10 10 10h130l41 41c2 2 6 2 8 0l40 -41h130c6 0 10 -4 10 -10v-289c0 -6 -4 -10 -10 -10h-349zM185 351l-31 -31h61zM20 301v-269h329v269h-329zM35 47v240h299v-240h-299zM46 277h1v-143c15 15 48 43 81 31c7 -2 12 -4 16 -6
c6 17 25 29 45 29c15 0 29 -7 38 -18c9 12 22 21 36 20c22 -1 34 -19 45 -35c5 -8 10 -15 15 -19v141h-277zM220 162c-6 9 -18 15 -32 15c-16 0 -32 -9 -36 -22v0c13 -6 22 -9 52 -15h1c2 2 3 5 5 7c3 5 6 10 10 15zM46 117v-60h278v67c-10 4 -17 14 -24 25
c-10 15 -20 30 -37 31s-32 -20 -44 -38c-5 -7 -10 -14 -14 -19c-29 -34 -80 -48 -99 -52h-2c-2 0 -4 1 -5 3s0 5 3 6h1c14 4 65 17 94 49c1 0 1 1 2 2c-28 6 -38 10 -51 15c-6 2 -13 5 -24 9c-35 12 -72 -30 -78 -38z" />
  </font>
</defs>
</svg>
