<?xml version="1.0" encoding="UTF-8"?><svg id="b1abeda8-54eb-430e-b305-9264c162078f" xmlns="http://www.w3.org/2000/svg" viewBox="0 0 50.5 50.5"><path d="m14.8,27.7c-1.2,0-2.2-.3-2.9-1-.7-.6-1-1.5-1-2.6s.4-2,1.2-2.7c.8-.6,2-1,3.8-1.2l2.9-.3.3,1.7-2.9.3c-.8.1-1.4.3-1.7.6-.3.3-.5.7-.5,1.3,0,.5.2,1,.5,1.2.3.3.8.4,1.4.4.4,0,.8-.1,1.2-.2.4-.2.8-.4,1.1-.8v-4.9c0-.6-.1-1.1-.3-1.5-.2-.4-.5-.6-1-.8-.4-.1-1-.2-1.7-.2-.5,0-1,0-1.6.1s-1.2.2-1.8.4v-2.3c.6-.2,1.2-.3,1.9-.4.7-.1,1.3-.1,2-.1,1.2,0,2.2.2,3,.5s1.4.8,1.8,1.6c.4.7.6,1.7.6,3v7.7h-2.5l-.2-1.3h-.1c-.4.5-.9.9-1.5,1.1-.6.3-1.3.4-2,.4Z" fill="#3f3f3f"/><path d="m24.5,27.5v-12.4h2.5l.2,1.6h.1c.4-.6.9-1.1,1.5-1.3.6-.3,1.3-.4,2-.4h.5c.2,0,.3,0,.5.1v2.7c-.2,0-.4-.1-.6-.1h-.6c-.4,0-.8.1-1.1.2-.4.1-.8.3-1.1.5-.3.2-.6.5-.9.8v8.5h-3v-.2Z" fill="#3f3f3f"/><path d="m19.6,36.3v-.8c7.9,0,14.4-6.5,14.4-14.4h.8c0,8.4-6.8,15.2-15.2,15.2Z" fill="#3f3f3f"/><path d="m47.3,40l-10-10h0c.7-1.3,1.2-2.6,1.5-4q0-.1.1-.2c.1-.3.1-.5.2-.8,0-.1.1-.3.1-.4,0-.2.1-.5.1-.7s.1-.4.1-.6,0-.4.1-.6v-1.2h0c0-4.1-1.3-8-3.7-11.2v-.1c-.2-.2-.3-.4-.5-.6-3.5-4.2-8.7-6.9-14.5-6.9C10.3,2.5,1.8,11,1.8,21.3s8.4,18.8,18.8,18.8c3.9,0,7.4-1.2,10.4-3.2l9.6,9.6c.9.9,2,1.4,3.3,1.4,1.2,0,2.4-.5,3.3-1.4.9-.9,1.4-2,1.4-3.3,0-1.2-.4-2.3-1.3-3.2ZM20.6,4.7c9.2,0,16.6,7.5,16.6,16.6,0,3.2-.9,6.1-2.4,8.7l1.6,1.6h0l9.7,9.7c1.1,1.1,1.1,3,0,4.1s-3,1.1-4.1,0l-9.4-9.4h0l-1.5-1.5c-2.8,2.3-6.4,3.6-10.3,3.6-9.4-.1-16.8-7.6-16.8-16.8S11.4,4.7,20.6,4.7Z" fill="#3f3f3f"/></svg>