<?xml version="1.0" encoding="utf-8"?>
<!-- Generator: Adobe Illustrator 16.0.0, SVG Export Plug-In . SVG Version: 6.00 Build 0)  -->
<!DOCTYPE svg PUBLIC "-//W3C//DTD SVG 1.1//EN" "http://www.w3.org/Graphics/SVG/1.1/DTD/svg11.dtd">
<svg version="1.1" id="Layer_1" xmlns="http://www.w3.org/2000/svg" xmlns:xlink="http://www.w3.org/1999/xlink" x="0px" y="0px"
	 width="595.28px" height="841.89px" viewBox="0 0 595.28 841.89" enable-background="new 0 0 595.28 841.89" xml:space="preserve">
<path fill="none" stroke="#000000" stroke-width="12.4913" stroke-linecap="round" stroke-linejoin="round" stroke-miterlimit="10" d="
	M348.527,393.234c-9.074-8.165-15.672-6.504-29.009-6.504h-4.725l3.927,117.789l-5.647,18.837l-2.829-22.211 M204.993,438.409
	l-28.194,163.556h-16.243c-16.427-0.716-14.738-17.525-14.554-21.982l9.513-126.748l13.809-97.208l11.755-46.926
	c2.984-11.07,9.253-18.184,22.553-18.184c8.641,0,15.127,6.429,19.502,13.761l27.374,45.93c0,0,34.512,11.475,43.28,14.5
	c8.772,3.025,9.535,9.079,9.535,9.079s6.135,15.131-1.338,18.754c-0.776,0.376-62.523-14.029-62.523-14.029
	c-2.352-0.568-4.114-1.637-5.583-3.31l-14.789-16.778l-10.381,63.575 M114.251,483.37l-3.969-77.995
	c-0.524-10.741,2.831-20.694,8.845-28.582c0.049-0.937,0.219-1.967,0.46-3.087l19.617-87.176c0.872-3.861,5.144-5.851,10.378-4.603
	l17.274,4.129c3.926,0.93,5.856,4.008,4.769,9.083l-16.163,75.793 M127.224,384.763c-3.922,5.65-6.077,12.579-5.731,19.969
	c0.91,17.874,16.071,31.572,33.878,30.666c17.799-0.905,31.497-16.073,30.591-33.874c-0.849-16.667-14.188-29.747-30.5-30.59
	l-2.573,12.054c-0.942,4.417-4.158,6.55-8.271,5.639L127.224,384.763z M397.525,225.049c2.234,0.245,4.299,1.347,5.731,3.11
	l84.475,81.021c-10.115-2.064-24.783-10.49-33.9-15.619l5.402,26.446c0.135,1.382-0.77,1.96-1.999,1.299l-41.634-22.988
	c-1.242-0.672-2.868-0.254-3.621,0.905l-11.369,27.78c-0.938,1.927-5.28,2.088-6.178,0l-11.368-27.78
	c-0.756-1.16-2.38-1.578-3.606-0.905l-41.659,22.988c-1.235,0.662-2.126,0.083-2.001-1.299l5.41-26.446
	c-9.106,5.129-30.049,18.112-49.444,15.957c16.163-5.387,100.014-81.359,100.014-81.359
	C393.206,226.396,395.281,225.294,397.525,225.049z M215.128,417.486l52.722,34.4c3.839,2.485,5.84,6.65,6.226,11.42l7.424,92.068
	h-11.446c-10.101,0-17.346-9.892-18.21-20.397l-10.508-55.936l-36.119-12.925 M192.313,241.558
	c0-20.315,16.449-36.773,36.768-36.773c20.302,0,36.742,16.458,36.742,36.773s-16.44,36.755-36.742,36.755
	C208.762,278.313,192.313,261.873,192.313,241.558 M182.116,601.284l53.349-33.161l45.762-11.119l18.887-13.123l27.475-16.163
	c18.783-11.72,47.117-17.247,73.858-17.247l45.74-8.611l39.465-37.172 M155.463,370.933c0,0-14.283-6.988-33.225,3.957"/>
</svg>
