<?xml version="1.0" encoding="utf-8"?>
<!-- Generator: Adobe Illustrator 24.2.1, SVG Export Plug-In . SVG Version: 6.00 Build 0)  -->
<svg version="1.1" id="Layer_1" xmlns="http://www.w3.org/2000/svg" xmlns:xlink="http://www.w3.org/1999/xlink" x="0px" y="0px"
	 viewBox="0 0 50.46 50.46" style="enable-background:new 0 0 50.46 50.46;" xml:space="preserve">
<path d="M34.6,37.83c-0.82,0-1.49,0.67-1.49,1.5c0,0.82,0.67,1.49,1.49,1.49c0.82,0,1.49-0.67,1.49-1.49
	C36.09,38.5,35.42,37.83,34.6,37.83z M34.6,39.62c-0.16,0-0.29-0.13-0.29-0.29c0-0.16,0.13-0.3,0.29-0.3c0.16,0,0.29,0.14,0.29,0.3
	C34.89,39.49,34.76,39.62,34.6,39.62z M34.6,37.83c-0.82,0-1.49,0.67-1.49,1.5c0,0.82,0.67,1.49,1.49,1.49
	c0.82,0,1.49-0.67,1.49-1.49C36.09,38.5,35.42,37.83,34.6,37.83z M34.6,39.62c-0.16,0-0.29-0.13-0.29-0.29c0-0.16,0.13-0.3,0.29-0.3
	c0.16,0,0.29,0.14,0.29,0.3C34.89,39.49,34.76,39.62,34.6,39.62z M44.2,19.77c-0.31-2.79-1.89-5.32-4.24-6.85
	c0.04-0.24,0.07-0.49,0.07-0.75c0-2.65-2.35-4.82-5.23-4.82s-5.23,2.17-5.23,4.82c0,0.26,0.03,0.51,0.07,0.76
	c-2.44,1.59-4.02,4.22-4.26,7.13c-0.02,0.25-0.03,0.5-0.03,0.75c0,5.21,4.24,9.45,9.45,9.45c5.21,0,9.45-4.24,9.45-9.45
	C44.25,20.46,44.23,20.11,44.2,19.77z M30.77,12.17c0-1.99,1.81-3.62,4.03-3.62c2.22,0,4.03,1.63,4.03,3.62v0.1
	c-2.53-1.2-5.53-1.2-8.06,0V12.17z M30.79,14.07c0.19-0.11,0.39-0.22,0.58-0.32c1.07-0.52,2.22-0.79,3.43-0.79
	c1.2,0,2.35,0.27,3.42,0.8c0.21,0.09,0.4,0.2,0.6,0.32c1.86,1.11,3.18,2.95,3.64,5.02c-0.89-0.26-1.77-0.48-2.65-0.64l-0.84-2.55
	c-0.08-0.24-0.29-0.4-0.54-0.41c-0.26-0.01-0.47,0.12-0.58,0.35l-1.01,2.24c-1.46-0.09-2.76-0.07-4.06,0.05l-1.04-2.29
	c-0.11-0.23-0.34-0.37-0.58-0.35c-0.25,0.01-0.46,0.17-0.54,0.41l-0.89,2.7c-0.91,0.2-1.79,0.44-2.63,0.72
	C27.52,17.15,28.85,15.23,30.79,14.07z M34.8,28.66c-4.33,0-7.85-3.52-7.85-7.85c0-0.05,0.01-0.1,0.01-0.15
	c0.14-0.05,0.27-0.11,0.41-0.16c0.94-0.31,1.92-0.58,2.94-0.79c0.21-0.04,0.38-0.19,0.45-0.4l0.52-1.57l0.58,1.29
	c0.11,0.24,0.35,0.37,0.62,0.35c1.47-0.16,2.98-0.19,4.69-0.07c0.26,0.03,0.48-0.12,0.59-0.35l0.55-1.21l0.47,1.43
	c0.07,0.21,0.25,0.37,0.48,0.41c1.09,0.17,2.21,0.45,3.37,0.82c0.01,0.13,0.02,0.26,0.02,0.4C42.65,25.14,39.13,28.66,34.8,28.66z
	 M24.79,8.93C23.9,7.31,22.42,6.2,21.01,6.1C20.48,6.06,20,6.2,19.6,6.46c-1.34-0.73-2.87-1.15-4.5-1.15
	c-1.62,0-3.14,0.41-4.47,1.13C10.24,6.19,9.78,6.06,9.25,6.1c-1.4,0.1-2.88,1.21-3.77,2.83c-1.25,2.28-1.16,4.51,0.24,6.97
	c0.57,4.67,4.55,8.31,9.38,8.31c4.76,0,8.69-3.54,9.34-8.13C25.95,13.55,26.07,11.27,24.79,8.93z M6.11,13.93
	c-0.53-1.54-0.39-2.95,0.42-4.42c0.79-1.45,1.98-2.16,2.8-2.21C9.37,7.29,9.4,7.29,9.44,7.29c0.35,0,0.62,0.13,0.79,0.37
	c0.31,0.41,0.37,1.07,0.18,1.77c-0.29,1.06-1.11,1.96-2.18,2.41C7.08,12.32,6.44,13.12,6.11,13.93z M15.1,22.61
	c-4.33,0-7.85-3.52-7.85-7.85c0-0.16,0.01-0.32,0.02-0.47c0.23-0.51,0.64-1.02,1.42-1.35c1.41-0.59,2.49-1.78,2.88-3.19
	c0.2-0.72,0.18-1.4,0.01-2c1.06-0.53,2.25-0.84,3.52-0.84c1.29,0,2.5,0.32,3.58,0.88c-0.17,0.58-0.18,1.26,0.02,1.96
	c0.39,1.41,1.46,2.6,2.87,3.19c0.7,0.3,1.1,0.74,1.34,1.19c0.02,0.21,0.03,0.42,0.03,0.63C22.94,19.09,19.42,22.61,15.1,22.61z
	 M24.15,13.93c-0.33-0.81-0.97-1.61-2.12-2.09c-1.07-0.45-1.88-1.35-2.18-2.41c-0.19-0.7-0.12-1.36,0.18-1.77
	c0.18-0.24,0.45-0.37,0.8-0.37c0.03,0,0.07,0,0.1,0.01c0.83,0.05,2.01,0.76,2.8,2.21C24.54,10.98,24.68,12.39,24.15,13.93z
	 M34.6,37.83c-0.82,0-1.49,0.67-1.49,1.5c0,0.82,0.67,1.49,1.49,1.49c0.82,0,1.49-0.67,1.49-1.49C36.09,38.5,35.42,37.83,34.6,37.83
	z M34.6,39.62c-0.16,0-0.29-0.13-0.29-0.29c0-0.16,0.13-0.3,0.29-0.3c0.16,0,0.29,0.14,0.29,0.3C34.89,39.49,34.76,39.62,34.6,39.62
	z M34.6,37.83c-0.82,0-1.49,0.67-1.49,1.5c0,0.82,0.67,1.49,1.49,1.49c0.82,0,1.49-0.67,1.49-1.49
	C36.09,38.5,35.42,37.83,34.6,37.83z M34.6,39.62c-0.16,0-0.29-0.13-0.29-0.29c0-0.16,0.13-0.3,0.29-0.3c0.16,0,0.29,0.14,0.29,0.3
	C34.89,39.49,34.76,39.62,34.6,39.62z M34.6,37.83c-0.82,0-1.49,0.67-1.49,1.5c0,0.82,0.67,1.49,1.49,1.49
	c0.82,0,1.49-0.67,1.49-1.49C36.09,38.5,35.42,37.83,34.6,37.83z M34.6,39.62c-0.16,0-0.29-0.13-0.29-0.29c0-0.16,0.13-0.3,0.29-0.3
	c0.16,0,0.29,0.14,0.29,0.3C34.89,39.49,34.76,39.62,34.6,39.62z M34.6,37.83c-0.82,0-1.49,0.67-1.49,1.5
	c0,0.82,0.67,1.49,1.49,1.49c0.82,0,1.49-0.67,1.49-1.49C36.09,38.5,35.42,37.83,34.6,37.83z M34.6,39.62
	c-0.16,0-0.29-0.13-0.29-0.29c0-0.16,0.13-0.3,0.29-0.3c0.16,0,0.29,0.14,0.29,0.3C34.89,39.49,34.76,39.62,34.6,39.62z
	 M48.35,41.29c-0.49-2.43-2.97-8.38-7.58-11.25c-0.25-0.15-0.56-0.16-0.81-0.02c-1.64,0.91-3.5,1.4-5.34,1.42
	c-1.87-0.04-3.73-0.53-5.37-1.43c-0.25-0.14-0.55-0.13-0.8,0.02c-0.47,0.28-0.91,0.61-1.34,0.95c-1.26-2.44-3.22-5.14-5.9-6.81
	c-0.24-0.15-0.55-0.16-0.81-0.02c-1.63,0.91-3.49,1.4-5.34,1.41c-1.86-0.03-3.72-0.53-5.36-1.42C9.45,24,9.14,24.01,8.9,24.15
	c-4.62,2.82-7.12,8.76-7.6,11.2c-0.07,0.33,0.08,0.67,0.37,0.84C3,37,4.4,37.67,5.85,38.24v7.05c0,0.33,0.27,0.59,0.6,0.59H8.4
	c0.16,0,0.32-0.06,0.43-0.18c0.2-0.2,0.32-0.34,0.22-6.41c1.95,0.52,3.97,0.84,6.01,0.92c2.16-0.03,4.29-0.34,6.36-0.9
	c-0.28,0.75-0.47,1.41-0.57,1.92c-0.06,0.33,0.08,0.66,0.37,0.84c4.03,2.43,8.65,3.82,13.39,4.01c4.74-0.05,9.37-1.43,13.38-3.96
	C48.27,41.94,48.41,41.61,48.35,41.29z M28.91,31.64c1.76,0.87,3.71,1.36,5.7,1.4c1.97-0.02,3.93-0.5,5.69-1.39
	c0.73,0.5,1.37,1.09,1.98,1.72c-0.17,0.14-0.35,0.26-0.57,0.34c-0.36,0.13-0.96,0.12-1.38-0.1c-0.27-0.14-0.6-0.06-0.77,0.2
	c-0.28,0.41-0.7,0.69-1.2,0.77c-0.46,0.11-0.94-0.03-1.32-0.32c-0.25-0.18-0.6-0.15-0.81,0.07c-0.33,0.36-0.78,0.56-1.3,0.57
	c-0.48,0-0.94-0.21-1.3-0.58c-0.2-0.22-0.54-0.26-0.78-0.08c-0.41,0.29-0.89,0.4-1.37,0.31c-0.46-0.08-0.87-0.35-1.16-0.76
	c-0.16-0.25-0.48-0.33-0.75-0.21c-0.44,0.21-1,0.24-1.41,0.09c-0.37-0.13-0.67-0.38-0.87-0.7C27.79,32.49,28.32,32.03,28.91,31.64z
	 M20.75,25.78c0.12,0.08,0.22,0.17,0.33,0.26l-0.42,2.62c-0.68-0.4-1.8-1.02-3.27-1.75C18.55,26.68,19.69,26.31,20.75,25.78z
	 M9.36,25.76c1.08,0.54,2.24,0.91,3.44,1.14c-1.47,0.73-2.6,1.36-3.28,1.76l-0.43-2.7C9.18,25.9,9.26,25.82,9.36,25.76z M7.86,44.69
	H7.05v-7.33c0.07,0,0.13,0.02,0.2,0.02c0.18,0,0.37-0.02,0.56-0.05C7.87,40.31,7.9,43.5,7.86,44.69z M8.82,35.61
	c-0.93,0.68-2.08,0.76-2.51,0.17c-0.26-0.35-0.16-0.8-0.09-1.04c0.16-0.48,0.52-0.95,1-1.3c0.51-0.38,1.08-0.57,1.57-0.57
	c0.4,0,0.74,0.13,0.94,0.39c0.25,0.35,0.16,0.8,0.08,1.04C9.66,34.78,9.3,35.25,8.82,35.61z M15.08,38.61
	c-2.05-0.08-4.09-0.42-6.07-0.97c0-0.25,0-0.47-0.01-0.73c0,0,0,0,0-0.01c0.18-0.09,0.36-0.2,0.53-0.33
	c0.46-0.34,0.83-0.75,1.1-1.21c0.64,0.03,1.2,0.45,1.41,1.06c0.22,0.66,0.78,1.09,1.44,1.09h0.16c0.48,0,0.92-0.22,1.2-0.6
	c0.29-0.39,0.38-0.87,0.24-1.33c-0.58-1.99-2.45-3.38-4.53-3.38c-0.06,0-0.12,0.01-0.18,0.02c-0.93-0.81-2.53-0.73-3.86,0.25
	c-0.69,0.5-1.19,1.18-1.43,1.9c-0.22,0.67-0.16,1.33,0.13,1.87c-0.76-0.35-1.5-0.71-2.21-1.12c0.55-2.07,2.21-5.78,5.01-8.3
	l0.46,2.91c0.03,0.2,0.16,0.37,0.35,0.45c0.08,0.04,0.16,0.06,0.25,0.06c0.11,0,0.22-0.03,0.32-0.1c0.02-0.01,2.19-1.38,5.66-2.98
	c0,0,0,0,0.01,0h0.07c3.47,1.6,5.64,2.97,5.66,2.98c0.1,0.07,0.21,0.1,0.33,0.1c0.08,0,0.16-0.02,0.24-0.06
	c0.19-0.08,0.32-0.25,0.35-0.45l0.44-2.82c1.65,1.53,2.89,3.44,3.74,5.18c-1.59,1.62-2.82,3.56-3.66,5.32
	C19.92,38.16,17.51,38.58,15.08,38.61z M11.05,33.44c1.35,0.19,2.49,1.16,2.88,2.48c0.04,0.13-0.01,0.22-0.05,0.27
	c-0.03,0.04-0.11,0.12-0.24,0.12h-0.16c-0.16,0-0.26-0.14-0.31-0.27c-0.32-0.97-1.14-1.66-2.11-1.84
	C11.1,33.94,11.09,33.68,11.05,33.44z M34.6,44.14c-0.16,0-0.29-0.13-0.29-0.29c0-0.16,0.13-0.29,0.29-0.29
	c0.16,0,0.29,0.13,0.29,0.29C34.89,44.01,34.76,44.14,34.6,44.14z M35.98,44.42c0.07-0.17,0.11-0.37,0.11-0.57
	c0-0.82-0.67-1.49-1.49-1.49c-0.82,0-1.49,0.67-1.49,1.49c0,0.19,0.04,0.37,0.1,0.53c-3.75-0.36-7.39-1.52-10.66-3.39
	c0.47-1.77,1.76-4.75,3.89-7.16c0.33,0.44,0.79,0.78,1.32,0.97c0.57,0.2,1.26,0.22,1.87,0.04c0.45,0.47,1.02,0.78,1.64,0.89
	c0.63,0.12,1.28,0.03,1.85-0.26c0.53,0.41,1.16,0.63,1.86,0.63c0.65-0.01,1.26-0.23,1.76-0.61c0.58,0.3,1.33,0.39,1.85,0.27
	c0.63-0.1,1.21-0.42,1.66-0.89c0.61,0.19,1.34,0.16,1.88-0.04c0.36-0.13,0.67-0.33,0.95-0.57c1.93,2.36,3.13,5.13,3.57,6.8
	C43.39,43.02,39.73,44.16,35.98,44.42z M34.6,37.83c-0.82,0-1.49,0.67-1.49,1.5c0,0.82,0.67,1.49,1.49,1.49
	c0.82,0,1.49-0.67,1.49-1.49C36.09,38.5,35.42,37.83,34.6,37.83z M34.6,39.62c-0.16,0-0.29-0.13-0.29-0.29c0-0.16,0.13-0.3,0.29-0.3
	c0.16,0,0.29,0.14,0.29,0.3C34.89,39.49,34.76,39.62,34.6,39.62z M34.6,37.83c-0.82,0-1.49,0.67-1.49,1.5
	c0,0.82,0.67,1.49,1.49,1.49c0.82,0,1.49-0.67,1.49-1.49C36.09,38.5,35.42,37.83,34.6,37.83z M34.6,39.62
	c-0.16,0-0.29-0.13-0.29-0.29c0-0.16,0.13-0.3,0.29-0.3c0.16,0,0.29,0.14,0.29,0.3C34.89,39.49,34.76,39.62,34.6,39.62z M34.6,37.83
	c-0.82,0-1.49,0.67-1.49,1.5c0,0.82,0.67,1.49,1.49,1.49c0.82,0,1.49-0.67,1.49-1.49C36.09,38.5,35.42,37.83,34.6,37.83z
	 M34.6,39.62c-0.16,0-0.29-0.13-0.29-0.29c0-0.16,0.13-0.3,0.29-0.3c0.16,0,0.29,0.14,0.29,0.3C34.89,39.49,34.76,39.62,34.6,39.62z
	 M34.6,37.83c-0.82,0-1.49,0.67-1.49,1.5c0,0.82,0.67,1.49,1.49,1.49c0.82,0,1.49-0.67,1.49-1.49C36.09,38.5,35.42,37.83,34.6,37.83
	z M34.6,39.62c-0.16,0-0.29-0.13-0.29-0.29c0-0.16,0.13-0.3,0.29-0.3c0.16,0,0.29,0.14,0.29,0.3C34.89,39.49,34.76,39.62,34.6,39.62
	z M34.6,37.83c-0.82,0-1.49,0.67-1.49,1.5c0,0.82,0.67,1.49,1.49,1.49c0.82,0,1.49-0.67,1.49-1.49
	C36.09,38.5,35.42,37.83,34.6,37.83z M34.6,39.62c-0.16,0-0.29-0.13-0.29-0.29c0-0.16,0.13-0.3,0.29-0.3c0.16,0,0.29,0.14,0.29,0.3
	C34.89,39.49,34.76,39.62,34.6,39.62z M34.6,37.83c-0.82,0-1.49,0.67-1.49,1.5c0,0.82,0.67,1.49,1.49,1.49
	c0.82,0,1.49-0.67,1.49-1.49C36.09,38.5,35.42,37.83,34.6,37.83z M34.6,39.62c-0.16,0-0.29-0.13-0.29-0.29c0-0.16,0.13-0.3,0.29-0.3
	c0.16,0,0.29,0.14,0.29,0.3C34.89,39.49,34.76,39.62,34.6,39.62z M34.6,37.83c-0.82,0-1.49,0.67-1.49,1.5
	c0,0.82,0.67,1.49,1.49,1.49c0.82,0,1.49-0.67,1.49-1.49C36.09,38.5,35.42,37.83,34.6,37.83z M34.6,39.62
	c-0.16,0-0.29-0.13-0.29-0.29c0-0.16,0.13-0.3,0.29-0.3c0.16,0,0.29,0.14,0.29,0.3C34.89,39.49,34.76,39.62,34.6,39.62z"/>
</svg>
