<?xml version="1.0" encoding="utf-8"?>
<!-- Generator: Adobe Illustrator 24.0.1, SVG Export Plug-In . SVG Version: 6.00 Build 0)  -->
<svg version="1.1" id="Layer_1" xmlns="http://www.w3.org/2000/svg" xmlns:xlink="http://www.w3.org/1999/xlink" x="0px" y="0px"
	 viewBox="0 0 50.5 50.5" style="enable-background:new 0 0 50.5 50.5;" xml:space="preserve">
<g>
	<path d="M36.137,37.332h0.911c0.183,0,0.345-0.118,0.402-0.292l0.282-0.867c0.057-0.174-0.005-0.365-0.154-0.473l-0.737-0.536
		c-0.148-0.108-0.349-0.108-0.497,0l-0.737,0.536c-0.148,0.108-0.21,0.298-0.154,0.473l0.282,0.867
		C35.792,37.215,35.954,37.332,36.137,37.332z"/>
	<path d="M42.65,7.051h-4.13c-0.442,0-0.8,0.358-0.8,0.8s0.358,0.8,0.8,0.8h4.13c1.626,0,2.95,1.324,2.95,2.95v29.57
		c0,1.627-1.324,2.95-2.95,2.95H7.85c-1.626,0-2.95-1.323-2.95-2.95V11.6c0-1.626,1.324-2.95,2.95-2.95h4.13
		c0.442,0,0.8-0.358,0.8-0.8s-0.358-0.8-0.8-0.8H7.85c-2.509,0-4.55,2.041-4.55,4.55v29.57c0,2.509,2.041,4.55,4.55,4.55h34.8
		c2.509,0,4.55-2.041,4.55-4.55V11.6C47.2,9.092,45.159,7.051,42.65,7.051z"/>
	<path d="M17.19,8.65h16.12c0.442,0,0.8-0.358,0.8-0.8s-0.358-0.8-0.8-0.8H17.19c-0.442,0-0.8,0.358-0.8,0.8S16.748,8.65,17.19,8.65
		z"/>
	<path d="M14.594,10.854c0.442,0,0.8-0.358,0.8-0.8V5.579c0-0.442-0.358-0.8-0.8-0.8s-0.8,0.358-0.8,0.8v4.475
		C13.794,10.496,14.152,10.854,14.594,10.854z"/>
	<path d="M35.894,10.854c0.442,0,0.8-0.358,0.8-0.8V5.579c0-0.442-0.358-0.8-0.8-0.8s-0.8,0.358-0.8,0.8v4.475
		C35.094,10.496,35.452,10.854,35.894,10.854z"/>
	<path d="M10.243,14.669v3.828c0,0.965,0.785,1.75,1.75,1.75h3.827c0.965,0,1.75-0.785,1.75-1.75v-3.828
		c0-0.965-0.785-1.75-1.75-1.75h-3.827C11.028,12.919,10.243,13.704,10.243,14.669z M15.971,14.669v3.828
		c0,0.083-0.067,0.15-0.15,0.15h-3.827c-0.083,0-0.15-0.067-0.15-0.15v-3.828c0-0.083,0.067-0.15,0.15-0.15h3.827
		C15.903,14.518,15.971,14.586,15.971,14.669z"/>
	<path d="M28.914,14.669c0-0.965-0.785-1.75-1.75-1.75h-3.827c-0.965,0-1.75,0.785-1.75,1.75v3.828c0,0.965,0.785,1.75,1.75,1.75
		h3.827c0.965,0,1.75-0.785,1.75-1.75V14.669z M27.314,18.496c0,0.083-0.067,0.15-0.15,0.15h-3.827c-0.083,0-0.15-0.067-0.15-0.15
		v-3.828c0-0.083,0.067-0.15,0.15-0.15h3.827c0.083,0,0.15,0.067,0.15,0.15V18.496z"/>
	<path d="M32.93,14.669v3.828c0,0.965,0.785,1.75,1.75,1.75h3.827c0.965,0,1.75-0.785,1.75-1.75v-3.828
		c0-0.965-0.785-1.75-1.75-1.75H34.68C33.715,12.919,32.93,13.704,32.93,14.669z M34.529,14.669c0-0.083,0.067-0.15,0.15-0.15h3.827
		c0.083,0,0.15,0.067,0.15,0.15v3.828c0,0.083-0.067,0.15-0.15,0.15H34.68c-0.083,0-0.15-0.067-0.15-0.15V14.669z"/>
	<path d="M17.57,24.474c0-0.965-0.785-1.75-1.75-1.75h-3.827c-0.965,0-1.75,0.785-1.75,1.75v3.828c0,0.965,0.785,1.75,1.75,1.75
		h3.827c0.965,0,1.75-0.785,1.75-1.75V24.474z M15.971,28.302c0,0.083-0.067,0.15-0.15,0.15h-3.827c-0.083,0-0.15-0.067-0.15-0.15
		v-3.828c0-0.083,0.067-0.15,0.15-0.15h3.827c0.083,0,0.15,0.067,0.15,0.15V28.302z"/>
	<path d="M28.914,24.474c0-0.965-0.785-1.75-1.75-1.75h-3.827c-0.965,0-1.75,0.785-1.75,1.75v3.828c0,0.965,0.785,1.75,1.75,1.75
		h3.827c0.965,0,1.75-0.785,1.75-1.75V24.474z M27.314,28.302c0,0.083-0.067,0.15-0.15,0.15h-3.827c-0.083,0-0.15-0.067-0.15-0.15
		v-3.828c0-0.083,0.067-0.15,0.15-0.15h3.827c0.083,0,0.15,0.067,0.15,0.15V28.302z"/>
	<path d="M38.507,30.052c0.965,0,1.75-0.785,1.75-1.75v-3.828c0-0.965-0.785-1.75-1.75-1.75H34.68c-0.965,0-1.75,0.785-1.75,1.75
		v3.828c0,0.965,0.785,1.75,1.75,1.75H38.507z M34.529,28.302v-3.828c0-0.083,0.067-0.15,0.15-0.15h3.827
		c0.083,0,0.15,0.067,0.15,0.15v3.828c0,0.083-0.067,0.15-0.15,0.15H34.68C34.597,28.452,34.529,28.385,34.529,28.302z"/>
	<path d="M15.82,32.529h-3.827c-0.965,0-1.75,0.785-1.75,1.75v3.827c0,0.965,0.785,1.75,1.75,1.75h3.827
		c0.965,0,1.75-0.785,1.75-1.75v-3.827C17.57,33.314,16.785,32.529,15.82,32.529z M15.971,38.106c0,0.083-0.067,0.15-0.15,0.15
		h-3.827c-0.083,0-0.15-0.067-0.15-0.15v-3.827c0-0.083,0.067-0.15,0.15-0.15h3.827c0.083,0,0.15,0.067,0.15,0.15V38.106z"/>
	<path d="M27.164,32.529h-3.827c-0.965,0-1.75,0.785-1.75,1.75v3.827c0,0.965,0.785,1.75,1.75,1.75h3.827
		c0.965,0,1.75-0.785,1.75-1.75v-3.827C28.914,33.314,28.128,32.529,27.164,32.529z M27.314,38.106c0,0.083-0.067,0.15-0.15,0.15
		h-3.827c-0.083,0-0.15-0.067-0.15-0.15v-3.827c0-0.083,0.067-0.15,0.15-0.15h3.827c0.083,0,0.15,0.067,0.15,0.15V38.106z"/>
	<path d="M36.593,40.617c2.439,0,4.424-1.984,4.424-4.424c0-2.44-1.985-4.425-4.424-4.425c-2.44,0-4.425,1.984-4.425,4.425
		C32.168,38.633,34.153,40.617,36.593,40.617z M35.624,33.55l0.8,0.581c0.101,0.073,0.238,0.073,0.34,0l0.799-0.581
		c0.517,0.19,0.96,0.525,1.285,0.959l-0.302,0.928c-0.039,0.119,0.004,0.249,0.105,0.323l0.755,0.548
		c-0.024,0.58-0.222,1.113-0.545,1.552h-0.881c-0.125,0-0.236,0.081-0.275,0.199l-0.264,0.813c-0.269,0.085-0.55,0.144-0.847,0.144
		c-0.313,0-0.609-0.063-0.891-0.158l-0.26-0.799c-0.039-0.119-0.15-0.199-0.275-0.199h-0.842c-0.329-0.446-0.529-0.988-0.548-1.578
		l0.718-0.522c0.101-0.074,0.143-0.204,0.105-0.323l-0.29-0.894C34.637,34.093,35.092,33.746,35.624,33.55z"/>
</g>
</svg>
