<svg xmlns="http://www.w3.org/2000/svg" viewBox="0 0 50.46 50.46">
  <title>Iconos</title>
  <g>
    <path d="M44.83,32.67a10.4,10.4,0,1,0-.07,1.17A10.36,10.36,0,0,0,44.83,32.67ZM40.09,34.9a6,6,0,1,1,.43-2.23A6.05,6.05,0,0,1,40.09,34.9Z" fill="#00b5e4"/>
    <path d="M13.59,42.53A8,8,0,1,0,6,37.08,8,8,0,0,0,13.59,42.53Zm0-12.61a4.65,4.65,0,1,1-4.65,4.65A4.65,4.65,0,0,1,13.59,29.92Z" fill="#00b5e4"/>
    <path d="M8.6,26.59a9.4,9.4,0,0,1,13.89,4.92,0.11,0.11,0,0,0,.14.08c0.06,0,.09-0.05.09-0.13A11.8,11.8,0,0,1,43.18,24.7a0.19,0.19,0,0,0,.2.09,0.21,0.21,0,0,0,.08-0.25L42.37,11.22c-0.3-2.14-1-2.91-3.28-2.91H29c-6.74,0-9.63,10.48-9.63,10.48H16.94V14.26a1.46,1.46,0,1,0-2.93,0v4.57c-3.83.38-5.6,4.19-5.72,7.6a0.24,0.24,0,0,0,.08.19A0.2,0.2,0,0,0,8.6,26.59ZM33,10.51H39.1a1.33,1.33,0,0,1,.86.14,3.1,3.1,0,0,1,.28,1.44l0.53,6.44H33v-8Zm-9.5,4.17C25.19,11.91,27,10.51,29,10.51h2.58v8H21.75A21.7,21.7,0,0,1,23.54,14.68Z" fill="#00b5e4"/>
  </g>
</svg>
