<?xml version="1.0" encoding="utf-8"?>
<!-- Generator: Adobe Illustrator 18.0.0, SVG Export Plug-In . SVG Version: 6.00 Build 0)  -->
<!DOCTYPE svg PUBLIC "-//W3C//DTD SVG 1.1//EN" "http://www.w3.org/Graphics/SVG/1.1/DTD/svg11.dtd">
<svg version="1.1" id="Layer_1" xmlns="http://www.w3.org/2000/svg" xmlns:xlink="http://www.w3.org/1999/xlink" x="0px" y="0px"
	 viewBox="0 0 50.5 50.5" style="enable-background:new 0 0 50.5 50.5;" xml:space="preserve">
<style type="text/css">
	.st0{fill:#65B4E1;}
</style>
<g>
	<path class="st0" d="M44.8,32.7c0-5.7-4.6-10.4-10.4-10.4s-10.4,4.6-10.4,10.4c0,0.8,0.1,1.6,0.3,2.4c1.1,4.6,5.2,7.9,10.1,7.9
		c5.3,0,9.7-4,10.3-9.2C44.8,33.5,44.8,33.1,44.8,32.7z M40.1,34.9c-0.9,2.2-3.1,3.8-5.6,3.8c-2.5,0-4.6-1.5-5.6-3.6
		c-0.3-0.7-0.5-1.6-0.5-2.4c0-3.3,2.7-6.1,6.1-6.1s6.1,2.7,6.1,6.1C40.5,33.5,40.4,34.2,40.1,34.9z"/>
	<path class="st0" d="M13.6,42.5c3.5,0,6.5-2.3,7.5-5.5c0.3-0.8,0.4-1.6,0.4-2.5c0-4.4-3.6-8-8-8s-8,3.6-8,8c0,0.9,0.1,1.7,0.4,2.5
		C7.1,40.2,10.1,42.5,13.6,42.5z M13.6,29.9c2.6,0,4.7,2.1,4.7,4.7c0,0.9-0.3,1.8-0.7,2.5c-0.8,1.3-2.3,2.1-3.9,2.1
		c-1.6,0-3.1-0.9-3.9-2.1c-0.5-0.7-0.7-1.6-0.7-2.5C8.9,32,11,29.9,13.6,29.9z"/>
	<path class="st0" d="M8.6,26.6c1.4-0.9,3.2-1.4,5-1.4c4.1,0,7.6,2.7,8.9,6.4c0,0.1,0.1,0.1,0.1,0.1c0.1,0,0.1-0.1,0.1-0.1
		c0.6-5.9,5.6-10.6,11.7-10.6c3.4,0,6.5,1.5,8.7,3.8c0.1,0.1,0.1,0.1,0.2,0.1c0.1-0.1,0.1-0.3,0.1-0.3l-1.1-13.3
		c-0.3-2.1-1-2.9-3.3-2.9H29c-6.7,0-9.6,10.5-9.6,10.5h-2.4v-4.5c0-0.8-0.7-1.5-1.5-1.5S14,13.5,14,14.3v4.6
		c-3.8,0.4-5.6,4.2-5.7,7.6c0,0.1,0.1,0.2,0.1,0.2C8.4,26.7,8.5,26.7,8.6,26.6z M33,10.5h6.1c0.5,0,0.8,0,0.9,0.1s0.2,0.6,0.3,1.4
		l0.5,6.4H33V10.5z M23.5,14.7c1.7-2.8,3.5-4.2,5.5-4.2h2.6v8h-9.8C22.1,17.6,22.7,16.2,23.5,14.7z"/>
</g>
</svg>
