<svg id="Layer_1" data-name="Layer 1" xmlns="http://www.w3.org/2000/svg" viewBox="0 0 50.46 50.46"><defs><style>.cls-1{fill:#65b4e1;}</style></defs><title>agricultura</title><path class="cls-1" d="M34.41,43.48A10.62,10.62,0,1,1,44.92,34.1,10.54,10.54,0,0,1,34.41,43.48Zm0-19.47A8.85,8.85,0,1,0,43.3,32.9,8.9,8.9,0,0,0,34.41,24Z"/><path class="cls-1" d="M13.79,43a8.34,8.34,0,1,1,7.9-5.7A8.31,8.31,0,0,1,13.79,43Zm0-15a6.62,6.62,0,1,0,6.63,6.63A6.64,6.64,0,0,0,13.79,28.06Z"/><path class="cls-1" d="M6.6,27.82a.9.9,0,0,1-.9-.88c-.1-5.13,2-8.55,5.79-9.31V13.83c0-.93.91-1.51,2.36-1.51s2.36.58,2.36,1.51v3.63h1.86C18.86,15,22,7,28.36,7h10.1c2.66,0,3.79,1,4.17,3.68l1.72,13.47a.9.9,0,0,1-1.79.23L40.85,10.9c-.25-1.76-.65-2.12-2.39-2.12H28.36c-6,0-8.74,9.72-8.76,9.82a.9.9,0,0,1-.87.66H15.31a.9.9,0,0,1-.9-.9V14.18a2.94,2.94,0,0,0-1.13,0V18.4a.9.9,0,0,1-.81.9c-4.45.44-5,5-5,7.61a.9.9,0,0,1-.88.92Z"/><path class="cls-1" d="M37,18.48a1.11,1.11,0,0,0,1.11-1.21l-.31-3.67c-.19-1.37-.64-1.86-2.1-1.86H29.25c-3,0-4.77,3.18-5.61,5.16a1.11,1.11,0,0,0,1,1.55Z"/><path class="cls-1" d="M34.41,28a4.89,4.89,0,1,1-4.89,4.89A4.89,4.89,0,0,1,34.41,28m0-.8A5.68,5.68,0,1,0,40.1,32.9a5.69,5.69,0,0,0-5.69-5.69Z"/><path class="cls-1" d="M13.79,31.12a3.58,3.58,0,0,1,3.57,3.57,3.42,3.42,0,0,1-.57,1.92,3.57,3.57,0,1,1-3-5.5m0-.8A4.37,4.37,0,1,0,17.47,37a4.21,4.21,0,0,0,.69-2.36,4.37,4.37,0,0,0-4.37-4.37Z"/></svg>