<svg id="Layer_1" data-name="Layer 1" xmlns="http://www.w3.org/2000/svg" viewBox="0 0 50.46 50.46"><defs><style>.cls-1{fill:#65b4e1;}</style></defs><title>AGUA</title><path class="cls-1" d="M24,35.53a.66.66,0,0,1-.24,0l-.54-.24a.65.65,0,1,1,.56-1.17l.45.2A.65.65,0,0,1,24,35.53Z"/><path class="cls-1" d="M21.85,34.21a.65.65,0,0,1-.43-.16,7.24,7.24,0,0,1-2.52-5.42.65.65,0,0,1,1.3,0,5.86,5.86,0,0,0,2.07,4.44.65.65,0,0,1-.43,1.14Z"/><path class="cls-1" d="M25.23,41.5A11.69,11.69,0,0,1,13.55,29.82c0-3.09,1.47-7.08,4.37-11.87a77.39,77.39,0,0,1,5.93-8.36,1.84,1.84,0,0,1,2.76,0,77.49,77.49,0,0,1,5.94,8.36c2.9,4.79,4.36,8.78,4.36,11.87A11.69,11.69,0,0,1,25.23,41.5Zm0-30.77a79.93,79.93,0,0,0-5.76,8.15c-2.72,4.5-4.11,8.18-4.11,10.94a9.88,9.88,0,0,0,19.76,0c0-2.76-1.38-6.44-4.1-10.94A75.72,75.72,0,0,0,25.22,10.73Z"/><path class="cls-1" d="M24,35.53a.66.66,0,0,1-.24,0l-.54-.24a.65.65,0,1,1,.56-1.17l.45.2A.65.65,0,0,1,24,35.53Z"/><path class="cls-1" d="M21.85,34.21a.65.65,0,0,1-.43-.16,7.24,7.24,0,0,1-2.52-5.42.65.65,0,0,1,1.3,0,5.86,5.86,0,0,0,2.07,4.44.65.65,0,0,1-.43,1.14Z"/><path class="cls-1" d="M25.23,41.5A11.69,11.69,0,0,1,13.55,29.82c0-3.09,1.47-7.08,4.37-11.87a77.39,77.39,0,0,1,5.93-8.36,1.84,1.84,0,0,1,2.76,0,77.49,77.49,0,0,1,5.94,8.36c2.9,4.79,4.36,8.78,4.36,11.87A11.69,11.69,0,0,1,25.23,41.5Zm0-30.77a79.93,79.93,0,0,0-5.76,8.15c-2.72,4.5-4.11,8.18-4.11,10.94a9.88,9.88,0,0,0,19.76,0c0-2.76-1.38-6.44-4.1-10.94A75.72,75.72,0,0,0,25.22,10.73Z"/><path class="cls-1" d="M24,35.53a.66.66,0,0,1-.24,0l-.54-.24a.65.65,0,1,1,.56-1.17l.45.2A.65.65,0,0,1,24,35.53Z"/><path class="cls-1" d="M21.85,34.21a.65.65,0,0,1-.43-.16,7.24,7.24,0,0,1-2.52-5.42.65.65,0,0,1,1.3,0,5.86,5.86,0,0,0,2.07,4.44.65.65,0,0,1-.43,1.14Z"/><path class="cls-1" d="M25.23,41.5A11.69,11.69,0,0,1,13.55,29.82c0-3.09,1.47-7.08,4.37-11.87a77.39,77.39,0,0,1,5.93-8.36,1.84,1.84,0,0,1,2.76,0,77.49,77.49,0,0,1,5.94,8.36c2.9,4.79,4.36,8.78,4.36,11.87A11.69,11.69,0,0,1,25.23,41.5Zm0-30.77a79.93,79.93,0,0,0-5.76,8.15c-2.72,4.5-4.11,8.18-4.11,10.94a9.88,9.88,0,0,0,19.76,0c0-2.76-1.38-6.44-4.1-10.94A75.72,75.72,0,0,0,25.22,10.73Z"/></svg>