<?xml version="1.0" encoding="utf-8"?>
<!-- Generator: Adobe Illustrator 25.4.1, SVG Export Plug-In . SVG Version: 6.00 Build 0)  -->
<svg version="1.1" id="stroke_1_x2C_6" xmlns="http://www.w3.org/2000/svg" xmlns:xlink="http://www.w3.org/1999/xlink" x="0px"
	 y="0px" viewBox="0 0 50.46 50.46" enable-background="new 0 0 50.46 50.46" xml:space="preserve">
<g>
	<path d="M7.478,25.482h4.927c0.266,0,0.485-0.208,0.499-0.474c0.003-0.053,0.059-1.302-0.745-2.149
		c-0.141-0.148-0.298-0.275-0.47-0.379c0.631-0.13,1.469-0.055,2.335,0.727c0.111,0.1,0.261,0.144,0.408,0.123
		c0.147-0.022,0.278-0.109,0.355-0.236c0.041-0.068,0.873-1.415,2.358-1.755c-0.508,0.826-1.156,2.087-1.188,3.179h-1.188
		c-0.275,0-0.499,0.223-0.5,0.499s0.222,0.5,0.497,0.501l1.734,0.01c0.001,0,0.002,0,0.003,0c0.034,0,0.068-0.003,0.101-0.01h5.875
		l0.015,15.335c0,0.276,0.224,0.5,0.5,0.5s0.5-0.225,0.5-0.5L23.475,19.81h3.496l0.021,21.116c0,0.276,0.224,0.5,0.5,0.5
		s0.5-0.225,0.5-0.5l-0.015-15.451h8.771c0.276,0,0.5-0.224,0.5-0.5s-0.224-0.5-0.5-0.5h-2.434c-0.119-1.223-0.901-2.043-1.58-2.526
		c0.926-0.103,1.809,0.335,1.82,0.341c0.157,0.079,0.346,0.071,0.491-0.022c0.148-0.093,0.238-0.256,0.235-0.432
		c-0.019-1.1,0.61-1.838,1.225-2.296c-0.301,1.479,0.258,2.873,0.289,2.949c0.056,0.135,0.167,0.239,0.306,0.285
		c0.141,0.046,0.291,0.029,0.415-0.046c0.575-0.347,1.216-0.419,1.761-0.398c-1.051,1.049-1.066,2.565-1.066,2.646
		c0,0.276,0.224,0.5,0.5,0.5h4.438c0.276,0,0.5-0.224,0.5-0.5s-0.224-0.5-0.5-0.5h-3.881c0.116-0.595,0.465-1.554,1.515-1.941
		c0.197-0.073,0.327-0.26,0.327-0.47c0-0.209-0.132-0.396-0.328-0.469c-0.076-0.027-1.674-0.596-3.218,0
		c-0.165-0.678-0.32-1.897,0.341-2.859c0.121-0.176,0.117-0.411-0.012-0.583c-0.128-0.172-0.353-0.243-0.555-0.176
		c-0.115,0.038-2.596,0.871-3.001,3.162c-0.751-0.228-1.994-0.421-3.07,0.306c-0.154,0.104-0.237,0.286-0.216,0.471
		s0.144,0.343,0.318,0.41c0.018,0.007,1.699,0.689,1.925,2.15h-5.318l-0.005-5.166c0-0.276-0.224-0.5-0.5-0.5h-4.496
		c-0.133,0-0.26,0.053-0.354,0.146c-0.094,0.094-0.146,0.221-0.146,0.354l0.005,5.206h-5.524c0.039-1.136,1.111-2.826,1.574-3.446
		c0.109-0.146,0.13-0.339,0.055-0.505c-0.074-0.166-0.234-0.278-0.415-0.292c-2.009-0.159-3.328,1.125-3.908,1.843
		c-1.797-1.274-3.597-0.516-4.341,0.118c-0.16,0.136-0.219,0.356-0.146,0.554c0.072,0.197,0.26,0.328,0.47,0.328
		c0.521,0,0.91,0.14,1.186,0.428c0.265,0.277,0.383,0.647,0.436,0.939H7.478c-0.276,0-0.5,0.224-0.5,0.5S7.201,25.482,7.478,25.482z
		"/>
	<path d="M20.661,28.151c0.276,0,0.5-0.224,0.5-0.5s-0.224-0.5-0.5-0.5H7.313c-0.276,0-0.5,0.224-0.5,0.5s0.224,0.5,0.5,0.5H20.661z
		"/>
	<path d="M43.064,27.151H29.716c-0.276,0-0.5,0.224-0.5,0.5s0.224,0.5,0.5,0.5h13.349c0.276,0,0.5-0.224,0.5-0.5
		S43.341,27.151,43.064,27.151z"/>
	<path d="M42.927,43.319c-0.959,0-1.414-0.288-1.941-0.622c-0.575-0.365-1.228-0.778-2.478-0.778s-1.902,0.413-2.478,0.778
		c-0.527,0.334-0.982,0.622-1.941,0.622c-0.96,0-1.415-0.288-1.942-0.623c-0.575-0.364-1.228-0.777-2.477-0.777
		c-1.25,0-1.901,0.413-2.477,0.778c-0.527,0.334-0.982,0.622-1.941,0.622c-0.96,0-1.415-0.288-1.942-0.623
		c-0.575-0.364-1.228-0.777-2.477-0.777c-1.251,0-1.903,0.413-2.479,0.777c-0.527,0.335-0.983,0.623-1.943,0.623
		c-0.962,0-1.418-0.288-1.945-0.623c-0.576-0.364-1.229-0.777-2.48-0.777s-1.904,0.413-2.48,0.777
		c-0.527,0.335-0.983,0.623-1.945,0.623c-0.276,0-0.5,0.224-0.5,0.5s0.224,0.5,0.5,0.5c1.251,0,1.904-0.413,2.48-0.777
		c0.527-0.335,0.983-0.623,1.945-0.623s1.418,0.288,1.945,0.623c0.576,0.364,1.229,0.777,2.48,0.777s1.903-0.413,2.479-0.777
		c0.527-0.335,0.983-0.623,1.943-0.623c0.959,0,1.414,0.288,1.941,0.622c0.575,0.365,1.228,0.778,2.478,0.778
		s1.901-0.413,2.477-0.778c0.527-0.334,0.982-0.622,1.941-0.622s1.414,0.288,1.941,0.622c0.575,0.365,1.228,0.778,2.478,0.778
		c1.249,0,1.901-0.413,2.477-0.777c0.527-0.335,0.982-0.623,1.942-0.623s1.415,0.288,1.942,0.623
		c0.575,0.364,1.228,0.777,2.477,0.777c0.276,0,0.5-0.224,0.5-0.5S43.203,43.319,42.927,43.319z"/>
	<path d="M16.411,39.025c-0.962,0-1.418-0.288-1.945-0.622c-0.576-0.364-1.229-0.777-2.48-0.777s-1.904,0.413-2.48,0.777
		c-0.527,0.334-0.983,0.622-1.945,0.622c-0.276,0-0.5,0.224-0.5,0.5s0.224,0.5,0.5,0.5c1.251,0,1.904-0.413,2.48-0.777
		c0.527-0.334,0.983-0.622,1.945-0.622s1.418,0.288,1.945,0.622c0.576,0.364,1.229,0.777,2.48,0.777c1.25,0,1.902-0.413,2.479-0.777
		c0.497-0.315,0.945-0.58,1.799-0.611v-0.999c-1.147,0.033-1.783,0.417-2.334,0.765C17.827,38.737,17.372,39.025,16.411,39.025z"/>
	<path d="M42.927,39.025c-0.959,0-1.414-0.288-1.941-0.622c-0.575-0.364-1.228-0.777-2.478-0.777s-1.902,0.413-2.478,0.777
		c-0.527,0.334-0.982,0.622-1.941,0.622c-0.96,0-1.415-0.288-1.942-0.622c-0.539-0.341-1.164-0.712-2.265-0.76v0.999
		c0.806,0.042,1.247,0.299,1.73,0.605c0.575,0.364,1.228,0.777,2.478,0.777c1.249,0,1.901-0.413,2.477-0.777
		c0.527-0.334,0.982-0.622,1.942-0.622s1.415,0.288,1.942,0.622c0.575,0.364,1.228,0.777,2.477,0.777c0.276,0,0.5-0.224,0.5-0.5
		S43.203,39.025,42.927,39.025z"/>
	<path d="M20.688,33.592c-1.147,0.033-1.783,0.417-2.334,0.765c-0.527,0.334-0.982,0.622-1.943,0.622
		c-0.962,0-1.418-0.288-1.945-0.622c-0.576-0.364-1.229-0.777-2.48-0.777s-1.904,0.413-2.48,0.777
		C8.978,34.691,8.522,34.98,7.56,34.98c-0.276,0-0.5,0.224-0.5,0.5s0.224,0.5,0.5,0.5c1.251,0,1.904-0.413,2.48-0.777
		c0.527-0.334,0.983-0.622,1.945-0.622s1.418,0.288,1.945,0.622c0.576,0.364,1.229,0.777,2.48,0.777c1.25,0,1.902-0.413,2.479-0.777
		c0.497-0.315,0.945-0.58,1.799-0.611V33.592z"/>
	<path d="M42.927,34.98c-0.959,0-1.414-0.288-1.941-0.622c-0.575-0.364-1.228-0.777-2.478-0.777s-1.902,0.413-2.478,0.777
		c-0.527,0.334-0.982,0.622-1.941,0.622c-0.96,0-1.415-0.288-1.942-0.622c-0.539-0.341-1.164-0.712-2.265-0.76v0.999
		c0.806,0.042,1.247,0.299,1.73,0.605c0.575,0.364,1.228,0.777,2.478,0.777c1.249,0,1.901-0.413,2.477-0.777
		c0.527-0.334,0.982-0.622,1.942-0.622s1.415,0.288,1.942,0.622c0.575,0.364,1.228,0.777,2.477,0.777c0.276,0,0.5-0.224,0.5-0.5
		S43.203,34.98,42.927,34.98z"/>
</g>
<g>
	<path d="M27.019,16.847c-0.106,0-0.211-0.034-0.299-0.099c-0.143-0.106-0.218-0.28-0.198-0.456
		c0.021-0.192,0.561-4.708,3.981-5.167c1.123-0.151,1.997,0.047,2.599,0.587c0.791,0.709,0.775,1.735,0.774,1.778l0,0
		c0.004,0,0.093,1.062-0.716,1.914c-0.698,0.736-1.822,1.075-3.324,0.996c-0.006,0.001-1.563-0.038-2.623,0.409
		C27.15,16.834,27.084,16.847,27.019,16.847z M31.199,12.075c-0.175,0-0.362,0.013-0.563,0.041
		c-1.901,0.255-2.679,2.338-2.968,3.504c1.072-0.249,2.147-0.222,2.207-0.22c1.197,0.059,2.06-0.167,2.551-0.675
		c0.502-0.519,0.454-1.174,0.452-1.202c-0.002-0.06-0.002-0.678-0.451-1.073C32.145,12.2,31.733,12.075,31.199,12.075z"/>
</g>
<g>
	<path d="M23.485,16.847c-0.065,0-0.132-0.013-0.194-0.039c-1.059-0.446-2.617-0.409-2.633-0.408
		c-1.577,0.076-2.722-0.253-3.41-0.982c-0.724-0.765-0.636-1.679-0.632-1.718l0,0c-0.004,0-0.01-1.198,0.871-1.98
		c0.605-0.538,1.452-0.738,2.514-0.595c3.419,0.46,3.96,4.976,3.981,5.167c0.02,0.176-0.056,0.35-0.198,0.456
		C23.696,16.813,23.592,16.847,23.485,16.847z M20.773,15.398c0.345,0,1.206,0.022,2.063,0.221
		c-0.289-1.166-1.067-3.249-2.968-3.504c-0.768-0.102-1.339,0.016-1.717,0.351c-0.536,0.477-0.538,1.27-0.538,1.278
		c-0.004,0.076-0.038,0.575,0.374,1c0.476,0.49,1.386,0.718,2.632,0.656C20.632,15.399,20.686,15.398,20.773,15.398z"/>
</g>
<g>
	<path d="M25.301,13.771c-0.148,0-0.289-0.066-0.385-0.181c-0.102-0.123-2.491-3.025-2.469-5.196c0.022-2.083,1.455-2.864,2.788-2.9
		c0.302-0.003,1.325,0.024,2.073,0.783c0.501,0.508,0.736,1.201,0.701,2.06c-0.083,1.937-2.205,5.081-2.295,5.214
		c-0.089,0.13-0.233,0.211-0.39,0.219C25.316,13.771,25.308,13.771,25.301,13.771z M25.309,6.494c-0.017,0-0.031,0-0.047,0.001
		c-0.671,0.018-1.798,0.29-1.815,1.91c-0.013,1.227,1.077,2.988,1.816,4c0.678-1.099,1.698-2.98,1.746-4.109
		c0.024-0.571-0.115-1.013-0.413-1.316C26.241,6.62,25.692,6.494,25.309,6.494z"/>
</g>
</svg>
