<?xml version="1.0" encoding="utf-8"?>
<!-- Generator: Adobe Illustrator 18.0.0, SVG Export Plug-In . SVG Version: 6.00 Build 0)  -->
<!DOCTYPE svg PUBLIC "-//W3C//DTD SVG 1.1//EN" "http://www.w3.org/Graphics/SVG/1.1/DTD/svg11.dtd">
<svg version="1.1" id="Layer_1" xmlns="http://www.w3.org/2000/svg" xmlns:xlink="http://www.w3.org/1999/xlink" x="0px" y="0px"
	 viewBox="0 0 50.5 50.5" style="enable-background:new 0 0 50.5 50.5;" xml:space="preserve">
<style type="text/css">
	.st0{fill:#65B4E1;}
</style>
<path class="st0" d="M34.7,6.5H14c-2.3,0-4.1,1.8-4.1,4.1v29.7c0,2.3,1.8,4.1,4.1,4.1h23.4c2.3,0,4.1-1.8,4.1-4.1l-0.1-26.5v0
	L34.7,6.5z M38.6,13.4c-1.4,0-2.6,0-3.1,0l0-3.5L38.6,13.4z M39.9,40.2c0,1.3-1.1,2.4-2.4,2.4H14c-1.3,0-2.4-1.1-2.4-2.4V10.6
	c0-1.3,1.1-2.4,2.4-2.4h19.5l0,6.2c0,0.5,0.4,0.9,0.9,0.9l0,0c0.4,0,3,0,5.3,0V40.2z"/>
<path class="st0" d="M21.1,25.2L21.1,25.2L21.1,25.2c-1.7-2.1-2.7-5-1.6-6.6c0.1-0.1,0.2-0.3,0.3-0.4c0.2-0.2,0.5-0.4,0.8-0.6
	c-0.2,0.1-0.4,0.3-0.5,0.5c-0.1,0.1-0.1,0.2-0.2,0.3c-0.1,0.2-0.2,0.4-0.3,0.6c-0.1,0.4-0.1,0.7-0.1,1.2c0,1.8,1,4,2.1,4.9
	c0,0,0.1-0.1,0.1-0.1c0.4-0.4,1.5-1.9,1.6-3c0.1-0.9-0.3-1.6-0.6-2.2c-0.1-0.1-0.2-0.3-0.3-0.4c-0.3-0.3-0.6-0.6-0.7-0.8
	c-0.2-0.3-0.3-0.5-0.2-0.7c0-0.6,0.8-0.9,1.2-0.9c-0.1,0-0.2-0.1-0.4-0.1c-0.1,0-0.2,0-0.3-0.1c-1.4-0.2-4.2-0.1-4.9,2.4
	c-0.1,0.2-0.1,0.5-0.1,0.7C16.7,23.1,20.5,24.9,21.1,25.2z"/>
<path class="st0" d="M30.7,27.8c-3.3-0.6-5.7-1.3-6.2-2.8c0,0-1.2,1.2-0.3,2.5c1.2,1.6,3.6,1.4,3.8,2.3c0.3,1.3-3.5,2.7-6.7,0.8
	c-4.2-2.6-2.7-5.5-4.5-6h-0.7c0,0-0.3,7.2,5.8,10.2c4.3,2.1,10.4-1.1,14.8,1.1c0,0,0.4-1.1-0.2-3.2S34,28.3,30.7,27.8z"/>
</svg>
