<svg id="Layer_1" data-name="Layer 1" xmlns="http://www.w3.org/2000/svg" viewBox="0 0 50.46 50.46"><defs><style>.cls-1{fill:#00b5e4;}</style></defs><title>Iconos</title><path class="cls-1" d="M34.68,6.48H14a4.11,4.11,0,0,0-4.1,4.1V40.24a4.11,4.11,0,0,0,4.1,4.1H37.45a4.1,4.1,0,0,0,4.1-4.1L41.45,13.73v0Zm3.91,6.89c-1.39,0-2.64,0-3.15,0l0-3.45Zm1.29,26.87a2.44,2.44,0,0,1-2.43,2.43H14a2.44,2.44,0,0,1-2.43-2.43V10.58A2.44,2.44,0,0,1,14,8.15H33.51l0,6.17a1,1,0,0,0,.94.94h0c0.38,0,3,0,5.35,0v25Z"/><path class="cls-1" d="M21.14,25.22h0c-1.73-2.15-2.71-5-1.59-6.65a2.63,2.63,0,0,1,.3-0.37,3,3,0,0,1,.83-0.6,2.1,2.1,0,0,0-.54.49,2.27,2.27,0,0,0-.21.31,2.73,2.73,0,0,0-.26.63,4.1,4.1,0,0,0-.14,1.15,7.37,7.37,0,0,0,2.13,4.92L21.79,25a6.32,6.32,0,0,0,1.6-3,3.17,3.17,0,0,0-.65-2.16c-0.1-.14-0.2-0.26-0.3-0.38-0.3-.35-0.58-0.61-0.71-0.81a1.26,1.26,0,0,1-.24-0.74A1.17,1.17,0,0,1,22.68,17a1.41,1.41,0,0,0-.38-0.14L22,16.79c-1.36-.24-4.17-0.08-4.87,2.4a4.2,4.2,0,0,0-.13.69C16.65,23.1,20.47,24.91,21.14,25.22Z"/><path class="cls-1" d="M30.69,27.77c-3.29-.56-5.68-1.27-6.18-2.84a2,2,0,0,0-.25,2.53c1.17,1.62,3.63,1.43,3.8,2.28,0.26,1.32-3.54,2.69-6.69.76-4.21-2.59-2.74-5.53-4.51-6H16.15s-0.25,7.2,5.78,10.24c4.25,2.14,10.39-1.12,14.77,1.12a5.79,5.79,0,0,0-.22-3.24A6.86,6.86,0,0,0,30.69,27.77Z"/></svg>