<svg xmlns="http://www.w3.org/2000/svg" viewBox="0 0 50.46 50.46">
  <title>Iconos</title>
  <g>
    <path d="M40.31,34.76c-0.92-3.29-3.75-6.42-8.72-7.27S23,25.59,22.26,23.22A3,3,0,0,0,21.88,27c1.76,2.45,5.48,2.16,5.74,3.44,0.39,2-5.34,4.07-10.09,1.15-6.35-3.9-4.13-8.34-6.81-9.1H9.64S9.26,33.39,18.36,38c6.41,3.23,15.68-1.68,22.28,1.68C40.63,39.66,41.22,38.05,40.31,34.76Z" fill="#00b5e4"/>
    <path d="M10.94,14.55c1.3-4.61,7.43-3.91,8.35-3.32-0.78,0-2.53.7-1.42,2.46,0.5,0.79,2.72,2.28,2.5,5-0.16,2-2.29,4.49-2.61,4.73-2.68-2.25-4.87-9.25-1.48-11.31-4,2-2.51,7.52.7,11.5C15.89,23.14,9.38,20.05,10.94,14.55Z" fill="#00b5e4"/>
  </g>
</svg>
