<?xml version="1.0" encoding="utf-8"?>
<!-- Generator: Adobe Illustrator 18.0.0, SVG Export Plug-In . SVG Version: 6.00 Build 0)  -->
<!DOCTYPE svg PUBLIC "-//W3C//DTD SVG 1.1//EN" "http://www.w3.org/Graphics/SVG/1.1/DTD/svg11.dtd">
<svg version="1.1" id="Layer_1" xmlns="http://www.w3.org/2000/svg" xmlns:xlink="http://www.w3.org/1999/xlink" x="0px" y="0px"
	 viewBox="0 0 50.5 50.5" style="enable-background:new 0 0 50.5 50.5;" xml:space="preserve">
<style type="text/css">
	.st0{fill:#65B4E1;}
</style>
<path class="st0" d="M13.7,43.9h17.6l-0.8-0.2c-0.7-0.2-1.8-0.9-2.1-1.4l0-0.1H13.7c-1.3,0-2.4-1.1-2.4-2.4V14.2L9.6,13v26.8
	C9.6,42,11.4,43.9,13.7,43.9z"/>
<path class="st0" d="M41.2,37.3V10.1c0-2.3-1.8-4.1-4.1-4.1H19.2l0.7,0.2c1.1,0.4,1.9,0.9,2.2,1.4l0,0.1h14.9c1.3,0,2.4,1.1,2.4,2.4
	v26L41.2,37.3z"/>
<path class="st0" d="M43.2,41l0.1-0.1l-7.1-5.1L36,35.6v2.5c0,0.2-0.1,0.3-0.2,0.4c-0.1,0.1-0.3,0.2-0.4,0.2c-3.1,0-6.3,0-9.3-3.7
	l-0.3-0.4l0.1,0.4c0.7,5.1,3.8,7.7,9.5,8c0.3,0,0.6,0.3,0.6,0.6v2.5L43.2,41z"/>
<path class="st0" d="M14.8,14.7v-2.5c0-0.2,0.1-0.3,0.2-0.4c0.1-0.1,0.3-0.2,0.4-0.2c3.1,0,6.3,0,9.3,3.7l0.3,0.4l-0.1-0.4
	c-0.7-5.1-3.8-7.7-9.5-8h0c-0.3,0-0.6-0.3-0.6-0.6V4.2L7.5,9.5L14.8,14.7z"/>
<path class="st0" d="M22.3,22.6c0.3,0.2,0.7,0.3,1,0.3c0.1,0,0.3,0,0.4-0.1c0.9-0.3,1.4-1.4,1.1-2.6c-0.2-0.6-0.5-1-0.9-1.3
	c-0.4-0.3-0.9-0.4-1.4-0.3c-0.9,0.3-1.4,1.4-1.1,2.6C21.6,21.8,21.9,22.3,22.3,22.6z"/>
<path class="st0" d="M18.5,23.3c-0.3,0.3-0.5,0.8-0.4,1.4c0.1,0.5,0.3,1,0.7,1.5c0.4,0.4,0.9,0.7,1.5,0.8c0.1,0,0.2,0,0.2,0
	c0.4,0,0.8-0.2,1.1-0.4c0.3-0.3,0.5-0.8,0.4-1.4c-0.1-0.5-0.3-1-0.7-1.5C20.5,22.7,19.2,22.6,18.5,23.3z"/>
<path class="st0" d="M22.8,30.6c0.2,0,0.3,0,0.5-0.1c0.7-0.2,2.1-0.2,2.1-0.2c0,0,1.4,0,2.1,0.2c0.4,0.1,1.3,0.1,1.8-0.4
	c0.2-0.2,0.5-0.6,0.3-1.3c-0.2-0.7-0.6-1.1-1-1.5c-0.5-0.4-1-0.9-1.2-1.9c-0.4-2.1-2.1-2-2.1-2c0,0-1.8-0.1-2.2,2
	c-0.2,1-0.7,1.5-1.2,1.9c-0.4,0.4-0.8,0.8-1,1.5c-0.2,0.7,0.1,1.1,0.3,1.3C21.8,30.5,22.4,30.6,22.8,30.6z"/>
<path class="st0" d="M27.3,22.9c0.1,0,0.3,0.1,0.4,0.1c0.3,0,0.7-0.1,1-0.3c0.4-0.3,0.8-0.8,0.9-1.3c0.3-1.2-0.2-2.3-1.1-2.6
	c-0.5-0.1-1,0-1.4,0.3c-0.4,0.3-0.8,0.8-0.9,1.3c-0.2,0.6-0.1,1.1,0.1,1.6C26.5,22.4,26.8,22.7,27.3,22.9z"/>
<path class="st0" d="M30.5,26.9c0.5-0.1,1-0.3,1.5-0.8s0.7-0.9,0.7-1.5c0.1-0.5-0.1-1-0.4-1.4c-0.3-0.3-0.8-0.5-1.4-0.4
	c-0.5,0.1-1,0.3-1.4,0.7c-0.4,0.4-0.7,0.9-0.7,1.5c-0.1,0.5,0.1,1,0.4,1.4c0.3,0.3,0.7,0.4,1.1,0.4C30.4,26.9,30.5,26.9,30.5,26.9z"
	/>
</svg>
