<svg id="Layer_1" data-name="Layer 1" xmlns="http://www.w3.org/2000/svg" viewBox="0 0 50.46 50.46"><defs><style>.cls-1{fill:#00b5e4;}</style></defs><title>Iconos</title><path class="cls-1" d="M13.68,43.86H31.24l-0.79-.24a4.76,4.76,0,0,1-2.08-1.36l0-.06H13.68a2.44,2.44,0,0,1-2.44-2.44V14.2L9.58,13V39.76A4.11,4.11,0,0,0,13.68,43.86Z"/><path class="cls-1" d="M41.21,37.33V10.1A4.1,4.1,0,0,0,37.11,6H19.24l0.67,0.24a4.72,4.72,0,0,1,2.21,1.37l0,0.05H37.11a2.44,2.44,0,0,1,2.43,2.44v26Z"/><path class="cls-1" d="M43.17,41l0.14-.1-7.15-5.13L36,35.6v2.47a0.61,0.61,0,0,1-.17.42,0.59,0.59,0,0,1-.42.17c-3.11,0-6.33,0-9.27-3.65l-0.28-.35,0.06,0.45c0.71,5.07,3.82,7.67,9.53,8a0.59,0.59,0,0,1,.56.59v2.47Z"/><path class="cls-1" d="M14.82,14.73V12.26A0.6,0.6,0,0,1,15,11.83a0.59,0.59,0,0,1,.42-0.17c3.11,0,6.33,0,9.27,3.65L25,15.66l-0.06-.45c-0.71-5.07-3.82-7.67-9.53-8h0a0.59,0.59,0,0,1-.56-0.59V4.2L7.47,9.45Z"/><path class="cls-1" d="M22.31,22.59a1.7,1.7,0,0,0,1,.34,1.46,1.46,0,0,0,.41-0.06,2,2,0,0,0,1.09-2.61,2.5,2.5,0,0,0-.92-1.35,1.61,1.61,0,0,0-1.4-.28,2,2,0,0,0-1.09,2.61A2.5,2.5,0,0,0,22.31,22.59Z"/><path class="cls-1" d="M18.52,23.28a1.61,1.61,0,0,0-.44,1.35,2.61,2.61,0,0,0,2.17,2.21l0.25,0a1.56,1.56,0,0,0,1.11-.43,1.61,1.61,0,0,0,.44-1.35,2.49,2.49,0,0,0-.72-1.46A2,2,0,0,0,18.52,23.28Z"/><path class="cls-1" d="M22.8,30.64a1.81,1.81,0,0,0,.46-0.05,12.43,12.43,0,0,1,2.13-.22,12.45,12.45,0,0,1,2.13.22,2.08,2.08,0,0,0,1.81-.42,1.34,1.34,0,0,0,.35-1.34,2.69,2.69,0,0,0-1-1.48,3.21,3.21,0,0,1-1.16-1.94,2.17,2.17,0,0,0-4.32,0,3.22,3.22,0,0,1-1.16,1.94,2.69,2.69,0,0,0-1,1.48,1.34,1.34,0,0,0,.35,1.34A2,2,0,0,0,22.8,30.64Z"/><path class="cls-1" d="M27.31,22.87a1.47,1.47,0,0,0,.41.06,1.71,1.71,0,0,0,1-.34,2.5,2.5,0,0,0,.92-1.35,2,2,0,0,0-1.09-2.61,1.6,1.6,0,0,0-1.4.28,2.61,2.61,0,0,0-.86,3A1.61,1.61,0,0,0,27.31,22.87Z"/><path class="cls-1" d="M30.54,26.85a2.61,2.61,0,0,0,2.17-2.21,1.54,1.54,0,0,0-1.8-1.77,2.61,2.61,0,0,0-2.17,2.21,1.61,1.61,0,0,0,.44,1.35,1.56,1.56,0,0,0,1.11.43Z"/></svg>