<?xml version="1.0" encoding="utf-8"?>
<!-- Generator: Adobe Illustrator 18.0.0, SVG Export Plug-In . SVG Version: 6.00 Build 0)  -->
<!DOCTYPE svg PUBLIC "-//W3C//DTD SVG 1.1//EN" "http://www.w3.org/Graphics/SVG/1.1/DTD/svg11.dtd">
<svg version="1.1" id="Layer_1" xmlns="http://www.w3.org/2000/svg" xmlns:xlink="http://www.w3.org/1999/xlink" x="0px" y="0px"
	 viewBox="0 0 50.5 50.5" style="enable-background:new 0 0 50.5 50.5;" xml:space="preserve">
<style type="text/css">
	.st0{fill:#65B4E1;}
</style>
<g>
	<g>
		<path class="st0" d="M36.8,24.1c-0.5,0-0.9-0.3-1.2-0.7c-1.8-2.3-1.2-9.3-0.8-11.8c0,0,0-0.1,0-0.1c0,0,0,0,0,0c0,0,0-0.1,0-0.1
			c0,0,0,0,0,0c0,0,0-0.1,0-0.1c0,0,0,0,0,0c0,0,0,0,0,0c0,0,0,0,0-0.1c0,0,0,0,0,0c0,0,0,0,0-0.1c0,0,0,0,0,0c0,0,0,0-0.1-0.1
			c0,0,0,0,0,0c0,0-0.1,0-0.1-0.1h0l0,0l0,0l-4.2-1.7c-0.1,0-0.2,0-0.3,0c-0.1,0-0.2,0-0.3,0.1c-0.2,0.1-0.3,0.2-0.3,0.4l0,0.1
			c-0.2,0.7-1.5,3.9-4,3.9c0,0,0,0,0,0c-2.8,0-4-4-4-4.1c0,0,0,0,0-0.1c0,0,0,0,0-0.1c0,0,0,0,0-0.1c0,0,0,0,0,0c0,0,0,0-0.1-0.1
			c0,0,0,0,0,0c0,0,0,0-0.1,0c0,0,0,0,0,0c0,0,0,0,0,0c0,0,0,0,0,0c0,0,0,0-0.1,0c0,0,0,0-0.1,0c0,0-0.1,0-0.1,0c0,0,0,0-0.1,0
			c0,0-0.1,0-0.1,0c0,0,0,0,0,0c0,0-0.1,0-0.1,0l-4.2,1.9c0,0-0.1,0-0.1,0.1c0,0,0,0,0,0c0,0,0,0-0.1,0c0,0,0,0,0,0c0,0,0,0,0,0.1
			c0,0,0,0,0,0c0,0,0,0,0,0.1c0,0,0,0,0,0c0,0,0,0.1,0,0.1c0,0,0,0,0,0c0,0,0,0.1,0,0.1c0,0,0,0,0,0c0,0,0,0.1,0,0.1
			c0.4,2.5,1,9.4-0.8,11.7c-0.3,0.4-0.8,0.7-1.3,0.7c-0.3,0-0.6,0.3-0.6,0.7l0.2,11.4c0,0.9,3.5,2.8,3.6,2.9c1.9,1,4.9,2.2,8.4,2.2
			c3.5,0,6.5-1.2,8.4-2.2c0,0,3.5-2,3.6-2.9l0.2-11.4C37.4,24.5,37.2,24.2,36.8,24.1z M30.3,10.7l3,1.2l-2,4.9L29,16L30.3,10.7z
			 M19.9,10.8l0.2-0.1l1.4,5.5l-2.3,0.7l-2-4.9L19.9,10.8z M36,36c-0.8,0.8-5.1,4-10.7,4c0,0,0,0,0,0c-5.6,0-9.9-3.3-10.7-4
			l-0.2-10.6c0.6-0.2,1.1-0.5,1.6-1.1c1.4-1.8,1.6-5.3,1.5-8.2l0.8,1.9c0.1,0.3,0.3,0.4,0.6,0.4c0.1,0,0.1,0,0.2,0l3.5-1
			c0.3-0.1,0.5-0.4,0.4-0.8l-0.7-2.7c0.8,0.7,1.7,1.2,3,1.2l0,0c0,0,0,0,0,0c1.2,0,2.2-0.5,3-1.2l-0.6,2.6c-0.1,0.3,0.1,0.7,0.4,0.8
			l3.5,1c0.1,0,0.1,0,0.2,0c0.3,0,0.5-0.2,0.6-0.4l0.8-1.9c-0.1,2.9,0.1,6.6,1.5,8.4c0.4,0.5,1,0.9,1.6,1.1L36,36z"/>
		<path class="st0" d="M31.4,24.8H19.1c-0.4,0-0.6,0.3-0.6,0.6v3.7c0,0.4,0.3,0.6,0.6,0.6h12.3c0.4,0,0.6-0.3,0.6-0.6v-3.7
			C32.1,25.1,31.8,24.8,31.4,24.8z M30.8,28.5H19.7v-2.4h11.1V28.5z"/>
		<path class="st0" d="M31.4,31.9H19.1c-0.4,0-0.6,0.3-0.6,0.6v3.7c0,0.4,0.3,0.6,0.6,0.6h12.3c0.4,0,0.6-0.3,0.6-0.6v-3.7
			C32.1,32.2,31.8,31.9,31.4,31.9z M30.8,35.6H19.7v-2.4h11.1V35.6z"/>
	</g>
</g>
</svg>
