<?xml version="1.0" encoding="utf-8"?>
<!-- Generator: Adobe Illustrator 18.0.0, SVG Export Plug-In . SVG Version: 6.00 Build 0)  -->
<!DOCTYPE svg PUBLIC "-//W3C//DTD SVG 1.1//EN" "http://www.w3.org/Graphics/SVG/1.1/DTD/svg11.dtd">
<svg version="1.1" id="Layer_1" xmlns="http://www.w3.org/2000/svg" xmlns:xlink="http://www.w3.org/1999/xlink" x="0px" y="0px"
	 viewBox="0 0 50.5 50.5" style="enable-background:new 0 0 50.5 50.5;" xml:space="preserve">
<style type="text/css">
	.st0{fill:#65B4E1;}
</style>
<g>
	<g>
		<g>
			<path class="st0" d="M17,17.5h7.6c0.4,0,0.8-0.4,0.8-0.8s-0.4-0.8-0.8-0.8H17c-0.4,0-0.8,0.4-0.8,0.8S16.5,17.5,17,17.5z"/>
			<path class="st0" d="M17,22.1h16.1c0.4,0,0.8-0.4,0.8-0.8s-0.4-0.8-0.8-0.8H17c-0.4,0-0.8,0.4-0.8,0.8S16.5,22.1,17,22.1z"/>
			<path class="st0" d="M17,26.6h16.1c0.4,0,0.8-0.4,0.8-0.8S33.6,25,33.1,25H17c-0.4,0-0.8,0.4-0.8,0.8S16.5,26.6,17,26.6z"/>
		</g>
		<path class="st0" d="M40.6,13.6l-6.7-7.1H13.3c-2.2,0-4,1.8-4,4v29.7c0,2.2,1.8,4,4,4h23.4c2.2,0,4-1.8,4-4L40.6,13.6z M38.2,13.3
			c-1.4,0-2.7,0-3.6,0l0-3.9L38.2,13.3z M36.8,42.6H13.3c-1.4,0-2.6-1.1-2.6-2.6V10.4c0-1.4,1.1-2.6,2.6-2.6h19.6l0,6.3
			c0,0.4,0.4,0.8,0.8,0.8c0,0,1.3,0,2.9,0c0.8,0,1.7,0,2.6,0v25.1C39.3,41.5,38.2,42.6,36.8,42.6z"/>
		<g>
			<path class="st0" d="M19.2,39.4c-2.3,0-4.2-1.9-4.2-4.2s1.9-4.2,4.2-4.2s4.2,1.9,4.2,4.2S21.5,39.4,19.2,39.4z M19.2,32.4
				c-1.6,0-2.9,1.3-2.9,2.9s1.3,2.9,2.9,2.9s2.9-1.3,2.9-2.9S20.8,32.4,19.2,32.4z"/>
			<g>
				<path class="st0" d="M29.5,38.4c-0.6,0-1.4-0.3-2.3-1.1c-0.3-0.3-0.6-0.4-0.9-0.4c-0.6,0.1-1.1,0.7-1.1,0.7
					c-0.2,0.3-0.6,0.3-0.9,0.1c-0.3-0.2-0.3-0.6-0.1-0.9c0.1-0.1,0.9-1,2-1.1c0.6-0.1,1.3,0.2,1.9,0.7c1.4,1.2,1.9,0.8,2.6,0.1
					l0.2-0.1c0.6-0.5,1.3-0.8,2.1-0.6c0.9,0.2,1.7,0.8,2.1,1.6c0.1,0.3,0,0.7-0.3,0.8c-0.3,0.1-0.7,0-0.8-0.3
					c-0.2-0.5-0.7-0.8-1.2-0.9c-0.3-0.1-0.7,0-1.1,0.3l-0.1,0.1C31,37.8,30.4,38.4,29.5,38.4z"/>
				<path class="st0" d="M29.5,34.8c-0.6,0-1.4-0.3-2.3-1.1c-0.3-0.3-0.6-0.4-0.9-0.4c-0.6,0.1-1.1,0.7-1.1,0.7
					c-0.2,0.3-0.6,0.3-0.9,0.1c-0.3-0.2-0.3-0.6-0.1-0.9c0.1-0.1,0.9-1,2-1.1c0.6-0.1,1.3,0.2,1.9,0.7c1.4,1.2,1.9,0.8,2.6,0.1
					l0.2-0.1c0.6-0.5,1.3-0.8,2.1-0.6c0.9,0.2,1.7,0.8,2.1,1.6c0.1,0.3,0,0.7-0.3,0.8c-0.3,0.1-0.7,0-0.8-0.3
					c-0.2-0.5-0.7-0.8-1.2-0.9c-0.3-0.1-0.7,0-1.1,0.3l-0.1,0.1C31,34.2,30.4,34.8,29.5,34.8z"/>
			</g>
		</g>
	</g>
</g>
</svg>
