<svg id="Layer_1" data-name="Layer 1" xmlns="http://www.w3.org/2000/svg" viewBox="0 0 50.46 50.46"><defs><style>.cls-1{fill:#00b5e4;}</style></defs><title>Iconos</title><path class="cls-1" d="M17,17.48h7.59a0.81,0.81,0,1,0,0-1.62H17A0.81,0.81,0,0,0,17,17.48Z"/><path class="cls-1" d="M17,22.06H33.1a0.81,0.81,0,1,0,0-1.62H17A0.81,0.81,0,0,0,17,22.06Z"/><path class="cls-1" d="M17,26.65H33.1a0.81,0.81,0,1,0,0-1.62H17A0.81,0.81,0,0,0,17,26.65Z"/><path class="cls-1" d="M40.64,13.55l-6.7-7.13H13.34a4,4,0,0,0-4,4V40.06a4,4,0,0,0,4,4H36.76a4,4,0,0,0,4-4Zm-2.46-.24H34.63l0-3.9ZM36.76,42.62H13.34a2.56,2.56,0,0,1-2.56-2.56V10.4a2.56,2.56,0,0,1,2.56-2.56H32.95l0,6.29a0.83,0.83,0,0,0,.81.82l2.92,0,2.59,0V40.06A2.56,2.56,0,0,1,36.76,42.62Z"/><path class="cls-1" d="M19.18,39.45a4.19,4.19,0,1,1,4.19-4.19A4.19,4.19,0,0,1,19.18,39.45Zm0-7A2.85,2.85,0,1,0,22,35.26,2.85,2.85,0,0,0,19.18,32.41Z"/><path class="cls-1" d="M29.51,38.37a3.52,3.52,0,0,1-2.28-1.09,1.22,1.22,0,0,0-.93-0.37,2,2,0,0,0-1.14.67,0.62,0.62,0,0,1-1-.78,3.16,3.16,0,0,1,2-1.13,2.47,2.47,0,0,1,1.86.68c1.38,1.23,1.86.78,2.57,0.09l0.15-.14a2.4,2.4,0,0,1,2.15-.61A3,3,0,0,1,35,37.33a0.62,0.62,0,1,1-1.12.53,1.76,1.76,0,0,0-1.22-.94,1.19,1.19,0,0,0-1.06.3l-0.14.13A2.91,2.91,0,0,1,29.51,38.37Z"/><path class="cls-1" d="M29.51,34.81a3.52,3.52,0,0,1-2.28-1.09,1.23,1.23,0,0,0-.93-0.37,2,2,0,0,0-1.14.67,0.62,0.62,0,0,1-1-.78,3.16,3.16,0,0,1,2-1.13,2.47,2.47,0,0,1,1.86.68c1.38,1.23,1.86.78,2.57,0.09l0.15-.14a2.41,2.41,0,0,1,2.15-.61A3,3,0,0,1,35,33.76a0.62,0.62,0,0,1-1.12.53,1.76,1.76,0,0,0-1.22-.94,1.19,1.19,0,0,0-1.06.3l-0.14.13A2.92,2.92,0,0,1,29.51,34.81Z"/></svg>