<svg xmlns="http://www.w3.org/2000/svg" viewBox="0 0 50.46 50.46">
  <title>Iconos</title>
  <g>
    <path d="M17.17,17.48h7.59a0.81,0.81,0,1,0,0-1.62H17.17A0.81,0.81,0,0,0,17.17,17.48Z" fill="#00b5e4"/>
    <path d="M17.17,22.06H33.29a0.81,0.81,0,1,0,0-1.62H17.17A0.81,0.81,0,0,0,17.17,22.06Z" fill="#00b5e4"/>
    <path d="M17.17,26.65H33.29a0.81,0.81,0,1,0,0-1.62H17.17A0.81,0.81,0,0,0,17.17,26.65Z" fill="#00b5e4"/>
    <path d="M40.83,13.55l-6.7-7.13H13.52a4,4,0,0,0-4,4V40.06a4,4,0,0,0,4,4H36.94a4,4,0,0,0,4-4Zm-2.46-.24H34.81l0-3.9ZM39.5,40.06a2.56,2.56,0,0,1-2.56,2.56H13.52A2.56,2.56,0,0,1,11,40.06V10.4a2.56,2.56,0,0,1,2.56-2.56H33.13l0,6.29A0.83,0.83,0,0,0,34,15l2.92,0,2.59,0V40.06Z" fill="#00b5e4"/>
    <path d="M19.36,31.08a4.19,4.19,0,1,0,4.19,4.19A4.19,4.19,0,0,0,19.36,31.08Zm0,7a2.85,2.85,0,1,1,2.85-2.85A2.85,2.85,0,0,1,19.36,38.11Z" fill="#00b5e4"/>
    <path d="M33.11,35.7a2.4,2.4,0,0,0-2.15.61l-0.15.14c-0.72.68-1.19,1.14-2.57-.09a2.47,2.47,0,0,0-1.86-.68,3.16,3.16,0,0,0-2,1.13,0.62,0.62,0,0,0,1,.78,2,2,0,0,1,1.14-.67,1.22,1.22,0,0,1,.93.37,3.52,3.52,0,0,0,2.28,1.09,2.91,2.91,0,0,0,2-1l0.14-.13a1.19,1.19,0,0,1,1.06-.3,1.76,1.76,0,0,1,1.22.94,0.62,0.62,0,1,0,1.12-.53A3,3,0,0,0,33.11,35.7Z" fill="#00b5e4"/>
    <path d="M33.11,32.13a2.41,2.41,0,0,0-2.15.61l-0.15.14c-0.72.68-1.19,1.13-2.57-.09a2.47,2.47,0,0,0-1.86-.68,3.16,3.16,0,0,0-2,1.13,0.62,0.62,0,0,0,1,.78,2,2,0,0,1,1.14-.67,1.23,1.23,0,0,1,.93.37,3.52,3.52,0,0,0,2.28,1.09,2.92,2.92,0,0,0,2-1l0.14-.13a1.19,1.19,0,0,1,1.06-.3,1.76,1.76,0,0,1,1.22.94,0.62,0.62,0,0,0,1.12-.53A3,3,0,0,0,33.11,32.13Z" fill="#00b5e4"/>
  </g>
</svg>
