<svg xmlns="http://www.w3.org/2000/svg" viewBox="0 0 50.46 50.46">
  <title>Iconos</title>
  <g>
    <g>
      <circle cx="40.51" cy="15.46" r="2.96" transform="translate(13.38 49.28) rotate(-72.16)" fill="#00b5e4"/>
      <path d="M46.91,39.79l-3.39-4.67-1-5.63-0.27-5.92,1.65,1.67,0.34,2.66a1.24,1.24,0,0,0,2.42-.52l-0.42-3a1.24,1.24,0,0,0-.34-0.62l-2.3-2.36-1.82-1.9h0a1.23,1.23,0,0,0-.62-0.36,1.33,1.33,0,0,0-1.22.41l-3.38,4-2.86,1A1.24,1.24,0,0,0,34.45,27l3.22-1.12a1.24,1.24,0,0,0,.59-0.39l1.55-1.87L40,29.4l-3.25,4.46a2.68,2.68,0,0,0-.56,1.29l-0.48,5.95a1.24,1.24,0,0,0,1,1.2l0.26,0a1.24,1.24,0,0,0,1.23-1.24l0.48-5.4L40.58,33a18.19,18.19,0,0,0,.76,3.44l3.76,5.07A1.24,1.24,0,0,0,46.91,39.79Z" fill="#00b5e4"/>
    </g>
    <g>
      <circle cx="9.95" cy="15.46" r="2.96" transform="translate(-4.26 3.79) rotate(-17.84)" fill="#00b5e4"/>
      <path d="M16.73,24.59l-2.86-1-3.38-4a1.33,1.33,0,0,0-1.22-.41,1.23,1.23,0,0,0-.62.36h0l-1.82,1.9-2.3,2.36a1.24,1.24,0,0,0-.34.62l-0.42,3a1.24,1.24,0,0,0,2.42.52l0.34-2.66,1.65-1.67L7.91,29.49l-1,5.63L3.55,39.79a1.24,1.24,0,1,0,1.82,1.68L9.12,36.4A18.21,18.21,0,0,0,9.88,33l1.94,2.71,0.48,5.4a1.24,1.24,0,0,0,1.23,1.24l0.26,0a1.24,1.24,0,0,0,1-1.2L14.3,35.14a2.68,2.68,0,0,0-.56-1.29L10.49,29.4l0.15-5.81,1.55,1.87a1.24,1.24,0,0,0,.59.39L16,27A1.24,1.24,0,0,0,16.73,24.59Z" fill="#00b5e4"/>
    </g>
    <g>
      <path d="M35.46,20.47a1.24,1.24,0,0,0-1.55-.81l-2.48,1-4.19-1.26a7.27,7.27,0,0,0-2-.26,7.19,7.19,0,0,0-2,.26L19,20.68l-2.48-1A1.24,1.24,0,0,0,15.81,22l2.83,1.13a1.24,1.24,0,0,0,.71,0l3-.77V41.07a1.24,1.24,0,0,0,1,1.2l0.26,0a1.24,1.24,0,0,0,1.23-1.24l0.05-9.27a0.39,0.39,0,1,1,.79,0l0.05,9.27a1.24,1.24,0,0,0,1.23,1.24l0.26,0a1.24,1.24,0,0,0,1-1.2V22.39l3,0.77a1.24,1.24,0,0,0,.71,0L34.65,22A1.24,1.24,0,0,0,35.46,20.47Z" fill="#00b5e4"/>
      <circle cx="25.2" cy="15.43" r="2.96" transform="translate(2.79 34.7) rotate(-72.16)" fill="#00b5e4"/>
    </g>
  </g>
</svg>
