<?xml version="1.0" encoding="utf-8"?>
<!-- Generator: Adobe Illustrator 18.0.0, SVG Export Plug-In . SVG Version: 6.00 Build 0)  -->
<!DOCTYPE svg PUBLIC "-//W3C//DTD SVG 1.1//EN" "http://www.w3.org/Graphics/SVG/1.1/DTD/svg11.dtd">
<svg version="1.1" id="Layer_1" xmlns="http://www.w3.org/2000/svg" xmlns:xlink="http://www.w3.org/1999/xlink" x="0px" y="0px"
	 viewBox="0 0 50.5 50.5" style="enable-background:new 0 0 50.5 50.5;" xml:space="preserve">
<style type="text/css">
	.st0{fill:#65B4E1;}
</style>
<g>
	<g>
		<g>
			<circle class="st0" cx="40.5" cy="15.5" r="3"/>
			<path class="st0" d="M46.9,39.8l-3.4-4.7l-1-5.6l-0.3-5.9l1.7,1.7l0.3,2.7c0.1,0.7,0.8,1.1,1.5,0.9c0.7-0.1,1.1-0.8,0.9-1.5
				l-0.4-3c-0.1-0.2-0.2-0.5-0.3-0.6l-2.3-2.4l-1.8-1.9l0,0c-0.2-0.2-0.4-0.3-0.6-0.4c-0.4-0.1-0.9,0.1-1.2,0.4l-3.4,4l-2.9,1
				c-0.7,0.2-1,0.9-0.8,1.5c0.2,0.7,0.9,1,1.5,0.8l3.2-1.1c0.2-0.1,0.4-0.2,0.6-0.4l1.6-1.9l0.2,5.8l-3.2,4.5
				c-0.4,0.6-0.6,0.9-0.6,1.3l-0.5,5.9c0,0.6,0.4,1.1,1,1.2c0.1,0,0.2,0,0.3,0c0.7,0,1.2-0.6,1.2-1.2l0.5-5.4l1.9-2.7
				c0.1,1,0.6,3.2,0.8,3.4l3.8,5.1c0.4,0.4,1,0.5,1.5,0.2c0.1,0,0.1-0.1,0.2-0.2C47.3,41.1,47.4,40.3,46.9,39.8z"/>
		</g>
		<g>
			<circle class="st0" cx="10" cy="15.5" r="3"/>
			<path class="st0" d="M16.7,24.6l-2.9-1l-3.4-4c-0.3-0.4-0.8-0.5-1.2-0.4c-0.2,0.1-0.5,0.2-0.6,0.4l0,0l-1.8,1.9l-2.3,2.4
				c-0.2,0.2-0.3,0.4-0.3,0.6l-0.4,3c-0.1,0.7,0.3,1.3,0.9,1.5C5.4,29,6,28.6,6.2,27.9l0.3-2.7l1.7-1.7l-0.3,5.9l-1,5.6l-3.4,4.7
				c-0.5,0.5-0.4,1.3,0.1,1.7c0.1,0.1,0.1,0.1,0.2,0.2C4.3,42,5,41.9,5.4,41.5l3.8-5.1C9.3,36.2,9.7,34,9.9,33l1.9,2.7l0.5,5.4
				c0,0.7,0.5,1.2,1.2,1.2c0.1,0,0.2,0,0.3,0c0.6-0.1,1-0.6,1-1.2l-0.5-5.9c0-0.3-0.2-0.7-0.6-1.3l-3.2-4.5l0.2-5.8l1.6,1.9
				c0.2,0.2,0.4,0.3,0.6,0.4L16,27c0.7,0.2,1.3-0.2,1.5-0.8C17.8,25.5,17.4,24.8,16.7,24.6z"/>
		</g>
		<g>
			<path class="st0" d="M35.5,20.5c-0.2-0.7-0.9-1-1.6-0.8l-2.5,1l-4.2-1.3c-0.2-0.1-1.1-0.3-2-0.3c-0.9,0-1.8,0.2-2,0.3L19,20.7
				l-2.5-1c-0.7-0.2-1.3,0.2-1.6,0.8c-0.2,0.7,0.2,1.3,0.8,1.6l2.8,1.1c0.2,0.1,0.5,0.1,0.7,0l3-0.8l0,18.7c0,0.6,0.4,1.1,1,1.2
				c0.1,0,0.2,0,0.3,0c0.7,0,1.2-0.6,1.2-1.2l0.1-9.3c0.1-0.5,0.7-0.5,0.8,0l0.1,9.3c0,0.7,0.5,1.2,1.2,1.2c0.1,0,0.2,0,0.3,0
				c0.6-0.1,1-0.6,1-1.2l0-18.7l3,0.8c0.2,0.1,0.5,0.1,0.7,0l2.8-1.1C35.3,21.8,35.7,21.1,35.5,20.5z"/>
			<circle class="st0" cx="25.2" cy="15.4" r="3"/>
		</g>
	</g>
</g>
</svg>
