<svg xmlns="http://www.w3.org/2000/svg" viewBox="0 0 50 50">
  <title>Iconos</title>
  <path d="M12.55,26a4.51,4.51,0,0,0,2.32-.65,3.23,3.23,0,0,0,4.89,1.1,6.14,6.14,0,0,0,3.38,2.81c0.36,2.56.86,10.56-6.61,11.36,0,0-1.61.28-1.27,0.65s4.29-.43,4.44.06-1.69,1.51-.83,1.95,3.1-1.95,3.94-1.78,0.59,1.56,1.7,1.89a0.58,0.58,0,0,0,.31.06h0a0.58,0.58,0,0,0,.31-0.06c1.11-.33.93-1.73,1.7-1.89s3.08,2.22,3.94,1.78-1-1.46-.83-1.95,4.09,0.31,4.44-.06h0c0.29-.34-1.06-0.61-1.25-0.64-7.62-.8-7-9.08-6.61-11.49a5.42,5.42,0,0,0,2.9-2.52A3.23,3.23,0,0,0,34.56,25a4.56,4.56,0,1,0,2.89-8.09l-0.36,0a4.55,4.55,0,0,0-6.85-5.51A5.22,5.22,0,0,0,25,6.57H25a5.22,5.22,0,0,0-5.2,4.81,4.56,4.56,0,0,0-6.85,5.51l-0.37,0A4.56,4.56,0,0,0,12.55,26Z" fill="#00b5e4"/>
</svg>
