<?xml version="1.0" encoding="utf-8"?>
<!-- Generator: Adobe Illustrator 18.0.0, SVG Export Plug-In . SVG Version: 6.00 Build 0)  -->
<!DOCTYPE svg PUBLIC "-//W3C//DTD SVG 1.1//EN" "http://www.w3.org/Graphics/SVG/1.1/DTD/svg11.dtd">
<svg version="1.1" id="Layer_1" xmlns="http://www.w3.org/2000/svg" xmlns:xlink="http://www.w3.org/1999/xlink" x="0px" y="0px"
	 viewBox="0 0 50.5 50.5" style="enable-background:new 0 0 50.5 50.5;" xml:space="preserve">
<style type="text/css">
	.st0{fill:#65B4E1;}
</style>
<path class="st0" d="M13.4,26.8c0.9,0,1.6-0.2,2.3-0.6c0.5,1.1,1.6,1.8,2.9,1.8c0.8,0,1.5-0.3,2-0.7c0.1,0.3,0.3,0.5,0.5,0.8
	c0.7,1,1.7,1.7,2.9,2c0.4,2.6,0.9,10.6-6.6,11.4c0,0-1.6,0.3-1.3,0.7c0.3,0.4,4.3-0.4,4.4,0.1c0.2,0.5-1.7,1.5-0.8,1.9
	c0.9,0.4,3.1-1.9,3.9-1.8c0.8,0.2,0.6,1.6,1.7,1.9c0.1,0,0.2,0.1,0.3,0.1l0,0l0,0l0,0l0,0c0.1,0,0.2,0,0.3-0.1
	c1.1-0.3,0.9-1.7,1.7-1.9c0.8-0.2,3.1,2.2,3.9,1.8c0.9-0.4-1-1.5-0.8-1.9c0.2-0.5,4.1,0.3,4.4-0.1c0,0,0,0,0,0c0,0,0,0,0,0
	c0.3-0.3-1.1-0.6-1.3-0.6c-7.6-0.8-7-9.1-6.6-11.5c1.2-0.5,2.3-1.4,2.9-2.5c0.6,0.4,1.2,0.7,2,0.7c1.5,0,2.7-1,3.1-2.3
	c0.8,0.6,1.8,1,2.9,1c2.5,0,4.6-2,4.6-4.6c0-2.5-2-4.6-4.6-4.6c-0.1,0-0.2,0-0.4,0c0.2-0.6,0.4-1.2,0.4-1.8c0-2.5-2-4.6-4.6-4.6
	c-1,0-1.9,0.3-2.7,0.9c-0.2-2.7-2.5-4.8-5.2-4.8c0,0,0,0,0,0c0,0,0,0,0,0c-2.7,0-5,2.1-5.2,4.8c-0.8-0.5-1.7-0.9-2.7-0.9
	c-2.5,0-4.6,2-4.6,4.6c0,0.6,0.1,1.3,0.4,1.8c-0.1,0-0.2,0-0.4,0c-2.5,0-4.6,2-4.6,4.6C8.8,24.7,10.9,26.8,13.4,26.8z"/>
</svg>
