<svg id="Layer_1" data-name="Layer 1" xmlns="http://www.w3.org/2000/svg" viewBox="0 0 50.46 50.46"><defs><style>.cls-1{fill:#00b5e4;}</style></defs><title>Iconos</title><path class="cls-1" d="M13.38,26.77a4.51,4.51,0,0,0,2.32-.65,3.23,3.23,0,0,0,4.89,1.1A6.14,6.14,0,0,0,24,30c0.36,2.56.86,10.56-6.61,11.36,0,0-1.61.28-1.27,0.65s4.29-.43,4.44.06S18.85,43.6,19.71,44s3.1-1.95,3.94-1.78,0.59,1.56,1.7,1.89a0.58,0.58,0,0,0,.31.06h0A0.58,0.58,0,0,0,26,44.15c1.11-.33.93-1.73,1.7-1.89s3.08,2.22,3.94,1.78-1-1.46-.83-1.95,4.09,0.31,4.44-.06h0c0.29-.34-1.06-0.61-1.25-0.64-7.62-.8-7-9.08-6.61-11.49a5.42,5.42,0,0,0,2.9-2.52,3.23,3.23,0,0,0,5.11-1.65,4.56,4.56,0,1,0,2.89-8.09l-0.36,0a4.55,4.55,0,0,0-6.85-5.51,5.22,5.22,0,0,0-5.2-4.81H25.8a5.22,5.22,0,0,0-5.2,4.81,4.56,4.56,0,0,0-6.85,5.51l-0.37,0A4.56,4.56,0,0,0,13.38,26.77Z"/></svg>