<?xml version="1.0" encoding="UTF-8"?>
<svg id="Layer_1" xmlns="http://www.w3.org/2000/svg" width="50.5" height="50.5" version="1.1" xmlns:xlink="http://www.w3.org/1999/xlink" viewBox="0 0 50.5 50.5">
  <!-- Generator: Adobe Illustrator 29.3.1, SVG Export Plug-In . SVG Version: 2.1.0 Build 151)  -->
  <path d="M41.569,13.561c-.035-.085-.09-.158-.15-.225-.009-.01-.012-.023-.022-.033l-7.45-7.45c-.149-.15-.354-.234-.565-.234H13.12c-2.344,0-4.25,1.906-4.25,4.25v30.761c0,2.344,1.906,4.25,4.25,4.25h24.261c2.344,0,4.25-1.906,4.25-4.25V13.87c0-.107-.022-.212-.062-.308ZM34.34,8.509l4.56,4.56h-4.56v-4.56ZM37.381,43.281H13.12c-1.461,0-2.65-1.189-2.65-2.65V9.87c0-1.461,1.189-2.65,2.65-2.65h19.621v6.65c0,.442.358.8.8.8h6.491v25.961c0,1.461-1.189,2.65-2.65,2.65Z"/>
  <polygon points="25.251 15.942 28.248 15.942 28.248 13.942 25.248 13.942 25.248 15.933 22.251 15.933 22.251 17.933 25.251 17.933 25.251 15.942"/>
  <polygon points="25.251 19.942 28.248 19.942 28.248 17.942 25.248 17.942 25.248 19.933 22.251 19.933 22.251 21.933 25.251 21.933 25.251 19.942"/>
  <polygon points="25.251 23.942 28.248 23.942 28.248 21.942 25.248 21.942 25.248 23.933 22.251 23.933 22.251 25.933 25.251 25.933 25.251 23.942"/>
  <path d="M28.637,29.888h-3.385v-1.946h2.997v-2h-3v1.992h-2.997v1.954h-.389c-.442,0-.8.358-.8.8v3.483c0,2.31,1.878,4.188,4.187,4.188s4.187-1.878,4.187-4.188v-3.483c0-.441-.358-.8-.8-.8ZM27.837,34.171c0,1.427-1.16,2.588-2.587,2.588s-2.587-1.161-2.587-2.588v-2.684h5.174v2.684Z"/>
</svg>