<?xml version="1.0" encoding="utf-8"?>
<!-- Generator: Adobe Illustrator 18.0.0, SVG Export Plug-In . SVG Version: 6.00 Build 0)  -->
<!DOCTYPE svg PUBLIC "-//W3C//DTD SVG 1.1//EN" "http://www.w3.org/Graphics/SVG/1.1/DTD/svg11.dtd">
<svg version="1.1" id="Layer_1" xmlns="http://www.w3.org/2000/svg" xmlns:xlink="http://www.w3.org/1999/xlink" x="0px" y="0px"
	 viewBox="0 0 50.5 50.5" style="enable-background:new 0 0 50.5 50.5;" xml:space="preserve">
<style type="text/css">
	.st0{fill:#65B4E1;}
</style>
<g>
	<g>
		<path class="st0" d="M41.8,10.4h-9.3c-0.6,0-1.1,0.5-1.1,1.1v3c0,0.6-0.3,1.1-0.7,1.1H19.2c-0.4,0-0.7-0.5-0.7-1.1v-3
			c0-0.6-0.5-1.1-1.1-1.1H8.1c-0.4,0-0.8,0.3-0.8,0.8v31.1c0,1.9,1.3,3.5,3,3.5h29.3c1.6,0,3-1.6,3-3.5V11.2
			C42.6,10.8,42.2,10.4,41.8,10.4z M41,42.3c0,1-0.6,1.9-1.4,1.9H10.3c-0.8,0-1.4-0.9-1.4-1.9V12H17v2.6c0,1.4,1,2.6,2.3,2.6h11.4
			c1.3,0,2.3-1.2,2.3-2.6V12H41V42.3z"/>
		<path class="st0" d="M35.8,8.8c0.3,0,0.5-0.2,0.5-0.5v-3c0-0.3-0.2-0.5-0.5-0.5H14.1c-0.3,0-0.5,0.2-0.5,0.5v3
			c0,0.3,0.2,0.5,0.5,0.5s0.5-0.2,0.5-0.5V5.8h20.6v2.4C35.2,8.5,35.5,8.8,35.8,8.8z"/>
	</g>
	<path class="st0" d="M23.2,34.7c0-1.1,0.1-2,0.4-2.7c0.3-0.7,0.8-1.3,1.5-2c0.7-0.6,1.2-1.2,1.4-1.6c0.2-0.4,0.4-0.8,0.4-1.3
		c0-1.3-0.6-2-1.9-2c-0.6,0-1.1,0.2-1.4,0.5s-0.5,0.9-0.6,1.5h-3.5c0-1.5,0.5-2.7,1.5-3.6c1-0.9,2.3-1.3,4-1.3c1.7,0,3,0.4,3.9,1.2
		c0.9,0.8,1.4,2,1.4,3.5c0,0.7-0.2,1.3-0.5,1.9c-0.3,0.6-0.8,1.3-1.6,2l-1,0.9c-0.6,0.6-1,1.3-1,2l0,0.7H23.2z M22.8,38.4
		c0-0.5,0.2-1,0.5-1.3c0.4-0.3,0.8-0.5,1.4-0.5s1,0.2,1.4,0.5c0.4,0.3,0.5,0.8,0.5,1.3c0,0.5-0.2,1-0.5,1.3
		c-0.4,0.3-0.8,0.5-1.4,0.5s-1.1-0.2-1.4-0.5C23,39.3,22.8,38.9,22.8,38.4z"/>
</g>
</svg>
