<svg id="Layer_1" data-name="Layer 1" xmlns="http://www.w3.org/2000/svg" viewBox="0 0 50.46 50.46"><defs><style>.cls-1{fill:#00b5e4;}</style></defs><title>Iconos</title><path class="cls-1" d="M41.81,10.43H32.48a1.1,1.1,0,0,0-1.07,1.13v3a1,1,0,0,1-.72,1.08H19.24a1,1,0,0,1-.72-1.08v-3a1.1,1.1,0,0,0-1.07-1.13H8.12a0.77,0.77,0,0,0-.77.77V42.29a3.25,3.25,0,0,0,3,3.47H39.62a3.25,3.25,0,0,0,3-3.47V11.21A0.77,0.77,0,0,0,41.81,10.43ZM41,42.29a1.75,1.75,0,0,1-1.41,1.92H10.3a1.75,1.75,0,0,1-1.41-1.92V12H17v2.58a2.47,2.47,0,0,0,2.27,2.62H30.69A2.47,2.47,0,0,0,33,14.57V12H41V42.29Z"/><path class="cls-1" d="M35.79,8.78a0.55,0.55,0,0,0,.55-0.55v-3a0.55,0.55,0,0,0-.55-0.55H14.13a0.55,0.55,0,0,0-.55.55v3a0.55,0.55,0,0,0,1.1,0V5.8H35.24V8.23A0.55,0.55,0,0,0,35.79,8.78Z"/><path class="cls-1" d="M23.19,34.73a7.2,7.2,0,0,1,.41-2.67,5.47,5.47,0,0,1,1.49-2,7.64,7.64,0,0,0,1.44-1.57,2.47,2.47,0,0,0,.36-1.28,1.72,1.72,0,0,0-1.87-2,1.89,1.89,0,0,0-1.42.55,2.14,2.14,0,0,0-.56,1.5H19.58a4.61,4.61,0,0,1,1.48-3.58,5.75,5.75,0,0,1,4-1.29A5.77,5.77,0,0,1,29,23.64a4.36,4.36,0,0,1,1.4,3.47A4.22,4.22,0,0,1,29.89,29a7.91,7.91,0,0,1-1.59,2l-1,.92a3.29,3.29,0,0,0-1,2l0,0.73H23.19Zm-0.35,3.66a1.74,1.74,0,0,1,.54-1.32,2.13,2.13,0,0,1,2.79,0,1.86,1.86,0,0,1,0,2.62,2.18,2.18,0,0,1-2.81,0A1.73,1.73,0,0,1,22.84,38.39Z"/></svg>