<?xml version="1.0" encoding="UTF-8"?>
<svg id="Layer_1" xmlns="http://www.w3.org/2000/svg" width="50.5" height="50.5" version="1.1" xmlns:xlink="http://www.w3.org/1999/xlink" viewBox="0 0 50.5 50.5">
  <!-- Generator: Adobe Illustrator 29.3.1, SVG Export Plug-In . SVG Version: 2.1.0 Build 151)  -->
  <path d="M41.569,13.561c-.035-.085-.09-.158-.15-.225-.009-.01-.012-.023-.022-.033l-7.45-7.45c-.149-.15-.354-.234-.565-.234H13.12c-2.344,0-4.25,1.906-4.25,4.25v30.761c0,2.344,1.906,4.25,4.25,4.25h24.261c2.344,0,4.25-1.906,4.25-4.25V13.87c0-.107-.022-.212-.062-.308ZM34.34,8.509l4.56,4.56h-4.56v-4.56ZM37.381,43.281H13.12c-1.461,0-2.65-1.189-2.65-2.65V9.87c0-1.461,1.189-2.65,2.65-2.65h19.621v6.65c0,.442.358.8.8.8h6.491v25.961c0,1.461-1.189,2.65-2.65,2.65Z"/>
  <path d="M26.604,24.123h4.564c.441,0,.8-.358.8-.8s-.358-.8-.8-.8h-4.564c-.441,0-.8.358-.8.8s.358.8.8.8Z"/>
  <path d="M16.331,24.123h6.791c.442,0,.8-.358.8-.8s-.358-.8-.8-.8h-6.791c-.442,0-.8.358-.8.8s.358.8.8.8Z"/>
  <path d="M33.788,28.281h-11.441c-.442,0-.8.358-.8.8s.358.8.8.8h11.441c.441,0,.8-.358.8-.8s-.358-.8-.8-.8Z"/>
  <path d="M16.331,29.881h2.791c.442,0,.8-.358.8-.8s-.358-.8-.8-.8h-2.791c-.442,0-.8.358-.8.8s.358.8.8.8Z"/>
  <path d="M28.831,34.039h-12.5c-.442,0-.8.358-.8.8s.358.8.8.8h12.5c.441,0,.8-.358.8-.8s-.358-.8-.8-.8Z"/>
</svg>