<?xml version="1.0" encoding="UTF-8"?>
<svg id="Layer_1" xmlns="http://www.w3.org/2000/svg" width="50.5" height="50.5" version="1.1" xmlns:xlink="http://www.w3.org/1999/xlink" viewBox="0 0 50.5 50.5">
  <!-- Generator: Adobe Illustrator 29.3.1, SVG Export Plug-In . SVG Version: 2.1.0 Build 151)  -->
  <path d="M41.569,13.561c-.035-.085-.09-.158-.15-.225-.009-.01-.012-.023-.022-.033l-7.45-7.45c-.149-.15-.354-.234-.565-.234H13.12c-2.344,0-4.25,1.906-4.25,4.25v30.761c0,2.344,1.906,4.25,4.25,4.25h24.261c2.344,0,4.25-1.906,4.25-4.25V13.87c0-.107-.022-.212-.062-.308ZM34.34,8.509l4.56,4.56h-4.56v-4.56ZM37.381,43.281H13.12c-1.461,0-2.65-1.189-2.65-2.65V9.87c0-1.461,1.189-2.65,2.65-2.65h19.621v6.65c0,.442.358.8.8.8h6.491v25.961c0,1.461-1.189,2.65-2.65,2.65Z"/>
  <path d="M33.144,25.542h-7.071v-6.689c0-.454-.368-.822-.822-.822h-7.894c-.454,0-.822.368-.822.822v15.022c0,.454.368.822.822.822h15.788c.454,0,.822-.368.822-.822v-7.511c0-.454-.368-.822-.822-.822ZM18.178,19.675h6.25v5.867h-6.25v-5.867ZM18.178,27.187h6.25v5.866h-6.25v-5.866ZM32.321,33.053h-6.249v-5.866h6.249v5.866Z"/>
</svg>