<?xml version="1.0" encoding="utf-8"?>
<!-- Generator: Adobe Illustrator 18.0.0, SVG Export Plug-In . SVG Version: 6.00 Build 0)  -->
<!DOCTYPE svg PUBLIC "-//W3C//DTD SVG 1.1//EN" "http://www.w3.org/Graphics/SVG/1.1/DTD/svg11.dtd">
<svg version="1.1" id="Layer_1" xmlns="http://www.w3.org/2000/svg" xmlns:xlink="http://www.w3.org/1999/xlink" x="0px" y="0px"
	 viewBox="0 0 50.5 50.5" style="enable-background:new 0 0 50.5 50.5;" xml:space="preserve">
<style type="text/css">
	.st0{fill:#65B4E1;}
</style>
<path class="st0" d="M13.5,38.8C13.5,38.8,13.5,38.8,13.5,38.8l8.3,0c0,0,0,0,0,0c0-2.6-1.9-4.6-4.2-4.6S13.5,36.2,13.5,38.8z"/>
<ellipse class="st0" cx="17.7" cy="30.9" rx="2.4" ry="2.4"/>
<path class="st0" d="M10.7,42.1c-0.7,0-1.3-0.6-1.3-1.3V9.3C9.4,8.6,10,8,10.7,8h15.5c0.3-0.8,0.7-1.5,1.5-1.8h-17
	C9,6.2,7.6,7.6,7.6,9.3v31.5c0,1.7,1.4,3.1,3.1,3.1h19.7c-0.5-0.5-1-1.1-1.3-1.8H10.7z"/>
<path class="st0" d="M41.3,33.5l-0.5-0.5l-0.5,0.4L39.7,34V12.6c-0.6,0.4-1.2,0.8-1.8,1v19.6c0.5,0.3,1.1,0.6,1.5,1l-0.2,0.2
	l-0.5,0.5l-0.3,0.3c-0.1-0.1-0.3-0.2-0.4-0.3C37.1,34.3,36.1,34,35,34c-2.9,0-5.2,2.3-5.2,5.2c0,1.1,0.3,2.1,0.9,2.9
	c0.5,0.8,1.3,1.4,2.1,1.8c0.7,0.3,1.4,0.5,2.2,0.5c0.9,0,1.7-0.2,2.4-0.6c0.9-0.5,1.7-1.2,2.2-2.1c0.4-0.7,0.6-1.6,0.6-2.5
	c0-0.4,0-0.7-0.1-1.1l0.3-0.3l0.6-0.7l1.3-1.5l0.5-0.5l-0.5-0.5L41.3,33.5z M40.5,36.6l-0.6,0.7L35,42.7l-3.8-4.8l1.4-1.2l2.4,2.4
	l4.2-3.7l0.5-0.5l1.1-0.9l1.1,1.1L40.5,36.6z"/>
<path class="st0" d="M40.2,8.9c-2.3-1.9-5.6-3-9.8,0.6c-0.2,0.2-0.6,0.2-0.8,0l-1.2-1.3L27.1,15l6.8-0.9l-1.2-1.3
	c-0.1-0.1-0.2-0.3-0.2-0.4c0-0.2,0.1-0.3,0.2-0.4C34.5,10.2,36.4,8.4,40.2,8.9z"/>
<path class="st0" d="M13.9,15.6h7.6c0.4,0,0.8-0.4,0.8-0.8S22,14,21.5,14h-7.6c-0.4,0-0.8,0.4-0.8,0.8S13.5,15.6,13.9,15.6z"/>
<path class="st0" d="M30,18.6H13.9c-0.4,0-0.8,0.4-0.8,0.8c0,0.4,0.4,0.8,0.8,0.8H30c0.4,0,0.8-0.4,0.8-0.8
	C30.8,19,30.5,18.6,30,18.6z"/>
<path class="st0" d="M30.8,24c0-0.4-0.4-0.8-0.8-0.8H13.9c-0.4,0-0.8,0.4-0.8,0.8c0,0.4,0.4,0.8,0.8,0.8H30
	C30.5,24.8,30.8,24.4,30.8,24z"/>
</svg>
