<svg id="Layer_1" data-name="Layer 1" xmlns="http://www.w3.org/2000/svg" viewBox="0 0 50.46 50.46"><defs><style>.cls-1{fill:#00b5e4;}</style></defs><title>Iconos</title><path class="cls-1" d="M11.81,21.11L8.14,23.9a0.28,0.28,0,0,0-.11.22V30a0.28,0.28,0,0,0,.28.28h7.34A0.28,0.28,0,0,0,15.92,30V24.12a0.28,0.28,0,0,0-.11-0.22l-3.67-2.79A0.28,0.28,0,0,0,11.81,21.11Z"/><path class="cls-1" d="M17,22.3a0.87,0.87,0,0,0,.86-1,0.87,0.87,0,0,0-.34-0.58l-5-3.83a0.88,0.88,0,0,0-1.06,0L6.59,20.59A0.87,0.87,0,0,0,7.65,22L12,18.69l4.51,3.43A0.87,0.87,0,0,0,17,22.3Z"/><path class="cls-1" d="M21.38,20.32H29a0.81,0.81,0,0,0,0-1.62H21.38A0.81,0.81,0,1,0,21.38,20.32Z"/><path class="cls-1" d="M21.38,24.91H37.49a0.81,0.81,0,0,0,0-1.62H21.38A0.81,0.81,0,1,0,21.38,24.91Z"/><path class="cls-1" d="M21.38,29.5H37.49a0.81,0.81,0,0,0,0-1.62H21.38A0.81,0.81,0,1,0,21.38,29.5Z"/><path class="cls-1" d="M48.13,30.2l-0.47-.46-0.49.44-0.55.49V12.33A3.11,3.11,0,0,0,43.5,9.23H5.37a3.11,3.11,0,0,0-3.11,3.11v25.1a3.11,3.11,0,0,0,3.11,3.11H37.28A6.64,6.64,0,0,1,36,38.76H5.37A1.33,1.33,0,0,1,4,37.43V12.33A1.33,1.33,0,0,1,5.37,11H43.5a1.33,1.33,0,0,1,1.33,1.33V29.9a6.69,6.69,0,0,1,1.5,1l-0.24.21-0.52.46-0.31.28a5.19,5.19,0,0,0-7.63,6.9,5.22,5.22,0,0,0,2.11,1.78,5.15,5.15,0,0,0,4.57-.11,5.23,5.23,0,0,0,2.16-2.13,5.16,5.16,0,0,0,.63-2.47A5.08,5.08,0,0,0,47,34.76l0.29-.33,0.63-.7,1.33-1.49,0.46-.51-0.49-.48Zm-0.74,3-0.63.7-4.87,5.42-3.83-4.76,1.35-1.19,2.42,2.44L46,32.12l0.52-.46,1.07-.95,1.09,1.05Z"/></svg>