<svg id="Layer_1" data-name="Layer 1" xmlns="http://www.w3.org/2000/svg" viewBox="0 0 50.46 50.46"><defs><style>.cls-1{fill:#00b5e4;}</style></defs><title>Iconos</title><path class="cls-1" d="M6.73,29.79s0,0,0,0H17.3s0,0,0,0A5.59,5.59,0,0,0,12,23.94,5.59,5.59,0,0,0,6.73,29.79Z"/><circle class="cls-1" cx="12.01" cy="19.94" r="3.09"/><path class="cls-1" d="M21.14,20.34h7.59a0.81,0.81,0,1,0,0-1.62H21.14A0.81,0.81,0,0,0,21.14,20.34Z"/><path class="cls-1" d="M21.14,24.92H37.25a0.81,0.81,0,0,0,0-1.62H21.14A0.81,0.81,0,0,0,21.14,24.92Z"/><path class="cls-1" d="M21.14,29.51H37.25a0.81,0.81,0,0,0,0-1.62H21.14A0.81,0.81,0,0,0,21.14,29.51Z"/><path class="cls-1" d="M47.89,30.22l-0.47-.46-0.49.44-0.55.49v-18a3.11,3.11,0,0,0-3.11-3.11H5.14A3.11,3.11,0,0,0,2,12.64V37.45a3.11,3.11,0,0,0,3.11,3.11H37.05a6.64,6.64,0,0,1-1.28-1.78H5.14a1.33,1.33,0,0,1-1.33-1.33V12.64a1.33,1.33,0,0,1,1.33-1.33H43.27a1.33,1.33,0,0,1,1.33,1.33V29.91a6.69,6.69,0,0,1,1.5,1l-0.24.21-0.52.46L45,31.88a5.19,5.19,0,0,0-7.63,6.9,5.22,5.22,0,0,0,2.11,1.78,5.15,5.15,0,0,0,4.57-.11,5.23,5.23,0,0,0,2.16-2.13,5.16,5.16,0,0,0,.63-2.47,5.08,5.08,0,0,0-.12-1.07l0.29-.33,0.63-.7L49,32.25l0.46-.51L49,31.27Zm-0.74,3-0.63.7-4.87,5.42-3.83-4.76,1.35-1.19,2.42,2.44h0l4.22-3.74,0.52-.46,1.07-.95,1.09,1.05Z"/></svg>