<svg xmlns="http://www.w3.org/2000/svg" viewBox="0 0 50.46 50.46">
  <title>Iconos</title>
  <g>
    <path d="M13.54,38.72v0h8.33v0a4.42,4.42,0,0,0-4.17-4.64A4.42,4.42,0,0,0,13.54,38.72Z" fill="#00b5e4"/>
    <ellipse cx="17.71" cy="30.91" rx="2.43" ry="2.45" fill="#00b5e4"/>
    <path d="M10.74,42.06A1.33,1.33,0,0,1,9.4,40.72V9.25a1.33,1.33,0,0,1,1.33-1.33H26.24A2.9,2.9,0,0,1,27.7,6.15h-17A3.11,3.11,0,0,0,7.63,9.25V40.72a3.11,3.11,0,0,0,3.11,3.11H30.41a6.64,6.64,0,0,1-1.28-1.78H10.74Z" fill="#00b5e4"/>
    <path d="M42.34,34.55L41.25,33.5,40.78,33l-0.49.44L39.73,34V12.61a6.79,6.79,0,0,1-1.78,1v19.6a6.69,6.69,0,0,1,1.5,1l-0.24.21-0.52.46-0.31.28A5.1,5.1,0,0,0,35,33.93a5.19,5.19,0,1,0,5.19,5.19A5.09,5.09,0,0,0,40.11,38l0.29-.33L41,37l1.33-1.49L42.83,35Zm-1.83,2-0.63.7L35,42.67l-3.83-4.76,1.35-1.19L35,39.15l4.22-3.74L39.69,35,40.76,34l1.09,1.05Z" fill="#00b5e4"/>
    <path d="M33.91,14l-1.23-1.29a0.58,0.58,0,0,1-.16-0.41,0.57,0.57,0,0,1,.18-0.4c1.83-1.74,3.71-3.52,7.47-3-2.34-1.86-5.58-3-9.78.63a0.57,0.57,0,0,1-.79,0L28.37,8.21,27.07,15Z" fill="#00b5e4"/>
    <path d="M13.92,15.6H21.5a0.81,0.81,0,0,0,0-1.62H13.92A0.81,0.81,0,1,0,13.92,15.6Z" fill="#00b5e4"/>
    <path d="M30,18.56H13.92a0.81,0.81,0,1,0,0,1.62H30A0.81,0.81,0,0,0,30,18.56Z" fill="#00b5e4"/>
    <path d="M30.84,24A0.81,0.81,0,0,0,30,23.15H13.92a0.81,0.81,0,1,0,0,1.62H30A0.81,0.81,0,0,0,30.84,24Z" fill="#00b5e4"/>
  </g>
</svg>
