<?xml version="1.0" encoding="utf-8"?>
<!-- Generator: Adobe Illustrator 18.0.0, SVG Export Plug-In . SVG Version: 6.00 Build 0)  -->
<!DOCTYPE svg PUBLIC "-//W3C//DTD SVG 1.1//EN" "http://www.w3.org/Graphics/SVG/1.1/DTD/svg11.dtd">
<svg version="1.1" id="Layer_1" xmlns="http://www.w3.org/2000/svg" xmlns:xlink="http://www.w3.org/1999/xlink" x="0px" y="0px"
	 viewBox="0 0 50.5 50.5" style="enable-background:new 0 0 50.5 50.5;" xml:space="preserve">
<style type="text/css">
	.st0{fill:#65B4E1;}
</style>
<g>
	<path class="st0" d="M6.7,29.8C6.7,29.8,6.7,29.8,6.7,29.8l10.6,0c0,0,0,0,0,0c0-3.2-2.4-5.9-5.3-5.9S6.7,26.6,6.7,29.8z"/>
	<circle class="st0" cx="12" cy="19.9" r="3.1"/>
	<path class="st0" d="M21.1,20.3h7.6c0.4,0,0.8-0.4,0.8-0.8s-0.4-0.8-0.8-0.8h-7.6c-0.4,0-0.8,0.4-0.8,0.8S20.7,20.3,21.1,20.3z"/>
	<path class="st0" d="M21.1,24.9h16.1c0.4,0,0.8-0.4,0.8-0.8c0-0.4-0.4-0.8-0.8-0.8H21.1c-0.4,0-0.8,0.4-0.8,0.8
		C20.3,24.6,20.7,24.9,21.1,24.9z"/>
	<path class="st0" d="M21.1,29.5h16.1c0.4,0,0.8-0.4,0.8-0.8c0-0.4-0.4-0.8-0.8-0.8H21.1c-0.4,0-0.8,0.4-0.8,0.8
		C20.3,29.1,20.7,29.5,21.1,29.5z"/>
	<path class="st0" d="M47.9,30.2l-0.5-0.5l-0.5,0.4l-0.6,0.5v-18c0-1.7-1.4-3.1-3.1-3.1H5.1C3.4,9.5,2,10.9,2,12.6v24.8
		c0,1.7,1.4,3.1,3.1,3.1h31.9c-0.5-0.5-1-1.1-1.3-1.8H5.1c-0.7,0-1.3-0.6-1.3-1.3V12.6c0-0.7,0.6-1.3,1.3-1.3h38.1
		c0.7,0,1.3,0.6,1.3,1.3v17.3c0.5,0.3,1.1,0.6,1.5,1l-0.2,0.2l-0.5,0.5L45,31.9c-0.1-0.1-0.3-0.2-0.4-0.3c-0.8-0.6-1.8-0.9-2.9-0.9
		c-2.9,0-5.2,2.3-5.2,5.2c0,1.1,0.3,2.1,0.9,2.9c0.5,0.8,1.3,1.4,2.1,1.8c0.7,0.3,1.4,0.5,2.2,0.5c0.9,0,1.7-0.2,2.4-0.6
		c0.9-0.5,1.7-1.2,2.2-2.1c0.4-0.7,0.6-1.6,0.6-2.5c0-0.4,0-0.7-0.1-1.1l0.3-0.3l0.6-0.7l1.3-1.5l0.5-0.5L49,31.3L47.9,30.2z
		 M47.2,33.3L46.5,34l-4.9,5.4l-3.8-4.8l1.4-1.2l2.4,2.4h0l4.2-3.7l0.5-0.5l1.1-0.9l1.1,1.1L47.2,33.3z"/>
</g>
</svg>
