<svg id="Layer_1" data-name="Layer 1" xmlns="http://www.w3.org/2000/svg" viewBox="0 0 50.46 50.46"><defs><style>.cls-1{fill:#00b5e4;}</style></defs><title>Iconos</title><path class="cls-1" d="M13.54,38.75v0h8.33v0a4.42,4.42,0,0,0-4.17-4.64A4.42,4.42,0,0,0,13.54,38.75Z"/><ellipse class="cls-1" cx="17.71" cy="30.94" rx="2.43" ry="2.45"/><path class="cls-1" d="M10.74,42.09A1.33,1.33,0,0,1,9.4,40.76V9.29A1.33,1.33,0,0,1,10.74,8H26.24A2.9,2.9,0,0,1,27.7,6.18h-17A3.11,3.11,0,0,0,7.63,9.29V40.76a3.11,3.11,0,0,0,3.11,3.11H30.41a6.64,6.64,0,0,1-1.28-1.78H10.74Z"/><path class="cls-1" d="M41.25,33.53l-0.47-.46-0.49.44L39.73,34V12.64a6.79,6.79,0,0,1-1.78,1v19.6a6.69,6.69,0,0,1,1.5,1l-0.24.21-0.52.46-0.31.28A5.1,5.1,0,0,0,35,34a5.19,5.19,0,1,0,5.19,5.19,5.09,5.09,0,0,0-.12-1.07l0.29-.33,0.63-.7,1.33-1.49,0.46-.51-0.49-.48Zm-0.74,3-0.63.7L35,42.71l-3.83-4.76,1.35-1.19L35,39.19l4.22-3.74L39.69,35,40.76,34l1.09,1.05Z"/><path class="cls-1" d="M40.17,8.94c-2.34-1.86-5.58-3-9.78.63a0.57,0.57,0,0,1-.79,0L28.37,8.25,27.07,15l6.83-.94-1.23-1.29a0.58,0.58,0,0,1-.16-0.41A0.57,0.57,0,0,1,32.7,12C34.53,10.22,36.41,8.44,40.17,8.94Z"/><path class="cls-1" d="M13.92,15.64H21.5a0.81,0.81,0,0,0,0-1.62H13.92A0.81,0.81,0,1,0,13.92,15.64Z"/><path class="cls-1" d="M30,18.6H13.92a0.81,0.81,0,1,0,0,1.62H30A0.81,0.81,0,0,0,30,18.6Z"/><path class="cls-1" d="M30.84,24A0.81,0.81,0,0,0,30,23.19H13.92a0.81,0.81,0,1,0,0,1.62H30A0.81,0.81,0,0,0,30.84,24Z"/></svg>