<?xml version="1.0" encoding="utf-8"?>
<!-- Generator: Adobe Illustrator 18.0.0, SVG Export Plug-In . SVG Version: 6.00 Build 0)  -->
<!DOCTYPE svg PUBLIC "-//W3C//DTD SVG 1.1//EN" "http://www.w3.org/Graphics/SVG/1.1/DTD/svg11.dtd">
<svg version="1.1" id="Layer_1" xmlns="http://www.w3.org/2000/svg" xmlns:xlink="http://www.w3.org/1999/xlink" x="0px" y="0px"
	 viewBox="0 0 50.5 50.5" style="enable-background:new 0 0 50.5 50.5;" xml:space="preserve">
<style type="text/css">
	.st0{fill:#65B4E1;}
</style>
<g>
	<path class="st0" d="M11.8,21.1l-3.7,2.8C8.1,24,8,24,8,24.1V30c0,0.2,0.1,0.3,0.3,0.3h7.3c0.2,0,0.3-0.1,0.3-0.3v-5.8
		c0-0.1,0-0.2-0.1-0.2l-3.7-2.8C12,21,11.9,21,11.8,21.1z"/>
	<path class="st0" d="M17,22.3c0.3,0,0.5-0.1,0.7-0.3c0.1-0.2,0.2-0.4,0.2-0.6c0-0.2-0.2-0.4-0.3-0.6l-5-3.8c-0.3-0.2-0.7-0.2-1.1,0
		l-4.9,3.7c-0.4,0.3-0.5,0.8-0.2,1.2C6.6,22,6.8,22.1,7,22.2c0.2,0,0.5,0,0.6-0.2l4.3-3.3l4.5,3.4C16.6,22.2,16.8,22.3,17,22.3z"/>
	<path class="st0" d="M21.4,20.3H29c0.4,0,0.8-0.4,0.8-0.8c0-0.4-0.4-0.8-0.8-0.8h-7.6c-0.4,0-0.8,0.4-0.8,0.8
		C20.6,20,20.9,20.3,21.4,20.3z"/>
	<path class="st0" d="M21.4,24.9h16.1c0.4,0,0.8-0.4,0.8-0.8c0-0.4-0.4-0.8-0.8-0.8H21.4c-0.4,0-0.8,0.4-0.8,0.8
		C20.6,24.5,20.9,24.9,21.4,24.9z"/>
	<path class="st0" d="M21.4,29.5h16.1c0.4,0,0.8-0.4,0.8-0.8c0-0.4-0.4-0.8-0.8-0.8H21.4c-0.4,0-0.8,0.4-0.8,0.8
		C20.6,29.1,20.9,29.5,21.4,29.5z"/>
	<path class="st0" d="M48.1,30.2l-0.5-0.5l-0.5,0.4l-0.6,0.5V12.3c0-1.7-1.4-3.1-3.1-3.1H5.4c-1.7,0-3.1,1.4-3.1,3.1v25.1
		c0,1.7,1.4,3.1,3.1,3.1h31.9c-0.5-0.5-1-1.1-1.3-1.8H5.4c-0.7,0-1.3-0.6-1.3-1.3V12.3C4,11.6,4.6,11,5.4,11h38.1
		c0.7,0,1.3,0.6,1.3,1.3v17.6c0.5,0.3,1.1,0.6,1.5,1l-0.2,0.2l-0.5,0.5l-0.3,0.3c-0.1-0.1-0.3-0.2-0.4-0.3C44,31,43,30.6,41.9,30.6
		c-2.9,0-5.2,2.3-5.2,5.2c0,1.1,0.3,2.1,0.9,2.9c0.5,0.8,1.3,1.4,2.1,1.8c0.7,0.3,1.4,0.5,2.2,0.5c0.9,0,1.7-0.2,2.4-0.6
		c0.9-0.5,1.7-1.2,2.2-2.1c0.4-0.7,0.6-1.6,0.6-2.5c0-0.4,0-0.7-0.1-1.1l0.3-0.3l0.6-0.7l1.3-1.5l0.5-0.5l-0.5-0.5L48.1,30.2z
		 M47.4,33.3L46.8,34l-4.9,5.4l-3.8-4.8l1.4-1.2l2.4,2.4l4.2-3.7l0.5-0.5l1.1-0.9l1.1,1.1L47.4,33.3z"/>
</g>
</svg>
