<svg xmlns="http://www.w3.org/2000/svg" viewBox="0 0 419.53 595.28"><defs><style>.cls-1{isolation:isolate;}.cls-2{font-size:30px;font-family:RobotoSlab-Bold, Roboto Slab;font-weight:700;}.cls-2,.cls-6{fill:#6094cc;}.cls-3{letter-spacing:-0.01em;}.cls-4{letter-spacing:-0.01em;}.cls-5{letter-spacing:0em;}.cls-15,.cls-7{fill:#fff;}.cls-8{fill:#4d91cb;}.cls-40,.cls-42,.cls-9{fill:#211915;}.cls-10{fill:#edc500;}.cls-11{fill:#629b3b;}.cls-12{fill:#c6480c;}.cls-13{fill:#eac285;}.cls-14{fill:#de453b;}.cls-15{font-size:10px;font-family:DroidSerif, Droid Serif;letter-spacing:-0.02em;}.cls-16{letter-spacing:-0.04em;}.cls-17{letter-spacing:-0.01em;}.cls-18,.cls-43,.cls-44{fill:#f1a21e;}.cls-19{fill:#94bb1e;}.cls-20{fill:#e7652f;}.cls-21{fill:#273d64;}.cls-22{fill:#002c55;}.cls-23{fill:#455579;}.cls-23,.cls-25,.cls-27,.cls-29,.cls-31,.cls-32,.cls-33,.cls-36,.cls-38,.cls-39,.cls-40,.cls-42,.cls-43,.cls-44,.cls-46{mix-blend-mode:multiply;}.cls-24{fill:#87b3e5;}.cls-25,.cls-31{fill:#0074c5;}.cls-25{opacity:0.44;}.cls-26,.cls-27{fill:#5599db;}.cls-27{opacity:0.54;}.cls-28{fill:#fbbc9c;}.cls-29,.cls-39,.cls-46{fill:#201913;}.cls-29{opacity:0.1;}.cls-30,.cls-41{fill:none;stroke:#002c55;stroke-linecap:round;stroke-linejoin:round;}.cls-30{stroke-width:0.84px;}.cls-31,.cls-46{opacity:0.11;}.cls-32,.cls-34,.cls-36{fill:#201813;}.cls-32,.cls-39,.cls-40{opacity:0.2;}.cls-33,.cls-36,.cls-42{opacity:0.15;}.cls-35{fill:#67a2de;}.cls-37{fill:#fcc4a8;}.cls-38,.cls-43{opacity:0.33;}.cls-41{stroke-width:0.93px;}.cls-44{opacity:0.7;}.cls-45{fill:#fffffe;}.cls-47{fill:#9a999e;}</style></defs><title>Artboard 2</title><g class="cls-1"><g id="Layer_2" data-name="Layer 2"><text class="cls-2" transform="translate(46.9 57.73)">¿Lo<tspan class="cls-3" x="48.24" y="0">r</tspan><tspan x="60.59" y="0">em ipsum d</tspan><tspan class="cls-4" x="226.83" y="0">ol</tspan><tspan x="252.63" y="0">or sit</tspan><tspan x="31.96" y="30">a</tspan><tspan class="cls-5" x="48.44" y="30">m</tspan><tspan x="76.2" y="30">et consectetur?</tspan></text><rect class="cls-6" x="-5.47" y="532.46" width="430.47" height="62.64"/><path class="cls-7" d="M341.69,557.09h2.52a2.15,2.15,0,0,1,2.42,2.13v0c0,1.43-1.15,2.18-2.55,2.18h-1.27v2.05h-1.12Zm2.42,3.32c.85,0,1.38-.47,1.38-1.14v0c0-.75-.54-1.14-1.38-1.14h-1.3v2.3Z"/><path class="cls-7" d="M347.7,558.66h1.1v1.08a1.71,1.71,0,0,1,1.7-1.18v1.17h-.06c-1,0-1.64.63-1.64,1.9v1.83h-1.1Z"/><path class="cls-7" d="M351.24,561.08v0a2.39,2.39,0,0,1,2.35-2.51,2.33,2.33,0,0,1,2.31,2.59c0,.1,0,.2,0,.31h-3.54a1.34,1.34,0,0,0,1.39,1.22,1.75,1.75,0,0,0,1.3-.57l.65.57a2.43,2.43,0,0,1-2,.9,2.4,2.4,0,0,1-2.47-2.5m3.56-.36a1.25,1.25,0,0,0-1.22-1.27,1.3,1.3,0,0,0-1.25,1.27Z"/><path class="cls-7" d="M356.66,562.84l.49-.75a2.7,2.7,0,0,0,1.58.59c.47,0,.75-.2.75-.52v0c0-.37-.51-.5-1.08-.67s-1.5-.49-1.5-1.41v0a1.53,1.53,0,0,1,1.71-1.47,3.34,3.34,0,0,1,1.77.55l-.44.78a2.79,2.79,0,0,0-1.36-.46c-.43,0-.67.2-.67.48v0c0,.35.52.49,1.08.67s1.49.54,1.49,1.4v0c0,1-.78,1.51-1.79,1.51a3.38,3.38,0,0,1-2-.72"/><path class="cls-7" d="M361.68,556.87h1.18v1h-1.18Zm0,1.79h1.1v4.81h-1.1Z"/><path class="cls-7" d="M364.06,561.07v0a2.3,2.3,0,0,1,2.23-2.5,2,2,0,0,1,1.64.85v-2.59H369v6.65h-1.1v-.8a1.93,1.93,0,0,1-1.64.9,2.31,2.31,0,0,1-2.23-2.5m3.89,0v0a1.44,1.44,0,0,0-1.39-1.54,1.41,1.41,0,0,0-1.39,1.54v0a1.43,1.43,0,0,0,1.39,1.54,1.45,1.45,0,0,0,1.39-1.54"/><path class="cls-7" d="M370.2,561.08v0a2.39,2.39,0,0,1,2.35-2.51,2.33,2.33,0,0,1,2.31,2.59c0,.1,0,.2,0,.31H371.3a1.34,1.34,0,0,0,1.39,1.22,1.75,1.75,0,0,0,1.3-.57l.65.57a2.43,2.43,0,0,1-2,.9,2.4,2.4,0,0,1-2.47-2.5m3.56-.36a1.25,1.25,0,0,0-1.22-1.27,1.3,1.3,0,0,0-1.25,1.27Z"/><path class="cls-7" d="M376,558.66h1.1v.75a1.73,1.73,0,0,1,1.5-.85,1.65,1.65,0,0,1,1.71,1.85v3.06h-1.1v-2.73c0-.75-.37-1.18-1-1.18a1.07,1.07,0,0,0-1.08,1.19v2.72H376Z"/><path class="cls-7" d="M381.44,561.09v0a2.48,2.48,0,0,1,2.5-2.52,2.4,2.4,0,0,1,1.92.83l-.68.74a1.62,1.62,0,0,0-1.25-.6,1.44,1.44,0,0,0-1.39,1.53v0a1.46,1.46,0,0,0,1.44,1.55,1.69,1.69,0,0,0,1.25-.6l.67.66a2.52,2.52,0,0,1-4.46-1.59"/><path class="cls-7" d="M387,556.87h1.18v1H387Zm0,1.79h1.1v4.81H387Z"/><path class="cls-7" d="M392.55,563.47v-.59a2,2,0,0,1-1.56.69,1.54,1.54,0,0,1-1.71-1.49v0c0-1.07.83-1.58,2-1.58a4,4,0,0,1,1.33.2v-.09c0-.67-.42-1-1.18-1a3.35,3.35,0,0,0-1.38.3l-.3-.88a4.13,4.13,0,0,1,1.83-.4,1.86,1.86,0,0,1,2.11,2v2.85Zm0-2a3.15,3.15,0,0,0-1.1-.19c-.69,0-1.1.28-1.1.75v0c0,.46.41.71.93.71.73,0,1.28-.41,1.28-1Z"/><path class="cls-7" d="M341.13,570.09v0a2.3,2.3,0,0,1,2.23-2.5,2,2,0,0,1,1.64.85v-2.59h1.1v6.65H345v-.8a1.93,1.93,0,0,1-1.64.9,2.31,2.31,0,0,1-2.23-2.5m3.89,0v0a1.44,1.44,0,0,0-1.39-1.54,1.41,1.41,0,0,0-1.39,1.54v0a1.43,1.43,0,0,0,1.39,1.54,1.45,1.45,0,0,0,1.39-1.54"/><path class="cls-7" d="M346.9,570.1v0a2.39,2.39,0,0,1,2.35-2.51,2.33,2.33,0,0,1,2.31,2.59c0,.1,0,.2,0,.31H348a1.34,1.34,0,0,0,1.39,1.22,1.75,1.75,0,0,0,1.3-.57l.65.57a2.43,2.43,0,0,1-2,.9,2.4,2.4,0,0,1-2.47-2.5m3.56-.36a1.25,1.25,0,0,0-1.22-1.27,1.3,1.3,0,0,0-1.25,1.27Z"/><rect class="cls-7" x="354.83" y="565.84" width="1.1" height="6.65"/><path class="cls-7" d="M360,572.49v-.59a1.94,1.94,0,0,1-1.56.69,1.54,1.54,0,0,1-1.71-1.49v0c0-1.07.83-1.58,2-1.58a4,4,0,0,1,1.33.2v-.09c0-.67-.42-1-1.18-1a3.35,3.35,0,0,0-1.38.3l-.3-.88a4.13,4.13,0,0,1,1.83-.4,1.86,1.86,0,0,1,2.11,2v2.85Zm0-2a3.15,3.15,0,0,0-1.1-.19c-.69,0-1.1.28-1.1.75v0c0,.46.41.71.93.71.73,0,1.28-.41,1.28-1Z"/><polygon class="cls-7" points="364.63 566.11 365.67 566.11 369.08 570.52 369.08 566.11 370.19 566.11 370.19 572.49 369.25 572.49 365.73 567.95 365.73 572.49 364.63 572.49 364.63 566.11"/><path class="cls-7" d="M374.32,572.49v-.59a1.94,1.94,0,0,1-1.56.69,1.54,1.54,0,0,1-1.71-1.49v0c0-1.07.83-1.58,2-1.58a4,4,0,0,1,1.33.2v-.09c0-.67-.42-1-1.18-1a3.35,3.35,0,0,0-1.38.3l-.3-.88a4.13,4.13,0,0,1,1.83-.4,1.86,1.86,0,0,1,2.11,2v2.85Zm0-2a3.15,3.15,0,0,0-1.1-.19c-.69,0-1.1.28-1.1.75v0c0,.46.41.71.93.71.73,0,1.28-.41,1.28-1Z"/><path class="cls-7" d="M376.15,570.11v0a2.48,2.48,0,0,1,2.5-2.52,2.4,2.4,0,0,1,1.92.83l-.68.74a1.62,1.62,0,0,0-1.25-.6,1.44,1.44,0,0,0-1.39,1.53v0a1.46,1.46,0,0,0,1.44,1.55,1.69,1.69,0,0,0,1.25-.6l.67.66a2.52,2.52,0,0,1-4.46-1.59"/><path class="cls-7" d="M381.31,565.89h1.18v1h-1.18Zm0,1.79h1.1v4.81h-1.1Z"/><path class="cls-7" d="M383.32,570.11v0a2.57,2.57,0,0,1,5.13,0v0a2.52,2.52,0,0,1-2.58,2.51,2.49,2.49,0,0,1-2.55-2.49m4,0v0a1.49,1.49,0,0,0-1.48-1.55,1.44,1.44,0,0,0-1.45,1.53v0a1.49,1.49,0,0,0,1.47,1.55,1.45,1.45,0,0,0,1.46-1.53m-1-4.54,1,.45-1.12,1h-.83Z"/><path class="cls-7" d="M389.25,567.68h1.1v.75a1.73,1.73,0,0,1,1.5-.85,1.65,1.65,0,0,1,1.71,1.85v3.06h-1.1v-2.73c0-.75-.37-1.18-1-1.18a1.07,1.07,0,0,0-1.08,1.19v2.72h-1.1Z"/><path class="cls-8" d="M328.14,563.38h-1.42a.7.7,0,0,1-.57-.24.73.73,0,0,1-.15-.35v0a1.34,1.34,0,0,1,0-.43,4.47,4.47,0,0,1,.87-1.95l-.1,0a.55.55,0,0,1-.25-.59,1.55,1.55,0,0,1,.4-.68,1.86,1.86,0,0,1,1.31-.61,1.68,1.68,0,0,1,1.59,1,8.82,8.82,0,0,1,.88,3v0a.87.87,0,0,1,0,.35v0a.66.66,0,0,1-.14.25.94.94,0,0,1-.56.27l-.25,0h-1.17v2h6.36a11.11,11.11,0,0,0-.52-3.4,9.22,9.22,0,0,0-1.42-2.77,6.79,6.79,0,0,0-2.09-1.86,5.12,5.12,0,0,0-5.09,0,6.79,6.79,0,0,0-2.09,1.86A9.22,9.22,0,0,0,322.3,562a11.11,11.11,0,0,0-.52,3.4h6.36Z"/><path class="cls-7" d="M321.78,565.4a11.28,11.28,0,0,0,.3,2.61c2.84-.32,4.54-.66,5-1a1.6,1.6,0,0,1,1-.38V565.4Z"/><path class="cls-7" d="M328.56,566.68a2.32,2.32,0,0,1,.65.22h.06a2.81,2.81,0,0,1,1.1.25l.4.14a18.72,18.72,0,0,0,3.84.76,11.27,11.27,0,0,0,.31-2.65h-6.36Z"/><path class="cls-9" d="M327.93,555.58h0Z"/><path class="cls-7" d="M331.15,569.46a.56.56,0,0,1-.12.16.63.63,0,0,1-.43.17.67.67,0,0,1-.11.17.66.66,0,0,1-.56.22.72.72,0,0,1-.11.15.59.59,0,0,1-.54.16.85.85,0,0,1-.22.13.9.9,0,0,1-.51,0v1.69a.21.21,0,1,1-.43,0v-1.62a.81.81,0,0,1-.28.05h-.11a.52.52,0,0,1-.3-.18.83.83,0,0,1-.57-.08.43.43,0,0,1-.16-.2l-.2,0a.56.56,0,0,1-.37-.31H326a.53.53,0,0,1-.43-.27.43.43,0,0,1,0-.12c-.91.47-1.94.93-2.41,1.14a8.54,8.54,0,0,0,.59.88,6.79,6.79,0,0,0,2.09,1.86,5.45,5.45,0,0,0,1.12.47.49.49,0,0,1,.17-.18,94,94,0,0,1,2.51,0,.49.49,0,0,1,.17.18,5.44,5.44,0,0,0,1.12-.47,6.79,6.79,0,0,0,2.09-1.86,8.52,8.52,0,0,0,.55-.83,11.58,11.58,0,0,1-2.39-1.28"/><path class="cls-8" d="M328.93,575.23a.6.6,0,0,0,0-.28,1.34,1.34,0,0,0,.75-.38.62.62,0,0,0,.14-.48.5.5,0,0,0-.23-.37,94,94,0,0,0-2.51,0,.5.5,0,0,0-.23.37.62.62,0,0,0,.14.48,1.35,1.35,0,0,0,.76.38.59.59,0,0,0,0,.28,2.43,2.43,0,0,1-1.38.68h0a1,1,0,0,0,.21.25,2.71,2.71,0,0,0,1.31-.67l.07.06a1.25,1.25,0,0,1-1,.83,1.75,1.75,0,0,0,.47.14,1.4,1.4,0,0,0,.81-.85h.23a1.4,1.4,0,0,0,.81.85,1.75,1.75,0,0,0,.47-.14,1.25,1.25,0,0,1-1-.83l.07-.06a2.71,2.71,0,0,0,1.31.67,1,1,0,0,0,.21-.25,2.43,2.43,0,0,1-1.38-.67"/><path class="cls-7" d="M329.45,574a.21.21,0,0,1,.1.17.34.34,0,0,1-.08.27.82.82,0,0,1-.37.22.53.53,0,0,0,0-.42.65.65,0,0,0-.23-.3.92.92,0,0,1,.54.07"/><path class="cls-7" d="M327.83,574.29c.11-.28.5-.29.52-.29h0a.82.82,0,0,1,.23,0,.43.43,0,0,1,.29.25.36.36,0,0,1-.12.35.6.6,0,0,0-.8,0,.36.36,0,0,1-.12-.35"/><path class="cls-7" d="M327.59,574.61a.82.82,0,0,1-.37-.22.34.34,0,0,1-.08-.27.21.21,0,0,1,.1-.17.68.68,0,0,1,.36-.08h.18a.65.65,0,0,0-.23.3.53.53,0,0,0,0,.42"/><path class="cls-7" d="M328,575.09a.32.32,0,1,1,.32.32.32.32,0,0,1-.32-.32"/><path class="cls-7" d="M330.1,576.16a2.71,2.71,0,0,1-1.31-.67l-.07.06a1.25,1.25,0,0,0,1,.83,1.38,1.38,0,0,0,.35-.23"/><path class="cls-7" d="M327.91,575.49a2.71,2.71,0,0,1-1.31.67,1.38,1.38,0,0,0,.35.23,1.25,1.25,0,0,0,1-.83l-.07-.06"/><path class="cls-9" d="M336.31,567.09a.14.14,0,0,0-.14-.15l.08-.18a2.76,2.76,0,0,0,.15-.93.14.14,0,0,0-.15-.14l.05-.17a2.77,2.77,0,0,0,.06-.94.14.14,0,0,0-.17-.12,2,2,0,0,0,0-.21,2.77,2.77,0,0,0,0-.94.14.14,0,0,0-.08-.1h-.07s0-.1,0-.15a2.77,2.77,0,0,0-.07-.94.14.14,0,0,0-.21-.08h0a2,2,0,0,0,0-.23,2.77,2.77,0,0,0-.2-.92.14.14,0,0,0-.2-.06,2,2,0,0,0,0-.21,2.77,2.77,0,0,0-.3-.89.14.14,0,0,0-.21,0c0-.06,0-.13,0-.19a2.79,2.79,0,0,0-.4-.85.14.14,0,0,0-.11-.06.14.14,0,0,0-.11.06,2,2,0,0,0-.08-.22,2.8,2.8,0,0,0-.53-.78.14.14,0,0,0-.21,0,2.05,2.05,0,0,0-.12-.22,2.76,2.76,0,0,0-.64-.68.14.14,0,0,0-.21,0,1.57,1.57,0,0,0-.75-.53h.17a2,2,0,0,0,.66-.06.17.17,0,0,0,0-.34,1.46,1.46,0,0,1-.76-.21l-.12-.06,1-.14a.17.17,0,0,0,0-.34l-1-.14.37-.11a2,2,0,0,0,.58-.31.17.17,0,0,0-.17-.3,1.46,1.46,0,0,1-.79.1h-.13l.84-.5a.17.17,0,0,0-.13-.32l-.94.24.3-.25a2,2,0,0,0,.42-.51.17.17,0,0,0-.27-.21,1.46,1.46,0,0,1-.69.39l-.12,0,.58-.78a.17.17,0,0,0-.24-.24l-.78.58c.06-.1.12-.22.19-.35a2,2,0,0,0,.19-.63.17.17,0,0,0-.33-.09,1.46,1.46,0,0,1-.49.63l-.1.08.24-.94a.17.17,0,0,0-.32-.13l-.5.84c0-.12,0-.25,0-.4a2,2,0,0,0-.06-.65.17.17,0,0,0-.34,0,1.46,1.46,0,0,1-.21.76l-.06.11-.14-1a.17.17,0,0,0-.17-.15h0a.17.17,0,0,0-.17.15l-.13,1c0-.11-.07-.24-.11-.37a2,2,0,0,0-.31-.58.17.17,0,0,0-.3.17,1.46,1.46,0,0,1,.1.79v.13l-.51-.84a.17.17,0,0,0-.32.13l.24.94-.25-.3a2,2,0,0,0-.51-.42.17.17,0,0,0-.21.27,1.46,1.46,0,0,1,.39.69l0,.13-.79-.58a.17.17,0,0,0-.24.24l.58.78-.35-.18a2,2,0,0,0-.63-.19.17.17,0,0,0-.09.33,1.46,1.46,0,0,1,.63.49l.08.1-.95-.24a.17.17,0,0,0-.13.32l.84.5-.39,0a2,2,0,0,0-.65.06.17.17,0,0,0,0,.34,1.46,1.46,0,0,1,.76.21l.11.06-1,.14a.17.17,0,0,0,0,.34l1,.14-.38.12a2,2,0,0,0-.58.31.17.17,0,0,0,.17.3,1.64,1.64,0,0,1,.51-.11,3.82,3.82,0,0,0-.43.42l-.11.15a.14.14,0,0,0-.2,0,2.81,2.81,0,0,0-.65.68,2,2,0,0,0-.12.22.14.14,0,0,0-.21,0,2.79,2.79,0,0,0-.53.78,2,2,0,0,0-.08.21.14.14,0,0,0-.2,0,2.78,2.78,0,0,0-.43.83,2,2,0,0,0-.05.22.14.14,0,0,0-.22,0,2.77,2.77,0,0,0-.3.89,2.07,2.07,0,0,0,0,.21.14.14,0,0,0-.21.06,2.77,2.77,0,0,0-.19.92,2,2,0,0,0,0,.21.14.14,0,0,0-.2.09,2.77,2.77,0,0,0-.07.94c0,.05,0,.11,0,.16h-.06a.14.14,0,0,0-.08.1,2.76,2.76,0,0,0,0,.94,2,2,0,0,0,0,.21h-.05a.14.14,0,0,0-.08.11,2.77,2.77,0,0,0,0,.94c0,.06,0,.12,0,.18a.14.14,0,0,0-.15.13,2.77,2.77,0,0,0,.13.93,2,2,0,0,0,.09.23h0a.14.14,0,0,0-.13,0,.14.14,0,0,0,0,.12,2.77,2.77,0,0,0,.29.89l.08.14-.06,0a.14.14,0,0,0,0,.13,2.79,2.79,0,0,0,.36.87l.12.16a.14.14,0,0,0-.11.18,2.79,2.79,0,0,0,.45.82l.13.14a.14.14,0,0,0-.08.19,2.8,2.8,0,0,0,.55.77l.14.12a.14.14,0,0,0-.06.2,2.81,2.81,0,0,0,.63.7l.21.15h0a.14.14,0,0,0-.05.22,3.24,3.24,0,0,0,.73.58,2,2,0,0,0,.6.23,1.32,1.32,0,0,0,.48,0h0a7.22,7.22,0,0,0,1.34.75,6.57,6.57,0,0,0,1.19.37l.24,0a1.06,1.06,0,0,1-.45-.3l-.05-.08a6.41,6.41,0,0,1-.82-.28,7,7,0,0,1-1.28-.71v0a1.35,1.35,0,0,0,0-.41,6,6,0,0,0,.84.59,5.68,5.68,0,0,0,1.21.5.69.69,0,0,1,0-.07.53.53,0,0,1,.06-.19,5.45,5.45,0,0,1-1.12-.47,6.79,6.79,0,0,1-2.09-1.86,8.5,8.5,0,0,1-.59-.88c.46-.21,1.5-.67,2.41-1.14a.43.43,0,0,0,0,.12.53.53,0,0,0,.43.27h.15a.56.56,0,0,0,.37.31l.2,0a.43.43,0,0,0,.16.2.82.82,0,0,0,.57.08.52.52,0,0,0,.3.18h.11a.8.8,0,0,0,.27-.05v1.62a.21.21,0,0,0,.43,0v-1.69a.9.9,0,0,0,.51,0,.85.85,0,0,0,.22-.13.59.59,0,0,0,.54-.16.72.72,0,0,0,.11-.15.66.66,0,0,0,.56-.22.67.67,0,0,0,.11-.17.63.63,0,0,0,.43-.17.56.56,0,0,0,.12-.16,11.57,11.57,0,0,0,2.39,1.28,8.5,8.5,0,0,1-.55.83,6.79,6.79,0,0,1-2.09,1.86,5.45,5.45,0,0,1-1.12.47.53.53,0,0,1,.06.19s0,0,0,.07a5.68,5.68,0,0,0,1.21-.5,6.11,6.11,0,0,0,.85-.6,1.33,1.33,0,0,0,0,.42v0a5.71,5.71,0,0,1-.94.57,6.2,6.2,0,0,1-1.12.42h0l0,.07a1.07,1.07,0,0,1-.46.3,6,6,0,0,0,.63-.13,6.44,6.44,0,0,0,1.17-.44,5.86,5.86,0,0,0,1-.6h0a1.32,1.32,0,0,0,.49,0,2,2,0,0,0,.6-.23,3.24,3.24,0,0,0,.73-.58.14.14,0,0,0-.05-.22h0l.22-.15a2.81,2.81,0,0,0,.63-.7.14.14,0,0,0-.06-.2l.14-.12a2.8,2.8,0,0,0,.55-.77.14.14,0,0,0-.1-.2l.14-.15a2.79,2.79,0,0,0,.45-.82.14.14,0,0,0-.12-.18h0l.11-.16a2.78,2.78,0,0,0,.37-.86.14.14,0,0,0-.14-.17l.1-.18a2.77,2.77,0,0,0,.26-.9m-.16-1.07h0a2.39,2.39,0,0,1-.13.64,1.61,1.61,0,0,1-.28.5,1.24,1.24,0,0,1-.34.28h0a1.49,1.49,0,0,1-.28-.94,2,2,0,0,1,0-.35h0a1.79,1.79,0,0,1,.26.48.1.1,0,0,0,.19,0,1.63,1.63,0,0,1,.52-.63h0m0-1.22h0a2.39,2.39,0,0,1-.06.65,1.61,1.61,0,0,1-.23.53,1.23,1.23,0,0,1-.31.31h0a1.82,1.82,0,0,1-.35-1.23h0a2.14,2.14,0,0,1,.3.44.1.1,0,0,0,.1.06.1.1,0,0,0,.09-.07,1.62,1.62,0,0,1,.46-.68m-.13-1.24h0a2.39,2.39,0,0,1,0,.65,1.61,1.61,0,0,1-.18.55,1.22,1.22,0,0,1-.28.35h0a1.87,1.87,0,0,1-.46-1.19h0a2.16,2.16,0,0,1,.33.4.1.1,0,0,0,.18,0,1.62,1.62,0,0,1,.39-.72m-.2-1.18h0a2.39,2.39,0,0,1,0,.65,1.61,1.61,0,0,1-.15.55,1.23,1.23,0,0,1-.26.36h0a1.58,1.58,0,0,1-.47-.83,2.51,2.51,0,0,1-.06-.35h0a2.16,2.16,0,0,1,.36.39.1.1,0,0,0,.18,0,1.62,1.62,0,0,1,.36-.74m-9.43.08v0a4.2,4.2,0,0,1,.72-1.69,2.76,2.76,0,0,1,.42-.46l.08-.06a.19.19,0,0,0-.24-.31l-.08.06c-.18.13-.28.09-.31.07a.19.19,0,0,1-.07-.21,1.22,1.22,0,0,1,.3-.48h0a1.51,1.51,0,0,1,1-.48h0a1.26,1.26,0,0,1,.45.07,1.34,1.34,0,0,1,.78.69,7.5,7.5,0,0,1,.58,1.5,2.45,2.45,0,0,1-.64-.36.19.19,0,0,0-.25.3,2.66,2.66,0,0,0,1,.49c0,.18.07.36.11.58a2.74,2.74,0,0,0-.53-.18l-.3-.09a3.13,3.13,0,0,1-.68-.39.19.19,0,0,0-.24.3,3.49,3.49,0,0,0,.77.45l.35.11c.46.12.67.22.68.44a.29.29,0,0,1-.06.09.83.83,0,0,1-.58.17h-.45a1.85,1.85,0,0,1-.91-.27c-1-.63-1.42-.53-2-.29M328,563h-1.32a.35.35,0,0,1-.28-.1l0,0A1.37,1.37,0,0,1,328,563m.53,2.38v-2h1.17l.25,0a.94.94,0,0,0,.56-.27.66.66,0,0,0,.14-.25v0a.87.87,0,0,0,0-.35v0a8.82,8.82,0,0,0-.88-3,1.68,1.68,0,0,0-1.59-1,1.86,1.86,0,0,0-1.31.61,1.55,1.55,0,0,0-.4.68.55.55,0,0,0,.25.59l.1,0a4.47,4.47,0,0,0-.87,1.95,1.34,1.34,0,0,0,0,.43v0a.73.73,0,0,0,.15.35.7.7,0,0,0,.57.24h1.42v3.25a1.6,1.6,0,0,0-1,.38c-.5.34-2.2.67-5,1a11.28,11.28,0,0,1-.3-2.61,11.11,11.11,0,0,1,.52-3.4,9.22,9.22,0,0,1,1.42-2.77,6.8,6.8,0,0,1,2.09-1.86,5.12,5.12,0,0,1,5.09,0,6.8,6.8,0,0,1,2.09,1.86A9.22,9.22,0,0,1,334.4,562a11.11,11.11,0,0,1,.52,3.4,11.27,11.27,0,0,1-.31,2.65,18.71,18.71,0,0,1-3.84-.76l-.4-.14a2.81,2.81,0,0,0-1.1-.25h-.06a2.32,2.32,0,0,0-.65-.22Zm2.69-9.11a2.52,2.52,0,0,1-.45.13,1.82,1.82,0,0,1-.33,0,1.08,1.08,0,0,1-.64-.18h0a1.41,1.41,0,0,1,.37-.15,1.35,1.35,0,0,1,.54,0,1.6,1.6,0,0,1,.51.18h0m.25.7h0a1.16,1.16,0,0,1-.33.06h0a1.4,1.4,0,0,1-.87-.32h0a1.53,1.53,0,0,1,.37-.07,1,1,0,0,1,.86.33m-1.36-1.09a2,2,0,0,1-.62.16.1.1,0,0,0,0,.18,2.13,2.13,0,0,1,.4.38h0a1.61,1.61,0,0,1-1.2-.55h0a1,1,0,0,1,.33-.2,1.87,1.87,0,0,1,1.13,0h0m-1.27-.21a1.78,1.78,0,0,1-.58.28.1.1,0,0,0,0,.19,1.81,1.81,0,0,1,.46.27h-.26a1.7,1.7,0,0,1-1-.29h0a1,1,0,0,1,.28-.26,1.87,1.87,0,0,1,1.12-.22h0m-1.31,0a1.4,1.4,0,0,1-.52.4.1.1,0,0,0,0,.19,2.2,2.2,0,0,1,.51.17h0l-.34.09a2,2,0,0,1-.35,0,1.44,1.44,0,0,1-.61-.12h0a1,1,0,0,1,.21-.31,1.88,1.88,0,0,1,1.07-.46h0m-1.68.8a.1.1,0,0,0,.07.18h0l.26,0,.27.06h0l-.33.14a1.88,1.88,0,0,1-.61.11,1.31,1.31,0,0,1-.36,0h0c0-.21.24-.75,1.15-1.05h0a1.65,1.65,0,0,1-.46.59m9.29,5.44a1.62,1.62,0,0,1,.25-.78h0a2.39,2.39,0,0,1,.12.64,1.6,1.6,0,0,1-.08.57,1.23,1.23,0,0,1-.21.39h0a1.52,1.52,0,0,1-.59-.76,2.29,2.29,0,0,1-.1-.33h0a2.17,2.17,0,0,1,.42.34.1.1,0,0,0,.18-.06m-.41-1.13a1.61,1.61,0,0,1,.17-.8h0a2.4,2.4,0,0,1,.19.63,1.6,1.6,0,0,1,0,.57,1.23,1.23,0,0,1-.17.41h0a1.52,1.52,0,0,1-.67-.7,2.29,2.29,0,0,1-.14-.32h0a2.18,2.18,0,0,1,.45.3.1.1,0,0,0,.17-.08m-.57-1h0a.1.1,0,0,0,0-.1,1.61,1.61,0,0,1,.07-.81h0a2.41,2.41,0,0,1,.26.6,1.6,1.6,0,0,1,.05.57,1.22,1.22,0,0,1-.12.42h0a1.5,1.5,0,0,1-.76-.62,2,2,0,0,1-.17-.31h0a1.64,1.64,0,0,1,.49.26.1.1,0,0,0,.11,0m-.76-1a.1.1,0,0,0,.16-.11,1.79,1.79,0,0,1-.05-.81h0a2.4,2.4,0,0,1,.34.54,1.61,1.61,0,0,1,.14.56,1.2,1.2,0,0,1,0,.44h0a1.54,1.54,0,0,1-.83-.49,2.3,2.3,0,0,1-.23-.29h0a1.16,1.16,0,0,1,.52.18m-.76-.87a.1.1,0,0,0,.13-.14,1.61,1.61,0,0,1-.19-.79h0a2.4,2.4,0,0,1,.42.48,1.68,1.68,0,0,1,.23.53,1.3,1.3,0,0,1,0,.45h0a1.48,1.48,0,0,1-.86-.34,2.65,2.65,0,0,1-.29-.26h0a1.56,1.56,0,0,1,.5.09m-.3-.79a1.34,1.34,0,0,1,.09.5h-.06a2.42,2.42,0,0,1-1.16-.45h0a1.41,1.41,0,0,1,.52,0,.1.1,0,0,0,.11-.16,2.09,2.09,0,0,1-.32-.61h0a1.26,1.26,0,0,1,.83.73M324.78,556l.06,0a5.62,5.62,0,0,1,.6-.17,1.62,1.62,0,0,0,.47-.19.07.07,0,0,0,0-.13l-1.21-.18,1.21-.18a.07.07,0,0,0,0-.14,2.32,2.32,0,0,1-.53-.16l-.21-.11a1.87,1.87,0,0,0-.35-.16h.06a5.59,5.59,0,0,1,.62.07,1.61,1.61,0,0,0,.51,0,.07.07,0,0,0,0-.13l-1-.62,1.18.3a.07.07,0,0,0,.05-.13,2.3,2.3,0,0,1-.43-.35l-.15-.18a1.87,1.87,0,0,0-.26-.28l.06,0a5.67,5.67,0,0,1,.54.3,1.62,1.62,0,0,0,.46.2.07.07,0,0,0,.07,0,.07.07,0,0,0,0-.08l-.73-1,1,.72a.07.07,0,0,0,.1-.1,2.3,2.3,0,0,1-.26-.49c0-.08-.05-.15-.07-.23a1.88,1.88,0,0,0-.13-.36l0,0a5.64,5.64,0,0,1,.38.49,1.63,1.63,0,0,0,.35.36.07.07,0,0,0,.11-.07l-.3-1.18.63,1a.07.07,0,0,0,.13-.05,2.3,2.3,0,0,1-.05-.55c0-.09,0-.16,0-.24a1.88,1.88,0,0,0,0-.38l0,.06a5.65,5.65,0,0,1,.17.6,1.62,1.62,0,0,0,.18.47.07.07,0,0,0,.07,0,.07.07,0,0,0,.05-.06l.17-1.19.17,1.19a.07.07,0,0,0,.14,0,2.28,2.28,0,0,1,.16-.53l.11-.21a1.88,1.88,0,0,0,.16-.35v.06a5.66,5.66,0,0,1-.07.62,1.63,1.63,0,0,0,0,.51.07.07,0,0,0,.13,0l.62-1-.3,1.18a.07.07,0,0,0,.13.05,2.3,2.3,0,0,1,.35-.43l.18-.15a1.87,1.87,0,0,0,.28-.26l0,.06a5.68,5.68,0,0,1-.3.54,1.64,1.64,0,0,0-.2.46.07.07,0,0,0,.11.07l1-.73-.73,1a.07.07,0,0,0,0,.09.07.07,0,0,0,.09,0,2.31,2.31,0,0,1,.49-.26l.23-.07a1.88,1.88,0,0,0,.36-.13l0,0a5.61,5.61,0,0,1-.49.38,1.63,1.63,0,0,0-.36.35.07.07,0,0,0,.07.11l1.18-.3-1,.63a.07.07,0,0,0,0,.09.07.07,0,0,0,.08,0,2.3,2.3,0,0,1,.55-.05l.24,0a1.9,1.9,0,0,0,.38,0l-.06,0a5.58,5.58,0,0,1-.6.17,1.61,1.61,0,0,0-.47.18.07.07,0,0,0,0,.13l1.2.17-1.2.18a.07.07,0,0,0,0,.14,2.29,2.29,0,0,1,.53.16l.21.11a1.88,1.88,0,0,0,.34.16h-.06a5.62,5.62,0,0,1-.62-.07h0a1.7,1.7,0,0,0-.67-.15h0a.14.14,0,0,0-.09-.1,2.87,2.87,0,0,0-.91-.17l-.29,0v0a.14.14,0,0,0-.11-.08,2.88,2.88,0,0,0-.93,0l-.31.09a.14.14,0,0,0,0-.08.14.14,0,0,0-.11,0,2.86,2.86,0,0,0-.9.21l-.19.1a.14.14,0,0,0-.17-.12,2.81,2.81,0,0,0-.86.38h-.2l-.24,0a1.88,1.88,0,0,0-.38,0m.32.35h0a1.61,1.61,0,0,1-.27.77.1.1,0,0,0,.11.16,2.21,2.21,0,0,1,.52,0h0a2,2,0,0,1-1.15.48h-.06a1.63,1.63,0,0,1,.83-1.38m-1.66,1.76a1.61,1.61,0,0,1,.23-.53,2.43,2.43,0,0,1,.44-.49h0a1.61,1.61,0,0,1-.19.8.1.1,0,0,0,.12.14,2,2,0,0,1,.51-.09h0a3.23,3.23,0,0,1-.3.26,1.45,1.45,0,0,1-.81.35h0a1.21,1.21,0,0,1,0-.45m-.27-.14h0a1.6,1.6,0,0,1-.06.82.1.1,0,0,0,.15.12,1.18,1.18,0,0,1,.51-.18h0a1.83,1.83,0,0,1-1.06.78h0a1.62,1.62,0,0,1,.44-1.55m-1.06,1.59a2.4,2.4,0,0,1,.28-.59h0a1.6,1.6,0,0,1,0,.82.1.1,0,0,0,.17.09,1,1,0,0,1,.5-.24h0a2.24,2.24,0,0,1-.2.33,1.48,1.48,0,0,1-.77.58h0a1.22,1.22,0,0,1-.1-.43,1.6,1.6,0,0,1,.07-.57m-.57,1.1a2.39,2.39,0,0,1,.19-.63h0a1.61,1.61,0,0,1,.16.8.1.1,0,0,0,.17.08,2.09,2.09,0,0,1,.48-.3h0a1.56,1.56,0,0,1-.84,1h0a1.21,1.21,0,0,1-.16-.41,1.6,1.6,0,0,1,0-.57m-.31.51h0a1.61,1.61,0,0,1,.26.78.1.1,0,0,0,.18.06,1.81,1.81,0,0,1,.43-.36h0a1.59,1.59,0,0,1-.07.32,1.46,1.46,0,0,1-.63.8h0a1.23,1.23,0,0,1-.22-.39,1.61,1.61,0,0,1-.08-.57,2.39,2.39,0,0,1,.11-.64m-.35,1.19h0a1.62,1.62,0,0,1,.36.74.1.1,0,0,0,.18,0,2.11,2.11,0,0,1,.38-.4h0a1.84,1.84,0,0,1,0,.32,1.61,1.61,0,0,1-.5.86h0a1.22,1.22,0,0,1-.26-.35,1.61,1.61,0,0,1-.15-.55,2.39,2.39,0,0,1,0-.65m-.18,1.2h0a1.63,1.63,0,0,1,.39.72.1.1,0,0,0,.19,0,1.5,1.5,0,0,1,.32-.42h0a2.25,2.25,0,0,1,0,.36,1.46,1.46,0,0,1-.42.86h0a1.24,1.24,0,0,1-.28-.34,1.61,1.61,0,0,1-.18-.55,2.39,2.39,0,0,1,0-.65m-.1,1.26h0l.08.08a1.66,1.66,0,0,1,.36.62.1.1,0,0,0,.2,0,.88.88,0,0,1,.26-.45h0a1.87,1.87,0,0,1,0,.59,1.21,1.21,0,0,1-.35.69h0a1.62,1.62,0,0,1-.56-1.51m0,1.22h0l.08.07a1.67,1.67,0,0,1,.42.58.1.1,0,0,0,.09.06h0a.1.1,0,0,0,.09-.06,2.09,2.09,0,0,1,.29-.48h0a1.57,1.57,0,0,1-.29,1.28h0a1.63,1.63,0,0,1-.71-1.44h0m.06,1.27h0a1.63,1.63,0,0,1,.61.55.1.1,0,0,0,.18,0h0a2.1,2.1,0,0,1,.21-.53h0a1.47,1.47,0,0,1,.11.32,1.36,1.36,0,0,1-.17,1h0a1.24,1.24,0,0,1-.38-.23,1.63,1.63,0,0,1-.35-.45,2.4,2.4,0,0,1-.22-.61m.29,1.18h0l.1,0a1.68,1.68,0,0,1,.55.46.1.1,0,0,0,.18,0,2.12,2.12,0,0,1,.16-.53h0a1.59,1.59,0,0,1,0,1.3h0a1.64,1.64,0,0,1-1.05-1.23m.71,1.75a2.41,2.41,0,0,1-.33-.56h0l.1,0a1.69,1.69,0,0,1,.6.39.1.1,0,0,0,.17-.07,2.11,2.11,0,0,1,.09-.53h0a2.11,2.11,0,0,1,.15.31,1.49,1.49,0,0,1,.05,1h0a1.26,1.26,0,0,1-.42-.16,1.64,1.64,0,0,1-.44-.38m.17.56h0a1.66,1.66,0,0,1,.75.34.1.1,0,0,0,.16-.09,1.85,1.85,0,0,1,0-.53h0a2.45,2.45,0,0,1,.18.3,1.57,1.57,0,0,1,.17.94h0a1.24,1.24,0,0,1-.43-.11,1.64,1.64,0,0,1-.48-.33,2.42,2.42,0,0,1-.4-.52m2.34,2a2,2,0,0,1-.12-.52h0a1.51,1.51,0,0,1,.61,1.16h-.16l-.24,0a2.21,2.21,0,0,1-1-.6h0a1.66,1.66,0,0,1,.82.11.1.1,0,0,0,.13-.13m-.92-.73a.1.1,0,0,0,.15-.11,1.67,1.67,0,0,1,0-.52h0a1.86,1.86,0,0,1,.49,1.19h-.05a1.29,1.29,0,0,1-.39-.06,1.65,1.65,0,0,1-.51-.28,2.43,2.43,0,0,1-.45-.48h0a1.66,1.66,0,0,1,.78.26m4-2.67-.09.06a1,1,0,0,0-.4.48l-.08,0c-.17-.05-.17-.14-.18-.17s0-.16.17-.28a.6.6,0,0,1,.38-.21l.11,0a.18.18,0,0,1,.1.08.07.07,0,0,1,0,0m.21.84a.56.56,0,0,1-.34,0,.12.12,0,0,1-.05-.1c0-.14.17-.29.28-.37a.8.8,0,0,1,.39-.19.2.2,0,0,1,.13.05s.05.06.05.08a.29.29,0,0,1-.11.15,1,1,0,0,0-.35.4m.86,0a.7.7,0,0,1-.45.16.18.18,0,0,1-.1-.06.9.9,0,0,1,.38-.34c.19-.11.27,0,.28,0s.05.09.05.1-.1.15-.15.18h0m-1.81-1.11-.08.07a.85.85,0,0,0-.25.37H326c-.11,0-.17-.05-.18-.08s0-.07,0-.15a.63.63,0,0,1,.44-.22h.11m4.37.21a.33.33,0,0,1-.23.07,3,3,0,0,0-1-.87.17.17,0,0,0-.15.3,2.68,2.68,0,0,1,.85.76l-.05.08a.35.35,0,0,1-.28.11,1.5,1.5,0,0,0-.23-.33,3.06,3.06,0,0,0-.45-.38.17.17,0,0,0-.2.28,2.71,2.71,0,0,1,.39.33,1.13,1.13,0,0,1,.18.25.4.4,0,0,1-.08.11.26.26,0,0,1-.23.07,1.89,1.89,0,0,0-.31-.47.17.17,0,0,0-.25.23,1.59,1.59,0,0,1,.23.34l-.09,0a.56.56,0,0,1-.27,0,.47.47,0,0,0,.08-.2.45.45,0,0,0-.15-.37.47.47,0,0,0-.41-.11.45.45,0,0,0-.16-.28.53.53,0,0,0-.53-.11h0a.5.5,0,0,0-.26-.26.59.59,0,0,0-.45,0,.69.69,0,0,0-.37-.14.94.94,0,0,0-.71.26c-1,.52-2.21,1.08-2.72,1.3a9.79,9.79,0,0,1-.67-1.6c0-.15-.1-.31-.14-.47,1.42-.16,2.57-.33,3.4-.5a5.36,5.36,0,0,0,1.73-.55,1.25,1.25,0,0,1,.88-.32l.21,0-.17.1-.29.22-.22.17-.23.12c-.2.1-.35.17-.41.31a.41.41,0,0,0,.07.41.62.62,0,0,0,.6.19,1.68,1.68,0,0,0,.69-.21l.19-.12a.79.79,0,0,1,.21-.12h0a.94.94,0,0,1,.59.06,3.34,3.34,0,0,1,.59.32,4,4,0,0,1,.87.8.28.28,0,0,1-.08.16m.62-.13a1.7,1.7,0,0,1-.3-.26h0l0,0a4.22,4.22,0,0,0-.9-.81,1.94,1.94,0,0,0-1.46-.43,1,1,0,0,0-.32.16l-.17.11a1.34,1.34,0,0,1-.54.16c-.16,0-.26,0-.3,0s0-.07,0-.09a1.56,1.56,0,0,1,.24-.13l.27-.15a2.69,2.69,0,0,0,.25-.19l.27-.21a1.06,1.06,0,0,1,.63-.13h.24a2.56,2.56,0,0,1,1,.23l.41.14s.57.18,1.32.36a16.07,16.07,0,0,0,2.51.41c0,.15-.08.29-.13.43a9.76,9.76,0,0,1-.7,1.66,11.78,11.78,0,0,1-2.26-1.19m2.1,3.61a2.19,2.19,0,0,1-1,.6l-.24,0h-.16a1.28,1.28,0,0,1,.35-.9,2.14,2.14,0,0,1,.26-.25h0a2.14,2.14,0,0,1-.13.51.1.1,0,0,0,.13.13,1.67,1.67,0,0,1,.82-.11h0m.77-1a2.42,2.42,0,0,1-.45.47,1.65,1.65,0,0,1-.51.28,1.29,1.29,0,0,1-.39.06h-.06a1.51,1.51,0,0,1,.27-.92,2.31,2.31,0,0,1,.21-.28h0a2.09,2.09,0,0,1,0,.53.1.1,0,0,0,.15.11,1.67,1.67,0,0,1,.78-.26h0m.23-.53a1.64,1.64,0,0,1-.48.33,1.26,1.26,0,0,1-.43.11h0a1.5,1.5,0,0,1,.17-.94,2.3,2.3,0,0,1,.18-.3h0a2.13,2.13,0,0,1,0,.53.1.1,0,0,0,.16.09,1.66,1.66,0,0,1,.75-.34h0a2.43,2.43,0,0,1-.4.52m.56-1.09a1.64,1.64,0,0,1-.44.38,1.24,1.24,0,0,1-.41.16h0a1.53,1.53,0,0,1,.06-1,2.12,2.12,0,0,1,.14-.3h0a2.37,2.37,0,0,1,.09.53.1.1,0,0,0,.18.06h0a1.47,1.47,0,0,1,.6-.41l.11,0h0a2.42,2.42,0,0,1-.34.58m.43-1.14a1.63,1.63,0,0,1-.39.42,1.26,1.26,0,0,1-.4.2h0a1.61,1.61,0,0,1,0-1,2.46,2.46,0,0,1,.11-.34h0a2.33,2.33,0,0,1,.15.54.1.1,0,0,0,.18.05,1.65,1.65,0,0,1,.66-.49h0a2.4,2.4,0,0,1-.28.59m.32-1.19a1.63,1.63,0,0,1-.34.47,1.24,1.24,0,0,1-.37.24h0a1.58,1.58,0,0,1-.17-1,2.27,2.27,0,0,1,.07-.34h0a2.35,2.35,0,0,1,.21.53.1.1,0,0,0,.18,0,1.64,1.64,0,0,1,.59-.57h0a2.4,2.4,0,0,1-.2.62"/><path class="cls-10" d="M330.53,555.84a1.71,1.71,0,0,1,.67.15h0a5.6,5.6,0,0,0,.62.07h.06a1.88,1.88,0,0,1-.34-.16l-.21-.11a2.3,2.3,0,0,0-.53-.16.07.07,0,0,1,0-.14l1.2-.18-1.2-.17a.07.07,0,0,1,0-.13,1.61,1.61,0,0,1,.47-.18,5.57,5.57,0,0,0,.6-.17l.06,0a1.9,1.9,0,0,1-.38,0l-.24,0a2.3,2.3,0,0,0-.55.05.07.07,0,0,1-.08,0,.07.07,0,0,1,0-.09l1-.63-1.18.3a.07.07,0,0,1-.07-.11,1.63,1.63,0,0,1,.36-.35,5.61,5.61,0,0,0,.49-.38l0,0a1.87,1.87,0,0,1-.36.13l-.23.07a2.31,2.31,0,0,0-.49.26.07.07,0,0,1-.09,0,.07.07,0,0,1,0-.09l.73-1-1,.73a.07.07,0,0,1-.11-.07,1.63,1.63,0,0,1,.2-.46,5.64,5.64,0,0,0,.3-.54l0-.06a1.87,1.87,0,0,1-.28.26l-.18.15a2.3,2.3,0,0,0-.35.43.07.07,0,0,1-.13-.05l.3-1.18-.62,1a.07.07,0,0,1-.13,0,1.63,1.63,0,0,1,0-.51,5.66,5.66,0,0,0,.07-.62v-.06a1.89,1.89,0,0,1-.16.35l-.11.21a2.28,2.28,0,0,0-.16.53.07.07,0,0,1-.14,0l-.17-1.19-.17,1.19a.07.07,0,0,1-.05.06.07.07,0,0,1-.07,0,1.62,1.62,0,0,1-.18-.47,5.64,5.64,0,0,0-.17-.6l0-.06a1.88,1.88,0,0,1,0,.38c0,.07,0,.15,0,.24a2.3,2.3,0,0,0,.05.55.07.07,0,0,1-.13.05l-.63-1,.3,1.18a.07.07,0,0,1-.11.07,1.63,1.63,0,0,1-.35-.36,5.64,5.64,0,0,0-.38-.49l0,0a1.88,1.88,0,0,1,.13.36c0,.07,0,.15.07.23a2.3,2.3,0,0,0,.26.49.07.07,0,0,1-.1.1l-1-.72.73,1a.07.07,0,0,1,0,.08.07.07,0,0,1-.07,0,1.62,1.62,0,0,1-.46-.2,5.64,5.64,0,0,0-.54-.3l-.06,0a1.87,1.87,0,0,1,.26.28l.15.18a2.3,2.3,0,0,0,.43.35.07.07,0,0,1-.05.13l-1.18-.3,1,.62a.07.07,0,0,1,0,.13,1.61,1.61,0,0,1-.51,0,5.55,5.55,0,0,0-.62-.07h-.06a1.88,1.88,0,0,1,.35.16l.21.11a2.31,2.31,0,0,0,.53.16.07.07,0,0,1,.06.07.07.07,0,0,1-.06.07l-1.21.18,1.21.18a.07.07,0,0,1,0,.13,1.62,1.62,0,0,1-.47.19,5.62,5.62,0,0,0-.6.17l-.06,0a1.87,1.87,0,0,1,.38,0l.24,0h.2a2.82,2.82,0,0,1,.86-.38.14.14,0,0,1,.17.12l.19-.1a2.87,2.87,0,0,1,.9-.21.14.14,0,0,1,.11,0,.14.14,0,0,1,0,.08l.31-.09a2.88,2.88,0,0,1,.93,0,.14.14,0,0,1,.11.08v0l.29,0a2.87,2.87,0,0,1,.91.17.14.14,0,0,1,.09.1h0"/><path class="cls-9" d="M328.78,554.32c1.17-.19,1.3.15,1.3.15a.1.1,0,0,0,.13.05s.08,0,0-.1-.13-.38-.75-.45a2.49,2.49,0,0,0-.67,0c-.1,0-.13.25-.13.25s.09.08.09.08"/><path class="cls-9" d="M327.78,554.54a1.44,1.44,0,0,0-.47-.05.71.71,0,0,0-.67.35c0,.11,0,.12,0,.12a.12.12,0,0,0,.15-.06s0-.09.25-.15a.27.27,0,1,0,.5,0,.35.35,0,0,1,.19.18s.06.06.16.06.08-.07.08-.07a.52.52,0,0,0-.24-.36"/><path class="cls-9" d="M328.75,555c.1,0,.14,0,.16-.06a.35.35,0,0,1,.19-.18.27.27,0,1,0,.5,0c.22.05.25.15.25.15a.12.12,0,0,0,.15.06s.09,0,0-.12a.71.71,0,0,0-.67-.35,1.44,1.44,0,0,0-.47.05.52.52,0,0,0-.24.36s0,.07.08.07"/><path class="cls-9" d="M326.49,554.52a.1.1,0,0,0,.13-.05s.13-.34,1.3-.15c0,0,.11,0,.09-.08s0-.23-.13-.25a2.49,2.49,0,0,0-.67,0c-.62.07-.75.45-.75.45s0,.1,0,.1"/><path class="cls-11" d="M333.53,572.86a1.67,1.67,0,0,0-.82.11.1.1,0,0,1-.13-.13,2.14,2.14,0,0,0,.13-.51h0a2.14,2.14,0,0,0-.26.26,1.28,1.28,0,0,0-.35.9h.16l.24,0a2.18,2.18,0,0,0,1-.6h0"/><path class="cls-11" d="M324,572.31h0a2,2,0,0,0,.12.52.1.1,0,0,1-.13.13,1.66,1.66,0,0,0-.82-.11h0a2.21,2.21,0,0,0,1,.6l.24,0h.17a1.51,1.51,0,0,0-.61-1.16"/><path class="cls-11" d="M334.29,571.83a1.67,1.67,0,0,0-.78.26.1.1,0,0,1-.15-.11,2.1,2.1,0,0,0,0-.53h0a2.33,2.33,0,0,0-.21.28,1.51,1.51,0,0,0-.27.92h.06a1.29,1.29,0,0,0,.39-.06,1.65,1.65,0,0,0,.51-.28,2.42,2.42,0,0,0,.45-.47h0"/><path class="cls-11" d="M334.92,570.78a1.66,1.66,0,0,0-.75.34A.1.1,0,0,1,334,571a2.13,2.13,0,0,0,0-.53h0a2.3,2.3,0,0,0-.18.3,1.5,1.5,0,0,0-.17.94h0a1.26,1.26,0,0,0,.43-.11,1.64,1.64,0,0,0,.48-.33,2.42,2.42,0,0,0,.4-.52h0"/><path class="cls-11" d="M335.43,569.63l-.11,0a1.47,1.47,0,0,0-.6.41.1.1,0,0,1-.18-.06,2.37,2.37,0,0,0-.09-.53h0a2.12,2.12,0,0,0-.14.3,1.53,1.53,0,0,0-.06,1h0a1.24,1.24,0,0,0,.41-.16,1.64,1.64,0,0,0,.44-.38,2.42,2.42,0,0,0,.34-.58h0"/><path class="cls-11" d="M335.79,568.47a1.65,1.65,0,0,0-.66.49.1.1,0,0,1-.18-.05,2.33,2.33,0,0,0-.15-.54h0a2.42,2.42,0,0,0-.11.34,1.61,1.61,0,0,0,0,1h0a1.26,1.26,0,0,0,.4-.2,1.64,1.64,0,0,0,.4-.42,2.41,2.41,0,0,0,.28-.59h0"/><path class="cls-11" d="M336,567.25a1.64,1.64,0,0,0-.59.57.1.1,0,0,1-.18,0,2.34,2.34,0,0,0-.21-.53h0a2.25,2.25,0,0,0-.07.34,1.58,1.58,0,0,0,.17,1h0a1.23,1.23,0,0,0,.37-.24,1.62,1.62,0,0,0,.34-.47,2.4,2.4,0,0,0,.2-.62h0"/><path class="cls-11" d="M335.61,566.65a.1.1,0,0,1-.19,0,1.79,1.79,0,0,0-.26-.48h0a2,2,0,0,0,0,.35,1.49,1.49,0,0,0,.27.94h0a1.24,1.24,0,0,0,.34-.28,1.61,1.61,0,0,0,.28-.5,2.39,2.39,0,0,0,.13-.64h0a1.63,1.63,0,0,0-.52.63"/><path class="cls-11" d="M335.57,565.55a.1.1,0,0,1-.1-.06,2.13,2.13,0,0,0-.3-.44h0a1.82,1.82,0,0,0,.35,1.23h0a1.23,1.23,0,0,0,.31-.31,1.6,1.6,0,0,0,.23-.53,2.39,2.39,0,0,0,.06-.65h0a1.62,1.62,0,0,0-.46.68.1.1,0,0,1-.09.07"/><path class="cls-11" d="M335.51,564.35a.1.1,0,0,1-.1,0,2.17,2.17,0,0,0-.33-.4h0a1.87,1.87,0,0,0,.46,1.19h0a1.23,1.23,0,0,0,.28-.35,1.61,1.61,0,0,0,.18-.55,2.39,2.39,0,0,0,0-.65h0a1.62,1.62,0,0,0-.39.72.1.1,0,0,1-.08.08"/><path class="cls-11" d="M335.36,563.19a.1.1,0,0,1-.1,0,2.15,2.15,0,0,0-.36-.39h0a2.49,2.49,0,0,0,.06.35,1.58,1.58,0,0,0,.47.83h0a1.23,1.23,0,0,0,.26-.36,1.61,1.61,0,0,0,.15-.55,2.39,2.39,0,0,0,0-.65h0a1.62,1.62,0,0,0-.36.74.1.1,0,0,1-.08.08"/><path class="cls-11" d="M335.1,562a.1.1,0,0,1-.11,0,2.16,2.16,0,0,0-.42-.34h0a2.28,2.28,0,0,0,.1.33,1.52,1.52,0,0,0,.59.76h0a1.23,1.23,0,0,0,.21-.39,1.61,1.61,0,0,0,.08-.57,2.39,2.39,0,0,0-.12-.64h0a1.62,1.62,0,0,0-.25.78.1.1,0,0,1-.07.09"/><path class="cls-11" d="M334.59,560.91a2.18,2.18,0,0,0-.45-.3h0a2.29,2.29,0,0,0,.14.32,1.52,1.52,0,0,0,.67.7h0a1.23,1.23,0,0,0,.17-.41,1.6,1.6,0,0,0,0-.57,2.39,2.39,0,0,0-.19-.63h0a1.62,1.62,0,0,0-.17.8.1.1,0,0,1-.17.08"/><path class="cls-11" d="M333.58,559.62h0a2,2,0,0,0,.17.31,1.5,1.5,0,0,0,.76.62h0a1.22,1.22,0,0,0,.12-.42,1.61,1.61,0,0,0-.05-.57,2.41,2.41,0,0,0-.26-.6h0a1.61,1.61,0,0,0-.07.81.1.1,0,0,1-.16.1,1.63,1.63,0,0,0-.49-.26h0"/><path class="cls-11" d="M332.91,558.73h0a2.3,2.3,0,0,0,.23.29,1.54,1.54,0,0,0,.83.49h0a1.2,1.2,0,0,0,0-.44,1.61,1.61,0,0,0-.14-.56,2.41,2.41,0,0,0-.34-.54h0a1.79,1.79,0,0,0,.05.81.1.1,0,0,1-.16.11,1.16,1.16,0,0,0-.52-.18h0"/><path class="cls-11" d="M332.78,558a.1.1,0,0,1-.11,0,1.56,1.56,0,0,0-.5-.09h0a2.65,2.65,0,0,0,.29.26,1.48,1.48,0,0,0,.86.34h0a1.31,1.31,0,0,0,0-.45,1.68,1.68,0,0,0-.23-.53,2.39,2.39,0,0,0-.42-.48h0a1.61,1.61,0,0,0,.19.79.1.1,0,0,1,0,.12"/><path class="cls-11" d="M323.77,572.66h.05a1.86,1.86,0,0,0-.49-1.19h0a1.67,1.67,0,0,0,0,.52.1.1,0,0,1-.15.11,1.66,1.66,0,0,0-.78-.26h0a2.43,2.43,0,0,0,.45.48,1.65,1.65,0,0,0,.51.28,1.28,1.28,0,0,0,.39.06"/><path class="cls-11" d="M323.09,571.75h0a1.57,1.57,0,0,0-.17-.94,2.44,2.44,0,0,0-.18-.3h0a1.86,1.86,0,0,0,0,.53.1.1,0,0,1-.16.09,1.65,1.65,0,0,0-.75-.34h0a2.42,2.42,0,0,0,.4.52,1.64,1.64,0,0,0,.48.33,1.25,1.25,0,0,0,.43.11"/><path class="cls-11" d="M322.47,570.77h0a1.49,1.49,0,0,0-.05-1,2.12,2.12,0,0,0-.15-.31h0a2.11,2.11,0,0,0-.09.53.1.1,0,0,1-.17.07,1.69,1.69,0,0,0-.6-.39l-.1,0h0a2.42,2.42,0,0,0,.33.56,1.64,1.64,0,0,0,.44.38,1.26,1.26,0,0,0,.42.16"/><path class="cls-11" d="M322,569.72h0a1.59,1.59,0,0,0,0-1.3h0a2.11,2.11,0,0,0-.16.53.1.1,0,0,1-.18,0,1.68,1.68,0,0,0-.55-.46l-.1,0h0a1.64,1.64,0,0,0,1.05,1.23"/><path class="cls-11" d="M321.19,568.38a1.25,1.25,0,0,0,.38.23h0a1.36,1.36,0,0,0,.17-1,1.46,1.46,0,0,0-.11-.32h0a2.09,2.09,0,0,0-.21.53h0a.1.1,0,0,1-.18,0,1.63,1.63,0,0,0-.61-.55h0a2.39,2.39,0,0,0,.22.61,1.63,1.63,0,0,0,.35.45"/><path class="cls-11" d="M321.26,567.49h0a1.57,1.57,0,0,0,.29-1.28h0a2.08,2.08,0,0,0-.29.48.1.1,0,0,1-.09.06h0a.1.1,0,0,1-.09-.06,1.67,1.67,0,0,0-.42-.58l-.08-.07h0a1.63,1.63,0,0,0,.71,1.44"/><path class="cls-11" d="M321.16,566.33h0a1.21,1.21,0,0,0,.35-.69,1.87,1.87,0,0,0,0-.59h0a.88.88,0,0,0-.26.45.1.1,0,0,1-.2,0,1.66,1.66,0,0,0-.36-.62l-.08-.08h0a1.62,1.62,0,0,0,.56,1.51"/><path class="cls-11" d="M320.88,564.76a1.24,1.24,0,0,0,.28.34h0a1.46,1.46,0,0,0,.42-.86,2.26,2.26,0,0,0,0-.36h0a1.51,1.51,0,0,0-.32.42.1.1,0,0,1-.19,0,1.62,1.62,0,0,0-.39-.72h0a2.39,2.39,0,0,0,0,.65,1.61,1.61,0,0,0,.18.55"/><path class="cls-11" d="M321,563.57a1.22,1.22,0,0,0,.26.35h0a1.61,1.61,0,0,0,.5-.86,1.84,1.84,0,0,0,0-.32h0a2.1,2.1,0,0,0-.38.4.1.1,0,0,1-.18,0,1.62,1.62,0,0,0-.36-.74h0a2.39,2.39,0,0,0,0,.65,1.61,1.61,0,0,0,.15.55"/><path class="cls-11" d="M321.42,562.77h0a1.46,1.46,0,0,0,.63-.8,1.6,1.6,0,0,0,.07-.32h0a1.81,1.81,0,0,0-.43.36.1.1,0,0,1-.18-.06,1.61,1.61,0,0,0-.26-.78h0a2.39,2.39,0,0,0-.11.64,1.61,1.61,0,0,0,.08.57,1.23,1.23,0,0,0,.22.38"/><path class="cls-11" d="M321.72,561.64h0a1.56,1.56,0,0,0,.84-1h0a2.11,2.11,0,0,0-.48.3.1.1,0,0,1-.17-.08,1.61,1.61,0,0,0-.16-.8h0a2.4,2.4,0,0,0-.19.63,1.61,1.61,0,0,0,0,.57,1.22,1.22,0,0,0,.16.41"/><path class="cls-11" d="M322.15,560.56h0a1.47,1.47,0,0,0,.77-.58,2.23,2.23,0,0,0,.2-.33h0a1,1,0,0,0-.5.24.1.1,0,0,1-.17-.09,1.61,1.61,0,0,0,0-.82h0a2.4,2.4,0,0,0-.28.59,1.6,1.6,0,0,0-.07.57,1.22,1.22,0,0,0,.1.43"/><path class="cls-11" d="M322.74,559.52h0a1.83,1.83,0,0,0,1.06-.78h0a1.18,1.18,0,0,0-.51.18.1.1,0,0,1-.15-.12,1.61,1.61,0,0,0,.06-.82h0a1.62,1.62,0,0,0-.44,1.55h0"/><path class="cls-11" d="M323.43,558.56h0a1.45,1.45,0,0,0,.8-.35,3.19,3.19,0,0,0,.3-.26h0a2,2,0,0,0-.51.09.1.1,0,0,1-.13-.14,1.61,1.61,0,0,0,.19-.79h0a2.43,2.43,0,0,0-.44.49,1.61,1.61,0,0,0-.23.53,1.21,1.21,0,0,0,0,.45h0"/><path class="cls-11" d="M325.48,557.25a2.18,2.18,0,0,0-.52,0,.1.1,0,0,1-.11,0,.1.1,0,0,1,0-.11,1.61,1.61,0,0,0,.27-.77h0a1.63,1.63,0,0,0-.83,1.38h.06a2,2,0,0,0,1.15-.48h0"/><path class="cls-11" d="M326.48,556.77l-.27-.06-.26,0h0a.1.1,0,0,1-.07-.18,1.65,1.65,0,0,0,.46-.59h0c-.91.31-1.11.84-1.16,1.06h0a1.31,1.31,0,0,0,.36,0,1.88,1.88,0,0,0,.61-.11l.32-.14h0"/><path class="cls-11" d="M327.57,556.48a2.2,2.2,0,0,0-.51-.17.1.1,0,0,1,0-.19,1.4,1.4,0,0,0,.52-.4h0a1.88,1.88,0,0,0-1.07.46.94.94,0,0,0-.21.31h0a1.45,1.45,0,0,0,.61.12,2,2,0,0,0,.35,0l.34-.09h0"/><path class="cls-11" d="M328.28,556.17a.1.1,0,0,1,0-.19,1.78,1.78,0,0,0,.58-.28h0a1.88,1.88,0,0,0-1.12.22,1,1,0,0,0-.28.26h0a1.7,1.7,0,0,0,1,.29h.26a1.8,1.8,0,0,0-.46-.27"/><path class="cls-11" d="M329.48,556.25a.1.1,0,0,1,0-.18,2,2,0,0,0,.62-.16h0a1.87,1.87,0,0,0-1.13,0,1,1,0,0,0-.33.2h0a1.61,1.61,0,0,0,1.2.55h0a2.13,2.13,0,0,0-.4-.38"/><path class="cls-11" d="M332.45,557.74h0a1.34,1.34,0,0,0-.09-.5,1.25,1.25,0,0,0-.83-.73h0a2.08,2.08,0,0,0,.32.61.1.1,0,0,1-.1.16,1.41,1.41,0,0,0-.52,0h0a2.42,2.42,0,0,0,1.16.45h.05"/><path class="cls-11" d="M331.5,557h0a1,1,0,0,0-.87-.33,1.53,1.53,0,0,0-.37.07h0a1.39,1.39,0,0,0,.86.32h0a1.15,1.15,0,0,0,.33-.06h0"/><path class="cls-11" d="M329.83,556.27h0a1.08,1.08,0,0,0,.64.18,1.82,1.82,0,0,0,.33,0,2.53,2.53,0,0,0,.45-.13h0a1.6,1.6,0,0,0-.51-.18,1.35,1.35,0,0,0-.54,0,1.41,1.41,0,0,0-.37.15h0"/><path class="cls-12" d="M326.43,562.91a.35.35,0,0,0,.28.1H328a1.37,1.37,0,0,0-1.64-.15l0,0"/><path class="cls-12" d="M329.65,562.31l-.35-.11a3.5,3.5,0,0,1-.77-.45.19.19,0,1,1,.24-.3,3.12,3.12,0,0,0,.68.39l.3.09a2.72,2.72,0,0,1,.53.18c0-.22-.07-.4-.11-.58a2.66,2.66,0,0,1-1-.49.19.19,0,0,1,.25-.3,2.46,2.46,0,0,0,.64.36,7.49,7.49,0,0,0-.58-1.5,1.34,1.34,0,0,0-.78-.69,1.25,1.25,0,0,0-.45-.07h0a1.52,1.52,0,0,0-1,.48h0a1.22,1.22,0,0,0-.3.48.19.19,0,0,0,.07.21s.13.06.31-.07l.08-.06a.19.19,0,0,1,.24.31l-.08.06a2.76,2.76,0,0,0-.42.46,4.2,4.2,0,0,0-.72,1.69v0c.55-.24,1-.34,2,.29a1.85,1.85,0,0,0,.91.27h.45a.83.83,0,0,0,.58-.17.29.29,0,0,0,.06-.09c0-.23-.22-.32-.68-.44"/><path class="cls-13" d="M327.75,569.87a.29.29,0,0,0,.11-.15s0-.05-.05-.08a.2.2,0,0,0-.13-.05.8.8,0,0,0-.39.19c-.11.08-.29.23-.28.37a.12.12,0,0,0,.05.1.56.56,0,0,0,.34,0,1,1,0,0,1,.35-.4"/><path class="cls-13" d="M328.42,570.11s0,0-.05-.1-.09-.07-.28,0a.9.9,0,0,0-.38.34.18.18,0,0,0,.1.06.7.7,0,0,0,.45-.16h0s.14-.11.15-.18"/><path class="cls-13" d="M326.37,569.17h0a.63.63,0,0,0-.44.22c-.06.08,0,.13,0,.15s.07.06.18.08h.07a.85.85,0,0,1,.25-.37l.08-.07h-.07"/><path class="cls-13" d="M326.43,569.78s0,.12.18.17l.08,0a1,1,0,0,1,.4-.48l.09-.06a.07.07,0,0,0,0,0,.18.18,0,0,0-.1-.08l-.11,0a.6.6,0,0,0-.38.21c-.13.12-.17.2-.17.28"/><path class="cls-13" d="M330.59,569.47a.33.33,0,0,0,.23-.07.28.28,0,0,0,.08-.16,4,4,0,0,0-.87-.8,3.34,3.34,0,0,0-.59-.32.94.94,0,0,0-.59-.06h0a.78.78,0,0,0-.21.12l-.19.12a1.68,1.68,0,0,1-.69.21.62.62,0,0,1-.6-.19.41.41,0,0,1-.07-.41c.05-.14.21-.21.41-.31l.23-.12.22-.17.29-.22.17-.1-.21,0a1.25,1.25,0,0,0-.88.32,5.36,5.36,0,0,1-1.73.55c-.83.17-2,.33-3.4.5,0,.16.09.32.14.47a9.8,9.8,0,0,0,.67,1.6c.51-.22,1.75-.78,2.72-1.3a.94.94,0,0,1,.71-.26.69.69,0,0,1,.37.14.59.59,0,0,1,.45,0,.5.5,0,0,1,.26.26h0a.53.53,0,0,1,.53.11.45.45,0,0,1,.16.28.47.47,0,0,1,.41.11.45.45,0,0,1,.15.37.47.47,0,0,1-.08.2.56.56,0,0,0,.27,0l.09,0a1.59,1.59,0,0,0-.23-.34.17.17,0,1,1,.25-.23,1.89,1.89,0,0,1,.31.47.26.26,0,0,0,.23-.07.4.4,0,0,0,.08-.11,1.13,1.13,0,0,0-.18-.25,2.71,2.71,0,0,0-.39-.32.17.17,0,1,1,.2-.28,3.07,3.07,0,0,1,.45.38,1.49,1.49,0,0,1,.23.33.35.35,0,0,0,.28-.11l.05-.08a2.68,2.68,0,0,0-.85-.76.17.17,0,1,1,.15-.3,3,3,0,0,1,1,.87"/><path class="cls-13" d="M328.42,567.89a1,1,0,0,1,.32-.16,1.94,1.94,0,0,1,1.46.43,4.22,4.22,0,0,1,.9.81l0,0h0a1.7,1.7,0,0,0,.3.26,11.78,11.78,0,0,0,2.26,1.19,9.76,9.76,0,0,0,.7-1.66c0-.14.09-.28.13-.43A16.07,16.07,0,0,1,332,568c-.75-.18-1.3-.35-1.32-.36l-.41-.14a2.56,2.56,0,0,0-1-.23H329a1.06,1.06,0,0,0-.63.13l-.27.21a2.71,2.71,0,0,1-.25.19l-.27.14a1.57,1.57,0,0,0-.24.13s0,0,0,.09.14.06.3,0a1.33,1.33,0,0,0,.54-.16l.17-.11"/><path class="cls-7" d="M26.27,556.3h1.24l2,3.13,2-3.13h1.24v6.62H31.61v-4.75l-2.09,3.12h0l-2.07-3.1v4.73H26.27Z"/><path class="cls-7" d="M34.19,556.07h1.23v1.09H34.19Zm0,1.85h1.14v5H34.23Z"/><path class="cls-7" d="M36.68,557.93h1.14v.77a1.81,1.81,0,0,1,1.56-.87,1.71,1.71,0,0,1,1.78,1.91v3.19H40v-2.84c0-.77-.39-1.22-1.07-1.22a1.11,1.11,0,0,0-1.12,1.24v2.82H36.68Z"/><path class="cls-7" d="M42.38,556.07h1.23v1.09H42.38Zm0,1.85h1.14v5H42.43Z"/><path class="cls-7" d="M44.48,562.27l.51-.77a2.83,2.83,0,0,0,1.64.61c.49,0,.77-.21.77-.54v0c0-.39-.53-.52-1.12-.7-.74-.21-1.56-.51-1.56-1.47v0a1.59,1.59,0,0,1,1.78-1.52,3.46,3.46,0,0,1,1.83.57l-.45.81a2.9,2.9,0,0,0-1.41-.47c-.44,0-.7.21-.7.49v0c0,.37.54.52,1.12.71s1.55.56,1.55,1.46v0c0,1-.81,1.57-1.85,1.57A3.5,3.5,0,0,1,44.48,562.27Z"/><path class="cls-7" d="M49.68,561.54v-2.63H49v-1h.63v-1.37h1.14v1.37h1.34v1H50.82v2.45a.54.54,0,0,0,.61.62,1.54,1.54,0,0,0,.71-.17v.94a2,2,0,0,1-1,.26A1.28,1.28,0,0,1,49.68,561.54Z"/><path class="cls-7" d="M52.87,560.44v0a2.48,2.48,0,0,1,2.44-2.6,2.41,2.41,0,0,1,2.39,2.68c0,.1,0,.21,0,.32H54a1.39,1.39,0,0,0,1.44,1.27,1.81,1.81,0,0,0,1.35-.6l.67.6a2.53,2.53,0,0,1-2,.94A2.49,2.49,0,0,1,52.87,560.44Zm3.7-.37a1.3,1.3,0,0,0-1.27-1.31,1.35,1.35,0,0,0-1.3,1.31Z"/><path class="cls-7" d="M58.68,557.93h1.14v1.12a1.77,1.77,0,0,1,1.77-1.22V559h-.07c-1,0-1.7.65-1.7,2v1.9H58.68Z"/><path class="cls-7" d="M62.41,556.07h1.23v1.09H62.41Zm0,1.85H63.6v5H62.46Z"/><path class="cls-7" d="M64.64,560.45v0a2.66,2.66,0,0,1,5.32,0v0a2.61,2.61,0,0,1-2.68,2.6A2.58,2.58,0,0,1,64.64,560.45Zm4.18,0v0a1.54,1.54,0,0,0-1.53-1.61,1.5,1.5,0,0,0-1.5,1.59v0a1.54,1.54,0,0,0,1.52,1.6A1.5,1.5,0,0,0,68.82,560.45Z"/><path class="cls-7" d="M25.89,570.25v0a2.38,2.38,0,0,1,2.32-2.59,2,2,0,0,1,1.7.88v-2.69H31v6.9H29.9v-.83a2,2,0,0,1-1.7.94A2.39,2.39,0,0,1,25.89,570.25Zm4,0v0a1.5,1.5,0,0,0-1.45-1.6,1.46,1.46,0,0,0-1.44,1.6v0a1.49,1.49,0,0,0,1.44,1.6A1.5,1.5,0,0,0,29.92,570.25Z"/><path class="cls-7" d="M32,570.26v0a2.48,2.48,0,0,1,2.44-2.6,2.41,2.41,0,0,1,2.39,2.68c0,.1,0,.21,0,.32H33.18a1.39,1.39,0,0,0,1.44,1.27,1.81,1.81,0,0,0,1.35-.6l.67.6a2.52,2.52,0,0,1-2,.94A2.49,2.49,0,0,1,32,570.26Zm3.7-.37a1.3,1.3,0,0,0-1.27-1.31,1.35,1.35,0,0,0-1.3,1.31Z"/><path class="cls-7" d="M40.63,566.12h1.24l2,3.13,2-3.13h1.24v6.62H46V568l-2.09,3.12h0L41.77,568v4.73H40.63Z"/><path class="cls-7" d="M48.24,570.27v0a2.66,2.66,0,0,1,5.32,0v0a2.61,2.61,0,0,1-2.68,2.6A2.58,2.58,0,0,1,48.24,570.27Zm4.18,0v0a1.54,1.54,0,0,0-1.53-1.61,1.5,1.5,0,0,0-1.5,1.59v0a1.54,1.54,0,0,0,1.52,1.6A1.5,1.5,0,0,0,52.42,570.27Z"/><path class="cls-7" d="M54.28,570.25v0a2.38,2.38,0,0,1,2.32-2.59,2,2,0,0,1,1.7.88v-2.69h1.14v6.9H58.3v-.83a2,2,0,0,1-1.7.94A2.39,2.39,0,0,1,54.28,570.25Zm4,0v0a1.5,1.5,0,0,0-1.45-1.6,1.46,1.46,0,0,0-1.44,1.6v0a1.49,1.49,0,0,0,1.44,1.6A1.5,1.5,0,0,0,58.32,570.25Z"/><path class="cls-7" d="M60.42,570.26v0a2.48,2.48,0,0,1,2.44-2.6,2.41,2.41,0,0,1,2.39,2.68c0,.1,0,.21,0,.32H61.56A1.39,1.39,0,0,0,63,571.92a1.81,1.81,0,0,0,1.35-.6l.67.6a2.53,2.53,0,0,1-2,.94A2.49,2.49,0,0,1,60.42,570.26Zm3.7-.37a1.3,1.3,0,0,0-1.27-1.31,1.35,1.35,0,0,0-1.3,1.31Z"/><path class="cls-7" d="M66.21,567.75h1.14v1.12a1.77,1.77,0,0,1,1.77-1.22v1.21h-.07c-1,0-1.7.65-1.7,2v1.9H66.21Z"/><path class="cls-7" d="M69.93,567.75h1.14v.77a1.81,1.81,0,0,1,1.56-.87,1.71,1.71,0,0,1,1.78,1.91v3.19H73.27V569.9c0-.77-.39-1.22-1.07-1.22a1.11,1.11,0,0,0-1.12,1.24v2.82H69.93Z"/><path class="cls-7" d="M75.62,565.89h1.23V567H75.62Zm0,1.85h1.14v5H75.67Z"/><path class="cls-7" d="M77.89,572l2.88-3.27H78v-.94h4.24v.78l-2.88,3.27h2.88v.94H77.89Z"/><path class="cls-7" d="M82.89,571.3v0c0-1.08.84-1.61,2.06-1.61a4.16,4.16,0,0,1,1.34.21v-.12c0-.71-.44-1.09-1.24-1.09a3.48,3.48,0,0,0-1.43.31l-.3-.9a4.27,4.27,0,0,1,1.88-.41,2.24,2.24,0,0,1,1.65.56,2.07,2.07,0,0,1,.54,1.54v3H86.29v-.62a2,2,0,0,1-1.63.73A1.59,1.59,0,0,1,82.89,571.3Zm3.42-.36v-.34a3.19,3.19,0,0,0-1.13-.2c-.74,0-1.17.31-1.17.83v0c0,.48.43.76,1,.76C85.74,572,86.31,571.58,86.31,570.94Z"/><path class="cls-7" d="M88.31,570.27v0a2.58,2.58,0,0,1,2.6-2.61,2.52,2.52,0,0,1,2,.86l-.72.77a1.68,1.68,0,0,0-1.29-.62,1.51,1.51,0,0,0-1.45,1.59v0a1.51,1.51,0,0,0,1.49,1.6,1.75,1.75,0,0,0,1.29-.61l.69.68a2.62,2.62,0,0,1-4.62-1.65Z"/><path class="cls-7" d="M93.81,565.89H95V567H93.81Zm0,1.85H95v5H93.86Z"/><path class="cls-7" d="M96,570.27v0a2.66,2.66,0,0,1,5.32,0v0a2.61,2.61,0,0,1-2.68,2.6A2.58,2.58,0,0,1,96,570.27Zm4.18,0v0a1.54,1.54,0,0,0-1.53-1.61,1.5,1.5,0,0,0-1.5,1.59v0a1.54,1.54,0,0,0,1.52,1.6A1.5,1.5,0,0,0,100.21,570.27Z"/><path class="cls-7" d="M102.33,567.75h1.14v.77a1.81,1.81,0,0,1,1.56-.87,1.71,1.71,0,0,1,1.78,1.91v3.19h-1.14V569.9c0-.77-.39-1.22-1.07-1.22a1.11,1.11,0,0,0-1.12,1.24v2.82h-1.14Z"/><path class="cls-7" d="M99.64,565.59l1,.45-1.12,1H98.7Z"/><path class="cls-14" d="M94.44,126.63H202.56a5.71,5.71,0,0,1,5.7,5.7V157.5a5.71,5.71,0,0,1-5.7,5.7H168.95c-11.38,20.14.74,29.61.74,29.61-17.93-4.27-9.87-29.61-9.87-29.61H94.44a5.71,5.71,0,0,1-5.7-5.7V132.33A5.71,5.71,0,0,1,94.44,126.63Z"/><text class="cls-15"><tspan x="110.95" y="143.08">Cu</tspan><tspan class="cls-16" x="123.14" y="143.08">r</tspan><tspan class="cls-17" x="127.5" y="143.08">abitur purus</tspan><tspan x="102.11" y="152.46">ultrices elementum.</tspan></text><path class="cls-18" d="M349.42,168.54H221.74A6.46,6.46,0,0,0,215.3,175v28.46a6.46,6.46,0,0,0,6.44,6.44h19.14c.13,12.49-7.49,16.16-7.49,16.16s9.95,1.23,12.95-9.79a11.84,11.84,0,0,0,.11-6.37h103a6.46,6.46,0,0,0,6.44-6.44V175A6.46,6.46,0,0,0,349.42,168.54Z"/><text class="cls-15" transform="translate(237.63 188.49)"><tspan xml:space="preserve">Ut fermentum quis  </tspan><tspan x="-4.8" y="9.38">imperdiet eros varius.</tspan></text><path class="cls-19" d="M182.26,212.2h-144a6.54,6.54,0,0,0-6.52,6.52v28.79A6.54,6.54,0,0,0,38.26,254H163.45c.93,4.66,3,15,13.89,17.53-.69-.14-8.92-10.49-6-17.53h10.89a6.54,6.54,0,0,0,6.52-6.52V218.72A6.54,6.54,0,0,0,182.26,212.2Z"/><text class="cls-15" transform="translate(68.2 231.06)">Etiam sed tornits<tspan x="-17.23" y="9.37">petardus sagittis magna.</tspan></text><path class="cls-20" d="M243.75,241.88H381.84a6,6,0,0,1,5.94,5.94v26.26a6,6,0,0,1-5.94,5.94H263.91c-.85,4.25-9.85,14.65-15.15,15.18,0,0,7.51-8.14,7.92-15.18H243.75a6,6,0,0,1-5.94-5.94V247.82A6,6,0,0,1,243.75,241.88Z"/><text class="cls-15" transform="translate(262.17 259.81)">Nullam ultricies a risus <tspan x="-7.11" y="9.37">id consectetur tor ultricies.</tspan></text><path class="cls-21" d="M185.95,411.59v3.32l45.22-.59c.13-1.39.15-2.75.15-3.91Z"/><path class="cls-22" d="M231.54,410.4h-.23c0,1.16,0,2.53-.15,3.91l31.76-.92Z"/><path class="cls-22" d="M159.52,359.14c2.63,9.12,8.79,30.54,11.44,39.76a6,6,0,0,0,5.78,4.35l55.31,0a3.42,3.42,0,0,0,3.36-4.06l-9.63-43.6a3.41,3.41,0,0,0-3.44-2.77c-10.69.27-46.74,1.6-59.63,1.92A3.4,3.4,0,0,0,159.52,359.14Z"/><path class="cls-22" d="M193.14,395.67c0,.57,1.48,19.39,1.48,19.39s7.49.17,7.35-.22-.64-14.83-.64-14.83l-4-3.83Z"/><path class="cls-23" d="M197.33,396.18c0,.57,1.14,19.05,1.14,19.05s3.64,0,3.5-.38-1-14.92-1-14.92Z"/><path class="cls-24" d="M129.31,416.34c0,.67,9,85.69,9,85.69l78.55.79L226,416.34Z"/><polygon class="cls-25" points="129.31 416.33 219.94 446.5 223.72 415.27 129.31 416.33"/><path class="cls-26" d="M218.61,502.94l-4.13-.14L216.77,418l-84.65-.16c4.12,43.78,6.2,83.81,6.2,84.2h-2.07l-2.06.11c-.08-1.26-4.22-63-6.4-86.19l-.21-2.27,93.48.18Z"/><path class="cls-27" d="M218.61,502.94l-4.13-.14L216.77,418l-84.65-.16c4.12,43.78,6.2,83.81,6.2,84.2h-2.07l-2.06.11c-.08-1.26-4.22-63-6.4-86.19l-.21-2.27,93.48.18Z"/><path class="cls-28" d="M305,320.21s19,18.56-7.26,31l-2.68-1.57-2.48-5.69Z"/><path class="cls-28" d="M319,319.65s.46-1.4-.06-9.93S294.76,295,289.3,298.27c-4.57,2.71,2.8,5.92,5.32,6.89-2.53.88-6.32,3.37-7.9,10.41-2.58,11.45-6.24-.56-10.41,4.57-4.4,5.41,4.53,12.34,12.71,13.67l3.71,10.48s4.57.61,9.79-6.08,2.78-10.11,2.78-10.11c5.07,16.76-10.2,21.51-10.2,21.51l9.74,13.82,5.15.35,4.07-2.51,3.42-34.35a3,3,0,0,0,.54.51c1.75,1.26,4.25-.32,6.46-6.33C326.93,314.45,319,319.65,319,319.65Z"/><path class="cls-28" d="M305.86,330.33c-.15-.72-.34-1.46-.57-2.22A4.23,4.23,0,0,1,305.86,330.33Z"/><path class="cls-29" d="M306.43,308.87a26.25,26.25,0,0,1-13.48.6,11.49,11.49,0,0,0,1.36-3.82.66.66,0,0,0,0-.36l.33-.12c-2.52-1-9.89-4.19-5.32-6.89,5.46-3.23,29.14,2.92,29.66,11.45s.06,9.93.06,9.93,7.91-5.2,5.46,1.46c-2.21,6-4.71,7.59-6.46,6.33a3,3,0,0,1-.54-.51l-3.42,34.35-3.28.77c-1.7-9.87,2.11-20.17-.9-29.13C306.91,325,304.77,317.15,306.43,308.87Z"/><path class="cls-28" d="M294.29,305.29a.66.66,0,0,1,0,.36,11.49,11.49,0,0,1-1.36,3.82c-1.07-.21-2.13-.46-3.18-.75A10.66,10.66,0,0,1,294.29,305.29Z"/><path class="cls-22" d="M321.43,331.85c.07-.77,15.39-29.44,1.68-31.51,0,0-6.18-13.73-17.14-9.74s-18.51,5.77-19.29-.24-11.36,20.93,7.21,18.73c12.8-1.51,16.37-2.95,16.37-2.95l-2.69,16.1,3.76,2.42s-.6-7.09,3-4.85,0,7.67,0,7.67l1.52,18.82Z"/><path class="cls-30" d="M293.4,314s3.11-4.54,6.86,1.14"/><ellipse class="cls-22" cx="296.85" cy="323.02" rx="1.1" ry="2.31"/><path class="cls-30" d="M305.29,328.11s5,14.54-11.33,18.93"/><ellipse class="cls-31" cx="211.15" cy="501.51" rx="124.62" ry="12.31"/><path class="cls-22" d="M254.23,396.15s-1.63,10.68,4.58,8.78c0,0,.9-6.5-.4-8.11S254.23,396.15,254.23,396.15Z"/><path class="cls-32" d="M254.23,396.15s-1.63,10.68,4.58,8.78c0,0,.9-6.5-.4-8.11S254.23,396.15,254.23,396.15Z"/><path class="cls-28" d="M259.79,397.27l-.7-.46s-14.06,1.23-20.93,4c0,0-.28,1.53,2.29.77.49-.15,2.28-1.06,3-1.22a5.51,5.51,0,0,0-2.06,2.48,5.25,5.25,0,0,0-.18,3.84s1.4.37,1.51-1.34,1.39-4,2.5-4.2a10.42,10.42,0,0,0-1.64,7.25,3.83,3.83,0,0,0,.57,1.41,1.82,1.82,0,0,0,1.34-2.17,8.64,8.64,0,0,1,1.12-6,9.32,9.32,0,0,0,.09,5.36,6.08,6.08,0,0,0,3.14,3.58c.42-.47,1.21-.89-.49-3.41-2.28-3.36-1.28-4.76-.35-5.72,1.3-1.34,4.07-1.8,4.52.57.65,3.37-3.87,1.25-2.73,4.87,0,0,3-.37,4.12-2.55,1.85-3.75,2.86-3.53,4.75-3.66C259.9,400.66,259.79,397.27,259.79,397.27Z"/><path class="cls-22" d="M302.15,364.64c-9,7.08-9.74,34.51-18.85,35.88-12.46,1.87-23.25-6.51-29.07-4.37a6.55,6.55,0,0,1,3.63,4.07,5.66,5.66,0,0,1-.77,5s17.44,4.36,27.07,3.33c13.14-1.41,20.29-11.28,22.39-25.08.73-4.78,1.82,2.51,2.25-2.19C309.61,372.43,302.15,364.64,302.15,364.64Z"/><g class="cls-33"><path class="cls-34" d="M303.1,365.87c-4.81,5.82-7.33,15.95-9.59,23-1.24,3.89-2.6,9-5.57,12.17a13.42,13.42,0,0,1-1.45,1.44c-7.09,6-16.32,2.1-24.7.17-1.23-.05-2.45-.14-3.67-.3a5.4,5.4,0,0,1-1,3s17.44,4.36,27.07,3.33c13.14-1.41,20.29-11.28,22.39-25.08.73-4.78,1.82,2.51,2.25-2.19C309.42,374.53,305.07,368.31,303.1,365.87Z"/></g><path class="cls-22" d="M273,385.22s-3.44,10.24,3,9.44c0,0,2-6.25,1-8.06S273,385.22,273,385.22Z"/><path class="cls-32" d="M273,385.22s-3.44,10.24,3,9.44c0,0,2-6.25,1-8.06S273,385.22,273,385.22Z"/><path class="cls-28" d="M276.66,387s-5.24-3-9.29-2.94h0a5.38,5.38,0,0,0-1.09.08,7,7,0,0,0-1.25.25h0c-4.35,1.11-11,5.35-11,5.35s-.1,1.81,2.78.94c1.15-.35,3.05-1.75,5.37-2.91a21.77,21.77,0,0,0-3,6.37,2.53,2.53,0,0,0,2.79-1.28c.83-1.73,2.06-5,2.9-5.34,0,0-1.47,6.27-.38,8.58a1.27,1.27,0,0,0,1.44-.8c.55-1.06.16-7,.64-7.41,0,0-.23,6.71,2.55,6.23s3-2.34,2.94-2.63c0,0-.9-.9-1.73.32s-2.6-.42-2.5-1.8,3.41-.9,4.71.48c3.1,3.27,7.34-1.07,8.7,1.87s1.7-3,1.7-3Z"/><path class="cls-14" d="M323.09,384.23l14.78.93a5,5,0,0,1,4.46,6.59l-6,18.44a5,5,0,0,1-5.13,3.45l-19.7-1.36a5,5,0,0,1-4-7.64l11-18A5,5,0,0,1,323.09,384.23Z"/><path class="cls-22" d="M298,443.05c-.17,1.18-3.88,51.7-3.88,51.7H291V442.55Z"/><path class="cls-14" d="M283.88,436.47s5.06-4.39,17.71-6.24,28,6.24,28,6.24Z"/><path class="cls-14" d="M283.88,435.63v10.46s45.54.34,45.71,0,0-9.61,0-9.61Z"/><path class="cls-32" d="M283.88,435.63v10.46s45.54.34,45.71,0,0-9.61,0-9.61Z"/><path class="cls-32" d="M281.49,443.89c3.38,2,5.68,3.61,5.68,3.61l1.35-8.86c-.36.07-.73.14-1.07.21C285.84,439.23,283.78,441.1,281.49,443.89Z"/><path class="cls-32" d="M315.36,431.23a12.52,12.52,0,0,1-4.17-1.2,2.56,2.56,0,0,1-.3-.17,5.46,5.46,0,0,1-1.06-.82,4,4,0,0,1,1.54-5,2.2,2.2,0,0,1,1.94-2.48,5.53,5.53,0,0,1,3.07-1.81,11,11,0,0,1,1-2.62A2.3,2.3,0,0,1,319,413l1.07.09c.74,0,1.48,0,2.23,0a2.68,2.68,0,0,1,.5.07c1.79-8.57,2.75-18.91,1-29.1l-1.25.11a1.9,1.9,0,0,1-1.81-.71c-1.79-.62-3-1.88-3.54-4.4s-1.28-4.89-2-7.42c-.45-1.51-.47-3.67-.88-5.43a2.11,2.11,0,0,1-.21-.17,5.59,5.59,0,0,1-1,.45c-1.34.48-8.11.48-8.11.48-1.39,1.57-11,35-11,35l-5.58,36.74c8.8-1.7,24.5-.59,27.77-5.91.18-.3.4-.7.64-1.19C316.4,431.45,315.88,431.36,315.36,431.23Z"/><path class="cls-22" d="M302.81,364.57c-1.39,1.57-11,35-11,35l-6.92,45.61s-27.82-19.8-32.47-5-8.1,60.9-8.1,60.9,10.34,1,10.69,0,21.63-62.55,30.17-64.57,25.44-.59,28.84-6.13,17.59-43.31-.54-69c-.33-.47,2.18.8-7.82,2.63C304.28,364.27,302.81,364.57,302.81,364.57Z"/><polygon class="cls-22" points="293.61 488.8 313.49 504.68 293.61 496.05 293.61 488.8"/><path class="cls-22" d="M293.61,488.8c.84,0,24.38,4.8,24.38,4.8s-22.45,2.27-22.72,1.15S293.61,488.8,293.61,488.8Z"/><polygon class="cls-22" points="293.61 488.8 273.76 493.58 293.61 496.05 293.61 488.8"/><path class="cls-35" d="M221,413.85s79.89-1.13,79.72-.63-13.63,88.35-13.63,88.35l-72.66,1.22Z"/><path class="cls-18" d="M303.29,360.89l-3,4.89,1.18,6.59,4.42-8,.12,9.12s12.5-7.1,12.15-7.1l-4-6.18S306.06,366.2,303.29,360.89Z"/><path class="cls-36" d="M312.36,374c-.95.72-14.64,29.8-18.06,26-1.14-1.28-2.25-2.45-3.34-3.54-.67,2.61-3.08,4.67-4.94,6.49,6.87,6.66,19.11,12.45,23.49-.56,1.54-4.58,6.21-8.95,7.44-13.5C319.27,380.24,312.36,374,312.36,374Z"/><path class="cls-22" d="M312.36,371.52c-.95.72-14.64,29.8-18.06,26-8.38-9.4-15.17-13.37-21.27-12.26a6.55,6.55,0,0,1,2.88,4.63,5.66,5.66,0,0,1-1.63,4.82s5.67-1,12.51,5.82,17.95,11.49,22.4-1.74c1.54-4.58,6.52-7.83,7.76-12.38C319.27,377.78,312.36,371.52,312.36,371.52Z"/><path class="cls-18" d="M205,345.23s.39-15.36,4.62-14C214.07,332.62,205,345.23,205,345.23Z"/><path class="cls-18" d="M206,348.47s6.3-5.48,7.34-3.29C214.63,348,206,348.47,206,348.47Z"/><path class="cls-18" d="M202.19,346.74s-1.32-8.69-3.75-7.31C195.72,341,202.19,346.74,202.19,346.74Z"/><path class="cls-18" d="M205,345.23s.39-15.36,4.62-14C214.07,332.62,205,345.23,205,345.23Z"/><path class="cls-18" d="M206,348.47s6.3-5.48,7.34-3.29C214.63,348,206,348.47,206,348.47Z"/><path class="cls-18" d="M202.19,346.74s-1.32-8.69-3.75-7.31C195.72,341,202.19,346.74,202.19,346.74Z"/><path class="cls-28" d="M185.29,382.57l1.83-3.11,2.07.13c-.85,1.25-2.13,2.35-1.66,4,.29,1,2.29.93,3.72-.15,2.62-2,.08-6.32-.33-7.36,0,0,1.26-1.18,2.53.66s1.17,4.64.27,7.27c1.29,0,3.15-1.42,3.26-4.6.11-2.94,1.15-3.38,1.15-3.38,1.17,1.24,1.21,3.71.43,5.8-.67,1.79-2.32,3.13-4.68,4.4,3.07.75,4-.37,5.21-3.4.92-2.38,2.34-2.4,2.34-2.4a12.81,12.81,0,0,1-2.43,6.83c-1,1-3.21,1-4.65.87,1.59,2.37,3.59,2,4.83.93,1.77-1.52,2.79-.48,2.79-.48-.85,1.48-4,4.19-5.6,3.45-1.32-.63-10.64-4.6-10.73-4.56l-3.26,5.08-2-1.21S185.13,382.89,185.29,382.57Z"/><path class="cls-14" d="M109.93,394.49c-4.28.26-22,.83-27.52,1.19a5.83,5.83,0,0,0-5.17,7.64l6.3,22.08a5.84,5.84,0,0,0,5.95,4L113,427.14a5.84,5.84,0,0,0,4.58-8.86l-2.36-21A5.83,5.83,0,0,0,109.93,394.49Z"/><path class="cls-22" d="M121.44,462.82c.2,1.37,4.5,39.51,4.5,39.51h3.72v-40.1Z"/><path class="cls-14" d="M151,453.52s.52-4.1-26.52-5.57C97.71,446.5,92,455.19,92,455.19Z"/><path class="cls-14" d="M151,453.52l.53,12s-59.33,1.23-59.52.84,0-11.15,0-11.15Z"/><path class="cls-32" d="M151,453.52l.53,12s-59.33,1.23-59.52.84,0-11.15,0-11.15Z"/><polygon class="cls-22" points="127.32 494.75 109.63 520.12 128.38 502.94 127.32 494.75"/><path class="cls-22" d="M126.58,495.43c-1,0-30.53,9.26-30.53,9.26l28.62-2.35C125,501,126.58,495.43,126.58,495.43Z"/><polygon class="cls-22" points="128.38 495.06 158.19 504.01 127.09 503.12 128.38 495.06"/><path class="cls-32" d="M191.23,431.58a.18.18,0,0,0-.11-.23,13.05,13.05,0,0,1-2.87-1.8c-.24-.21-.52-.48-.83-.78q-.14-.27-.3-.52a6,6,0,0,0-4.12-3.38,23.84,23.84,0,0,0-6.53-.18l-.05.07a2.09,2.09,0,0,1-1.19.57,3,3,0,0,1-2.87.18,5,5,0,0,1-.79,0l-.54.08a.56.56,0,0,1-.84.19l-.18-.15h0a.6.6,0,0,1-.52-.4,5.5,5.5,0,0,0-.62-.34,5.37,5.37,0,0,1-.63,0,.62.62,0,0,1-.43-.25c-.73.14-1.46.25-2.19.34a.52.52,0,0,1-.28.23,4.6,4.6,0,0,1-3,.16l-.68,0a.49.49,0,0,1-.4-.18l-.34.07a.41.41,0,0,1-.51-.39c-5.52.69-10.34,1-11.55.4-3.59-1.88-11.68-13.1-18.45-23.08-4.09-3.78-1.63-6.75-1.63-6.75-.16-.73,2.87-1,1.73-2.69-1.29.23-2.58.44-3.89.6-3.4.42-6.81.84-10.23,1.13-1.44.12-2.47-.07-3.92-.07-1,0-2.67-.1-3.7,0a124.72,124.72,0,0,1-3.94,33.33c2.61-.22,5.55-.07,7.1,2.43,2.28,3.68,1.73,8.13,2.53,12.16.51,2.57,2.11,4.76-.81,5.49-1.64.41-4.8.63-6.44,1,2.62,2.45,7,3.66,12.4,3.32h1.85c13.68.61,43.47.23,49.45.15q-.18,1.09-.35,2.22l-.17.28v0l-.43.7v0c-.62,1-1.34,2.22-2.13,3.59l0,.06-.56,1-.06.1-.6,1.06v0q-.64,1.14-1.31,2.37h0a119.43,119.43,0,0,0-6.8,14.64c-3,8-9.14,19.33-9.14,19.33l1.44.1a29.36,29.36,0,0,1-2,4.92c-.15.31-.33.63-.5,1l-1.08,1.9,0,.08q-.36.58-.67,1.12a21.48,21.48,0,0,0-2.36,5.34,3.7,3.7,0,0,0-.15,1.78h0a10.13,10.13,0,0,1,1.15.16s0,0,.08,0l.08-.09.12-.14.06-.08.24-.34.22-.33c.26-.4.57-.88.87-1.37l.35-.57.75-1.24a6.8,6.8,0,0,1,.43-.68c-.08.22,1.42,6.65,9.82,6.92h.4a6.13,6.13,0,0,0,.8-.09l.4-.08c1.39-.33,3.87-1.08,3.2-2.21l-.09-.13a1.9,1.9,0,0,0-.27-.27,4.14,4.14,0,0,0-.65-.43c-.28-.16-.58-.3-.88-.43l-.14-.06c-3.59-1.54-7.85-1.47-8.7-4.51a6.23,6.23,0,0,1,.08-2.6h0c.08-.45.19-.93.32-1.44a55.36,55.36,0,0,1,1.94-5.76l.88.06s4.15-5.92,9.39-13.7v0l2.74-4.09.09-.14.45-.68c-.62,4.47-1.24,7.9-1.24,7.9l1.41-.28a28.31,28.31,0,0,1-.28,5.23c0,.34-.11.69-.17,1s-.34,1.73-.42,2.1l0,.07h0a25.56,25.56,0,0,0-.53,2.91q0,.26-.05.5a15.51,15.51,0,0,0-.06,1.75c0,.39,0,.74.07,1.06s.06.41.09.59a6.21,6.21,0,0,0,.38,1.29,2.6,2.6,0,0,0,.49.81l.5-.08a5.46,5.46,0,0,1,.7-.08,18,18,0,0,0,.54-3.78l0-.46,0-.49c0-.56.08-1,.09-1h0a3.17,3.17,0,0,0,.31.64c1.13,2,5.28,7.67,12.13,6a5.87,5.87,0,0,0,1.47-.59c1.51-.84,4.38-2.73,1.1-3.5a13.28,13.28,0,0,0-2.06-.3h0c-4.7-.71-7.84-1.86-9.66-4.56a6.39,6.39,0,0,1-.77-2.51h0c-.07-.46-.12-.95-.16-1.46a53.83,53.83,0,0,1,0-6l.86-.17s3.84-12.63,7.4-25.92v0l.22-.38.53-.91.15-.27.64-1.12.15-.27.46-.82.19-.35.4-.73.17-.31.51-1,.06-.12.4-.8.14-.28.29-.6.13-.27.29-.66.06-.13c.11-.25.2-.48.29-.71l.07-.19.17-.46.07-.2c0-.15.09-.28.12-.42l0-.14c0-.17.07-.33.09-.47s0-.06,0-.09a2.43,2.43,0,0,0,0-.31s0-.07,0-.11a1.09,1.09,0,0,0,0-.21l0-.08a.54.54,0,0,0-.13-.2h0a6.91,6.91,0,0,0-2-1.07,113.94,113.94,0,0,0,2.31-12.26,1.43,1.43,0,0,0,.55.11,1.06,1.06,0,0,0,1.22.38c.1-.37.17-.73.23-1.07a1.53,1.53,0,0,0,1.76.52.21.21,0,0,0,.15-.26,6.87,6.87,0,0,1-.3-1.77S190.92,432.41,191.23,431.58ZM151.05,433a96.23,96.23,0,0,1-12.79.53c-2,0-4.79.49-6.56-.77-.85-.07-1.67-.15-2.45-.25a40.27,40.27,0,0,1-5.83-12.54h0a22,22,0,0,1-.65-4.82l.13.26a40.06,40.06,0,0,1,.86-10.09c.23-1.16.07-1,.66,0,4.72,7.57,10.73,18.94,18.48,23.75,2.66,1.65,6.63,1.93,9.85,1.7C153.77,430.63,152,432.85,151.05,433Zm21.42,10.95q-2-.37-4.24-.75c-2.39-.51-4.81-1-7.11-1.47,7.39-2.11,12.76-3.68,12.76-3.68S173.26,440.34,172.48,443.93Zm4.3-14.33a2.66,2.66,0,0,1-1.31.49l-.17.09-.07,0a.46.46,0,0,1-.31.08,2,2,0,0,1-.76,0c-.66-.09-.45-1.1.21-1a.4.4,0,0,1,.24-.39,2.59,2.59,0,0,1,2.11-.26A.52.52,0,0,1,176.77,429.59Z"/><path class="cls-37" d="M162.87,428.87c.06,0,4.51-2.12,6.08-.83,5.38,4.4,5.33.81,10.21-.12a3.44,3.44,0,0,1,4.33,2.8c.45,2,1.62,1.82,2.08,1.66a.21.21,0,0,0,.14-.26,7.73,7.73,0,0,1-.28-1.81s1.15.1,1.44-.75a.2.2,0,0,0-.1-.24,12,12,0,0,1-2.65-1.85,56.1,56.1,0,0,0-4-4.09c-.4-.31-7.21-.83-17.54,1.92Z"/><path class="cls-18" d="M120.81,383.39c.88,1.07,21,36.77,27.07,40.3,2.25,1.3,14.46-.34,23.82-1.61l-.33,7.26c-1.07.63-22.07.36-27-1.48-6.18-2.3-30.89-39.35-30.89-39.35S115.38,376.78,120.81,383.39Z"/><g class="cls-38"><path class="cls-18" d="M152,426.29c-3.26.19-7.29-1.64-10-3.53s-4.61-4.82-6.17-7.71c-4.76-8.79-4.76-14.51-7.09-18.43-2.09-3.52-4.5-.23-6.11-4-.8-1.88-1.51-3.85-2.15-5.79-.54-1.61-.59-3.42-1.28-5-4.19-2.7-5.72,6.64-5.72,6.64s24.71,37,30.89,39.35c4.94,1.84,25.94,2.1,27,1.48l.22-4.79C169.89,424.73,165.79,425.49,152,426.29Z"/></g><path class="cls-28" d="M150.23,495.07A32.11,32.11,0,0,1,146.3,506c-3.55,6.39-2.95,8.44-2.95,8.44a9.35,9.35,0,0,1,1.11.16c.24.08,3-5.24,3-5s1.32,6.81,9.09,7.09a5.15,5.15,0,0,0,1.48-.18c1.58-.41,4.69-1.49,2-3.13-3.47-2.13-8.12-1.71-9-5.12s4.34-15.47,4.1-15.39S150.23,495.07,150.23,495.07Z"/><path class="cls-22" d="M106.58,436.55c-.81,1.07,1.36,13.78,14.64,14.58s48,.21,48,.21-8.22,13.87-12.53,26.71a203.71,203.71,0,0,1-8.46,19.8l5.72.44s31-48.85,28.09-51.68c-2.09-2-11.94-4.08-30.5-7.13-12.47-2.05-24.26-6-26.59-10.61C124.34,427.57,106.58,436.55,106.58,436.55Z"/><path class="cls-39" d="M120.81,451.21c3,0,48.46.13,48.46.13s-2.95,5-6.24,11.72q-.28,4.13-.34,8.26c-.06,4.31,0,8.62,0,12.93,8.93-14.67,21.27-35.82,19.39-37.65-1.43-1.39-22.59-6.26-31.52-8C149.82,441.75,121.45,448.09,120.81,451.21Z"/><path class="cls-28" d="M165.65,484.07a32.11,32.11,0,0,1-.56,11.59c-1.53,7.15.36,9.14.36,9.14a9.35,9.35,0,0,1,1.11-.17c.25,0,.66-6.11.65-5.86s4,8.82,11.52,6.82a5.15,5.15,0,0,0,1.36-.6c1.39-.86,3.37-3.25.27-3.69-5-.71-8.27-1.84-10.1-4.84s-.38-16.06-.58-15.92S165.65,484.07,165.65,484.07Z"/><path class="cls-18" d="M169.55,493.88q-.09-.7-.14-1.5a5.55,5.55,0,0,1-3.76,0c-.06.45-.13.93-.21,1.41A8.9,8.9,0,0,0,169.55,493.88Z"/><path class="cls-18" d="M181.1,501.41a11.19,11.19,0,0,0-1.9-.3,4.29,4.29,0,0,1-4.4,2.28c-3-.26-6.23-5.45-7.79-7.89,0-.07,0-1.61-.06-1.68-.59,0-.9-.38-1.44-.53,0,.22-.38,2.15-.43,2.38-1.53,7.15.36,9.14.36,9.14a9.35,9.35,0,0,1,1.11-.17c.25,0,.66-6.11.65-5.86s4,8.82,11.52,6.82a5.15,5.15,0,0,0,1.36-.6C181.48,504.13,184.13,502.19,181.1,501.41Z"/><path class="cls-22" d="M106.8,440.87c-.46,1.27,5.33,12.78,18.26,9.66s46-13.85,46-13.85-3.81,15.66-4.17,29.2a203.71,203.71,0,0,1-2.3,21.41l5.6-1.25s15.35-55.78,11.75-57.63c-2.6-1.34-12.62-.41-31.25,2.09-12.53,1.68-25,1.36-28.53-2.37C121.16,427.09,106.8,440.87,106.8,440.87Z"/><circle class="cls-22" cx="166.61" cy="493.87" r="0.87" transform="translate(-137.12 70.3) rotate(-17)"/><path class="cls-22" d="M106.8,440.87c-.46,1.27,5.33,12.78,18.26,9.66s46-13.85,46-13.85-3.81,15.66-4.17,29.2a203.71,203.71,0,0,1-2.3,21.41l5.6-1.25s15.35-55.78,11.75-57.63c-2.6-1.34-12.62-.41-31.25,2.09-12.53,1.68-25,1.36-28.53-2.37C121.16,427.09,106.8,440.87,106.8,440.87Z"/><path class="cls-22" d="M106.43,437.62c-.82,8.62,5.7,16,18.63,12.92s46-13.85,46-13.85-3.81,15.66-4.17,29.2a203.71,203.71,0,0,1-2.3,21.41l5.6-1.25s15.35-55.78,11.75-57.63c-2.6-1.34-12.62-.41-31.25,2.09-12.53,1.68-25,1.36-28.53-2.37C121.16,427.09,106.43,437.62,106.43,437.62Z"/><path class="cls-40" d="M109.59,331.78c.05-.34.1-.66.16-1v.87Z"/><path class="cls-22" d="M133.9,305.42c-4.77,1.92-14,8.76-14.4,9-1.33,2.51,1.8-.28.79,2-1.59,3.59-1.33-.45-2.86,3.16,18.53,35.46-35.26,61-33,63.58,1.36,1.58,27.06-4,37.65-3.92,8.47.09,28.08-9.57,30-23.91C155,333.9,140.23,302.88,133.9,305.42Z"/><path class="cls-28" d="M111.53,376.3l-.45-21.18L99.63,342.64l2.21-18.48,10.8-11,11.44-4s12.65-1.35,17,8.45c11,25.1,9.76,38.28.39,43.21-9.56,5-21.49,5.07-21.49,5.07l-.7,9.29Z"/><path class="cls-41" d="M132.9,331.27c.24,4.83,4.41,8.24,6.11,8.93l-5.11,1.3"/><path class="cls-41" d="M118.69,333.27s.63-3.36,3.68-3"/><path class="cls-41" d="M142.91,326.72a2.37,2.37,0,0,0-3-1"/><path class="cls-42" d="M119.93,365.91a9.56,9.56,0,0,1-5.14-3.74,5.59,5.59,0,0,0,4.91,6.68Z"/><path class="cls-18" d="M104.47,438.91l1,0a61.46,61.46,0,0,0,14.65-2.13c3.47-1,7.64-2.57,9.66-5.74-5.87-9.63-9.66-22.92-.55-29.58,4.41-3.23,3.6-7.17,3.6-7.17-.56-2.87-9.76-14.87-12.21-22.38a12.11,12.11,0,0,1-10.3,1.62l-.45-.12s4,33.65-3.34,57.22A67.41,67.41,0,0,0,104.47,438.91Z"/><path class="cls-43" d="M114.53,387.35c-.82.21-.31.37.58,1.59,4.09,4.19,9.52,10.86,14.14,12.49,3.65-2.69,4.08-4.65,4.88-5.57,1.08-1.24-2.46-3-2.16-4.09C126.28,387,121.53,385.58,114.53,387.35Z"/><path class="cls-18" d="M118,377c1.34.35,33,29.45,40,28.73,2.58-.27,19.05-17.92,24.2-23.54l4.6,8.85c-.49,1.13-23.15,19.82-28.22,21.24-6.35,1.77-45.24-23.87-45.24-23.87S109.78,374.81,118,377Z"/><path class="cls-44" d="M115.26,373.37c-1.77.27-3.82-.07-4.28-.89a8.4,8.4,0,0,1-1.06,1.85c.39,2.39.05,3.33.22,7.23l0,0a2.2,2.2,0,0,0,2.55-.08,3.85,3.85,0,0,0,.81-1.29h0c-.22.8-.33,1.76.74,1.92,1.4.21,2.11-.87,2.23-2.06h.09c.24.86.54,1.89,1.56,1.92.71,0,1.81-.16,2-.94a3.78,3.78,0,0,0-.09-1.76c.27,1.23,1.12,2.14,2.5,1.58a1.62,1.62,0,0,0,1.05-2c-1.75-2.14-2.82-4.91-4.51-7.21C118.67,372.65,117.19,373.16,115.26,373.37Z"/><path class="cls-45" d="M126,371.71c-1.86-.44-4.08-.9-6.41-1.69-.35,1.2-1.51,1.81-3.62,2-1.77.27-3.86,0-4.32-.77-1.89,3.67-6.83,5.78-4.7,7a2.92,2.92,0,0,0,3.41-.55,1.76,1.76,0,0,0,.38,2.08,2.2,2.2,0,0,0,2.55-.08,3.85,3.85,0,0,0,.81-1.29h0c-.22.8-.33,1.76.74,1.92,1.4.21,2.11-.87,2.23-2.06h.09c.24.86.54,1.89,1.56,1.92.71,0,1.81-.16,2-.94a3.78,3.78,0,0,0-.09-1.76c.27,1.23,1.12,2.14,2.5,1.58,1.23-.5,1.28-1.57.88-2.58.5.86,1.44,1.49,2.36.63s.52-2.05-.52-2.69c.71.16,1.89.34,2.49-.17C129.39,373.42,127.86,372.16,126,371.71Z"/><path class="cls-46" d="M137,308.28c-.18-.62-35.72-3.86-45,5.62-2.85,2.92-5.75,18.37,1.82,42.23,1.28,4.43,2.38,10.88,1.4,12.87,2.24,4.5.93,4.45,5,7.18.29.19-2.06-1-1.45-.91.89.4-1-2.06-.06-2.12-.29.53,1.27,2.12,1.46,2.71.45-.22,4.57,1.42,6.25.79,9.71-3.66,9.61-9.76,9.89-15.15a16.84,16.84,0,0,0-3.74-10.56c-2.34-2.81-10.34-5.72-10.44-10.05-.08-3.58,6.53-9.82,8.73-5.72a12.67,12.67,0,0,1,1.39,5c6.2-.81,7.55-12.54,6.74-17.81,2.59,4.47,14.44,6.62,19.87,0a19.71,19.71,0,0,0,3.62-5.92A72.9,72.9,0,0,0,137,308.28Z"/><path class="cls-22" d="M138.57,308c-1.69-3.3-4.48-3.39-9.23-3.28,0,0-32.31.2-40.6,10.56-2.55,3.18-10.94,13.5,1.54,45,3.37,8.49-.7,16.3-4.2,14.33s-.4-5.31,2.19-2.92a4.32,4.32,0,0,0-5.85-2c-5.3,2.47-3.3,10-1.9,11.79,7.77,10.17,23.88,9,33.05-1.22,3.3-3.68,4.39-8.55,4.43-13.67.05-7.48-1.12-12-4.78-15.57-2.61-2.57-7.24-3.77-7.76-8.07-.43-3.55,3.72-7.84,6.32-4,.53.79.8,1.74,1.3,2.5,4.95-3.55,5.05-14.33,3.72-19.5.92,1.34,4.09,2.11,5.56,2.39a22.38,22.38,0,0,0,8.07-.07C138,322.89,141.62,313.95,138.57,308Z"/><path class="cls-39" d="M106.56,438.64l-.12,1.8s21.47,3.7,26.1-9l-2.74-.39S126.59,438.14,106.56,438.64Z"/><path class="cls-7" d="M207,354.23c-2.06,2.87-4.07,5.6-7.75,4.32-3.43-1.85-2.78-5.17-2.07-8.63s-2.06-4-2.06-4L185.41,368s2.78.54,2.06,4-1.37,6.79,2.07,8.63c3.68,1.28,5.69-1.45,7.75-4.32s4.36-1.22,4.36-1.22L211.37,353S209.09,351.33,207,354.23Z"/><path class="cls-47" d="M189.39,381h0c-3.71-2-3-5.57-2.25-9a3.35,3.35,0,0,0-.32-2.59,2.51,2.51,0,0,0-1.46-1l-.45-.09,10-22.82.28.06a3.25,3.25,0,0,1,1.92,1.32,4,4,0,0,1,.42,3.14c-.69,3.34-1.34,6.49,1.86,8.23,3.45,1.18,5.32-1.44,7.31-4.2a4,4,0,0,1,2.6-1.82,3.25,3.25,0,0,1,2.28.52l.23.17-10,22.82-.37-.27a2.54,2.54,0,0,0-1.74-.39,3.36,3.36,0,0,0-2.11,1.52c-2.06,2.87-4.19,5.83-8.17,4.46ZM186,367.85a3.2,3.2,0,0,1,1.38,1.14,4,4,0,0,1,.42,3.14c-.69,3.34-1.34,6.49,1.86,8.23,3.45,1.18,5.33-1.44,7.31-4.2a4,4,0,0,1,2.6-1.82,3.21,3.21,0,0,1,1.89.3l9.42-21.47a2.51,2.51,0,0,0-1.5-.24,3.36,3.36,0,0,0-2.11,1.52h0c-2.06,2.87-4.19,5.83-8.17,4.46h-.05c-3.71-2-3-5.57-2.25-9a3.35,3.35,0,0,0-.32-2.59,2.49,2.49,0,0,0-1.19-.93l-9.42,21.47Z"/><path class="cls-22" d="M195.67,359.7l-.5-.22-.66,1.51-.36-.16.66-1.51-.5-.22.12-.28,1.36.6Z"/><path class="cls-22" d="M197.34,360.1l-.52,1.18a.62.62,0,0,1-.4.38.86.86,0,0,1-.59-.06.85.85,0,0,1-.44-.39.62.62,0,0,1,0-.55l.52-1.18.36.16-.52,1.18a.37.37,0,0,0,0,.3.4.4,0,0,0,.22.2.41.41,0,0,0,.3,0,.37.37,0,0,0,.21-.22l.52-1.18Z"/><path class="cls-22" d="M197.48,361.44l-.31.71-.36-.16.78-1.78.67.29a.81.81,0,0,1,.42.35.51.51,0,0,1,0,.46.43.43,0,0,1-.18.21.55.55,0,0,1-.28.07.42.42,0,0,1,.16.25.54.54,0,0,1,0,.3l-.06.13a.73.73,0,0,0,0,.16.24.24,0,0,0,0,.15v0l-.37-.16a.22.22,0,0,1,0-.16,1.2,1.2,0,0,1,.06-.18L198,362a.31.31,0,0,0,0-.24.3.3,0,0,0-.17-.16Zm.12-.28.31.14a.37.37,0,0,0,.25,0,.26.26,0,0,0,.16-.16.28.28,0,0,0,0-.23.33.33,0,0,0-.19-.17l-.31-.14Z"/><path class="cls-22" d="M199.84,363.32l-.36-.16-.19-1.53h0l-.53,1.22-.36-.16.78-1.78.36.16.19,1.53h0l.53-1.21.36.16Z"/><path class="cls-22" d="M201.86,363.34a.81.81,0,0,1-.45.45.78.78,0,0,1-.63,0,.77.77,0,0,1-.44-.45.82.82,0,0,1,0-.63l.14-.32a.82.82,0,0,1,.44-.45.77.77,0,0,1,.63,0,.78.78,0,0,1,.45.45.82.82,0,0,1,0,.63Zm-.22-.48a.59.59,0,0,0,0-.39.37.37,0,0,0-.23-.26.36.36,0,0,0-.34,0,.6.6,0,0,0-.25.3l-.14.32a.61.61,0,0,0-.05.39.37.37,0,0,0,.22.26.37.37,0,0,0,.34,0,.6.6,0,0,0,.25-.3Z"/><path class="cls-22" d="M194.11,366.49a2.09,2.09,0,0,1-1,1.14,1.65,1.65,0,0,1-2.15-.94,2.09,2.09,0,0,1,.18-1.48l.42-1a2.1,2.1,0,0,1,1-1.14,1.65,1.65,0,0,1,2.15.94,2.09,2.09,0,0,1-.18,1.48Zm-.41-1.43a1.56,1.56,0,0,0,.18-.82.59.59,0,0,0-.89-.39,1.58,1.58,0,0,0-.48.69l-.5,1.13a1.59,1.59,0,0,0-.18.83.55.55,0,0,0,.35.44.54.54,0,0,0,.55,0,1.6,1.6,0,0,0,.49-.7Z"/><path class="cls-22" d="M197.61,368a2.09,2.09,0,0,1-1,1.14,1.65,1.65,0,0,1-2.15-.94,2.09,2.09,0,0,1,.18-1.48l.42-1a2.1,2.1,0,0,1,1-1.14,1.65,1.65,0,0,1,2.15.94,2.09,2.09,0,0,1-.18,1.48Zm-.41-1.43a1.56,1.56,0,0,0,.18-.82.59.59,0,0,0-.89-.39,1.58,1.58,0,0,0-.48.69l-.5,1.13a1.59,1.59,0,0,0-.18.83.55.55,0,0,0,.35.44.54.54,0,0,0,.55,0,1.6,1.6,0,0,0,.49-.7Z"/><path class="cls-22" d="M199.1,370.7l-.87-.38,1.57-3.58-.88-.39.27-.61,1.82.62Z"/><path class="cls-22" d="M199.06,371.89l-9.49-4.16a.14.14,0,0,1,.11-.25l9.49,4.16a.14.14,0,0,1-.11.25Z"/><path class="cls-22" d="M201.75,365.76l-9.49-4.16a.14.14,0,0,1,.11-.25l9.49,4.16a.14.14,0,0,1-.11.25Z"/><path class="cls-28" d="M191.94,382.63a2.11,2.11,0,0,0,2.29-.71,7.12,7.12,0,0,0-.79-5.24c-1.27-1.84-2.53-.66-2.53-.66C191.28,377,193.31,380.47,191.94,382.63Z"/><path class="cls-41" d="M120.24,338.18s6.12,3.33,5.09-2.2"/><path class="cls-41" d="M139,333.27s5.38,4.3,4.62-1.5"/><path class="cls-41" d="M122.78,346.31c.19.52,2.86,9,13.17,6.56s8.68-9.86,8.68-9.86"/><path class="cls-18" d="M160,513.37a11.19,11.19,0,0,0-1.73-.85,4.29,4.29,0,0,1-4.87.89c-2.84-1.14-4.44-4.24-5.22-7,0-.08.43-1.55.44-1.62-.55-.22-.75-.63-1.23-.92-.1.2-1,1.95-1.11,2.15-3.55,6.39-2.95,8.44-2.95,8.44a9.35,9.35,0,0,1,1.11.16c.24.08,3-5.24,3-5s1.32,6.81,9.09,7.09a5.15,5.15,0,0,0,1.48-.18C159.57,516.08,162.67,515,160,513.37Z"/><path class="cls-18" d="M151.09,505.59q.12-.7.3-1.47A5.55,5.55,0,0,1,147.8,503c-.19.42-.39.85-.61,1.29A8.9,8.9,0,0,0,151.09,505.59Z"/><circle class="cls-22" cx="148.28" cy="504.72" r="0.87"/></g></g></svg>