<?xml version="1.0" encoding="utf-8"?>
<!-- Generator: Adobe Illustrator 18.0.0, SVG Export Plug-In . SVG Version: 6.00 Build 0)  -->
<!DOCTYPE svg PUBLIC "-//W3C//DTD SVG 1.1//EN" "http://www.w3.org/Graphics/SVG/1.1/DTD/svg11.dtd">
<svg version="1.1" id="Layer_1" xmlns="http://www.w3.org/2000/svg" xmlns:xlink="http://www.w3.org/1999/xlink" x="0px" y="0px"
	 viewBox="0 0 50.5 50.5" style="enable-background:new 0 0 50.5 50.5;" xml:space="preserve">
<style type="text/css">
	.st0{fill:#65B4E1;}
</style>
<path class="st0" d="M23.6,16.8c-0.1-0.1-0.3-0.1-0.4,0L21,19h-7.1c-0.3,0-0.6,0.2-0.6,0.6v15.7c0,0.3,0.2,0.6,0.6,0.6h18.9
	c0.3,0,0.6-0.2,0.6-0.6V19.6c0-0.3-0.2-0.6-0.6-0.6h-7.1L23.6,16.8z M23.4,17.4L25,19h-3.3L23.4,17.4z M32.3,34.7H14.5V20.1h17.8
	V34.7z"/>
<path class="st0" d="M31.5,20.9H15.3v13h16.2V20.9z M21.6,28c0.2-0.7,1-1.2,1.9-1.2c0.7,0,1.4,0.3,1.7,0.9c-0.2,0.3-0.4,0.5-0.6,0.8
	c-0.1,0.1-0.2,0.3-0.3,0.4c0,0,0,0,0,0C22.8,28.5,22.4,28.3,21.6,28C21.6,28,21.6,28,21.6,28z M30.9,33.4H15.8V30
	c0.3-0.4,2.3-2.7,4.2-2c0.6,0.2,1,0.4,1.3,0.5c0.7,0.3,1.2,0.5,2.8,0.8c0,0-0.1,0.1-0.1,0.1c-1.6,1.8-4.3,2.4-5.1,2.6
	c0,0-0.1,0-0.1,0c-0.1,0-0.2,0.2-0.2,0.3c0,0.1,0.2,0.2,0.3,0.2c0,0,0.1,0,0.1,0c1.1-0.2,3.7-1,5.4-2.8c0.2-0.3,0.5-0.6,0.8-1
	c0.6-1,1.4-2.2,2.4-2.1c0.9,0.1,1.5,0.9,2.1,1.7c0.4,0.6,0.8,1.1,1.3,1.4V33.4z"/>
<path class="st0" d="M37.4,41.1c0,1.3-1.1,2.4-2.4,2.4H11.6c-1.3,0-2.4-1.1-2.4-2.4V11.4c0-1.3,1.1-2.4,2.4-2.4h14.7l0.1-0.2
	c0.2-0.4,0.3-0.5,1.1-1.2l0.2-0.2H11.6c-2.3,0-4.1,1.8-4.1,4.1v29.7c0,2.3,1.8,4.1,4.1,4.1H35c2.3,0,4.1-1.8,4.1-4.1V13.8L37.4,15
	V41.1z"/>
<path class="st0" d="M32.7,7.7c-0.2,0.2-0.5,0.1-0.6,0l-1.4-1.5l-1.3,7l0,0.2l7.2-1l-1.4-1.5c-0.1-0.1-0.1-0.2-0.1-0.3
	c0-0.1,0.1-0.2,0.1-0.3c1.8-1.7,3.7-3.5,7.4-3L43,7.4l-0.4-0.3C39.4,4.5,36.2,4.7,32.7,7.7z"/>
</svg>
