<?xml version="1.0" encoding="utf-8"?>
<!-- Generator: Adobe Illustrator 18.0.0, SVG Export Plug-In . SVG Version: 6.00 Build 0)  -->
<!DOCTYPE svg PUBLIC "-//W3C//DTD SVG 1.1//EN" "http://www.w3.org/Graphics/SVG/1.1/DTD/svg11.dtd">
<svg version="1.1" id="Layer_1" xmlns="http://www.w3.org/2000/svg" xmlns:xlink="http://www.w3.org/1999/xlink" x="0px" y="0px"
	 viewBox="0 0 50.5 50.5" style="enable-background:new 0 0 50.5 50.5;" xml:space="preserve">
<style type="text/css">
	.st0{fill:#65B4E1;}
</style>
<path class="st0" d="M34,32.2V16.5c0-0.3-0.2-0.6-0.6-0.6h-7.1l-2.2-2.2c-0.1-0.1-0.3-0.1-0.4,0l-2.2,2.2h-7.1
	c-0.3,0-0.6,0.2-0.6,0.6v15.7c0,0.3,0.2,0.6,0.6,0.6h18.9C33.8,32.7,34,32.5,34,32.2z M24,14.3l1.6,1.6h-3.3L24,14.3z M32.9,31.6
	H15.1V17.1h17.8V31.6z"/>
<path class="st0" d="M32.1,17.8H15.9v13h16.2V17.8z M22.3,25c0.2-0.7,1-1.2,1.9-1.2c0.7,0,1.4,0.3,1.7,0.9c-0.2,0.3-0.4,0.5-0.6,0.8
	c-0.1,0.1-0.2,0.3-0.3,0.4c0,0,0,0,0,0C23.4,25.4,23,25.2,22.3,25C22.3,25,22.3,25,22.3,25z M31.6,30.3H16.4V27
	c0.3-0.4,2.3-2.7,4.2-2c0.6,0.2,1,0.4,1.3,0.5c0.7,0.3,1.2,0.5,2.8,0.8c0,0-0.1,0.1-0.1,0.1c-1.6,1.8-4.3,2.4-5.1,2.6
	c0,0-0.1,0-0.1,0c-0.1,0-0.2,0.2-0.2,0.3c0,0.1,0.2,0.2,0.3,0.2c0,0,0.1,0,0.1,0c1.1-0.2,3.7-1,5.4-2.8c0.2-0.3,0.5-0.6,0.8-1
	c0.6-1,1.4-2.2,2.4-2.1c0.9,0.1,1.5,0.9,2.1,1.7c0.4,0.6,0.8,1.1,1.3,1.4V30.3z"/>
<path class="st0" d="M35.6,5.2H12.2c-2.3,0-4.1,1.8-4.1,4.1V39c0,2.3,1.8,4.1,4.1,4.1h17.6L29,42.9c-0.7-0.2-1.8-0.9-2.1-1.4l0-0.1
	H12.2c-1.3,0-2.4-1.1-2.4-2.4V9.3c0-1.3,1.1-2.4,2.4-2.4h23.4c1.3,0,2.4,1.1,2.4,2.4v26l1.7,1.2V9.3C39.7,7.1,37.9,5.2,35.6,5.2z"/>
<path class="st0" d="M35.9,36.7v2c0,0.1,0,0.2-0.1,0.3c-0.1,0.1-0.2,0.1-0.3,0.1c-2.5,0-5.1,0-7.4-2.9l-0.3-0.4l0.1,0.4
	c0.6,4.1,3.1,6.2,7.6,6.4c0.2,0,0.4,0.2,0.4,0.4v2l5.9-4.3L35.9,36.7z"/>
</svg>
