<svg id="Layer_1" data-name="Layer 1" xmlns="http://www.w3.org/2000/svg" viewBox="0 0 50.46 50.46"><defs><style>.cls-1{fill:#00b5e4;}</style></defs><title>Iconos</title><path class="cls-1" d="M23.59,16.78a0.28,0.28,0,0,0-.39,0L21,19H13.92a0.55,0.55,0,0,0-.55.55V35.21a0.55,0.55,0,0,0,.55.55H32.87a0.55,0.55,0,0,0,.55-0.55V19.56A0.55,0.55,0,0,0,32.87,19H25.82Zm-0.19.58L25,19H21.74Zm8.92,17.3H14.47V20.11H32.32V34.66Z"/><path class="cls-1" d="M31.5,20.86H15.28v13H31.5v-13ZM21.64,28a2,2,0,0,1,1.92-1.22,2.08,2.08,0,0,1,1.74.86c-0.2.27-.38,0.55-0.56,0.81l-0.25.38,0,0A13.08,13.08,0,0,1,21.64,28h0Zm9.3,5.34H15.83V30c0.34-.42,2.32-2.72,4.24-2,0.59,0.21,1,.37,1.31.5a13,13,0,0,0,2.75.81l-0.1.12A10.15,10.15,0,0,1,19,32.05l-0.08,0a0.27,0.27,0,0,0-.16.35,0.28,0.28,0,0,0,.27.19h0.09a10.49,10.49,0,0,0,5.37-2.79,9.77,9.77,0,0,0,.75-1c0.64-1,1.44-2.17,2.38-2.11s1.51,0.88,2.05,1.69a3.51,3.51,0,0,0,1.31,1.37v3.64Z"/><path class="cls-1" d="M37.44,41.06A2.44,2.44,0,0,1,35,43.49H11.58a2.44,2.44,0,0,1-2.43-2.43V11.4A2.44,2.44,0,0,1,11.58,9H26.24l0.13-.21a5.46,5.46,0,0,1,1.06-1.24l0.21-.21H11.58a4.11,4.11,0,0,0-4.1,4.1V41.06a4.1,4.1,0,0,0,4.1,4.1H35a4.1,4.1,0,0,0,4.1-4.1V13.83L37.44,15v26Z"/><path class="cls-1" d="M32.68,7.71a0.45,0.45,0,0,1-.62,0L30.67,6.21l-1.35,7,0,0.17,7.25-1-1.39-1.47A0.46,0.46,0,0,1,35,10.6a0.45,0.45,0,0,1,.14-0.32c1.8-1.71,3.67-3.48,7.37-3L43,7.36l-0.35-.28C39.41,4.52,36.16,4.73,32.68,7.71Z"/></svg>