<svg xmlns="http://www.w3.org/2000/svg" viewBox="0 0 50.46 50.46">
  <title>Iconos</title>
  <path d="M34,32.15V16.5a0.55,0.55,0,0,0-.55-0.55H26.43L24.2,13.72a0.28,0.28,0,0,0-.39,0l-2.23,2.23H14.53a0.55,0.55,0,0,0-.55.55V32.15a0.55,0.55,0,0,0,.55.55H33.48A0.55,0.55,0,0,0,34,32.15ZM24,14.3l1.65,1.65H22.36Zm8.92,17.3H15.08V17.05H32.93V31.6Z" fill="#00b5e4"/>
  <path d="M32.11,17.81H15.9v13H32.11v-13ZM22.26,25a2,2,0,0,1,1.92-1.22,2.08,2.08,0,0,1,1.74.86c-0.2.27-.38,0.55-0.56,0.81l-0.25.38,0,0A13.08,13.08,0,0,1,22.25,25h0Zm9.3,5.34H16.45V27c0.34-.42,2.32-2.72,4.24-2,0.59,0.21,1,.37,1.31.5a13,13,0,0,0,2.75.81l-0.1.12A10.15,10.15,0,0,1,19.59,29l-0.08,0a0.27,0.27,0,0,0-.16.35,0.28,0.28,0,0,0,.27.19H19.7a10.49,10.49,0,0,0,5.37-2.79,9.76,9.76,0,0,0,.75-1c0.64-1,1.44-2.17,2.38-2.11s1.51,0.88,2.05,1.69a3.51,3.51,0,0,0,1.31,1.37V30.3Z" fill="#00b5e4"/>
  <path d="M35.62,5.25H12.2a4.1,4.1,0,0,0-4.1,4.1V39a4.11,4.11,0,0,0,4.1,4.1H29.76L29,42.87a4.76,4.76,0,0,1-2.08-1.36l0-.06H12.2A2.44,2.44,0,0,1,9.76,39V9.35A2.44,2.44,0,0,1,12.2,6.91H35.62a2.44,2.44,0,0,1,2.43,2.44v26l1.67,1.2V9.35A4.1,4.1,0,0,0,35.62,5.25Z" fill="#00b5e4"/>
  <path d="M35.87,36.69v2a0.46,0.46,0,0,1-.13.32,0.45,0.45,0,0,1-.32.13c-2.49,0-5.06,0-7.4-2.91l-0.28-.35,0.06,0.45c0.57,4.07,3.07,6.16,7.65,6.39a0.45,0.45,0,0,1,.42.45v2L41.81,41Z" fill="#00b5e4"/>
</svg>
