<?xml version="1.0" encoding="utf-8"?>
<!-- Generator: Adobe Illustrator 24.0.1, SVG Export Plug-In . SVG Version: 6.00 Build 0)  -->
<svg version="1.1" id="Layer_1" xmlns="http://www.w3.org/2000/svg" xmlns:xlink="http://www.w3.org/1999/xlink" x="0px" y="0px"
	 viewBox="0 0 50.5 50.5" style="enable-background:new 0 0 50.5 50.5;" xml:space="preserve">
<g>
	<path d="M16.374,32.223c2.364,0,4.281-1.917,4.281-4.281c0-2.364-1.917-4.281-4.281-4.281c-2.364,0-4.281,1.917-4.281,4.281
		S14.009,32.223,16.374,32.223z"/>
	<path d="M25.114,17.25c2.278,0,4.361-1.254,5.436-3.274c0.141-0.265,0.122-0.586-0.049-0.833c-0.171-0.247-0.467-0.378-0.764-0.336
		c-0.186,0.025-0.379,0.043-0.573,0.043c-2.023,0-3.67-1.646-3.67-3.67c0-1.044,0.446-2.041,1.222-2.733
		c0.226-0.201,0.319-0.513,0.24-0.805c-0.079-0.292-0.315-0.515-0.611-0.576c-0.408-0.083-0.822-0.126-1.231-0.126
		c-3.397,0-6.16,2.763-6.16,6.16C18.954,14.491,21.717,17.25,25.114,17.25z M24.586,6.571c-0.448,0.786-0.691,1.685-0.691,2.609
		c0,2.602,1.895,4.769,4.377,5.194c-0.837,0.807-1.961,1.276-3.157,1.276c-2.515,0-4.561-2.042-4.561-4.55
		C20.553,8.765,22.319,6.833,24.586,6.571z"/>
	<path d="M42.717,7.891c0.686,0,1.244-0.558,1.244-1.244c0-0.686-0.558-1.243-1.244-1.243s-1.244,0.558-1.244,1.243
		C41.473,7.333,42.031,7.891,42.717,7.891z"/>
	<path d="M37.807,11.476c0.686,0,1.244-0.558,1.244-1.244c0-0.686-0.558-1.243-1.244-1.243s-1.244,0.558-1.244,1.243
		C36.563,10.918,37.121,11.476,37.807,11.476z"/>
	<path d="M4.796,14.366c-0.686,0-1.244,0.558-1.244,1.244s0.558,1.244,1.244,1.244s1.244-0.558,1.244-1.244
		S5.482,14.366,4.796,14.366z"/>
	<path d="M10.144,13.411c0.686,0,1.244-0.558,1.244-1.244c0-0.686-0.558-1.243-1.244-1.243S8.9,11.481,8.9,12.167
		C8.9,12.853,9.458,13.411,10.144,13.411z"/>
	<path d="M34.074,18.599c0.686,0,1.244-0.558,1.244-1.244c0-0.686-0.558-1.243-1.244-1.243s-1.244,0.558-1.244,1.243
		C32.83,18.041,33.388,18.599,34.074,18.599z"/>
	<path d="M15.007,8.518c0.686,0,1.243-0.558,1.243-1.244c0-0.686-0.558-1.243-1.243-1.243c-0.686,0-1.244,0.558-1.244,1.243
		C13.763,7.96,14.321,8.518,15.007,8.518z"/>
	<path d="M5.51,3.688c-0.686,0-1.243,0.558-1.243,1.244c0,0.686,0.558,1.243,1.243,1.243c0.686,0,1.244-0.558,1.244-1.243
		C6.754,4.246,6.196,3.688,5.51,3.688z"/>
	<path d="M13.877,17.711c0.686,0,1.244-0.558,1.244-1.244s-0.558-1.244-1.244-1.244s-1.244,0.558-1.244,1.244
		S13.191,17.711,13.877,17.711z"/>
	<path d="M31.63,5.933c0.686,0,1.244-0.558,1.244-1.244c0-0.686-0.558-1.243-1.244-1.243c-0.686,0-1.243,0.558-1.243,1.243
		C30.387,5.375,30.945,5.933,31.63,5.933z"/>
	<path d="M45.705,12.562c-0.686,0-1.244,0.558-1.244,1.244c0,0.686,0.558,1.243,1.244,1.243c0.686,0,1.243-0.558,1.243-1.243
		C46.948,13.12,46.39,12.562,45.705,12.562z"/>
	<path d="M43.533,19.724c-0.205-0.362-0.541-0.623-0.945-0.733c-0.402-0.11-0.824-0.057-1.187,0.149l-2.761,1.56
		c-0.65,0.369-0.98,1.089-0.882,1.785l-8.964,5.068l-0.378-0.669l1.236-0.699c0.398-0.225,0.538-0.73,0.313-1.128
		c-0.225-0.397-0.728-0.539-1.128-0.313l-3.914,2.213c-0.398,0.225-0.538,0.73-0.313,1.128c0.152,0.27,0.433,0.421,0.722,0.421
		c0.138,0,0.278-0.034,0.407-0.107l1.236-0.699l0.379,0.669l-3.3,1.866c-0.191,0.108-0.332,0.287-0.39,0.499
		s-0.031,0.438,0.077,0.629l0.19,0.336l-1.737,1.822l-5.307-0.618c-0.057-0.015-0.107-0.043-0.164-0.056
		c-2.442-0.566-4.881,0.955-5.447,3.398L8.873,50.5h8.844l1.881-9.555l1.855,1.746c0.383,0.36,0.883,0.57,1.409,0.591l5.827,0.227
		c0.029,0.001,0.058,0.002,0.086,0.002c0.131,0,0.259-0.015,0.384-0.038l-2.6,7.028h1.706l5.467-14.775h0.377V50.5h1.6V35.725h0.377
		L41.552,50.5h1.706l-5.507-14.885c0.259-0.14,0.441-0.405,0.441-0.719v-2.663c0-0.457-0.371-0.828-0.828-0.828H35.46v-2.662
		l4.422-2.5c0.548,0.45,1.338,0.541,1.992,0.172l2.759-1.56c0.753-0.426,1.02-1.384,0.594-2.137L43.533,19.724z M36.535,34.068
		h-3.55v-1.007h3.55V34.068z M33.803,31.405h-1.646c-0.458,0-0.828,0.371-0.828,0.828v2.663c0,0.414,0.309,0.742,0.705,0.803
		l-1.578,4.264c-0.381-0.469-0.948-0.784-1.599-0.809l-5.012-0.195l-1.047-0.986c0.075,0.008,0.149,0.013,0.224,0.013
		c0.592,0,1.163-0.242,1.577-0.676l3.103-3.254c0.341-0.357,0.528-0.8,0.58-1.255l5.523-3.122V31.405z M41.058,24.974
		c-0.054,0.03-0.121,0.012-0.152-0.043l-0.094-0.166c-0.224-0.397-0.729-0.538-1.128-0.312l-11.888,6.721
		c-0.055-0.066-0.104-0.135-0.168-0.196c-0.214-0.205-0.46-0.355-0.72-0.456l12.282-6.944c0.398-0.225,0.538-0.73,0.313-1.128
		l-0.093-0.165c-0.024-0.043-0.011-0.111,0.046-0.145l2.684-1.516l1.601,2.832L41.058,24.974z"/>
</g>
</svg>
