<svg id="bd4aed8c-8001-4f44-bb4f-f7227e2aea1e" data-name="Capa 2" xmlns="http://www.w3.org/2000/svg" viewBox="0 0 50.46 50.46"><path d="M5.4,31.873H9.347a1,1,0,0,0,0-2H5.4a1,1,0,0,0,0,2Z"/><path d="M15.372,18.87a1,1,0,0,0,.874.512.987.987,0,0,0,.487-.127,1,1,0,0,0,.385-1.361l-1.926-3.447a1,1,0,1,0-1.746.975Z"/><path d="M7.709,22.78l3.4,2.006a1,1,0,1,0,1.015-1.723l-3.4-2.006A1,1,0,0,0,7.709,22.78Z"/><path d="M40.113,30.873a1,1,0,0,0,1,1h3.949a1,1,0,0,0,0-2H41.113A1,1,0,0,0,40.113,30.873Z"/><path d="M33.728,19.255a.983.983,0,0,0,.486.127,1,1,0,0,0,.874-.513l1.925-3.447a1,1,0,1,0-1.746-.975L33.342,17.9A1,1,0,0,0,33.728,19.255Z"/><path d="M38.842,24.925a.994.994,0,0,0,.507-.139l3.4-2.006a1,1,0,0,0-1.016-1.723l-3.4,2.006a1,1,0,0,0,.508,1.862Z"/><path d="M46.186,35.485H36.638a11.722,11.722,0,1,0-22.821,0H4.274a1,1,0,0,0,0,2H46.186a1,1,0,0,0,0-2Z"/><path d="M24.453,17.033a1,1,0,0,0,1.414,0l2.675-2.675a1,1,0,0,0-1.415-1.414l-.9.906.025-6.479a1,1,0,1,0-2-.008l-.026,6.611-.889-.89A1,1,0,0,0,21.918,14.5Z"/></svg>