<svg xmlns="http://www.w3.org/2000/svg" viewBox="0 0 50.46 50.46">
  <title>Iconos</title>
  <g>
    <path d="M48.85,31.12l-1.09-1.05-0.47-.46L46.8,30l-0.55.49V12.2a3.11,3.11,0,0,0-3.11-3.11H5A3.11,3.11,0,0,0,1.9,12.2V37.3A3.11,3.11,0,0,0,5,40.4H36.92a6.64,6.64,0,0,1-1.28-1.78H5A1.33,1.33,0,0,1,3.68,37.3V12.2A1.33,1.33,0,0,1,5,10.87H43.14a1.33,1.33,0,0,1,1.33,1.33V29.76a6.69,6.69,0,0,1,1.5,1L45.73,31l-0.52.46-0.31.28a5.1,5.1,0,0,0-3.35-1.23,5.19,5.19,0,1,0,5.19,5.19,5.08,5.08,0,0,0-.12-1.07l0.29-.33,0.63-.7,1.33-1.49,0.46-.51Zm-1.83,2-0.63.7-4.87,5.42h0L37.7,34.48,39,33.29l2.42,2.44h0L45.68,32l0.52-.46,1.07-.95,1.09,1.05Z" fill="#00b5e4"/>
    <path d="M33.25,25V24.88c0-1.08-.68-7.28-7.69-6.84-5.09.32-6.3,4.49-8.62,5.29-4.58,1.57-2.63,6-2.63,6h1a3.06,3.06,0,0,0,.73,1.15,3.13,3.13,0,0,0,4.43,0,3.06,3.06,0,0,0,.73-1.15h5.07A3.06,3.06,0,0,0,27,30.53a3.13,3.13,0,0,0,5.3-1.68l1,0S33.34,26.46,33.25,25ZM19.37,29.41a1.54,1.54,0,1,1,.47-1.1A1.5,1.5,0,0,1,19.37,29.41Zm6.18-5.76-6.11,0c1.89-2.18,3.44-3.94,6.11-4.13v4.09Zm4.78,5.76a1.54,1.54,0,1,1,.46-1.1A1.5,1.5,0,0,1,30.33,29.41Zm-3.86-5.77V19.57a4.89,4.89,0,0,1,4.9,4Z" fill="#00b5e4"/>
  </g>
</svg>
