<?xml version="1.0" encoding="utf-8"?>
<!-- Generator: Adobe Illustrator 18.0.0, SVG Export Plug-In . SVG Version: 6.00 Build 0)  -->
<!DOCTYPE svg PUBLIC "-//W3C//DTD SVG 1.1//EN" "http://www.w3.org/Graphics/SVG/1.1/DTD/svg11.dtd">
<svg version="1.1" id="Layer_1" xmlns="http://www.w3.org/2000/svg" xmlns:xlink="http://www.w3.org/1999/xlink" x="0px" y="0px"
	 viewBox="0 0 50.5 50.5" style="enable-background:new 0 0 50.5 50.5;" xml:space="preserve">
<style type="text/css">
	.st0{fill:#65B4E1;}
</style>
<g>
	<g>
		<g>
			<path class="st0" d="M48.9,31.1l-1.1-1.1l-0.5-0.5L46.8,30l-0.6,0.5V12.2c0-1.7-1.4-3.1-3.1-3.1H5c-1.7,0-3.1,1.4-3.1,3.1v25.1
				c0,1.7,1.4,3.1,3.1,3.1h31.9c-0.5-0.5-1-1.1-1.3-1.8H5c-0.7,0-1.3-0.6-1.3-1.3V12.2c0-0.7,0.6-1.3,1.3-1.3h38.1
				c0.7,0,1.3,0.6,1.3,1.3v17.6c0.5,0.3,1.1,0.6,1.5,1L45.7,31l-0.5,0.5l-0.3,0.3c-0.1-0.1-0.3-0.2-0.4-0.3
				c-0.8-0.6-1.8-0.9-2.9-0.9c-2.9,0-5.2,2.3-5.2,5.2c0,1.1,0.3,2.1,0.9,2.9c0.5,0.8,1.3,1.4,2.1,1.8c0.7,0.3,1.4,0.5,2.2,0.5
				c0.9,0,1.7-0.2,2.4-0.6c0.9-0.5,1.7-1.2,2.2-2.1c0.4-0.7,0.6-1.6,0.6-2.5c0-0.4,0-0.7-0.1-1.1l0.3-0.3l0.6-0.7l1.3-1.5l0.5-0.5
				L48.9,31.1z M47,33.1l-0.6,0.7l-4.9,5.4v0l0,0l-3.8-4.8l1.4-1.2l2.4,2.4h0l4.2-3.7l0.5-0.5l1.1-0.9l1.1,1.1L47,33.1z"/>
		</g>
		<path class="st0" d="M33.3,25C33.3,24.9,33.3,24.9,33.3,25c0-1.2-0.7-7.4-7.7-6.9c-5.1,0.3-6.3,4.5-8.6,5.3c-4.6,1.6-2.6,6-2.6,6
			h1c0.2,0.4,0.4,0.8,0.7,1.2c0.6,0.6,1.3,0.9,2.2,0.9c0.9,0,1.6-0.3,2.2-0.9c0.3-0.3,0.6-0.7,0.7-1.2h5.1c0.2,0.4,0.4,0.8,0.7,1.2
			c0.6,0.6,1.3,0.9,2.2,0.9c0.9,0,1.6-0.3,2.2-0.9c0.5-0.5,0.8-1,0.9-1.7l1,0C33.3,28.9,33.3,26.5,33.3,25z M19.4,29.4
			c-0.3,0.3-0.7,0.5-1.1,0.5c-0.4,0-0.8-0.2-1.1-0.5c-0.3-0.3-0.5-0.7-0.5-1.1c0-0.4,0.2-0.8,0.5-1.1c0.3-0.3,0.7-0.5,1.1-0.5
			c0.4,0,0.8,0.2,1.1,0.5c0.3,0.3,0.5,0.7,0.5,1.1C19.8,28.7,19.7,29.1,19.4,29.4z M25.6,23.7l-6.1,0c1.9-2.2,3.4-3.9,6.1-4.1V23.7z
			 M30.3,29.4c-0.3,0.3-0.7,0.5-1.1,0.5c-0.4,0-0.8-0.2-1.1-0.5c-0.3-0.3-0.5-0.7-0.5-1.1c0-0.4,0.2-0.8,0.5-1.1
			c0.3-0.3,0.7-0.5,1.1-0.5c0.4,0,0.8,0.2,1.1,0.5c0.3,0.3,0.5,0.7,0.5,1.1C30.8,28.7,30.6,29.1,30.3,29.4z M26.5,23.6v-4.1
			c3.7,0.2,4.5,2.7,4.9,4L26.5,23.6z"/>
	</g>
</g>
</svg>
