<?xml version="1.0" encoding="utf-8"?>
<!-- Generator: Adobe Illustrator 18.0.0, SVG Export Plug-In . SVG Version: 6.00 Build 0)  -->
<!DOCTYPE svg PUBLIC "-//W3C//DTD SVG 1.1//EN" "http://www.w3.org/Graphics/SVG/1.1/DTD/svg11.dtd">
<svg version="1.1" id="Layer_1" xmlns="http://www.w3.org/2000/svg" xmlns:xlink="http://www.w3.org/1999/xlink" x="0px" y="0px"
	 viewBox="0 0 50.5 50.5" style="enable-background:new 0 0 50.5 50.5;" xml:space="preserve">
<style type="text/css">
	.st0{fill:#65B4E1;}
</style>
<g>
	<path class="st0" d="M7.5,34.6L7.4,34c-0.1-0.4-0.1-0.7-0.1-1.1c0-3.3,2.7-5.9,5.9-5.9s5.9,2.7,5.9,5.9c0,0.4,0,0.7-0.1,1.1
		l-0.1,0.6h13.5L32.3,34c0-0.2,0-0.4,0-0.7c0-3.3,2.7-5.9,5.9-5.9c3.2,0,5.8,2.5,5.9,5.6v0l0,0.6c1.2-0.7,1.9-1.8,1.9-3.7
		c0-0.6-0.1-3.6-0.2-4.1l0,0c0,0-1.6-14.4-16.7-13.4C18,13.2,16,21.2,11,22.7C1,25.8,4.6,34.6,4.6,34.6H7.5z M31.1,15.4
		c8,0.4,9.8,5.3,10.7,7.9l-10.7,0.1V15.4z M29.1,15.4v8l-12.7,0.1C20.5,19.2,23.3,15.8,29.1,15.4z"/>
	<path class="st0" d="M43,33.8c0-0.2,0-0.4,0-0.5c0-2.7-2.2-4.8-4.8-4.8c-2.7,0-4.8,2.2-4.8,4.8c0,0.4,0.1,0.8,0.1,1.1
		c0.5,2.1,2.4,3.7,4.7,3.7C40.7,38.1,42.7,36.2,43,33.8z M40.9,34.3c-0.4,1-1.4,1.8-2.6,1.8c-1.2,0-2.1-0.7-2.6-1.7
		c-0.1-0.3-0.2-0.7-0.2-1.1c0-1.6,1.3-2.8,2.8-2.8c1.6,0,2.8,1.3,2.8,2.8C41.1,33.7,41,34,40.9,34.3z"/>
	<path class="st0" d="M13.2,28.1c-2.7,0-4.8,2.2-4.8,4.8c0,0.5,0.1,1,0.2,1.5c0.6,1.9,2.4,3.3,4.6,3.3c2.1,0,3.9-1.4,4.6-3.3
		c0.2-0.5,0.2-1,0.2-1.5C18,30.3,15.9,28.1,13.2,28.1z M15.6,34.4c-0.5,0.8-1.4,1.3-2.4,1.3c-1,0-1.9-0.5-2.4-1.3
		c-0.3-0.4-0.4-1-0.4-1.5c0-1.6,1.3-2.8,2.8-2.8s2.8,1.3,2.8,2.8C16,33.5,15.8,34,15.6,34.4z"/>
</g>
</svg>
