<svg xmlns="http://www.w3.org/2000/svg" viewBox="0 0 50.46 50.46">
  <title>Iconos</title>
  <g>
    <path d="M36.52,27.65a6.25,6.25,0,1,0,6.25,6.25A6.25,6.25,0,0,0,36.52,27.65Zm0,10.69A4.45,4.45,0,1,1,41,33.89,4.45,4.45,0,0,1,36.52,38.34Z" fill="#00b5e4"/>
    <path d="M13.93,27.65a6.25,6.25,0,1,0,6.25,6.25A6.25,6.25,0,0,0,13.93,27.65Zm0,10.69a4.45,4.45,0,1,1,4.45-4.45A4.45,4.45,0,0,1,13.93,38.34Z" fill="#00b5e4"/>
    <path d="M28.47,32.51H22a1,1,0,0,0,0,2h6.48A1,1,0,0,0,28.47,32.51Z" fill="#00b5e4"/>
    <path d="M47,24.68V24.63c-0.57-5.33-5-15.15-17.8-14.25-7.37.52-10.94,4.09-13.81,7-1.56,1.56-2.9,2.9-4.52,3.4-3.38,1-5.69,2.83-6.86,5.31a10.55,10.55,0,0,0-.13,7.84,1,1,0,0,0,.92.62H5.78a1,1,0,1,0,0-2H5.56a8.26,8.26,0,0,1,.3-5.6C6.77,25,8.67,23.53,11.5,22.66c2.09-.65,3.67-2.23,5.35-3.9,2.77-2.77,5.91-5.91,12.53-6.38C43,11.4,44.88,23.53,45,24.77a1,1,0,0,0,0,.22c0.1,0.43.19,3.09,0.19,3.9a2.87,2.87,0,0,1-1.43,2.82,1,1,0,0,0,1,1.74,4.86,4.86,0,0,0,2.44-4.56S47.21,25.74,47,24.68Z" fill="#00b5e4"/>
    <path d="M32.77,21.33l7.51,0A0.8,0.8,0,0,0,41,20.17c-0.95-2.18-3-5-8.13-5.66a0.81,0.81,0,0,0-.92.79v5.23A0.8,0.8,0,0,0,32.77,21.33Z" fill="#00b5e4"/>
    <path d="M28.29,21.36A0.68,0.68,0,0,0,29,20.68V15.48a0.93,0.93,0,0,0-1.1-.91c-3.78.69-6.11,2.92-9,5.92a0.53,0.53,0,0,0,.4.93Z" fill="#00b5e4"/>
  </g>
</svg>
