<?xml version="1.0" encoding="utf-8"?>
<!-- Generator: Adobe Illustrator 18.0.0, SVG Export Plug-In . SVG Version: 6.00 Build 0)  -->
<!DOCTYPE svg PUBLIC "-//W3C//DTD SVG 1.1//EN" "http://www.w3.org/Graphics/SVG/1.1/DTD/svg11.dtd">
<svg version="1.1" id="Layer_1" xmlns="http://www.w3.org/2000/svg" xmlns:xlink="http://www.w3.org/1999/xlink" x="0px" y="0px"
	 viewBox="0 0 50.5 50.5" style="enable-background:new 0 0 50.5 50.5;" xml:space="preserve">
<style type="text/css">
	.st0{fill:#65B4E1;}
</style>
<g>
	<g>
		<path class="st0" d="M33.4,31.7c0.4,0,0.8-0.4,0.8-0.8S33.9,30,33.4,30H17.3c-0.4,0-0.8,0.4-0.8,0.8s0.4,0.8,0.8,0.8"/>
		<path class="st0" d="M17.3,36.2h16.1c0.4,0,0.8-0.4,0.8-0.8s-0.4-0.8-0.8-0.8H17.3c-0.4,0-0.8,0.4-0.8,0.8S16.8,36.2,17.3,36.2z"
			/>
	</g>
	<path class="st0" d="M41.1,13.6L41.1,13.6l-6.7-7.2l0,0H13.6c-2.3,0-4.1,1.8-4.1,4.1v29.7c0,2.3,1.8,4.1,4.1,4.1h23.4
		c2.3,0,4.1-1.8,4.1-4.1L41.1,13.6z M39.5,15.1v25c0,1.3-1.1,2.4-2.4,2.4H13.6c-1.3,0-2.4-1.1-2.4-2.4V10.4c0-1.3,1.1-2.4,2.4-2.4
		h19.5l0,6.2c0,0.5,0.4,0.9,0.9,0.9l0,0C34.5,15.1,37.2,15.1,39.5,15.1z M35,9.7l3.2,3.5c-1.4,0-2.6,0-3.1,0L35,9.7z"/>
	<path class="st0" d="M33.8,20.8C33.8,20.8,33.8,20.8,33.8,20.8c0-1-0.6-6.4-6.7-6c-4.4,0.3-5.5,3.9-7.5,4.6c-4,1.4-2.3,5.3-2.3,5.3
		h0.9c0.1,0.4,0.3,0.7,0.6,1c0.5,0.5,1.2,0.8,1.9,0.8c0.8,0,1.4-0.3,1.9-0.8c0.3-0.3,0.5-0.6,0.6-1h4.4c0.1,0.4,0.3,0.7,0.6,1
		c0.5,0.5,1.2,0.8,1.9,0.8c0.8,0,1.4-0.3,1.9-0.8c0.4-0.4,0.7-0.9,0.8-1.5l0.9,0C33.8,24.3,33.8,22.1,33.8,20.8z M21.6,24.7
		c-0.3,0.3-0.6,0.4-1,0.4c-0.4,0-0.7-0.1-1-0.4c-0.3-0.3-0.4-0.6-0.4-1c0-0.4,0.1-0.7,0.4-1c0.3-0.3,0.6-0.4,1-0.4
		c0.4,0,0.7,0.1,1,0.4c0.3,0.3,0.4,0.6,0.4,1C22,24.1,21.9,24.4,21.6,24.7z M27,19.7l-5.3,0c1.6-1.9,3-3.4,5.3-3.6V19.7z M31.2,24.7
		c-0.3,0.3-0.6,0.4-1,0.4c-0.4,0-0.7-0.1-1-0.4c-0.3-0.3-0.4-0.6-0.4-1c0-0.4,0.1-0.7,0.4-1c0.3-0.3,0.6-0.4,1-0.4
		c0.4,0,0.7,0.1,1,0.4c0.3,0.3,0.4,0.6,0.4,1C31.6,24.1,31.5,24.4,31.2,24.7z M27.8,19.7v-3.6c3.2,0.2,3.9,2.3,4.3,3.5L27.8,19.7z"
		/>
</g>
</svg>
