<?xml version="1.0" encoding="utf-8"?>
<!-- Generator: Adobe Illustrator 18.0.0, SVG Export Plug-In . SVG Version: 6.00 Build 0)  -->
<!DOCTYPE svg PUBLIC "-//W3C//DTD SVG 1.1//EN" "http://www.w3.org/Graphics/SVG/1.1/DTD/svg11.dtd">
<svg version="1.1" id="Layer_1" xmlns="http://www.w3.org/2000/svg" xmlns:xlink="http://www.w3.org/1999/xlink" x="0px" y="0px"
	 viewBox="0 0 50.5 50.5" style="enable-background:new 0 0 50.5 50.5;" xml:space="preserve">
<style type="text/css">
	.st0{fill:#65B4E1;}
</style>
<g>
	<g>
		<path class="st0" d="M44.3,9.6H6.2c-1.7,0-3.1,1.4-3.1,3.1v25c0,1.7,1.4,3.1,3.1,3.1h38.1c1.7,0,3.1-1.4,3.1-3.1v-25
			C47.4,11,46,9.6,44.3,9.6z M45.6,37.7c0,0.7-0.6,1.3-1.3,1.3H6.2c-0.7,0-1.3-0.6-1.3-1.3v-25c0-0.7,0.6-1.3,1.3-1.3h38.1
			c0.7,0,1.3,0.6,1.3,1.3V37.7z"/>
		<path class="st0" d="M34.3,25.4C34.3,25.4,34.3,25.4,34.3,25.4c0-1.1-0.6-6.9-7.2-6.5c-4.8,0.3-5.9,4.2-8.1,5
			c-4.3,1.5-2.5,5.7-2.5,5.7h0.9c0.1,0.4,0.4,0.8,0.7,1.1c0.6,0.6,1.3,0.9,2.1,0.9c0.8,0,1.5-0.3,2.1-0.9c0.3-0.3,0.5-0.7,0.7-1.1
			h4.8c0.1,0.4,0.4,0.8,0.7,1.1c0.6,0.6,1.3,0.9,2.1,0.9c0.8,0,1.5-0.3,2.1-0.9c0.5-0.4,0.7-1,0.8-1.6l1,0
			C34.3,29.1,34.3,26.9,34.3,25.4z M21.2,29.6c-0.3,0.3-0.6,0.4-1,0.4c-0.4,0-0.7-0.1-1-0.4c-0.3-0.3-0.4-0.6-0.4-1
			c0-0.4,0.1-0.7,0.4-1c0.3-0.3,0.6-0.4,1-0.4c0.4,0,0.7,0.1,1,0.4c0.3,0.3,0.4,0.6,0.4,1C21.7,29,21.5,29.3,21.2,29.6z M27,24.2
			l-5.7,0c1.8-2,3.2-3.7,5.7-3.9V24.2z M31.5,29.6c-0.3,0.3-0.6,0.4-1,0.4c-0.4,0-0.7-0.1-1-0.4c-0.3-0.3-0.4-0.6-0.4-1
			c0-0.4,0.1-0.7,0.4-1c0.3-0.3,0.6-0.4,1-0.4c0.4,0,0.7,0.1,1,0.4c0.3,0.3,0.4,0.6,0.4,1C32,29,31.8,29.3,31.5,29.6z M27.9,24.2
			v-3.8c3.4,0.2,4.2,2.5,4.6,3.8L27.9,24.2z"/>
	</g>
</g>
</svg>
