<svg id="Layer_1" data-name="Layer 1" xmlns="http://www.w3.org/2000/svg" viewBox="0 0 50.46 50.46"><defs><style>.cls-1{fill:#00b5e4;}</style></defs><title>Iconos</title><path class="cls-1" d="M7.5,34.55L7.37,34a5.85,5.85,0,0,1-.11-1.1,5.92,5.92,0,0,1,11.84,0A5.85,5.85,0,0,1,19,34l-0.13.59H32.39L32.3,34a5.68,5.68,0,0,1,0-.66A5.92,5.92,0,0,1,44.09,33v0l0,0.61A3.87,3.87,0,0,0,46,29.92a40,40,0,0,0-.22-4.14h0S44.26,11.34,29.08,12.42C18,13.2,16,21.18,11,22.74,1,25.82,4.61,34.55,4.61,34.55H7.5ZM31.07,15.4c8,0.38,9.84,5.25,10.65,7.89l-10.65.07v-8Zm-2,0v8l-12.65.08C20.52,19.21,23.25,15.76,29.07,15.4Z"/><path class="cls-1" d="M43,33.84a4.8,4.8,0,1,0-4.77,4.26A4.83,4.83,0,0,0,43,33.84Zm-2.16.49a2.8,2.8,0,1,1,.2-1A2.81,2.81,0,0,1,40.85,34.33Z"/><path class="cls-1" d="M13.2,28.1A4.8,4.8,0,1,0,18,32.9,4.8,4.8,0,0,0,13.2,28.1Zm2.36,6.32A2.8,2.8,0,1,1,16,32.9,2.8,2.8,0,0,1,15.56,34.42Z"/></svg>