<?xml version="1.0" encoding="utf-8"?>
<!-- Generator: Adobe Illustrator 16.0.0, SVG Export Plug-In . SVG Version: 6.00 Build 0)  -->
<!DOCTYPE svg PUBLIC "-//W3C//DTD SVG 1.1//EN" "http://www.w3.org/Graphics/SVG/1.1/DTD/svg11.dtd">
<svg version="1.1" id="Layer_1" xmlns="http://www.w3.org/2000/svg" xmlns:xlink="http://www.w3.org/1999/xlink" x="0px" y="0px"
	 width="1366px" height="557px" viewBox="0 0 1366 557" enable-background="new 0 0 1366 557" xml:space="preserve">
<g>
	<path d="M1023.479,301.403c46.027,0,83.334,37.307,83.334,83.333c0,46.029-37.307,83.334-83.334,83.334
		c-46.028,0-83.24-37.305-83.24-83.334C940.239,338.709,977.451,301.403,1023.479,301.403z"/>
	<path d="M918.711,197.747c-56.888-37.862-81.015-64.333-148.246-86.442c-23.619-7.727-50.9-14.013-87.904-18.281
		c-22.156-2.575-136.136-9.65-218.936,4.27c-49.717,8.235-93.286,40.298-179.195,83.193l-69.32,10.022
		c-2.042,2.25-12.807,9.512-13.433,16.448c-0.766,8.375,1.855,84.563,1.044,84.563l-7.262-0.046
		c-5.661,0.649-12.922,8.815-12.922,14.198v50.11c0,5.29,26.68,50.297,32.573,50.297l26.517-0.092
		c-1.276-6.774-1.995-13.874-1.995-21.065c0-60.97,49.462-110.361,110.384-110.361c60.946,0,110.407,49.486,110.407,110.361
		c0,7.007-0.649,13.92-1.949,20.556l457.035-1.206c-1.066-6.265-1.717-12.76-1.717-19.35c0-60.97,49.463-110.361,110.432-110.361
		s110.337,49.486,110.337,110.361c0,6.402-0.558,12.714-1.577,18.792l34.706-0.094c4.688-8.676,13.828-19.302,15.775-32.247v-51.781
		c0-8.259-20.322-15.219-26.122-17.539c-7.655-21.83-13.688-45.402-23.34-53.034C1081.896,227.117,994.295,206.633,918.711,197.747z
		"/>
	<path d="M348.924,301.403c45.982,0,83.287,37.307,83.287,83.333c0,46.029-37.352,83.334-83.287,83.334
		c-46.051,0-83.357-37.305-83.357-83.334C265.567,338.709,302.874,301.403,348.924,301.403z"/>
	<path fill="#FFFFFF" d="M1023.479,342.188c23.479,0,42.595,19.07,42.595,42.548c0,23.525-19.116,42.549-42.595,42.549
		c-23.479,0-42.55-19.069-42.55-42.549C980.93,361.166,1000.002,342.188,1023.479,342.188"/>
	<path fill="#FFFFFF" d="M867.855,227.002l-207.962-6.078l-17.539-106c24.081,0.766,48.719,4.223,70.759,6.564
		c12.063,1.811,37.678,7.936,49.229,11.53c32.017,9.976,56.979,24.383,84.355,44.381c3.896,2.9,7.1,5.173,9.65,6.983
		c3.248,2.297,14.104,11.6,13.688,16.819L867.855,227.002z"/>
	<path fill="#FFFFFF" d="M610.524,114.784c-44.288-0.231-107.531,2.993-149.662,10.115l-21.251,39.208l-0.232,46.516
		c54.45,3.456,126.485,6.031,180.749,8.352L610.524,114.784z"/>
	<path fill="#FFFFFF" d="M348.924,342.188c23.501,0,42.571,19.07,42.571,42.548c0,23.525-19.117,42.549-42.571,42.549
		c-23.478,0-42.572-19.069-42.572-42.549C306.353,361.259,325.399,342.188,348.924,342.188z"/>
</g>
</svg>
