<svg xmlns="http://www.w3.org/2000/svg" viewBox="0 0 50.46 50.46">
  <title>Iconos</title>
  <g>
    <g>
      <path d="M33.41,31.66a0.81,0.81,0,1,0,0-1.62H17.3a0.81,0.81,0,0,0,0,1.62" fill="#00b5e4"/>
      <path d="M17.3,36.25H33.41a0.81,0.81,0,0,0,0-1.62H17.3A0.81,0.81,0,0,0,17.3,36.25Z" fill="#00b5e4"/>
    </g>
    <path d="M41.07,13.55v0L34.34,6.34l0,0H13.64a4.11,4.11,0,0,0-4.1,4.1V40.06a4.11,4.11,0,0,0,4.1,4.1H37.07a4.1,4.1,0,0,0,4.1-4.1ZM39.5,15.07v25a2.44,2.44,0,0,1-2.43,2.43H13.64a2.44,2.44,0,0,1-2.44-2.43V10.4A2.44,2.44,0,0,1,13.64,8H33.13l0,6.17a1,1,0,0,0,.94.94h0C34.53,15.08,37.17,15.11,39.5,15.07ZM35,9.73l3.17,3.46H35.06Z" fill="#00b5e4"/>
    <path d="M33.76,20.82V20.76a5.93,5.93,0,0,0-6.71-6c-4.45.28-5.5,3.92-7.52,4.61-4,1.37-2.29,5.28-2.29,5.28h0.88a2.67,2.67,0,0,0,.64,1,2.73,2.73,0,0,0,3.86,0,2.67,2.67,0,0,0,.64-1h4.43a2.67,2.67,0,0,0,.64,1,2.73,2.73,0,0,0,4.62-1.46l0.9,0S33.83,22.14,33.76,20.82ZM21.64,24.71a1.34,1.34,0,1,1,.41-1A1.31,1.31,0,0,1,21.64,24.71Zm5.4-5-5.33,0c1.65-1.9,3-3.44,5.33-3.6v3.57Zm4.17,5a1.34,1.34,0,1,1,.41-1A1.31,1.31,0,0,1,31.21,24.71Zm-3.37-5V16.12a4.27,4.27,0,0,1,4.27,3.53Z" fill="#00b5e4"/>
  </g>
</svg>
