<svg id="Layer_1" data-name="Layer 1" xmlns="http://www.w3.org/2000/svg" viewBox="0 0 50.46 50.46"><defs><style>.cls-1{fill:#00b5e4;}</style></defs><title>Iconos</title><path class="cls-1" d="M16,21.67a2.85,2.85,0,0,0-.74.56l-0.13.11a0.86,0.86,0,0,0-.21.24c3.12,1.19,5.61,2.23,5.61,2.23l5.3-3.88s-6.91.43-7.4,0.45A7.66,7.66,0,0,0,16,21.67Z"/><path class="cls-1" d="M6.55,32.65c1.56,1.06,8.19,5.74,8.19,5.74L15,38.22s4.38-3.08,9.12-6.57c0-2.12,0-4,0-4A0.59,0.59,0,0,1,24.52,27a0.48,0.48,0,0,1,.53.4,1.21,1.21,0,0,1,.05.22v3.28c0,2.24.05,5,.07,5.95V37.1c0,0.19,0,.38,0,0.53l0.33-.18,0.22-.12a5.16,5.16,0,0,0,1.82-1.66l3.91-9.55h0l0.92-2.24,0.22-.53a0.52,0.52,0,1,1,1,.4l-0.47,1.16L42.4,18c0.32-.31,3.08-3.09,1.75-5a2.93,2.93,0,0,0-2.9-.84,8.78,8.78,0,0,0-3.16,1.2L14.27,30.46h0c-0.06,0-2.12-.16-4.92-0.14a7.85,7.85,0,0,0-1,.07C6.29,30.68,5.2,31.73,6.55,32.65Z"/></svg>