<?xml version="1.0" encoding="utf-8"?>
<!-- Generator: Adobe Illustrator 18.0.0, SVG Export Plug-In . SVG Version: 6.00 Build 0)  -->
<!DOCTYPE svg PUBLIC "-//W3C//DTD SVG 1.1//EN" "http://www.w3.org/Graphics/SVG/1.1/DTD/svg11.dtd">
<svg version="1.1" id="Layer_1" xmlns="http://www.w3.org/2000/svg" xmlns:xlink="http://www.w3.org/1999/xlink" x="0px" y="0px"
	 viewBox="0 0 50.5 50.5" style="enable-background:new 0 0 50.5 50.5;" xml:space="preserve">
<style type="text/css">
	.st0{fill:#65B4E1;}
</style>
<path class="st0" d="M16,21.7c-0.2,0.1-0.3,0.2-0.7,0.6l-0.1,0.1C15,22.5,15,22.5,15,22.6c3.1,1.2,5.6,2.2,5.6,2.2l5.3-3.9
	c0,0-6.9,0.4-7.4,0.5C16.7,21.5,16.3,21.6,16,21.7z"/>
<path class="st0" d="M6.5,32.6c1.6,1.1,8.2,5.7,8.2,5.7l0.2-0.2c0,0,4.4-3.1,9.1-6.6c0-2.1,0-4,0-4s0-0.5,0.5-0.6
	c0.3-0.1,0.5,0.2,0.5,0.4c0,0.1,0.1,0.2,0.1,0.2s0,0.1,0,0.3c0,0.2,0,0.4,0,0.7c0,0.4,0,0.9,0,1.5c0,0.3,0,0.6,0,0.9
	c0,2.2,0.1,5,0.1,5.9l0,0.3c0,0.2,0,0.4,0,0.5c0.1-0.1,0.2-0.1,0.3-0.2l0.2-0.1c1.2-0.7,1.8-1.6,1.8-1.7l3.9-9.5l0,0l0.9-2.2
	l0.2-0.5c0.1-0.3,0.4-0.4,0.7-0.3c0.3,0.1,0.4,0.4,0.3,0.7l-0.5,1.2l9.3-6.9c0.3-0.3,3.1-3.1,1.8-5c-0.4-0.6-1.4-1.1-2.9-0.8
	c-0.9,0.1-1.9,0.5-3.2,1.2L14.3,30.5l0,0c-0.1,0-2.1-0.2-4.9-0.1c-0.4,0-0.7,0-1,0.1C6.3,30.7,5.2,31.7,6.5,32.6z"/>
</svg>
