<?xml version="1.0" encoding="utf-8"?>
<!-- Generator: Adobe Illustrator 24.0.1, SVG Export Plug-In . SVG Version: 6.00 Build 0)  -->
<svg version="1.1" id="Layer_1" xmlns="http://www.w3.org/2000/svg" xmlns:xlink="http://www.w3.org/1999/xlink" x="0px" y="0px"
	 viewBox="0 0 50.5 50.5" style="enable-background:new 0 0 50.5 50.5;" xml:space="preserve">
<g>
	<path d="M42.48,18.552v-1.823c0-1.92-1.562-3.481-3.481-3.481H25.353c-0.035,0-0.069-0.005-0.103-0.005
		c-0.037,0-0.073,0.005-0.11,0.005H11.501c-1.92,0-3.481,1.562-3.481,3.481v1.823c-2.927,1.766-4.895,4.967-4.895,8.627
		c0,5.558,4.521,10.079,10.079,10.079c5.103,0,9.322-3.815,9.98-8.741h4.132c0.658,4.926,4.877,8.741,9.98,8.741
		c5.558,0,10.079-4.521,10.079-10.079C47.375,23.518,45.407,20.317,42.48,18.552z M38.999,14.847c1.038,0,1.882,0.844,1.882,1.882
		v1.042c-1.116-0.427-2.321-0.67-3.584-0.67c-0.753,0-1.484,0.09-2.19,0.247c-1.007-1.008-2.155-1.848-3.403-2.5H38.999z
		 M27.23,26.917h-3.96c-0.105-4.049-2.6-7.514-6.132-9.017c2.221-1.947,5.024-3.027,8.001-3.053h0.217
		c2.995,0.025,5.796,1.096,8.016,3.048C29.835,19.396,27.335,22.863,27.23,26.917z M9.62,16.729c0-1.038,0.844-1.882,1.882-1.882
		h7.247c-1.22,0.645-2.35,1.474-3.354,2.477c-0.006,0.006-0.007,0.014-0.013,0.02c-0.702-0.156-1.43-0.244-2.178-0.244
		c-1.264,0-2.469,0.244-3.584,0.67V16.729z M13.204,35.658c-4.675,0-8.479-3.804-8.479-8.479c0-4.675,3.804-8.479,8.479-8.479
		s8.479,3.804,8.479,8.479C21.684,31.854,17.879,35.658,13.204,35.658z M37.296,35.658c-4.675,0-8.479-3.804-8.479-8.479
		c0-4.675,3.804-8.479,8.479-8.479s8.479,3.804,8.479,8.479C45.775,31.854,41.971,35.658,37.296,35.658z"/>
	<path d="M37.296,20.18c-3.859,0-6.999,3.14-6.999,6.999c0,3.859,3.14,6.999,6.999,6.999c3.859,0,6.999-3.14,6.999-6.999
		C44.294,23.32,41.155,20.18,37.296,20.18z M32.333,29.302c0.345-0.27,1.248-0.99,1.724-1.485c0.24-0.251,0.49-0.63,0.807-1.11
		c0.461-0.7,1.093-1.658,1.641-2.023c0.274-0.183,0.662-0.234,1.012-0.135c0.184,0.052,0.517,0.194,0.684,0.56
		c0.149,0.327,0.179,0.729,0.188,1.078c0.007,0.252,0.133,0.487,0.339,0.632l1.005,0.707l-0.64,0.284
		c-0.324,0.145-0.515,0.485-0.468,0.837c0.075,0.561-0.024,1.099-0.26,2.022c-0.192,0.755-0.408,1.153-0.637,1.576
		c-0.053,0.098-0.103,0.206-0.155,0.306c-0.094,0.005-0.182,0.028-0.277,0.028C35.072,32.578,33.159,31.226,32.333,29.302z
		 M39.596,32.044c0.111-0.276,0.22-0.587,0.321-0.982c0.184-0.723,0.33-1.356,0.334-2.017l1.422-0.632
		c0.263-0.117,0.443-0.367,0.471-0.653c0.028-0.287-0.101-0.566-0.336-0.732l-1.841-1.296c-0.034-0.401-0.113-0.854-0.312-1.289
		c-0.317-0.694-0.937-1.218-1.701-1.435c-0.799-0.227-1.673-0.099-2.337,0.343c-0.817,0.545-1.523,1.615-2.089,2.474
		c-0.239,0.363-0.487,0.738-0.626,0.884c-0.229,0.239-0.622,0.576-0.984,0.874c-0.01-0.134-0.021-0.268-0.021-0.405
		c0-2.977,2.422-5.399,5.399-5.399s5.399,2.422,5.399,5.399C42.695,29.331,41.421,31.177,39.596,32.044z"/>
	<path d="M36.683,26.029c-0.442,0-0.787,0.358-0.787,0.8s0.371,0.8,0.812,0.8h0.026c0.442,0,0.774-0.358,0.774-0.8
		S37.125,26.029,36.683,26.029z"/>
	<path d="M13.204,20.18c-3.859,0-6.999,3.14-6.999,6.999c0,3.859,3.14,6.999,6.999,6.999c3.859,0,6.999-3.14,6.999-6.999
		C20.203,23.32,17.063,20.18,13.204,20.18z M8.242,29.301c0.346-0.271,1.248-0.99,1.722-1.484c0.24-0.251,0.49-0.63,0.807-1.11
		c0.461-0.7,1.093-1.658,1.641-2.023c0.274-0.183,0.662-0.234,1.012-0.135c0.184,0.052,0.517,0.194,0.684,0.561
		c0.149,0.325,0.179,0.727,0.188,1.077c0.007,0.252,0.133,0.487,0.339,0.632l1.005,0.707l-0.639,0.284
		c-0.325,0.145-0.515,0.485-0.468,0.837c0.075,0.561-0.024,1.099-0.26,2.022c-0.192,0.755-0.408,1.153-0.637,1.576
		c-0.055,0.102-0.108,0.215-0.163,0.32c-0.09,0.005-0.179,0.014-0.27,0.014C10.98,32.578,9.068,31.226,8.242,29.301z M15.498,32.06
		c0.113-0.279,0.224-0.595,0.327-0.997c0.184-0.723,0.33-1.356,0.334-2.017l1.422-0.632c0.264-0.117,0.443-0.367,0.472-0.653
		c0.028-0.287-0.101-0.566-0.336-0.732l-1.842-1.296c-0.034-0.401-0.113-0.855-0.312-1.289c-0.317-0.694-0.937-1.218-1.701-1.435
		c-0.799-0.227-1.674-0.099-2.337,0.343c-0.817,0.545-1.523,1.615-2.089,2.474c-0.239,0.363-0.487,0.738-0.627,0.884
		c-0.225,0.235-0.608,0.564-0.964,0.858c-0.01-0.131-0.039-0.256-0.039-0.389c0-2.977,2.422-5.399,5.399-5.399
		s5.399,2.422,5.399,5.399C18.604,29.335,17.33,31.195,15.498,32.06z"/>
	<path d="M12.591,26.029c-0.442,0-0.787,0.358-0.787,0.8s0.371,0.8,0.812,0.8h0.026c0.442,0,0.774-0.358,0.774-0.8
		S13.033,26.029,12.591,26.029z"/>
	<path d="M25.25,19.077c-0.863,0-1.564,0.702-1.564,1.564s0.702,1.565,1.564,1.565s1.564-0.702,1.564-1.565
		S26.113,19.077,25.25,19.077z"/>
</g>
</svg>
