<svg id="Layer_1" data-name="Layer 1" xmlns="http://www.w3.org/2000/svg" viewBox="0 0 50.46 50.46"><defs><style>.cls-1{fill:#65b4e1;}</style></defs><title>BARRIO</title><path class="cls-1" d="M27.4,20.15H23.06a.55.55,0,0,0-.55.55v2.05l1.11.8v-2.3h3.24v2.3l1.11-.8V20.7A.55.55,0,0,0,27.4,20.15Z"/><path class="cls-1" d="M17.42,16.39l7.81-5.66L33,16.39v2.68l1.11-.8V16.1a.55.55,0,0,0-.23-.45L25.56,9.59a.55.55,0,0,0-.65,0l-8.36,6.06a.55.55,0,0,0-.23.45v2.16l1.11.8Z"/><path class="cls-1" d="M15.14,15,25.23,7.72,35.32,15A.62.62,0,1,0,36,14L25.59,6.47a.62.62,0,0,0-.72,0L14.42,14a.62.62,0,1,0,.72,1Z"/><path class="cls-1" d="M13.85,22.37a.55.55,0,0,0-.65,0L4.84,28.43a.55.55,0,0,0-.23.45V41a.55.55,0,0,0,.55.55H21.89a.55.55,0,0,0,.55-.55V28.88a.55.55,0,0,0-.23-.45Zm1.29,18.07H11.91V34h3.24Zm6.19,0H16.25v-7a.55.55,0,0,0-.55-.55H11.35a.55.55,0,0,0-.55.55v7H5.72V29.17l7.81-5.66,7.81,5.66Z"/><path class="cls-1" d="M24.34,26.83,13.88,19.24a.62.62,0,0,0-.72,0L2.71,26.83a.62.62,0,0,0,.72,1L13.52,20.5l10.09,7.32a.62.62,0,0,0,.72-1Z"/><path class="cls-1" d="M37.26,22.37a.55.55,0,0,0-.65,0l-8.36,6.06a.55.55,0,0,0-.23.45V41a.55.55,0,0,0,.55.55H45.3a.55.55,0,0,0,.55-.55V28.88a.55.55,0,0,0-.23-.45Zm1.29,18.07H35.32V34h3.24Zm6.19,0H39.66v-7a.55.55,0,0,0-.55-.55H34.76a.55.55,0,0,0-.55.55v7H29.13V29.17l7.81-5.66,7.81,5.66Z"/><path class="cls-1" d="M47.75,26.83,37.3,19.24a.62.62,0,0,0-.72,0L26.12,26.83a.62.62,0,0,0,.72,1L36.94,20.5,47,27.82a.62.62,0,1,0,.72-1Z"/></svg>