<?xml version="1.0" encoding="utf-8"?>
<!-- Generator: Adobe Illustrator 25.4.1, SVG Export Plug-In . SVG Version: 6.00 Build 0)  -->
<svg version="1.1" id="Capa_3" xmlns="http://www.w3.org/2000/svg" xmlns:xlink="http://www.w3.org/1999/xlink" x="0px" y="0px"
	 viewBox="0 0 50.46 50.46" enable-background="new 0 0 50.46 50.46" xml:space="preserve">
<g>
	<path d="M25.19,10.484c0.937,0,1.874,0.024,2.809-0.008c0.635-0.022,0.904,0.324,0.918,0.799c0.024,0.838,0.017,1.678-0.003,2.517
		c-0.004,0.179,0.041,0.21,0.213,0.209c0.85-0.005,1.7-0.002,2.549-0.002c0.526,0,0.838,0.283,0.838,0.768
		c0.002,1.583,0.005,3.166-0.005,4.749c-0.001,0.193,0.074,0.279,0.256,0.346c1.101,0.402,2.198,0.813,3.298,1.217
		c0.418,0.153,0.721,0.523,0.54,1.035c-0.254,0.72-0.531,1.434-0.788,2.153c-0.277,0.778-0.54,1.561-0.815,2.34
		c-0.044,0.125-0.111,0.243-0.173,0.362c-0.072,0.139-0.065,0.215,0.141,0.229c0.847,0.057,1.638-0.077,2.349-0.526
		c0.594-0.375,1.214-0.708,1.933-0.84c1.43-0.261,2.774-0.078,4.002,0.672c0.528,0.323,1.069,0.621,1.723,0.676
		c0.172,0.014,0.346,0.018,0.519,0.025c0.445,0.018,0.77,0.327,0.759,0.722c-0.011,0.384-0.342,0.671-0.782,0.675
		c-0.981,0.01-1.88-0.236-2.702-0.723c-0.145-0.086-0.288-0.176-0.437-0.256c-1.299-0.703-2.612-0.726-3.866,0.049
		c-1.314,0.812-2.716,1.112-4.27,0.82c-0.719-0.135-1.331-0.48-1.94-0.831c-1.313-0.755-2.649-0.777-3.927,0.018
		c-1.316,0.818-2.719,1.103-4.27,0.811c-0.719-0.136-1.33-0.483-1.939-0.832c-1.304-0.747-2.613-0.746-3.911,0.004
		c-0.699,0.404-1.407,0.777-2.247,0.88c-1.319,0.163-2.557-0.015-3.671-0.715c-0.701-0.44-1.444-0.729-2.32-0.716
		c-0.828,0.012-1.528,0.3-2.192,0.712c-0.825,0.511-1.734,0.777-2.736,0.778c-0.478,0.001-0.821-0.264-0.838-0.67
		c-0.017-0.417,0.315-0.727,0.803-0.725c0.709,0.004,1.347-0.184,1.929-0.546c0.589-0.367,1.201-0.698,1.911-0.827
		c1.457-0.266,2.831-0.096,4.065,0.702c0.726,0.47,1.512,0.725,2.409,0.669c0.157-0.01,0.262,0.001,0.183-0.207
		c-0.294-0.782-0.563-1.572-0.843-2.358c-0.275-0.771-0.535-1.548-0.836-2.311c-0.296-0.752-0.021-1.085,0.729-1.349
		c1.028-0.361,2.039-0.759,3.062-1.132c0.172-0.063,0.227-0.146,0.226-0.314c-0.007-1.567,0.004-3.134-0.009-4.701
		c-0.005-0.554,0.383-0.86,0.929-0.84c0.788,0.028,1.578,0.007,2.367,0.007c0.326,0,0.309,0,0.304-0.301
		c-0.012-0.633-0.007-1.266-0.002-1.899c0.002-0.25-0.014-0.499,0.044-0.75c0.081-0.347,0.334-0.564,0.722-0.564
		C23.196,10.484,24.193,10.484,25.19,10.484z M24.553,21.987c0-0.95,0-1.899,0-2.849c0-0.279-0.013-0.289-0.291-0.186
		c-1.09,0.407-2.178,0.818-3.268,1.225c-1.019,0.381-2.039,0.759-3.058,1.14c-0.776,0.29-1.552,0.58-2.328,0.872
		c-0.12,0.045-0.185,0.09-0.126,0.246c0.286,0.76,0.546,1.529,0.82,2.292c0.213,0.595,0.447,1.184,0.644,1.784
		c0.053,0.162,0.089,0.184,0.226,0.091c0.049-0.033,0.1-0.062,0.15-0.093c1.222-0.765,2.567-0.935,3.997-0.683
		c0.731,0.129,1.345,0.484,1.962,0.84c1.3,0.75,2.609,0.741,3.911-0.001c0.455-0.26,0.896-0.55,1.413-0.696
		c1.603-0.456,3.13-0.327,4.541,0.55c0.167,0.104,0.23,0.091,0.294-0.089c0.469-1.332,0.942-2.662,1.429-3.988
		c0.055-0.149,0.012-0.201-0.116-0.249c-1.363-0.512-2.726-1.026-4.09-1.535c-1.513-0.565-3.028-1.126-4.541-1.69
		c-0.315-0.117-0.32-0.118-0.32,0.188c0,1.907,0.001,3.814-0.001,5.722c0,0.347-0.29,0.679-0.611,0.711
		c-0.223,0.022-0.544-0.251-0.623-0.54c-0.018-0.068-0.014-0.141-0.014-0.212C24.553,23.886,24.553,22.937,24.553,21.987z
		 M20.11,18.037c-0.229,0-0.42,0.004-0.611-0.002c-0.11-0.003-0.154,0.029-0.152,0.134c0.006,0.277,0.004,0.554,0.001,0.831
		c-0.001,0.15,0.046,0.195,0.217,0.13c1.674-0.636,3.349-1.269,5.028-1.895c0.287-0.107,0.554-0.259,0.91-0.107
		c0.729,0.311,1.48,0.578,2.225,0.858c1.018,0.383,2.039,0.758,3.057,1.143c0.16,0.06,0.223,0.035,0.222-0.124
		c-0.002-0.261-0.009-0.523,0.003-0.783c0.006-0.142-0.034-0.195-0.2-0.189c-0.338,0.012-0.676,0.012-1.014,0.002
		c-0.499-0.015-0.79-0.237-0.868-0.694c-0.063-0.368,0.204-0.678,0.658-0.79c0.289-0.071,0.583-0.026,0.875-0.032
		c0.636-0.015,0.539,0.081,0.545-0.507c0.005-0.492,0.001-0.492-0.531-0.492c-3.538,0-7.076,0-10.613-0.001
		c-0.102,0-0.203,0.008-0.307-0.02c-0.126-0.033-0.208,0.016-0.205,0.152c0.004,0.222,0.008,0.443-0.001,0.665
		c-0.007,0.158,0.066,0.207,0.231,0.204c0.329-0.008,0.659-0.011,0.988,0c0.501,0.017,0.789,0.244,0.862,0.699
		c0.059,0.368-0.21,0.673-0.662,0.789C20.535,18.066,20.302,18.014,20.11,18.037z M25.171,13.999c0.667,0,1.335-0.003,2.002,0.003
		c0.142,0.001,0.196-0.03,0.194-0.17c-0.008-0.569-0.008-1.139,0-1.708c0.002-0.139-0.051-0.17-0.194-0.17
		c-1.326,0.004-2.652,0.005-3.977,0c-0.154-0.001-0.21,0.029-0.208,0.182c0.01,0.561,0.01,1.123,0,1.685
		c-0.003,0.152,0.053,0.184,0.207,0.182C23.854,13.995,24.513,13.999,25.171,13.999z"/>
	<path d="M10.047,29.383c1.058-0.028,2.024,0.26,2.888,0.824c0.999,0.652,2.082,0.819,3.256,0.513
		c0.388-0.101,0.721-0.305,1.055-0.503c1.918-1.14,3.853-1.161,5.777-0.032c0.703,0.412,1.421,0.705,2.278,0.682
		c0.689-0.018,1.313-0.185,1.881-0.536c0.709-0.438,1.449-0.803,2.318-0.907c1.393-0.166,2.654,0.111,3.819,0.841
		c1.386,0.868,2.787,0.804,4.174-0.038c1.902-1.154,3.828-1.151,5.759-0.063c0.541,0.305,1.071,0.618,1.725,0.673
		c0.181,0.015,0.363,0.016,0.545,0.026c0.425,0.023,0.745,0.341,0.73,0.724c-0.015,0.38-0.333,0.647-0.763,0.661
		c-1.006,0.034-1.913-0.235-2.75-0.728c-0.146-0.086-0.287-0.178-0.436-0.258c-1.287-0.682-2.568-0.68-3.829,0.05
		c-0.714,0.414-1.438,0.792-2.298,0.892c-1.282,0.149-2.49-0.017-3.577-0.694c-0.7-0.435-1.433-0.758-2.312-0.741
		c-0.714,0.014-1.371,0.17-1.955,0.549c-1.041,0.675-2.189,0.993-3.471,0.929c-0.856-0.043-1.623-0.297-2.341-0.705
		c-0.176-0.1-0.348-0.208-0.528-0.303c-1.266-0.665-2.525-0.645-3.76,0.062c-0.619,0.354-1.235,0.709-1.962,0.844
		c-1.55,0.286-2.958-0.001-4.275-0.812c-1.294-0.797-2.641-0.776-3.949,0.001c-0.943,0.56-1.929,0.96-3.084,0.915
		c-0.434-0.017-0.745-0.276-0.759-0.661c-0.014-0.392,0.293-0.726,0.724-0.719c0.856,0.014,1.583-0.268,2.269-0.706
		C8.046,29.621,8.996,29.358,10.047,29.383z"/>
	<path d="M25.048,42.5c-1.595-0.009-3.105-0.337-4.51-1.032c-0.728-0.36-1.403-0.794-2.014-1.309
		c-0.209-0.176-0.427-0.324-0.428-0.622c-0.001-0.202,0.065-0.363,0.257-0.452c0.208-0.096,0.428-0.09,0.637,0.021
		c0.27,0.144,0.458,0.375,0.699,0.552c1.021,0.749,2.149,1.285,3.43,1.563c0.841,0.183,1.688,0.287,2.547,0.226
		c0.927-0.066,1.818-0.277,2.681-0.605c0.956-0.364,1.805-0.866,2.567-1.503c0.144-0.121,0.279-0.281,0.501-0.307
		c0.305-0.036,0.506,0.049,0.621,0.26c0.121,0.223,0.076,0.459-0.143,0.661c-0.501,0.462-1.058,0.865-1.659,1.211
		c-1.067,0.614-2.218,1.029-3.474,1.198C26.191,42.438,25.624,42.506,25.048,42.5z"/>
	<path d="M25.336,34.043c-1.916,0-3.833-0.001-5.749,0.001c-0.283,0-0.48-0.109-0.63-0.33c-0.215-0.318,0.159-0.964,0.626-0.957
		c0.902,0.013,1.804,0.004,2.705,0.004c2.914,0,5.827,0.011,8.741-0.011c0.49-0.004,0.938,0.657,0.659,1.002
		c-0.156,0.194-0.342,0.292-0.603,0.292C29.169,34.043,27.252,34.043,25.336,34.043z"/>
	<path d="M20.236,37.926c-0.029-0.297,0.173-0.428,0.405-0.523c0.234-0.096,0.44,0.007,0.599,0.152
		c0.463,0.425,0.991,0.759,1.583,1.018c0.877,0.384,1.783,0.536,2.757,0.418c0.734-0.089,1.431-0.258,2.081-0.577
		c0.383-0.188,0.747-0.405,1.058-0.688c0.109-0.099,0.228-0.19,0.353-0.272c0.201-0.132,0.569-0.077,0.737,0.1
		c0.213,0.224,0.215,0.489,0.003,0.692c-0.987,0.942-2.186,1.539-3.594,1.728c-1.443,0.194-2.852,0.048-4.169-0.568
		c-0.587-0.274-1.111-0.637-1.588-1.052C20.322,38.235,20.189,38.105,20.236,37.926z"/>
	<path d="M25.318,37.705c-0.908-0.021-1.764-0.2-2.503-0.721c-0.145-0.102-0.263-0.228-0.339-0.377
		c-0.131-0.258-0.064-0.538,0.145-0.68c0.188-0.128,0.532-0.101,0.762,0.067c0.374,0.274,0.772,0.499,1.255,0.58
		c0.465,0.078,0.917,0.049,1.352-0.122c0.304-0.12,0.581-0.28,0.843-0.469c0.378-0.274,0.802-0.16,0.972,0.244
		c0.078,0.185-0.054,0.476-0.313,0.666c-0.494,0.363-1.022,0.657-1.659,0.774C25.658,37.699,25.491,37.678,25.318,37.705z"/>
</g>
</svg>
