<svg id="a51e73c9-e364-4f6b-bb52-3537b4ecd145" data-name="stroke 1,6" xmlns="http://www.w3.org/2000/svg" viewBox="0 0 50.46 50.46"><polygon points="6.239 14.949 44.24 14.949 25.509 4.973 6.239 14.949" fill="none" stroke="#020202" stroke-linecap="round" stroke-linejoin="round" stroke-width="1.6"/><line x1="22.781" y1="11.934" x2="27.985" y2="11.934" fill="none" stroke="#020202" stroke-linecap="round" stroke-linejoin="round" stroke-width="1.2"/><line x1="31.394" y1="25.893" x2="40.975" y2="25.893" fill="none" stroke="#020202" stroke-linecap="round" stroke-linejoin="round" stroke-width="1.2"/><line x1="10.653" y1="17.945" x2="40.975" y2="17.945" fill="none" stroke="#020202" stroke-linecap="round" stroke-linejoin="round" stroke-width="1.6"/><line x1="10.599" y1="37.053" x2="24.405" y2="37.053" fill="none" stroke="#020202" stroke-linecap="round" stroke-linejoin="round" stroke-width="1.6"/><line x1="8.042" y1="39.96" x2="24.378" y2="39.96" fill="none" stroke="#020202" stroke-linecap="round" stroke-linejoin="round" stroke-width="1.6"/><line x1="14.313" y1="18.142" x2="14.313" y2="36.838" fill="none" stroke="#020202" stroke-linecap="round" stroke-linejoin="round" stroke-width="1.6"/><line x1="17.462" y1="18.142" x2="17.462" y2="36.838" fill="none" stroke="#020202" stroke-linecap="round" stroke-linejoin="round" stroke-width="1.6"/><line x1="32.829" y1="18.241" x2="32.829" y2="20.932" fill="none" stroke="#020202" stroke-linecap="round" stroke-linejoin="round" stroke-width="1.6"/><line x1="36.086" y1="18.241" x2="36.086" y2="20.932" fill="none" stroke="#020202" stroke-linecap="round" stroke-linejoin="round" stroke-width="1.6"/><path d="M42.975,23.408H29.492a2.449,2.449,0,0,0-2.449,2.449h0a2.448,2.448,0,0,0,2.449,2.449H42.975V41.883a1.441,1.441,0,0,1-1.441,1.441H28.484a1.441,1.441,0,0,1-1.441-1.441V25.857" fill="none" stroke="#020202" stroke-linecap="round" stroke-linejoin="round" stroke-width="1.6"/></svg>