<?xml version="1.0" encoding="utf-8"?>
<!-- Generator: Adobe Illustrator 24.0.1, SVG Export Plug-In . SVG Version: 6.00 Build 0)  -->
<svg version="1.1" id="Layer_1" xmlns="http://www.w3.org/2000/svg" xmlns:xlink="http://www.w3.org/1999/xlink" x="0px" y="0px"
	 viewBox="0 0 50.5 50.5" style="enable-background:new 0 0 50.5 50.5;" xml:space="preserve">
<path d="M39.698,21.016c-0.882,0-1.733,0.133-2.54,0.368l-1.673-3.839l2.968-3.922h1.56c0.69,0,1.252,0.562,1.252,1.252
	s-0.562,1.252-1.252,1.252c-0.638,0-1.155,0.517-1.155,1.155s0.518,1.155,1.155,1.155c1.964,0,3.562-1.598,3.562-3.562
	s-1.599-3.562-3.562-3.562h-5.491c-0.638,0-1.155,0.517-1.155,1.155s0.518,1.155,1.155,1.155h1.035l-2.023,2.673H19.113
	l-1.299-2.672h2.109c0.638,0,1.155-0.517,1.155-1.155s-0.517-1.155-1.155-1.155h-5.952c-0.638,0-1.155,0.517-1.155,1.155
	s0.517,1.155,1.155,1.155h1.275l1.916,3.943l-2.531,4.307c-1.166-0.545-2.461-0.859-3.831-0.859c-5.009,0-9.084,4.075-9.084,9.085
	c0,5.009,4.075,9.085,9.084,9.085c4.617,0,8.432-3.465,9.003-7.93h1.952c0.436,1.045,1.445,1.783,2.632,1.842l0.267,0.742
	c-0.38,0.189-0.648,0.572-0.648,1.026c0,0.638,0.517,1.155,1.155,1.155h2.048c0.638,0,1.155-0.518,1.155-1.155
	s-0.518-1.155-1.155-1.155h-0.147l-0.501-1.394c0.603-0.551,0.989-1.337,0.989-2.216c0-0.553-0.161-1.065-0.422-1.511l6.759-8.932
	l1.157,2.655c-2.648,1.589-4.431,4.48-4.431,7.788c0,5.009,4.076,9.085,9.085,9.085s9.085-4.076,9.085-9.085
	C48.783,25.091,44.707,21.016,39.698,21.016z M31.786,18.606l-6.499,8.587c-0.242-0.063-0.491-0.107-0.751-0.107
	c-0.059,0-0.114,0.014-0.172,0.017l-4.129-8.498H31.786z M18.375,20.063l3.913,8.052c-0.218,0.247-0.404,0.522-0.533,0.83h-1.952
	c-0.299-2.34-1.484-4.407-3.216-5.842L18.375,20.063z M17.47,28.946h-4.315l2.239-3.811C16.463,26.124,17.212,27.45,17.47,28.946z
	 M10.801,36.875c-3.736,0-6.775-3.039-6.775-6.774c0-3.736,3.039-6.775,6.775-6.775c0.943,0,1.841,0.195,2.658,0.544l-2.658,4.523
	c-0.941,0-1.707,0.767-1.707,1.708c0,0.941,0.766,1.707,1.707,1.707c0.494,0,0.936-0.215,1.248-0.552h5.42
	C16.919,34.442,14.142,36.875,10.801,36.875z M39.698,36.875c-3.735,0-6.774-3.039-6.774-6.774c0-2.36,1.215-4.44,3.05-5.654
	l2.164,4.966c-0.093,0.211-0.147,0.443-0.147,0.688c0,0.941,0.766,1.707,1.707,1.707s1.707-0.766,1.707-1.707
	c0-0.744-0.482-1.373-1.147-1.606l-2.166-4.969c0.516-0.126,1.052-0.2,1.606-0.2c3.735,0,6.774,3.04,6.774,6.775
	C46.473,33.836,43.434,36.875,39.698,36.875z"/>
</svg>
