<?xml version="1.0" encoding="utf-8"?>
<!-- Generator: Adobe Illustrator 24.2.1, SVG Export Plug-In . SVG Version: 6.00 Build 0)  -->
<svg version="1.1" id="Layer_1" xmlns="http://www.w3.org/2000/svg" xmlns:xlink="http://www.w3.org/1999/xlink" x="0px" y="0px"
	 viewBox="0 0 50.5 50.5" style="enable-background:new 0 0 50.5 50.5;" xml:space="preserve">
<path d="M14.4,26.6c0.3,0.3,0.3,0.8-0.1,1.1c-1.2,1.1-2.7,1.7-4.3,1.9c-0.2,0-0.3,0-0.5,0c-3.7,0-6.9-2.9-7.2-6.7c0-0.2,0-0.3,0-0.4
	c0,0,0,0,0,0c0,0,0,0,0,0c0-3.7,2.9-6.9,6.7-7.2c2-0.1,4,0.6,5.4,1.9c0.3,0.3,0.3,0.8,0,1.1c-0.3,0.3-0.8,0.3-1.1,0
	c-1.1-1.1-2.7-1.6-4.2-1.5c-1.3,0.1-2.5,0.6-3.4,1.5h1.6c0.4,0,0.8,0.4,0.8,0.8s-0.4,0.8-0.8,0.8H4.5C4.2,20.4,4.1,21,4,21.6h2.4
	c0.4,0,0.8,0.4,0.8,0.8s-0.4,0.8-0.8,0.8H4c0.1,0.6,0.3,1.2,0.5,1.7h3c0.4,0,0.8,0.4,0.8,0.8S8,26.5,7.5,26.5H5.7
	c1.1,1,2.6,1.6,4.2,1.5c1.3-0.1,2.4-0.6,3.4-1.4C13.6,26.2,14.1,26.2,14.4,26.6z M48.1,9.4c-0.6,3-2,10-11.2,16.4
	c-1.7,1.2-2.6,2.7-2.9,3.7c0.7,2.9,0.8,5.1,0.3,7.8c-0.9,5-3.1,7.4-5.3,9.3c-0.1,0.1-0.3,0.2-0.4,0.2c-0.8,0.1-1.5,0.1-2.2,0.1
	c-5.1,0-6.4-2.6-6.6-3.9c-0.4-1.5,0.1-3.2,1-3.5c2.2-0.8,3.8-1.7,4.1-2.1c0.7-0.8,1.1-1.9,1.2-2.2c0,0,0,0,0-0.1
	c-0.1-0.1-0.3-0.3-0.5-0.5c-0.9-0.7-2.4-1.9-2.2-4.9c0.2-1.6-0.1-1.8-0.1-1.8c-0.2,0-0.4-0.1-0.6-0.1c-1.1-0.2-2.2-0.4-3.4-1.8
	c0,0-0.1-0.1-0.1-0.1c-0.2-0.4-0.7-1-1.2-1c-0.1,0-0.2,0-0.3,0c-0.5-0.1-1.2-0.2-3.1-0.2c-2.1,0-4.8-0.1-4.8-2.1c0-2,3.4-2,4.9-2
	c0.6,0,3-0.2,3.3-0.2c0.1,0,0.4-0.3,0.6-0.6c0.4-0.4,0.8-0.9,1.5-1.4c1.4-0.9,3.1-0.9,4.2-0.6c1.6,0.4,2.8,1.6,3.4,3.6
	c0.3,1,0.6,1.1,0.6,1.1c0.1,0,0.2,0,0.4-0.1c0-0.1,0.1-0.3,0.1-0.5c-3.7-7,0.9-12.9,3.9-16.9L33,4.2c0.4-0.5,1.1-0.8,1.8-0.7
	c0.7,0.1,1.2,0.6,1.4,1.3c0,0.1,0.1,0.3,0.1,0.5c0.4,1.1,0.9,2.7,0.4,4.5c-0.1,0.4-0.6,0.7-1,0.5c-0.4-0.1-0.7-0.6-0.5-1
	c0.4-1.3-0.1-2.6-0.4-3.5c-0.1-0.2-0.1-0.4-0.2-0.5c0-0.1-0.1-0.1-0.1-0.1c-0.1,0-0.1,0-0.2,0.1l-0.4,0.5c-2.6,3.4-6.1,8-4.5,13.2
	c0.6-1.9,1.8-4.2,4.6-6c3.1-2,8.9-4.5,11.8-5.6c0.6-0.2,1.3-0.1,1.8,0.3C48,8.1,48.2,8.8,48.1,9.4z M46.5,9.1c0-0.1,0-0.1-0.1-0.2
	c0,0-0.1-0.1-0.2,0c-2.9,1.1-8.5,3.5-11.5,5.4c-3.5,2.3-4.1,5.4-4.5,7.2c-0.2,1-0.4,1.8-1,2.1c-0.4,0.2-1.1,0.5-1.9,0.2
	c-0.6-0.3-1.1-0.9-1.5-2.1c-0.3-0.8-0.9-2.2-2.3-2.5c-0.8-0.2-2-0.2-3,0.4c-0.5,0.3-0.8,0.7-1.1,1.1c-0.4,0.5-0.8,0.9-1.4,1.1
	c-0.5,0.1-3.2,0.3-3.7,0.3c-2.9,0-3.3,0.5-3.3,0.5c0.1,0.1,0.6,0.3,3.2,0.4c2,0,2.8,0.2,3.3,0.2l0.3,0c0.9,0.1,1.8,0.7,2.4,1.8
	c0.8,0.9,1.5,1,2.5,1.2c0.2,0,0.4,0.1,0.7,0.1c1.7,0.4,1.5,2.6,1.4,3.5c-0.1,2.2,0.8,2.9,1.6,3.6c0.5,0.4,1.1,0.9,1.1,1.6
	c0.1,0.9-0.8,2.6-1.5,3.5c-0.6,0.7-2.5,1.8-4.7,2.6c-0.1,0.2-0.3,0.8-0.1,1.5c1.1-0.3,1.9-0.7,2.8-1.1c0.4-0.2,0.9,0,1.1,0.3
	c0.2,0.4,0,0.9-0.3,1.1C24,43.3,23.1,43.6,22,44c0.5,0.5,1.3,0.9,2.3,1.1l0.3-0.2c0.5-0.4,1-0.7,1.5-1.3c0.3-0.3,0.8-0.4,1.1-0.1
	c0.3,0.3,0.4,0.8,0.1,1.1c-0.2,0.2-0.4,0.4-0.6,0.6c0.5,0,0.9,0,1.4-0.1c1.9-1.7,3.8-3.9,4.6-8.2c0.5-2.6,0.4-4.6-0.3-7.3
	c0-0.1,0-0.2,0-0.3c0.2-1.3,1.3-3.3,3.6-4.9C43.6,19.1,45.6,13.7,46.5,9.1z M22.1,20.5c-0.5,0-1,0.4-1,1c0,0.5,0.4,1,1,1
	c0.5,0,1-0.4,1-1C23,21,22.6,20.5,22.1,20.5z"/>
</svg>
