<?xml version="1.0" encoding="utf-8"?>
<!-- Generator: Adobe Illustrator 18.0.0, SVG Export Plug-In . SVG Version: 6.00 Build 0)  -->
<!DOCTYPE svg PUBLIC "-//W3C//DTD SVG 1.1//EN" "http://www.w3.org/Graphics/SVG/1.1/DTD/svg11.dtd">
<svg version="1.1" id="Layer_1" xmlns="http://www.w3.org/2000/svg" xmlns:xlink="http://www.w3.org/1999/xlink" x="0px" y="0px"
	 viewBox="0 0 50.5 50.5" style="enable-background:new 0 0 50.5 50.5;" xml:space="preserve">
<style type="text/css">
	.st0{fill:#65B4E1;}
</style>
<g>
	<g>
		<path class="st0" d="M28.4,35.1c3.7,0,6.8-3,6.8-6.8s-3-6.8-6.8-6.8c-3.1,0-9.9,0-13,0c-3.7,0-6.8,3-6.8,6.8s3,6.8,6.8,6.8
			c3.1,0,5.7-2,6.5-4.8C22.8,33.1,25.4,35.1,28.4,35.1z M19.5,29.6c-0.5,1.8-2.2,3-4,3c-2.3,0-4.2-1.9-4.2-4.2
			c0-2.3,1.9-4.2,4.2-4.2h13c2.3,0,4.2,1.9,4.2,4.2c0,2.3-1.9,4.2-4.2,4.2c-1.8,0-3.5-1.2-4-3c-0.3-1.1-1.3-1.9-2.5-1.9
			C20.8,27.7,19.8,28.5,19.5,29.6z"/>
		<path class="st0" d="M39.2,18.5v19.8c0,2.3-1.9,4.2-4.2,4.2h-7.5c-2.3,0-4.2-1.9-4.2-4.2V36c0-0.7-0.6-1.3-1.3-1.3
			c-0.7,0-1.3,0.6-1.3,1.3v2.3c0,3.7,3,6.8,6.8,6.8h7.5c3.7,0,6.8-3,6.8-6.8V18.5H39.2z"/>
		<path class="st0" d="M35.9,15.1c0,0.9,0.8,1.7,1.7,1.7c0.9,0,1.7-0.8,1.7-1.7c0-0.9-0.8-1.7-1.7-1.7
			C36.6,13.4,35.9,14.2,35.9,15.1z M37.6,14.5c0.3,0,0.6,0.3,0.6,0.6c0,0.3-0.3,0.6-0.6,0.6c-0.3,0-0.6-0.3-0.6-0.6
			C37,14.8,37.2,14.5,37.6,14.5z"/>
		<path class="st0" d="M35.5,8c0.7,0,1.3-0.6,1.3-1.3c0-0.7-0.6-1.3-1.3-1.3c-0.7,0-1.3,0.6-1.3,1.3C34.2,7.4,34.8,8,35.5,8z
			 M35.5,6.2c0.3,0,0.5,0.2,0.5,0.5c0,0.3-0.2,0.5-0.5,0.5c-0.3,0-0.5-0.2-0.5-0.5C35,6.4,35.2,6.2,35.5,6.2z"/>
		<path class="st0" d="M33,14.2c1.4,0,2.5-1.1,2.5-2.5c0-1.4-1.1-2.5-2.5-2.5s-2.5,1.1-2.5,2.5C30.6,13.1,31.7,14.2,33,14.2z
			 M33,10.4c0.7,0,1.4,0.6,1.4,1.4c0,0.7-0.6,1.4-1.4,1.4s-1.4-0.6-1.4-1.4C31.7,11,32.3,10.4,33,10.4z"/>
	</g>
</g>
</svg>
