<?xml version="1.0" encoding="utf-8"?>
<!-- Generator: Adobe Illustrator 18.0.0, SVG Export Plug-In . SVG Version: 6.00 Build 0)  -->
<!DOCTYPE svg PUBLIC "-//W3C//DTD SVG 1.1//EN" "http://www.w3.org/Graphics/SVG/1.1/DTD/svg11.dtd">
<svg version="1.1" id="Layer_1" xmlns="http://www.w3.org/2000/svg" xmlns:xlink="http://www.w3.org/1999/xlink" x="0px" y="0px"
	 viewBox="0 0 50.5 50.5" style="enable-background:new 0 0 50.5 50.5;" xml:space="preserve">
<style type="text/css">
	.st0{fill:#65B4E1;}
</style>
<path class="st0" d="M6.7,17v23.1c0,2.5,2,4.6,4.5,4.6h22.6l-0.7-0.2c-0.8-0.2-2-1-2.3-1.5l0-0.1H11.3c-1.5,0-2.7-1.2-2.7-2.8V18.8
	h31.6v9l1.8,1.3V17l-8-10.4l0,0H14.7L6.7,17L6.7,17z M25.6,8.4H33l6.4,8.5H25.6V8.4z M15.7,8.4l8.1,0v8.5H9.3L15.7,8.4z"/>
<path class="st0" d="M47.8,37.6l-10.1-7.3v3.2c0,0.3-0.1,0.5-0.3,0.7c-0.2,0.2-0.5,0.3-0.7,0.3c-4.6,0-9.2,0-13.6-5.3
	c0.7,5.4,3.6,10.9,13.6,11.4c0.6,0,1,0.5,1,1v3.2L47.8,37.6z"/>
</svg>
