<svg xmlns="http://www.w3.org/2000/svg" viewBox="0 0 50.46 50.46">
  <title>Iconos</title>
  <path d="M6.74,17V40.14a4.58,4.58,0,0,0,4.55,4.6H33.85l-0.73-.23A5.32,5.32,0,0,1,30.78,43l0-.05H11.28a2.75,2.75,0,0,1-2.73-2.77V18.77H40.11v9L41.92,29V17l-8-10.4,0,0H14.75L6.76,17ZM25.56,8.4H33l6.44,8.54H25.56V8.4Zm-9.9,0h8.08v8.54H9.3Z" fill="#00b5e4"/>
  <path d="M47.76,37.57L37.63,30.3v3.22a1.06,1.06,0,0,1-.31.74,1,1,0,0,1-.74.31c-4.56,0-9.25,0-13.56-5.35,0.75,5.36,3.61,10.85,13.61,11.35a1,1,0,0,1,1,1v3.22Z" fill="#00b5e4"/>
</svg>
