<svg xmlns="http://www.w3.org/2000/svg" viewBox="0 0 50.46 50.46">
  <title>Iconos</title>
  <g>
    <path d="M5.72,16.56V39.68a4.58,4.58,0,0,0,4.55,4.6H32.83l-0.73-.23a5.32,5.32,0,0,1-2.33-1.54l0-.05H10.26a2.75,2.75,0,0,1-2.73-2.77V18.31H39.08v9l1.81,1.32v-12l-8-10.4,0,0H13.73l-8,10.41ZM24.54,7.94H32l6.44,8.54H24.54V7.94Zm-9.9,0h8.08v8.54H8.28Z" fill="#00b5e4"/>
    <path d="M46.74,37.12L36.61,29.84v3.22a1.06,1.06,0,0,1-.31.74,1,1,0,0,1-.74.31c-4.56,0-9.25,0-13.56-5.35,0.75,5.36,3.61,10.85,13.61,11.35a1,1,0,0,1,1,1v3.22Z" fill="#00b5e4"/>
  </g>
</svg>
