<svg xmlns="http://www.w3.org/2000/svg" viewBox="0 0 50.46 50.46">
  <title>Iconos</title>
  <path d="M36.78,4.4H13.6a4.16,4.16,0,1,0,0,8.33h3.52v3.82c-2.13,2.76-5.27,7.14-5.75,9.67C10.65,30.11,15,37.9,14.76,39.5c-0.27,1.84-1,5.83-1.12,6.36,0,0,6,.44,8,0,0.31-.07-1-5.64.71-7.6,0.64-.75,1.47-1.4,2.21-2.3h6.19a2.48,2.48,0,0,0,2.47-2.47V12.73h3.52A4.16,4.16,0,1,0,36.78,4.4Zm0,6.72H33.26V8.35h-2V33.49a0.46,0.46,0,0,1-.46.46h-5a7.88,7.88,0,0,0,.33-1.09l0.22-1.73a5.54,5.54,0,0,0-.15-1.39c-1-3.81-.79-6.38,0-8.37A9.67,9.67,0,0,1,26.78,20l0.1-.18A0.57,0.57,0,0,0,26.55,19a3.34,3.34,0,0,0-1.18-.11,2.58,2.58,0,0,0-1.4.57,3.12,3.12,0,0,0-.52.51c-1.89,2.38-.59,6.92-1.76,7.51a1.73,1.73,0,0,1-2.32-1.72,7.36,7.36,0,0,1-.23-2.08V8.35h-2v2.77H13.6A2.56,2.56,0,1,1,13.6,6H36.78A2.56,2.56,0,1,1,36.78,11.13Z" fill="#00b5e4"/>
</svg>
