<?xml version="1.0" encoding="utf-8"?>
<!-- Generator: Adobe Illustrator 18.0.0, SVG Export Plug-In . SVG Version: 6.00 Build 0)  -->
<!DOCTYPE svg PUBLIC "-//W3C//DTD SVG 1.1//EN" "http://www.w3.org/Graphics/SVG/1.1/DTD/svg11.dtd">
<svg version="1.1" id="Layer_1" xmlns="http://www.w3.org/2000/svg" xmlns:xlink="http://www.w3.org/1999/xlink" x="0px" y="0px"
	 viewBox="0 0 50.5 50.5" style="enable-background:new 0 0 50.5 50.5;" xml:space="preserve">
<style type="text/css">
	.st0{fill:#65B4E1;}
</style>
<path class="st0" d="M36.8,4.4H13.6c-2.3,0-4.2,1.9-4.2,4.2c0,2.3,1.9,4.2,4.2,4.2h3.5l0,3.8c-2.1,2.8-5.3,7.1-5.7,9.7
	c-0.7,3.9,3.6,11.7,3.4,13.3c-0.3,1.8-1,5.8-1.1,6.4c0,0,6,0.4,8,0c0.3-0.1-1-5.6,0.7-7.6c0.6-0.7,1.5-1.4,2.2-2.3h6.2
	c1.4,0,2.5-1.1,2.5-2.5V12.7h3.5c2.3,0,4.2-1.9,4.2-4.2C40.9,6.3,39.1,4.4,36.8,4.4z M36.8,11.1h-3.5V8.4h-2v25.1
	c0,0.3-0.2,0.5-0.5,0.5h-5c0.1-0.3,0.2-0.7,0.3-1.1l0.2-1.7c0-0.5,0-0.9-0.2-1.4c-1-3.8-0.8-6.4,0-8.4c0.3-0.8,0.5-1,0.6-1.3
	c0-0.1,0.1-0.1,0.1-0.2c0.2-0.3,0.1-0.8-0.3-0.9c-0.3-0.1-0.7-0.2-1.2-0.1c0-0.1-0.9,0.2-1.4,0.6c-0.2,0.1-0.4,0.3-0.5,0.5
	c-1.9,2.4-0.6,6.9-1.8,7.5c-0.7,0.3-2.2,0-2.3-1.7c-0.1-0.2-0.2-1-0.2-2.1V8.4h-2l0,2.8h-3.5c-1.4,0-2.6-1.1-2.6-2.6S12.2,6,13.6,6
	h23.2c1.4,0,2.6,1.1,2.6,2.6S38.2,11.1,36.8,11.1z"/>
</svg>
