<svg xmlns="http://www.w3.org/2000/svg" viewBox="0 0 50.46 50.46">
  <title>Iconos</title>
  <path d="M14.9,42.35H35.14a5.19,5.19,0,0,0,5.18-5.18V13.28a5.19,5.19,0,0,0-5.18-5.18H14.9a5.19,5.19,0,0,0-5.18,5.18V37.18A5.19,5.19,0,0,0,14.9,42.35Zm-3-22.42V16.24h26.2V36.93a3.7,3.7,0,0,1-3.69,3.69H15.61a3.7,3.7,0,0,1-3.69-3.69v-17Z" fill="#00b5e4"/>
  <rect x="13.99" y="18.39" width="4.85" height="4.85" rx="1.25" ry="1.25" fill="#00b5e4"/>
  <rect x="22.59" y="18.39" width="4.85" height="4.85" rx="1.25" ry="1.25" fill="#00b5e4"/>
  <rect x="31.2" y="18.39" width="4.85" height="4.85" rx="1.25" ry="1.25" fill="#00b5e4"/>
  <rect x="13.99" y="25.91" width="4.85" height="4.85" rx="1.25" ry="1.25" fill="#00b5e4"/>
  <rect x="31.2" y="25.91" width="4.85" height="4.85" rx="1.25" ry="1.25" fill="#00b5e4"/>
  <rect x="13.99" y="33.44" width="4.85" height="4.85" rx="1.25" ry="1.25" fill="#00b5e4"/>
  <rect x="22.59" y="33.44" width="4.85" height="4.85" rx="1.25" ry="1.25" fill="#00b5e4"/>
  <rect x="31.2" y="33.44" width="4.85" height="4.85" rx="1.25" ry="1.25" fill="#00b5e4"/>
  <polygon points="30.29 25.01 29.45 24.2 24.98 28.17 23.12 26.29 22.08 27.21 25.02 30.87 30.29 25.01" fill="#00b5e4"/>
</svg>
