<?xml version="1.0" encoding="utf-8"?>
<!-- Generator: Adobe Illustrator 18.0.0, SVG Export Plug-In . SVG Version: 6.00 Build 0)  -->
<!DOCTYPE svg PUBLIC "-//W3C//DTD SVG 1.1//EN" "http://www.w3.org/Graphics/SVG/1.1/DTD/svg11.dtd">
<svg version="1.1" id="Layer_1" xmlns="http://www.w3.org/2000/svg" xmlns:xlink="http://www.w3.org/1999/xlink" x="0px" y="0px"
	 viewBox="0 0 50.5 50.5" style="enable-background:new 0 0 50.5 50.5;" xml:space="preserve">
<style type="text/css">
	.st0{fill:#65B4E1;}
</style>
<path class="st0" d="M14.9,42.4h20.2c2.8,0,5.2-2.3,5.2-5.2V13.3c0-2.8-2.3-5.2-5.2-5.2H17.2c0,0-2.3,0-2.3,0
	c-2.8,0-5.2,2.3-5.2,5.2v23.9C9.7,40,12.1,42.4,14.9,42.4z M11.9,19.9c0-2,0-3.7,0-3.7h26.2c0,0,0,1.7,0,3.7v17c0,2-1.7,3.7-3.7,3.7
	H15.6c-2,0-3.7-1.7-3.7-3.7V19.9z"/>
<path class="st0" d="M15.2,23.2h2.4c0.7,0,1.2-0.6,1.2-1.2v-2.4c0-0.7-0.6-1.2-1.2-1.2h-2.4c-0.7,0-1.2,0.6-1.2,1.2V22
	C14,22.7,14.6,23.2,15.2,23.2z"/>
<path class="st0" d="M23.8,23.2h2.4c0.7,0,1.2-0.6,1.2-1.2v-2.4c0-0.7-0.6-1.2-1.2-1.2h-2.4c-0.7,0-1.2,0.6-1.2,1.2V22
	C22.6,22.7,23.2,23.2,23.8,23.2z"/>
<path class="st0" d="M32.4,23.2h2.4c0.7,0,1.2-0.6,1.2-1.2v-2.4c0-0.7-0.6-1.2-1.2-1.2h-2.4c-0.7,0-1.2,0.6-1.2,1.2V22
	C31.2,22.7,31.8,23.2,32.4,23.2z"/>
<path class="st0" d="M15.2,30.8h2.4c0.7,0,1.2-0.6,1.2-1.2v-2.4c0-0.7-0.6-1.2-1.2-1.2h-2.4c-0.7,0-1.2,0.6-1.2,1.2v2.4
	C14,30.2,14.6,30.8,15.2,30.8z"/>
<path class="st0" d="M32.4,30.8h2.4c0.7,0,1.2-0.6,1.2-1.2v-2.4c0-0.7-0.6-1.2-1.2-1.2h-2.4c-0.7,0-1.2,0.6-1.2,1.2v2.4
	C31.2,30.2,31.8,30.8,32.4,30.8z"/>
<path class="st0" d="M15.2,38.3h2.4c0.7,0,1.2-0.6,1.2-1.2v-2.4c0-0.7-0.6-1.2-1.2-1.2h-2.4c-0.7,0-1.2,0.6-1.2,1.2V37
	C14,37.7,14.6,38.3,15.2,38.3z"/>
<path class="st0" d="M26.2,33.4h-2.4c-0.7,0-1.2,0.6-1.2,1.2V37c0,0.7,0.6,1.2,1.2,1.2h2.4c0.7,0,1.2-0.6,1.2-1.2v-2.4
	C27.4,34,26.9,33.4,26.2,33.4z"/>
<path class="st0" d="M32.4,38.3h2.4c0.7,0,1.2-0.6,1.2-1.2v-2.4c0-0.7-0.6-1.2-1.2-1.2h-2.4c-0.7,0-1.2,0.6-1.2,1.2V37
	C31.2,37.7,31.8,38.3,32.4,38.3z"/>
<polygon class="st0" points="30.3,25 29.4,24.2 25,28.2 23.1,26.3 22.1,27.2 25,30.9 "/>
</svg>
