<svg xmlns="http://www.w3.org/2000/svg" viewBox="0 0 50.46 50.46">
  <title>Iconos</title>
  <polygon points="37.02 29.99 36.05 28.02 35.08 29.99 32.91 30.3 34.48 31.84 34.11 34 36.05 32.98 37.99 34 37.62 31.84 39.2 30.3 37.02 29.99" fill="#00b5e4"/>
  <path d="M30.73,39.55l0,2.9v2A1.44,1.44,0,0,0,33,45.65l3-2a0.21,0.21,0,0,1,.24,0l2.93,2a1.44,1.44,0,0,0,2.26-1.18l0-5a2.22,2.22,0,0,0-1.24,1.74l0,3.22a0.21,0.21,0,0,1-.33.17l-2.93-2a1.45,1.45,0,0,0-1.63,0l-3,2a0.21,0.21,0,0,1-.33-0.17l0-3.22A2.15,2.15,0,0,0,30.73,39.55Z" fill="#00b5e4"/>
  <path d="M43.43,25.65A1.81,1.81,0,0,0,41.7,25,1.61,1.61,0,0,1,40,23.79a1.8,1.8,0,0,0-1.12-1.45,1.77,1.77,0,0,0-1.7.47,1.79,1.79,0,0,1-1.47.38A1.47,1.47,0,0,1,35,22.85a1.63,1.63,0,0,0-2.89.94A1.61,1.61,0,0,1,30.4,25a1.63,1.63,0,0,0-1.79,2.46,1.61,1.61,0,0,1-.65,2,1.63,1.63,0,0,0,0,3,1.61,1.61,0,0,1,.65,2,1.8,1.8,0,0,0,0,1.81h0A1.81,1.81,0,0,0,30.4,37a1.6,1.6,0,0,1,1.71,1.23,1.8,1.8,0,0,0,1.12,1.45,1.77,1.77,0,0,0,1.7-.47,1.17,1.17,0,0,1,.51-0.3l0.11,0,0.05,0h0a1.65,1.65,0,0,1,.88,0h0l0.15,0.05a1.16,1.16,0,0,1,.48.29,1.77,1.77,0,0,0,1.7.47A1.8,1.8,0,0,0,40,38.22,1.61,1.61,0,0,1,41.69,37a1.81,1.81,0,0,0,1.73-.62l0,0a1.8,1.8,0,0,0,0-1.8,1.61,1.61,0,0,1,.65-2,1.63,1.63,0,0,0,0-3,1.61,1.61,0,0,1-.65-2A1.8,1.8,0,0,0,43.43,25.65Zm-7.38,10.6A5.24,5.24,0,1,1,41.29,31,5.24,5.24,0,0,1,36.05,36.25Z" fill="#00b5e4"/>
  <path d="M11.5,11h9.59a0.67,0.67,0,0,0,0-1.33H11.5A0.67,0.67,0,0,0,11.5,11Z" fill="#00b5e4"/>
  <path d="M11.5,16.42H29.7a0.67,0.67,0,1,0,0-1.33H11.5A0.67,0.67,0,0,0,11.5,16.42Z" fill="#00b5e4"/>
  <path d="M11.5,21.82H29.7a0.67,0.67,0,1,0,0-1.33H11.5A0.67,0.67,0,1,0,11.5,21.82Z" fill="#00b5e4"/>
  <path d="M5.29,8.63V38.29a4.11,4.11,0,0,0,4.1,4.1h18.8V40.73H9.39A2.44,2.44,0,0,1,7,38.29V8.63A2.44,2.44,0,0,1,9.39,6.2H28.87l0,6.17a1,1,0,0,0,.94.94h0c0.38,0,3,0,5.35,0v7.46l0.07,0a1.09,1.09,0,0,0,1.18-.08,3.59,3.59,0,0,1,.38-0.18l0.08,0V20.43c0-8.57-.09-8.65-0.16-8.72-6.53-7.05-6.66-7.09-6.7-7.1L9.39,4.53A4.11,4.11,0,0,0,5.29,8.63ZM34,11.42H30.81l0-3.45Z" fill="#00b5e4"/>
</svg>
