<?xml version="1.0" encoding="utf-8"?>
<!-- Generator: Adobe Illustrator 18.0.0, SVG Export Plug-In . SVG Version: 6.00 Build 0)  -->
<!DOCTYPE svg PUBLIC "-//W3C//DTD SVG 1.1//EN" "http://www.w3.org/Graphics/SVG/1.1/DTD/svg11.dtd">
<svg version="1.1" id="Layer_1" xmlns="http://www.w3.org/2000/svg" xmlns:xlink="http://www.w3.org/1999/xlink" x="0px" y="0px"
	 viewBox="0 0 50.5 50.5" style="enable-background:new 0 0 50.5 50.5;" xml:space="preserve">
<style type="text/css">
	.st0{fill:#65B4E1;}
</style>
<polygon class="st0" points="37,30 36.1,28 35.1,30 32.9,30.3 34.5,31.8 34.1,34 36.1,33 38,34 37.6,31.8 39.2,30.3 "/>
<path class="st0" d="M30.7,39.5l0,2.9l0,2c0,0.5,0.3,1,0.8,1.3c0.5,0.3,1,0.2,1.5-0.1l3-2c0.1,0,0.2,0,0.2,0l2.9,2
	c0.2,0.2,0.5,0.3,0.8,0.3c0.2,0,0.5-0.1,0.7-0.2c0.5-0.2,0.8-0.7,0.8-1.3l0-5c-0.6,0.3-1,0.8-1.2,1.7l0,3.2c0,0.1-0.1,0.2-0.1,0.2
	c0,0-0.1,0-0.2,0l-2.9-2c-0.2-0.2-0.5-0.3-0.8-0.3c-0.3,0-0.6,0.1-0.8,0.2l-3,2c-0.1,0.1-0.2,0-0.2,0c0,0-0.1-0.1-0.1-0.2l0-3.2
	C31.8,40.3,31.3,39.8,30.7,39.5z"/>
<path class="st0" d="M43.4,25.6c-0.4-0.5-1-0.7-1.7-0.6c-0.8,0.1-1.6-0.5-1.7-1.2c-0.1-0.7-0.6-1.3-1.1-1.5c-0.5-0.2-1.2,0-1.7,0.5
	c-0.5,0.6-1.5,0.4-1.5,0.4c-0.3-0.1-0.5-0.2-0.7-0.3c-0.6-0.5-1.2-0.7-1.8-0.5c-0.6,0.2-1,0.7-1.1,1.5c-0.2,0.8-1,1.3-1.7,1.2
	c-0.7-0.1-1.4,0.1-1.7,0.6c-0.3,0.5-0.4,1.2-0.1,1.8c0.3,0.7,0,1.6-0.7,2c-0.7,0.4-1,0.9-1,1.5c0,0.6,0.4,1.1,1,1.5
	c0.7,0.4,1,1.3,0.7,2c-0.3,0.7-0.3,1.3,0,1.8c0,0,0,0,0,0c0.4,0.5,1,0.7,1.7,0.6c0.8-0.1,1.6,0.5,1.7,1.2c0.1,0.7,0.6,1.3,1.1,1.5
	c0.5,0.2,1.2,0,1.7-0.5c0.1-0.2,0.3-0.2,0.5-0.3c0,0,0.1,0,0.1,0c0,0,0,0,0.1,0c0,0,0,0,0,0c0.3-0.1,0.6-0.1,0.9,0c0,0,0,0,0,0
	c0,0,0,0,0,0c0.1,0,0.1,0,0.1,0.1c0.2,0.1,0.3,0.1,0.5,0.3c0.5,0.5,1.2,0.6,1.7,0.5c0.6-0.2,1-0.7,1.1-1.5c0.2-0.8,0.9-1.3,1.7-1.2
	c0.7,0.1,1.4-0.1,1.7-0.6c0,0,0,0,0,0c0.3-0.5,0.3-1.1,0-1.8c-0.3-0.7,0-1.6,0.7-2c0.7-0.4,1-0.9,1-1.5c0-0.6-0.4-1.1-1-1.5
	c-0.7-0.4-1-1.3-0.7-2C43.8,26.8,43.8,26.1,43.4,25.6z M36.1,36.2c-2.9,0-5.2-2.3-5.2-5.2s2.3-5.2,5.2-5.2s5.2,2.3,5.2,5.2
	S38.9,36.2,36.1,36.2z"/>
<path class="st0" d="M11.5,11h9.6c0.4,0,0.7-0.3,0.7-0.7s-0.3-0.7-0.7-0.7h-9.6c-0.4,0-0.7,0.3-0.7,0.7S11.1,11,11.5,11z"/>
<path class="st0" d="M11.5,16.4h18.2c0.4,0,0.7-0.3,0.7-0.7s-0.3-0.7-0.7-0.7H11.5c-0.4,0-0.7,0.3-0.7,0.7S11.1,16.4,11.5,16.4z"/>
<path class="st0" d="M11.5,21.8h18.2c0.4,0,0.7-0.3,0.7-0.7s-0.3-0.7-0.7-0.7H11.5c-0.4,0-0.7,0.3-0.7,0.7S11.1,21.8,11.5,21.8z"/>
<path class="st0" d="M5.3,8.6v29.7c0,2.3,1.8,4.1,4.1,4.1h18.8v-1.7H9.4C8,40.7,7,39.6,7,38.3V8.6C7,7.3,8,6.2,9.4,6.2h19.5l0,6.2
	c0,0.5,0.4,0.9,0.9,0.9l0,0c0.4,0,3,0,5.3,0v7.5l0.1,0c0.5,0.3,0.8,0.1,1.2-0.1c0.1-0.1,0.2-0.1,0.4-0.2l0.1,0v-0.1
	c0-8.6-0.1-8.7-0.2-8.7c-6.5-7.1-6.7-7.1-6.7-7.1L9.4,4.5C7.1,4.5,5.3,6.4,5.3,8.6z M34,11.4c-1.4,0-2.6,0-3.1,0l0-3.5L34,11.4z"/>
</svg>
