<svg id="Layer_1" data-name="Layer 1" xmlns="http://www.w3.org/2000/svg" viewBox="0 0 50.46 50.46"><defs><style>.cls-1{fill:#00b5e4;}</style></defs><title>Iconos</title><path class="cls-1" d="M13.48,24.38a0.8,0.8,0,0,0-.59.77A15.53,15.53,0,0,0,14.62,33c1.83,3.13,5.08,4.92,9.65,5.31v3.28a0.79,0.79,0,0,0,1.26.65l10-7.11a0.8,0.8,0,0,0,0-1.3l-10-7.15a0.8,0.8,0,0,0-1.26.65v3.23c-3.64,0-6.83-.39-9.89-5.78a0.81,0.81,0,0,0-.7-0.4,0.72,0.72,0,0,0-.2,0h0ZM25.11,36.75c-7.68-.38-9.89-4.6-10.46-8.72,3.31,4.11,6.91,4.11,10.41,4.11a0.8,0.8,0,0,0,.57-0.23,0.81,0.81,0,0,0,.23-0.57V28.86l7.78,5.59L25.86,40V37.54a0.79,0.79,0,0,0-.76-0.79h0Zm0,0"/><path class="cls-1" d="M37,26.08a0.8,0.8,0,0,0,.59-0.77,15.53,15.53,0,0,0-1.74-7.83c-1.83-3.13-5.08-4.92-9.65-5.31V8.89a0.79,0.79,0,0,0-1.26-.65L15,15.35a0.8,0.8,0,0,0,0,1.3l10,7.15a0.8,0.8,0,0,0,1.26-.65V19.92c3.64,0,6.83.39,9.89,5.78a0.81,0.81,0,0,0,.7.4,0.72,0.72,0,0,0,.2,0h0ZM25.35,13.71c7.68,0.38,9.89,4.6,10.46,8.72-3.31-4.11-6.91-4.11-10.41-4.11a0.8,0.8,0,0,0-.57.23,0.81,0.81,0,0,0-.23.57V21.6L16.82,16l7.78-5.57v2.47a0.79,0.79,0,0,0,.76.79h0Zm0,0"/></svg>