<?xml version="1.0" encoding="utf-8"?>
<!-- Generator: Adobe Illustrator 18.0.0, SVG Export Plug-In . SVG Version: 6.00 Build 0)  -->
<!DOCTYPE svg PUBLIC "-//W3C//DTD SVG 1.1//EN" "http://www.w3.org/Graphics/SVG/1.1/DTD/svg11.dtd">
<svg version="1.1" id="Layer_1" xmlns="http://www.w3.org/2000/svg" xmlns:xlink="http://www.w3.org/1999/xlink" x="0px" y="0px"
	 viewBox="0 0 50.5 50.5" style="enable-background:new 0 0 50.5 50.5;" xml:space="preserve">
<style type="text/css">
	.st0{fill:#65B4E1;}
</style>
<g>
	<g>
		<path class="st0" d="M13.5,24.4c-0.3,0.1-0.6,0.4-0.6,0.8c0,2.1,0.2,5.2,1.7,7.8c1.8,3.1,5.1,4.9,9.7,5.3v3.3
			c0,0.3,0.2,0.6,0.4,0.7c0.3,0.1,0.6,0.1,0.8-0.1l10-7.1c0.2-0.1,0.3-0.4,0.3-0.7c0-0.3-0.1-0.5-0.3-0.7l-10-7.2
			c-0.2-0.2-0.6-0.2-0.8-0.1c-0.3,0.1-0.4,0.4-0.4,0.7v3.2c-3.6,0-6.8-0.4-9.9-5.8c-0.1-0.3-0.4-0.4-0.7-0.4
			C13.6,24.4,13.5,24.4,13.5,24.4L13.5,24.4z M25.1,36.7c-7.7-0.4-9.9-4.6-10.5-8.7c3.3,4.1,6.9,4.1,10.4,4.1c0.2,0,0.4-0.1,0.6-0.2
			c0.1-0.1,0.2-0.4,0.2-0.6v-2.5l7.8,5.6L25.9,40v-2.5C25.9,37.1,25.5,36.8,25.1,36.7L25.1,36.7z M25.1,36.7"/>
		<path class="st0" d="M37,26.1c0.3-0.1,0.6-0.4,0.6-0.8c0-2.1-0.2-5.2-1.7-7.8c-1.8-3.1-5.1-4.9-9.7-5.3V8.9c0-0.3-0.2-0.6-0.4-0.7
			c-0.3-0.1-0.6-0.1-0.8,0.1l-10,7.1c-0.2,0.1-0.3,0.4-0.3,0.7c0,0.3,0.1,0.5,0.3,0.7l10,7.2c0.2,0.2,0.6,0.2,0.8,0.1
			c0.3-0.1,0.4-0.4,0.4-0.7v-3.2c3.6,0,6.8,0.4,9.9,5.8c0.1,0.3,0.4,0.4,0.7,0.4C36.8,26.1,36.9,26.1,37,26.1L37,26.1z M25.4,13.7
			c7.7,0.4,9.9,4.6,10.5,8.7c-3.3-4.1-6.9-4.1-10.4-4.1c-0.2,0-0.4,0.1-0.6,0.2c-0.1,0.1-0.2,0.4-0.2,0.6v2.5L16.8,16l7.8-5.6v2.5
			C24.6,13.3,24.9,13.7,25.4,13.7L25.4,13.7z M25.4,13.7"/>
	</g>
</g>
</svg>
