<?xml version="1.0" encoding="utf-8"?>
<!-- Generator: Adobe Illustrator 16.0.0, SVG Export Plug-In . SVG Version: 6.00 Build 0)  -->
<!DOCTYPE svg PUBLIC "-//W3C//DTD SVG 1.1//EN" "http://www.w3.org/Graphics/SVG/1.1/DTD/svg11.dtd">
<svg version="1.1" id="Layer_1" xmlns="http://www.w3.org/2000/svg" xmlns:xlink="http://www.w3.org/1999/xlink" x="0px" y="0px"
	 width="1366px" height="557px" viewBox="0 0 1366 557" enable-background="new 0 0 1366 557" xml:space="preserve">
<g>
	<path d="M1181.686,422.707l77.816-0.881l1.199-54.406l-9.158-1.758c-0.186-33.402,0.184-53.664,0.184-81.148
		c0-4.395-40.155-21.976-40.34-22.76l-36.918-91.28c-2.5-6.987-8.422-12.678-19.803-12.954
		c-1.572-23.735-57.275-61.255-124.268-79.483l-2.406,20.17l-8.422,0.652v65.602l-5.547,15.081l-0.375,151.422l-42.096,0.047V57.539
		H752.627l-30.715,34.425H198.197v243.765h40.065l-0.556,43.537l-11.103,1.017l0.092,42.563l22.298,0.277
		c1.479-47.191,40.248-84.896,87.718-84.896c30.351,0,57.183,15.406,72.911,38.863c16.471-23.596,43.859-39,74.856-39
		c48.393,0,87.902,37.521,91.143,85.033H789.18v17.766c0,4.484,3.607,8.142,8.142,8.142h132.313c4.533,0,8.146-3.656,8.146-8.142
		v-17.766h68.473c1.568-47.191,40.154-84.896,87.713-84.896C1141.338,338.227,1180.018,375.748,1181.686,422.707z"/>
	<path d="M337.82,359.371c38.679,0,70.049,31.365,70.049,70.045c0,38.676-31.37,70.043-70.049,70.043
		c-38.673,0-70.043-31.367-70.043-70.043C267.777,390.736,299.146,359.371,337.82,359.371z"/>
	<path d="M1095.906,359.371c38.68,0,70.045,31.365,70.045,70.045c0,38.676-31.365,70.043-70.045,70.043
		c-38.769,0-70.041-31.367-70.041-70.043C1025.865,390.736,1057.139,359.371,1095.906,359.371z"/>
	<path d="M485.592,359.371c38.673,0,70.042,31.365,70.042,70.045c0,38.676-31.37,70.043-70.042,70.043
		c-38.68,0-70.047-31.367-70.047-70.043C415.545,390.736,446.913,359.371,485.592,359.371z"/>
	<path fill="#FFFFFF" d="M1146.895,295.295c0,3.979,3.884,8.279,8.324,8.279l19.25,0.418c4.438,0,8.232-4.535,8.232-8.283
		l1.203-14.156l-24.892-97.571c-0.926-3.932-1.575-8.281-6.108-8.281c-1.941,0-3.978,0-6.01-0.046
		C1146.895,229.134,1146.895,242.552,1146.895,295.295"/>
	<path fill="#FFFFFF" d="M1052.883,174.22c-4.533,0-8.326,5.273-8.326,9.854v50.659c0,4.579,3.793,8.329,8.326,8.329l75.873,18.043
		v-86.607C1101.463,174.128,1080.088,174.22,1052.883,174.22z"/>
	<path fill="#FFFFFF" d="M337.82,394.67c19.247,0,34.701,15.545,34.701,34.746c0,19.199-15.454,34.744-34.701,34.744
		c-19.151,0-34.696-15.545-34.696-34.744C303.124,410.215,318.668,394.67,337.82,394.67"/>
	<path fill="#FFFFFF" d="M1095.906,394.67c19.158,0,34.703,15.545,34.703,34.746c0,19.199-15.545,34.744-34.703,34.744
		c-19.24,0-34.787-15.545-34.787-34.744C1061.119,410.215,1076.666,394.67,1095.906,394.67"/>
	<path fill="#FFFFFF" d="M485.592,394.67c19.243,0,34.695,15.545,34.695,34.746c0,19.199-15.452,34.744-34.695,34.744
		c-19.154,0-34.7-15.545-34.7-34.744C450.893,410.215,466.438,394.67,485.592,394.67"/>
</g>
</svg>
