<?xml version="1.0" encoding="utf-8"?>
<!-- Generator: Adobe Illustrator 16.0.0, SVG Export Plug-In . SVG Version: 6.00 Build 0)  -->
<!DOCTYPE svg PUBLIC "-//W3C//DTD SVG 1.1//EN" "http://www.w3.org/Graphics/SVG/1.1/DTD/svg11.dtd">
<svg version="1.1" id="Layer_1" xmlns="http://www.w3.org/2000/svg" xmlns:xlink="http://www.w3.org/1999/xlink" x="0px" y="0px"
	 width="1366px" height="557px" viewBox="0 0 1366 557" enable-background="new 0 0 1366 557" xml:space="preserve">
<path d="M1017.523,357.086c37.789,0,68.44,30.652,68.44,68.488s-30.651,68.488-68.44,68.488c-37.881,0-68.533-30.652-68.533-68.488
	S979.643,357.086,1017.523,357.086z"/>
<path d="M893.313,145.47c-1.188-0.96-2.518-2.013-3.844-2.768c-3.203-1.853-7.092-3.134-10.66-4.117l-59.428-4.118
	c-3.25-0.251-8.236-0.183-10.707,2.402c-1.69,1.807-1.875,4.575-1.69,6.908l6.268,66.703c1.418,6.474,3.797,13.954,9.104,18.346
	c2.746,2.311,6.086,3.568,9.606,4.255l144.113,8.898l1.646-21.777L893.313,145.47z M1034.084,236.582
	c29.555,3.316,77.729,14.457,98.637,27.084c2.654,1.784,5.398,6.61,6.863,13.268l12.26,56.592
	c4.713,1.897,21.229,7.549,21.229,14.272v42.229c-1.556,10.567-8.968,19.215-12.812,26.352l-46.391,4.438
	c-2.469-50.097-43.873-89.968-94.609-89.968c-51.881,0-93.926,41.519-94.748,93.171l-4.072,0.045
	c-105.225-2.472-251.67-3.935-358.84-4.025c-2.881-49.777-44.125-89.189-94.588-89.189c-49.271,0-89.67,37.492-94.313,85.529
	l-76.174-14c-12.215-2.195-22.234-3.248-22.691-18.666c-0.617-21.594-1.486-58.49-1.625-67.115c-0.021-3.155,9.059-4.276,8.99-7.524
	c-0.504-64.393,4.301-38.178,18.781-98.248l383.086,13.587l14.616-111.835c1.533-10.683,4.644-13.222,13.931-16.127l147.246,6.474
	C897.842,104.799,994.785,202.315,1034.084,236.582z"/>
<path fill="#FFFFFF" d="M746.111,131.151l22.875,1.578c3.592,0.252,6.52,2.837,6.52,6.177v86.032c0,3.317-2.975,6.359-6.52,6.153
	l-25.254-1.441c-3.5-0.205-6.611-2.768-6.521-6.176l2.379-86.147C739.707,133.918,742.543,130.922,746.111,131.151"/>
<path d="M467.014,357.086c37.836,0,68.488,30.652,68.488,68.488s-30.652,68.488-68.488,68.488c-37.856,0-68.51-30.652-68.51-68.488
	S429.156,357.086,467.014,357.086z"/>
<path fill="#FFFFFF" d="M1017.523,391.582c18.756,0,33.944,15.234,33.944,33.992c0,18.803-15.188,33.992-33.944,33.992
	c-18.759,0-33.992-15.189-33.992-33.992C983.531,406.816,998.766,391.582,1017.523,391.582"/>
<path fill="#FFFFFF" d="M467.014,391.582c18.758,0,33.924,15.234,33.924,33.992c0,18.803-15.165,33.992-33.924,33.992
	c-18.778,0-33.969-15.189-33.969-33.992C433.045,406.816,448.234,391.582,467.014,391.582"/>
</svg>
