<?xml version="1.0" encoding="utf-8"?>
<!-- Generator: Adobe Illustrator 16.0.0, SVG Export Plug-In . SVG Version: 6.00 Build 0)  -->
<!DOCTYPE svg PUBLIC "-//W3C//DTD SVG 1.1//EN" "http://www.w3.org/Graphics/SVG/1.1/DTD/svg11.dtd">
<svg version="1.1" id="Layer_1" xmlns="http://www.w3.org/2000/svg" xmlns:xlink="http://www.w3.org/1999/xlink" x="0px" y="0px"
	 width="1366px" height="557px" viewBox="0 0 1366 557" enable-background="new 0 0 1366 557" xml:space="preserve">
<g>
	<path d="M1114.958,413.084l65.048-0.832l1.111-50.799l-8.605-1.619c-0.093-31.186,0.278-50.061,0.187-75.734
		c0-3.055-6.756-6.477-6.756-10.226c-0.093-3.655-22.39-7.96-23.317-11.009l-34.513-85.177c-1.941-5.736-6.477-10.547-14.806-11.795
		l-116.028,0.275c-13.418,0.05-17.305,9.022-18.784,19.987l-0.371,141.334h-29.795V72.298H277.782v259.59h37.43l-0.51,40.621
		l-10.436,0.974l0.139,39.737l20.776,0.23c1.434-43.998,37.542-79.201,81.886-79.201c28.337,0,53.32,14.387,68.032,36.223
		c15.403-21.975,40.943-36.36,69.881-36.36c45.084,0,82.005,34.973,85.012,79.34H748.64v16.563c0,4.166,3.423,7.636,7.585,7.636
		H879.75c4.165,0,7.59-3.427,7.59-7.636v-16.563h63.937c1.389-43.998,37.473-79.201,81.796-79.201
		C1077.3,334.25,1113.295,369.27,1114.958,413.084z"/>
	<path d="M408.108,353.959c36.088,0,65.37,29.234,65.37,65.371c0,36.084-29.282,65.367-65.37,65.367
		c-36.134,0-65.374-29.283-65.374-65.367C342.735,383.193,371.975,353.959,408.108,353.959z"/>
	<path d="M1034.829,353.959c36.18,0,65.419,29.234,65.419,65.371c0,36.084-29.239,65.367-65.419,65.367
		c-36.086,0-65.323-29.283-65.323-65.367C969.506,383.193,998.743,353.959,1034.829,353.959z"/>
	<path d="M546.021,353.959c36.088,0,65.351,29.234,65.351,65.371c0,36.084-29.263,65.367-65.351,65.367
		c-36.153,0-65.394-29.283-65.394-65.367C480.629,383.193,509.868,353.959,546.021,353.959z"/>
	<path fill="#FFFFFF" d="M1082.48,297.977c0,3.748,3.608,7.773,7.682,7.773l18.041,0.371c4.165,0,7.682-4.258,7.682-7.73
		l1.111-13.184l-23.227-85.308c-0.834-3.657-1.481-7.773-5.645-7.773c-1.852,0-3.794,0-5.646,0
		C1082.48,241.997,1082.48,248.752,1082.48,297.977"/>
	<path fill="#FFFFFF" d="M994.673,190.782c-4.166,0-7.681,4.904-7.681,9.209v41.452c0,4.301,3.515,7.819,7.681,7.819l70.783,16.84
		v-75.088C1040.104,190.689,1020.117,190.782,994.673,190.782z"/>
	<path fill="#FFFFFF" d="M408.108,386.896c17.904,0,32.385,14.481,32.385,32.434c0,17.902-14.479,32.385-32.385,32.385
		c-17.906,0-32.432-14.481-32.432-32.385C375.678,401.379,390.203,386.896,408.108,386.896"/>
	<path fill="#FFFFFF" d="M1034.829,386.896c17.949,0,32.386,14.481,32.386,32.434c0,17.902-14.437,32.385-32.386,32.385
		c-17.857,0-32.385-14.481-32.385-32.385C1002.444,401.379,1016.972,386.896,1034.829,386.896"/>
	<path fill="#FFFFFF" d="M546.021,386.896c17.904,0,32.385,14.481,32.385,32.434c0,17.902-14.479,32.385-32.385,32.385
		c-17.906,0-32.455-14.481-32.455-32.385C513.566,401.379,528.116,386.896,546.021,386.896"/>
</g>
</svg>
