<?xml version="1.0" encoding="utf-8"?>
<!-- Generator: Adobe Illustrator 16.0.0, SVG Export Plug-In . SVG Version: 6.00 Build 0)  -->
<!DOCTYPE svg PUBLIC "-//W3C//DTD SVG 1.1//EN" "http://www.w3.org/Graphics/SVG/1.1/DTD/svg11.dtd">
<svg version="1.1" id="Layer_1" xmlns="http://www.w3.org/2000/svg" xmlns:xlink="http://www.w3.org/1999/xlink" x="0px" y="0px"
	 width="1366px" height="557px" viewBox="0 0 1366 557" enable-background="new 0 0 1366 557" xml:space="preserve">
<g>
	<path d="M960.445,338.362c45.383,0,82.137,36.753,82.137,82.138c0,45.431-36.754,82.229-82.137,82.229
		c-45.478,0-82.23-36.799-82.23-82.229C878.215,375.115,914.969,338.362,960.445,338.362z"/>
	<path d="M418.226,338.362c45.384,0,82.183,36.753,82.183,82.138c0,45.431-36.799,82.229-82.183,82.229
		c-45.454,0-82.183-36.799-82.183-82.229C335.973,375.115,372.771,338.362,418.226,338.362z"/>
	<path d="M1063,412.656l44.549-1.066l1.483-63.762l-10.903-2.135c-0.14-43.945,0.51-49.838,0.139-93.273
		c-0.046-4.594,0.65-3.643-0.604-7.448l-43.343-128.31c-2.829-8.121-9.838-14.873-23.155-15.151l-142.557-3.573l-22.459,29.375
		l-0.371,177.729h-37.543V54.271H256.968v256.34H304l-0.673,51.046l-13.109,1.253l0.186,49.979l26.149,0.278
		c1.81-55.315,47.171-99.586,102.973-99.586c55.732,0,101.117,44.271,102.973,99.586h334.557
		c1.856-55.315,47.193-99.586,103.021-99.586C1015.574,313.535,1060.864,357.574,1063,412.656z"/>
	<path fill="#FFFFFF" d="M1022.07,263.164c0,4.71,4.549,9.745,9.745,9.745l22.691,0.487c5.15,0,9.699-5.29,9.699-9.699l1.299-16.636
		l-29.095-114.527c-1.16-4.594-1.856-9.699-7.193-9.699c-2.366,0-4.732,0-7.007-0.046
		C1022.07,185.574,1022.07,201.259,1022.07,263.164z"/>
	<path fill="#FFFFFF" d="M911.72,121.142c-5.29,0-9.745,6.172-9.745,11.531v59.398c0,5.383,4.455,9.838,9.745,9.838l89.005,21.161
		V121.374C968.798,121.048,943.693,121.142,911.72,121.142z"/>
	<path fill="#FFFFFF" d="M960.445,379.756c22.506,0,40.696,18.283,40.696,40.744c0,22.459-18.19,40.742-40.696,40.742
		c-22.554,0-40.791-18.283-40.791-40.742C919.654,398.039,937.892,379.756,960.445,379.756"/>
	<path fill="#FFFFFF" d="M418.226,379.756c22.53,0,40.744,18.283,40.744,40.744c0,22.459-18.214,40.742-40.744,40.742
		c-22.506,0-40.813-18.189-40.813-40.742C377.413,397.946,395.72,379.756,418.226,379.756z"/>
</g>
</svg>
