<?xml version="1.0" encoding="utf-8"?>
<!-- Generator: Adobe Illustrator 16.0.0, SVG Export Plug-In . SVG Version: 6.00 Build 0)  -->
<!DOCTYPE svg PUBLIC "-//W3C//DTD SVG 1.1//EN" "http://www.w3.org/Graphics/SVG/1.1/DTD/svg11.dtd">
<svg version="1.1" id="Layer_1" xmlns="http://www.w3.org/2000/svg" xmlns:xlink="http://www.w3.org/1999/xlink" x="0px" y="0px"
	 width="1366px" height="557px" viewBox="0 0 1366 557" enable-background="new 0 0 1366 557" xml:space="preserve">
<g>
	<path d="M1212.958,420.299h39.67l1.318-57.734l-9.646-1.853c-0.162-39.093,0.418-44.366,0.117-82.998
		c-0.024-4.073,0.533-3.239-0.534-6.665l-38.561-110.059c-2.521-7.313-8.79-12.261-20.635-13.557
		c-44.762-4.858-58.477-5.599-103.723-6.663l-0.512-27.109l-42.518,0.462l0.603,187.739H646.866l-1.595,73.052l-11.705,1.063
		l0.183,44.786l23.25-0.046c0.187-5.228,0.441-10.316,0.856-15.313c8.465-41.82,46.519-72.359,90.862-72.268
		c47.698,0.093,96.161,0.093,143.884,0c49.571-0.093,88.918,38.311,90.584,87.488c24.821,0,21.631,0.093,46.564,0.093
		c1.597-49.225,41.961-88.643,91.604-88.643C1170.834,332.074,1211.131,371.259,1212.958,420.299z"/>
	<path fill="#FFFFFF" d="M1183.74,287.287c0,3.936,3.817,8.145,8.121,8.145l18.922,0.418c4.347,0,8.836-4.441,8.836-8.144
		l0.369-13.833l-24.334-95.583c-0.974-3.84-1.551-8.141-5.992-8.141c-1.966,0-3.953,0-5.873-0.05
		C1183.789,222.518,1183.74,235.659,1183.74,287.287"/>
	<path fill="#FFFFFF" d="M1091.63,168.762c-4.396,0-8.144,5.133-8.144,9.62v49.597c0,4.489,3.746,8.19,8.144,8.19l74.298,17.672
		v-84.849C1139.28,168.669,1118.321,168.762,1091.63,168.762z"/>
	<path d="M136.362,270.313l-1.849,150.312h27.48c1.665-49.179,42.031-88.642,91.649-88.55l143.536,0.367
		c49.943-4.9,93.571,39.883,95.211,88.183h69.465l54.153-150.312h-218.83H257.205H136.362z"/>
	<path d="M212.145,274.752h692.97c55.078,0,100.115-47.789,100.115-106.223l0,0c0-58.479-45.037-106.27-100.115-106.27h-692.97
		c-55.054,0-100.117,47.791-100.117,106.27l0,0C112.028,226.963,157.09,274.752,212.145,274.752z"/>
	<path fill="none" stroke="#000000" stroke-width="10.2329" stroke-miterlimit="22.9256" d="M212.145,274.752h692.97
		c55.078,0,100.115-47.789,100.115-106.223l0,0c0-58.479-45.037-106.27-100.115-106.27h-692.97
		c-55.054,0-100.117,47.791-100.117,106.27l0,0C112.028,226.963,157.09,274.752,212.145,274.752z"/>
	<path d="M249.825,352.429c39.327,0,71.156,31.879,71.156,71.2c0,39.327-31.829,71.156-71.156,71.156
		c-39.345,0-71.2-31.829-71.2-71.156C178.625,384.308,210.479,352.429,249.825,352.429z"/>
	<path d="M400.787,352.429c39.326,0,71.156,31.879,71.156,71.2c0,39.327-31.831,71.156-71.156,71.156
		c-39.347,0-71.2-31.829-71.2-71.156C329.586,384.308,361.439,352.429,400.787,352.429z"/>
	<path d="M1123.851,352.429c39.327,0,71.155,31.879,71.155,71.2c0,39.327-31.828,71.156-71.155,71.156
		c-39.346,0-71.197-31.829-71.197-71.156C1052.652,384.308,1084.505,352.429,1123.851,352.429z"/>
	<path d="M744.716,352.429c39.325,0,71.177,31.879,71.177,71.2c0,39.327-31.852,71.156-71.177,71.156
		c-39.347,0-71.178-31.829-71.178-71.156C673.538,384.308,705.369,352.429,744.716,352.429z"/>
	<path d="M895.678,352.429c39.323,0,71.201,31.879,71.201,71.2c0,39.327-31.878,71.156-71.201,71.156
		c-39.327,0-71.18-31.829-71.18-71.156C824.498,384.308,856.352,352.429,895.678,352.429z"/>
	<path fill="#FFFFFF" d="M249.825,388.286c19.502,0,35.277,15.821,35.277,35.343c0,19.479-15.775,35.302-35.277,35.302
		c-19.5,0-35.299-15.822-35.299-35.302C214.525,404.107,230.325,388.286,249.825,388.286"/>
	<path fill="#FFFFFF" d="M400.787,388.286c19.523,0,35.277,15.821,35.277,35.343c0,19.479-15.754,35.302-35.277,35.302
		c-19.5,0-35.299-15.822-35.299-35.302C365.487,404.107,381.287,388.286,400.787,388.286"/>
	<path fill="#FFFFFF" d="M1123.851,388.286c19.502,0,35.276,15.821,35.276,35.343c0,19.479-15.774,35.302-35.276,35.302
		c-19.499,0-35.32-15.822-35.32-35.302C1088.529,404.107,1104.352,388.286,1123.851,388.286"/>
	<path fill="#FFFFFF" d="M744.716,388.286c19.524,0,35.277,15.821,35.277,35.343c0,19.479-15.753,35.302-35.277,35.302
		c-19.502,0-35.301-15.822-35.301-35.302C709.415,404.107,725.214,388.286,744.716,388.286"/>
	<path fill="#FFFFFF" d="M895.678,388.286c19.522,0,35.297,15.821,35.297,35.343c0,19.479-15.773,35.302-35.297,35.302
		c-19.502,0-35.301-15.822-35.301-35.302C860.377,404.107,876.176,388.286,895.678,388.286"/>
</g>
</svg>
