<?xml version="1.0" encoding="utf-8"?>
<!-- Generator: Adobe Illustrator 24.0.1, SVG Export Plug-In . SVG Version: 6.00 Build 0)  -->
<svg version="1.1" id="Layer_1" xmlns="http://www.w3.org/2000/svg" xmlns:xlink="http://www.w3.org/1999/xlink" x="0px" y="0px"
	 viewBox="0 0 50.5 50.5" style="enable-background:new 0 0 50.5 50.5;" xml:space="preserve">
<g>
	<path d="M48.534,41.127l-21.6-19.902l2.359-2.18c0.324-0.3,0.345-0.806,0.045-1.13c-0.301-0.324-0.808-0.344-1.131-0.044
		l-2.453,2.268l-2.462-2.269c-0.323-0.298-0.83-0.279-1.13,0.046c-0.3,0.325-0.279,0.831,0.046,1.13l2.367,2.181l-22.611,20.9
		c-0.164,0.152-0.257,0.365-0.257,0.588v2.592c0,0.441,0.358,0.8,0.8,0.8s0.8-0.358,0.8-0.8v-2.242l4.638-4.288L6.465,45.18
		c-0.055,0.238,0.001,0.487,0.153,0.679C6.77,46.049,7,46.161,7.244,46.161h36.484c0.244,0,0.475-0.111,0.626-0.302
		c0.152-0.191,0.208-0.44,0.153-0.679l-1.643-7.101l4.327,3.987v3.241c0,0.441,0.358,0.8,0.8,0.8s0.8-0.358,0.8-0.8v-3.592
		C48.792,41.492,48.698,41.279,48.534,41.127z M26.179,35.976c1.266,1.624,3.177,2.722,5.345,2.901l1.435,5.684h-6.78V35.976z
		 M24.579,44.561H17.8l1.434-5.684c2.168-0.179,4.079-1.277,5.345-2.901V44.561z M10.023,36.896c0.003-0.014-0.001-0.026,0.001-0.04
		l14.555-13.454v7.926c0,3.294-2.681,5.975-5.975,5.975c-0.366,0-0.687,0.249-0.775,0.604l-1.678,6.653H8.25L10.023,36.896z
		 M40.949,36.896l1.773,7.665h-8.115l-1.679-6.653c-0.09-0.355-0.409-0.604-0.775-0.604c-3.294,0-5.975-2.681-5.975-5.975v-8.624
		l14.839,13.672C40.942,36.534,40.907,36.713,40.949,36.896z"/>
	<path d="M7.9,17.1h3.353c1.239,0,2.277-0.878,2.524-2.046h7.263c1.423,0,2.581-1.158,2.581-2.581s-1.158-2.581-2.581-2.581h-9.78
		c-1.24,0-2.278,0.878-2.525,2.046H7.9c-1.423,0-2.58,1.158-2.58,2.581S6.478,17.1,7.9,17.1z M7.9,13.538h1.601
		c0.233,0,0.456-0.102,0.608-0.28c0.151-0.178,0.218-0.413,0.182-0.645c-0.007-0.046-0.013-0.093-0.013-0.141
		c0-0.541,0.44-0.981,0.981-0.981h9.78c0.541,0,0.981,0.44,0.981,0.981s-0.44,0.981-0.981,0.981h-8.028
		c-0.232,0-0.453,0.101-0.605,0.276c-0.151,0.176-0.22,0.409-0.187,0.639c0.008,0.049,0.014,0.099,0.014,0.149
		c0,0.541-0.44,0.981-0.98,0.981H7.9c-0.541,0-0.98-0.44-0.98-0.981S7.359,13.538,7.9,13.538z"/>
	<path d="M29.499,9.5h0.834c0.247,1.167,1.285,2.046,2.524,2.046h9.781c1.423,0,2.581-1.158,2.581-2.581
		c0-1.423-1.158-2.581-2.581-2.581h-7.263c-0.247-1.167-1.285-2.045-2.524-2.045h-3.353c-1.423,0-2.58,1.158-2.58,2.581
		S28.076,9.5,29.499,9.5z M29.499,5.939h3.353c0.54,0,0.98,0.44,0.98,0.981c0,0.051-0.006,0.1-0.014,0.148
		c-0.033,0.23,0.034,0.463,0.187,0.639s0.373,0.277,0.605,0.277h8.028c0.541,0,0.981,0.44,0.981,0.981s-0.44,0.981-0.981,0.981
		h-9.781c-0.54,0-0.98-0.44-0.98-0.981c0-0.048,0.006-0.095,0.013-0.141c0.036-0.231-0.03-0.467-0.182-0.645
		c-0.152-0.178-0.375-0.28-0.608-0.28h-1.601c-0.541,0-0.98-0.44-0.98-0.981S28.958,5.939,29.499,5.939z"/>
</g>
</svg>
