<?xml version="1.0" encoding="utf-8"?>
<!-- Generator: Adobe Illustrator 18.0.0, SVG Export Plug-In . SVG Version: 6.00 Build 0)  -->
<!DOCTYPE svg PUBLIC "-//W3C//DTD SVG 1.1//EN" "http://www.w3.org/Graphics/SVG/1.1/DTD/svg11.dtd">
<svg version="1.1" id="Layer_1" xmlns="http://www.w3.org/2000/svg" xmlns:xlink="http://www.w3.org/1999/xlink" x="0px" y="0px"
	 viewBox="0 0 50.5 50.5" style="enable-background:new 0 0 50.5 50.5;" xml:space="preserve">
<style type="text/css">
	.st0{fill:#65B4E1;}
</style>
<g>
	<g>
		<circle class="st0" cx="10.4" cy="31.1" r="2.9"/>
		<circle class="st0" cx="40.2" cy="31.1" r="2.9"/>
		<path class="st0" d="M43.5,35.4h-6.6c-1.7,0-3.2,0.9-4.1,2.2c-0.9-1.3-2.4-2.2-4.1-2.2h-6.6c-1.7,0-3.2,0.9-4.1,2.2
			c-0.9-1.3-2.4-2.2-4.1-2.2H7c-2.8,0-5,2.3-5,5v3.7c0,0.5,0.4,1,1,1s1-0.4,1-1v-3.7c0-1.7,1.4-3.1,3.1-3.1h6.6
			c1.7,0,3.1,1.4,3.1,3.1v3.7c0,0.5,0.4,1,1,1c0,0,0,0,0,0c0,0,0,0,0,0c0.5,0,1-0.4,1-1v-3.7c0-1.7,1.4-3.1,3.1-3.1h6.6
			c1.7,0,3.1,1.4,3.1,3.1v3.7c0,0.5,0.4,1,1,1c0,0,0,0,0,0c0,0,0,0,0,0c0.5,0,1-0.4,1-1v-3.7c0-1.7,1.4-3.1,3.1-3.1h6.6
			c1.7,0,3.1,1.4,3.1,3.1v3.7c0,0.5,0.4,1,1,1s1-0.4,1-1v-3.7C48.5,37.7,46.2,35.4,43.5,35.4z"/>
		<circle class="st0" cx="25.3" cy="8.2" r="2.9"/>
		<path class="st0" d="M28.6,18c0.9,0,1.8,0.2,2.6,0.6v-2.1c0-4.2-4.4-4.3-5.8-4.4H25c-1.4,0.1-5.7,0.1-5.7,4.4v2
			c0.8-0.3,1.6-0.5,2.5-0.5H28.6z"/>
		<circle class="st0" cx="25.3" cy="31.1" r="2.9"/>
		<path class="st0" d="M17.8,29.5c0.5,0,1-0.4,1-1v-3.7c0-1.7,1.4-3.1,3.1-3.1h6.6c1.7,0,3.1,1.4,3.1,3.1v3.7c0,0.5,0.4,1,1,1
			s1-0.4,1-1v-3.7c0-2.8-2.3-5-5-5h-6.6c-2.8,0-5,2.3-5,5v3.7C16.9,29,17.3,29.5,17.8,29.5z"/>
	</g>
</g>
</svg>
