<?xml version="1.0" encoding="utf-8"?>
<!-- Generator: Adobe Illustrator 24.0.1, SVG Export Plug-In . SVG Version: 6.00 Build 0)  -->
<svg version="1.1" id="Layer_1" xmlns="http://www.w3.org/2000/svg" xmlns:xlink="http://www.w3.org/1999/xlink" x="0px" y="0px"
	 viewBox="0 0 50.5 50.5" style="enable-background:new 0 0 50.5 50.5;" xml:space="preserve">
<g>
	<path d="M48.461,29.229v-1.05c0-1.496-2.656-3.157-3.566-3.646c-1.128-1.893-1.897-3.381-2.521-4.585
		c-0.516-0.997-0.923-1.784-1.358-2.471c-1.241-1.956-3.261-1.851-3.298-1.846l-5.188,0c-0.216-0.037-0.755-0.581-1.076-0.905
		c-0.725-0.731-1.475-1.487-2.409-1.487H6.286c-3.239,0-4.597,11.783-4.597,11.902v8.729c0,0.441,0.36,0.803,0.802,0.803h4.125
		c0.434,0,0.788-0.345,0.8-0.777c0.018-0.656,0.473-1.204,1.075-1.381c-0.183,0.417-0.289,0.875-0.289,1.358
		c0,1.868,1.521,3.389,3.389,3.389s3.389-1.521,3.389-3.389c0-0.48-0.103-0.936-0.285-1.35c0.589,0.185,1.031,0.727,1.049,1.373
		c0.012,0.433,0.366,0.777,0.8,0.777h16.201c0.434,0,0.788-0.345,0.8-0.777c0.018-0.653,0.47-1.2,1.069-1.379
		c-0.183,0.416-0.288,0.874-0.288,1.356c0,1.868,1.521,3.389,3.389,3.389c1.869,0,3.39-1.521,3.39-3.389
		c0-0.481-0.104-0.937-0.286-1.352c0.592,0.183,1.037,0.726,1.054,1.374c0.012,0.434,0.366,0.778,0.8,0.778h4.983
		c0.441,0,0.801-0.359,0.802-0.801l0.001-0.793c0.147-0.157,0.352-0.414,0.352-0.783V30.14c0-0.384-0.189-0.671-0.315-0.86
		C48.483,29.262,48.472,29.245,48.461,29.229z M47.211,32.068c-0.143,0.148-0.352,0.398-0.352,0.766v0.239h-3.51
		c-0.379-1.279-1.573-2.224-2.959-2.224h-5.362c-1.385,0-2.58,0.944-2.959,2.224h-0.458v-2.365c0-0.441-0.358-0.8-0.8-0.8
		s-0.8,0.358-0.8,0.8v2.365h-9.964v-2.365c0-0.441-0.358-0.8-0.8-0.8s-0.8,0.358-0.8,0.8v2.365H17.22
		c-0.379-1.279-1.573-2.224-2.958-2.224H8.898c-1.385,0-2.579,0.944-2.958,2.224H3.289v-7.877c0.209-1.519,0.481-3.014,0.782-4.38
		c0.072,0.021,0.143,0.045,0.222,0.045h36.442c0.1,0,0.193-0.023,0.281-0.057c0.644,1.246,1.442,2.78,2.624,4.749
		c0.085,0.142,0.212,0.254,0.363,0.321c0.968,0.426,2.751,1.82,2.857,2.306v1.171c0,0.359,0.18,0.632,0.3,0.812
		c0.017,0.024,0.034,0.05,0.05,0.074V32.068z M39.505,33.872c0,0.986-0.803,1.789-1.79,1.789c-0.986,0-1.789-0.803-1.789-1.789
		c0-0.583,0.285-1.097,0.718-1.424h2.143C39.22,32.775,39.505,33.289,39.505,33.872z M13.38,33.872c0,0.986-0.803,1.789-1.789,1.789
		s-1.789-0.803-1.789-1.789c0-0.583,0.285-1.097,0.718-1.424h2.142C13.095,32.775,13.38,33.289,13.38,33.872z M29.044,14.839
		c0.268,0,0.921,0.66,1.272,1.014c0.702,0.709,1.366,1.378,2.2,1.378l5.242-0.001c0.054,0.002,1.185-0.032,1.905,1.104
		c0.177,0.279,0.355,0.589,0.539,0.927H4.441c0.639-2.486,1.342-4.265,1.845-4.422H29.044z"/>
	<path d="M21.409,17.764h5.612c0.441,0,0.8-0.358,0.8-0.8s-0.358-0.8-0.8-0.8h-5.612c-0.441,0-0.8,0.358-0.8,0.8
		S20.968,17.764,21.409,17.764z"/>
	<path d="M23.28,27.791h-0.91c-0.441,0-0.8,0.358-0.8,0.8s0.358,0.8,0.8,0.8h0.91c0.441,0,0.8-0.358,0.8-0.8
		S23.722,27.791,23.28,27.791z"/>
	<path d="M35.248,27.791h-0.911c-0.441,0-0.8,0.358-0.8,0.8s0.358,0.8,0.8,0.8h0.911c0.441,0,0.8-0.358,0.8-0.8
		S35.689,27.791,35.248,27.791z"/>
	<path d="M5.182,28.957c-0.531,0-0.963,0.432-0.963,0.963s0.432,0.964,0.963,0.964s0.964-0.433,0.964-0.964
		S5.713,28.957,5.182,28.957z"/>
	<path d="M44.547,27.843c-0.662,0-1.201,0.538-1.201,1.2s0.539,1.201,1.201,1.201s1.2-0.539,1.2-1.201S45.209,27.843,44.547,27.843z
		"/>
	<path d="M16.27,21.954H6.907c-0.85,0-1.54,0.691-1.54,1.54v1.832c0,0.85,0.69,1.541,1.54,1.541h9.362c0.85,0,1.54-0.691,1.54-1.541
		v-1.832C17.81,22.645,17.119,21.954,16.27,21.954z M6.967,25.326l-0.06-1.772l9.303-0.06v1.772L6.967,25.326z"/>
	<path d="M40.341,23.11c-0.018-0.038-0.037-0.074-0.061-0.108c-0.639-0.967-1.233-1.047-1.788-1.047h-4.874
		c-0.797,0-1.445,0.667-1.445,1.488v1.935c0,0.821,0.648,1.488,1.445,1.488h6.601c0.334,0,0.894,0,1.185-0.479
		c0.271-0.448,0.048-0.877-0.059-1.079L40.341,23.11z M33.772,23.554h4.72c0.061,0,0.153,0,0.176,0.007
		c0.001,0,0.084,0.041,0.245,0.274l0.654,1.431h-5.795V23.554z"/>
	<path d="M28.332,21.954h-6.681c-0.85,0-1.54,0.691-1.54,1.54v1.831c0,0.849,0.69,1.54,1.54,1.54h6.681c0.85,0,1.54-0.691,1.54-1.54
		v-1.831C29.872,22.645,29.182,21.954,28.332,21.954z M28.272,23.494v1.772l-6.562,0.059l-0.06-1.771L28.272,23.494z"/>
</g>
</svg>
