<svg id="Layer_1" data-name="Layer 1" xmlns="http://www.w3.org/2000/svg" viewBox="0 0 50.46 50.46"><defs><style>.cls-1{fill:#12b5e1;}</style></defs><title>casco</title><path class="cls-1" d="M42.08,35.07h0a.89.89,0,0,0-.89.9.91.91,0,0,0,.92.9.9.9,0,0,0,0-1.8Z"/><path class="cls-1" d="M41.62,37.82a.89.89,0,0,0-1.15.54,23.06,23.06,0,0,1-2.07,4.23c-8-6-23.75-10.09-30.86-11.72-1.22-4.28-1.83-11.58-1.95-13C9.1,11.18,15.06,7.15,22,6.77a18.28,18.28,0,0,1,16.57,8.72.9.9,0,1,0,1.53-.93A20,20,0,0,0,21.88,5c-7.65.42-14.21,4.89-18,12.28a.94.94,0,0,0-.09.47c0,.38.67,9.36,2.19,14.18a.9.9,0,0,0,.66.61C12,33.73,30.29,38.22,38.05,44.6a.91.91,0,0,0,.57.21h.12a.93.93,0,0,0,.62-.38l.33-.5A24.52,24.52,0,0,0,42.16,39,.9.9,0,0,0,41.62,37.82Z"/><path class="cls-1" d="M36.25,45.76c-8.06-5.13-21.52-9.49-28.12-11a.89.89,0,0,0-1.08.67.91.91,0,0,0,.67,1.08C14.2,38,27.41,42.27,35.28,47.28a1,1,0,0,0,.48.14.9.9,0,0,0,.49-1.66Z"/><path class="cls-1" d="M16.56,10.28a17.17,17.17,0,0,0-8.1,6.54.9.9,0,0,0,.25,1.25A.9.9,0,0,0,10,17.81,15.38,15.38,0,0,1,17.21,12a.9.9,0,0,0-.65-1.68Z"/><path class="cls-1" d="M42.37,17.85a.92.92,0,0,0-.77-.55L27.06,16.19a4.46,4.46,0,0,0-5.68,4.35A9.48,9.48,0,0,0,22,22.92a13.31,13.31,0,0,0,7.65,6.7l13.57,4.56a.93.93,0,0,0,.29,0A1,1,0,0,0,44,34.1a.89.89,0,0,0,.42-.61,28.17,28.17,0,0,0,.45-5A29.12,29.12,0,0,0,42.37,17.85Zm-16.48,0a2.72,2.72,0,1,1-2.71,2.72A2.72,2.72,0,0,1,25.89,17.82ZM42.78,32.14,30.21,27.91A11.53,11.53,0,0,1,25.67,25l.22,0a4.53,4.53,0,0,0,4.52-4.52,4.47,4.47,0,0,0-.67-2.34l11.17.86A27,27,0,0,1,43,28.46,28.2,28.2,0,0,1,42.78,32.14Z"/><path class="cls-1" d="M25.67,21.33a.81.81,0,1,0-.08-1.62.81.81,0,0,0,.08,1.62Z"/></svg>