<?xml version="1.0" encoding="utf-8"?>
<!-- Generator: Adobe Illustrator 16.0.0, SVG Export Plug-In . SVG Version: 6.00 Build 0)  -->
<!DOCTYPE svg PUBLIC "-//W3C//DTD SVG 1.1//EN" "http://www.w3.org/Graphics/SVG/1.1/DTD/svg11.dtd">
<svg version="1.1" id="Layer_1" xmlns="http://www.w3.org/2000/svg" xmlns:xlink="http://www.w3.org/1999/xlink" x="0px" y="0px"
	 width="1366px" height="557px" viewBox="0 0 1366 557" enable-background="new 0 0 1366 557" xml:space="preserve">
<g>
	<path d="M556.931,361.266c38.122,0,69.024,30.904,69.024,69.074c0,38.166-30.902,69.07-69.024,69.07
		c-38.214,0-69.12-30.904-69.12-69.07C487.811,392.17,518.717,361.266,556.931,361.266z"/>
	<path d="M1046.592,361.266c38.123,0,69.027,30.904,69.027,69.074c0,38.166-30.904,69.07-69.027,69.07
		c-38.215,0-69.121-30.904-69.121-69.07C977.471,392.17,1008.377,361.266,1046.592,361.266z"/>
	<path d="M391.487,361.266c38.123,0,69.028,30.904,69.028,69.074c0,38.166-30.905,69.07-69.028,69.07
		c-38.214,0-69.12-30.904-69.12-69.07C322.367,392.17,353.273,361.266,391.487,361.266z"/>
	<path d="M1084.252,265.685l62.643,5.412c6.66,5.272,10.826,53.344,16.101,68.332c3.979,1.617,17.854,6.388,17.854,12.032v70.919
		c-0.273,2.131-0.923,4.213-1.663,6.154H1133.2c-0.929-47.048-39.325-84.896-86.608-84.896c-47.374,0-85.771,37.85-86.699,84.896
		c-146.656,0-170.063-0.742-314.689-0.742c-6.754-46.354-32.569-84.154-88.734-84.154c-38.77,0-71.522,25.399-82.631,60.425
		c-11.103-35.024-43.947-60.425-82.626-60.425c-47.929,0-86.699,38.771-86.699,86.702c0,0.834,0,1.713,0,2.588
		c-46.914-3.743-61.716-22.206-61.905-29.327c-0.554-18.183-1.294-35.812-1.386-43.027c0-2.686,7.588-3.607,7.588-6.335
		l5.737-262.877c5.921-24.729,24.611-32.965,38.673-33.771c270.188,0.137,272.222,0.506,549.162,0.694v20.263l6.015,0.046
		c55.701,4.487,132.223,21.001,179.319,48.206l-4.533,11.498l-7.218,10.084L1084.252,265.685z"/>
	<path fill="#FFFFFF" d="M444.879,154.117h72.45c3.422,0,6.196,2.845,6.196,6.177v86.188c0,3.334-2.867,6.156-6.196,6.156h-72.45
		c-3.33,0-6.201-2.729-6.201-6.156v-86.188C438.678,156.896,441.453,154.117,444.879,154.117"/>
	<path fill="#FFFFFF" d="M544.532,154.117h72.45c3.424,0,6.198,2.845,6.198,6.177v86.188c0,3.334-2.866,6.156-6.198,6.156h-72.45
		c-3.334,0-6.108-2.729-6.108-6.156v-86.188C538.424,156.896,541.198,154.117,544.532,154.117z"/>
	<path fill="#FFFFFF" d="M722.186,154.117h72.45c3.332,0,6.106,2.82,6.106,6.177v86.188c0,3.378-2.774,6.156-6.106,6.156h-72.45
		c-3.422,0-6.199-2.729-6.199-6.156v-86.188C715.985,156.896,718.764,154.117,722.186,154.117z"/>
	<path fill="#FFFFFF" d="M873.008,154.557h21.191c3.33,0,6.104,2.824,6.104,6.2v86.146c0,3.376-2.774,6.2-6.104,6.2h-21.191
		c-3.422,0-6.201-2.778-6.201-6.2v-86.146C866.807,157.335,869.586,154.557,873.008,154.557z"/>
	<path fill="#FFFFFF" d="M1010.414,227.837h8.236c6.383,0,11.565,3.336,11.565,7.313v18.457l16.375-11.979l-0.091-9.624
		l-46.264-68.886c-1.021-0.79-2.223-1.621-3.334-2.223c-2.684-1.48-6.016-2.453-9.067-3.193l-58.479-1.872
		c-2.773-0.116-6.94,0.046-8.976,2.312c-1.388,1.55-1.479,3.885-1.203,5.829l3.793,72.894c1.39,5.41,3.52,11.658,8.146,15.219
		c2.312,1.85,5.182,2.82,8.141,3.33l71.156,6.986L1010.414,227.837L1010.414,227.837z"/>
	<path fill="#FFFFFF" d="M556.931,396.058c18.874,0,34.236,15.357,34.236,34.282c0,18.92-15.362,34.234-34.236,34.234
		c-18.971,0-34.235-15.314-34.235-34.234C522.695,411.415,537.96,396.058,556.931,396.058z"/>
	<path fill="#FFFFFF" d="M1046.592,396.058c18.876,0,34.145,15.357,34.145,34.282c0,18.92-15.269,34.234-34.145,34.234
		c-18.967,0-34.329-15.314-34.329-34.234C1012.263,411.415,1027.625,396.058,1046.592,396.058z"/>
	<path fill="#FFFFFF" d="M391.487,396.058c18.876,0,34.236,15.357,34.236,34.282c0,18.92-15.359,34.234-34.236,34.234
		c-18.876,0-34.236-15.314-34.236-34.234C357.251,411.415,372.611,396.058,391.487,396.058z"/>
</g>
</svg>
