<?xml version="1.0" encoding="utf-8"?>
<!-- Generator: Adobe Illustrator 16.0.0, SVG Export Plug-In . SVG Version: 6.00 Build 0)  -->
<!DOCTYPE svg PUBLIC "-//W3C//DTD SVG 1.1//EN" "http://www.w3.org/Graphics/SVG/1.1/DTD/svg11.dtd">
<svg version="1.1" id="Layer_1" xmlns="http://www.w3.org/2000/svg" xmlns:xlink="http://www.w3.org/1999/xlink" x="0px" y="0px"
	 width="1366px" height="557px" viewBox="0 0 1366 557" enable-background="new 0 0 1366 557" xml:space="preserve">
<g>
	<path d="M590.241,374.951c36.364,0,65.878,29.468,65.878,65.881c0,36.363-29.514,65.877-65.878,65.877
		c-36.458,0-65.974-29.514-65.974-65.877C524.268,404.419,553.782,374.951,590.241,374.951z"/>
	<path d="M1140.229,374.951c36.454,0,65.883,29.468,65.883,65.881c0,36.363-29.429,65.877-65.883,65.877
		c-36.361,0-65.881-29.514-65.881-65.877C1074.349,404.419,1103.867,374.951,1140.229,374.951z"/>
	<path d="M432.386,374.951c36.364,0,65.882,29.468,65.882,65.881c0,36.363-29.518,65.877-65.882,65.877
		c-36.458,0-65.88-29.514-65.88-65.877C366.506,404.419,395.928,374.951,432.386,374.951z"/>
	<path d="M1183.439,283.717l36.271,6.983l3.056,14.528l8.512,6.432l3.796,42.423c3.789,1.528,17.113,6.062,17.113,11.474V433.2
		c-0.37,2.08-0.922,4.022-1.666,5.873h-27.571c-0.929-44.873-37.566-80.961-82.722-80.961c-45.154,0-81.793,36.088-82.628,80.961
		H943.977l-3.237,21.604c-54.038-0.555-92.065-1.014-148.972-1.34v-20.91H674.441c-6.478-44.227-31.089-80.313-84.664-80.313
		c-36.918,0-68.191,24.192-78.835,57.646c-10.641-33.453-41.917-57.646-78.835-57.646c-45.707,0-82.718,37.01-82.718,82.721
		c0,0.785,0,1.619,0,2.449c-44.786-3.562-154.432-21.144-154.615-27.99c-0.465-17.35-1.204-34.098-1.296-41.033
		c0-2.547,7.217-3.427,7.217-6.063l0.554-29.608c-1.942,1.804-4.625,2.915-7.494,2.915h-12.491c-6.201,0-11.292-5.092-11.292-11.288
		V228.292c0-6.199,5.091-11.288,11.292-11.288h12.491c4.256,0,8.052,2.407,9.897,5.921c0.836-39.325,1.669-78.648,2.5-118.112
		c5.273-22.072,21.283-33.522,34.328-35.536c0-0.367,178.117-0.205,193.013-0.205V50.29h101.599v18.806h96.878V50.29h101.505v18.806
		h324.221l36.361,35.092v35.093H937.407v230.854h13.786V152.491h161.185l3.703,5.386l1.941,15.177l-6.94,9.623L1183.439,283.717z"/>
	<path fill="#FFFFFF" d="M390.006,177.309h69.12c3.24,0,5.922,2.682,5.922,5.899v82.235c0,3.194-2.682,5.876-5.922,5.876h-69.12
		c-3.146,0-5.827-2.64-5.827-5.876v-82.235C384.179,179.948,386.769,177.309,390.006,177.309"/>
	<path fill="#FFFFFF" d="M483.276,177.309h69.12c3.237,0,5.919,2.682,5.919,5.899v82.235c0,3.194-2.683,5.876-5.919,5.876h-69.12
		c-3.147,0-5.83-2.64-5.83-5.876v-82.235C477.446,179.948,480.036,177.309,483.276,177.309z"/>
	<path fill="#FFFFFF" d="M264.446,177.309h20.267c3.237,0,5.829,2.682,5.829,5.899v82.235c0,3.194-2.684,5.876-5.829,5.876h-20.267
		c-3.147,0-5.829-2.64-5.829-5.876v-82.235C258.617,179.948,261.206,177.309,264.446,177.309z"/>
	<path fill="#FFFFFF" d="M578.396,177.309h69.119c3.238,0,5.922,2.682,5.922,5.899v82.235c0,3.194-2.684,5.876-5.922,5.876h-69.119
		c-3.24,0-5.923-2.64-5.923-5.876v-82.235C572.474,179.948,575.156,177.309,578.396,177.309z"/>
	<path fill="#FFFFFF" d="M830.813,177.309h69.12c3.239,0,5.829,2.682,5.829,5.899v82.235c0,3.194-2.59,5.876-5.829,5.876h-69.12
		c-3.236,0-5.922-2.64-5.922-5.876v-82.235C824.893,179.948,827.576,177.309,830.813,177.309z"/>
	<path fill="#FFFFFF" d="M974.694,188.552h20.176c3.237,0,5.92,2.682,5.92,5.922v82.211c0,3.193-2.683,5.875-5.92,5.875h-20.176
		c-3.237,0-5.923-2.637-5.923-5.875v-82.211C968.771,191.188,971.457,188.552,974.694,188.552z"/>
	<path fill="#FFFFFF" d="M1105.717,242.218h7.957c6.014,0,11.012,3.144,11.012,6.987v33.818l15.637-11.427l-0.092-9.159
		l-44.137-65.698c-1.019-0.786-2.126-1.571-3.146-2.126c-2.683-1.434-5.829-2.361-8.693-3.055l-55.799-1.802
		c-2.592-0.096-6.661,0.046-8.513,2.219c-1.388,1.48-1.479,3.703-1.204,5.555l3.609,69.533c1.297,5.181,3.424,11.103,7.773,14.53
		c2.314,1.755,4.997,2.683,7.773,3.191l67.821,6.614L1105.717,242.218L1105.717,242.218z"/>
	<path fill="#FFFFFF" d="M590.241,408.122c18.04,0,32.569,14.618,32.569,32.71c0,17.996-14.529,32.66-32.569,32.66
		c-18.044,0-32.756-14.664-32.756-32.66C557.485,422.74,572.197,408.122,590.241,408.122z"/>
	<path fill="#FFFFFF" d="M1140.229,408.122c18.045,0,32.666,14.618,32.666,32.71c0,17.996-14.621,32.66-32.666,32.66
		c-18.044,0-32.66-14.664-32.66-32.66C1107.568,422.74,1122.186,408.122,1140.229,408.122z"/>
	<path fill="#FFFFFF" d="M432.386,408.122c18.044,0,32.662,14.618,32.662,32.71c0,17.996-14.618,32.66-32.662,32.66
		c-18.043,0-32.664-14.664-32.664-32.66C399.723,422.74,414.343,408.122,432.386,408.122z"/>
</g>
</svg>
