<?xml version="1.0" encoding="utf-8"?>
<!-- Generator: Adobe Illustrator 24.2.1, SVG Export Plug-In . SVG Version: 6.00 Build 0)  -->
<svg version="1.1" id="Layer_1" xmlns="http://www.w3.org/2000/svg" xmlns:xlink="http://www.w3.org/1999/xlink" x="0px" y="0px"
	 viewBox="0 0 50.5 50.5" style="enable-background:new 0 0 50.5 50.5;" xml:space="preserve">
<path d="M36.6,31.9h-3.2c-0.4,0-0.8,0.4-0.8,0.8v3.7c0,0.04,0,0.09,0.01,0.13c0.05,0.28,0.23,0.53,0.51,0.61
	c0.04,0.02,0.09,0.03,0.13,0.04c0.05,0.02,0.1,0.02,0.15,0.02h3.2c0.4,0,0.8-0.4,0.8-0.8v-3.7C37.4,32.3,37,31.9,36.6,31.9z
	 M35.8,35.6h-1.6v-2.1h1.6V35.6z M18.68,32.55c-0.01-0.04-0.02-0.09-0.04-0.13c-0.08-0.28-0.33-0.46-0.61-0.51
	c-0.04-0.01-0.09-0.01-0.13-0.01h-3.2c-0.4,0-0.8,0.4-0.8,0.8v3.7c0,0.4,0.4,0.8,0.8,0.8h3.2c0.4,0,0.8-0.4,0.8-0.8v-3.7
	C18.7,32.65,18.7,32.6,18.68,32.55z M17.1,35.6h-1.6v-2.1h1.6V35.6z M26.9,21.6h-0.5v-0.4c0-0.4-0.4-0.8-0.8-0.8
	c-0.4,0-0.8,0.4-0.8,0.8v1.2c0,0.05,0,0.1,0.02,0.15c0.01,0.04,0.02,0.08,0.04,0.13c0.08,0.28,0.33,0.46,0.61,0.51
	c0.04,0.01,0.09,0.01,0.13,0.01h1.3c0.4,0,0.8-0.4,0.8-0.8C27.7,22,27.3,21.6,26.9,21.6z M26.9,21.6h-0.5v-0.4
	c0-0.4-0.4-0.8-0.8-0.8c-0.4,0-0.8,0.4-0.8,0.8v1.2c0,0.05,0,0.1,0.02,0.15c0.01,0.04,0.02,0.08,0.04,0.13
	c0.08,0.28,0.33,0.46,0.61,0.51c0.04,0.01,0.09,0.01,0.13,0.01h1.3c0.4,0,0.8-0.4,0.8-0.8C27.7,22,27.3,21.6,26.9,21.6z M26.9,21.6
	h-0.5v-0.4c0-0.4-0.4-0.8-0.8-0.8c-0.4,0-0.8,0.4-0.8,0.8v1.2c0,0.05,0,0.1,0.02,0.15c0.01,0.04,0.02,0.08,0.04,0.13
	c0.08,0.28,0.33,0.46,0.61,0.51c0.04,0.01,0.09,0.01,0.13,0.01h1.3c0.4,0,0.8-0.4,0.8-0.8C27.7,22,27.3,21.6,26.9,21.6z M26.9,21.6
	h-0.5v-0.4c0-0.4-0.4-0.8-0.8-0.8c-0.4,0-0.8,0.4-0.8,0.8v1.2c0,0.05,0,0.1,0.02,0.15c0.01,0.04,0.02,0.08,0.04,0.13
	c0.08,0.28,0.33,0.46,0.61,0.51c0.04,0.01,0.09,0.01,0.13,0.01h1.3c0.4,0,0.8-0.4,0.8-0.8C27.7,22,27.3,21.6,26.9,21.6z
	 M30.08,21.96c-0.17-2.25-2.1-4.06-4.38-4.06c-2.4,0-4.4,2-4.4,4.4v0.05c0.13,2.48,2.02,4.35,4.4,4.35c2.25,0,4.15-1.76,4.38-3.96
	c0.01-0.14,0.02-0.29,0.02-0.44C30.1,22.18,30.1,22.07,30.08,21.96z M28.49,22.6c-0.1,1.41-1.26,2.6-2.79,2.6
	c-1.4,0-2.42-1-2.65-2.25C23.02,22.77,23,22.59,23,22.4s0.02-0.38,0.05-0.56c0.26-1.25,1.34-2.24,2.65-2.24
	c1.41,0,2.64,1.05,2.79,2.5c0,0.1,0.01,0.2,0.01,0.3C28.5,22.47,28.5,22.53,28.49,22.6z M26.9,21.6h-0.5v-0.4c0-0.4-0.4-0.8-0.8-0.8
	c-0.4,0-0.8,0.4-0.8,0.8v1.2c0,0.05,0,0.1,0.02,0.15c0.01,0.04,0.02,0.08,0.04,0.13c0.08,0.28,0.33,0.46,0.61,0.51
	c0.04,0.01,0.09,0.01,0.13,0.01h1.3c0.4,0,0.8-0.4,0.8-0.8C27.7,22,27.3,21.6,26.9,21.6z M36.6,31.9h-3.2c-0.4,0-0.8,0.4-0.8,0.8
	v3.7c0,0.04,0,0.09,0.01,0.13c0.05,0.28,0.23,0.53,0.51,0.61c0.04,0.02,0.09,0.03,0.13,0.04c0.05,0.02,0.1,0.02,0.15,0.02h3.2
	c0.4,0,0.8-0.4,0.8-0.8v-3.7C37.4,32.3,37,31.9,36.6,31.9z M35.8,35.6h-1.6v-2.1h1.6V35.6z M26.9,21.6h-0.5v-0.4
	c0-0.4-0.4-0.8-0.8-0.8c-0.4,0-0.8,0.4-0.8,0.8v1.2c0,0.05,0,0.1,0.02,0.15c0.01,0.04,0.02,0.08,0.04,0.13
	c0.08,0.28,0.33,0.46,0.61,0.51c0.04,0.01,0.09,0.01,0.13,0.01h1.3c0.4,0,0.8-0.4,0.8-0.8C27.7,22,27.3,21.6,26.9,21.6z M26.9,21.6
	h-0.5v-0.4c0-0.4-0.4-0.8-0.8-0.8c-0.4,0-0.8,0.4-0.8,0.8v1.2c0,0.05,0,0.1,0.02,0.15c0.01,0.04,0.02,0.08,0.04,0.13
	c0.08,0.28,0.33,0.46,0.61,0.51c0.04,0.01,0.09,0.01,0.13,0.01h1.3c0.4,0,0.8-0.4,0.8-0.8C27.7,22,27.3,21.6,26.9,21.6z
	 M30.08,21.96c-0.17-2.25-2.1-4.06-4.38-4.06c-2.4,0-4.4,2-4.4,4.4v0.05c0.13,2.48,2.02,4.35,4.4,4.35c2.25,0,4.15-1.76,4.38-3.96
	c0.01-0.14,0.02-0.29,0.02-0.44C30.1,22.18,30.1,22.07,30.08,21.96z M28.49,22.6c-0.1,1.41-1.26,2.6-2.79,2.6
	c-1.4,0-2.42-1-2.65-2.25C23.02,22.77,23,22.59,23,22.4s0.02-0.38,0.05-0.56c0.26-1.25,1.34-2.24,2.65-2.24
	c1.41,0,2.64,1.05,2.79,2.5c0,0.1,0.01,0.2,0.01,0.3C28.5,22.47,28.5,22.53,28.49,22.6z M26.9,21.6h-0.5v-0.4c0-0.4-0.4-0.8-0.8-0.8
	c-0.4,0-0.8,0.4-0.8,0.8v1.2c0,0.05,0,0.1,0.02,0.15c0.01,0.04,0.02,0.08,0.04,0.13c0.08,0.28,0.33,0.46,0.61,0.51
	c0.04,0.01,0.09,0.01,0.13,0.01h1.3c0.4,0,0.8-0.4,0.8-0.8C27.7,22,27.3,21.6,26.9,21.6z M18.68,32.55
	c-0.01-0.04-0.02-0.09-0.04-0.13c-0.08-0.28-0.33-0.46-0.61-0.51c-0.04-0.01-0.09-0.01-0.13-0.01h-3.2c-0.4,0-0.8,0.4-0.8,0.8v3.7
	c0,0.4,0.4,0.8,0.8,0.8h3.2c0.4,0,0.8-0.4,0.8-0.8v-3.7C18.7,32.65,18.7,32.6,18.68,32.55z M17.1,35.6h-1.6v-2.1h1.6V35.6z
	 M18.68,32.55c-0.01-0.04-0.02-0.09-0.04-0.13c-0.08-0.28-0.33-0.46-0.61-0.51c-0.04-0.01-0.09-0.01-0.13-0.01h-3.2
	c-0.4,0-0.8,0.4-0.8,0.8v3.7c0,0.4,0.4,0.8,0.8,0.8h3.2c0.4,0,0.8-0.4,0.8-0.8v-3.7C18.7,32.65,18.7,32.6,18.68,32.55z M17.1,35.6
	h-1.6v-2.1h1.6V35.6z M26.9,21.6h-0.5v-0.4c0-0.4-0.4-0.8-0.8-0.8c-0.4,0-0.8,0.4-0.8,0.8v1.2c0,0.05,0,0.1,0.02,0.15
	c0.01,0.04,0.02,0.08,0.04,0.13c0.08,0.28,0.33,0.46,0.61,0.51c0.04,0.01,0.09,0.01,0.13,0.01h1.3c0.4,0,0.8-0.4,0.8-0.8
	C27.7,22,27.3,21.6,26.9,21.6z M26.9,21.6h-0.5v-0.4c0-0.4-0.4-0.8-0.8-0.8c-0.4,0-0.8,0.4-0.8,0.8v1.2c0,0.05,0,0.1,0.02,0.15
	c0.01,0.04,0.02,0.08,0.04,0.13c0.08,0.28,0.33,0.46,0.61,0.51c0.04,0.01,0.09,0.01,0.13,0.01h1.3c0.4,0,0.8-0.4,0.8-0.8
	C27.7,22,27.3,21.6,26.9,21.6z M30.08,21.96c-0.17-2.25-2.1-4.06-4.38-4.06c-2.4,0-4.4,2-4.4,4.4v0.05c0.13,2.48,2.02,4.35,4.4,4.35
	c2.25,0,4.15-1.76,4.38-3.96c0.01-0.14,0.02-0.29,0.02-0.44C30.1,22.18,30.1,22.07,30.08,21.96z M28.49,22.6
	c-0.1,1.41-1.26,2.6-2.79,2.6c-1.4,0-2.42-1-2.65-2.25C23.02,22.77,23,22.59,23,22.4s0.02-0.38,0.05-0.56
	c0.26-1.25,1.34-2.24,2.65-2.24c1.41,0,2.64,1.05,2.79,2.5c0,0.1,0.01,0.2,0.01,0.3C28.5,22.47,28.5,22.53,28.49,22.6z M26.9,21.6
	h-0.5v-0.4c0-0.4-0.4-0.8-0.8-0.8c-0.4,0-0.8,0.4-0.8,0.8v1.2c0,0.05,0,0.1,0.02,0.15c0.01,0.04,0.02,0.08,0.04,0.13
	c0.08,0.28,0.33,0.46,0.61,0.51c0.04,0.01,0.09,0.01,0.13,0.01h1.3c0.4,0,0.8-0.4,0.8-0.8C27.7,22,27.3,21.6,26.9,21.6z M36.6,31.9
	h-3.2c-0.4,0-0.8,0.4-0.8,0.8v3.7c0,0.04,0,0.09,0.01,0.13c0.05,0.28,0.23,0.53,0.51,0.61c0.04,0.02,0.09,0.03,0.13,0.04
	c0.05,0.02,0.1,0.02,0.15,0.02h3.2c0.4,0,0.8-0.4,0.8-0.8v-3.7C37.4,32.3,37,31.9,36.6,31.9z M35.8,35.6h-1.6v-2.1h1.6V35.6z
	 M36.6,31.9h-3.2c-0.4,0-0.8,0.4-0.8,0.8v3.7c0,0.04,0,0.09,0.01,0.13c0.05,0.28,0.23,0.53,0.51,0.61c0.04,0.02,0.09,0.03,0.13,0.04
	c0.05,0.02,0.1,0.02,0.15,0.02h3.2c0.4,0,0.8-0.4,0.8-0.8v-3.7C37.4,32.3,37,31.9,36.6,31.9z M35.8,35.6h-1.6v-2.1h1.6V35.6z
	 M26.9,21.6h-0.5v-0.4c0-0.4-0.4-0.8-0.8-0.8c-0.4,0-0.8,0.4-0.8,0.8v1.2c0,0.05,0,0.1,0.02,0.15c0.01,0.04,0.02,0.08,0.04,0.13
	c0.08,0.28,0.33,0.46,0.61,0.51c0.04,0.01,0.09,0.01,0.13,0.01h1.3c0.4,0,0.8-0.4,0.8-0.8C27.7,22,27.3,21.6,26.9,21.6z M26.9,21.6
	h-0.5v-0.4c0-0.4-0.4-0.8-0.8-0.8c-0.4,0-0.8,0.4-0.8,0.8v1.2c0,0.05,0,0.1,0.02,0.15c0.01,0.04,0.02,0.08,0.04,0.13
	c0.08,0.28,0.33,0.46,0.61,0.51c0.04,0.01,0.09,0.01,0.13,0.01h1.3c0.4,0,0.8-0.4,0.8-0.8C27.7,22,27.3,21.6,26.9,21.6z
	 M30.08,21.96c-0.17-2.25-2.1-4.06-4.38-4.06c-2.4,0-4.4,2-4.4,4.4v0.05c0.13,2.48,2.02,4.35,4.4,4.35c2.25,0,4.15-1.76,4.38-3.96
	c0.01-0.14,0.02-0.29,0.02-0.44C30.1,22.18,30.1,22.07,30.08,21.96z M28.49,22.6c-0.1,1.41-1.26,2.6-2.79,2.6
	c-1.4,0-2.42-1-2.65-2.25C23.02,22.77,23,22.59,23,22.4s0.02-0.38,0.05-0.56c0.26-1.25,1.34-2.24,2.65-2.24
	c1.41,0,2.64,1.05,2.79,2.5c0,0.1,0.01,0.2,0.01,0.3C28.5,22.47,28.5,22.53,28.49,22.6z M26.9,21.6h-0.5v-0.4c0-0.4-0.4-0.8-0.8-0.8
	c-0.4,0-0.8,0.4-0.8,0.8v1.2c0,0.05,0,0.1,0.02,0.15c0.01,0.04,0.02,0.08,0.04,0.13c0.08,0.28,0.33,0.46,0.61,0.51
	c0.04,0.01,0.09,0.01,0.13,0.01h1.3c0.4,0,0.8-0.4,0.8-0.8C27.7,22,27.3,21.6,26.9,21.6z M18.68,32.55
	c-0.01-0.04-0.02-0.09-0.04-0.13c-0.08-0.28-0.33-0.46-0.61-0.51c-0.04-0.01-0.09-0.01-0.13-0.01h-3.2c-0.4,0-0.8,0.4-0.8,0.8v3.7
	c0,0.4,0.4,0.8,0.8,0.8h3.2c0.4,0,0.8-0.4,0.8-0.8v-3.7C18.7,32.65,18.7,32.6,18.68,32.55z M17.1,35.6h-1.6v-2.1h1.6V35.6z
	 M18.68,32.55c-0.01-0.04-0.02-0.09-0.04-0.13c-0.08-0.28-0.33-0.46-0.61-0.51c-0.04-0.01-0.09-0.01-0.13-0.01h-3.2
	c-0.4,0-0.8,0.4-0.8,0.8v3.7c0,0.4,0.4,0.8,0.8,0.8h3.2c0.4,0,0.8-0.4,0.8-0.8v-3.7C18.7,32.65,18.7,32.6,18.68,32.55z M17.1,35.6
	h-1.6v-2.1h1.6V35.6z M26.9,21.6h-0.5v-0.4c0-0.4-0.4-0.8-0.8-0.8c-0.4,0-0.8,0.4-0.8,0.8v1.2c0,0.05,0,0.1,0.02,0.15
	c0.01,0.04,0.02,0.08,0.04,0.13c0.08,0.28,0.33,0.46,0.61,0.51c0.04,0.01,0.09,0.01,0.13,0.01h1.3c0.4,0,0.8-0.4,0.8-0.8
	C27.7,22,27.3,21.6,26.9,21.6z M26.9,21.6h-0.5v-0.4c0-0.4-0.4-0.8-0.8-0.8c-0.4,0-0.8,0.4-0.8,0.8v1.2c0,0.05,0,0.1,0.02,0.15
	c0.01,0.04,0.02,0.08,0.04,0.13c0.08,0.28,0.33,0.46,0.61,0.51c0.04,0.01,0.09,0.01,0.13,0.01h1.3c0.4,0,0.8-0.4,0.8-0.8
	C27.7,22,27.3,21.6,26.9,21.6z M30.08,21.96c-0.17-2.25-2.1-4.06-4.38-4.06c-2.4,0-4.4,2-4.4,4.4v0.05c0.13,2.48,2.02,4.35,4.4,4.35
	c2.25,0,4.15-1.76,4.38-3.96c0.01-0.14,0.02-0.29,0.02-0.44C30.1,22.18,30.1,22.07,30.08,21.96z M28.49,22.6
	c-0.1,1.41-1.26,2.6-2.79,2.6c-1.4,0-2.42-1-2.65-2.25C23.02,22.77,23,22.59,23,22.4s0.02-0.38,0.05-0.56
	c0.26-1.25,1.34-2.24,2.65-2.24c1.41,0,2.64,1.05,2.79,2.5c0,0.1,0.01,0.2,0.01,0.3C28.5,22.47,28.5,22.53,28.49,22.6z M26.9,21.6
	h-0.5v-0.4c0-0.4-0.4-0.8-0.8-0.8c-0.4,0-0.8,0.4-0.8,0.8v1.2c0,0.05,0,0.1,0.02,0.15c0.01,0.04,0.02,0.08,0.04,0.13
	c0.08,0.28,0.33,0.46,0.61,0.51c0.04,0.01,0.09,0.01,0.13,0.01h1.3c0.4,0,0.8-0.4,0.8-0.8C27.7,22,27.3,21.6,26.9,21.6z M36.6,31.9
	h-3.2c-0.4,0-0.8,0.4-0.8,0.8v3.7c0,0.04,0,0.09,0.01,0.13c0.05,0.28,0.23,0.53,0.51,0.61c0.04,0.02,0.09,0.03,0.13,0.04
	c0.05,0.02,0.1,0.02,0.15,0.02h3.2c0.4,0,0.8-0.4,0.8-0.8v-3.7C37.4,32.3,37,31.9,36.6,31.9z M35.8,35.6h-1.6v-2.1h1.6V35.6z
	 M36.6,31.9h-3.2c-0.4,0-0.8,0.4-0.8,0.8v3.7c0,0.04,0,0.09,0.01,0.13c0.05,0.28,0.23,0.53,0.51,0.61c0.04,0.02,0.09,0.03,0.13,0.04
	c0.05,0.02,0.1,0.02,0.15,0.02h3.2c0.4,0,0.8-0.4,0.8-0.8v-3.7C37.4,32.3,37,31.9,36.6,31.9z M35.8,35.6h-1.6v-2.1h1.6V35.6z
	 M26.9,21.6h-0.5v-0.4c0-0.4-0.4-0.8-0.8-0.8c-0.4,0-0.8,0.4-0.8,0.8v1.2c0,0.05,0,0.1,0.02,0.15c0.01,0.04,0.02,0.08,0.04,0.13
	c0.08,0.28,0.33,0.46,0.61,0.51c0.04,0.01,0.09,0.01,0.13,0.01h1.3c0.4,0,0.8-0.4,0.8-0.8C27.7,22,27.3,21.6,26.9,21.6z M26.9,21.6
	h-0.5v-0.4c0-0.4-0.4-0.8-0.8-0.8c-0.4,0-0.8,0.4-0.8,0.8v1.2c0,0.05,0,0.1,0.02,0.15c0.01,0.04,0.02,0.08,0.04,0.13
	c0.08,0.28,0.33,0.46,0.61,0.51c0.04,0.01,0.09,0.01,0.13,0.01h1.3c0.4,0,0.8-0.4,0.8-0.8C27.7,22,27.3,21.6,26.9,21.6z
	 M30.08,21.96c-0.17-2.25-2.1-4.06-4.38-4.06c-2.4,0-4.4,2-4.4,4.4v0.05c0.13,2.48,2.02,4.35,4.4,4.35c2.25,0,4.15-1.76,4.38-3.96
	c0.01-0.14,0.02-0.29,0.02-0.44C30.1,22.18,30.1,22.07,30.08,21.96z M28.49,22.6c-0.1,1.41-1.26,2.6-2.79,2.6
	c-1.4,0-2.42-1-2.65-2.25C23.02,22.77,23,22.59,23,22.4s0.02-0.38,0.05-0.56c0.26-1.25,1.34-2.24,2.65-2.24
	c1.41,0,2.64,1.05,2.79,2.5c0,0.1,0.01,0.2,0.01,0.3C28.5,22.47,28.5,22.53,28.49,22.6z M26.9,21.6h-0.5v-0.4c0-0.4-0.4-0.8-0.8-0.8
	c-0.4,0-0.8,0.4-0.8,0.8v1.2c0,0.05,0,0.1,0.02,0.15c0.01,0.04,0.02,0.08,0.04,0.13c0.08,0.28,0.33,0.46,0.61,0.51
	c0.04,0.01,0.09,0.01,0.13,0.01h1.3c0.4,0,0.8-0.4,0.8-0.8C27.7,22,27.3,21.6,26.9,21.6z M18.68,32.55
	c-0.01-0.04-0.02-0.09-0.04-0.13c-0.08-0.28-0.33-0.46-0.61-0.51c-0.04-0.01-0.09-0.01-0.13-0.01h-3.2c-0.4,0-0.8,0.4-0.8,0.8v3.7
	c0,0.4,0.4,0.8,0.8,0.8h3.2c0.4,0,0.8-0.4,0.8-0.8v-3.7C18.7,32.65,18.7,32.6,18.68,32.55z M17.1,35.6h-1.6v-2.1h1.6V35.6z
	 M18.68,32.55c-0.01-0.04-0.02-0.09-0.04-0.13c-0.08-0.28-0.33-0.46-0.61-0.51c-0.04-0.01-0.09-0.01-0.13-0.01h-3.2
	c-0.4,0-0.8,0.4-0.8,0.8v3.7c0,0.4,0.4,0.8,0.8,0.8h3.2c0.4,0,0.8-0.4,0.8-0.8v-3.7C18.7,32.65,18.7,32.6,18.68,32.55z M17.1,35.6
	h-1.6v-2.1h1.6V35.6z M26.9,21.6h-0.5v-0.4c0-0.4-0.4-0.8-0.8-0.8c-0.4,0-0.8,0.4-0.8,0.8v1.2c0,0.05,0,0.1,0.02,0.15
	c0.01,0.04,0.02,0.08,0.04,0.13c0.08,0.28,0.33,0.46,0.61,0.51c0.04,0.01,0.09,0.01,0.13,0.01h1.3c0.4,0,0.8-0.4,0.8-0.8
	C27.7,22,27.3,21.6,26.9,21.6z M26.9,21.6h-0.5v-0.4c0-0.4-0.4-0.8-0.8-0.8c-0.4,0-0.8,0.4-0.8,0.8v1.2c0,0.05,0,0.1,0.02,0.15
	c0.01,0.04,0.02,0.08,0.04,0.13c0.08,0.28,0.33,0.46,0.61,0.51c0.04,0.01,0.09,0.01,0.13,0.01h1.3c0.4,0,0.8-0.4,0.8-0.8
	C27.7,22,27.3,21.6,26.9,21.6z M30.08,21.96c-0.17-2.25-2.1-4.06-4.38-4.06c-2.4,0-4.4,2-4.4,4.4v0.05c0.13,2.48,2.02,4.35,4.4,4.35
	c2.25,0,4.15-1.76,4.38-3.96c0.01-0.14,0.02-0.29,0.02-0.44C30.1,22.18,30.1,22.07,30.08,21.96z M28.49,22.6
	c-0.1,1.41-1.26,2.6-2.79,2.6c-1.4,0-2.42-1-2.65-2.25C23.02,22.77,23,22.59,23,22.4s0.02-0.38,0.05-0.56
	c0.26-1.25,1.34-2.24,2.65-2.24c1.41,0,2.64,1.05,2.79,2.5c0,0.1,0.01,0.2,0.01,0.3C28.5,22.47,28.5,22.53,28.49,22.6z M26.9,21.6
	h-0.5v-0.4c0-0.4-0.4-0.8-0.8-0.8c-0.4,0-0.8,0.4-0.8,0.8v1.2c0,0.05,0,0.1,0.02,0.15c0.01,0.04,0.02,0.08,0.04,0.13
	c0.08,0.28,0.33,0.46,0.61,0.51c0.04,0.01,0.09,0.01,0.13,0.01h1.3c0.4,0,0.8-0.4,0.8-0.8C27.7,22,27.3,21.6,26.9,21.6z M36.6,31.9
	h-3.2c-0.4,0-0.8,0.4-0.8,0.8v3.7c0,0.04,0,0.09,0.01,0.13c0.05,0.28,0.23,0.53,0.51,0.61c0.04,0.02,0.09,0.03,0.13,0.04
	c0.05,0.02,0.1,0.02,0.15,0.02h3.2c0.4,0,0.8-0.4,0.8-0.8v-3.7C37.4,32.3,37,31.9,36.6,31.9z M35.8,35.6h-1.6v-2.1h1.6V35.6z
	 M36.6,31.9h-3.2c-0.4,0-0.8,0.4-0.8,0.8v3.7c0,0.04,0,0.09,0.01,0.13c0.05,0.28,0.23,0.53,0.51,0.61c0.04,0.02,0.09,0.03,0.13,0.04
	c0.05,0.02,0.1,0.02,0.15,0.02h3.2c0.4,0,0.8-0.4,0.8-0.8v-3.7C37.4,32.3,37,31.9,36.6,31.9z M35.8,35.6h-1.6v-2.1h1.6V35.6z
	 M25.7,17.9c-2.4,0-4.4,2-4.4,4.4v0.05c0.13,2.48,2.02,4.35,4.4,4.35c2.25,0,4.15-1.76,4.38-3.96c0.01-0.14,0.02-0.29,0.02-0.44
	c0-0.12,0-0.23-0.02-0.34C29.91,19.71,27.98,17.9,25.7,17.9z M28.49,22.6c-0.1,1.41-1.26,2.6-2.79,2.6c-1.4,0-2.42-1-2.65-2.25
	C23.02,22.77,23,22.59,23,22.4s0.02-0.38,0.05-0.56c0.26-1.25,1.34-2.24,2.65-2.24c1.41,0,2.64,1.05,2.79,2.5
	c0,0.1,0.01,0.2,0.01,0.3C28.5,22.47,28.5,22.53,28.49,22.6z M26.9,21.6h-0.5v-0.4c0-0.4-0.4-0.8-0.8-0.8c-0.4,0-0.8,0.4-0.8,0.8
	v1.2c0,0.05,0,0.1,0.02,0.15c0.01,0.04,0.02,0.08,0.04,0.13c0.08,0.28,0.33,0.46,0.61,0.51c0.04,0.01,0.09,0.01,0.13,0.01h1.3
	c0.4,0,0.8-0.4,0.8-0.8C27.7,22,27.3,21.6,26.9,21.6z M18.64,32.42c-0.08-0.28-0.33-0.46-0.61-0.51c-0.04-0.01-0.09-0.01-0.13-0.01
	h-3.2c-0.4,0-0.8,0.4-0.8,0.8v3.7c0,0.4,0.4,0.8,0.8,0.8h3.2c0.4,0,0.8-0.4,0.8-0.8v-3.7c0-0.05,0-0.1-0.02-0.15
	C18.67,32.51,18.66,32.46,18.64,32.42z M17.1,35.6h-1.6v-2.1h1.6V35.6z M43.9,42h-2.6V24.4c0-0.4-0.4-0.8-0.8-0.8h-6v-5.8
	c0-0.3-0.1-0.5-0.3-0.7l-7.6-5.3v-1.5H31c0.4,0,0.8-0.4,0.8-0.8V6.2c0-0.4-0.4-0.8-0.8-0.8h-5.2c-0.4,0-0.8,0.4-0.8,0.8v5.2L17,17
	c-0.2,0.1-0.3,0.4-0.3,0.7v5.8h-6c-0.4,0-0.8,0.4-0.8,0.8V42h-3C6.4,42,6,42.4,6,42.8c0,0.4,0.4,0.8,0.8,0.8h37.1
	c0.4,0,0.8-0.4,0.8-0.8C44.7,42.4,44.4,42,43.9,42z M26.6,7h3.6v1.6h-3.6V7z M24.8,42h-3V31.7h3V42z M29.5,42h-3.1V31.7h3.1V42z
	 M39.8,42h-8.7V30.9c0-0.4-0.4-0.8-0.8-0.8H21c-0.4,0-0.8,0.4-0.8,0.8V42h-8.7V25.2h6c0.4,0,0.8-0.4,0.8-0.8v-6.2l7.3-5.1l7.4,5.1
	v6.2c0,0.4,0.4,0.8,0.8,0.8h6V42z M32.6,32.7v3.7c0,0.04,0,0.09,0.01,0.13c0.05,0.28,0.23,0.53,0.51,0.61
	c0.04,0.02,0.09,0.03,0.13,0.04c0.05,0.02,0.1,0.02,0.15,0.02h3.2c0.4,0,0.8-0.4,0.8-0.8v-3.7c0-0.4-0.4-0.8-0.8-0.8h-3.2
	C33,31.9,32.6,32.3,32.6,32.7z M34.2,33.5h1.6v2.1h-1.6V33.5z M25.7,17.9c-2.4,0-4.4,2-4.4,4.4v0.05c0.13,2.48,2.02,4.35,4.4,4.35
	c2.25,0,4.15-1.76,4.38-3.96c0.01-0.14,0.02-0.29,0.02-0.44c0-0.12,0-0.23-0.02-0.34C29.91,19.71,27.98,17.9,25.7,17.9z M28.49,22.6
	c-0.1,1.41-1.26,2.6-2.79,2.6c-1.4,0-2.42-1-2.65-2.25C23.02,22.77,23,22.59,23,22.4s0.02-0.38,0.05-0.56
	c0.26-1.25,1.34-2.24,2.65-2.24c1.41,0,2.64,1.05,2.79,2.5c0,0.1,0.01,0.2,0.01,0.3C28.5,22.47,28.5,22.53,28.49,22.6z M26.9,21.6
	h-0.5v-0.4c0-0.4-0.4-0.8-0.8-0.8c-0.4,0-0.8,0.4-0.8,0.8v1.2c0,0.05,0,0.1,0.02,0.15c0.01,0.04,0.02,0.08,0.04,0.13
	c0.08,0.28,0.33,0.46,0.61,0.51c0.04,0.01,0.09,0.01,0.13,0.01h1.3c0.4,0,0.8-0.4,0.8-0.8C27.7,22,27.3,21.6,26.9,21.6z
	 M18.64,32.42c-0.08-0.28-0.33-0.46-0.61-0.51c-0.04-0.01-0.09-0.01-0.13-0.01h-3.2c-0.4,0-0.8,0.4-0.8,0.8v3.7
	c0,0.4,0.4,0.8,0.8,0.8h3.2c0.4,0,0.8-0.4,0.8-0.8v-3.7c0-0.05,0-0.1-0.02-0.15C18.67,32.51,18.66,32.46,18.64,32.42z M17.1,35.6
	h-1.6v-2.1h1.6V35.6z M18.68,32.55c-0.01-0.04-0.02-0.09-0.04-0.13c-0.08-0.28-0.33-0.46-0.61-0.51c-0.04-0.01-0.09-0.01-0.13-0.01
	h-3.2c-0.4,0-0.8,0.4-0.8,0.8v3.7c0,0.4,0.4,0.8,0.8,0.8h3.2c0.4,0,0.8-0.4,0.8-0.8v-3.7C18.7,32.65,18.7,32.6,18.68,32.55z
	 M17.1,35.6h-1.6v-2.1h1.6V35.6z M26.9,21.6h-0.5v-0.4c0-0.4-0.4-0.8-0.8-0.8c-0.4,0-0.8,0.4-0.8,0.8v1.2c0,0.05,0,0.1,0.02,0.15
	c0.01,0.04,0.02,0.08,0.04,0.13c0.08,0.28,0.33,0.46,0.61,0.51c0.04,0.01,0.09,0.01,0.13,0.01h1.3c0.4,0,0.8-0.4,0.8-0.8
	C27.7,22,27.3,21.6,26.9,21.6z M26.9,21.6h-0.5v-0.4c0-0.4-0.4-0.8-0.8-0.8c-0.4,0-0.8,0.4-0.8,0.8v1.2c0,0.05,0,0.1,0.02,0.15
	c0.01,0.04,0.02,0.08,0.04,0.13c0.08,0.28,0.33,0.46,0.61,0.51c0.04,0.01,0.09,0.01,0.13,0.01h1.3c0.4,0,0.8-0.4,0.8-0.8
	C27.7,22,27.3,21.6,26.9,21.6z M30.08,21.96c-0.17-2.25-2.1-4.06-4.38-4.06c-2.4,0-4.4,2-4.4,4.4v0.05c0.13,2.48,2.02,4.35,4.4,4.35
	c2.25,0,4.15-1.76,4.38-3.96c0.01-0.14,0.02-0.29,0.02-0.44C30.1,22.18,30.1,22.07,30.08,21.96z M28.49,22.6
	c-0.1,1.41-1.26,2.6-2.79,2.6c-1.4,0-2.42-1-2.65-2.25C23.02,22.77,23,22.59,23,22.4s0.02-0.38,0.05-0.56
	c0.26-1.25,1.34-2.24,2.65-2.24c1.41,0,2.64,1.05,2.79,2.5c0,0.1,0.01,0.2,0.01,0.3C28.5,22.47,28.5,22.53,28.49,22.6z M26.9,21.6
	h-0.5v-0.4c0-0.4-0.4-0.8-0.8-0.8c-0.4,0-0.8,0.4-0.8,0.8v1.2c0,0.05,0,0.1,0.02,0.15c0.01,0.04,0.02,0.08,0.04,0.13
	c0.08,0.28,0.33,0.46,0.61,0.51c0.04,0.01,0.09,0.01,0.13,0.01h1.3c0.4,0,0.8-0.4,0.8-0.8C27.7,22,27.3,21.6,26.9,21.6z M36.6,31.9
	h-3.2c-0.4,0-0.8,0.4-0.8,0.8v3.7c0,0.04,0,0.09,0.01,0.13c0.05,0.28,0.23,0.53,0.51,0.61c0.04,0.02,0.09,0.03,0.13,0.04
	c0.05,0.02,0.1,0.02,0.15,0.02h3.2c0.4,0,0.8-0.4,0.8-0.8v-3.7C37.4,32.3,37,31.9,36.6,31.9z M35.8,35.6h-1.6v-2.1h1.6V35.6z
	 M36.6,31.9h-3.2c-0.4,0-0.8,0.4-0.8,0.8v3.7c0,0.04,0,0.09,0.01,0.13c0.05,0.28,0.23,0.53,0.51,0.61c0.04,0.02,0.09,0.03,0.13,0.04
	c0.05,0.02,0.1,0.02,0.15,0.02h3.2c0.4,0,0.8-0.4,0.8-0.8v-3.7C37.4,32.3,37,31.9,36.6,31.9z M35.8,35.6h-1.6v-2.1h1.6V35.6z
	 M26.9,21.6h-0.5v-0.4c0-0.4-0.4-0.8-0.8-0.8c-0.4,0-0.8,0.4-0.8,0.8v1.2c0,0.05,0,0.1,0.02,0.15c0.01,0.04,0.02,0.08,0.04,0.13
	c0.08,0.28,0.33,0.46,0.61,0.51c0.04,0.01,0.09,0.01,0.13,0.01h1.3c0.4,0,0.8-0.4,0.8-0.8C27.7,22,27.3,21.6,26.9,21.6z M26.9,21.6
	h-0.5v-0.4c0-0.4-0.4-0.8-0.8-0.8c-0.4,0-0.8,0.4-0.8,0.8v1.2c0,0.05,0,0.1,0.02,0.15c0.01,0.04,0.02,0.08,0.04,0.13
	c0.08,0.28,0.33,0.46,0.61,0.51c0.04,0.01,0.09,0.01,0.13,0.01h1.3c0.4,0,0.8-0.4,0.8-0.8C27.7,22,27.3,21.6,26.9,21.6z
	 M30.08,21.96c-0.17-2.25-2.1-4.06-4.38-4.06c-2.4,0-4.4,2-4.4,4.4v0.05c0.13,2.48,2.02,4.35,4.4,4.35c2.25,0,4.15-1.76,4.38-3.96
	c0.01-0.14,0.02-0.29,0.02-0.44C30.1,22.18,30.1,22.07,30.08,21.96z M28.49,22.6c-0.1,1.41-1.26,2.6-2.79,2.6
	c-1.4,0-2.42-1-2.65-2.25C23.02,22.77,23,22.59,23,22.4s0.02-0.38,0.05-0.56c0.26-1.25,1.34-2.24,2.65-2.24
	c1.41,0,2.64,1.05,2.79,2.5c0,0.1,0.01,0.2,0.01,0.3C28.5,22.47,28.5,22.53,28.49,22.6z M26.9,21.6h-0.5v-0.4c0-0.4-0.4-0.8-0.8-0.8
	c-0.4,0-0.8,0.4-0.8,0.8v1.2c0,0.05,0,0.1,0.02,0.15c0.01,0.04,0.02,0.08,0.04,0.13c0.08,0.28,0.33,0.46,0.61,0.51
	c0.04,0.01,0.09,0.01,0.13,0.01h1.3c0.4,0,0.8-0.4,0.8-0.8C27.7,22,27.3,21.6,26.9,21.6z M18.68,32.55
	c-0.01-0.04-0.02-0.09-0.04-0.13c-0.08-0.28-0.33-0.46-0.61-0.51c-0.04-0.01-0.09-0.01-0.13-0.01h-3.2c-0.4,0-0.8,0.4-0.8,0.8v3.7
	c0,0.4,0.4,0.8,0.8,0.8h3.2c0.4,0,0.8-0.4,0.8-0.8v-3.7C18.7,32.65,18.7,32.6,18.68,32.55z M17.1,35.6h-1.6v-2.1h1.6V35.6z
	 M18.68,32.55c-0.01-0.04-0.02-0.09-0.04-0.13c-0.08-0.28-0.33-0.46-0.61-0.51c-0.04-0.01-0.09-0.01-0.13-0.01h-3.2
	c-0.4,0-0.8,0.4-0.8,0.8v3.7c0,0.4,0.4,0.8,0.8,0.8h3.2c0.4,0,0.8-0.4,0.8-0.8v-3.7C18.7,32.65,18.7,32.6,18.68,32.55z M17.1,35.6
	h-1.6v-2.1h1.6V35.6z M26.9,21.6h-0.5v-0.4c0-0.4-0.4-0.8-0.8-0.8c-0.4,0-0.8,0.4-0.8,0.8v1.2c0,0.05,0,0.1,0.02,0.15
	c0.01,0.04,0.02,0.08,0.04,0.13c0.08,0.28,0.33,0.46,0.61,0.51c0.04,0.01,0.09,0.01,0.13,0.01h1.3c0.4,0,0.8-0.4,0.8-0.8
	C27.7,22,27.3,21.6,26.9,21.6z M26.9,21.6h-0.5v-0.4c0-0.4-0.4-0.8-0.8-0.8c-0.4,0-0.8,0.4-0.8,0.8v1.2c0,0.05,0,0.1,0.02,0.15
	c0.01,0.04,0.02,0.08,0.04,0.13c0.08,0.28,0.33,0.46,0.61,0.51c0.04,0.01,0.09,0.01,0.13,0.01h1.3c0.4,0,0.8-0.4,0.8-0.8
	C27.7,22,27.3,21.6,26.9,21.6z M30.08,21.96c-0.17-2.25-2.1-4.06-4.38-4.06c-2.4,0-4.4,2-4.4,4.4v0.05c0.13,2.48,2.02,4.35,4.4,4.35
	c2.25,0,4.15-1.76,4.38-3.96c0.01-0.14,0.02-0.29,0.02-0.44C30.1,22.18,30.1,22.07,30.08,21.96z M28.49,22.6
	c-0.1,1.41-1.26,2.6-2.79,2.6c-1.4,0-2.42-1-2.65-2.25C23.02,22.77,23,22.59,23,22.4s0.02-0.38,0.05-0.56
	c0.26-1.25,1.34-2.24,2.65-2.24c1.41,0,2.64,1.05,2.79,2.5c0,0.1,0.01,0.2,0.01,0.3C28.5,22.47,28.5,22.53,28.49,22.6z M26.9,21.6
	h-0.5v-0.4c0-0.4-0.4-0.8-0.8-0.8c-0.4,0-0.8,0.4-0.8,0.8v1.2c0,0.05,0,0.1,0.02,0.15c0.01,0.04,0.02,0.08,0.04,0.13
	c0.08,0.28,0.33,0.46,0.61,0.51c0.04,0.01,0.09,0.01,0.13,0.01h1.3c0.4,0,0.8-0.4,0.8-0.8C27.7,22,27.3,21.6,26.9,21.6z M36.6,31.9
	h-3.2c-0.4,0-0.8,0.4-0.8,0.8v3.7c0,0.04,0,0.09,0.01,0.13c0.05,0.28,0.23,0.53,0.51,0.61c0.04,0.02,0.09,0.03,0.13,0.04
	c0.05,0.02,0.1,0.02,0.15,0.02h3.2c0.4,0,0.8-0.4,0.8-0.8v-3.7C37.4,32.3,37,31.9,36.6,31.9z M35.8,35.6h-1.6v-2.1h1.6V35.6z
	 M36.6,31.9h-3.2c-0.4,0-0.8,0.4-0.8,0.8v3.7c0,0.04,0,0.09,0.01,0.13c0.05,0.28,0.23,0.53,0.51,0.61c0.04,0.02,0.09,0.03,0.13,0.04
	c0.05,0.02,0.1,0.02,0.15,0.02h3.2c0.4,0,0.8-0.4,0.8-0.8v-3.7C37.4,32.3,37,31.9,36.6,31.9z M35.8,35.6h-1.6v-2.1h1.6V35.6z
	 M26.9,21.6h-0.5v-0.4c0-0.4-0.4-0.8-0.8-0.8c-0.4,0-0.8,0.4-0.8,0.8v1.2c0,0.05,0,0.1,0.02,0.15c0.01,0.04,0.02,0.08,0.04,0.13
	c0.08,0.28,0.33,0.46,0.61,0.51c0.04,0.01,0.09,0.01,0.13,0.01h1.3c0.4,0,0.8-0.4,0.8-0.8C27.7,22,27.3,21.6,26.9,21.6z M26.9,21.6
	h-0.5v-0.4c0-0.4-0.4-0.8-0.8-0.8c-0.4,0-0.8,0.4-0.8,0.8v1.2c0,0.05,0,0.1,0.02,0.15c0.01,0.04,0.02,0.08,0.04,0.13
	c0.08,0.28,0.33,0.46,0.61,0.51c0.04,0.01,0.09,0.01,0.13,0.01h1.3c0.4,0,0.8-0.4,0.8-0.8C27.7,22,27.3,21.6,26.9,21.6z
	 M30.08,21.96c-0.17-2.25-2.1-4.06-4.38-4.06c-2.4,0-4.4,2-4.4,4.4v0.05c0.13,2.48,2.02,4.35,4.4,4.35c2.25,0,4.15-1.76,4.38-3.96
	c0.01-0.14,0.02-0.29,0.02-0.44C30.1,22.18,30.1,22.07,30.08,21.96z M28.49,22.6c-0.1,1.41-1.26,2.6-2.79,2.6
	c-1.4,0-2.42-1-2.65-2.25C23.02,22.77,23,22.59,23,22.4s0.02-0.38,0.05-0.56c0.26-1.25,1.34-2.24,2.65-2.24
	c1.41,0,2.64,1.05,2.79,2.5c0,0.1,0.01,0.2,0.01,0.3C28.5,22.47,28.5,22.53,28.49,22.6z M26.9,21.6h-0.5v-0.4c0-0.4-0.4-0.8-0.8-0.8
	c-0.4,0-0.8,0.4-0.8,0.8v1.2c0,0.05,0,0.1,0.02,0.15c0.01,0.04,0.02,0.08,0.04,0.13c0.08,0.28,0.33,0.46,0.61,0.51
	c0.04,0.01,0.09,0.01,0.13,0.01h1.3c0.4,0,0.8-0.4,0.8-0.8C27.7,22,27.3,21.6,26.9,21.6z M18.68,32.55
	c-0.01-0.04-0.02-0.09-0.04-0.13c-0.08-0.28-0.33-0.46-0.61-0.51c-0.04-0.01-0.09-0.01-0.13-0.01h-3.2c-0.4,0-0.8,0.4-0.8,0.8v3.7
	c0,0.4,0.4,0.8,0.8,0.8h3.2c0.4,0,0.8-0.4,0.8-0.8v-3.7C18.7,32.65,18.7,32.6,18.68,32.55z M17.1,35.6h-1.6v-2.1h1.6V35.6z
	 M18.68,32.55c-0.01-0.04-0.02-0.09-0.04-0.13c-0.08-0.28-0.33-0.46-0.61-0.51c-0.04-0.01-0.09-0.01-0.13-0.01h-3.2
	c-0.4,0-0.8,0.4-0.8,0.8v3.7c0,0.4,0.4,0.8,0.8,0.8h3.2c0.4,0,0.8-0.4,0.8-0.8v-3.7C18.7,32.65,18.7,32.6,18.68,32.55z M17.1,35.6
	h-1.6v-2.1h1.6V35.6z M26.9,21.6h-0.5v-0.4c0-0.4-0.4-0.8-0.8-0.8c-0.4,0-0.8,0.4-0.8,0.8v1.2c0,0.05,0,0.1,0.02,0.15
	c0.01,0.04,0.02,0.08,0.04,0.13c0.08,0.28,0.33,0.46,0.61,0.51c0.04,0.01,0.09,0.01,0.13,0.01h1.3c0.4,0,0.8-0.4,0.8-0.8
	C27.7,22,27.3,21.6,26.9,21.6z M26.9,21.6h-0.5v-0.4c0-0.4-0.4-0.8-0.8-0.8c-0.4,0-0.8,0.4-0.8,0.8v1.2c0,0.05,0,0.1,0.02,0.15
	c0.01,0.04,0.02,0.08,0.04,0.13c0.08,0.28,0.33,0.46,0.61,0.51c0.04,0.01,0.09,0.01,0.13,0.01h1.3c0.4,0,0.8-0.4,0.8-0.8
	C27.7,22,27.3,21.6,26.9,21.6z M30.08,21.96c-0.17-2.25-2.1-4.06-4.38-4.06c-2.4,0-4.4,2-4.4,4.4v0.05c0.13,2.48,2.02,4.35,4.4,4.35
	c2.25,0,4.15-1.76,4.38-3.96c0.01-0.14,0.02-0.29,0.02-0.44C30.1,22.18,30.1,22.07,30.08,21.96z M28.49,22.6
	c-0.1,1.41-1.26,2.6-2.79,2.6c-1.4,0-2.42-1-2.65-2.25C23.02,22.77,23,22.59,23,22.4s0.02-0.38,0.05-0.56
	c0.26-1.25,1.34-2.24,2.65-2.24c1.41,0,2.64,1.05,2.79,2.5c0,0.1,0.01,0.2,0.01,0.3C28.5,22.47,28.5,22.53,28.49,22.6z M26.9,21.6
	h-0.5v-0.4c0-0.4-0.4-0.8-0.8-0.8c-0.4,0-0.8,0.4-0.8,0.8v1.2c0,0.05,0,0.1,0.02,0.15c0.01,0.04,0.02,0.08,0.04,0.13
	c0.08,0.28,0.33,0.46,0.61,0.51c0.04,0.01,0.09,0.01,0.13,0.01h1.3c0.4,0,0.8-0.4,0.8-0.8C27.7,22,27.3,21.6,26.9,21.6z M36.6,31.9
	h-3.2c-0.4,0-0.8,0.4-0.8,0.8v3.7c0,0.04,0,0.09,0.01,0.13c0.05,0.28,0.23,0.53,0.51,0.61c0.04,0.02,0.09,0.03,0.13,0.04
	c0.05,0.02,0.1,0.02,0.15,0.02h3.2c0.4,0,0.8-0.4,0.8-0.8v-3.7C37.4,32.3,37,31.9,36.6,31.9z M35.8,35.6h-1.6v-2.1h1.6V35.6z
	 M36.6,31.9h-3.2c-0.4,0-0.8,0.4-0.8,0.8v3.7c0,0.04,0,0.09,0.01,0.13c0.05,0.28,0.23,0.53,0.51,0.61c0.04,0.02,0.09,0.03,0.13,0.04
	c0.05,0.02,0.1,0.02,0.15,0.02h3.2c0.4,0,0.8-0.4,0.8-0.8v-3.7C37.4,32.3,37,31.9,36.6,31.9z M35.8,35.6h-1.6v-2.1h1.6V35.6z
	 M26.9,21.6h-0.5v-0.4c0-0.4-0.4-0.8-0.8-0.8c-0.4,0-0.8,0.4-0.8,0.8v1.2c0,0.05,0,0.1,0.02,0.15c0.01,0.04,0.02,0.08,0.04,0.13
	c0.08,0.28,0.33,0.46,0.61,0.51c0.04,0.01,0.09,0.01,0.13,0.01h1.3c0.4,0,0.8-0.4,0.8-0.8C27.7,22,27.3,21.6,26.9,21.6z M26.9,21.6
	h-0.5v-0.4c0-0.4-0.4-0.8-0.8-0.8c-0.4,0-0.8,0.4-0.8,0.8v1.2c0,0.05,0,0.1,0.02,0.15c0.01,0.04,0.02,0.08,0.04,0.13
	c0.08,0.28,0.33,0.46,0.61,0.51c0.04,0.01,0.09,0.01,0.13,0.01h1.3c0.4,0,0.8-0.4,0.8-0.8C27.7,22,27.3,21.6,26.9,21.6z
	 M30.08,21.96c-0.17-2.25-2.1-4.06-4.38-4.06c-2.4,0-4.4,2-4.4,4.4v0.05c0.13,2.48,2.02,4.35,4.4,4.35c2.25,0,4.15-1.76,4.38-3.96
	c0.01-0.14,0.02-0.29,0.02-0.44C30.1,22.18,30.1,22.07,30.08,21.96z M28.49,22.6c-0.1,1.41-1.26,2.6-2.79,2.6
	c-1.4,0-2.42-1-2.65-2.25C23.02,22.77,23,22.59,23,22.4s0.02-0.38,0.05-0.56c0.26-1.25,1.34-2.24,2.65-2.24
	c1.41,0,2.64,1.05,2.79,2.5c0,0.1,0.01,0.2,0.01,0.3C28.5,22.47,28.5,22.53,28.49,22.6z M26.9,21.6h-0.5v-0.4c0-0.4-0.4-0.8-0.8-0.8
	c-0.4,0-0.8,0.4-0.8,0.8v1.2c0,0.05,0,0.1,0.02,0.15c0.01,0.04,0.02,0.08,0.04,0.13c0.08,0.28,0.33,0.46,0.61,0.51
	c0.04,0.01,0.09,0.01,0.13,0.01h1.3c0.4,0,0.8-0.4,0.8-0.8C27.7,22,27.3,21.6,26.9,21.6z M18.68,32.55
	c-0.01-0.04-0.02-0.09-0.04-0.13c-0.08-0.28-0.33-0.46-0.61-0.51c-0.04-0.01-0.09-0.01-0.13-0.01h-3.2c-0.4,0-0.8,0.4-0.8,0.8v3.7
	c0,0.4,0.4,0.8,0.8,0.8h3.2c0.4,0,0.8-0.4,0.8-0.8v-3.7C18.7,32.65,18.7,32.6,18.68,32.55z M17.1,35.6h-1.6v-2.1h1.6V35.6z
	 M18.68,32.55c-0.01-0.04-0.02-0.09-0.04-0.13c-0.11-0.24-0.35-0.45-0.61-0.51c-0.04-0.01-0.09-0.01-0.13-0.01h-3.2
	c-0.4,0-0.8,0.4-0.8,0.8v3.7c0,0.4,0.4,0.8,0.8,0.8h3.2c0.4,0,0.8-0.4,0.8-0.8v-3.7C18.7,32.65,18.7,32.6,18.68,32.55z M17.1,35.6
	h-1.6v-2.1h1.6V35.6z M26.9,21.6h-0.5v-0.4c0-0.4-0.4-0.8-0.8-0.8c-0.4,0-0.8,0.4-0.8,0.8v1.2c0,0.05,0,0.1,0.02,0.15
	c0.01,0.04,0.02,0.08,0.04,0.13c0.08,0.28,0.33,0.46,0.61,0.51c0.04,0.01,0.09,0.01,0.13,0.01h1.3c0.4,0,0.8-0.4,0.8-0.8
	C27.7,22,27.3,21.6,26.9,21.6z M26.9,21.6h-0.5v-0.4c0-0.4-0.4-0.8-0.8-0.8c-0.4,0-0.8,0.4-0.8,0.8v1.2c0,0.05,0,0.1,0.02,0.15
	c0.01,0.04,0.02,0.08,0.04,0.13c0.08,0.28,0.33,0.46,0.61,0.51c0.04,0.01,0.09,0.01,0.13,0.01h1.3c0.4,0,0.8-0.4,0.8-0.8
	C27.7,22,27.3,21.6,26.9,21.6z M30.08,21.96C29.85,19.76,27.95,18,25.7,18c-2.36,0-4.24,1.94-4.4,4.3v0.05
	c0.13,2.48,2.02,4.35,4.4,4.35c2.25,0,4.15-1.76,4.38-3.96c0.01-0.14,0.02-0.29,0.02-0.44C30.1,22.18,30.1,22.07,30.08,21.96z
	 M28.49,22.6c-0.1,1.41-1.26,2.6-2.79,2.6c-1.4,0-2.42-1-2.65-2.25C23.02,22.77,23,22.59,23,22.4s0.02-0.38,0.05-0.56
	c0.26-1.25,1.34-2.24,2.65-2.24c1.41,0,2.64,1.05,2.79,2.5c0,0.1,0.01,0.2,0.01,0.3C28.5,22.47,28.5,22.53,28.49,22.6z M26.9,21.6
	h-0.5v-0.4c0-0.4-0.4-0.8-0.8-0.8c-0.4,0-0.8,0.4-0.8,0.8v1.2c0,0.05,0,0.1,0.02,0.15c0.01,0.04,0.02,0.08,0.04,0.13
	c0.08,0.28,0.33,0.46,0.61,0.51c0.04,0.01,0.09,0.01,0.13,0.01h1.3c0.4,0,0.8-0.4,0.8-0.8C27.7,22,27.3,21.6,26.9,21.6z M36.6,31.9
	h-3.2c-0.4,0-0.8,0.4-0.8,0.8v3.7c0,0.04,0,0.09,0.01,0.13c0.06,0.26,0.27,0.5,0.51,0.61c0.04,0.02,0.09,0.03,0.13,0.04
	c0.05,0.02,0.1,0.02,0.15,0.02h3.2c0.4,0,0.8-0.4,0.8-0.8v-3.7C37.4,32.3,37,31.9,36.6,31.9z M35.8,35.6h-1.6v-2.1h1.6V35.6z
	 M36.6,31.9h-3.2c-0.4,0-0.8,0.4-0.8,0.8v3.7c0,0.04,0,0.09,0.01,0.13c0.05,0.28,0.23,0.53,0.51,0.61c0.04,0.02,0.09,0.03,0.13,0.04
	c0.05,0.02,0.1,0.02,0.15,0.02h3.2c0.4,0,0.8-0.4,0.8-0.8v-3.7C37.4,32.3,37,31.9,36.6,31.9z M35.8,35.6h-1.6v-2.1h1.6V35.6z
	 M25.6,13l-7.3,5.1v0.1l7.3-5.1l7.4,5.1L25.6,13z M26.9,21.6h-0.5v-0.4c0-0.4-0.4-0.8-0.8-0.8c-0.4,0-0.8,0.4-0.8,0.8v1.2
	c0,0.05,0,0.1,0.02,0.15c0.01,0.04,0.02,0.08,0.04,0.13c0.08,0.28,0.33,0.46,0.61,0.51c0.04,0.01,0.09,0.01,0.13,0.01h1.3
	c0.4,0,0.8-0.4,0.8-0.8C27.7,22,27.3,21.6,26.9,21.6z M26.9,21.6h-0.5v-0.4c0-0.4-0.4-0.8-0.8-0.8c-0.4,0-0.8,0.4-0.8,0.8v1.2
	c0,0.05,0,0.1,0.02,0.15c0.01,0.04,0.02,0.08,0.04,0.13c0.08,0.28,0.33,0.46,0.61,0.51c0.04,0.01,0.09,0.01,0.13,0.01h1.3
	c0.4,0,0.8-0.4,0.8-0.8C27.7,22,27.3,21.6,26.9,21.6z M30.08,21.96c-0.17-2.25-2.1-4.06-4.38-4.06c-2.4,0-4.4,2-4.4,4.4v0.05
	c0.13,2.48,2.02,4.35,4.4,4.35c2.25,0,4.15-1.76,4.38-3.96c0.01-0.14,0.02-0.29,0.02-0.44C30.1,22.18,30.1,22.07,30.08,21.96z
	 M28.49,22.6c-0.1,1.41-1.26,2.6-2.79,2.6c-1.4,0-2.42-1-2.65-2.25C23.02,22.77,23,22.59,23,22.4s0.02-0.38,0.05-0.56
	c0.26-1.25,1.34-2.24,2.65-2.24c1.41,0,2.64,1.05,2.79,2.5c0,0.1,0.01,0.2,0.01,0.3C28.5,22.47,28.5,22.53,28.49,22.6z M26.9,21.6
	h-0.5v-0.4c0-0.4-0.4-0.8-0.8-0.8c-0.4,0-0.8,0.4-0.8,0.8v1.2c0,0.05,0,0.1,0.02,0.15c0.01,0.04,0.02,0.08,0.04,0.13
	c0.08,0.28,0.33,0.46,0.61,0.51c0.04,0.01,0.09,0.01,0.13,0.01h1.3c0.4,0,0.8-0.4,0.8-0.8C27.7,22,27.3,21.6,26.9,21.6z M17.5,25.1
	h-6v0.1h6c0.4,0,0.8-0.4,0.8-0.8v-0.1C18.3,24.7,17.9,25.1,17.5,25.1z M18.68,32.55c-0.01-0.04-0.02-0.09-0.04-0.13
	c-0.08-0.28-0.33-0.46-0.61-0.51c-0.04-0.01-0.09-0.01-0.13-0.01h-3.2c-0.4,0-0.8,0.4-0.8,0.8v3.7c0,0.4,0.4,0.8,0.8,0.8h3.2
	c0.4,0,0.8-0.4,0.8-0.8v-3.7C18.7,32.65,18.7,32.6,18.68,32.55z M17.1,35.6h-1.6v-2.1h1.6V35.6z M26.9,21.6h-0.5v-0.4
	c0-0.4-0.4-0.8-0.8-0.8c-0.4,0-0.8,0.4-0.8,0.8v1.2c0,0.05,0,0.1,0.02,0.15c0.01,0.04,0.02,0.08,0.04,0.13
	c0.11,0.24,0.35,0.45,0.61,0.51c0.04,0.01,0.09,0.01,0.13,0.01h1.3c0.4,0,0.8-0.4,0.8-0.8C27.7,22,27.3,21.6,26.9,21.6z M26.9,21.6
	h-0.5v-0.4c0-0.4-0.4-0.8-0.8-0.8c-0.4,0-0.8,0.4-0.8,0.8v1.2c0,0.05,0,0.1,0.02,0.15c0.01,0.04,0.02,0.08,0.04,0.13
	c0.08,0.28,0.33,0.46,0.61,0.51c0.04,0.01,0.09,0.01,0.13,0.01h1.3c0.4,0,0.8-0.4,0.8-0.8C27.7,22,27.3,21.6,26.9,21.6z M25.7,19.5
	c-1.4,0-2.42,1.07-2.65,2.34c0.26-1.25,1.34-2.24,2.65-2.24c1.41,0,2.64,1.05,2.79,2.5C28.39,20.69,27.23,19.5,25.7,19.5z"/>
</svg>
