<?xml version="1.0" encoding="UTF-8"?>
<svg xmlns="http://www.w3.org/2000/svg" version="1.1" viewBox="0 0 50.46 50.46">
  <!-- Generator: Adobe Illustrator 28.7.1, SVG Export Plug-In . SVG Version: 1.2.0 Build 142)  -->
  <g>
    <g id="stroke_1_x2C_6">
      <g>
        <path d="M46.628,27.329c-.141-.862-.783-1.61-1.644-1.906l-3.415-.101c-.007-.182-.03-.399-.099-.645-.253-.787-1.012-1.337-1.845-1.337-.556,0-1.076.231-1.466.651l-.08.107c-.019.025-.158.194-1.035,1.111-2.525,2.671-2.759,2.94-2.775,3.732-.007.318.061.623.202.912l-.02.02.304.442,3.441,3.796.113.102c.376.315.827.481,1.305.481,1.056,0,1.906-.834,1.937-1.916,0-.032,0-.074.001-.124h2.857c1.012,0,1.899-.71,2.156-1.725.177-.687.141-3.099.063-3.599ZM45.318,30.609c-.114.453-.48.758-.909.758h-4.123l.004.836c-.024.203-.025.442-.025.555-.01.363-.296.649-.651.649-.172,0-.337-.063-.467-.163l-2.98-3.266.005-.005-.387-.452c-.101-.117-.235-.303-.229-.552.005-.262.215-.538,2.421-2.872.972-1.016,1.081-1.158,1.125-1.229.351-.377,1.007-.219,1.136.18.049.174.049.351.049.521v1.033l4.235.024.051.017c.405.139.722.5.785.889.069.444.074,2.638-.04,3.078Z"/>
        <path d="M8.99,25.916c.252.788,1.011,1.338,1.845,1.338.556,0,1.076-.231,1.466-.651l.079-.107c.054-.069.357-.401,1.035-1.111,2.525-2.671,2.759-2.94,2.776-3.732.006-.318-.061-.623-.203-.912l.017-.017-.298-.44-3.443-3.8-.115-.102c-.376-.315-.827-.482-1.304-.482-1.056,0-1.907.834-1.938,1.917,0,.032,0,.074,0,.123h-2.856c-1.012,0-1.899.711-2.156,1.725-.178.685-.142,3.099-.064,3.6.142.862.785,1.609,1.643,1.904l3.417.103c.008.182.031.398.099.643ZM5.887,23.951c-.406-.139-.722-.498-.786-.888-.069-.445-.074-2.638.04-3.078.115-.453.48-.758.909-.758h4.123l-.004-.839c.023-.203.025-.44.024-.552.011-.364.297-.649.652-.649.171,0,.336.062.467.162l2.981,3.267-.005.005.387.452c.101.118.234.303.229.552-.005.262-.215.538-2.421,2.872-.969,1.014-1.084,1.162-1.125,1.228-.351.379-1.006.22-1.136-.181-.048-.173-.048-.35-.048-.52v-1.033l-4.235-.024-.052-.017Z"/>
        <path d="M36.002,6.843c-.317-.317-.809-.317-1.126,0L6.829,34.891c-.317.317-.317.809,0,1.126.143.159.349.238.555.238.19,0,.396-.079.555-.238L36.002,7.969c.317-.317.317-.809,0-1.126Z"/>
        <path d="M11.601,37.852l-1.121,1.121c-.31.31-.31.812,0,1.121.31.31.811.31,1.121,0l1.121-1.121c.31-.31.31-.812,0-1.121-.31-.31-.812-.31-1.121,0Z"/>
        <path d="M26.452,22.99l-3.826,3.826c-.31.31-.31.811,0,1.121l.005.005c.31.31.812.31,1.121,0l3.826-3.826c.31-.31.31-.812,0-1.121l-.005-.005c-.31-.31-.811-.31-1.121,0Z"/>
        <path d="M19.031,30.41l-3.826,3.826c-.31.31-.31.812,0,1.121l.565.565h0l4.386-4.386c.31-.31.31-.812,0-1.121l-.005-.005c-.31-.31-.811-.31-1.121,0Z"/>
        <path d="M33.872,15.569l-3.826,3.826c-.31.31-.31.811,0,1.121l.005.005c.31.31.811.31,1.121,0l3.826-3.826c.31-.31.31-.812,0-1.121l-.005-.005c-.31-.31-.811-.31-1.121,0Z"/>
        <path d="M38.587,13.092l1.121-1.121c.31-.31.31-.812,0-1.121s-.812-.31-1.121,0l-1.121,1.121c-.31.31-.31.812,0,1.121.31.31.812.31,1.121,0Z"/>
        <path d="M43.565,14.422c-.317-.317-.809-.317-1.126,0l-28.064,28.064c-.317.317-.317.809,0,1.126.143.159.349.238.555.238h.016c.19,0,.396-.079.555-.238l28.064-28.064c.317-.317.317-.809,0-1.126Z"/>
        <path d="M7.289,8.231c.118.118.279.182.45.182s.332-.064.461-.182c.118-.129.182-.29.182-.461s-.064-.332-.182-.45l-1.523-1.523c-.236-.236-.665-.236-.912,0-.247.257-.247.665,0,.912l1.523,1.523Z"/>
        <path d="M13.359,14.29c.118.129.279.193.45.193s.332-.064.45-.193c.129-.118.193-.279.193-.45s-.064-.332-.193-.45l-1.512-1.523c-.118-.118-.279-.183-.45-.183s-.332.064-.461.183c-.118.128-.183.29-.183.461s.064.332.183.45l1.523,1.512Z"/>
        <path d="M16.393,17.324c.118.129.279.193.45.193s.332-.064.45-.193c.129-.118.193-.279.193-.45s-.064-.332-.193-.45l-1.512-1.523c-.247-.247-.665-.247-.912,0-.118.118-.193.279-.193.451s.075.343.193.461l1.523,1.512Z"/>
        <path d="M19.116,20.059c.129.129.29.193.461.193s.332-.064.45-.193c.258-.247.258-.654,0-.912l-1.212-1.212c-.247-.247-.675-.247-.912,0-.129.118-.193.279-.193.45s.064.332.193.461l1.212,1.212Z"/>
        <path d="M10.324,11.266c.118.118.279.182.45.182s.332-.064.461-.182c.118-.129.182-.29.182-.461s-.064-.332-.182-.45l-1.523-1.523c-.247-.236-.665-.236-.912,0-.118.128-.182.29-.182.461s.064.332.182.451l1.523,1.523Z"/>
        <path d="M31.266,30.385c-.247-.246-.665-.246-.912,0-.246.258-.246.665,0,.912l1.523,1.511c.118.129.28.194.45.194.172,0,.333-.065.45-.194.129-.117.194-.279.194-.45,0-.171-.065-.332-.194-.45l-1.511-1.523Z"/>
        <path d="M34.301,33.42c-.247-.246-.676-.246-.912,0-.117.118-.193.279-.193.45,0,.182.075.343.193.462l1.512,1.511c.129.129.289.194.461.194s.333-.065.45-.194c.129-.117.194-.279.194-.45s-.065-.332-.194-.461l-1.511-1.512Z"/>
        <path d="M43.394,42.513c-.236-.237-.665-.237-.911,0-.118.129-.182.289-.182.461s.064.332.182.45l1.222,1.222c.129.118.29.194.461.194.172,0,.333-.075.45-.194.258-.246.258-.653,0-.911l-1.222-1.222Z"/>
        <path d="M37.335,36.454c-.246-.246-.675-.246-.911,0-.129.118-.193.279-.193.45s.064.333.193.461l1.512,1.512c.129.118.289.194.461.194s.333-.075.45-.194c.118-.117.194-.279.194-.45s-.075-.332-.194-.461l-1.512-1.512Z"/>
        <path d="M40.369,39.489c-.246-.247-.675-.247-.911,0-.129.118-.193.279-.193.45s.064.333.193.461l1.512,1.512c.117.118.279.194.461.194.172,0,.333-.075.45-.194.118-.117.194-.279.194-.45,0-.182-.075-.343-.194-.461l-1.512-1.512Z"/>
      </g>
    </g>
  </g>
</svg>