<svg id="Layer_1" data-name="Layer 1" xmlns="http://www.w3.org/2000/svg" viewBox="0 0 50.46 50.46"><defs><style>.cls-1,.cls-3{fill:none;}.cls-1,.cls-2,.cls-3{stroke:#12b5e1;stroke-linecap:round;stroke-linejoin:round;}.cls-1{stroke-width:1.8px;}.cls-2{fill:#12b5e1;stroke-width:1.08px;}</style></defs><title>centro atomico lineal</title><polyline class="cls-1" points="34.56 13.26 34.56 45.78 15.9 45.78 15.9 13.26"/><rect class="cls-2" x="23.5" y="34.5" width="3.47" height="3.65"/><line class="cls-1" x1="11.32" y1="10.87" x2="39.14" y2="10.87"/><line class="cls-1" x1="11.32" y1="4.68" x2="39.14" y2="4.68"/><line class="cls-3" x1="11.9" y1="4.91" x2="11.9" y2="10.61"/><line class="cls-3" x1="14.32" y1="4.91" x2="14.32" y2="10.61"/><line class="cls-3" x1="16.75" y1="4.91" x2="16.75" y2="10.61"/><line class="cls-3" x1="19.17" y1="4.91" x2="19.17" y2="10.61"/><line class="cls-3" x1="21.59" y1="4.91" x2="21.59" y2="10.61"/><line class="cls-3" x1="24.02" y1="4.91" x2="24.02" y2="10.61"/><line class="cls-3" x1="26.44" y1="4.91" x2="26.44" y2="10.61"/><line class="cls-3" x1="28.87" y1="4.91" x2="28.87" y2="10.61"/><line class="cls-3" x1="31.29" y1="4.91" x2="31.29" y2="10.61"/><line class="cls-3" x1="33.71" y1="4.91" x2="33.71" y2="10.61"/><line class="cls-3" x1="36.14" y1="4.91" x2="36.14" y2="10.61"/><line class="cls-3" x1="38.56" y1="4.91" x2="38.56" y2="10.61"/></svg>