<?xml version="1.0" encoding="utf-8"?>
<!-- Generator: Adobe Illustrator 24.0.1, SVG Export Plug-In . SVG Version: 6.00 Build 0)  -->
<svg version="1.1" id="Layer_1" xmlns="http://www.w3.org/2000/svg" xmlns:xlink="http://www.w3.org/1999/xlink" x="0px" y="0px"
	 viewBox="0 0 50.5 50.5" style="enable-background:new 0 0 50.5 50.5;" xml:space="preserve">
<g>
	<path d="M32.363,15.297c2.131,0,3.859-1.728,3.859-3.859c0-2.131-1.728-3.859-3.859-3.859s-3.859,1.728-3.859,3.859
		C28.504,13.57,30.232,15.297,32.363,15.297z"/>
	<path d="M38.144,28.054c-0.872,0-1.712,0.134-2.503,0.382l-0.958-2.272l1.372-1.495c0.056,0.007,0.112,0.025,0.168,0.025
		c0.61,0,1.174-0.396,1.359-1.011c0.024-0.081,0.038-0.162,0.047-0.243l1.341,0.438c0.082,0.027,0.166,0.04,0.248,0.04
		c0.337,0,0.65-0.214,0.761-0.552c0.137-0.42-0.092-0.872-0.513-1.009l-1.164-0.38c0.028-0.245-0.044-0.499-0.24-0.678
		c-0.326-0.3-0.832-0.277-1.13,0.048l-0.129,0.141l-1.5-0.49c-0.322-0.106-0.661,0.008-0.864,0.256l-2.602-0.784L29.51,16.85
		c-0.043-0.267-0.108-0.534-0.222-0.793l-0.853-1.947c-0.619-1.413-2.267-2.055-3.679-1.434l-8.206,3.611
		c-1.267,0.555-1.844,2.032-1.289,3.299l2.252,5.141c0.026,0.081,0.056,0.161,0.097,0.238l0.607,1.142l-1.935,2.929
		c-1.173-0.625-2.509-0.982-3.928-0.982c-4.621,0-8.38,3.759-8.38,8.38s3.759,8.38,8.38,8.38c4.351,0,7.935-3.333,8.339-7.58h1.37
		c0.347,1.165,1.415,2.021,2.691,2.021c1.556,0,2.821-1.266,2.821-2.821c0-0.557-0.167-1.073-0.447-1.51l6.404-7.364l0.633,1.5
		c-2.62,1.418-4.403,4.191-4.403,7.374c0,4.621,3.759,8.38,8.38,8.38s8.38-3.759,8.38-8.38S42.764,28.054,38.144,28.054z
		 M27.61,20.361c0.205-0.09,0.396-0.199,0.572-0.323l1.548,2.409c0.183,0.285,0.461,0.494,0.785,0.592l3.811,1.148l-1.008,1.098
		h-5.377l0.438-1.014c0.154-0.357,0.156-0.761,0.004-1.119c-0.152-0.357-0.443-0.637-0.807-0.774l-2.452-0.924L27.61,20.361z
		 M21.849,26.884h2.308l-1.035,2.395L21.849,26.884z M20.999,25.284L20.13,23.65l1.276-0.561l3.776,1.422l-0.334,0.773H20.999z
		 M19.074,27.716l3.619,6.81c-0.289,0.312-0.502,0.69-0.627,1.108h-1.37c-0.219-2.302-1.373-4.334-3.078-5.714L19.074,27.716z
		 M19.085,35.634h-5.241l2.887-4.372C18.008,32.344,18.879,33.888,19.085,35.634z M12.356,43.214c-3.739,0-6.78-3.042-6.78-6.78
		s3.042-6.78,6.78-6.78c1.093,0,2.124,0.266,3.039,0.728l-3.06,4.633c-0.774,0.012-1.401,0.643-1.401,1.42
		c0,0.784,0.638,1.422,1.422,1.422c0.488,0,0.918-0.247,1.174-0.622h5.554C18.688,40.596,15.824,43.214,12.356,43.214z
		 M25.924,33.873c-0.141-0.064-0.289-0.113-0.442-0.154l-0.66-1.241c0.011-0.022,0.028-0.038,0.038-0.061l2.39-5.533h4.75
		L25.924,33.873z M38.144,43.214c-3.739,0-6.78-3.042-6.78-6.78c0-2.52,1.385-4.719,3.43-5.887l2.157,5.118
		c-0.144,0.222-0.229,0.485-0.229,0.769c0,0.784,0.638,1.422,1.422,1.422s1.422-0.638,1.422-1.422c0-0.688-0.491-1.263-1.141-1.394
		l-2.157-5.117c0.597-0.172,1.225-0.27,1.876-0.27c3.739,0,6.78,3.042,6.78,6.78S41.882,43.214,38.144,43.214z"/>
	<path d="M12.472,14.949c0.41,0.914,1.483,1.322,2.396,0.912l9.681-4.344c1.536-0.689,2.222-2.493,1.533-4.029
		c-0.689-1.536-2.493-2.222-4.029-1.533l-2.644,1.187c-0.857-0.636-2.016-0.814-3.058-0.346L14.31,7.711
		c-1.043,0.468-1.68,1.452-1.775,2.514l-0.162,0.073c-0.914,0.41-1.322,1.483-0.912,2.396L12.472,14.949z"/>
</g>
</svg>
