<svg xmlns="http://www.w3.org/2000/svg" viewBox="0 0 50.46 50.46">
  <title>Iconos</title>
  <g>
    <path d="M33.52,21.29H28.85a5.35,5.35,0,0,1-1.18,1.49h5.85a2.7,2.7,0,0,1,2.69,2.69V43.58a2.7,2.7,0,0,1-2.69,2.69H15a2.7,2.7,0,0,1-2.69-2.69V25.47A2.7,2.7,0,0,1,15,22.78h5.63a5.35,5.35,0,0,1-1.18-1.49H15a4.19,4.19,0,0,0-4.18,4.18V43.58A4.19,4.19,0,0,0,15,47.77h18.5a4.19,4.19,0,0,0,4.18-4.18V25.47A4.19,4.19,0,0,0,33.52,21.29Z" fill="#00b5e4"/>
    <path d="M27.4,25.18H20.92a0.71,0.71,0,1,0,0,1.43H27.4A0.71,0.71,0,0,0,27.4,25.18Z" fill="#00b5e4"/>
    <path d="M17.5,43.81a0.56,0.56,0,0,0,.56.56H28.64a0.56,0.56,0,1,0,0-1.13H23.39c-2.27,0-4.57-1.33-4.57-3.89A4.39,4.39,0,0,1,23.09,35v1.44H22.82a0.56,0.56,0,0,0-.56.56v2.34a0.56,0.56,0,0,0,.56.56h4.37a0.56,0.56,0,0,0,.56-0.56V37a0.56,0.56,0,0,0-.56-0.56H26.92V31.37a0.56,0.56,0,0,0-.56-0.56h-2.7a0.56,0.56,0,0,0-.56.56v2.5a5.52,5.52,0,0,0-5.4,5.48,4.74,4.74,0,0,0,2,3.89H18.07A0.56,0.56,0,0,0,17.5,43.81Zm6.72-11.87h1.57v4.51H24.22V31.94Zm-0.83,5.64h3.24v1.21H23.39V37.58Z" fill="#00b5e4"/>
    <path d="M23.66,41.23a0.56,0.56,0,0,0,0,1.13h2.7a0.56,0.56,0,0,0,0-1.13h-2.7Z" fill="#00b5e4"/>
    <path d="M43.62,2.69c-0.4.2-2.72,0.66-4.19,1C34,4.94,27.78,2.87,22.89,5.34a34.69,34.69,0,0,0-11.09,8.4L12,13.9c1.64,1.22,4-.88,8.53-3.72,0,0.13-.28.59-0.31,0.72-0.32,1.39,1.38,3.39,2.07,4.14a4.2,4.2,0,1,0,5,1c1.39-1,3.32-1.67,6.27-2.17s5.47-3.19,6.6-4.87,3.46,0,3.44-.23C43.52,7.08,43.62,2.69,43.62,2.69ZM24.16,21.75a3,3,0,1,1,0-6,3,3,0,0,1,1,.19,2.72,2.72,0,0,0,.35.9,0.47,0.47,0,0,0,.75.06l0.12-.12A3,3,0,0,1,24.16,21.75ZM30.31,11.4c-0.21,1.05-3.27.82-4.72,2.83a2.54,2.54,0,0,0-.28.52,4.13,4.13,0,0,0-.52-0.12c-0.24-.66-1-3-0.63-4,0.92-2.1,4-1.3,4.54-1.06C29.77,10.1,30.43,10.8,30.31,11.4Z" fill="#00b5e4"/>
    <path d="M24.25,18.51a1,1,0,0,1-.38-0.22,0.41,0.41,0,0,1-.1-0.29,0.45,0.45,0,0,1,.1-0.3,0.37,0.37,0,0,1,.3-0.11,0.36,0.36,0,0,1,.3.15,0.68,0.68,0,0,1,.11.42h0.66A1.07,1.07,0,0,0,25,17.42a1,1,0,0,0-.63-0.34v-0.5H24v0.49a1.06,1.06,0,0,0-.66.29,0.86,0.86,0,0,0-.25.63,0.84,0.84,0,0,0,.25.64,2.25,2.25,0,0,0,.76.41,1,1,0,0,1,.37.22,0.43,0.43,0,0,1,.11.3,0.41,0.41,0,0,1-.11.3,0.43,0.43,0,0,1-.32.11,0.5,0.5,0,0,1-.36-0.13,0.58,0.58,0,0,1-.14-0.44H23a1,1,0,0,0,.27.77,1.19,1.19,0,0,0,.71.3V21h0.37V20.5A1.09,1.09,0,0,0,25,20.21a0.85,0.85,0,0,0,.25-0.64A0.82,0.82,0,0,0,25,18.94,2.43,2.43,0,0,0,24.25,18.51Z" fill="#00b5e4"/>
  </g>
</svg>
