<?xml version="1.0" encoding="utf-8"?>
<!-- Generator: Adobe Illustrator 18.0.0, SVG Export Plug-In . SVG Version: 6.00 Build 0)  -->
<!DOCTYPE svg PUBLIC "-//W3C//DTD SVG 1.1//EN" "http://www.w3.org/Graphics/SVG/1.1/DTD/svg11.dtd">
<svg version="1.1" id="Layer_1" xmlns="http://www.w3.org/2000/svg" xmlns:xlink="http://www.w3.org/1999/xlink" x="0px" y="0px"
	 viewBox="0 0 50.5 50.5" style="enable-background:new 0 0 50.5 50.5;" xml:space="preserve">
<style type="text/css">
	.st0{fill:#65B4E1;}
</style>
<g>
	<g>
		<g>
			<path class="st0" d="M28.3,22.7h-1.1h-1c-0.3,0.5-0.6,0.9-1,1.3h2.1h0.9c1.3,0,2.3,1,2.3,2.3v1.9v10.1v1.9c0,1.3-1,2.3-2.3,2.3
				h-2h-8.6h-1.5c-1.3,0-2.3-1-2.3-2.3V39v-8.8v-3.9c0-1.3,1-2.3,2.3-2.3h1.9h1c-0.4-0.4-0.8-0.8-1-1.3h-1.8c-2,0-3.6,1.6-3.6,3.6
				v4.6v7.6v1.7c0,2,1.6,3.6,3.6,3.6h2.2h7.2h2.6c2,0,3.6-1.6,3.6-3.6v-2.6v-8.8v-2.5C31.9,24.3,30.3,22.7,28.3,22.7z"/>
		</g>
		<g>
			<path class="st0" d="M25,26h-5.6c-0.3,0-0.6,0.3-0.6,0.6c0,0.3,0.3,0.6,0.6,0.6H25c0.3,0,0.6-0.3,0.6-0.6
				C25.6,26.3,25.4,26,25,26z"/>
		</g>
		<g>
			<path class="st0" d="M25.7,39.1h-3.7c-1.6,0-3.3-1-3.3-2.8c0-1.7,1.4-3,3-3.1v1h-0.2c-0.2,0-0.4,0.2-0.4,0.4v1.7
				c0,0.2,0.2,0.4,0.4,0.4h3.1c0.2,0,0.4-0.2,0.4-0.4v-1.7c0-0.2-0.2-0.4-0.4-0.4h-0.2v-3.6c0-0.2-0.2-0.4-0.4-0.4h-1.9
				c-0.2,0-0.4,0.2-0.4,0.4v1.8c-2.1,0.1-3.8,1.8-3.8,3.9c0,1.1,0.5,2.1,1.4,2.8h-1.2c-0.2,0-0.4,0.2-0.4,0.4c0,0.2,0.2,0.4,0.4,0.4
				h7.5c0.2,0,0.4-0.2,0.4-0.4C26.1,39.3,25.9,39.1,25.7,39.1L25.7,39.1z M24.2,35.9h-2.3v-0.9h2.3V35.9z M22.5,31.1h1.1v3.2h-1.1
				V31.1z M22.5,31.1"/>
			<path class="st0" d="M22.1,37.7c-0.2,0-0.4,0.2-0.4,0.4c0,0.2,0.2,0.4,0.4,0.4H24c0.2,0,0.4-0.2,0.4-0.4c0-0.2-0.2-0.4-0.4-0.4
				H22.1z M22.1,37.7"/>
		</g>
		<g>
			<path class="st0" d="M39,6.6c-0.3,0.2-2.3,0.6-3.6,0.9c-4.7,1.1-10.1-0.7-14.3,1.4c-6.5,3.3-9.6,7.3-9.6,7.3l0.2,0.1
				c1.4,1.1,3.5-0.8,7.4-3.2c0,0.1-0.2,0.5-0.3,0.6c-0.3,1.2,1.2,2.9,1.8,3.6c-1.2,0.6-2,1.8-2,3.2c0,2,1.6,3.6,3.6,3.6
				s3.6-1.6,3.6-3.6c0-0.9-0.3-1.7-0.9-2.4c1.2-0.9,2.9-1.4,5.4-1.9c2.6-0.4,4.7-2.8,5.7-4.2c1-1.5,3,0,3-0.2
				C38.9,10.4,39,6.6,39,6.6z M24.8,20.5c0,1.4-1.2,2.6-2.6,2.6s-2.6-1.2-2.6-2.6c0-1.4,1.2-2.6,2.6-2.6c0.3,0,0.6,0.1,0.9,0.2
				c0.1,0.3,0.2,0.6,0.3,0.8c0.1,0.2,0.5,0.3,0.7,0.1c0,0,0.1-0.1,0.1-0.1C24.6,19.3,24.8,19.9,24.8,20.5z M27.5,14.1
				c-0.2,0.9-2.8,0.7-4.1,2.4c-0.1,0.2-0.2,0.3-0.2,0.4c-0.1,0-0.3-0.1-0.5-0.1c-0.2-0.6-0.9-2.6-0.5-3.4c0.8-1.8,3.4-1.1,3.9-0.9
				C27.1,13,27.6,13.6,27.5,14.1z"/>
			<path class="st0" d="M22.3,20.3c-0.2-0.1-0.3-0.1-0.3-0.2s-0.1-0.1-0.1-0.3c0-0.1,0-0.2,0.1-0.3c0.1-0.1,0.1-0.1,0.3-0.1
				c0.1,0,0.2,0,0.3,0.1c0.1,0.1,0.1,0.2,0.1,0.4h0.6l0,0c0-0.3-0.1-0.5-0.2-0.6c-0.1-0.2-0.3-0.3-0.5-0.3v-0.4h-0.3v0.4
				c-0.2,0-0.4,0.1-0.6,0.3c-0.1,0.1-0.2,0.3-0.2,0.5c0,0.2,0.1,0.4,0.2,0.6c0.1,0.1,0.4,0.3,0.7,0.4c0.1,0.1,0.3,0.1,0.3,0.2
				c0.1,0.1,0.1,0.2,0.1,0.3c0,0.1,0,0.2-0.1,0.3c-0.1,0.1-0.2,0.1-0.3,0.1c-0.1,0-0.2,0-0.3-0.1s-0.1-0.2-0.1-0.4h-0.6l0,0
				c0,0.3,0.1,0.5,0.2,0.7c0.2,0.2,0.4,0.2,0.6,0.3v0.4h0.3V22c0.2,0,0.4-0.1,0.6-0.2s0.2-0.3,0.2-0.6c0-0.2-0.1-0.4-0.2-0.5
				C22.8,20.5,22.6,20.4,22.3,20.3z"/>
		</g>
	</g>
</g>
</svg>
