<?xml version="1.0" encoding="utf-8"?>
<!-- Generator: Adobe Illustrator 18.0.0, SVG Export Plug-In . SVG Version: 6.00 Build 0)  -->
<!DOCTYPE svg PUBLIC "-//W3C//DTD SVG 1.1//EN" "http://www.w3.org/Graphics/SVG/1.1/DTD/svg11.dtd">
<svg version="1.1" id="Layer_1" xmlns="http://www.w3.org/2000/svg" xmlns:xlink="http://www.w3.org/1999/xlink" x="0px" y="0px"
	 viewBox="0 0 50.5 50.5" style="enable-background:new 0 0 50.5 50.5;" xml:space="preserve">
<style type="text/css">
	.st0{fill:#65B4E1;}
</style>
<path class="st0" d="M13,16.9h9.8c0.4,0,0.8-0.4,0.8-0.8c0-0.4-0.4-0.8-0.8-0.8H13c-0.4,0-0.8,0.4-0.8,0.8
	C12.2,16.6,12.6,16.9,13,16.9z"/>
<path class="st0" d="M13,21.5h18.3c0.4,0,0.8-0.4,0.8-0.8s-0.4-0.8-0.8-0.8H13c-0.4,0-0.8,0.4-0.8,0.8S12.6,21.5,13,21.5z"/>
<path class="st0" d="M13,26.1h18.3c0.4,0,0.8-0.4,0.8-0.8c0-0.4-0.4-0.8-0.8-0.8H13c-0.4,0-0.8,0.4-0.8,0.8
	C12.2,25.7,12.6,26.1,13,26.1z"/>
<path class="st0" d="M10.5,47.2h23.4c2.3,0,4.1-1.8,4.1-4.1l-0.1-26.5v0l-6.8-7.2H10.5c-2.3,0-4.1,1.8-4.1,4.1v29.7
	C6.4,45.3,8.2,47.2,10.5,47.2z M35,16.2c-1.3,0-2.6,0-3.1,0l0-3.5L35,16.2z M8,13.4c0-1.3,1.1-2.4,2.4-2.4h19.5l0,6.2
	c0,0.5,0.4,0.9,0.9,0.9l0,0c0.4,0,3,0,5.3,0v25c0,1.3-1.1,2.4-2.4,2.4H10.5c-1.3,0-2.4-1.1-2.4-2.4V13.4z"/>
<path class="st0" d="M12.6,33c0.6,0.4,1.4,0.4,1.9-0.1l3.5,1.7c-0.1,0.6,0.1,1.2,0.6,1.6c0.3,0.2,0.7,0.3,1.1,0.3l1.2,3.9
	c-0.2,0.1-0.3,0.2-0.4,0.4c-0.2,0.3-0.4,0.7-0.3,1.2c0.1,0.4,0.3,0.8,0.6,1c0.3,0.2,0.7,0.4,1.2,0.3c0.4-0.1,0.8-0.3,1-0.6
	c0.1-0.2,0.2-0.3,0.2-0.5l4,0.1c0.1,0.4,0.3,0.7,0.6,0.9c0.3,0.2,0.6,0.3,0.9,0.3c0.1,0,0.1,0,0.2,0c0.4-0.1,0.8-0.3,1-0.6
	c0.5-0.7,0.4-1.6-0.3-2.2l1.3-3.9c0.5,0,0.9-0.3,1.1-0.6c0.5-0.7,0.4-1.7-0.3-2.2c-0.5-0.4-1.2-0.4-1.7-0.1l-3.2-2.4
	c0.1-0.6-0.1-1.2-0.6-1.6c-0.3-0.2-0.7-0.4-1.2-0.3c-0.4,0.1-0.8,0.3-1,0.6c-0.3,0.4-0.4,0.9-0.2,1.3l-3.3,2.3c0,0-0.1-0.1-0.1-0.1
	c-0.6-0.5-1.4-0.4-2,0.1L15,32.2c0.2-0.6,0-1.3-0.5-1.6c-0.3-0.2-0.7-0.4-1.2-0.3c-0.4,0.1-0.8,0.3-1,0.6
	C11.7,31.6,11.9,32.5,12.6,33z M20.7,35.9c0.3-0.3,0.4-0.8,0.3-1.2l3.4-2.4c0,0,0,0,0.1,0c0.6,0.4,1.4,0.4,2-0.1l3.1,2.3
	c-0.3,0.7-0.1,1.5,0.4,1.9c0.1,0,0.1,0.1,0.2,0.1l-1.3,3.8c-0.5,0-1,0.2-1.3,0.6c-0.1,0.1-0.1,0.2-0.2,0.4l-4.1-0.1
	c-0.1-0.3-0.3-0.6-0.5-0.7c-0.2-0.2-0.5-0.3-0.9-0.3l-1.3-4.1C20.6,36,20.7,36,20.7,35.9z"/>
<path class="st0" d="M40,39.5h-0.5v1.7H40c2.3,0,4.1-1.8,4.1-4.1V7.4c0-2.3-1.8-4.1-4.1-4.1H16.6c-2.3,0-4.1,1.8-4.1,4.1l0,0.6
	l1.7,0V7.4c0-1.3,1.1-2.4,2.4-2.4H40c1.3,0,2.4,1.1,2.4,2.4v29.7C42.4,38.4,41.4,39.5,40,39.5z"/>
</svg>
