<svg xmlns="http://www.w3.org/2000/svg" viewBox="0 0 50.46 50.46">
  <title>Iconos</title>
  <g>
    <path d="M28.31,22.69h-2a4.62,4.62,0,0,1-1,1.29h3.05a2.33,2.33,0,0,1,2.33,2.33V40.22a2.33,2.33,0,0,1-2.33,2.33h-12A2.33,2.33,0,0,1,14,40.22V26.3A2.33,2.33,0,0,1,16.33,24h2.86a4.62,4.62,0,0,1-1-1.29H16.33a3.62,3.62,0,0,0-3.61,3.61V40.22a3.62,3.62,0,0,0,3.61,3.61h12a3.62,3.62,0,0,0,3.61-3.61V26.3A3.62,3.62,0,0,0,28.31,22.69Z" fill="#00b5e4"/>
    <path d="M25,26h-5.6a0.62,0.62,0,1,0,0,1.24H25A0.62,0.62,0,0,0,25,26Z" fill="#00b5e4"/>
    <g>
      <path d="M25.66,39.12H21.93c-1.62,0-3.26-1-3.26-2.77a3.13,3.13,0,0,1,3-3.1v1H21.52a0.4,0.4,0,0,0-.4.4v1.67a0.4,0.4,0,0,0,.4.4h3.11a0.4,0.4,0,0,0,.4-0.4V34.69a0.4,0.4,0,0,0-.4-0.4H24.44V30.67a0.4,0.4,0,0,0-.4-0.4H22.12a0.4,0.4,0,0,0-.4.4v1.78a3.93,3.93,0,0,0-3.85,3.9,3.38,3.38,0,0,0,1.44,2.77H18.14a0.4,0.4,0,0,0,0,.8h7.53a0.4,0.4,0,1,0,0-.8h0Zm-1.43-3.17H21.93V35.09h2.31v0.86Zm-1.71-4.88h1.12v3.21H22.52V31.07Zm0,0" fill="#00b5e4"/>
      <path d="M22.12,37.69a0.4,0.4,0,0,0,0,.8H24a0.4,0.4,0,0,0,0-.8H22.12Zm0,0" fill="#00b5e4"/>
    </g>
    <g>
      <path d="M39,6.62c-0.34.17-2.35,0.57-3.62,0.86-4.66,1.08-10.06-.71-14.29,1.42a30,30,0,0,0-9.58,7.26L11.7,16.3c1.41,1.05,3.47-.76,7.37-3.21,0,0.11-.24.51-0.26,0.62-0.28,1.2,1.19,2.93,1.79,3.58a3.63,3.63,0,1,0,4.35.85,12.49,12.49,0,0,1,5.42-1.87c2.63-.45,4.73-2.76,5.7-4.21s3,0,3-.2C38.94,10.41,39,6.62,39,6.62ZM24.8,20.51a2.58,2.58,0,1,1-2.58-2.58,2.55,2.55,0,0,1,.88.17,2.35,2.35,0,0,0,.3.78,0.4,0.4,0,0,0,.65.05l0.1-.1A2.56,2.56,0,0,1,24.8,20.51Zm2.74-6.36c-0.18.91-2.82,0.71-4.07,2.44a2.19,2.19,0,0,0-.25.45,3.57,3.57,0,0,0-.45-0.1c-0.2-.57-0.9-2.63-0.55-3.44,0.79-1.81,3.42-1.12,3.93-.92C27.07,13,27.64,13.63,27.54,14.15Z" fill="#00b5e4"/>
      <path d="M22.3,20.29A0.9,0.9,0,0,1,22,20.1a0.36,0.36,0,0,1-.09-0.25A0.39,0.39,0,0,1,22,19.59a0.32,0.32,0,0,1,.26-0.1,0.31,0.31,0,0,1,.26.13,0.58,0.58,0,0,1,.1.36h0.57a0.92,0.92,0,0,0-.2-0.62,0.84,0.84,0,0,0-.55-0.29V18.62H22.1v0.43a0.92,0.92,0,0,0-.57.25,0.74,0.74,0,0,0-.21.55,0.72,0.72,0,0,0,.21.56,1.94,1.94,0,0,0,.65.36,0.85,0.85,0,0,1,.32.19,0.37,0.37,0,0,1,.09.26,0.35,0.35,0,0,1-.1.26,0.37,0.37,0,0,1-.28.1,0.44,0.44,0,0,1-.31-0.12,0.5,0.5,0,0,1-.12-0.38H21.21a0.84,0.84,0,0,0,.23.66,1,1,0,0,0,.61.26V22.4h0.32V22a0.94,0.94,0,0,0,.58-0.25,0.73,0.73,0,0,0,.21-0.55A0.71,0.71,0,0,0,23,20.66,2.1,2.1,0,0,0,22.3,20.29Z" fill="#00b5e4"/>
    </g>
  </g>
</svg>
