<svg id="Layer_1" data-name="Layer 1" xmlns="http://www.w3.org/2000/svg" viewBox="0 0 50.46 50.46"><defs><style>.cls-1,.cls-2{fill:none;stroke:#12b5e1;stroke-linecap:round;stroke-linejoin:round;}.cls-1{stroke-width:1.8px;}.cls-2{stroke-width:1.2px;}</style></defs><title>cinturon seguridad</title><line class="cls-1" x1="33.34" y1="23.42" x2="26.88" y2="16.96"/><polyline class="cls-1" points="26.88 16.96 25.85 15.93 21.27 20.5 22.84 24.19 20.92 26.11 24.47 29.66 26.39 27.74 30.12 29.34 34.69 24.77 33.34 23.42"/><polyline class="cls-1" points="17.91 28.64 15.42 31.13 19.49 35.19 21.97 32.71"/><rect class="cls-1" x="12.71" y="27.17" width="8.95" height="12.51" transform="translate(-18.6 21.95) rotate(-45)"/><polyline class="cls-1" points="2.31 42.68 11.3 33.87 16.75 39.32 7.95 47.95"/><line class="cls-2" x1="11.35" y1="39.27" x2="11.47" y2="39.15"/><line class="cls-2" x1="6.73" y1="43.89" x2="9.76" y2="40.86"/><polyline class="cls-1" points="42.88 2.51 27.54 17.62 33 23.07 48.15 8.15"/><line class="cls-2" x1="32.99" y1="17.63" x2="32.87" y2="17.75"/><line class="cls-2" x1="39.04" y1="11.57" x2="34.58" y2="16.04"/><line class="cls-1" x1="26.33" y1="20.28" x2="30.34" y2="24.29"/></svg>