<?xml version="1.0" encoding="utf-8"?>
<!-- Generator: Adobe Illustrator 24.0.1, SVG Export Plug-In . SVG Version: 6.00 Build 0)  -->
<svg version="1.1" id="Layer_1" xmlns="http://www.w3.org/2000/svg" xmlns:xlink="http://www.w3.org/1999/xlink" x="0px" y="0px"
	 viewBox="0 0 50.5 50.5" style="enable-background:new 0 0 50.5 50.5;" xml:space="preserve">
<g>
	<g>
		<path d="M25.25,37.141c-6.557,0-11.891-5.334-11.891-11.891s5.334-11.891,11.891-11.891s11.891,5.334,11.891,11.891
			S31.807,37.141,25.25,37.141z M25.25,14.959c-5.674,0-10.291,4.617-10.291,10.291c0,5.675,4.617,10.291,10.291,10.291
			s10.291-4.616,10.291-10.291C35.541,19.576,30.924,14.959,25.25,14.959z"/>
	</g>
	<g>
		<g>
			<path d="M9.665,25.916c-0.002,0-0.004,0-0.007,0l-4.052-0.035c-0.442-0.004-0.797-0.365-0.793-0.807
				c0.003-0.442,0.383-0.766,0.807-0.793l4.052,0.035c0.442,0.004,0.797,0.365,0.793,0.807
				C10.461,25.562,10.103,25.916,9.665,25.916z"/>
		</g>
		<g>
			<path d="M44.888,26.219c-0.002,0-0.004,0-0.007,0l-4.052-0.035c-0.442-0.004-0.797-0.365-0.793-0.807
				c0.003-0.442,0.345-0.804,0.807-0.793l4.052,0.035c0.442,0.004,0.797,0.365,0.793,0.807
				C45.684,25.865,45.326,26.219,44.888,26.219z"/>
		</g>
	</g>
	<g>
		<g>
			<path d="M25.384,10.464c-0.002,0-0.004,0-0.007,0c-0.442-0.004-0.797-0.365-0.793-0.807l0.035-4.052
				c0.003-0.442,0.329-0.786,0.807-0.793c0.442,0.004,0.797,0.365,0.793,0.807l-0.035,4.052
				C26.18,10.111,25.822,10.464,25.384,10.464z"/>
		</g>
		<g>
			<path d="M25.081,45.688c-0.002,0-0.004,0-0.007,0c-0.442-0.004-0.797-0.365-0.793-0.807l0.035-4.052
				c0.003-0.441,0.367-0.824,0.807-0.793c0.442,0.004,0.797,0.365,0.793,0.807l-0.035,4.052
				C25.877,45.334,25.52,45.688,25.081,45.688z"/>
		</g>
	</g>
	<g>
		<g>
			<g>
				<path d="M8.16,35.723c-0.279,0-0.55-0.146-0.697-0.405c-0.218-0.385-0.082-0.873,0.302-1.091l3.527-1.996
					c0.385-0.219,0.873-0.083,1.09,0.302s0.082,0.873-0.302,1.091l-3.527,1.996C8.428,35.689,8.293,35.723,8.16,35.723z"/>
			</g>
			<g>
				<path d="M38.815,18.374c-0.279,0-0.55-0.146-0.697-0.406c-0.218-0.384-0.082-0.873,0.302-1.09l3.527-1.996
					c0.385-0.218,0.872-0.083,1.09,0.302c0.218,0.384,0.082,0.873-0.302,1.09l-3.527,1.996
					C39.084,18.34,38.949,18.374,38.815,18.374z"/>
			</g>
		</g>
		<g>
			<g>
				<path d="M17.574,12.486c-0.279,0-0.55-0.146-0.697-0.406l-1.996-3.527c-0.218-0.384-0.082-0.873,0.302-1.09
					c0.385-0.219,0.872-0.083,1.09,0.302l1.996,3.527c0.218,0.384,0.082,0.873-0.302,1.09
					C17.843,12.452,17.708,12.486,17.574,12.486z"/>
			</g>
			<g>
				<path d="M34.924,43.142c-0.279,0-0.55-0.146-0.697-0.406l-1.996-3.527c-0.218-0.384-0.082-0.872,0.302-1.09
					c0.384-0.219,0.873-0.083,1.09,0.303l1.996,3.527c0.218,0.384,0.082,0.872-0.302,1.09
					C35.192,43.108,35.057,43.142,34.924,43.142z"/>
			</g>
		</g>
	</g>
	<g>
		<g>
			<path d="M15.284,42.973c-0.138,0-0.277-0.035-0.405-0.11c-0.381-0.225-0.508-0.715-0.284-1.096l2.057-3.492
				c0.224-0.38,0.713-0.51,1.095-0.283c0.381,0.225,0.508,0.715,0.284,1.096l-2.057,3.492
				C15.825,42.832,15.558,42.973,15.284,42.973z"/>
		</g>
		<g>
			<path d="M33.158,12.62c-0.138,0-0.277-0.036-0.405-0.111c-0.38-0.225-0.507-0.715-0.283-1.096l2.057-3.492
				c0.224-0.38,0.712-0.509,1.096-0.283c0.38,0.225,0.507,0.715,0.283,1.096l-2.057,3.492C33.699,12.479,33.432,12.62,33.158,12.62z
				"/>
		</g>
	</g>
	<g>
		<g>
			<path d="M11.818,18.142c-0.138,0-0.277-0.036-0.405-0.111l-3.492-2.057c-0.38-0.225-0.507-0.715-0.283-1.096
				c0.224-0.38,0.711-0.509,1.096-0.283l3.492,2.057c0.38,0.225,0.507,0.715,0.283,1.096C12.359,18,12.093,18.142,11.818,18.142z"/>
		</g>
		<g>
			<path d="M42.171,36.015c-0.138,0-0.277-0.035-0.405-0.11l-3.492-2.056c-0.381-0.225-0.508-0.715-0.284-1.096
				c0.223-0.38,0.713-0.509,1.095-0.283l3.492,2.056c0.381,0.225,0.508,0.715,0.284,1.096
				C42.713,35.874,42.446,36.015,42.171,36.015z"/>
		</g>
	</g>
</g>
</svg>
