<?xml version="1.0" encoding="utf-8"?>
<!-- Generator: Adobe Illustrator 24.0.1, SVG Export Plug-In . SVG Version: 6.00 Build 0)  -->
<svg version="1.1" id="Layer_1" xmlns="http://www.w3.org/2000/svg" xmlns:xlink="http://www.w3.org/1999/xlink" x="0px" y="0px"
	 viewBox="0 0 50.5 50.5" style="enable-background:new 0 0 50.5 50.5;" xml:space="preserve">
<g>
	<path d="M43,16.2c0-0.3,0.1-0.7,0.1-1c0-4.1-3.3-7.3-7.3-7.3c-2.6,0-5,1.4-6.3,3.6c-0.5-0.1-1.1-0.2-1.6-0.2
		c-2.9,0-5.4,1.7-6.6,4.2c-1.8-0.3-3.7,0.2-5.2,1.2c-0.6-0.2-1.2-0.3-1.9-0.3c-3,0-5.5,2.5-5.5,5.5c0,0.2,0,0.4,0,0.6
		c-1.7,1-2.8,2.8-2.8,4.7c0,3,2.5,5.5,5.5,5.5h5.3c0.4,0,0.8-0.4,0.8-0.8s-0.4-0.8-0.8-0.8h-5.3c-2.1,0-3.9-1.7-3.9-3.9
		c0-1.6,0.9-3,2.4-3.5c0.4-0.1,0.6-0.5,0.5-0.9c-0.1-0.3-0.1-0.6-0.1-0.9c0-2.1,1.7-3.9,3.9-3.9c0.6,0,1.1,0.1,1.6,0.4
		c0.8,0.4,1.4,1,1.8,1.8c0.2,0.4,0.6,0.5,1,0.4c2-0.6,4.1,0.5,4.8,2.4c0.1,0.4,0.5,0.6,1,0.5c0.3-0.1,0.6-0.1,0.9-0.1
		c2.1,0,3.9,1.7,3.9,3.9c0,0.6-0.1,1.2-0.4,1.7c-0.4,0.9-1.2,1.6-2.2,1.9c-0.4,0.1-0.6,0.6-0.5,1c0.1,0.4,0.6,0.6,1,0.5
		c1.2-0.4,2.1-1.2,2.8-2.3h9.4h0.1c0.1,0,0.2,0,0.3,0c4.1,0,7.3-3.3,7.3-7.4C46.9,20,45.4,17.5,43,16.2z M39.6,28.5
		c-0.1,0-0.2,0-0.3,0h-0.1c-0.1,0-0.1,0-0.2,0h-8.5l0,0c0-0.1,0.1-0.3,0.1-0.4s0-0.1,0-0.2c0-0.2,0-0.4,0-0.6c0-3-2.4-5.5-5.5-5.5
		c-0.2,0-0.4,0-0.6,0c-1.1-2.1-3.5-3.3-5.9-2.9c-0.1-0.2-0.3-0.4-0.5-0.7C18,18.1,18,18.1,17.9,18s-0.3-0.3-0.4-0.4c0,0,0,0-0.1-0.1
		c1.2-0.6,2.6-0.8,3.9-0.5c0.4,0.1,0.8-0.1,0.9-0.5c0.8-2.3,3-3.8,5.4-3.8c0.6,0,1.2,0.1,1.8,0.3c0.4,0.1,0.8-0.1,1-0.4
		c0.9-2,3-3.2,5.2-3.2c3.2,0,5.7,2.6,5.7,5.8c0,0.4,0,0.9-0.1,1.3s0.1,0.8,0.5,0.9c2.1,0.9,3.5,3,3.5,5.3
		C45.3,25.9,42.7,28.5,39.6,28.5z"/>
	<path d="M25.8,34h-2.3l2.7-4.6c0.1-0.2,0.1-0.6,0-0.8s-0.4-0.4-0.7-0.4h-4.8c-0.3,0-0.6,0.2-0.7,0.5l-3.4,7.7
		c-0.1,0.2-0.1,0.5,0.1,0.8c0.1,0.2,0.4,0.4,0.7,0.4h1.4l-2.4,5.6c-0.1,0.4,0,0.8,0.3,1c0.1,0.1,0.3,0.1,0.4,0.1
		c0.2,0,0.4-0.1,0.6-0.2l8.8-8.7c0.2-0.2,0.3-0.6,0.2-0.9C26.4,34.2,26.1,34,25.8,34z M19.4,40l1.3-3c0.1-0.2,0.1-0.5-0.1-0.8
		s-0.4-0.4-0.7-0.4h-1.4l2.7-6.1h2.9l-2.7,4.6c-0.1,0.2-0.1,0.6,0,0.8s0.4,0.4,0.7,0.4h1.7L19.4,40z"/>
	<path d="M9.1,33.7c-0.4-0.2-0.9,0-1.1,0.4l-2,4.6c-0.2,0.4,0,0.9,0.4,1.1c0.1,0,0.2,0.1,0.3,0.1c0.3,0,0.6-0.2,0.7-0.5l2-4.6
		C9.7,34.4,9.5,33.9,9.1,33.7z"/>
	<path d="M10.6,37.4c-0.4-0.2-0.9,0-1.1,0.4l-1.6,3.7c-0.2,0.4,0,0.9,0.4,1.1c0.1,0,0.2,0.1,0.3,0.1c0.3,0,0.6-0.2,0.7-0.5l1.6-3.7
		C11.2,38.1,11,37.6,10.6,37.4z"/>
	<path d="M12.2,33.7c-0.4-0.2-0.9,0-1.1,0.4l-0.8,1.7c-0.2,0.4,0,0.9,0.4,1.1c0.1,0,0.2,0.1,0.3,0.1c0.3,0,0.6-0.2,0.7-0.5l0.8-1.7
		C12.8,34.4,12.6,33.9,12.2,33.7z"/>
	<path d="M15.3,33.7c-0.4-0.2-0.9,0-1.1,0.4l-2,4.6c-0.2,0.4,0,0.9,0.4,1.1c0.1,0,0.2,0.1,0.3,0.1c0.3,0,0.6-0.2,0.7-0.5l2-4.6
		C15.9,34.4,15.7,33.9,15.3,33.7z"/>
</g>
</svg>
