<?xml version="1.0" encoding="utf-8"?>
<!-- Generator: Adobe Illustrator 24.0.1, SVG Export Plug-In . SVG Version: 6.00 Build 0)  -->
<svg version="1.1" id="Layer_1" xmlns="http://www.w3.org/2000/svg" xmlns:xlink="http://www.w3.org/1999/xlink" x="0px" y="0px"
	 viewBox="0 0 50.5 50.5" style="enable-background:new 0 0 50.5 50.5;" xml:space="preserve">
<g>
	<path d="M34.573,30.315c3.889,0,7.052-3.163,7.052-7.052c0-2.643-1.461-5.027-3.772-6.236c0.047-0.326,0.07-0.652,0.07-0.982
		c0-3.889-3.164-7.052-7.052-7.052c-2.478,0-4.78,1.324-6.034,3.421c-0.508-0.114-1.026-0.172-1.547-0.172
		c-2.742,0-5.225,1.598-6.371,4.038c-0.325-0.047-0.658-0.071-0.994-0.071c-3.889,0-7.052,3.163-7.052,7.052
		c0,3.889,3.164,7.052,7.052,7.052H34.573z M15.927,28.78c-3.042,0-5.517-2.475-5.517-5.517c0-3.042,2.475-5.516,5.517-5.516
		c0.44,0,0.87,0.052,1.276,0.154c0.38,0.097,0.776-0.114,0.91-0.486c0.778-2.174,2.859-3.635,5.178-3.635
		c0.577,0,1.148,0.09,1.699,0.268c0.365,0.119,0.763-0.053,0.929-0.4c0.902-1.894,2.846-3.117,4.953-3.117
		c3.042,0,5.517,2.475,5.517,5.516c0,0.418-0.048,0.826-0.147,1.249c-0.086,0.366,0.106,0.74,0.453,0.884
		c2.062,0.857,3.396,2.853,3.396,5.084c0,3.042-2.475,5.517-5.517,5.517H15.927z"/>
	<path d="M20.668,31.526c-0.669,0-1.213,0.544-1.213,1.213c0,0.668,0.544,1.212,1.213,1.212c0.669,0,1.213-0.544,1.213-1.212
		C21.881,32.069,21.337,31.526,20.668,31.526z"/>
	<path d="M20.668,36.859c-0.669,0-1.213,0.544-1.213,1.213c0,0.669,0.544,1.213,1.213,1.213c0.669,0,1.213-0.544,1.213-1.213
		C21.881,37.403,21.337,36.859,20.668,36.859z"/>
	<path d="M25.757,33.747c-0.669,0-1.213,0.544-1.213,1.212c0,0.669,0.544,1.213,1.213,1.213c0.669,0,1.213-0.544,1.213-1.213
		C26.97,34.291,26.426,33.747,25.757,33.747z"/>
	<path d="M25.757,39.081c-0.669,0-1.213,0.544-1.213,1.213c0,0.668,0.544,1.212,1.213,1.212c0.669,0,1.213-0.544,1.213-1.212
		C26.97,39.625,26.426,39.081,25.757,39.081z"/>
	<path d="M31.411,31.526c-0.669,0-1.213,0.544-1.213,1.213c0,0.668,0.544,1.212,1.213,1.212c0.669,0,1.213-0.544,1.213-1.212
		C32.623,32.069,32.08,31.526,31.411,31.526z"/>
	<path d="M31.411,36.859c-0.669,0-1.213,0.544-1.213,1.213c0,0.669,0.544,1.213,1.213,1.213c0.669,0,1.213-0.544,1.213-1.213
		C32.623,37.403,32.08,36.859,31.411,36.859z"/>
</g>
</svg>
