<?xml version="1.0" encoding="utf-8"?>
<!-- Generator: Adobe Illustrator 24.0.1, SVG Export Plug-In . SVG Version: 6.00 Build 0)  -->
<svg version="1.1" id="Layer_1" xmlns="http://www.w3.org/2000/svg" xmlns:xlink="http://www.w3.org/1999/xlink" x="0px" y="0px"
	 viewBox="0 0 50.5 50.5" style="enable-background:new 0 0 50.5 50.5;" xml:space="preserve">
<g>
	<path d="M40.2,17.3c0-0.3,0.1-0.6,0.1-1c0-3.9-3.1-7-7-7c-2.4,0-4.7,1.3-6,3.4c-0.5-0.1-1-0.2-1.5-0.2c-2.6,0-4.9,1.4-6.1,3.6
		c-0.8-0.4-1.8-0.5-2.7-0.4c-0.8-1.2-2.2-2-3.7-2c-2.5,0-4.5,2-4.5,4.5c0,0.1,0,0.3,0,0.4c-1.4,0.8-2.2,2.3-2.2,3.9
		c0,2.5,2,4.5,4.5,4.5c0.1,0,0.1,0,0.2,0c0,0,0,0,0.1,0h1.3c1.3,2.1,3.5,3.4,6,3.4H29c0.4,0,0.8-0.4,0.8-0.8s-0.4-0.8-0.8-0.8H18.5
		c-1.6,0-3-0.7-4-1.8h7.2h0.1c0.1,0,0.2,0,0.3,0c2.5,0,4.5-2,4.5-4.5c0-2.6-2.3-4.7-4.9-4.5c-0.1-0.2-0.3-0.5-0.5-0.7
		c0-0.1-0.1-0.1-0.1-0.1c0-0.1-0.1-0.1-0.1-0.2c0.9-1.8,2.8-3,4.8-3c0.6,0,1.1,0.1,1.7,0.3c0.4,0.1,0.8,0,1-0.4
		c0.9-1.9,2.8-3.1,4.9-3.1c3,0,5.4,2.4,5.4,5.4c0,0.4,0,0.8-0.1,1.2c-0.1,0.4,0.1,0.8,0.5,0.9c2,0.8,3.3,2.8,3.3,5
		c0,2.1-1.2,4-3.1,4.9c-0.4,0.2-0.6,0.7-0.4,1.1s0.7,0.6,1.1,0.4c2.4-1.2,4-3.6,4-6.3C44,20.9,42.5,18.5,40.2,17.3z M21.1,19.8
		c0.1,0,0.2,0,0.3,0c1.9-0.4,3.6,1,3.6,2.8c0,1.6-1.3,2.9-2.9,2.9c-0.1,0-0.2,0-0.4,0c-0.1,0-0.1,0-0.2,0H13h-1.6
		c-0.1,0-0.2,0-0.2,0h-0.1c-1.6,0-2.9-1.3-2.9-2.9c0-1.2,0.7-2.2,1.8-2.7c0.4-0.2,0.6-0.5,0.5-0.9c0-0.2-0.1-0.4-0.1-0.7
		c0-1.6,1.3-2.9,2.9-2.9c1.1,0,2.1,0.6,2.6,1.7c0.2,0.4,0.6,0.5,1,0.4c0.8-0.3,1.9-0.1,2.7,0.5c0.4,0.3,0.8,0.8,1,1.3
		C20.5,19.5,20.8,19.7,21.1,19.8z"/>
	<path d="M38.4,32.5h-2.7l1.4-2.4l0,0l1.7-2.8c0.1-0.2,0.1-0.6,0-0.8S38.4,26,38.1,26h-5.3c-0.3,0-0.6,0.2-0.7,0.5L28.3,35
		c-0.1,0.2-0.1,0.5,0.1,0.8s0.4,0.4,0.7,0.4h1.7l-2.7,6.3c-0.1,0.4,0,0.8,0.3,1c0.1,0.1,0.3,0.1,0.4,0.1c0.2,0,0.4-0.1,0.6-0.2
		l9.7-9.5c0.2-0.2,0.3-0.6,0.2-0.9C39,32.7,38.7,32.5,38.4,32.5z M31,39.4l1.6-3.7c0.1-0.2,0.1-0.5-0.1-0.8
		c-0.1-0.2-0.4-0.4-0.7-0.4h-1.6l2-4.5l0,0l1.1-2.4h3.4l-3.1,5.2c-0.1,0.2-0.1,0.6,0,0.8S34,34,34.3,34h2.1L31,39.4z"/>
	<path d="M10.7,36l-1.4,1.7C9,38,9.1,38.5,9.4,38.8C9.6,39,9.7,39,9.9,39s0.5-0.1,0.6-0.3L12,37c0.3-0.3,0.2-0.8-0.1-1.1
		C11.5,35.6,11,35.7,10.7,36z"/>
	<path d="M15.5,31.6c-0.3-0.3-0.8-0.2-1.1,0.1l-2.2,2.7c-0.3,0.3-0.2,0.8,0.1,1.1c0.1,0.1,0.3,0.2,0.5,0.2s0.5-0.1,0.6-0.3l2.2-2.7
		C15.9,32.4,15.8,31.8,15.5,31.6z"/>
	<path d="M19.4,31.6c-0.3-0.3-0.8-0.2-1.1,0.1L14.6,36c-0.3,0.3-0.2,0.8,0.1,1.1c0.1,0.1,0.3,0.2,0.5,0.2s0.5-0.1,0.6-0.3l3.6-4.3
		C19.8,32.4,19.7,31.8,19.4,31.6z"/>
	<path d="M19.4,35l-3.1,3.8c-0.3,0.2-0.3,0.7,0.1,1c0.1,0.1,0.3,0.2,0.5,0.2s0.5-0.1,0.6-0.3l3.1-3.8c0.3-0.3,0.2-0.8-0.1-1.1
		C20.2,34.6,19.7,34.6,19.4,35z"/>
	<path d="M23.3,31.6c-0.3-0.3-0.8-0.2-1.1,0.1l-1.4,1.6c-0.3,0.3-0.2,0.8,0.1,1.1c0.1,0.1,0.3,0.2,0.5,0.2s0.5-0.1,0.6-0.3l1.4-1.6
		C23.7,32.3,23.6,31.8,23.3,31.6z"/>
	<path d="M26,31.7L22.4,36c-0.3,0.3-0.2,0.8,0.1,1.1c0.1,0.1,0.3,0.2,0.5,0.2s0.5-0.1,0.6-0.3l3.6-4.3c0.3-0.3,0.2-0.8-0.1-1.1
		S26.3,31.3,26,31.7z"/>
</g>
</svg>
