<?xml version="1.0" encoding="utf-8"?>
<!-- Generator: Adobe Illustrator 18.0.0, SVG Export Plug-In . SVG Version: 6.00 Build 0)  -->
<!DOCTYPE svg PUBLIC "-//W3C//DTD SVG 1.1//EN" "http://www.w3.org/Graphics/SVG/1.1/DTD/svg11.dtd">
<svg version="1.1" id="Layer_1" xmlns="http://www.w3.org/2000/svg" xmlns:xlink="http://www.w3.org/1999/xlink" x="0px" y="0px"
	 viewBox="0 0 50.5 50.5" style="enable-background:new 0 0 50.5 50.5;" xml:space="preserve">
<style type="text/css">
	.st0{fill:#65B4E1;}
</style>
<path class="st0" d="M44.3,9.6H6.2c-1.7,0-3.1,1.4-3.1,3.1v25c0,1.7,1.4,3.1,3.1,3.1h38.1c1.7,0,3.1-1.4,3.1-3.1v-25
	C47.4,11,46,9.6,44.3,9.6z M45.6,37.7c0,0.7-0.6,1.3-1.3,1.3H6.2c-0.7,0-1.3-0.6-1.3-1.3v-25c0-0.7,0.6-1.3,1.3-1.3h38.1
	c0.7,0,1.3,0.6,1.3,1.3V37.7z"/>
<path class="st0" d="M10.8,23.2c0.3-0.4,0.7-0.6,1.2-0.6c0.5,0,0.9,0.1,1.1,0.3s0.4,0.6,0.4,1.1h1.6c-0.1-0.9-0.4-1.6-1-2.1
	c-0.6-0.5-1.3-0.8-2.2-0.8c-0.7,0-1.3,0.2-1.8,0.5c-0.5,0.3-0.9,0.8-1.2,1.3c-0.3,0.6-0.4,1.3-0.4,2v0.5c0,1.2,0.3,2.1,0.9,2.8
	s1.4,1,2.4,1c0.9,0,1.7-0.2,2.2-0.7c0.6-0.5,0.9-1.2,0.9-2h-1.6c0,0.5-0.2,0.8-0.4,1.1c-0.2,0.2-0.6,0.3-1.1,0.3
	c-0.6,0-1-0.2-1.2-0.6c-0.3-0.4-0.4-1-0.4-1.9V25C10.4,24.2,10.5,23.6,10.8,23.2z"/>
<polygon class="st0" points="17.9,21.4 16.3,21.4 16.3,29.3 21.4,29.3 21.4,28 17.9,28 "/>
<path class="st0" d="M26.6,26.7c0,1-0.5,1.4-1.4,1.4c-0.4,0-0.8-0.1-1-0.4c-0.2-0.2-0.4-0.6-0.4-1.1v-5.2h-1.6v5.3
	c0,0.9,0.3,1.5,0.8,2c0.5,0.5,1.3,0.7,2.2,0.7c0.9,0,1.7-0.3,2.2-0.8c0.5-0.5,0.8-1.2,0.8-2.1v-5.2h-1.6V26.7z"/>
<path class="st0" d="M32.4,22.6c0.4,0,0.7,0.1,1,0.3c0.2,0.2,0.3,0.5,0.3,0.8h1.6c0-0.5-0.1-0.9-0.4-1.3c-0.2-0.4-0.6-0.7-1-0.9
	c-0.4-0.2-1-0.4-1.5-0.4c-0.6,0-1,0.2-1.5,0.4s-0.8,0.5-1,0.8c-0.2,0.3-0.4,0.7-0.4,1.1c0,0.8,0.5,1.5,1.4,2
	c0.3,0.2,0.8,0.4,1.3,0.5c0.6,0.2,1,0.4,1.2,0.5c0.2,0.2,0.3,0.4,0.3,0.7c0,0.3-0.1,0.5-0.3,0.7c-0.2,0.2-0.5,0.2-0.9,0.2
	c-1,0-1.6-0.4-1.6-1.3h-1.6c0,0.5,0.1,1,0.4,1.4c0.3,0.4,0.6,0.7,1.1,0.9c0.5,0.2,1.1,0.3,1.7,0.3c0.9,0,1.6-0.2,2.1-0.6
	c0.5-0.4,0.8-0.9,0.8-1.6c0-0.6-0.2-1.1-0.6-1.5c-0.4-0.4-1.1-0.8-2-1c-0.5-0.2-0.9-0.3-1.1-0.5c-0.3-0.2-0.4-0.4-0.4-0.6
	c0-0.3,0.1-0.5,0.3-0.7C31.6,22.7,32,22.6,32.4,22.6z"/>
<polygon class="st0" points="38,25.9 41.2,25.9 41.2,24.6 38,24.6 38,22.7 41.7,22.7 41.7,21.4 36.4,21.4 36.4,29.3 41.7,29.3 
	41.7,28 38,28 "/>
</svg>
