<?xml version="1.0" encoding="utf-8"?>
<!-- Generator: Adobe Illustrator 16.0.0, SVG Export Plug-In . SVG Version: 6.00 Build 0)  -->
<!DOCTYPE svg PUBLIC "-//W3C//DTD SVG 1.1//EN" "http://www.w3.org/Graphics/SVG/1.1/DTD/svg11.dtd">
<svg version="1.1" id="Layer_1" xmlns="http://www.w3.org/2000/svg" xmlns:xlink="http://www.w3.org/1999/xlink" x="0px" y="0px"
	 width="1366px" height="557px" viewBox="0 0 1366 557" enable-background="new 0 0 1366 557" xml:space="preserve">
<g>
	<path d="M1199.449,281.855c-18.137-22.486-76.058-48.324-97.711-54.892c-0.091-0.026-111.96-105.765-119.916-114.854
		c-11.844-13.581-23.688-22.138-39.325-29.125c-32.385-14.456-77.261-24.612-112.421-24.68c-170.252-0.14-274.627-0.51-449.6-0.648
		c-32.661-0.025-45.614,6.707-55.886,24.705c-39.881,69.72-35.44,171.664-35.44,248.946c0,18.023,3.147,20.242,7.033,26.674
		c-24.24,0-12.215,0.162-26.832,0.162v6.593c1.296,4.025,5.366,41.847,25.813,41.847H401.11
		c4.718-47.49,44.783-84.549,93.549-84.549c50.979,0,92.434,40.552,93.916,91.141h409.071c1.479-50.589,42.933-91.141,93.916-91.141
		c50.98,0,92.526,40.552,94.01,91.141h4.347h2.961c2.499,0.51,30.352-15.982,28.779-19.085v-41.15h-17.028
		C1207.038,328.118,1199.449,286.873,1199.449,281.855"/>
	<path d="M492.992,350.188c41.177,0,74.486,33.381,74.486,74.53c0,41.223-33.311,74.604-74.486,74.604
		c-41.27,0-74.576-33.381-74.576-74.604C418.416,383.567,451.724,350.188,492.992,350.188z"/>
	<path fill="#FFFFFF" d="M492.992,387.754c20.354,0,36.92,16.563,36.92,36.964c0,20.449-16.565,36.988-36.92,36.988
		c-20.451,0-37.01-16.539-37.01-36.988C455.982,404.317,472.542,387.754,492.992,387.754z"/>
	<path d="M1091.563,350.188c41.174,0,74.576,33.381,74.576,74.53c0,41.223-33.402,74.604-74.576,74.604
		c-41.177,0-74.582-33.381-74.582-74.604C1016.98,383.567,1050.387,350.188,1091.563,350.188z"/>
	<path fill="#FFFFFF" d="M1091.563,387.754c20.447,0,37.012,16.563,37.012,36.964c0,20.449-16.563,36.988-37.012,36.988
		c-20.357,0-36.92-16.539-36.92-36.988C1054.645,404.317,1071.205,387.754,1091.563,387.754z"/>
	<path fill="#FFFFFF" d="M953.6,122.75l13.789,102.06l50.521,2.475c12.397,0.578,25.628-7.541,14.433-19.963
		C1021.146,194.971,963.314,126.499,953.6,122.75z"/>
	<path fill="#FFFFFF" d="M944.627,224.164l-11.199-104.259l-91.973-3.861c-5.736-0.347-13.047,4.904-12.954,10.363l0.74,83.854
		c0.097,5.482,4.722,10.2,10.362,10.385L944.627,224.164z"/>
	<polygon fill="#FFFFFF" points="417.676,260.85 671.665,260.85 671.665,277.367 668.335,280.677 421.005,280.677 417.675,277.367 
		417.675,260.85 	"/>
</g>
</svg>
