<?xml version="1.0" encoding="utf-8"?>
<!-- Generator: Adobe Illustrator 16.0.0, SVG Export Plug-In . SVG Version: 6.00 Build 0)  -->
<!DOCTYPE svg PUBLIC "-//W3C//DTD SVG 1.1//EN" "http://www.w3.org/Graphics/SVG/1.1/DTD/svg11.dtd">
<svg version="1.1" id="Layer_1" xmlns="http://www.w3.org/2000/svg" xmlns:xlink="http://www.w3.org/1999/xlink" x="0px" y="0px"
	 width="1366px" height="557px" viewBox="0 0 1366 557" enable-background="new 0 0 1366 557" xml:space="preserve">
<g>
	<path d="M1133.383,324.196c-8.326-10.271-19.546-24.565-53.457-51.213c-6.686-16.469-73.188-90.168-92.554-115.221
		c-17.601-22.806-37.194-57.969-72.123-68.261c-22.278-6.55-45.688-10.319-67.224-10.343H833.5v-7.773l-111.404-0.853v8.487
		l-99.632-0.112v-7.522h-240.46l-0.786,7.288L256.075,78.56c-17.442,0-30.743,8.813-39.188,26.184
		c-26.368,54.336-28.126,195.119-28.126,259.1c0,16.336,0.694,18.369,4.208,24.199l-22.089,0.092v5.968
		c1.179,3.61,4.902,37.801,23.317,37.801l110.572,5.737c-0.025-0.791-0.046-1.574-0.046-2.36c0-47.839,38.745-86.608,86.604-86.608
		c47.815,0,86.608,38.771,86.608,86.608c0,1.063-0.047,2.126-0.071,3.236l125.47-0.602h330.675
		c1.343-45.803,38.515-87.718,84.642-87.718c46.078,0,83.876,41.915,85.218,87.718h3.956h2.708
		c2.291,0.419,52.601,0.929,51.145-1.85v-43.26h-10.687l-2.848-43.069L1133.383,324.196z"/>
	<path d="M1018.926,367.872c37.243,0,67.432,30.162,67.432,67.407c0,37.244-30.188,67.405-67.432,67.405
		c-37.268,0-67.406-30.161-67.406-67.405C951.52,398.034,981.658,367.872,1018.926,367.872z"/>
	<path d="M391.327,367.872c37.245,0,67.432,30.162,67.432,67.407c0,37.244-30.187,67.405-67.432,67.405
		c-37.266,0-67.428-30.161-67.428-67.405C323.899,398.034,354.061,367.872,391.327,367.872z"/>
	<path fill="#FFFFFF" d="M390.959,163.614h195.372c5.159,0,9.368,4.421,9.368,9.394v77.353c0,4.951-4.393,9.346-9.368,9.346H390.959
		c-4.973,0-9.368-4.21-9.368-9.346v-77.353C381.591,167.846,385.824,163.614,390.959,163.614"/>
	<path fill="#FFFFFF" d="M630.863,163.614h191.023c5.158,0,9.392,4.351,9.392,9.394v77.353c0,4.997-4.349,9.346-9.392,9.346H630.863
		c-5.02,0-9.395-4.21-9.395-9.346v-77.353C621.469,167.846,625.702,163.614,630.863,163.614z"/>
	<path fill="#FFFFFF" d="M283.396,163.614h53.917c5.161,0,9.369,4.421,9.369,9.394v77.353c0,4.951-4.417,9.346-9.369,9.346h-53.917
		c-4.977,0-9.369-4.21-9.369-9.346v-77.353C274.026,167.846,278.235,163.614,283.396,163.614z"/>
	<path fill="#FFFFFF" d="M981.105,279.924l-27.873-111.889l-55.102-3.494c-5.161-0.325-9.812,4.254-9.394,9.39l7.751,92.207
		c0.413,5.091,4.255,9.115,9.367,9.39L981.105,279.924z"/>
	<path fill="#FFFFFF" d="M971.412,170.625l27.875,111.982l37.683,2.453c11.195,0.739,22.348-6.061,13.045-18.044l-65.138-83.645
		C981.939,177.333,977.406,172.891,971.412,170.625z"/>
	<path fill="#FFFFFF" d="M1018.926,401.83c18.483,0,33.403,14.988,33.403,33.449c0,18.457-14.92,33.399-33.403,33.399
		c-18.459,0-33.426-14.942-33.426-33.399C985.5,416.818,1000.467,401.83,1018.926,401.83"/>
	<path fill="#FFFFFF" d="M391.327,401.83c18.481,0,33.425,14.988,33.425,33.449c0,18.457-14.943,33.399-33.425,33.399
		c-18.482,0-33.426-14.942-33.426-33.399C357.901,416.818,372.845,401.83,391.327,401.83"/>
</g>
</svg>
