<?xml version="1.0" encoding="utf-8"?>
<!-- Generator: Adobe Illustrator 16.0.0, SVG Export Plug-In . SVG Version: 6.00 Build 0)  -->
<!DOCTYPE svg PUBLIC "-//W3C//DTD SVG 1.1//EN" "http://www.w3.org/Graphics/SVG/1.1/DTD/svg11.dtd">
<svg version="1.1" id="Layer_1" xmlns="http://www.w3.org/2000/svg" xmlns:xlink="http://www.w3.org/1999/xlink" x="0px" y="0px"
	 width="1366px" height="557px" viewBox="0 0 1366 557" enable-background="new 0 0 1366 557" xml:space="preserve">
<g>
	<path d="M399.754,397.633c35.833,0,64.862,29.006,64.862,64.862c0,35.808-29.029,64.863-64.862,64.863
		c-35.879,0-64.889-29.057-64.889-64.863C334.865,426.639,363.875,397.633,399.754,397.633z"/>
	<path d="M1046.122,397.633c35.809,0,64.862,29.006,64.862,64.862c0,35.808-29.055,64.863-64.862,64.863
		c-35.809,0-64.862-29.057-64.862-64.863C981.26,426.639,1010.314,397.633,1046.122,397.633z"/>
	<path d="M1084.709,278.592l66.807,39.832c7.123,5.602,11.566,22.858,17.117,38.864c4.257,1.757,19.153,6.803,19.153,12.86v75.645
		c-1.388,9.485-8.052,17.258-11.566,23.645l-44.044,4.255c0.74-4.441,1.111-8.979,1.111-13.604c0-49.41-40.066-89.476-89.572-89.476
		c-49.408,0-89.384,40.064-89.384,89.476c0,5.509,0.465,10.921,1.388,16.193c-93.176-2.127-373.312-3.377-467.575-3.562
		c0.576-4.119,0.902-8.327,0.902-12.633c0-49.41-40.066-89.476-89.48-89.476c-49.409,0-89.476,40.064-89.476,89.476
		c0,3.01,0.138,6.015,0.438,8.933c-18.156-4.814-65.765-9.438-66.32-28.918c-0.553-19.382-1.363-52.512-1.455-60.281
		c-0.024-2.823,8.095-3.842,8.074-6.709l6.129-266.208c6.336-26.397,26.302-39.211,41.313-40.066l66.969,0.092V45.876h113.604
		v21.189l108.377,0.189V45.876h113.559v21.537l143.726,0.139l0.367,37.777c59.962,0.094,124.269,5.275,179.509,37.173l-4.811,12.261
		l-7.771,10.756L1084.709,278.592z"/>
	<path fill="#FFFFFF" d="M995.045,181.252c-1.111-0.858-2.313-1.739-3.515-2.387c-2.961-1.571-6.477-2.636-9.716-3.398
		l-66.065-2.012c-2.871-0.118-7.404,0.066-9.53,2.474c-1.479,1.667-1.572,4.166-1.296,6.223l4.067,77.795
		c1.389,5.783,3.796,12.399,8.701,16.192c2.498,2.036,5.55,3.056,8.694,3.611l86.888,8.141l31.184-22.9l-0.093-10.225
		L995.045,181.252z"/>
	<path fill="#FFFFFF" d="M855.604,172.113h22.58c3.698,0,6.659,2.983,6.659,6.589v91.978c0,3.606-3.054,6.569-6.659,6.569h-22.58
		c-3.608,0-6.567-2.917-6.567-6.569v-91.978C849.035,175.072,851.994,172.113,855.604,172.113"/>
	<path fill="#FFFFFF" d="M582.061,159.527h77.309c3.611,0,6.57,3.007,6.57,6.594v91.974c0,3.611-2.959,6.57-6.57,6.57h-77.309
		c-3.585,0-6.594-2.913-6.594-6.57v-91.974C575.467,162.488,578.43,159.527,582.061,159.527"/>
	<path fill="#FFFFFF" d="M477.733,159.527h77.285c3.633,0,6.592,3.007,6.592,6.594v91.974c0,3.611-2.984,6.57-6.592,6.57h-77.285
		c-3.61,0-6.618-2.913-6.618-6.57v-91.974C471.115,162.488,474.078,159.527,477.733,159.527"/>
	<path fill="#FFFFFF" d="M326.236,159.527h22.604c3.631,0,6.59,2.987,6.59,6.594v91.974c0,3.611-2.983,6.57-6.59,6.57h-22.604
		c-3.606,0-6.594-2.913-6.594-6.57v-91.974C319.643,162.488,322.604,159.527,326.236,159.527"/>
	<path fill="#FFFFFF" d="M399.754,430.295c17.764,0,32.151,14.438,32.151,32.2c0,17.766-14.389,32.157-32.151,32.157
		c-17.789,0-32.178-14.393-32.178-32.157C367.576,444.732,381.965,430.295,399.754,430.295"/>
	<path fill="#FFFFFF" d="M1046.122,430.295c17.769,0,32.202,14.438,32.202,32.2c0,17.766-14.435,32.157-32.202,32.157
		c-17.765,0-32.201-14.393-32.201-32.157C1013.921,444.732,1028.358,430.295,1046.122,430.295"/>
</g>
</svg>
