<?xml version="1.0" encoding="UTF-8"?>
<svg xmlns="http://www.w3.org/2000/svg" width="50.46" height="50.46" version="1.1" viewBox="0 0 50.46 50.46">
  <!-- Generator: Adobe Illustrator 28.7.1, SVG Export Plug-In . SVG Version: 1.2.0 Build 142)  -->
  <g>
    <g id="stroke_1_x2C_6">
      <path d="M29.286,40.807c-2.711.883-5.475.849-8.119.002-2.526,1.86-5.69,1.791-8.366.242-1.491,1.354-3.582,1.679-5.417.747-1.659-.843-2.761-2.702-2.544-4.703.197-1.816,1.452-3.462,3.338-4.038.002-3.108,1.525-5.878,4.401-7.135.577-2.723,1.962-5.143,4.056-7.022-.338-3.107,1.258-5.811,3.978-7.384-.431-1.947.348-3.878,1.926-4.971,1.604-1.111,3.716-1.129,5.336-.034,1.605,1.085,2.412,3.036,1.974,5.004,2.751,1.603,4.28,4.246,3.993,7.383,2.049,1.885,3.486,4.301,4.036,7.023,2.882,1.253,4.408,4.039,4.405,7.135,1.888.578,3.147,2.226,3.335,4.036.21,2.012-.873,3.854-2.537,4.705-1.835.939-3.925.608-5.419-.747-2.681,1.552-5.823,1.619-8.378-.244M24.829,7.012c-1.97.236-3.266,2.01-3.018,3.89.244,1.845,1.951,3.178,3.799,2.969,1.898-.214,3.271-1.92,3.055-3.821-.211-1.85-1.872-3.274-3.836-3.039M20.063,19.935c-1.123-2.319-.018-4.668,2.133-5.841-.452-.439-.796-.861-1.126-1.351-2.789,1.654-4.057,4.955-2.57,7.908.219.435.704.586,1.114.414.388-.163.675-.661.448-1.129M30.384,19.997c-.214.447.124.927.468,1.067.38.155.867.048,1.082-.363,1.553-2.96.235-6.347-2.549-7.958-.333.518-.671.922-1.111,1.345,2.169,1.219,3.255,3.516,2.11,5.909M28.733,16.087c-.519-.629-1.176-.956-1.886-1.196-1.068.378-2.161.378-3.229,0-.715.239-1.372.575-1.891,1.198,2.34-.618,4.672-.615,7.005-.002M28.18,39.793l-.587-.838c-.687-.979-.289-2.322.662-2.927,1.009-.643,2.308-.354,2.975.647.298.447.698.782,1.219.99,2.343-1.867,3.864-4.512,4.297-7.451-.464-.351-.975-.515-1.538-.561-1.178-.096-2.03-1.091-1.978-2.24.05-1.115.981-2.075,2.17-2.037.349.011.678.053,1.059.086-.546-1.945-1.535-3.672-2.951-5.096l-.436.925c-.516,1.095-1.901,1.414-2.906.865-1.035-.566-1.409-1.825-.878-2.892.24-.482.323-1.009.239-1.544-2.78-1.089-5.806-1.089-8.586,0-.084.535,0,1.061.239,1.543.539,1.087.137,2.371-.929,2.918-1.021.524-2.368.154-2.881-.941l-.41-.876c-1.416,1.432-2.404,3.141-2.948,5.098l.812-.085c1.243-.13,2.307.751,2.409,1.956.101,1.2-.798,2.25-2.039,2.331-.551.036-1.067.227-1.473.568.451,2.962,1.969,5.572,4.298,7.433.521-.211.922-.543,1.219-.991.703-1.059,2.113-1.309,3.119-.546.967.734,1.127,2.127.331,3.115-.136.169-.259.346-.4.548,1.951.513,3.941.511,5.892,0M15.177,28.37c.502-.035.82-.494.773-.946-.043-.415-.396-.794-.885-.769-3.346.167-5.594,2.996-5.58,6.182.648.038,1.156.133,1.718.291-.057-2.457,1.447-4.582,3.974-4.757M39.284,33.122c.649-.176,1.136-.25,1.713-.295-.048-3.227-2.226-5.941-5.512-6.173-.519-.037-.916.296-.969.77-.049.441.267.913.773.946,2.563.167,4.004,2.336,3.995,4.751M14.228,36.804c.634.463,1.222.919,1.964.968-1.746-1.743-2.896-3.793-3.496-6.09-.218.747-.328,1.596-.058,2.277.797.794,1.406,1.681,1.589,2.845M36.252,36.761c.202-1.162.788-2.082,1.622-2.814.139-.777.156-1.503-.109-2.269-.592,2.325-1.775,4.372-3.502,6.111.795-.104,1.404-.527,1.989-1.027M9.3,34.15c-1.978.147-3.347,1.863-3.186,3.746.16,1.871,1.814,3.274,3.687,3.14,1.899-.136,3.333-1.776,3.199-3.687-.13-1.856-1.727-3.346-3.7-3.199M40.685,34.147c-1.985.135-3.375,1.84-3.215,3.748.157,1.86,1.797,3.286,3.701,3.142,1.865-.142,3.317-1.763,3.185-3.68-.126-1.835-1.704-3.343-3.672-3.209M13.635,40.043c2.871,1.622,6.398.991,8.159-1.774.263-.414.074-.932-.26-1.15-.412-.268-.935-.163-1.208.244-1.369,2.043-3.982,2.323-6.08,1.035-.148.581-.335,1.089-.611,1.645M36.219,38.404c-2.106,1.272-4.706,1.009-6.079-1.041-.272-.407-.794-.512-1.207-.244-.332.215-.525.733-.262,1.147,1.762,2.772,5.29,3.395,8.156,1.78-.251-.521-.441-1.018-.607-1.642"/>
    </g>
  </g>
</svg>