<?xml version="1.0" encoding="utf-8"?>
<!-- Generator: Adobe Illustrator 24.0.1, SVG Export Plug-In . SVG Version: 6.00 Build 0)  -->
<svg version="1.1" id="Layer_1" xmlns="http://www.w3.org/2000/svg" xmlns:xlink="http://www.w3.org/1999/xlink" x="0px" y="0px"
	 viewBox="0 0 50.5 50.5" style="enable-background:new 0 0 50.5 50.5;" xml:space="preserve">
<g>
	<path d="M31.675,11.533c-2.313,0-3.215,1.827-3.273,3.068c-0.001,0.017-0.009,0.037-0.01,0.054L26.88,26.679
		c-0.036,0.287,0.053,0.575,0.244,0.792c0.19,0.217,0.466,0.341,0.755,0.341H29.7v8.837c0,1.043,1.214,2.317,2.631,2.317
		c1.416,0,2.629-1.274,2.629-2.317v-9.844v-12.07C34.96,13.586,33.862,11.533,31.675,11.533z M30.402,14.763
		c0.044-0.298,0.671-1.215,1.272-1.215c0.596,0,1.217,0.899,1.271,1.207v11.043h-2.239H29.02L30.402,14.763z M32.946,36.563
		c-0.079,0.14-0.347,0.39-0.615,0.39c-0.27,0-0.538-0.249-0.617-0.39v-8.751h1.232V36.563z"/>
	<path d="M26.207,13.087c0-0.556-0.45-1.007-1.007-1.007s-1.007,0.451-1.007,1.007v2.963h-0.859v-2.963
		c0-0.556-0.45-1.007-1.007-1.007s-1.007,0.451-1.007,1.007v2.963h-0.859v-2.963c0-0.556-0.45-1.007-1.007-1.007
		s-1.007,0.451-1.007,1.007v2.963h-0.86v-2.963c0-0.556-0.45-1.007-1.007-1.007s-1.007,0.451-1.007,1.007v3.806
		c-0.01,0.056-0.033,0.106-0.033,0.165c0,1.119,0.317,3.379,1.171,4.682l0.801,1.225c0.488,0.744,0.735,1.533,0.735,2.345v11.339
		c0,1.043,1.214,2.317,2.63,2.317s2.63-1.274,2.63-2.317V25.327c0-0.808,0.244-1.592,0.726-2.333l0.822-1.264
		c0.844-1.296,1.158-3.555,1.158-4.673c0-0.01-0.006-0.019-0.006-0.029V13.087z M23.367,20.632l-0.823,1.264
		c-0.688,1.058-1.051,2.244-1.051,3.431v11.236c-0.079,0.14-0.348,0.389-0.616,0.389c-0.27,0-0.537-0.249-0.616-0.389V25.309
		c0-1.193-0.368-2.386-1.063-3.448l-0.801-1.225c-0.36-0.55-0.642-1.615-0.769-2.572h6.498C24,19.022,23.723,20.085,23.367,20.632z"
		/>
	<path d="M25.25,2.273C12.581,2.273,2.273,12.58,2.273,25.25c0,12.669,10.308,22.977,22.977,22.977S48.227,37.919,48.227,25.25
		C48.227,12.58,37.919,2.273,25.25,2.273z M25.25,46.627c-11.787,0-21.377-9.59-21.377-21.377c0-11.788,9.59-21.377,21.377-21.377
		s21.377,9.59,21.377,21.377C46.627,37.037,37.037,46.627,25.25,46.627z"/>
	<path d="M25.25,5.6C14.415,5.6,5.6,14.415,5.6,25.25c0,10.835,8.815,19.65,19.65,19.65S44.9,36.085,44.9,25.25
		C44.9,14.415,36.085,5.6,25.25,5.6z M25.25,43.301c-9.953,0-18.051-8.098-18.051-18.051S15.297,7.199,25.25,7.199
		s18.051,8.098,18.051,18.051S35.203,43.301,25.25,43.301z"/>
</g>
</svg>
