<?xml version="1.0" encoding="utf-8"?>
<!-- Generator: Adobe Illustrator 18.0.0, SVG Export Plug-In . SVG Version: 6.00 Build 0)  -->
<!DOCTYPE svg PUBLIC "-//W3C//DTD SVG 1.1//EN" "http://www.w3.org/Graphics/SVG/1.1/DTD/svg11.dtd">
<svg version="1.1" id="Layer_1" xmlns="http://www.w3.org/2000/svg" xmlns:xlink="http://www.w3.org/1999/xlink" x="0px" y="0px"
	 viewBox="0 0 50.5 50.5" style="enable-background:new 0 0 50.5 50.5;" xml:space="preserve">
<style type="text/css">
	.st0{fill:#65B4E1;}
</style>
<path class="st0" d="M17.6,42.4h14.5c0.3,0,0.5-0.1,0.7-0.4c0.2-0.2,0.2-0.5,0.1-0.8l-5.5-15c1.5-0.9,2.5-2.5,2.5-4.3
	c0-2.7-2.2-5-5-5c-2.7,0-5,2.2-5,5c0,1.8,1,3.4,2.5,4.3l-5.5,15c-0.1,0.3-0.1,0.6,0.1,0.8C17.1,42.3,17.3,42.4,17.6,42.4z
	 M21.6,21.9c0-1.8,1.5-3.3,3.3-3.3c1.8,0,3.3,1.5,3.3,3.3c0,1.4-0.9,2.6-2.1,3.1c0,0,0,0,0,0c0,0,0,0,0,0c-0.3,0.1-0.7,0.2-1.1,0.2
	C23,25.2,21.6,23.7,21.6,21.9z M23.9,26.8c0.3,0,0.6,0.1,0.9,0.1c0.3,0,0.6,0,0.9-0.1l2.4,6.6h-6.7L23.9,26.8z M20.9,35.2h7.9l2,5.5
	h-12L20.9,35.2z"/>
<path class="st0" d="M19.6,14.2c0.4-0.3,0.5-0.8,0.2-1.2c-0.3-0.4-0.8-0.5-1.2-0.2c-3.1,2.1-4.9,5.5-4.9,9.2c0,2.9,1.1,5.7,3.2,7.8
	c0.2,0.2,0.4,0.3,0.6,0.3c0.2,0,0.4-0.1,0.6-0.3c0.3-0.3,0.4-0.9,0-1.3c-1.7-1.8-2.7-4.1-2.7-6.5C15.5,18.8,17.1,15.9,19.6,14.2z"/>
<path class="st0" d="M31.2,12.8c-0.4-0.3-1-0.2-1.2,0.2c-0.3,0.4-0.2,1,0.2,1.2c2.5,1.7,4,4.6,4,7.7c0,2.4-0.9,4.7-2.6,6.4
	c-0.3,0.4-0.3,0.9,0,1.3c0.2,0.2,0.4,0.2,0.6,0.2c0.2,0,0.5-0.1,0.6-0.3c2-2.1,3-4.8,3-7.6C35.9,18.3,34.1,14.9,31.2,12.8z"/>
<path class="st0" d="M12.1,34.8c0.2,0.2,0.4,0.3,0.6,0.3c0.2,0,0.5-0.1,0.6-0.3c0.3-0.3,0.3-0.9,0-1.3c-3.1-3.1-4.9-7.3-4.9-11.7
	c0-5.5,2.7-10.6,7.3-13.7C16.2,7.9,16.3,7.4,16,7c-0.3-0.4-0.8-0.5-1.2-0.2c-5.1,3.4-8.1,9.1-8.1,15.2C6.6,26.8,8.6,31.4,12.1,34.8z
	"/>
<path class="st0" d="M35.1,6.9c-0.4-0.3-1-0.2-1.2,0.2c-0.3,0.4-0.2,1,0.2,1.2c4.5,3.1,7.1,8.1,7.1,13.6c0,4.4-1.7,8.5-4.8,11.6
	c-0.3,0.3-0.3,0.9,0,1.3c0.2,0.2,0.4,0.3,0.6,0.3c0.2,0,0.5-0.1,0.6-0.3c3.4-3.4,5.3-8,5.3-12.8C43,15.9,40.1,10.3,35.1,6.9z"/>
</svg>
