<svg xmlns="http://www.w3.org/2000/svg" viewBox="0 0 50.46 50.46">
  <title>Iconos</title>
  <path d="M17.61,42.41H32.07a0.85,0.85,0,0,0,.8-1.15l-5.52-15a5,5,0,1,0-5,0l-5.53,15A0.85,0.85,0,0,0,17.61,42.41Zm4-20.48A3.28,3.28,0,1,1,26,25h0a3.24,3.24,0,0,1-1.12.2A3.29,3.29,0,0,1,21.57,21.94Zm2.38,4.91a5.33,5.33,0,0,0,.9.09,4.68,4.68,0,0,0,.9-0.09l2.44,6.63H21.5Zm-3.08,8.34h7.94l2,5.53h-12Z" fill="#00b5e4"/>
  <path d="M19.64,14.17a0.89,0.89,0,1,0-1-1.47,11.08,11.08,0,0,0-1.72,16.95,0.89,0.89,0,1,0,1.27-1.24A9.31,9.31,0,0,1,19.64,14.17Z" fill="#00b5e4"/>
  <path d="M31.16,12.78a0.89,0.89,0,1,0-1,1.46A9.31,9.31,0,0,1,31.59,28.3a0.89,0.89,0,1,0,1.29,1.22A11.08,11.08,0,0,0,31.16,12.78Z" fill="#00b5e4"/>
  <path d="M12.05,34.83a0.89,0.89,0,0,0,1.25-1.26A16.42,16.42,0,0,1,15.75,8.21a0.89,0.89,0,0,0-1-1.48A18.2,18.2,0,0,0,12.05,34.83Z" fill="#00b5e4"/>
  <path d="M35.12,6.87a0.89,0.89,0,0,0-1,1.46,16.42,16.42,0,0,1,2.36,25.13,0.89,0.89,0,1,0,1.26,1.25A18.19,18.19,0,0,0,35.12,6.87Z" fill="#00b5e4"/>
</svg>
