<?xml version="1.0" encoding="utf-8"?>
<!-- Generator: Adobe Illustrator 18.0.0, SVG Export Plug-In . SVG Version: 6.00 Build 0)  -->
<!DOCTYPE svg PUBLIC "-//W3C//DTD SVG 1.1//EN" "http://www.w3.org/Graphics/SVG/1.1/DTD/svg11.dtd">
<svg version="1.1" id="Layer_1" xmlns="http://www.w3.org/2000/svg" xmlns:xlink="http://www.w3.org/1999/xlink" x="0px" y="0px"
	 viewBox="0 0 50.5 50.5" style="enable-background:new 0 0 50.5 50.5;" xml:space="preserve">
<style type="text/css">
	.st0{fill:#65B4E1;}
</style>
<g>
	<g>
		<g>
			<path class="st0" d="M32.6,30.6L29,27.1c-0.5,0.8-1.2,1.5-2,2l3.5,3.5c0.6,0.6,1.5,0.6,2,0C33.1,32.1,33.1,31.2,32.6,30.6
				L32.6,30.6z M32.6,30.6"/>
			<path class="st0" d="M29.1,23.5c0-3.2-2.6-5.8-5.8-5.8c-3.2,0-5.8,2.6-5.8,5.8c0,3.2,2.6,5.8,5.8,5.8
				C26.5,29.2,29.1,26.6,29.1,23.5L29.1,23.5z M23.4,27.8c-2.4,0-4.3-1.9-4.3-4.3c0-2.4,1.9-4.3,4.3-4.3c2.4,0,4.3,1.9,4.3,4.3
				C27.7,25.8,25.7,27.8,23.4,27.8L23.4,27.8z M23.4,27.8"/>
			<path class="st0" d="M20,23.5h1c0-1.3,1.1-2.4,2.4-2.4v-1C21.5,20.1,20,21.6,20,23.5L20,23.5z M20,23.5"/>
		</g>
		<path class="st0" d="M40.9,13.7l-6.7-7.1H13.6c-2.2,0-4,1.8-4,4v29.7c0,2.2,1.8,4,4,4H37c2.2,0,4-1.8,4-4L40.9,13.7z M38.4,13.5
			c-1.4,0-2.7,0-3.6,0l0-3.9L38.4,13.5z M37,42.8H13.6c-1.4,0-2.6-1.1-2.6-2.6V10.6C11,9.1,12.2,8,13.6,8h19.6l0,6.3
			c0,0.4,0.4,0.8,0.8,0.8c0,0,1.3,0,2.9,0c0.8,0,1.7,0,2.6,0v25.1C39.6,41.6,38.4,42.8,37,42.8z"/>
	</g>
</g>
</svg>
