<svg xmlns="http://www.w3.org/2000/svg" viewBox="0 0 50.46 50.46">
  <title>Iconos</title>
  <g>
    <g>
      <path d="M32.55,30.61L29,27.08a6.79,6.79,0,0,1-2,2l3.53,3.53a1.44,1.44,0,0,0,2-2h0Zm0,0" fill="#00b5e4"/>
      <path d="M29.13,23.46a5.77,5.77,0,1,0-5.77,5.77,5.77,5.77,0,0,0,5.77-5.77h0Zm-5.77,4.32a4.32,4.32,0,1,1,4.32-4.32,4.33,4.33,0,0,1-4.32,4.32h0Zm0,0" fill="#00b5e4"/>
      <path d="M20,23.46h1a2.41,2.41,0,0,1,2.4-2.4v-1A3.37,3.37,0,0,0,20,23.46h0Zm0,0" fill="#00b5e4"/>
    </g>
    <path d="M40.88,13.71l-6.7-7.13H13.57a4,4,0,0,0-4,4V40.21a4,4,0,0,0,4,4H37a4,4,0,0,0,4-4Zm-2.46-.24H34.87l0-3.9ZM37,42.77H13.57A2.56,2.56,0,0,1,11,40.21V10.55A2.56,2.56,0,0,1,13.57,8H33.19l0,6.29a0.83,0.83,0,0,0,.81.82l2.92,0,2.59,0V40.21A2.56,2.56,0,0,1,37,42.77Z" fill="#00b5e4"/>
  </g>
</svg>
