<?xml version="1.0" encoding="utf-8"?>
<!-- Generator: Adobe Illustrator 24.2.1, SVG Export Plug-In . SVG Version: 6.00 Build 0)  -->
<svg version="1.1" id="Layer_1" xmlns="http://www.w3.org/2000/svg" xmlns:xlink="http://www.w3.org/1999/xlink" x="0px" y="0px"
	 viewBox="0 0 50.46 50.46" style="enable-background:new 0 0 50.46 50.46;" xml:space="preserve">
<style type="text/css">
	.st0{fill:none;}
</style>
<g>
	<path class="st0" d="M22.818,25.23c0,2.516,0.909,4.821,2.412,6.611c1.503-1.79,2.412-4.096,2.412-6.611
		c0-2.515-0.909-4.82-2.412-6.611C23.727,20.41,22.818,22.715,22.818,25.23z"/>
	<path class="st0" d="M20.015,15.294c-0.854-0.23-1.747-0.364-2.673-0.364c-5.68,0-10.3,4.621-10.3,10.3
		c0,5.68,4.621,10.3,10.3,10.3c0.926,0,1.819-0.134,2.673-0.364c-2.102-2.766-3.366-6.202-3.366-9.936S17.913,18.06,20.015,15.294z"
		/>
	<path class="st0" d="M33.118,14.93c-0.926,0-1.819,0.134-2.673,0.364c2.103,2.766,3.366,6.202,3.366,9.936s-1.264,7.17-3.366,9.936
		c0.854,0.23,1.747,0.364,2.673,0.364c5.68,0,10.3-4.62,10.3-10.3C43.418,19.55,38.798,14.93,33.118,14.93z"/>
	<path d="M33.118,8.761c-2.856,0-5.544,0.733-7.888,2.018c-2.344-1.285-5.032-2.018-7.888-2.018
		c-9.081,0-16.469,7.388-16.469,16.469c0,9.082,7.388,16.47,16.469,16.47c2.856,0,5.544-0.733,7.888-2.018
		c2.344,1.285,5.032,2.018,7.888,2.018c9.081,0,16.47-7.389,16.47-16.47C49.588,16.149,42.199,8.761,33.118,8.761z M27.642,25.23
		c0,2.516-0.909,4.821-2.412,6.611c-1.503-1.79-2.412-4.096-2.412-6.611c0-2.515,0.909-4.82,2.412-6.611
		C26.733,20.41,27.642,22.715,27.642,25.23z M17.342,35.53c-5.68,0-10.3-4.62-10.3-10.3c0-5.68,4.621-10.3,10.3-10.3
		c0.926,0,1.819,0.134,2.673,0.364c-2.102,2.766-3.366,6.202-3.366,9.936s1.263,7.17,3.366,9.936
		C19.161,35.396,18.268,35.53,17.342,35.53z M33.118,35.53c-0.926,0-1.819-0.134-2.673-0.364c2.102-2.766,3.366-6.202,3.366-9.936
		s-1.264-7.17-3.366-9.936c0.854-0.23,1.747-0.364,2.673-0.364c5.68,0,10.3,4.621,10.3,10.3C43.418,30.91,38.798,35.53,33.118,35.53
		z"/>
</g>
</svg>
