<?xml version="1.0" encoding="utf-8"?>
<!-- Generator: Adobe Illustrator 24.0.2, SVG Export Plug-In . SVG Version: 6.00 Build 0)  -->
<svg version="1.1" xmlns="http://www.w3.org/2000/svg" xmlns:xlink="http://www.w3.org/1999/xlink" x="0px" y="0px"
	 viewBox="0 0 50.46 50.46" style="enable-background:new 0 0 50.46 50.46;" xml:space="preserve">
<style type="text/css">
	.st0{display:none;}
	.st1{display:inline;fill:#D7D6D4;}
	.st2{display:inline;}
	.st3{fill:#FFFFFF;}
	.st4{fill:#D3F0FB;}
	.st5{fill:none;}
	.st6{fill:none;stroke:#37BBED;stroke-width:1.6;stroke-linecap:round;stroke-linejoin:round;stroke-miterlimit:10;}
	.st7{fill:none;stroke:#000000;stroke-width:1.6;stroke-miterlimit:10;}
	.st8{display:inline;fill:none;stroke:#000000;stroke-width:1.6;stroke-linecap:round;stroke-linejoin:round;stroke-miterlimit:10;}
</style>
<g id="fondo" class="st0">
	<rect class="st1" width="50.46" height="50.46"/>
</g>
<g id="negativo">
	<path d="M38.43,4.205H12.03c-4.322,0-7.825,3.503-7.825,7.825V38.43c0,4.322,3.503,7.825,7.825,7.825H38.43
		c4.322,0,7.825-3.503,7.825-7.825V12.03C46.255,7.709,42.751,4.205,38.43,4.205z M12.679,23.004c0,0.098-0.043,0.192-0.119,0.256
		c-0.077,0.066-0.179,0.093-0.279,0.077c-0.298-0.048-0.615-0.072-0.943-0.072c-0.416,0-0.762,0.057-1.028,0.169
		c-0.252,0.112-0.431,0.285-0.548,0.53c-0.127,0.254-0.189,0.581-0.189,1.003c0,0.631,0.13,1.082,0.386,1.336
		c0.264,0.274,0.663,0.407,1.221,0.407c0.18,0,0.378-0.017,0.606-0.052c0.133-0.02,0.301-0.062,0.464-0.102
		c0.103-0.025,0.213-0.001,0.297,0.065c0.084,0.067,0.133,0.168,0.133,0.275v1.091c0,0.154-0.105,0.293-0.248,0.33
		c-0.462,0.137-0.988,0.206-1.56,0.206c-1.14,0-2.026-0.298-2.636-0.886c-0.612-0.601-0.909-1.468-0.909-2.65
		c0-1.174,0.325-2.067,0.965-2.653c0.653-0.586,1.589-0.883,2.782-0.883c0.464,0,0.911,0.04,1.329,0.119
		c0.164,0.033,0.277,0.169,0.277,0.332V23.004z M19.792,28.05c0,0.19-0.154,0.345-0.344,0.345h-1.209
		c-0.156,0-0.296-0.115-0.331-0.273l-0.062-0.319c-0.23,0.213-0.495,0.381-0.788,0.498c-0.326,0.141-0.672,0.21-1.056,0.21
		c-0.726,0-1.317-0.224-1.758-0.664c-0.427-0.439-0.643-1.129-0.643-2.055v-3.901c0-0.187,0.151-0.334,0.344-0.334h1.495
		c0.193,0,0.345,0.146,0.345,0.334v3.784c0,0.324,0.067,0.566,0.2,0.718c0.125,0.124,0.313,0.188,0.568,0.188
		c0.203,0,0.393-0.041,0.581-0.127c0.173-0.066,0.329-0.171,0.446-0.297c0.008-0.008,0.018-0.018,0.018-0.058v-4.209
		c0-0.187,0.152-0.334,0.345-0.334h1.505c0.193,0,0.344,0.146,0.344,0.334V28.05z M23.142,28.05c0,0.19-0.155,0.345-0.345,0.345
		h-1.505c-0.19,0-0.344-0.154-0.344-0.345v-6.159c0-0.187,0.151-0.334,0.344-0.334h1.505c0.193,0,0.345,0.146,0.345,0.334V28.05z
		 M23.021,20.572c-0.226,0.189-0.554,0.286-0.976,0.286s-0.75-0.096-0.976-0.286c-0.231-0.195-0.344-0.47-0.344-0.843
		c0-0.367,0.115-0.651,0.344-0.844c0.213-0.188,0.542-0.285,0.976-0.285c0.422,0,0.751,0.096,0.976,0.285h0
		c0.228,0.193,0.344,0.476,0.344,0.844C23.364,20.101,23.252,20.377,23.021,20.572z M30.658,28.05c0,0.19-0.154,0.345-0.345,0.345
		h-1.219c-0.165,0-0.304-0.112-0.342-0.273l-0.055-0.334c-0.178,0.199-0.399,0.362-0.668,0.497
		c-0.322,0.151-0.683,0.227-1.077,0.227c-0.531,0-1.014-0.124-1.434-0.367c-0.431-0.238-0.774-0.618-1.018-1.128
		c-0.25-0.501-0.373-1.124-0.373-1.901c0-1.176,0.32-2.092,0.95-2.723c0.642-0.631,1.572-0.951,2.765-0.951
		c0.186,0,0.371,0.011,0.547,0.033c0.02,0.002,0.047-0.013,0.056-0.023c0.018-0.016,0.028-0.038,0.028-0.058v-2.639
		c0-0.187,0.151-0.334,0.345-0.334h1.495c0.194,0,0.345,0.146,0.345,0.334V28.05z M32.32,24.912c0.446-0.358,1.17-0.575,2.149-0.641
		l0.947-0.075c-0.004-0.256-0.048-0.46-0.131-0.607c-0.077-0.146-0.202-0.244-0.394-0.311c-0.388-0.131-1-0.141-1.709-0.047
		c-0.212,0.03-0.421,0.071-0.62,0.124c-0.109,0.024-0.221,0.002-0.303-0.065c-0.081-0.064-0.127-0.16-0.127-0.265v-1.007
		c0-0.161,0.109-0.297,0.264-0.33c0.258-0.063,0.558-0.117,0.889-0.161c0.365-0.05,0.729-0.075,1.11-0.075
		c0.746,0,1.331,0.09,1.789,0.275c0.47,0.195,0.82,0.508,1.042,0.93c0.225,0.428,0.333,0.981,0.333,1.694v3.7
		c0,0.19-0.154,0.345-0.345,0.345h-1.198c-0.165,0-0.304-0.112-0.342-0.273l-0.058-0.293c-0.204,0.22-0.434,0.383-0.686,0.482
		c-0.324,0.135-0.67,0.2-1.056,0.2c-0.468,0-0.86-0.081-1.202-0.246c-0.341-0.17-0.606-0.412-0.788-0.719
		c-0.181-0.306-0.273-0.664-0.273-1.064C31.611,25.799,31.85,25.271,32.32,24.912z M42.143,32.041h-9.552
		c-0.47,0-0.853-0.378-0.853-0.843s0.383-0.843,0.853-0.843h9.552c0.465,0,0.843,0.378,0.843,0.843S42.608,32.041,42.143,32.041z
		 M43.134,23.142c0,0.092-0.04,0.182-0.11,0.245c-0.07,0.064-0.157,0.098-0.258,0.087c-0.122-0.01-0.257-0.02-0.412-0.02
		c-0.255,0-0.521,0.053-0.812,0.161c-0.235,0.098-0.408,0.215-0.54,0.366c-0.009,0.01-0.021,0.022-0.021,0.051v4.018
		c0,0.19-0.154,0.345-0.344,0.345h-1.506c-0.189,0-0.344-0.154-0.344-0.345v-6.159c0-0.187,0.151-0.334,0.344-0.334h1.187
		c0.167,0,0.317,0.129,0.333,0.287l0.083,0.442c0.18-0.254,0.401-0.448,0.659-0.577c0.321-0.166,0.677-0.247,1.087-0.247
		c0.121,0,0.243,0.011,0.352,0.022h0.001c0.171,0.018,0.299,0.166,0.299,0.344V23.142z M33.939,26.752
		c-0.12-0.104-0.176-0.247-0.176-0.451c0-0.213,0.065-0.366,0.209-0.483c0.134-0.116,0.379-0.193,0.705-0.223l0.65-0.042
		c0.003,0,0.006-0.001,0.008-0.001c0.03,0,0.05,0.013,0.059,0.022c0.008,0.007,0.022,0.024,0.022,0.048v0.922
		c0,0.019-0.007,0.033-0.031,0.051c-0.113,0.105-0.237,0.181-0.368,0.227c-0.165,0.058-0.34,0.088-0.507,0.088
		C34.254,26.91,34.063,26.857,33.939,26.752z M28.41,23.209c0.028,0.003,0.063,0.042,0.063,0.081v2.99
		c0,0.02-0.008,0.038-0.025,0.054c-0.101,0.102-0.221,0.177-0.379,0.236c-0.182,0.071-0.365,0.108-0.545,0.108
		c-0.396,0-0.685-0.119-0.885-0.367c-0.211-0.249-0.319-0.702-0.319-1.345c0-0.637,0.128-1.104,0.382-1.387
		c0.237-0.275,0.611-0.409,1.14-0.409C28.067,23.168,28.25,23.181,28.41,23.209z"/>
</g>
<g id="linea_color" class="st0">
	<g class="st2">
		<g>
			<g>
				<path class="st3" d="M40.364,21.184H12.787c-0.99,0-1.923-0.386-2.629-1.086c-0.026-0.025-0.064-0.034-0.096-0.019
					c-0.033,0.014-0.055,0.046-0.055,0.082v18.832c0,1.531,1.245,2.776,2.776,2.776h27.014c0.361,0,0.656-0.294,0.656-0.656v-5.828
					c0-0.049-0.04-0.089-0.089-0.089H25.099c-2.06,0-3.737-1.676-3.737-3.737s1.677-3.736,3.737-3.736h15.264
					c0.049,0,0.089-0.04,0.089-0.089v-6.363C40.452,21.224,40.413,21.184,40.364,21.184z"/>
				<path class="st3" d="M40.364,28.681H25.099c-1.533,0-2.78,1.247-2.78,2.78c0,1.533,1.247,2.78,2.78,2.78h15.264
					c0.049,0,0.089-0.039,0.089-0.089V28.77C40.452,28.721,40.413,28.681,40.364,28.681z"/>
				<path class="st3" d="M39.797,8.69H28.316c-0.362,0-0.656,0.294-0.656,0.656v1.959c0,0.049,0.04,0.089,0.089,0.089h5.63
					c0.857,0,1.555,0.698,1.555,1.556v7.096h-0.957V12.95c0-0.33-0.269-0.599-0.598-0.599h-2.722c-0.049,0-0.089,0.04-0.089,0.089
					v7.606H29.61V12.44c0-0.049-0.04-0.089-0.089-0.089h-7.683c-0.361,0-0.656,0.294-0.656,0.656v7.039h-0.957v-5.29
					c0-0.049-0.04-0.089-0.089-0.089h-7.35c-1.533,0-2.78,1.247-2.78,2.78c0,1.533,1.247,2.78,2.78,2.78h27.577
					c0.049,0,0.089-0.04,0.089-0.089V9.347C40.452,8.985,40.158,8.69,39.797,8.69z"/>
			</g>
			<path class="st4" d="M20.897,20.615l-0.193-6.426h-7.917c-1.8,0-3.258,1.459-3.258,3.258l0,0c0.02,1.725,1.419,3.115,3.144,3.124
				L20.897,20.615z"/>
			<path class="st4" d="M38.662,20.705v18.586c0,0.38-0.308,0.688-0.688,0.688H10.007c0,1.253,1.016,2.269,2.269,2.269h27.521
				c0.627,0,1.135-0.508,1.135-1.135V20.705H38.662z"/>
			<path class="st4" d="M33.377,11.873h-3.289v8.832h4.366V12.95C34.454,12.355,33.972,11.873,33.377,11.873z"/>
			<path class="st4" d="M40.931,9.346c0-0.627-0.508-1.135-1.135-1.135H28.315c-0.627,0-1.135,0.508-1.135,1.135v2.527h6.026
				c0.607,0,1.099,0.488,1.1,1.095c0.004,2.233,0.011,7.153,0.011,7.739l6.614-0.001V9.346z"/>
			<g>
				<g>
					<path class="st4" d="M39.746,33.018H25.099c-1.406,0-2.55-1.087-2.668-2.463c-0.058,0.066-0.118,0.13-0.174,0.198
						c-0.012,0.014-0.012,0.015-0.016,0.019c-0.003,0.004-0.002,0.002-0.007,0.009c-0.028,0.038-0.056,0.077-0.084,0.116
						c-0.054,0.078-0.104,0.158-0.149,0.241c-0.04,0.073-0.074,0.148-0.111,0.223c-0.002,0.006-0.003,0.005-0.005,0.012
						c-0.016,0.04-0.031,0.081-0.046,0.122c-0.061,0.17-0.112,0.343-0.158,0.517c0.625,1.263,1.915,2.142,3.418,2.142h14.646V33.018
						z"/>
				</g>
			</g>
		</g>
	</g>
	<g class="st2">
		<path class="st5" d="M34.347,20.758h-13.59v-7.129c0-0.884,0.716-1.6,1.6-1.6h10.471c0.839,0,1.519,0.68,1.519,1.519V20.758z"/>
		<path class="st6" d="M27.158,11.594V9.532c0-0.619,0.502-1.121,1.121-1.121h11.347c0.619,0,1.121,0.502,1.121,1.121v11.227"/>
		<line class="st6" x1="30.031" y1="12.08" x2="30.031" y2="20.758"/>
		<line class="st6" x1="25.718" y1="15.188" x2="25.718" y2="17.229"/>
		<path class="st6" d="M27.158,11.594V9.532c0-0.619,0.502-1.121,1.121-1.121h11.347c0.619,0,1.121,0.502,1.121,1.121v11.227"/>
		<line class="st6" x1="30.031" y1="12.08" x2="30.031" y2="20.758"/>
		<line class="st6" x1="25.718" y1="15.188" x2="25.718" y2="17.229"/>
		<path class="st5" d="M13.707,20.758h27.041v20.17c0,0.619-0.502,1.121-1.121,1.121H12.929c-1.777,0-3.217-1.44-3.217-3.217V17.538
			"/>
		<path class="st5" d="M40.748,20.758H12.932c-1.779,0-3.22-1.442-3.22-3.22l0,0c0-1.779,1.442-3.22,3.22-3.22h7.825"/>
		<path class="st5" d="M40.748,34.609H25.101c-1.778,0-3.22-1.442-3.22-3.22l0,0c0-1.779,1.442-3.22,3.22-3.22h15.647V34.609z"/>
		<line class="st6" x1="25.923" y1="30.368" x2="25.923" y2="32.408"/>
		<path class="st7" d="M13.707,20.758h27.041v20.17c0,0.619-0.502,1.121-1.121,1.121H12.929c-1.777,0-3.217-1.44-3.217-3.217V17.538
			"/>
		<path class="st7" d="M40.748,20.758H12.932c-1.779,0-3.22-1.442-3.22-3.22l0,0c0-1.779,1.442-3.22,3.22-3.22h7.825"/>
		<path class="st7" d="M40.748,34.609H25.101c-1.778,0-3.22-1.442-3.22-3.22l0,0c0-1.779,1.442-3.22,3.22-3.22h15.647V34.609z"/>
		<path class="st7" d="M34.347,20.758h-13.59v-7.129c0-0.884,0.716-1.6,1.6-1.6h10.471c0.839,0,1.519,0.68,1.519,1.519V20.758z"/>
		<line class="st6" x1="25.923" y1="30.368" x2="25.923" y2="32.408"/>
	</g>
</g>
<g id="linea_expandida" class="st0">
	<path class="st2" d="M8.466,27.506c-0.575-0.559-0.863-1.398-0.863-2.517c0-1.127,0.305-1.968,0.916-2.523
		c0.611-0.555,1.495-0.833,2.653-0.833c0.47,0,0.9,0.038,1.288,0.113c0.096,0.019,0.164,0.105,0.164,0.203l0,1.084
		c0,0.127-0.114,0.225-0.239,0.204c-0.329-0.054-0.647-0.081-0.953-0.081c-0.439,0-0.796,0.061-1.07,0.184
		c-0.275,0.123-0.477,0.317-0.608,0.584c-0.13,0.267-0.196,0.616-0.196,1.047c0,0.652,0.14,1.123,0.421,1.411
		c0.281,0.289,0.712,0.433,1.293,0.433c0.202,0,0.407-0.017,0.617-0.05c0.143-0.023,0.302-0.055,0.478-0.098
		c0.131-0.031,0.257,0.067,0.257,0.201l0,1.08c0,0.091-0.059,0.174-0.147,0.199c-0.459,0.132-0.959,0.198-1.501,0.198
		C9.878,28.345,9.041,28.065,8.466,27.506z M14.395,27.719c-0.401-0.409-0.602-1.052-0.602-1.93v-3.848
		c0-0.114,0.093-0.207,0.207-0.207h1.483c0.114,0,0.207,0.093,0.207,0.207v3.724c0,0.372,0.076,0.636,0.228,0.795
		c0.152,0.158,0.371,0.237,0.655,0.237c0.209,0,0.421-0.045,0.634-0.136c0.188-0.08,0.348-0.19,0.48-0.331
		c0.035-0.038,0.053-0.088,0.053-0.14l0-4.148c0-0.114,0.093-0.207,0.207-0.207h1.483c0.114,0,0.207,0.093,0.207,0.207v6.072
		c0,0.114-0.093,0.207-0.207,0.207h-1.188c-0.099,0-0.184-0.07-0.203-0.167l-0.097-0.486h-0.077
		c-0.249,0.253-0.529,0.444-0.839,0.572c-0.31,0.128-0.641,0.193-0.993,0.193C15.343,28.333,14.796,28.128,14.395,27.719z
		 M21.113,20.536c-0.196-0.17-0.293-0.413-0.293-0.729c0-0.32,0.097-0.565,0.291-0.735c0.194-0.17,0.488-0.255,0.883-0.255
		c0.391,0,0.684,0.085,0.878,0.255c0.194,0.17,0.291,0.415,0.291,0.735c0,0.316-0.097,0.559-0.291,0.729
		c-0.194,0.17-0.486,0.255-0.878,0.255C21.602,20.791,21.309,20.706,21.113,20.536z M21.045,28.013v-6.072
		c0-0.114,0.093-0.207,0.207-0.207h1.483c0.114,0,0.207,0.093,0.207,0.207v6.072c0,0.114-0.093,0.207-0.207,0.207h-1.483
		C21.138,28.22,21.045,28.128,21.045,28.013z M25.486,27.995c-0.399-0.225-0.717-0.578-0.955-1.058
		c-0.237-0.48-0.356-1.088-0.356-1.823c0-1.134,0.301-1.999,0.904-2.594c0.603-0.595,1.479-0.892,2.63-0.892
		c0.185,0,0.362,0.008,0.53,0.022c0.121,0.011,0.223-0.085,0.223-0.206l0-2.598c0-0.114,0.093-0.207,0.207-0.207h1.483
		c0.114,0,0.207,0.093,0.207,0.207v9.167c0,0.114-0.093,0.207-0.207,0.207h-1.208c-0.101,0-0.187-0.072-0.204-0.171l-0.088-0.504
		h-0.089c-0.19,0.245-0.432,0.438-0.726,0.578c-0.295,0.14-0.628,0.21-0.999,0.21C26.336,28.333,25.885,28.22,25.486,27.995z
		 M27.988,26.676c0.163-0.063,0.302-0.152,0.418-0.269c0.037-0.037,0.056-0.09,0.056-0.142l0-2.951c0-0.104-0.076-0.191-0.179-0.206
		c-0.179-0.026-0.368-0.04-0.569-0.04c-0.553,0-0.964,0.149-1.23,0.448c-0.267,0.298-0.4,0.782-0.4,1.45
		c0,0.668,0.113,1.138,0.338,1.411c0.225,0.273,0.549,0.409,0.972,0.409C27.601,26.785,27.798,26.749,27.988,26.676z M35.886,21.894
		c0.435,0.174,0.757,0.46,0.967,0.857c0.209,0.397,0.314,0.936,0.314,1.616v3.647c0,0.114-0.093,0.207-0.207,0.207h-1.189
		c-0.099,0-0.183-0.069-0.203-0.166l-0.097-0.474h-0.089c-0.19,0.257-0.433,0.448-0.729,0.572c-0.296,0.124-0.627,0.187-0.99,0.187
		c-0.435,0-0.81-0.078-1.127-0.234c-0.316-0.156-0.558-0.376-0.726-0.658c-0.168-0.283-0.252-0.612-0.252-0.987
		c0-0.621,0.216-1.101,0.649-1.441c0.433-0.34,1.116-0.54,2.049-0.599l1.055-0.089v-0.083c0-0.3-0.048-0.536-0.145-0.706
		c-0.097-0.17-0.251-0.291-0.463-0.365c-0.212-0.073-0.501-0.11-0.869-0.11c-0.265,0-0.554,0.022-0.869,0.065
		c-0.22,0.03-0.431,0.072-0.635,0.123c-0.131,0.033-0.258-0.065-0.258-0.2l0-0.991c0-0.094,0.063-0.178,0.154-0.201
		c0.267-0.067,0.558-0.121,0.872-0.161c0.376-0.047,0.733-0.071,1.073-0.071C34.88,21.633,35.451,21.72,35.886,21.894z
		 M34.83,26.925c0.151-0.055,0.289-0.139,0.415-0.25c0.043-0.038,0.066-0.094,0.066-0.152v-0.902c0-0.121-0.103-0.216-0.223-0.207
		l-0.643,0.048c-0.356,0.028-0.615,0.11-0.777,0.246c-0.162,0.136-0.243,0.327-0.243,0.572c0,0.241,0.073,0.425,0.219,0.551
		c0.146,0.127,0.36,0.19,0.64,0.19C34.471,27.023,34.653,26.99,34.83,26.925z M38.85,21.734h1.167c0.101,0,0.187,0.072,0.204,0.171
		l0.118,0.665h0.089c0.178-0.312,0.415-0.544,0.711-0.697c0.296-0.152,0.632-0.228,1.008-0.228c0.119,0,0.232,0.006,0.339,0.019
		c0.104,0.012,0.183,0.101,0.183,0.207v1.296c0,0.123-0.105,0.219-0.227,0.206c-0.123-0.013-0.261-0.019-0.413-0.019
		c-0.289,0-0.571,0.055-0.848,0.166c-0.248,0.099-0.446,0.232-0.592,0.398c-0.032,0.037-0.048,0.085-0.048,0.135l0,3.962
		c0,0.114-0.093,0.207-0.207,0.207H38.85c-0.114,0-0.207-0.093-0.207-0.207v-6.072C38.643,21.826,38.736,21.734,38.85,21.734z
		 M41.814,30.415h-9.422c-0.388,0-0.703,0.315-0.703,0.703c0,0.388,0.315,0.703,0.703,0.703h9.422c0.388,0,0.703-0.315,0.703-0.703
		C42.517,30.731,42.202,30.415,41.814,30.415 M38.429,47.055H12.03c-4.756,0-8.625-3.869-8.625-8.625v-26.4
		c0-4.756,3.869-8.625,8.625-8.625h26.399c4.756,0,8.625,3.869,8.625,8.625v26.4C47.054,43.186,43.185,47.055,38.429,47.055z
		 M12.03,5.005c-3.874,0-7.025,3.152-7.025,7.025v26.4c0,3.874,3.152,7.025,7.025,7.025h26.399c3.874,0,7.025-3.151,7.025-7.025
		v-26.4c0-3.874-3.151-7.025-7.025-7.025H12.03z"/>
</g>
<g id="stroke_1_x2C_6" class="st0">
	<g id="XMLID_40_" class="st2">
		<g id="XMLID_42_">
			<g id="XMLID_43_">
				<path id="XMLID_57_" d="M8.466,27.506c-0.575-0.559-0.863-1.398-0.863-2.517c0-1.127,0.305-1.968,0.916-2.523
					c0.611-0.555,1.495-0.833,2.653-0.833c0.47,0,0.9,0.038,1.288,0.113c0.096,0.019,0.164,0.105,0.164,0.203l0,1.084
					c0,0.127-0.114,0.225-0.239,0.204c-0.329-0.054-0.647-0.081-0.953-0.081c-0.439,0-0.796,0.061-1.07,0.184
					c-0.275,0.123-0.477,0.317-0.608,0.584c-0.13,0.267-0.196,0.616-0.196,1.047c0,0.652,0.14,1.123,0.421,1.411
					c0.281,0.289,0.712,0.433,1.293,0.433c0.202,0,0.407-0.017,0.617-0.05c0.143-0.023,0.302-0.055,0.478-0.098
					c0.131-0.031,0.257,0.067,0.257,0.201l0,1.08c0,0.091-0.059,0.174-0.147,0.199c-0.459,0.132-0.959,0.198-1.501,0.198
					C9.878,28.345,9.041,28.065,8.466,27.506z"/>
				<path id="XMLID_55_" d="M14.395,27.719c-0.401-0.409-0.602-1.052-0.602-1.93v-3.848c0-0.114,0.093-0.207,0.207-0.207h1.483
					c0.114,0,0.207,0.093,0.207,0.207v3.724c0,0.372,0.076,0.636,0.228,0.795c0.152,0.158,0.371,0.237,0.655,0.237
					c0.209,0,0.421-0.045,0.634-0.136c0.188-0.08,0.348-0.19,0.48-0.331c0.035-0.038,0.053-0.088,0.053-0.14l0-4.148
					c0-0.114,0.093-0.207,0.207-0.207h1.483c0.114,0,0.207,0.093,0.207,0.207v6.072c0,0.114-0.093,0.207-0.207,0.207h-1.188
					c-0.099,0-0.184-0.07-0.203-0.167l-0.097-0.486h-0.077c-0.249,0.253-0.529,0.444-0.839,0.572
					c-0.31,0.128-0.641,0.193-0.993,0.193C15.343,28.333,14.796,28.128,14.395,27.719z"/>
				<path id="XMLID_52_" d="M21.113,20.536c-0.196-0.17-0.293-0.413-0.293-0.729c0-0.32,0.097-0.565,0.291-0.735
					c0.194-0.17,0.488-0.255,0.883-0.255c0.391,0,0.684,0.085,0.878,0.255c0.194,0.17,0.291,0.415,0.291,0.735
					c0,0.316-0.097,0.559-0.291,0.729c-0.194,0.17-0.486,0.255-0.878,0.255C21.602,20.791,21.309,20.706,21.113,20.536z
					 M21.045,28.013v-6.072c0-0.114,0.093-0.207,0.207-0.207h1.483c0.114,0,0.207,0.093,0.207,0.207v6.072
					c0,0.114-0.093,0.207-0.207,0.207h-1.483C21.138,28.22,21.045,28.128,21.045,28.013z"/>
				<path id="XMLID_49_" d="M25.486,27.995c-0.399-0.225-0.717-0.578-0.955-1.058c-0.237-0.48-0.356-1.088-0.356-1.823
					c0-1.134,0.301-1.999,0.904-2.594c0.603-0.595,1.479-0.892,2.63-0.892c0.185,0,0.362,0.008,0.53,0.022
					c0.121,0.011,0.223-0.085,0.223-0.206l0-2.598c0-0.114,0.093-0.207,0.207-0.207h1.483c0.114,0,0.207,0.093,0.207,0.207v9.167
					c0,0.114-0.093,0.207-0.207,0.207h-1.208c-0.101,0-0.187-0.072-0.204-0.171l-0.088-0.504h-0.089
					c-0.19,0.245-0.432,0.438-0.726,0.578c-0.295,0.14-0.628,0.21-0.999,0.21C26.336,28.333,25.885,28.22,25.486,27.995z
					 M27.988,26.676c0.163-0.063,0.302-0.152,0.418-0.269c0.037-0.037,0.056-0.09,0.056-0.142l0-2.951
					c0-0.104-0.076-0.191-0.179-0.206c-0.179-0.026-0.368-0.04-0.569-0.04c-0.553,0-0.964,0.149-1.23,0.448
					c-0.267,0.298-0.4,0.782-0.4,1.45c0,0.668,0.113,1.138,0.338,1.411c0.225,0.273,0.549,0.409,0.972,0.409
					C27.601,26.785,27.798,26.749,27.988,26.676z"/>
				<path id="XMLID_46_" d="M35.886,21.894c0.435,0.174,0.757,0.46,0.967,0.857c0.209,0.397,0.314,0.936,0.314,1.616v3.647
					c0,0.114-0.093,0.207-0.207,0.207h-1.189c-0.099,0-0.183-0.069-0.203-0.166l-0.097-0.474h-0.089
					c-0.19,0.257-0.433,0.448-0.729,0.572c-0.296,0.124-0.627,0.187-0.99,0.187c-0.435,0-0.81-0.078-1.127-0.234
					c-0.316-0.156-0.558-0.376-0.726-0.658c-0.168-0.283-0.252-0.612-0.252-0.987c0-0.621,0.216-1.101,0.649-1.441
					c0.433-0.34,1.116-0.54,2.049-0.599l1.055-0.089v-0.083c0-0.3-0.048-0.536-0.145-0.706c-0.097-0.17-0.251-0.291-0.463-0.365
					c-0.212-0.073-0.501-0.11-0.869-0.11c-0.265,0-0.554,0.022-0.869,0.065c-0.22,0.03-0.431,0.072-0.635,0.123
					c-0.131,0.033-0.258-0.065-0.258-0.2l0-0.991c0-0.094,0.063-0.178,0.154-0.201c0.267-0.067,0.558-0.121,0.872-0.161
					c0.376-0.047,0.733-0.071,1.073-0.071C34.88,21.633,35.451,21.72,35.886,21.894z M34.83,26.925
					c0.151-0.055,0.289-0.139,0.415-0.25c0.043-0.038,0.066-0.094,0.066-0.152v-0.902c0-0.121-0.103-0.216-0.223-0.207l-0.643,0.048
					c-0.356,0.028-0.615,0.11-0.777,0.246c-0.162,0.136-0.243,0.327-0.243,0.572c0,0.241,0.073,0.425,0.219,0.551
					c0.146,0.127,0.36,0.19,0.64,0.19C34.471,27.023,34.653,26.99,34.83,26.925z"/>
				<path id="XMLID_44_" d="M38.85,21.734h1.167c0.101,0,0.187,0.072,0.204,0.171l0.118,0.665h0.089
					c0.178-0.312,0.415-0.544,0.711-0.697c0.296-0.152,0.632-0.228,1.008-0.228c0.119,0,0.232,0.006,0.339,0.019
					c0.104,0.012,0.183,0.101,0.183,0.207v1.296c0,0.123-0.105,0.219-0.227,0.206c-0.123-0.013-0.261-0.019-0.413-0.019
					c-0.289,0-0.571,0.055-0.848,0.166c-0.248,0.099-0.446,0.232-0.592,0.398c-0.032,0.037-0.048,0.085-0.048,0.135l0,3.962
					c0,0.114-0.093,0.207-0.207,0.207H38.85c-0.114,0-0.207-0.093-0.207-0.207v-6.072C38.643,21.826,38.736,21.734,38.85,21.734z"/>
			</g>
		</g>
		<path id="XMLID_41_" d="M41.814,30.415h-9.422c-0.388,0-0.703,0.315-0.703,0.703c0,0.388,0.315,0.703,0.703,0.703h9.422
			c0.388,0,0.703-0.315,0.703-0.703C42.517,30.731,42.202,30.415,41.814,30.415"/>
	</g>
	<path class="st8" d="M38.43,46.255H12.03c-4.322,0-7.825-3.503-7.825-7.825V12.03c0-4.322,3.503-7.825,7.825-7.825H38.43
		c4.322,0,7.825,3.503,7.825,7.825V38.43C46.255,42.752,42.751,46.255,38.43,46.255z"/>
</g>
</svg>
