<?xml version="1.0" encoding="utf-8"?>
<!-- Generator: Adobe Illustrator 18.0.0, SVG Export Plug-In . SVG Version: 6.00 Build 0)  -->
<!DOCTYPE svg PUBLIC "-//W3C//DTD SVG 1.1//EN" "http://www.w3.org/Graphics/SVG/1.1/DTD/svg11.dtd">
<svg version="1.1" id="Layer_1" xmlns="http://www.w3.org/2000/svg" xmlns:xlink="http://www.w3.org/1999/xlink" x="0px" y="0px"
	 viewBox="0 0 50.5 50.5" style="enable-background:new 0 0 50.5 50.5;" xml:space="preserve">
<style type="text/css">
	.st0{fill:#65B4E1;}
</style>
<path class="st0" d="M7.8,43h34.4c0.6,0,1-0.4,1-1V13.5c0-0.6-0.4-1-1-1H29.4l-4-4c-0.2-0.2-0.5-0.2-0.7,0l-4.1,4H7.8
	c-0.6,0-1,0.4-1,1V42C6.8,42.5,7.3,43,7.8,43z M25,9.6l3,3h-6L25,9.6z M8.8,14.5h32.4V41H8.8V14.5z"/>
<path class="st0" d="M10.3,39.6h29.4V15.9H10.3V39.6z M11.3,16.9h27.4v13.9c-0.5-0.4-1-1.1-1.5-1.9c-1.1-1.6-2.3-3.4-4.5-3.5
	c-1.4-0.1-2.6,0.8-3.5,2c-0.9-1.1-2.3-1.8-3.8-1.8c-2,0-3.8,1.2-4.4,2.9c-0.4-0.2-0.9-0.4-1.6-0.6c-3.3-1.2-6.5,1.6-8,3.1V16.9z
	 M28.5,28.2c-0.4,0.5-0.7,1-1,1.5c-0.2,0.2-0.3,0.5-0.5,0.7c0,0,0,0-0.1,0c-3-0.6-3.8-0.9-5.1-1.5c0,0,0,0,0,0
	c0.4-1.3,1.9-2.2,3.5-2.2C26.7,26.7,27.9,27.3,28.5,28.2z M11.3,32.6c0.6-0.8,4.2-4.9,7.7-3.7c1.1,0.4,1.8,0.7,2.4,0.9
	c1.3,0.5,2.2,0.9,5,1.5c-0.1,0.1-0.1,0.2-0.2,0.2c-2.9,3.2-7.8,4.4-9.2,4.8c0,0-0.1,0-0.1,0c-0.3,0.1-0.4,0.4-0.3,0.6
	c0.1,0.2,0.3,0.3,0.5,0.3c0.1,0,0.1,0,0.2,0c1.9-0.4,6.8-1.7,9.7-5.1c0.4-0.5,0.9-1.2,1.4-1.9c1.2-1.8,2.6-3.9,4.3-3.8
	c1.7,0.1,2.7,1.6,3.7,3.1c0.7,1.1,1.4,2.1,2.4,2.5v6.6H11.3V32.6z"/>
</svg>
