<svg xmlns="http://www.w3.org/2000/svg" viewBox="0 0 50.46 50.46">
  <title>Iconos</title>
  <path d="M7.84,43H42.25a1,1,0,0,0,1-1V13.54a1,1,0,0,0-1-1H29.45l-4-4a0.5,0.5,0,0,0-.71,0l-4.05,4H7.84a1,1,0,0,0-1,1V42A1,1,0,0,0,7.84,43ZM25,9.55l3,3h-6Zm-16.21,5H41.25V41H8.84V14.54Z" fill="#00b5e4"/>
  <path d="M10.32,39.6H39.77V15.91H10.32V39.6Zm1-22.69H38.77V30.83a8.43,8.43,0,0,1-1.55-1.89c-1.08-1.58-2.3-3.38-4.5-3.5a4.54,4.54,0,0,0-3.55,2,4.86,4.86,0,0,0-3.81-1.75,4.61,4.61,0,0,0-4.42,2.86c-0.44-.17-0.94-0.36-1.58-0.59-3.33-1.17-6.53,1.55-8,3.14V16.91ZM28.53,28.24c-0.36.49-.7,1-1,1.47l-0.46.69-0.07,0a23.76,23.76,0,0,1-5.12-1.47h0a3.6,3.6,0,0,1,3.5-2.22A3.78,3.78,0,0,1,28.53,28.24ZM11.32,32.6c0.62-.76,4.22-4.94,7.71-3.71,1.07,0.38,1.78.67,2.39,0.91a23.68,23.68,0,0,0,5,1.47l-0.18.22c-2.86,3.19-7.77,4.44-9.21,4.75l-0.15,0a0.49,0.49,0,0,0-.3.63,0.51,0.51,0,0,0,.49.34l0.16,0C19.17,36.8,24,35.48,27,32.16a17.74,17.74,0,0,0,1.37-1.89c1.17-1.75,2.61-3.94,4.32-3.84S35.4,28,36.4,29.5A6.37,6.37,0,0,0,38.77,32V38.6H11.32v-6Z" fill="#00b5e4"/>
</svg>
