<svg id="Layer_1" data-name="Layer 1" xmlns="http://www.w3.org/2000/svg" viewBox="0 0 50.46 50.46"><defs><style>.cls-1{fill:#12b5e1;}</style></defs><title>datos abiertos</title><path class="cls-1" d="M31.79,3.3H18.67A5.27,5.27,0,0,0,13.4,8.57V41.89a5.27,5.27,0,0,0,5.27,5.27H31.79a5.27,5.27,0,0,0,5.27-5.27V8.57A5.27,5.27,0,0,0,31.79,3.3ZM15,11.57H35.46V38.21H15ZM18.67,4.9H31.79a3.67,3.67,0,0,1,3.67,3.67V10H15V8.57A3.67,3.67,0,0,1,18.67,4.9ZM31.79,45.56H18.67A3.67,3.67,0,0,1,15,41.89V39.81H35.46v2.08A3.67,3.67,0,0,1,31.79,45.56Z"/><path class="cls-1" d="M22.42,8.69H28a.8.8,0,1,0,0-1.6H22.42a.8.8,0,0,0,0,1.6Z"/><path class="cls-1" d="M17.88,8.46a.79.79,0,0,0,1.13,0,.68.68,0,0,0,.18-.26.77.77,0,0,0,.06-.3.81.81,0,0,0-.06-.31A.68.68,0,0,0,19,7.33a.78.78,0,0,0-.26-.17.81.81,0,0,0-.61,0,.9.9,0,0,0-.26.17.79.79,0,0,0-.23.57.77.77,0,0,0,.06.3A.78.78,0,0,0,17.88,8.46Z"/><path class="cls-1" d="M25.23,40.43a2.22,2.22,0,1,0,2.22,2.21A2.22,2.22,0,0,0,25.23,40.43Zm0,3.43a1.22,1.22,0,1,1,1.22-1.22A1.22,1.22,0,0,1,25.23,43.86Z"/><path class="cls-1" d="M27.63,21.69a2.4,2.4,0,1,0-2.4,2.4A2.39,2.39,0,0,0,27.63,21.69Z"/><path class="cls-1" d="M27.4,33.27c-.56.59-1,1-1.36,1.36a1.15,1.15,0,0,1-.8.33,1.21,1.21,0,0,1-.85-.36c-.33-.3-.79-.76-1.33-1.33-1.14.25-1.9.67-1.9,1.15,0,.75,1.82,1.36,4.07,1.36s4.07-.61,4.07-1.36C29.3,33.94,28.54,33.52,27.4,33.27Z"/><path class="cls-1" d="M23.9,33.14l.14.15a0,0,0,0,1,0,0l.11.11,0,0a.94.94,0,0,1,.1.1l0,0,.23.23,0,0,.08.07,0,0,.06.06,0,0,.09.07.09.08,0,0,.06,0h0l.06,0h.18l.05,0h0l.06,0h0l.08-.06.09-.09h0a.6.6,0,0,1,.08-.08v0l.36-.34h0c.13-.13.28-.27.42-.42l0,0c2.13-2.19,6.07-6.86,6.07-11.29a7.64,7.64,0,0,0-7.4-7.66,7.64,7.64,0,0,0-7.4,7.66c0,4.43,3.94,9.1,6.07,11.29ZM21.25,21.69a4,4,0,1,1,4,4A4,4,0,0,1,21.25,21.69Z"/></svg>