<svg xmlns="http://www.w3.org/2000/svg" viewBox="0 0 50.46 50.46">
  <title>Iconos</title>
  <g>
    <path d="M41.31,13.55v0L34.57,6.34l0,0H13.88a4.11,4.11,0,0,0-4.1,4.1V40.06a4.11,4.11,0,0,0,4.1,4.1H37.3a4.1,4.1,0,0,0,4.1-4.1Zm-1.57,1.52v25A2.44,2.44,0,0,1,37.3,42.5H13.88a2.44,2.44,0,0,1-2.44-2.43V10.4A2.44,2.44,0,0,1,13.88,8H33.37l0,6.17a1,1,0,0,0,.94.94h0C34.77,15.08,37.41,15.11,39.74,15.07ZM35.28,9.73l3.17,3.46H35.3Z" fill="#00b5e4"/>
    <path d="M33.58,25.89l-0.06-.14c-0.38-.86-1.07-2.38-2.12-4.64a4.82,4.82,0,0,0,1.38-1.44,0.5,0.5,0,0,0,.07-0.38A0.5,0.5,0,0,0,32.63,19a0.51,0.51,0,0,0-.38-0.07,0.5,0.5,0,0,0-.32.22l-0.23.32-0.36.36-0.13.12a0.87,0.87,0,0,0-1.31.16c-0.63-.24-1.54-0.66-2.53-1.15a1.49,1.49,0,0,0-1.48-1.46h0a1.48,1.48,0,0,0-1.48,1.46c-1,.5-1.9.91-2.53,1.15a0.87,0.87,0,0,0-1.31-.16l-0.13-.12-0.35-.35-0.24-.33a0.5,0.5,0,0,0-.32-0.22,0.52,0.52,0,0,0-.38.07,0.5,0.5,0,0,0-.15.69,4.82,4.82,0,0,0,1.38,1.44c-1,2.27-1.74,3.79-2.11,4.64l-0.06.14h-0.8V26a3.91,3.91,0,0,0,3.78,3.82h0.07A3.79,3.79,0,0,0,24.94,26V25.89H24.09L21.8,21.16a26.29,26.29,0,0,0,2.93-1.25,1.49,1.49,0,0,0,.63.44v10.1a2.36,2.36,0,0,0-.47.2A2.27,2.27,0,0,0,23.81,32h-1a0.5,0.5,0,0,0,0,1h6.14a0.5,0.5,0,0,0,0-1h-1a2.28,2.28,0,0,0-1.1-1.35,2.37,2.37,0,0,0-.46-0.19V20.35A1.49,1.49,0,0,0,27,19.91a26.29,26.29,0,0,0,2.93,1.25l-2.29,4.73H26.81V26a3.79,3.79,0,0,0,3.71,3.82h0.07A3.91,3.91,0,0,0,34.37,26V25.89h-0.8Zm-1.1,0H28.76l1.92-4,0.87,1.92C31.9,24.63,32.23,25.37,32.48,25.89Zm-13.2,0c0.25-.52.58-1.26,0.92-2l0.87-1.92,1.92,4H19.27Z" fill="#00b5e4"/>
  </g>
</svg>
