<?xml version="1.0" encoding="utf-8"?>
<!-- Generator: Adobe Illustrator 18.0.0, SVG Export Plug-In . SVG Version: 6.00 Build 0)  -->
<!DOCTYPE svg PUBLIC "-//W3C//DTD SVG 1.1//EN" "http://www.w3.org/Graphics/SVG/1.1/DTD/svg11.dtd">
<svg version="1.1" id="Layer_1" xmlns="http://www.w3.org/2000/svg" xmlns:xlink="http://www.w3.org/1999/xlink" x="0px" y="0px"
	 viewBox="0 0 50.5 50.5" style="enable-background:new 0 0 50.5 50.5;" xml:space="preserve">
<style type="text/css">
	.st0{fill:#65B4E1;}
</style>
<g>
	<path class="st0" d="M41.3,13.6L41.3,13.6l-6.7-7.2l0,0H13.9c-2.3,0-4.1,1.8-4.1,4.1v29.7c0,2.3,1.8,4.1,4.1,4.1h23.4
		c2.3,0,4.1-1.8,4.1-4.1L41.3,13.6z M39.7,15.1v25c0,1.3-1.1,2.4-2.4,2.4H13.9c-1.3,0-2.4-1.1-2.4-2.4V10.4c0-1.3,1.1-2.4,2.4-2.4
		h19.5l0,6.2c0,0.5,0.4,0.9,0.9,0.9l0,0C34.8,15.1,37.4,15.1,39.7,15.1z M35.3,9.7l3.2,3.5c-1.4,0-2.6,0-3.1,0L35.3,9.7z"/>
	<path class="st0" d="M33.6,25.9c0-0.1-0.1-0.1-0.1-0.1c-0.4-0.9-1.1-2.4-2.1-4.6c0.7-0.4,1.2-1.2,1.4-1.4c0.1-0.1,0.1-0.2,0.1-0.4
		c0-0.1-0.1-0.2-0.2-0.3c-0.1-0.1-0.2-0.1-0.4-0.1c-0.1,0-0.2,0.1-0.3,0.2c-0.1,0.1-0.2,0.2-0.2,0.3l-0.4,0.4c0,0-0.1,0.1-0.1,0.1
		c-0.2-0.1-0.4-0.2-0.6-0.2c-0.3,0-0.6,0.1-0.7,0.4c-0.6-0.2-1.5-0.7-2.5-1.2c0-0.8-0.7-1.4-1.5-1.5l0,0c-0.4,0-0.8,0.2-1.1,0.4
		c-0.3,0.3-0.4,0.6-0.4,1c-1,0.5-1.9,0.9-2.5,1.2c-0.2-0.2-0.4-0.4-0.7-0.4c-0.2,0-0.4,0.1-0.6,0.2c0,0-0.1-0.1-0.1-0.1l-0.4-0.3
		c-0.1-0.1-0.2-0.2-0.2-0.3c-0.1-0.1-0.2-0.2-0.3-0.2c-0.1,0-0.3,0-0.4,0.1c-0.2,0.2-0.3,0.5-0.2,0.7c0.2,0.2,0.7,1,1.4,1.4
		c-1,2.3-1.7,3.8-2.1,4.6c0,0,0,0-0.1,0.1l-0.8,0l0,0.1c0.1,2.1,1.8,3.8,3.8,3.8c0,0,0,0,0.1,0c2.1,0,3.7-1.8,3.7-3.8l0-0.1h-0.8
		l-2.3-4.7c1-0.3,2.4-1,2.9-1.3c0.2,0.2,0.4,0.3,0.6,0.4l0,10.1c-0.2,0-0.3,0.1-0.5,0.2C24.4,31,24,31.4,23.8,32l-1,0
		c-0.3,0-0.5,0.2-0.5,0.5c0,0.3,0.2,0.5,0.5,0.5l0,0l3.1,0l3,0l0.1,0l0,0c0.3,0,0.5-0.2,0.5-0.5c0-0.3-0.2-0.5-0.5-0.5l-1,0
		c-0.1-0.5-0.5-1-1.1-1.3c-0.1-0.1-0.3-0.1-0.5-0.2l0-10.1c0.2-0.1,0.5-0.2,0.6-0.4c0.5,0.3,2,0.9,2.9,1.3l-2.3,4.7h-0.8l0,0.1
		c0,2.1,1.6,3.8,3.7,3.8c0,0,0,0,0.1,0c2,0,3.7-1.7,3.8-3.8l0-0.1L33.6,25.9z M32.5,25.9h-3.7l1.9-4c0.3,0.6,0.6,1.3,0.9,1.9
		C31.9,24.6,32.2,25.4,32.5,25.9z M19.3,25.9c0.2-0.5,0.6-1.3,0.9-2c0.3-0.6,0.6-1.3,0.9-1.9l1.9,4H19.3z"/>
</g>
</svg>
