<?xml version="1.0" encoding="utf-8"?>
<!-- Generator: Adobe Illustrator 18.0.0, SVG Export Plug-In . SVG Version: 6.00 Build 0)  -->
<!DOCTYPE svg PUBLIC "-//W3C//DTD SVG 1.1//EN" "http://www.w3.org/Graphics/SVG/1.1/DTD/svg11.dtd">
<svg version="1.1" id="Layer_1" xmlns="http://www.w3.org/2000/svg" xmlns:xlink="http://www.w3.org/1999/xlink" x="0px" y="0px"
	 viewBox="0 0 50.5 50.5" style="enable-background:new 0 0 50.5 50.5;" xml:space="preserve">
<style type="text/css">
	.st0{fill:#65B4E1;}
</style>
<g>
	<g>
		<path class="st0" d="M32.7,14.9c-0.7,0-1.3,0.7-1.3,1.7v7.9c0,0.4-0.3,0.8-0.6,0.8c-0.4,0-0.7-0.3-0.7-0.8V13
			c0-0.9-0.6-1.7-1.3-1.7S27.4,12,27.4,13v10.3c0,0.4-0.3,0.8-0.6,0.8c-0.4,0-0.7-0.3-0.7-0.8V11.8c0-0.9-0.6-1.7-1.3-1.7
			s-1.3,0.7-1.3,1.7v11.5c0,0.4-0.3,0.8-0.7,0.8c-0.4,0-0.6-0.3-0.6-0.8v-9.1c0-0.9-0.6-1.7-1.3-1.7s-1.3,0.7-1.3,1.7v14.4l0.1,2.1
			l0,0c-0.1,0.1-0.2,0.1-0.3,0.1c0,0,0,0,0,0c-0.6,0-1.2-0.8-2-1.8c-0.9-1.1-2-2.5-3.5-3.2c-0.2-0.1-0.4-0.1-0.6-0.2
			c-0.5-0.1-1,0-1.2,0.1v0l-0.1,0c-0.4,0.2-0.6,0.4-0.8,0.6C11,26.5,11,26.7,11,26.8c0,0.2,0.1,0.3,0.3,0.4c0,0,0.1,0,0.1,0.1
			c0,0,0,0,0.1,0c0.1,0.1,0.2,0.1,0.3,0.2c0.2,0.1,0.5,0.3,1,0.7c1.4,1.2,2.4,3,3.7,5.6c0.3,0.5,0.6,1.1,0.9,1.7
			c0.7,1.4,2.3,2.9,3.8,3.7c1.4,0.7,3.2,1.2,4.9,1.2c0,0,0,0,0.1,0h0l0,0c0,0,0,0,0,0c5.3,0,8-2.5,8-7.4V16.6
			C34.1,15.7,33.5,14.9,32.7,14.9z"/>
	</g>
</g>
</svg>
