<?xml version="1.0" encoding="utf-8"?>
<!-- Generator: Adobe Illustrator 18.0.0, SVG Export Plug-In . SVG Version: 6.00 Build 0)  -->
<!DOCTYPE svg PUBLIC "-//W3C//DTD SVG 1.1//EN" "http://www.w3.org/Graphics/SVG/1.1/DTD/svg11.dtd">
<svg version="1.1" id="Layer_1" xmlns="http://www.w3.org/2000/svg" xmlns:xlink="http://www.w3.org/1999/xlink" x="0px" y="0px"
	 viewBox="0 0 50.5 50.5" style="enable-background:new 0 0 50.5 50.5;" xml:space="preserve">
<style type="text/css">
	.st0{fill:#65B4E1;}
</style>
<path class="st0" d="M14.8,13.2c-1.9,1.6-3.5,3.6-4.5,5.9c1.2-0.7,2.8-1.4,5-2c0.7-0.2,1.5-0.4,2.2-0.6c2.4-0.6,4.6-1.2,5.9-2.1
	c-4.3-1.3-8.2-1.1-8.3-1.1C15,13.3,14.9,13.2,14.8,13.2z"/>
<path class="st0" d="M29.2,28.9c0-0.9-0.1-1.9-0.2-3c-0.3-2.7-0.6-5.7,1.1-7.5c-0.3-0.3-0.6-0.5-0.9-0.8c-0.1-0.1-0.3-0.2-0.5-0.4
	c-1.6,1.2-3.4,2.9-5.4,5.1c-6.3,6.8-8.6,12.9-9.1,14.5c2.6,2.3,6,3.7,9.7,3.9C27.1,39,29.1,33.5,29.2,28.9z"/>
<path class="st0" d="M9,25.2c0,3.8,1.4,7.3,3.7,10c1-2.5,3.5-8.1,9.2-14.2c1.9-2.1,3.7-3.7,5.2-5c-0.5-0.3-1.1-0.6-1.6-0.8
	c-1.4,1.7-4.2,2.4-7.5,3.2c-0.7,0.2-1.4,0.4-2.2,0.6c-4.2,1.2-6,2.8-6.5,3.3C9.1,23.3,9,24.2,9,25.2z"/>
<path class="st0" d="M24.4,12.6c0-1.3-1.4-2.4-1.9-2.7c-1.7,0.2-3.2,0.7-4.7,1.4C19.5,11.4,21.9,11.8,24.4,12.6z"/>
<path class="st0" d="M28.8,14.7c1.8-1.2,3.2-2,4.3-2.4c-2.2-1.5-4.9-2.4-7.8-2.6c0.7,0.9,1.3,2.2,1,3.6C27.1,13.7,28,14.2,28.8,14.7
	z"/>
<path class="st0" d="M37,34.3c0-0.1,0-0.1,0-0.2c0-5.5-1.8-10.2-5.4-14.3c-1,1.2-0.7,3.6-0.5,5.9c0.1,1.2,0.2,2.2,0.2,3.2
	c-0.1,4.1-1.5,8.7-3.9,11.5C31.3,39.7,34.7,37.5,37,34.3z"/>
<path class="st0" d="M31.8,17.3c2.1-0.7,4.8,0.4,6.7,1.6c-0.9-1.9-2.1-3.5-3.6-4.9c-0.8,0.1-2.3,0.6-4.5,2.1c0,0,0.1,0.1,0.1,0.1
	C31,16.5,31.4,16.9,31.8,17.3z"/>
<path class="st0" d="M40,25.2c0-1.1-0.1-2.3-0.4-3.3c-1.4-1-4.1-2.7-6.1-2.9c3,3.6,4.8,7.6,5.3,12.2C39.5,29.4,40,27.4,40,25.2z"/>
</svg>
