<svg id="Layer_1" data-name="Layer 1" xmlns="http://www.w3.org/2000/svg" viewBox="0 0 50.46 50.46"><defs><style>.cls-1{fill:#00b5e4;}</style></defs><title>Iconos</title><path class="cls-1" d="M14.75,13.21a15.51,15.51,0,0,0-4.45,5.87,20.85,20.85,0,0,1,5-2l2.2-.58c2.38-.61,4.65-1.2,5.88-2.09a26,26,0,0,0-8.3-1.12A1,1,0,0,1,14.75,13.21Z"/><path class="cls-1" d="M29.24,28.86a22.3,22.3,0,0,0-.2-3c-0.29-2.7-.62-5.7,1.08-7.54-0.28-.27-0.57-0.54-0.87-0.81-0.15-.13-0.3-0.24-0.45-0.36a45.8,45.8,0,0,0-5.45,5.12A42.74,42.74,0,0,0,14.25,36.8a15.39,15.39,0,0,0,9.68,3.87C27.06,39,29.08,33.49,29.24,28.86Z"/><path class="cls-1" d="M9,25.22a15.4,15.4,0,0,0,3.66,10A45.87,45.87,0,0,1,21.87,21a50,50,0,0,1,5.2-5,16.36,16.36,0,0,0-1.64-.83C24,16.84,21.2,17.58,18,18.4L15.81,19c-4.2,1.16-6,2.84-6.5,3.33A15.53,15.53,0,0,0,9,25.22Z"/><path class="cls-1" d="M24.36,12.58c0-1.34-1.45-2.39-1.89-2.69a15.34,15.34,0,0,0-4.69,1.4A26.83,26.83,0,0,1,24.36,12.58Z"/><path class="cls-1" d="M28.76,14.71a18.55,18.55,0,0,1,4.31-2.36,15.38,15.38,0,0,0-7.78-2.56,4.35,4.35,0,0,1,1,3.57A18,18,0,0,1,28.76,14.71Z"/><path class="cls-1" d="M37,34.33a1,1,0,0,1,0-.23,20.64,20.64,0,0,0-5.42-14.27c-1,1.24-.74,3.58-0.49,5.86a23.7,23.7,0,0,1,.21,3.24c-0.14,4.05-1.5,8.65-3.92,11.5A15.45,15.45,0,0,0,37,34.33Z"/><path class="cls-1" d="M31.83,17.25c2.1-.69,4.77.43,6.74,1.57A15.49,15.49,0,0,0,35,13.89,12.42,12.42,0,0,0,30.46,16l0.1,0.08C31,16.45,31.42,16.85,31.83,17.25Z"/><path class="cls-1" d="M40,25.22a15.5,15.5,0,0,0-.37-3.33c-1.37-1-4.11-2.73-6.11-2.86a22.21,22.21,0,0,1,5.28,12.19A15.42,15.42,0,0,0,40,25.22Z"/></svg>