<?xml version="1.0" encoding="utf-8"?>
<!-- Generator: Adobe Illustrator 24.0.1, SVG Export Plug-In . SVG Version: 6.00 Build 0)  -->
<svg version="1.1" id="Layer_1" xmlns="http://www.w3.org/2000/svg" xmlns:xlink="http://www.w3.org/1999/xlink" x="0px" y="0px"
	 viewBox="0 0 50.5 50.5" style="enable-background:new 0 0 50.5 50.5;" xml:space="preserve">
<g>
	<path d="M41.051,37.893H9.449c-0.552,0-1,0.448-1,1V40.9c0,0.552,0.448,1,1,1h31.601c0.552,0,1-0.448,1-1v-2.007
		C42.051,38.341,41.603,37.893,41.051,37.893z"/>
	<path d="M24.497,35.178c0.416,0.416,1.09,0.416,1.506,0L37.171,24.01c0.671-0.671,0.196-1.818-0.753-1.818h-5.797V9.6
		c0-0.552-0.448-1-1-1h-8.742c-0.552,0-1,0.448-1,1v12.592h-5.797c-0.949,0-1.424,1.147-0.753,1.818L24.497,35.178z"/>
</g>
</svg>
