<?xml version="1.0" encoding="utf-8"?>
<!-- Generator: Adobe Illustrator 22.1.0, SVG Export Plug-In . SVG Version: 6.00 Build 0)  -->
<svg version="1.1" id="Layer_1" xmlns="http://www.w3.org/2000/svg" xmlns:xlink="http://www.w3.org/1999/xlink" x="0px" y="0px"
	 viewBox="0 0 50.5 50.5" style="enable-background:new 0 0 50.5 50.5;" xml:space="preserve">
<style type="text/css">
	.st0{fill:#12B5E1;}
</style>
<title>chat crecer</title>
<path class="st0" d="M25.2,0.3c-13.3,0-24,10.8-24,24c0,6.5,2.5,12.5,7.1,17.1c0.1,0.2,0.3,0.4,0.5,0.6v5.4c0,1.6,1.3,2.8,2.8,2.8
	c0.5,0,1-0.1,1.5-0.4l4.3-2.7c1.1,0.4,2.3,0.7,3.5,0.9c0.1,0,0.1,0,0.2,0c1.4,0.2,2.8,0.4,4.1,0.4c13.3,0,24-10.8,24-24
	S38.5,0.3,25.2,0.3z M25.2,46.5c-1.4,0-2.7-0.1-4-0.4c0,0,0,0,0,0c-1.4-0.2-2.7-0.6-4.1-1.1l-5.1,3.2c-0.1,0.1-0.3,0.1-0.5,0.1
	c-0.5,0-0.9-0.4-0.9-0.9v-6.2c-0.4-0.3-1-1-0.9-1c-4.1-4-6.7-9.6-6.7-15.8C3.1,12.1,13,2.2,25.2,2.2c12.2,0,22.1,9.9,22.1,22.1
	S37.5,46.5,25.2,46.5z"/>
<path class="st0" d="M31.8,15.5c-4.4,0-6,5.4-6,5.5c0,0,0,0,0,0c0,0-1.6-5.5-6-5.5c-3.9,0-6,2.4-6,6.6c0,1.8,1.2,4.1,1.2,4.1
	c2.8,5.3,10.8,10.7,10.8,10.7s8-5.3,10.8-10.7c0,0,1.2-2.3,1.2-4.1C37.8,17.9,35.6,15.5,31.8,15.5z"/>
</svg>
