<?xml version="1.0" encoding="utf-8"?>
<!-- Generator: Adobe Illustrator 18.0.0, SVG Export Plug-In . SVG Version: 6.00 Build 0)  -->
<!DOCTYPE svg PUBLIC "-//W3C//DTD SVG 1.1//EN" "http://www.w3.org/Graphics/SVG/1.1/DTD/svg11.dtd">
<svg version="1.1" id="Layer_1" xmlns="http://www.w3.org/2000/svg" xmlns:xlink="http://www.w3.org/1999/xlink" x="0px" y="0px"
	 viewBox="0 0 50.5 50.5" style="enable-background:new 0 0 50.5 50.5;" xml:space="preserve">
<style type="text/css">
	.st0{fill:#65B4E1;}
</style>
<g>
	<g>
		<path class="st0" d="M32.8,45.5h-9.4c-0.6,0-1,0.5-1,1c0,0.6,0.5,1,1,1h9.4c0.6,0,1-0.5,1-1C33.8,45.9,33.4,45.5,32.8,45.5z"/>
		<path class="st0" d="M29.7,15.7c0.1,0,0.1,0,0.2,0c0.2,0,0.3-0.1,0.4-0.3c0.3-0.7,0.4-1.3,0.4-2.1c0-2.8-2.3-5.1-5.1-5.1
			s-5.1,2.3-5.1,5.1c0,0.7,0.1,1.4,0.4,2c0.1,0.2,0.4,0.3,0.6,0.2c0.2-0.1,0.3-0.4,0.2-0.6c-0.2-0.5-0.4-1.1-0.4-1.7
			c0-2.3,1.9-4.2,4.2-4.2s4.2,1.9,4.2,4.2c0,0.6-0.1,1.2-0.4,1.7C29.4,15.3,29.5,15.6,29.7,15.7z"/>
		<path class="st0" d="M19.6,21.9c0.2,0.1,0.4,0.2,0.5,0.2c0.3,0,0.6-0.1,0.8-0.4c0.3-0.4,0.2-1-0.2-1.3c-2.2-1.6-3.6-4.2-3.6-6.9
			c0-4.7,3.8-8.6,8.6-8.6s8.6,3.8,8.6,8.6c0,2.7-1.3,5.3-3.6,6.9c-0.4,0.3-0.5,0.9-0.2,1.3c0.3,0.4,0.9,0.5,1.3,0.2
			c2.7-2,4.3-5.1,4.3-8.5C36.1,7.7,31.4,3,25.7,3S15.2,7.7,15.2,13.4C15.2,16.8,16.9,19.9,19.6,21.9z"/>
		<path class="st0" d="M35.6,30.2c-1.3-5-7.9-5.7-7.9-6.1c-0.1-1.9-0.3-7.2-0.4-9.6c0-0.7-1.4-0.6-2-0.3c-2.1,1-1.6,3.2-1.9,7.5
			c-0.3,4.1,0.2,8.6-2.3,8.4c-1.1-0.1-1.2-2.8-3.4-4.2c-1-0.6-2-0.4-2.8,0c-0.6,0.3-0.7,1.1-0.2,1.5c1.2,1.1,2.7,2.8,3.5,6.1
			c0.7,2.8,2.8,3.8,4.2,6.7c0.3,0.8,0.5,1.7,0.5,2.4c0,0.5,0.4,0.9,0.9,0.9c0,0,2.5,0,4.1,0c0,0,0.2,0,0.2,0c1.5,0,4.6,0,4.6,0
			c0.5,0,0.9-0.4,0.9-0.9c0.1-0.8,0.5-2.3,0.7-3.1c0,0,0,0,0-0.1c0,0,0,0,0,0C35.5,35.5,36.3,32.7,35.6,30.2z"/>
	</g>
</g>
</svg>
