<?xml version="1.0" encoding="utf-8"?>
<!-- Generator: Adobe Illustrator 18.0.0, SVG Export Plug-In . SVG Version: 6.00 Build 0)  -->
<!DOCTYPE svg PUBLIC "-//W3C//DTD SVG 1.1//EN" "http://www.w3.org/Graphics/SVG/1.1/DTD/svg11.dtd">
<svg version="1.1" id="Layer_1" xmlns="http://www.w3.org/2000/svg" xmlns:xlink="http://www.w3.org/1999/xlink" x="0px" y="0px"
	 viewBox="0 0 50.5 50.5" style="enable-background:new 0 0 50.5 50.5;" xml:space="preserve">
<style type="text/css">
	.st0{fill:#65B4E1;}
</style>
<path class="st0" d="M19.7,43.5c4.5,0,8.5-2.7,10.2-6.8c0.2-0.5,0.2-1,0-1.5c-0.2-0.5-0.6-0.8-1-1c-0.5-0.2-1-0.2-1.5,0
	c-0.5,0.2-0.8,0.6-1,1c-1.1,2.7-3.8,4.5-6.7,4.5c-4,0-7.3-3.3-7.3-7.3c0-3.3,2.2-6.1,5.3-7c0.5-0.1,0.9-0.5,1.1-0.9
	c0.2-0.4,0.3-1,0.2-1.4s-0.5-0.9-0.9-1.1c-0.4-0.2-1-0.3-1.4-0.2c-4.8,1.3-8.1,5.7-8.1,10.7C8.6,38.6,13.6,43.5,19.7,43.5z"/>
<circle class="st0" cx="21.5" cy="11.4" r="3.7"/>
<path class="st0" d="M23.3,31.9l7.6,0.4l2.5,8.9c0.2,0.8,1,1.4,1.8,1.4c0.1,0,0.1,0,0.2,0l2.5-0.3c1-0.1,1.8-1.1,1.7-2.1
	c-0.1-0.5-0.3-1-0.7-1.3c-0.4-0.3-0.9-0.5-1.4-0.4l-0.9,0.1L34.2,30c-0.2-0.8-0.9-1.4-1.7-1.4l-7.4-0.3l-0.6-6.2l5.8,3.7
	c0.4,0.3,0.9,0.4,1.4,0.3c0.5-0.1,0.9-0.4,1.2-0.8c0.3-0.4,0.4-0.9,0.3-1.4c-0.1-0.5-0.4-0.9-0.8-1.2l-9.1-5.9c-0.6-0.4-1.4-0.4-2,0
	c-0.6,0.4-1,1.1-0.9,1.8l1.2,11.7C21.6,31.2,22.4,31.9,23.3,31.9z"/>
</svg>
