<svg xmlns="http://www.w3.org/2000/svg" viewBox="0 0 50.46 50.46">
  <title>Iconos</title>
  <path d="M19.67,43.55a11.07,11.07,0,0,0,10.21-6.77,1.9,1.9,0,0,0-3.5-1.48,7.29,7.29,0,1,1-8.68-9.86,1.9,1.9,0,1,0-1-3.66A11.08,11.08,0,0,0,19.67,43.55Z" fill="#00b5e4"/>
  <circle cx="21.48" cy="11.38" r="3.66" fill="#00b5e4"/>
  <path d="M23.31,31.93l7.62,0.36,2.46,8.93a1.9,1.9,0,0,0,1.83,1.39h0.21l2.47-.28a1.9,1.9,0,1,0-.43-3.77l-0.85.1L34.22,30a1.89,1.89,0,0,0-1.74-1.39l-7.36-.34-0.63-6.15,5.78,3.74a1.9,1.9,0,0,0,2.06-3.19l-9.1-5.89a1.9,1.9,0,0,0-2.92,1.79l1.2,11.72A1.89,1.89,0,0,0,23.31,31.93Z" fill="#00b5e4"/>
</svg>
