<?xml version="1.0" encoding="utf-8"?>
<!-- Generator: Adobe Illustrator 19.0.0, SVG Export Plug-In . SVG Version: 6.00 Build 0)  -->
<svg version="1.1" id="Capa_1" xmlns="http://www.w3.org/2000/svg" xmlns:xlink="http://www.w3.org/1999/xlink" x="0px" y="0px"
	 viewBox="24 -98.3 212 277.3" style="enable-background:new 24 -98.3 212 277.3;" xml:space="preserve">
<g>
	<path d="M144.3-34c0.5,0,0.9,0,1.4,0c14.1,0,26-9.3,29.3-23.1s-3.8-28.1-16.7-34.1c-1.9-0.9-3.9-1.4-5.8-2
		c-0.9-0.2-1.7-0.5-2.6-0.8l-0.2-0.1h-0.2c-2.3,0-4.8,0-7.1-0.1h-0.2l-0.2,0.1c-0.2,0.1-0.4,0.1-0.7,0.2c-0.2,0.1-0.4,0.1-0.5,0.2
		c-16.3,2.7-27.4,18.1-24.7,34.3C118.3-45,130-34.5,144.3-34z M127.5-63.9c0-4.8,1.8-9.4,5.3-12.9s8.1-5.4,12.9-5.4
		c4.9,0,9.5,1.9,13,5.5c3.4,3.5,5.3,8,5.3,12.8s-2,9.4-5.5,12.9c-3.5,3.4-8,5.3-12.7,5.3c-0.1,0-0.1,0-0.2,0
		C135.7-45.8,127.6-54,127.5-63.9z"/>
	<path d="M224,16.1L224,16.1c-1-0.1-1.9-0.1-2.8-0.1h-33.7c0-1.6,0-3.2,0-4.8c0-4.1,0-8,0-11.9c-0.1-16.6-12.2-29.2-28.7-29.8
		c-8.2-0.3-17.2-0.2-27.4,0.1c-13.3,0.5-25,11.2-26.5,24.2c-0.7,5-0.6,10.1-0.6,15.1c0,1.9,0,3.8,0,5.7v1.2H92c0-10,0-20.3,0.1-30.3
		c0-0.3,0.3-1,0.9-1.6c2.4-2.5,4.9-5,7.3-7.4c3.6-3.6,7.3-7.4,10.9-11.2c0.9-0.9,1.5-1.6,2-2.5c1.4-2.2,1.2-4.6-0.5-6.6
		c-1.8-2.1-4.2-2.7-6.5-1.7c-1,0.5-2.2,1.4-3.2,2.4c-3.4,3.3-6.7,6.7-10.1,10c-3.4,3.4-6.7,6.7-10.1,10.1c-1.9,1.9-2.7,4-2.7,6.6
		v32.2H45.2c-2.2,0-4,0.6-5.2,1.9c-1,1.1-1.5,2.5-1.5,4.1c0,3.5,2.6,5.7,6.7,5.7h24.3v116.8c0,2.4,0.4,5.9,4.3,7.6l0.3,0.1h0.3
		c38.9,0,79.2,0,118.7,0.2h0.3l0.3-0.1c3.8-1.6,4.3-4.9,4.3-7.6V27.8h22.2c1.2,0,2.5,0,3.8-0.1c3.1-0.4,5.2-2.9,5.1-6
		C229,18.7,227,16.5,224,16.1z M116.3-3.7v-0.5c0-0.2,0-0.4,0-0.6c0.6-7,7.2-13.4,14.1-13.7c11.1-0.5,21-0.5,30.2,0
		c7.4,0.4,13.7,6.8,14.7,14.9c0.2,1.1,0.2,2.2,0.2,3.4V16c-19.8-0.2-39.8-0.2-59.2-0.2c0-1.9-0.1-3.7-0.1-5.5
		C116.1,5.5,116,0.9,116.3-3.7z M81.5,140.2V27.9H186v112.3L81.5,140.2L81.5,140.2z"/>
</g>
</svg>
