<?xml version="1.0" encoding="utf-8"?>
<!-- Generator: Adobe Illustrator 19.0.0, SVG Export Plug-In . SVG Version: 6.00 Build 0)  -->
<svg version="1.1" id="Capa_1" xmlns="http://www.w3.org/2000/svg" xmlns:xlink="http://www.w3.org/1999/xlink" x="0px" y="0px"
	 viewBox="516.75 15.1 50.5 50.5" style="enable-background:new 516.75 15.1 50.5 50.5;" xml:space="preserve">
<g>
	<path d="M543.925,28.827c0.085,0.004,0.169,0.005,0.253,0.005c2.575,0,4.757-1.703,5.357-4.215
		c0.597-2.521-0.689-5.141-3.055-6.229c-0.345-0.159-0.707-0.263-1.057-0.364c-0.157-0.045-0.314-0.091-0.472-0.141l-0.041-0.013
		h-0.043c-0.428,0-0.871,0-1.303-0.018l-0.039-0.002l-0.038,0.01c-0.039,0.01-0.079,0.023-0.12,0.038
		c-0.032,0.012-0.066,0.024-0.097,0.031c-2.97,0.501-4.996,3.313-4.516,6.267C539.178,26.826,541.305,28.73,543.925,28.827z
		 M540.85,23.364c-0.008-0.88,0.334-1.714,0.963-2.349c0.633-0.639,1.471-0.99,2.361-0.99c0.895,0,1.74,0.355,2.379,0.999
		c0.629,0.635,0.971,1.466,0.963,2.34c-0.008,0.881-0.367,1.717-1.01,2.353c-0.635,0.628-1.457,0.973-2.318,0.973
		c-0.01,0-0.02,0-0.03,0C542.35,26.674,540.866,25.181,540.85,23.364z"/>
	<path d="M558.472,37.979l-0.005-0.001c-0.179-0.02-0.338-0.02-0.505-0.02h-6.154c0.001-0.294,0.002-0.585,0.004-0.872
		c0.004-0.754,0.008-1.465-0.004-2.179c-0.019-3.038-2.219-5.326-5.232-5.44c-1.497-0.049-3.134-0.043-5.006,0.018
		c-2.428,0.098-4.557,2.041-4.844,4.42c-0.121,0.915-0.116,1.848-0.111,2.749c0.002,0.348,0.004,0.696-0.001,1.049v0.219h-2.246
		c0-1.82,0-3.7,0.018-5.534c0-0.062,0.054-0.178,0.16-0.284c0.438-0.452,0.89-0.907,1.327-1.347c0.659-0.663,1.34-1.349,1.994-2.046
		c0.156-0.156,0.273-0.3,0.367-0.45c0.251-0.402,0.215-0.839-0.098-1.201c-0.33-0.381-0.759-0.494-1.188-0.303
		c-0.19,0.095-0.397,0.25-0.581,0.433c-0.621,0.612-1.232,1.223-1.844,1.835c-0.612,0.612-1.224,1.224-1.847,1.838
		c-0.341,0.341-0.5,0.722-0.5,1.198v5.881h-6.355c-0.407,0-0.737,0.119-0.954,0.343c-0.187,0.194-0.281,0.458-0.27,0.753
		c0,0.632,0.48,1.041,1.224,1.041h4.438v21.33c0,0.444,0.081,1.07,0.784,1.383l0.053,0.024h0.058c7.11,0,14.463,0,21.676,0.036
		l0.057,0l0.052-0.022c0.698-0.299,0.787-0.897,0.787-1.384v-21.33h4.054c0.221,0,0.45,0,0.693-0.021
		c0.564-0.074,0.956-0.531,0.932-1.088C559.379,38.452,559.013,38.049,558.472,37.979z M538.811,34.361l0.004-0.085
		c0.002-0.039,0.004-0.077,0.006-0.109c0.117-1.271,1.319-2.443,2.571-2.509c2.021-0.1,3.821-0.1,5.504,0
		c1.356,0.081,2.509,1.249,2.686,2.73c0.033,0.197,0.033,0.399,0.033,0.612v2.956c-3.617-0.033-7.27-0.034-10.812-0.034
		c-0.003-0.339-0.01-0.676-0.016-1.004C538.769,36.034,538.752,35.199,538.811,34.361z M532.449,60.64V40.131h19.084V60.64H532.449z
		"/>
</g>
</svg>
