<svg id="Layer_1" data-name="Layer 1" xmlns="http://www.w3.org/2000/svg" viewBox="0 0 50.46 50.46"><defs><style>.cls-1{fill:none;stroke:#12b5e1;stroke-linecap:round;stroke-linejoin:round;stroke-width:1.8px;}</style></defs><title>discapacitadi lineal</title><path class="cls-1" d="M31,41.73A12.54,12.54,0,0,0,33,28a.31.31,0,0,0,0-.15l3.32-.19-.81,9.92a2.46,2.46,0,0,0,2.26,2.65h.2A2.46,2.46,0,0,0,40.37,38l1-12.73a2.52,2.52,0,0,0-.69-1.92,2.46,2.46,0,0,0-1.9-.74L30.23,23,35,17.66a2.91,2.91,0,0,0,.6-2.71,2.46,2.46,0,0,0-1.1-1.55L23.17,6.83a2.48,2.48,0,0,0-2.88.3L14.79,12a2.46,2.46,0,1,0,3.27,3.67L22.24,12l3.45,2L19.6,20.93a.16.16,0,0,0-.08.05,12.56,12.56,0,0,0-6.23,3m-2,2.27A12.58,12.58,0,0,0,28.66,43.8m-5.3-2.52a8.26,8.26,0,0,1-1.73.18,8.09,8.09,0,0,1-7.17-11.85M25.54,40.4l-.06,0M16.57,27.05A8.09,8.09,0,0,1,27.79,38.61"/><path class="cls-1" d="M37.16,11.75A4.12,4.12,0,1,0,33,7.63,4.12,4.12,0,0,0,37.16,11.75Z"/></svg>