<?xml version="1.0" encoding="utf-8"?>
<!-- Generator: Adobe Illustrator 24.2.1, SVG Export Plug-In . SVG Version: 6.00 Build 0)  -->
<svg version="1.1" id="Layer_1" xmlns="http://www.w3.org/2000/svg" xmlns:xlink="http://www.w3.org/1999/xlink" x="0px" y="0px"
	 viewBox="0 0 50.5 50.5" style="enable-background:new 0 0 50.5 50.5;" xml:space="preserve">
<g>
	<g>
		<path d="M14.3,47.5c-0.5-0.2-0.6-0.6-0.6-1.1c0-7,0-14.1,0-21.1c0-0.2,0-0.3,0-0.6c-0.2,0-0.3,0-0.5,0c-1.4,0-2.8,0-4.2,0
			c-0.6,0-1-0.3-1-0.8c0-0.5,0.3-0.8,1-0.8c2,0,4.1,0,6.1,0c0.2,0,0.3,0,0.6,0c0-0.2,0-0.3,0-0.5c0-1.9,0-3.8,0-5.7
			c0-0.4,0.1-0.7,0.4-1c1.2-1.2,2.5-2.5,3.7-3.7c0.1-0.1,0.3-0.3,0.5-0.4c0.3-0.1,0.6,0,0.9,0.2c0.2,0.3,0.3,0.6,0.1,0.9
			c-0.1,0.1-0.2,0.3-0.3,0.4c-1.1,1.2-2.2,2.3-3.3,3.4c-0.1,0.1-0.2,0.3-0.2,0.5c0,1.9,0,3.8,0,5.6c0,0.1,0,0.1,0,0.2
			c0.9,0,1.8,0,2.8,0c0-0.2,0-0.3,0-0.5c0-1.3-0.1-2.5,0.1-3.8c0.3-2.3,2.3-4.1,4.6-4.2c1.7-0.1,3.3-0.1,5,0c2.9,0.1,5,2.3,5,5.2
			c0,1.1,0,2.2,0,3.3c0.2,0,0.3,0,0.5,0c2,0,4,0,6,0c0.2,0,0.3,0,0.5,0c0.4,0.1,0.7,0.4,0.7,0.8c0,0.4-0.3,0.8-0.7,0.8
			c-0.2,0-0.4,0-0.7,0c-1.4,0-2.8,0-4.3,0c0,0.2,0,0.4,0,0.6c0,7,0,14.1,0,21.1c0,0.5-0.1,0.9-0.6,1.1
			C28.9,47.5,21.6,47.5,14.3,47.5z M15.4,45.9c6.6,0,13.1,0,19.7,0c0-7.1,0-14.1,0-21.1c-6.6,0-13.1,0-19.7,0
			C15.4,31.8,15.4,38.8,15.4,45.9z M21.7,23.1c3.8,0,7.6,0,11.4,0c0-1.1,0-2.1,0-3.2c0-0.2,0-0.4,0-0.7c-0.2-1.5-1.4-2.9-3-3
			c-1.9-0.1-3.7-0.1-5.6,0c-1.4,0.1-2.7,1.4-2.8,2.8C21.7,20.4,21.7,21.7,21.7,23.1z"/>
		<path d="M36.2,48.1l-0.1,0c-7.2,0-14.6,0-21.8,0h-0.1l-0.1,0c-0.9-0.4-0.9-1.3-0.9-1.6V25.2H9c-0.9,0-1.5-0.5-1.5-1.3
			c0-0.4,0.1-0.7,0.3-0.9C8,22.8,8.4,22.6,9,22.6h6.1v-5.7c0-0.5,0.2-1,0.6-1.4c0.6-0.6,1.2-1.2,1.9-1.8c0.6-0.6,1.2-1.2,1.9-1.8
			c0.1-0.1,0.4-0.3,0.6-0.5c0.5-0.2,1.1-0.1,1.5,0.4c0.4,0.4,0.4,1,0.1,1.5c-0.1,0.2-0.2,0.3-0.4,0.5c-0.7,0.7-1.3,1.4-2,2.1
			c-0.4,0.4-0.9,0.9-1.3,1.3c-0.1,0.1-0.1,0.1-0.1,0.1c0,1.7,0,3.5,0,5.3h1.8c0-0.3,0-0.7,0-1c0-0.9,0-1.9,0.1-2.8
			c0.3-2.5,2.5-4.5,5.1-4.7c1.9-0.1,3.5-0.1,5,0c3.2,0.1,5.5,2.5,5.5,5.7c0,0.7,0,1.4,0,2.2c0,0.2,0,0.4,0,0.6h5.9
			c0.2,0,0.3,0,0.5,0c0.7,0.1,1.1,0.6,1.2,1.3c0,0.7-0.5,1.3-1.2,1.3c-0.3,0-0.5,0-0.7,0h-3.8v21.2C37.2,46.9,37.1,47.7,36.2,48.1
			L36.2,48.1z M14.5,47c7.1,0,14.4,0,21.5,0c0.1-0.1,0.2-0.2,0.2-0.6V24.2h4.9c0.2,0,0.4,0,0.6,0c0.1,0,0.2-0.1,0.2-0.3
			c0-0.2-0.2-0.3-0.2-0.3c-0.1,0-0.3,0-0.4,0h-7v-0.5c0-0.4,0-0.8,0-1.2c0-0.7,0-1.5,0-2.2c0-2.7-1.9-4.6-4.5-4.7c-1.5,0-3.1,0-5,0
			c-2,0.1-3.9,1.8-4.1,3.7c-0.1,0.9-0.1,1.7-0.1,2.7c0,0.4,0,0.7,0,1.1v1h-3.7l-0.1-0.4c0-0.1-0.1-0.2-0.1-0.3c0-1.9,0-3.8,0-5.7
			c0-0.4,0.3-0.7,0.4-0.8c0.4-0.5,0.9-0.9,1.3-1.4c0.7-0.7,1.3-1.3,2-2c0.1-0.1,0.2-0.2,0.3-0.3c0.1-0.1,0.1-0.2,0-0.3
			c-0.1-0.2-0.2-0.1-0.3-0.1c-0.1,0-0.2,0.2-0.4,0.3c-0.6,0.6-1.2,1.2-1.9,1.8c-0.6,0.6-1.2,1.2-1.9,1.8c-0.2,0.2-0.3,0.4-0.3,0.6
			v6.7H9c-0.2,0-0.3,0-0.4,0.1c0,0-0.1,0.1,0,0.2c0,0.1,0,0.3,0.4,0.3h5.3v22.2C14.2,46.8,14.3,46.9,14.5,47z M35.6,46.4H14.8V24.2
			h20.8V46.4z M15.9,45.4h18.7V25.3H15.9V45.4z M33.7,23.6H21.2v-0.5c0-0.4,0-0.8,0-1.3c0-0.9,0-1.9,0-2.8c0.2-1.7,1.7-3.2,3.3-3.3
			c2.1-0.1,3.9-0.1,5.6,0c1.7,0.1,3.2,1.6,3.4,3.4c0,0.2,0,0.5,0,0.7V23.6z M22.3,22.5h10.4v-2.7c0-0.2,0-0.4,0-0.6
			c-0.2-1.4-1.2-2.5-2.5-2.5c-1.7-0.1-3.5-0.1-5.5,0c-1.1,0.1-2.2,1.2-2.3,2.3c-0.1,0.9,0,1.8,0,2.7C22.3,22,22.3,22.3,22.3,22.5z"
			/>
	</g>
	<g>
		<path d="M28.1,2.9c0.5,0.2,1,0.3,1.5,0.5c2.3,1,3.5,3.5,2.9,5.9c-0.6,2.5-2.8,4.1-5.4,4c-2.5-0.1-4.5-1.9-4.9-4.4
			c-0.5-2.8,1.5-5.5,4.3-6c0.1,0,0.2-0.1,0.2-0.1C27.2,2.9,27.7,2.9,28.1,2.9z M27.4,4.6c-2,0-3.6,1.7-3.6,3.6c0,2,1.6,3.6,3.6,3.6
			c2,0,3.6-1.6,3.6-3.6S29.4,4.6,27.4,4.6z"/>
		<path d="M27.4,13.9c-0.1,0-0.2,0-0.3,0c-2.7-0.1-5-2.1-5.4-4.9c-0.5-3.1,1.6-6,4.7-6.6c0,0,0,0,0.1,0c0,0,0.1,0,0.1,0l0.1,0l0.1,0
			c0.4,0,0.9,0,1.3,0l0.2,0c0.2,0.1,0.3,0.1,0.5,0.1c0.4,0.1,0.7,0.2,1.1,0.4c2.5,1.1,3.8,3.9,3.2,6.5
			C32.4,12.1,30.1,13.9,27.4,13.9z M26.9,3.4c-0.1,0-0.1,0-0.2,0.1c-2.6,0.4-4.3,2.8-3.9,5.4c0.4,2.3,2.2,3.9,4.4,4
			c2.3,0.1,4.3-1.4,4.8-3.6c0.5-2.2-0.6-4.4-2.6-5.3c-0.3-0.1-0.6-0.2-0.9-0.3c-0.1,0-0.3-0.1-0.4-0.1C27.6,3.5,27.2,3.5,26.9,3.4z
			 M27.4,12.3C27.4,12.3,27.4,12.3,27.4,12.3c-2.3,0-4.1-1.9-4.1-4.1c0-1.1,0.4-2.1,1.2-2.9C25.3,4.5,26.3,4,27.4,4
			c1.1,0,2.2,0.4,3,1.2c0.8,0.8,1.2,1.8,1.2,2.9c0,1.1-0.5,2.1-1.3,2.9C29.5,11.9,28.5,12.3,27.4,12.3z M27.4,5.1
			c-0.8,0-1.6,0.3-2.2,0.9c-0.6,0.6-0.9,1.4-0.9,2.2c0,1.7,1.4,3.1,3.1,3.1c0.8,0,1.6-0.3,2.2-0.9c0.6-0.6,0.9-1.4,0.9-2.2
			c0-0.8-0.3-1.6-0.9-2.2C29,5.4,28.2,5.1,27.4,5.1z"/>
	</g>
	<g>
		<path d="M35.6,46.4H14.8V24.2h20.8V46.4z M15.9,45.4h18.7V25.3H15.9V45.4z"/>
	</g>
	<g>
		<path d="M27.5,12.3C27.4,12.3,27.4,12.3,27.5,12.3c-2.3,0-4.2-1.9-4.2-4.1c0-1.1,0.4-2.1,1.2-2.9C25.3,4.5,26.3,4,27.4,4
			c1.1,0,2.2,0.4,3,1.2c0.8,0.8,1.2,1.8,1.2,2.9c0,1.1-0.5,2.2-1.3,3C29.5,11.9,28.5,12.3,27.5,12.3z M27.4,5.1
			c-0.8,0-1.6,0.3-2.2,0.9c-0.6,0.6-0.9,1.4-0.9,2.2c0,1.7,1.4,3.1,3.1,3.1c0.8,0,1.6-0.3,2.2-0.9c0.6-0.6,1-1.4,1-2.2
			c0-0.8-0.3-1.6-0.9-2.2C29,5.4,28.2,5.1,27.4,5.1z"/>
	</g>
</g>
</svg>
