<svg xmlns="http://www.w3.org/2000/svg" viewBox="0 0 50.46 50.46">
  <title>Iconos</title>
  <path d="M15.88,11.65a0.84,0.84,0,1,0,0,1.67H35.06a0.84,0.84,0,1,0,0-1.67H15.88Z" fill="#00b5e4"/>
  <path d="M38.53,8.44a0.84,0.84,0,0,0-.84-0.84H15.62a4.81,4.81,0,0,0-4.81,4.81V38.5a4.81,4.81,0,0,0,4.81,4.81H37.69a0.84,0.84,0,0,0,.84-0.84V27.17l-1.68,1.75V41.64H15.62a3.14,3.14,0,0,1-3.13-3.13V16.06a4.8,4.8,0,0,0,3.13,1.16H36.85v1.42c0.54-.53,1.1-1.06,1.68-1.59V16.38a0.85,0.85,0,0,0-.84-0.84H15.62a3.13,3.13,0,1,1,0-6.27H37.69A0.84,0.84,0,0,0,38.53,8.44Z" fill="#00b5e4"/>
  <path d="M27.95,34a1.08,1.08,0,0,0,1.53-.3l1.09-1.16-2.08-2L27.4,31.74a1,1,0,0,0-.24,1.5l0.11,0.1a2.28,2.28,0,0,1-2.88-.06S21.72,34.46,22,37.05a5,5,0,0,1-1.11,3.28l3-3.24a0.79,0.79,0,0,1,.1-1.16,1,1,0,0,1,1.42,1.33,0.91,0.91,0,0,1-1.16.17l-3.09,3.19a7.08,7.08,0,0,1,3.23-1.28c2.61,0.12,3.64-2.58,3.64-2.58a2.28,2.28,0,0,1-.24-2.87Z" fill="#00b5e4"/>
  <path d="M46.32,13.65c-0.76-.71-5.52,3.13-10.77,8.72C34,24,31.21,27.1,29,29.68L31.42,32c2.44-2.41,5.32-5.37,6.84-7C43.51,19.39,47.08,14.36,46.32,13.65Z" fill="#00b5e4"/>
</svg>
