<svg xmlns="http://www.w3.org/2000/svg" viewBox="0 0 50.46 50.46">
  <title>Iconos</title>
  <g>
    <g>
      <path d="M14.57,11.3a1,1,0,1,0,0,1.92H33.74a1,1,0,1,0,0-1.92H14.57Z" fill="#00b5e4"/>
      <path d="M36.37,15.19H14.3a3,3,0,0,1,0-6H36.37a1,1,0,0,0,0-1.92H14.3a4.94,4.94,0,0,0-4.93,4.93V38.28a4.94,4.94,0,0,0,4.93,4.93H36.37a1,1,0,0,0,1-1V26.63l-0.22.23-1.68,1.75,0,0V41.28H14.3a3,3,0,0,1-3-3V16.09a4.94,4.94,0,0,0,3,1h21.1v1.59l0.21-.21c0.57-.56,1.13-1.09,1.68-1.59l0,0V16.15A1,1,0,0,0,36.37,15.19Z" fill="#00b5e4"/>
    </g>
    <path d="M27.79,32.62a1.08,1.08,0,0,0,1.53-.3l1.09-1.16-2.08-2-1.09,1.16a1,1,0,0,0-.24,1.5L27.11,32a2.28,2.28,0,0,1-2.88-.06s-2.65,1.17-2.37,3.76A5,5,0,0,1,20.75,39l3-3.24a0.79,0.79,0,0,1,.1-1.16,1,1,0,0,1,1.42,1.33,0.91,0.91,0,0,1-1.16.17l-3.09,3.19A7.08,7.08,0,0,1,24.29,38c2.61,0.12,3.64-2.58,3.64-2.58a2.28,2.28,0,0,1-.24-2.87Z" fill="#00b5e4"/>
    <path d="M46.17,12.28c-0.76-.71-5.52,3.13-10.77,8.72-1.53,1.63-4.34,4.73-6.59,7.31l2.46,2.31c2.44-2.41,5.32-5.37,6.84-7C43.36,18,46.93,13,46.17,12.28Z" fill="#00b5e4"/>
  </g>
</svg>
