<?xml version="1.0" encoding="utf-8"?>
<!-- Generator: Adobe Illustrator 18.0.0, SVG Export Plug-In . SVG Version: 6.00 Build 0)  -->
<!DOCTYPE svg PUBLIC "-//W3C//DTD SVG 1.1//EN" "http://www.w3.org/Graphics/SVG/1.1/DTD/svg11.dtd">
<svg version="1.1" id="Layer_1" xmlns="http://www.w3.org/2000/svg" xmlns:xlink="http://www.w3.org/1999/xlink" x="0px" y="0px"
	 viewBox="0 0 50.5 50.5" style="enable-background:new 0 0 50.5 50.5;" xml:space="preserve">
<style type="text/css">
	.st0{fill:#65B4E1;}
</style>
<path class="st0" d="M15.9,11.6c-0.5,0-0.8,0.4-0.8,0.8c0,0.5,0.4,0.8,0.8,0.8h19.2c0.5,0,0.8-0.4,0.8-0.8c0-0.5-0.4-0.8-0.8-0.8
	H15.9z"/>
<path class="st0" d="M38.5,8.4c0-0.5-0.4-0.8-0.8-0.8H15.6c-2.6,0-4.8,2.2-4.8,4.8v26.1c0,2.6,2.2,4.8,4.8,4.8h22.1
	c0.5,0,0.8-0.4,0.8-0.8V27.2c-0.5,0.5-1,1.1-1.7,1.7v12.7H15.6c-1.7,0-3.1-1.4-3.1-3.1V16.1c0.8,0.7,1.9,1.2,3.1,1.2h21.2v1.4
	c0.5-0.5,1.1-1.1,1.7-1.6v-0.7c0-0.5-0.4-0.8-0.8-0.8H15.6c-1.7,0-3.1-1.4-3.1-3.1c0-1.7,1.4-3.1,3.1-3.1h22.1
	C38.2,9.3,38.5,8.9,38.5,8.4z"/>
<path class="st0" d="M27.9,34c0.5,0.4,1.1,0.2,1.5-0.3c0.4-0.5,1.1-1.2,1.1-1.2l-2.1-2c0,0-0.7,0.7-1.1,1.2
	c-0.4,0.5-0.7,1.1-0.2,1.5l0.1,0.1c-0.5,0.3-1.8,1-2.9-0.1c0,0-2.7,1.2-2.4,3.8c0.1,1-0.4,2.6-1.1,3.3l3-3.2
	c-0.4-0.4-0.2-0.8,0.1-1.2c0.4-0.4,1-0.4,1.3,0s0.4,1,0.1,1.3c-0.3,0.3-0.8,0.4-1.2,0.2l-3.1,3.2c0.9-0.6,2.3-1.3,3.2-1.3
	c2.6,0.1,3.6-2.6,3.6-2.6c-1.1-1.1-0.5-2.4-0.2-2.9L27.9,34z"/>
<path class="st0" d="M46.3,13.6c-0.8-0.7-5.5,3.1-10.8,8.7C34,24,31.2,27.1,29,29.7l2.5,2.3c2.4-2.4,5.3-5.4,6.8-7
	C43.5,19.4,47.1,14.4,46.3,13.6z"/>
</svg>
