<svg id="Layer_1" data-name="Layer 1" xmlns="http://www.w3.org/2000/svg" viewBox="0 0 50.46 50.46"><defs><style>.cls-1{fill:#00b5e4;}</style></defs><title>Iconos</title><path class="cls-1" d="M41,13.55V13.47L34.28,6.27,34.22,6.2H13.52a4.2,4.2,0,0,0-4.2,4.2V40.06a4.2,4.2,0,0,0,4.2,4.2H36.94a4.2,4.2,0,0,0,4.19-4.2Zm-1.76,1.62V40.06a2.34,2.34,0,0,1-2.34,2.34H13.52a2.34,2.34,0,0,1-2.34-2.34V10.4a2.34,2.34,0,0,1,2.34-2.34H32.91l0,6.07a1.06,1.06,0,0,0,1.08,1C34.4,15.18,37,15.2,39.28,15.17ZM35,10l2.86,3.12H35Z"/><path class="cls-1" d="M30.12,17.26H28.06l-0.39,1.18H26.41l2.13-5.71h1.09l2.14,5.71H30.52Zm-1.75-1H29.8l-0.72-2.14Z"/><path class="cls-1" d="M27,28.34V22.63h2a2.63,2.63,0,0,1,1.58.4,1.36,1.36,0,0,1,.54,1.17,1.29,1.29,0,0,1-.22.74,1.25,1.25,0,0,1-.6.47,1.21,1.21,0,0,1,.69.44,1.31,1.31,0,0,1,.25.82,1.51,1.51,0,0,1-.53,1.25,2.37,2.37,0,0,1-1.5.43H27ZM28.15,25H29a0.73,0.73,0,0,0,.89-0.71,0.66,0.66,0,0,0-.23-0.56A1.19,1.19,0,0,0,29,23.58H28.15V25Zm0,0.83v1.54h1a1,1,0,0,0,.65-0.2A0.68,0.68,0,0,0,30,26.65a0.72,0.72,0,0,0-.81-0.8H28.15Z"/><path class="cls-1" d="M31.41,36.5A2,2,0,0,1,30.73,38a2.39,2.39,0,0,1-1.62.53,2.15,2.15,0,0,1-1.73-.74,3,3,0,0,1-.63-2V35.37A3.42,3.42,0,0,1,27,33.92a2.17,2.17,0,0,1,.83-1,2.59,2.59,0,0,1,2.85.19,2.17,2.17,0,0,1,.7,1.49H30.25a1.19,1.19,0,0,0-.31-0.8,1.14,1.14,0,0,0-.81-0.25,1,1,0,0,0-.88.42,2.36,2.36,0,0,0-.3,1.31v0.43a2.53,2.53,0,0,0,.28,1.35,1,1,0,0,0,.88.43,1.16,1.16,0,0,0,.81-0.25,1.12,1.12,0,0,0,.31-0.77h1.18Z"/><path class="cls-1" d="M20.61,19.54H17a2,2,0,0,1-2-2v-3.6a2,2,0,0,1,2-2h3.6a2,2,0,0,1,2,2v3.6A2,2,0,0,1,20.61,19.54ZM17,13.06a0.89,0.89,0,0,0-.89.89v3.6a0.89,0.89,0,0,0,.89.89h3.6a0.89,0.89,0,0,0,.89-0.89v-3.6a0.89,0.89,0,0,0-.89-0.89H17Z"/><path class="cls-1" d="M20.61,39.58H17a2,2,0,0,1-2-2V34a2,2,0,0,1,2-2h3.6a2,2,0,0,1,2,2v3.6A2,2,0,0,1,20.61,39.58ZM17,33.1a0.89,0.89,0,0,0-.89.89v3.6a0.89,0.89,0,0,0,.89.89h3.6a0.89,0.89,0,0,0,.89-0.89V34a0.89,0.89,0,0,0-.89-0.89H17Z"/><polygon class="cls-1" points="24.63 20.5 23.52 21.48 22.99 21.95 21.91 22.91 18.62 25.83 16.12 23.3 14.72 24.54 14.86 24.72 15.43 25.42 18.68 29.47 23.72 23.85 24.38 23.12 25.76 21.59 24.63 20.5"/></svg>