<?xml version="1.0" encoding="utf-8"?>
<!-- Generator: Adobe Illustrator 18.0.0, SVG Export Plug-In . SVG Version: 6.00 Build 0)  -->
<!DOCTYPE svg PUBLIC "-//W3C//DTD SVG 1.1//EN" "http://www.w3.org/Graphics/SVG/1.1/DTD/svg11.dtd">
<svg version="1.1" id="Layer_1" xmlns="http://www.w3.org/2000/svg" xmlns:xlink="http://www.w3.org/1999/xlink" x="0px" y="0px"
	 viewBox="0 0 50.5 50.5" style="enable-background:new 0 0 50.5 50.5;" xml:space="preserve">
<style type="text/css">
	.st0{fill:#65B4E1;}
</style>
<g>
	<g>
		<path class="st0" d="M41,13.6L41,13.6l-6.8-7.3l-0.1-0.1H13.5c-2.3,0-4.2,1.9-4.2,4.2v29.7c0,2.3,1.9,4.2,4.2,4.2h23.4
			c2.3,0,4.2-1.9,4.2-4.2L41,13.6z M39.3,15.2v24.9c0,1.3-1,2.3-2.3,2.3H13.5c-1.3,0-2.3-1-2.3-2.3V10.4c0-1.3,1-2.3,2.3-2.3h19.4
			l0,6.1c0,0.6,0.5,1,1.1,1C34.4,15.2,37,15.2,39.3,15.2z M35,10l2.9,3.1c-1.1,0-2.1,0-2.8,0L35,10z"/>
		<path class="st0" d="M30.1,17.3h-2.1l-0.4,1.2h-1.3l2.1-5.7h1.1l2.1,5.7h-1.3L30.1,17.3z M28.4,16.3h1.4l-0.7-2.1L28.4,16.3z"/>
		<path class="st0" d="M27,28.3v-5.7h2c0.7,0,1.2,0.1,1.6,0.4c0.4,0.3,0.5,0.7,0.5,1.2c0,0.3-0.1,0.5-0.2,0.7
			c-0.1,0.2-0.3,0.4-0.6,0.5c0.3,0.1,0.5,0.2,0.7,0.4c0.2,0.2,0.3,0.5,0.3,0.8c0,0.5-0.2,1-0.5,1.2s-0.8,0.4-1.5,0.4H27z M28.1,25
			H29c0.6,0,0.9-0.2,0.9-0.7c0-0.3-0.1-0.4-0.2-0.6s-0.4-0.2-0.7-0.2h-0.8V25z M28.1,25.9v1.5h1c0.3,0,0.5-0.1,0.6-0.2
			c0.2-0.1,0.2-0.3,0.2-0.5c0-0.5-0.3-0.8-0.8-0.8H28.1z"/>
		<path class="st0" d="M31.4,36.5c0,0.6-0.3,1.1-0.7,1.5s-0.9,0.5-1.6,0.5c-0.7,0-1.3-0.2-1.7-0.7c-0.4-0.5-0.6-1.2-0.6-2v-0.3
			c0-0.5,0.1-1,0.3-1.5c0.2-0.4,0.5-0.7,0.8-1c0.4-0.2,0.8-0.3,1.3-0.3c0.7,0,1.2,0.2,1.6,0.5c0.4,0.4,0.6,0.8,0.7,1.5h-1.2
			c0-0.4-0.1-0.6-0.3-0.8s-0.4-0.2-0.8-0.2c-0.4,0-0.7,0.1-0.9,0.4c-0.2,0.3-0.3,0.7-0.3,1.3v0.4c0,0.6,0.1,1.1,0.3,1.4
			c0.2,0.3,0.5,0.4,0.9,0.4c0.4,0,0.6-0.1,0.8-0.2s0.3-0.4,0.3-0.8H31.4z"/>
		<g>
			<path class="st0" d="M20.6,19.5H17c-1.1,0-2-0.9-2-2v-3.6c0-1.1,0.9-2,2-2h3.6c1.1,0,2,0.9,2,2v3.6
				C22.6,18.6,21.7,19.5,20.6,19.5z M17,13.1c-0.5,0-0.9,0.4-0.9,0.9v3.6c0,0.5,0.4,0.9,0.9,0.9h3.6c0.5,0,0.9-0.4,0.9-0.9v-3.6
				c0-0.5-0.4-0.9-0.9-0.9H17z"/>
			<path class="st0" d="M20.6,39.6H17c-1.1,0-2-0.9-2-2V34c0-1.1,0.9-2,2-2h3.6c1.1,0,2,0.9,2,2v3.6C22.6,38.7,21.7,39.6,20.6,39.6z
				 M17,33.1c-0.5,0-0.9,0.4-0.9,0.9v3.6c0,0.5,0.4,0.9,0.9,0.9h3.6c0.5,0,0.9-0.4,0.9-0.9V34c0-0.5-0.4-0.9-0.9-0.9H17z"/>
			<polygon class="st0" points="24.6,20.5 23.5,21.5 23,22 21.9,22.9 18.6,25.8 16.1,23.3 14.7,24.5 14.9,24.7 15.4,25.4 18.7,29.5 
				23.7,23.9 24.4,23.1 25.8,21.6 			"/>
		</g>
	</g>
</g>
</svg>
