<svg id="Layer_1" data-name="Layer 1" xmlns="http://www.w3.org/2000/svg" viewBox="0 0 50.46 50.46"><defs><style>.cls-1{fill:#00b5e4;}</style></defs><title>Iconos</title><path class="cls-1" d="M26.23,7.52a1.07,1.07,0,0,0-2.13,0V9.94h2.13V7.52Z"/><path class="cls-1" d="M19.75,10.94v9.14l3.58-2.43a3,3,0,0,1,3.4,0l3.74,2.54V10.94H19.75Zm7.83,1.23a1.07,1.07,0,0,1,0,2.13H22.73a1.07,1.07,0,0,1,0-2.13h4.86Z"/><path class="cls-1" d="M29,38.24a4.65,4.65,0,0,0,.43.42h0.12A3.85,3.85,0,0,0,30,38.23,6.62,6.62,0,0,1,31.36,37h0l0.26-.59,0.44-1,0.52-1.21,0.61-1.42,2-4.61,0.48-1.12a1,1,0,0,0-.37-1.26l-3.77-2.55L31,22.94l-0.5-.34-4.69-3.18v17A5,5,0,0,1,29,38.24ZM28.66,26.31a0.8,0.8,0,0,1,1.61,0s0,0,0,0a0.81,0.81,0,0,1-1.62,0S28.66,26.32,28.66,26.31Z"/><path class="cls-1" d="M20.47,38.24a4.65,4.65,0,0,0,.43.42H21a3.83,3.83,0,0,0,.44-0.42,5.16,5.16,0,0,1,2.84-1.75V19.42L19.75,22.5l-0.5.34-0.5.34-3.92,2.66a1,1,0,0,0-.37,1.26l0.48,1.12,2,4.61,0.61,1.42L18,35.45l0.44,1,0.14,0.33A5.86,5.86,0,0,1,20.47,38.24ZM19.56,26.35s0,0,0,0a0.8,0.8,0,0,1,1.61,0s0,0,0,0A0.81,0.81,0,0,1,19.56,26.35Z"/><path class="cls-1" d="M16.91,37.91l-0.22,0A3.43,3.43,0,0,0,14,39.26l-0.25.26a4.29,4.29,0,0,1,1.3.82l0,0a2,2,0,0,1,1.59-.9,1.54,1.54,0,0,1,1.06.4,4.74,4.74,0,0,1,.4.37,4,4,0,0,1,1.37-.74l-0.15-.15A3.5,3.5,0,0,0,16.91,37.91Z"/><path class="cls-1" d="M32.12,40.34l0,0a2,2,0,0,1,1.59-.9,1.87,1.87,0,0,1,1.47.77,4,4,0,0,1,1.37-.75l-0.16-.16a3.44,3.44,0,0,0-2.68-1.37,3.32,3.32,0,0,0-.6.06,3.69,3.69,0,0,0-2.08,1.31l-0.26.26a4.25,4.25,0,0,1,1.26.78Z"/><path class="cls-1" d="M8.17,39.39a2,2,0,0,1,1.59.9,6.64,6.64,0,0,0,.75.71h0a1.74,1.74,0,0,1,.69-1.38l-0.34-.34a3.43,3.43,0,0,0-2.68-1.37A0.75,0.75,0,0,0,8.17,39.39Z"/><path class="cls-1" d="M39.61,39.26a5.68,5.68,0,0,1-.53.5,1.67,1.67,0,0,1,.47,1.5,5,5,0,0,0,1.15-1,2,2,0,0,1,1.59-.9,0.75,0.75,0,0,0,0-1.5A3.44,3.44,0,0,0,39.61,39.26Z"/><path class="cls-1" d="M19.06,42.77l0.12-.13A3.69,3.69,0,0,1,20,41.95a1.49,1.49,0,0,1,.36-0.15,1.65,1.65,0,0,1,.44-0.05,1.51,1.51,0,0,1,.93.3,4.55,4.55,0,0,1,.65.6l0.22,0.24A3.21,3.21,0,0,0,25,44a3.3,3.3,0,0,0,2.56-1.24h0l0.12-.13a4.54,4.54,0,0,1,.65-0.6,1.58,1.58,0,0,1,.42-0.22,1.61,1.61,0,0,1,.52-0.08,1.52,1.52,0,0,1,.8.21,3.67,3.67,0,0,1,.79.69l0.22,0.23a5.55,5.55,0,0,0,.44.41,3,3,0,0,0,2,.72h0a3.3,3.3,0,0,0,2.56-1.24l0.12-.13a2,2,0,0,1,1.59-.9,0.73,0.73,0,0,0,.34-0.09,0.79,0.79,0,0,0,.17-0.11,0.76,0.76,0,0,0,.13-0.15A0.72,0.72,0,0,0,38.59,41a0.75,0.75,0,0,0-.75-0.75h0a3,3,0,0,0-1.9.63,6.45,6.45,0,0,0-.78.73l-0.31.31a3.31,3.31,0,0,1-.28.25,1.52,1.52,0,0,1-.62.3,1.77,1.77,0,0,1-.39,0h0a1.56,1.56,0,0,1-1.1-.43h0A6.2,6.2,0,0,1,32,41.61c-0.14-.15-0.3-0.32-0.47-0.47L31.38,41a3,3,0,0,0-2.09-.79h0a3.13,3.13,0,0,0-1.09.18,3.06,3.06,0,0,0-.81.45,6.47,6.47,0,0,0-.78.74l-0.3.31L26.23,42a1.68,1.68,0,0,1-.84.47,1.82,1.82,0,0,1-.36,0h0a1.55,1.55,0,0,1-1.1-.42h0L23.83,42c-0.12-.11-0.25-0.24-0.39-0.39A8,8,0,0,0,22.85,41a3.05,3.05,0,0,0-1.42-.73,3.34,3.34,0,0,0-.66-0.06h0a3,3,0,0,0-1.89.63l-0.31.26c-0.17.16-.33,0.33-0.48,0.48s-0.21.2-.31,0.3a2.2,2.2,0,0,1-.68.48L17,42.45a1.71,1.71,0,0,1-.45.06h0a1.56,1.56,0,0,1-1.1-.43,6.18,6.18,0,0,1-.49-0.47,8,8,0,0,0-.6-0.58A3.11,3.11,0,0,0,13,40.34a3.18,3.18,0,0,0-.79-0.1h0a0.75,0.75,0,0,0-.75.75,0.74,0.74,0,0,0,.35.62,0.88,0.88,0,0,0,.19.1l0.17,0h0a1.51,1.51,0,0,1,.83.22h0a3.87,3.87,0,0,1,.76.68L14,42.87h0A3.21,3.21,0,0,0,16.5,44h0a3.29,3.29,0,0,0,.59-0.06l0.19,0a2.87,2.87,0,0,0,.39-0.13l0.12,0h0a4.13,4.13,0,0,0,1.23-1h0Z"/><path class="cls-1" d="M23.59,40.34l0-.05L23.92,40a1.7,1.7,0,0,1,2.61,0l0.16,0.16,0.2-.15a3.92,3.92,0,0,1,1.17-.59l-0.15-.16a3.63,3.63,0,0,0-2.15-1.33,3.4,3.4,0,0,0-.53,0,3.21,3.21,0,0,0-.87.12,3.89,3.89,0,0,0-1.81,1.25l-0.26.26a4,4,0,0,1,.89.49A5.08,5.08,0,0,1,23.59,40.34Z"/></svg>