<?xml version="1.0" encoding="utf-8"?>
<!-- Generator: Adobe Illustrator 18.0.0, SVG Export Plug-In . SVG Version: 6.00 Build 0)  -->
<!DOCTYPE svg PUBLIC "-//W3C//DTD SVG 1.1//EN" "http://www.w3.org/Graphics/SVG/1.1/DTD/svg11.dtd">
<svg version="1.1" id="Layer_1" xmlns="http://www.w3.org/2000/svg" xmlns:xlink="http://www.w3.org/1999/xlink" x="0px" y="0px"
	 viewBox="0 0 50.5 50.5" style="enable-background:new 0 0 50.5 50.5;" xml:space="preserve">
<style type="text/css">
	.st0{fill:#65B4E1;}
</style>
<g>
	<g>
		<g>
			<g>
				<path class="st0" d="M25.3,11.7c0-0.3-0.3-0.6-0.6-0.6c-0.3,0-0.6,0.3-0.6,0.6v1.4h1.3V11.7z"/>
				<path class="st0" d="M27.8,19.2v-5.4h-2.5H24h-2.6v5.4l2.1-1.4c0.3-0.2,0.6-0.3,1-0.3c0.4,0,0.7,0.1,1,0.3L27.8,19.2z
					 M23.2,15.7c-0.3,0-0.6-0.3-0.6-0.6s0.3-0.6,0.6-0.6H24h1.3h0.8c0.3,0,0.6,0.3,0.6,0.6s-0.3,0.6-0.6,0.6H23.2z"/>
				<path class="st0" d="M30.6,22.5L28.4,21l-0.3-0.2l-0.3-0.2L25,18.7v3.8v0.3v0.3v5.7c1,0.1,1.5,0.7,1.9,1.1
					c0.1,0.1,0.2,0.2,0.3,0.2c0,0,0,0,0,0c0,0,0,0,0,0l0,0c0.1,0,0.2-0.2,0.3-0.3c0.2-0.2,0.4-0.5,0.8-0.7l0,0
					c0-0.1,0.1-0.2,0.2-0.3c0.1-0.2,0.2-0.4,0.3-0.6c0.1-0.2,0.2-0.5,0.3-0.7c0.1-0.3,0.2-0.5,0.4-0.8c0.3-0.8,0.7-1.6,1.2-2.7
					c0.1-0.2,0.2-0.4,0.3-0.7c0-0.1,0-0.1,0-0.2C30.9,22.8,30.8,22.6,30.6,22.5z M27.6,23.1c-0.1,0.1-0.2,0.2-0.4,0.2
					s-0.3-0.1-0.4-0.2c-0.1-0.1-0.1-0.2-0.1-0.3c0,0,0,0,0,0c0-0.1,0.1-0.2,0.1-0.3c0.1-0.1,0.2-0.2,0.4-0.2s0.3,0.1,0.4,0.2
					c0.1,0.1,0.1,0.2,0.1,0.3c0,0,0,0,0,0C27.7,22.9,27.6,23,27.6,23.1z"/>
				<path class="st0" d="M21.2,20.7l-0.3,0.2l-2.3,1.6c-0.2,0.1-0.3,0.3-0.3,0.5c0,0.1,0,0.1,0,0.2c0.1,0.2,0.2,0.4,0.3,0.7
					c0.5,1.1,0.8,2,1.2,2.7c0.1,0.3,0.2,0.6,0.4,0.8c0.1,0.3,0.2,0.5,0.3,0.7c0.1,0.2,0.2,0.4,0.3,0.6c0,0.1,0.1,0.1,0.1,0.2
					c0.5,0.2,0.9,0.6,1.1,0.8c0.1,0.1,0.2,0.2,0.3,0.2c0,0,0,0,0,0c0,0,0,0,0,0l0,0c0.1,0,0.2-0.2,0.3-0.2c0.3-0.3,0.8-0.9,1.7-1
					v-5.7v-0.3v-0.3v-3.8l-2.7,1.8L21.2,20.7z M21.8,22.3c0.1,0,0.3,0.1,0.4,0.2c0.1,0.1,0.1,0.2,0.1,0.3c0,0,0,0,0,0
					c0,0.1,0,0.2-0.1,0.3c-0.1,0.1-0.2,0.2-0.4,0.2s-0.3-0.1-0.4-0.2c-0.1-0.1-0.1-0.2-0.1-0.3c0,0,0,0,0,0c0-0.1,0.1-0.2,0.1-0.3
					C21.6,22.4,21.7,22.3,21.8,22.3z"/>
			</g>
			<g>
				<path class="st0" d="M18.7,31c0.3-0.3,0.5-0.5,0.9-0.5c0.3,0,0.4,0.1,0.6,0.2c0.1,0.1,0.2,0.1,0.2,0.2c0.2-0.2,0.5-0.3,0.8-0.4
					c0,0-0.1-0.1-0.1-0.1c-0.3-0.3-0.7-0.8-1.4-0.8c0,0-0.1,0-0.1,0c-0.8,0-1.2,0.4-1.6,0.8c-0.1,0.1-0.1,0.1-0.1,0.2
					C18.3,30.7,18.5,30.8,18.7,31C18.7,31,18.7,31,18.7,31z"/>
				<path class="st0" d="M28.8,31C28.8,31,28.8,31,28.8,31c0.3-0.4,0.5-0.6,1-0.6c0.4,0,0.6,0.2,0.9,0.5c0.2-0.2,0.5-0.3,0.8-0.4
					c0,0-0.1-0.1-0.1-0.1c-0.3-0.4-0.8-0.8-1.6-0.8c-0.1,0-0.2,0-0.4,0c-0.6,0.1-0.9,0.5-1.2,0.8c-0.1,0.1-0.1,0.1-0.2,0.2
					C28.3,30.7,28.5,30.8,28.8,31C28.7,31,28.7,31,28.8,31z"/>
				<path class="st0" d="M32.1,31L32.1,31c-0.5,0-0.8,0.2-1.1,0.4c-0.2,0.1-0.3,0.3-0.5,0.4c-0.1,0.1-0.1,0.1-0.2,0.2
					c-0.1,0.1-0.1,0.1-0.2,0.1c-0.1,0.1-0.2,0.1-0.4,0.2c-0.1,0-0.1,0-0.2,0h0c-0.3,0-0.5-0.1-0.6-0.3h0c-0.1-0.1-0.2-0.2-0.3-0.3
					c-0.1-0.1-0.2-0.2-0.3-0.3c0,0,0,0-0.1-0.1C28,31.2,27.7,31,27.1,31h0c-0.2,0-0.5,0-0.6,0.1c-0.2,0.1-0.3,0.2-0.5,0.3
					c-0.2,0.1-0.3,0.3-0.5,0.4c-0.1,0.1-0.1,0.1-0.2,0.2c0,0,0,0-0.1,0.1c-0.2,0.1-0.3,0.2-0.5,0.3c-0.1,0-0.1,0-0.2,0h0
					c-0.3,0-0.5-0.1-0.6-0.2h0c0,0,0,0-0.1,0c-0.1-0.1-0.1-0.1-0.2-0.2c-0.1-0.1-0.2-0.2-0.3-0.3c-0.2-0.2-0.5-0.4-0.8-0.4
					c-0.1,0-0.2,0-0.4,0h0c-0.5,0-0.8,0.2-1.1,0.4c-0.1,0-0.1,0.1-0.2,0.2c-0.1,0.1-0.2,0.2-0.3,0.3c-0.1,0.1-0.1,0.1-0.2,0.2
					c-0.1,0.1-0.3,0.2-0.4,0.3c0,0-0.1,0-0.1,0c-0.1,0-0.2,0-0.3,0h0c-0.3,0-0.5-0.1-0.6-0.3c-0.1-0.1-0.2-0.2-0.3-0.3
					c-0.1-0.1-0.2-0.2-0.4-0.3c-0.2-0.2-0.4-0.3-0.8-0.4c-0.1,0-0.3-0.1-0.5-0.1h0c-0.2,0-0.4,0.2-0.4,0.4c0,0.2,0.1,0.3,0.2,0.4
					c0,0,0.1,0,0.1,0.1c0,0,0.1,0,0.1,0c0,0,0,0,0,0c0.2,0,0.3,0,0.5,0.1l0,0c0.1,0.1,0.3,0.2,0.4,0.4c0,0,0.1,0.1,0.1,0.1h0
					c0.3,0.3,0.7,0.7,1.4,0.7l0,0h0l0,0c0,0,0,0,0,0c0.1,0,0.2,0,0.3,0c0,0,0.1,0,0.1,0c0.1,0,0.2,0,0.2-0.1c0,0,0,0,0.1,0
					c0,0,0,0,0,0c0.3-0.1,0.5-0.4,0.7-0.6h0c0,0,0-0.1,0.1-0.1c0.2-0.2,0.3-0.3,0.5-0.4c0.1,0,0.1-0.1,0.2-0.1c0.1,0,0.2,0,0.3,0
					c0.2,0,0.4,0.1,0.6,0.2c0.1,0.1,0.2,0.2,0.4,0.4c0,0,0.1,0.1,0.1,0.1c0.3,0.3,0.7,0.7,1.4,0.7c0.8,0,1.2-0.4,1.5-0.7h0
					c0,0,0-0.1,0.1-0.1c0.1-0.2,0.3-0.3,0.4-0.4c0.1-0.1,0.2-0.1,0.2-0.1c0.1,0,0.2,0,0.3,0c0.2,0,0.3,0,0.5,0.1
					c0.2,0.1,0.3,0.2,0.5,0.4c0,0,0.1,0.1,0.1,0.1c0.1,0.1,0.2,0.2,0.3,0.2c0.3,0.2,0.7,0.4,1.2,0.4h0c0.8,0,1.2-0.4,1.5-0.7
					c0,0,0-0.1,0.1-0.1c0.3-0.3,0.5-0.5,0.9-0.5c0.1,0,0.1,0,0.2-0.1c0,0,0.1,0,0.1-0.1c0,0,0.1-0.1,0.1-0.1c0-0.1,0.1-0.1,0.1-0.2
					C32.6,31.2,32.4,31,32.1,31z"/>
				<path class="st0" d="M23.7,31C23.7,31,23.8,31,23.7,31c0.1-0.1,0.1-0.1,0.2-0.2c0.2-0.2,0.4-0.4,0.8-0.4c0.3,0,0.5,0.1,0.8,0.4
					c0,0,0.1,0.1,0.1,0.1c0,0,0.1-0.1,0.1-0.1c0.2-0.1,0.4-0.3,0.7-0.3c0,0-0.1-0.1-0.1-0.1c-0.3-0.3-0.6-0.7-1.3-0.8
					c-0.1,0-0.2,0-0.3,0c-0.2,0-0.4,0-0.5,0.1c-0.5,0.1-0.8,0.5-1.1,0.7c-0.1,0.1-0.1,0.1-0.2,0.2c0.2,0.1,0.4,0.2,0.5,0.3
					C23.6,30.9,23.7,31,23.7,31z"/>
			</g>
		</g>
		<path class="st0" d="M30.9,40.8C30.9,40.8,30.9,40.7,30.9,40.8l-18.1,0c-1.3,0-2.3-1-2.3-2.3V8.7c0-1.3,1-2.3,2.3-2.3h19.4l0,6.1
			c0,0.6,0.5,1,1.1,1c0.4,0,3,0,5.3,0v19.3c0.1,0,0.2,0,0.3,0c0.5,0,1.1,0.1,1.6,0.2l-0.1-21.1v-0.1l-6.8-7.2l-0.1-0.1H12.9
			c-2.3,0-4.2,1.9-4.2,4.2v29.7c0,2.3,1.9,4.2,4.2,4.2h18.3C31,42,30.9,41.4,30.9,40.8z M37.2,11.4c-1.1,0-2.1,0-2.8,0l0-3.1
			L37.2,11.4z"/>
		<path class="st0" d="M38.9,34.6c-3.4,0-6.1,2.7-6.1,6.1s2.7,6.1,6.1,6.1c3.4,0,6.1-2.7,6.1-6.1S42.3,34.6,38.9,34.6z M38.4,39.8
			c0.1,0.1,0.4,0.3,0.8,0.4c0.4,0.2,0.7,0.3,0.9,0.4c0.2,0.1,0.5,0.3,0.6,0.5c0.2,0.2,0.3,0.4,0.4,0.6c0.1,0.2,0.1,0.5,0.1,0.8
			c0,0.5-0.2,1-0.5,1.3c-0.3,0.3-0.8,0.5-1.4,0.6v0.9h-0.8v-0.9c-0.6-0.1-1.2-0.3-1.5-0.7s-0.5-0.9-0.5-1.6h1.4
			c0,0.4,0.1,0.7,0.3,0.9c0.2,0.2,0.4,0.3,0.8,0.3c0.3,0,0.5-0.1,0.7-0.2c0.2-0.1,0.2-0.3,0.2-0.6c0-0.3-0.1-0.5-0.2-0.6
			c-0.1-0.2-0.4-0.3-0.7-0.4c-0.3-0.1-0.6-0.3-0.9-0.4c-0.3-0.1-0.5-0.3-0.6-0.4c-0.2-0.2-0.3-0.4-0.4-0.6c-0.1-0.2-0.1-0.5-0.1-0.8
			c0-0.5,0.2-1,0.5-1.3c0.3-0.3,0.8-0.5,1.4-0.6v-1h0.8v1c0.6,0.1,1,0.3,1.3,0.7c0.3,0.4,0.5,0.9,0.5,1.5h-1.4
			c0-0.4-0.1-0.7-0.2-0.9c-0.2-0.2-0.4-0.3-0.6-0.3c-0.3,0-0.5,0.1-0.6,0.2c-0.1,0.1-0.2,0.4-0.2,0.6C38.2,39.4,38.3,39.6,38.4,39.8
			z"/>
	</g>
</g>
</svg>
