<svg xmlns="http://www.w3.org/2000/svg" viewBox="0 0 50.46 50.46">
  <title>Iconos</title>
  <g>
    <path d="M23.67,10.13a0.73,0.73,0,0,0-1.46,0v1.66h1.46V10.13Z" fill="#00b5e4"/>
    <path d="M19.25,12.47v6.24L21.7,17A2.07,2.07,0,0,1,24,17l2.55,1.73V12.47H19.25Zm5.35,0.84a0.73,0.73,0,0,1,0,1.46H21.29a0.73,0.73,0,0,1,0-1.46H24.6Z" fill="#00b5e4"/>
    <path d="M25.56,31.11a3.19,3.19,0,0,0,.29.29h0.08a2.68,2.68,0,0,0,.3-0.29,4.52,4.52,0,0,1,.94-0.81h0l0.17-.4,0.3-.69L28,28.38l0.42-1,1.34-3.15,0.33-.77a0.71,0.71,0,0,0-.25-0.86l-2.57-1.74-0.34-.23-0.34-.23-3.2-2.17V29.88A3.43,3.43,0,0,1,25.56,31.11ZM25.34,23a0.55,0.55,0,0,1,1.1,0s0,0,0,0a0.56,0.56,0,0,1-1.11,0S25.34,23,25.34,23Z" fill="#00b5e4"/>
    <path d="M19.74,31.11a3.19,3.19,0,0,0,.29.29h0.08a2.61,2.61,0,0,0,.3-0.29,3.52,3.52,0,0,1,1.94-1.19V18.26l-3.1,2.1-0.34.23-0.34.23-2.68,1.82a0.71,0.71,0,0,0-.25.86L16,24.26l1.34,3.15,0.42,1,0.35,0.82,0.3,0.69,0.1,0.23A4,4,0,0,1,19.74,31.11ZM19.12,23s0,0,0,0a0.55,0.55,0,0,1,1.1,0s0,0,0,0A0.56,0.56,0,0,1,19.12,23Z" fill="#00b5e4"/>
    <path d="M17.31,30.88H17.16a2.34,2.34,0,0,0-1.83.94L15.16,32a2.93,2.93,0,0,1,.89.56l0,0a1.37,1.37,0,0,1,1.08-.61,1.05,1.05,0,0,1,.73.27l0.27,0.25a2.74,2.74,0,0,1,.94-0.51L19,31.81A2.39,2.39,0,0,0,17.31,30.88Z" fill="#00b5e4"/>
    <path d="M27.7,32.54l0,0a1.37,1.37,0,0,1,1.08-.61,1.28,1.28,0,0,1,1,.53,2.75,2.75,0,0,1,.94-0.51l-0.11-.11a2.35,2.35,0,0,0-1.83-.94,2.26,2.26,0,0,0-.41,0,2.52,2.52,0,0,0-1.42.9L26.81,32a2.9,2.9,0,0,1,.86.53Z" fill="#00b5e4"/>
    <path d="M31.83,33.44l0.11-.08,0.09-.1A0.49,0.49,0,0,0,32.12,33a0.51,0.51,0,0,0-.51-0.51h0a2,2,0,0,0-1.3.43,4.41,4.41,0,0,0-.53.5l-0.21.21-0.19.17a1,1,0,0,1-.42.2l-0.26,0h0a1.07,1.07,0,0,1-.75-0.29h0a4.23,4.23,0,0,1-.33-0.32c-0.1-.1-0.2-0.22-0.32-0.32L27.2,33a2.07,2.07,0,0,0-1.43-.54h0a2.14,2.14,0,0,0-.74.13,2.09,2.09,0,0,0-.55.31,4.42,4.42,0,0,0-.54.5l-0.21.21-0.06.06a1.15,1.15,0,0,1-.57.32l-0.25,0h0a1.06,1.06,0,0,1-.75-0.29h0L22,33.68l-0.27-.27a5.46,5.46,0,0,0-.4-0.4,2.08,2.08,0,0,0-1-.5,2.28,2.28,0,0,0-.45,0h0a2,2,0,0,0-1.29.43l-0.21.17c-0.12.11-.23,0.22-0.33,0.33l-0.21.2a1.5,1.5,0,0,1-.47.33l-0.09,0A1.17,1.17,0,0,1,17,34h0a1.07,1.07,0,0,1-.75-0.29A4.23,4.23,0,0,1,16,33.41a5.44,5.44,0,0,0-.41-0.4,2.13,2.13,0,0,0-.88-0.47,2.17,2.17,0,0,0-.54-0.07,0.51,0.51,0,0,0-.51.51,0.5,0.5,0,0,0,.24.42L14,33.47l0.11,0h0a1,1,0,0,1,.56.15h0a2.65,2.65,0,0,1,.52.46l0.15,0.16h0A2.2,2.2,0,0,0,17,35h0a2.24,2.24,0,0,0,.41,0l0.13,0,0.26-.09,0.08,0h0a2.82,2.82,0,0,0,.84-0.65h0l0.08-.09a2.52,2.52,0,0,1,.54-0.47,1,1,0,0,1,.25-0.1,1.13,1.13,0,0,1,.3,0,1,1,0,0,1,.64.2,3.11,3.11,0,0,1,.44.41l0.15,0.16a2.2,2.2,0,0,0,1.68.77,2.25,2.25,0,0,0,1.75-.85h0l0.08-.09a3.1,3.1,0,0,1,.45-0.41,1.08,1.08,0,0,1,.29-0.15,1.1,1.1,0,0,1,.35-0.05,1,1,0,0,1,.54.14,2.51,2.51,0,0,1,.54.47L27,34.27a3.8,3.8,0,0,0,.3.28,2.06,2.06,0,0,0,1.38.49h0a2.25,2.25,0,0,0,1.75-.85l0.08-.09a1.37,1.37,0,0,1,1.09-.61A0.5,0.5,0,0,0,31.83,33.44Z" fill="#00b5e4"/>
    <path d="M21.87,32.54l0,0,0.2-.2a1.16,1.16,0,0,1,1.78,0L24,32.42l0.14-.1a2.68,2.68,0,0,1,.8-0.4l-0.1-.11a2.48,2.48,0,0,0-1.47-.91,2.32,2.32,0,0,0-.36,0,2.19,2.19,0,0,0-.6.08,2.65,2.65,0,0,0-1.23.86L21,32a2.74,2.74,0,0,1,.61.33Z" fill="#00b5e4"/>
    <path d="M29.32,40.26H11.26a2.34,2.34,0,0,1-2.34-2.34V8.26a2.34,2.34,0,0,1,2.34-2.34H30.65l0,6.07a1.06,1.06,0,0,0,1.08,1c0.38,0,3,0,5.25,0v19.3h0.25a8,8,0,0,1,1.58.16L38.78,11.41V11.33L32,4.13,32,4.06H11.26a4.2,4.2,0,0,0-4.2,4.2V37.92a4.2,4.2,0,0,0,4.2,4.2H29.54a7.92,7.92,0,0,1-.23-1.85h0ZM35.61,11H32.77l0-3.11Z" fill="#00b5e4"/>
    <path d="M37.27,34.14a6.13,6.13,0,1,0,6.13,6.13A6.13,6.13,0,0,0,37.27,34.14Zm-0.5,5.13a2.31,2.31,0,0,0,.78.45,8.61,8.61,0,0,1,.93.43,2.69,2.69,0,0,1,.62.46,1.76,1.76,0,0,1,.38.58,2,2,0,0,1,.13.76,1.77,1.77,0,0,1-.5,1.31,2.21,2.21,0,0,1-1.39.59v0.95H37V43.85a2.29,2.29,0,0,1-1.51-.69,2.23,2.23,0,0,1-.53-1.56H36.3a1.26,1.26,0,0,0,.27.87,1,1,0,0,0,.77.3A0.94,0.94,0,0,0,38,42.54a0.77,0.77,0,0,0,.24-0.6A0.87,0.87,0,0,0,38,41.33a2,2,0,0,0-.73-0.43,8.65,8.65,0,0,1-.89-0.39,2.85,2.85,0,0,1-.64-0.44,1.78,1.78,0,0,1-.42-0.59,2,2,0,0,1-.15-0.8,1.78,1.78,0,0,1,.51-1.32,2.17,2.17,0,0,1,1.36-.6v-1h0.76v1a2,2,0,0,1,1.32.7A2.31,2.31,0,0,1,39.62,39H38.24A1.31,1.31,0,0,0,38,38.14a0.78,0.78,0,0,0-.63-0.28,0.8,0.8,0,0,0-.6.22,0.84,0.84,0,0,0-.21.61A0.8,0.8,0,0,0,36.77,39.26Z" fill="#00b5e4"/>
  </g>
</svg>
