<svg id="Layer_1" data-name="Layer 1" xmlns="http://www.w3.org/2000/svg" viewBox="0 0 50.46 50.46"><defs><style>.cls-1{fill:#00b5e4;}</style></defs><title>Iconos</title><path class="cls-1" d="M25.29,11.7a0.63,0.63,0,0,0-1.26,0v1.43h1.26V11.7Z"/><path class="cls-1" d="M27.79,19.16V13.72H21.47V19.1l2.11-1.43a1.79,1.79,0,0,1,2,0ZM23.23,15.7a0.63,0.63,0,0,1,0-1.26h2.86a0.63,0.63,0,0,1,0,1.26H23.23Z"/><path class="cls-1" d="M30.6,22.49L28.38,21l-0.29-.2-0.29-.2L25,18.71v10a3,3,0,0,1,1.89,1.06,2.74,2.74,0,0,0,.25.25h0.07a2.31,2.31,0,0,0,.26-0.25,3.9,3.9,0,0,1,.81-0.7h0l0.15-.35,0.26-.6L29,27.44l0.36-.84,1.16-2.71,0.28-.66A0.61,0.61,0,0,0,30.6,22.49Zm-3,.57a0.48,0.48,0,0,1-.86-0.27v0a0.47,0.47,0,0,1,.95,0v0A0.47,0.47,0,0,1,27.58,23.06Z"/><path class="cls-1" d="M21.18,20.72l-0.29.2-2.31,1.57a0.61,0.61,0,0,0-.22.74l0.28,0.66L19.8,26.6l0.36,0.84,0.31,0.71,0.26,0.6,0.09,0.2a3.45,3.45,0,0,1,1.09.85,2.74,2.74,0,0,0,.25.25h0.07a2.25,2.25,0,0,0,.26-0.25,3,3,0,0,1,1.67-1V18.71l-2.67,1.81Zm0.66,1.59a0.48,0.48,0,0,1,.47.45v0a0.48,0.48,0,0,1-1,0v0A0.48,0.48,0,0,1,21.84,22.31Z"/><path class="cls-1" d="M18.74,31a1.18,1.18,0,0,1,.93-0.53,0.91,0.91,0,0,1,.63.24l0.23,0.22a2.36,2.36,0,0,1,.81-0.44l-0.09-.09a2.06,2.06,0,0,0-1.45-.8H19.67a2,2,0,0,0-1.58.81l-0.15.15a2.53,2.53,0,0,1,.77.48Z"/><path class="cls-1" d="M28.76,31l0,0a1.18,1.18,0,0,1,.93-0.53,1.1,1.1,0,0,1,.86.46,2.37,2.37,0,0,1,.81-0.44L31.3,30.4a2,2,0,0,0-1.58-.81,2,2,0,0,0-.36,0,2.17,2.17,0,0,0-1.22.77L28,30.55a2.5,2.5,0,0,1,.74.46Z"/><path class="cls-1" d="M32.12,31h0a1.76,1.76,0,0,0-1.12.37,3.8,3.8,0,0,0-.46.43L30.37,32l-0.17.15a0.9,0.9,0,0,1-.36.18l-0.23,0h0A0.92,0.92,0,0,1,29,32.05h0a3.65,3.65,0,0,1-.29-0.28L28.4,31.5l-0.07-.06A1.78,1.78,0,0,0,27.09,31h0a1.84,1.84,0,0,0-.64.11,1.8,1.8,0,0,0-.48.26,3.81,3.81,0,0,0-.46.43L25.34,32,25.29,32a1,1,0,0,1-.49.28l-0.21,0h0a0.91,0.91,0,0,1-.65-0.25h0l-0.06,0-0.23-.23a4.7,4.7,0,0,0-.35-0.34A1.8,1.8,0,0,0,22.46,31a2,2,0,0,0-.39,0h0a1.76,1.76,0,0,0-1.12.37l-0.18.15-0.28.28L20.31,32a1.29,1.29,0,0,1-.4.28l-0.08,0a1,1,0,0,1-.26,0h0a0.92,0.92,0,0,1-.65-0.25,3.64,3.64,0,0,1-.29-0.28,4.69,4.69,0,0,0-.35-0.34,1.83,1.83,0,0,0-.76-0.4A1.87,1.87,0,0,0,17.05,31h0a0.44,0.44,0,0,0-.44.44,0.43,0.43,0,0,0,.21.36l0.11,0.06,0.1,0h0a0.89,0.89,0,0,1,.49.13h0a2.28,2.28,0,0,1,.45.4l0.13,0.14h0a1.89,1.89,0,0,0,1.45.67h0a1.94,1.94,0,0,0,.35,0l0.11,0L20.27,33l0.07,0h0a2.43,2.43,0,0,0,.72-0.56h0l0.07-.08A2.17,2.17,0,0,1,21.6,32a0.88,0.88,0,0,1,.21-0.09,1,1,0,0,1,.26,0,0.89,0.89,0,0,1,.55.17,2.68,2.68,0,0,1,.38.35l0.13,0.14a1.89,1.89,0,0,0,1.44.67,1.94,1.94,0,0,0,1.51-.73h0l0.07-.08A2.67,2.67,0,0,1,26.54,32a0.93,0.93,0,0,1,.25-0.13,1,1,0,0,1,.3,0,0.89,0.89,0,0,1,.47.12,2.16,2.16,0,0,1,.47.41l0.13,0.14a3.27,3.27,0,0,0,.26.24,1.78,1.78,0,0,0,1.19.43h0a1.94,1.94,0,0,0,1.51-.73l0.07-.08a1.18,1.18,0,0,1,.94-0.53,0.43,0.43,0,0,0,.2-0.05l0.1-.07,0.08-.09a0.43,0.43,0,0,0,.07-0.23A0.44,0.44,0,0,0,32.12,31Z"/><path class="cls-1" d="M23.73,31l0,0,0.17-.17a1,1,0,0,1,1.53,0l0.09,0.09,0.12-.09a2.31,2.31,0,0,1,.69-0.35l-0.09-.09A2.14,2.14,0,0,0,25,29.61l-0.31,0a1.89,1.89,0,0,0-.51.07,2.29,2.29,0,0,0-1.06.74L23,30.55a2.36,2.36,0,0,1,.52.29Z"/><path class="cls-1" d="M30.95,40.75H12.89a2.34,2.34,0,0,1-2.34-2.34V8.75a2.34,2.34,0,0,1,2.34-2.34H32.28l0,6.07a1.06,1.06,0,0,0,1.08,1c0.38,0,3,0,5.25,0v19.3H38.9a8,8,0,0,1,1.58.16L40.41,11.9V11.81L33.65,4.62l-0.06-.07H12.89a4.2,4.2,0,0,0-4.2,4.2V38.41a4.2,4.2,0,0,0,4.2,4.2H31.18A7.92,7.92,0,0,1,30.95,40.75Zm6.29-29.31H34.4l0-3.11Z"/><path class="cls-1" d="M38.9,34.63A6.13,6.13,0,1,0,45,40.75,6.13,6.13,0,0,0,38.9,34.63Zm-0.5,5.13a2.31,2.31,0,0,0,.78.45,8.61,8.61,0,0,1,.93.43,2.7,2.7,0,0,1,.62.46,1.77,1.77,0,0,1,.38.58,2,2,0,0,1,.13.76,1.77,1.77,0,0,1-.5,1.31,2.21,2.21,0,0,1-1.39.59v0.95H38.6V44.33a2.29,2.29,0,0,1-1.51-.69,2.23,2.23,0,0,1-.53-1.56h1.37a1.26,1.26,0,0,0,.27.87,1,1,0,0,0,.77.3A0.94,0.94,0,0,0,39.63,43a0.77,0.77,0,0,0,.24-0.6,0.87,0.87,0,0,0-.22-0.62,2,2,0,0,0-.73-0.43A8.65,8.65,0,0,1,38,41a2.85,2.85,0,0,1-.64-0.44A1.78,1.78,0,0,1,37,40a2,2,0,0,1-.15-0.8,1.78,1.78,0,0,1,.51-1.32,2.17,2.17,0,0,1,1.36-.6v-1h0.76v1a2,2,0,0,1,1.32.7,2.31,2.31,0,0,1,.48,1.51H39.87a1.31,1.31,0,0,0-.24-0.85A0.78,0.78,0,0,0,39,38.34a0.8,0.8,0,0,0-.6.22,0.84,0.84,0,0,0-.21.61A0.8,0.8,0,0,0,38.4,39.75Z"/></svg>