<svg xmlns="http://www.w3.org/2000/svg" viewBox="0 0 50.46 50.46">
  <title>Iconos</title>
  <g>
    <path d="M26.31,6.06a1.15,1.15,0,0,0-2.31,0V8.69h2.31V6.06Z" fill="#00b5e4"/>
    <path d="M19.3,9.77v9.89L23.18,17a3.28,3.28,0,0,1,3.68,0l4,2.74v-10H19.3Zm8.48,1.34a1.15,1.15,0,0,1,0,2.31H22.52a1.15,1.15,0,0,1,0-2.31h5.26Z" fill="#00b5e4"/>
    <path d="M29.3,39.31a5,5,0,0,0,.46.46h0.13a4.17,4.17,0,0,0,.48-0.46A7.17,7.17,0,0,1,31.86,38h0l0.28-.64,0.47-1.09L33.17,35l0.66-1.54,2.13-5,0.52-1.21a1.12,1.12,0,0,0-.4-1.36L32,23.12l-0.54-.37-0.54-.37-5.08-3.44V37.36A5.43,5.43,0,0,1,29.3,39.31ZM28.95,26.4a0.87,0.87,0,0,1,1.74,0s0,0,0,0a0.88,0.88,0,0,1-1.76,0S28.94,26.41,28.95,26.4Z" fill="#00b5e4"/>
    <path d="M20.07,39.31a5,5,0,0,0,.46.46h0.13a4.14,4.14,0,0,0,.48-0.46,5.58,5.58,0,0,1,3.07-1.89V18.94L19.3,22.27l-0.54.37L18.22,23,14,25.88a1.12,1.12,0,0,0-.4,1.36l0.52,1.21,2.13,5L16.88,35l0.56,1.31,0.47,1.09,0.16,0.36A6.35,6.35,0,0,1,20.07,39.31Zm-1-12.87s0,0,0,0a0.87,0.87,0,0,1,1.74,0s0,0,0,0A0.88,0.88,0,0,1,19.09,26.44Z" fill="#00b5e4"/>
    <path d="M16.23,39l-0.24,0a3.71,3.71,0,0,0-2.9,1.48l-0.27.28a4.64,4.64,0,0,1,1.41.88l0-.05a2.17,2.17,0,0,1,1.72-1,1.67,1.67,0,0,1,1.15.43,5.13,5.13,0,0,1,.43.4,4.34,4.34,0,0,1,1.48-.81l-0.16-.17A3.79,3.79,0,0,0,16.23,39Z" fill="#00b5e4"/>
    <path d="M32.69,41.58l0.05-.05a2.17,2.17,0,0,1,1.72-1,2,2,0,0,1,1.59.84,4.35,4.35,0,0,1,1.48-.81l-0.17-.17a3.72,3.72,0,0,0-2.9-1.48,3.59,3.59,0,0,0-.65.06,4,4,0,0,0-2.25,1.42l-0.28.28a4.6,4.6,0,0,1,1.36.84Z" fill="#00b5e4"/>
    <path d="M6.76,40.56a2.17,2.17,0,0,1,1.72,1,7.19,7.19,0,0,0,.81.77h0A1.88,1.88,0,0,1,10,40.79l-0.37-.37a3.71,3.71,0,0,0-2.9-1.48A0.81,0.81,0,1,0,6.76,40.56Z" fill="#00b5e4"/>
    <path d="M40.8,40.42a6.14,6.14,0,0,1-.57.54,1.81,1.81,0,0,1,.51,1.62A5.41,5.41,0,0,0,42,41.53a2.18,2.18,0,0,1,1.72-1,0.81,0.81,0,1,0,0-1.62A3.72,3.72,0,0,0,40.8,40.42Z" fill="#00b5e4"/>
    <path d="M18.55,44.21l0.13-.14a4,4,0,0,1,.85-0.75,1.61,1.61,0,0,1,.39-0.17,1.78,1.78,0,0,1,.47-0.06,1.63,1.63,0,0,1,1,.32,4.92,4.92,0,0,1,.7.65l0.24,0.26A3.48,3.48,0,0,0,25,45.55a3.57,3.57,0,0,0,2.77-1.34h0l0.13-.14a4.91,4.91,0,0,1,.71-0.65,1.71,1.71,0,0,1,.45-0.24,1.74,1.74,0,0,1,.56-0.08,1.64,1.64,0,0,1,.86.22,4,4,0,0,1,.86.75l0.24,0.25a6,6,0,0,0,.48.45,3.27,3.27,0,0,0,2.18.78h0A3.57,3.57,0,0,0,37,44.21l0.13-.14a2.18,2.18,0,0,1,1.72-1,0.79,0.79,0,0,0,.36-0.1,0.85,0.85,0,0,0,.18-0.12,0.82,0.82,0,0,0,.14-0.17,0.78,0.78,0,0,0,.13-0.43,0.81,0.81,0,0,0-.81-0.81h0a3.24,3.24,0,0,0-2.06.69A7,7,0,0,0,36,43l-0.33.34a3.58,3.58,0,0,1-.31.27,1.65,1.65,0,0,1-.67.32,1.91,1.91,0,0,1-.42,0h0a1.69,1.69,0,0,1-1.19-.46h0A6.71,6.71,0,0,1,32.53,43c-0.16-.17-0.32-0.34-0.51-0.51l-0.14-.12a3.28,3.28,0,0,0-2.26-.85h0a3.38,3.38,0,0,0-1.18.2,3.31,3.31,0,0,0-.87.49,7,7,0,0,0-.85.8l-0.33.33-0.09.09a1.82,1.82,0,0,1-.91.51,2,2,0,0,1-.39,0h0a1.68,1.68,0,0,1-1.19-.46h0l-0.11-.09c-0.13-.12-0.27-0.26-0.42-0.42a8.64,8.64,0,0,0-.64-0.63,3.3,3.3,0,0,0-1.54-.79,3.61,3.61,0,0,0-.72-0.07h0a3.23,3.23,0,0,0-2,.68L18,42.43c-0.19.17-.36,0.35-0.52,0.52s-0.23.22-.34,0.32a2.38,2.38,0,0,1-.74.52l-0.15.06a1.86,1.86,0,0,1-.49.06h0a1.69,1.69,0,0,1-1.19-.46A6.69,6.69,0,0,1,14.08,43a8.61,8.61,0,0,0-.65-0.63,3.37,3.37,0,0,0-1.4-.74,3.44,3.44,0,0,0-.86-0.11h0a0.81,0.81,0,0,0-.81.81,0.8,0.8,0,0,0,.38.67,1,1,0,0,0,.2.1,0.72,0.72,0,0,0,.18,0h0a1.64,1.64,0,0,1,.89.24h0a4.19,4.19,0,0,1,.82.73l0.24,0.26h0a3.48,3.48,0,0,0,2.66,1.23h0a3.56,3.56,0,0,0,.64-0.07l0.21,0a3.11,3.11,0,0,0,.42-0.14l0.13,0h0a4.46,4.46,0,0,0,1.33-1h0Z" fill="#00b5e4"/>
    <path d="M23.45,41.58l0.05-.06,0.31-.31a1.84,1.84,0,0,1,2.82,0l0.17,0.17L27,41.23a4.24,4.24,0,0,1,1.27-.64l-0.17-.17A3.93,3.93,0,0,0,25.79,39a3.68,3.68,0,0,0-.57,0,3.48,3.48,0,0,0-.94.13,4.21,4.21,0,0,0-2,1.36L22,40.7a4.34,4.34,0,0,1,1,.53A5.5,5.5,0,0,1,23.45,41.58Z" fill="#00b5e4"/>
  </g>
</svg>
