<?xml version="1.0" encoding="utf-8"?>
<!-- Generator: Adobe Illustrator 18.0.0, SVG Export Plug-In . SVG Version: 6.00 Build 0)  -->
<!DOCTYPE svg PUBLIC "-//W3C//DTD SVG 1.1//EN" "http://www.w3.org/Graphics/SVG/1.1/DTD/svg11.dtd">
<svg version="1.1" id="Layer_1" xmlns="http://www.w3.org/2000/svg" xmlns:xlink="http://www.w3.org/1999/xlink" x="0px" y="0px"
	 viewBox="0 0 50.5 50.5" style="enable-background:new 0 0 50.5 50.5;" xml:space="preserve">
<style type="text/css">
	.st0{fill:#65B4E1;}
</style>
<path class="st0" d="M26.2,7.5c0-0.6-0.5-1.1-1.1-1.1c-0.6,0-1.1,0.5-1.1,1.1v2.4h2.1V7.5z"/>
<path class="st0" d="M19.8,10.9v9.1l3.6-2.4c0.5-0.3,1.1-0.5,1.7-0.5c0.6,0,1.2,0.2,1.7,0.5l3.7,2.5v-9.2h-4.3h-2.1H19.8z
	 M27.6,12.2c0.6,0,1.1,0.5,1.1,1.1s-0.5,1.1-1.1,1.1h-4.9c-0.6,0-1.1-0.5-1.1-1.1s0.5-1.1,1.1-1.1h1.4h2.1H27.6z"/>
<path class="st0" d="M29,38.2c0.1,0.1,0.4,0.4,0.4,0.4c0,0,0,0,0.1,0c0,0,0,0,0.1,0c0,0,0,0,0,0c0.1-0.1,0.3-0.3,0.4-0.4
	c0.3-0.3,0.8-0.8,1.4-1.2h0c0.1-0.2,0.2-0.4,0.3-0.6c0.1-0.3,0.3-0.6,0.4-1c0.2-0.4,0.3-0.8,0.5-1.2c0.2-0.4,0.4-0.9,0.6-1.4
	c0.5-1.3,1.2-2.8,2-4.6c0.2-0.4,0.3-0.7,0.5-1.1c0-0.1,0.1-0.2,0.1-0.3c0-0.4-0.1-0.7-0.5-0.9l-3.8-2.6L31,22.9l-0.5-0.3l-4.7-3.2
	v6.4v0.5v0.5v9.6C27.5,36.6,28.4,37.6,29,38.2z M28.7,26.3c0-0.2,0.1-0.4,0.2-0.5c0.1-0.2,0.4-0.3,0.6-0.3s0.4,0.1,0.6,0.3
	c0.1,0.1,0.2,0.3,0.2,0.5c0,0,0,0,0,0c0,0.2-0.1,0.3-0.2,0.5c-0.1,0.2-0.4,0.4-0.7,0.4S29,27,28.8,26.8
	C28.7,26.7,28.7,26.5,28.7,26.3C28.7,26.3,28.7,26.3,28.7,26.3z"/>
<path class="st0" d="M20.5,38.2c0.1,0.1,0.4,0.4,0.4,0.4c0,0,0,0,0.1,0c0,0,0,0,0,0c0,0,0,0,0,0c0.1-0.1,0.3-0.3,0.4-0.4
	c0.5-0.6,1.4-1.5,2.8-1.7v-9.7v-0.5v-0.5v-6.4l-4.5,3.1l-0.5,0.3l-0.5,0.3l-3.9,2.7c-0.3,0.2-0.5,0.6-0.5,0.9c0,0.1,0,0.2,0.1,0.3
	c0.2,0.4,0.3,0.8,0.5,1.1c0.8,1.8,1.4,3.3,2,4.6c0.2,0.5,0.4,1,0.6,1.4c0.2,0.4,0.4,0.8,0.5,1.2c0.2,0.4,0.3,0.7,0.4,1
	c0.1,0.1,0.1,0.2,0.1,0.3C19.5,37.2,20.1,37.8,20.5,38.2z M19.6,26.3C19.6,26.3,19.6,26.3,19.6,26.3c0-0.2,0.1-0.4,0.2-0.5
	c0.1-0.2,0.4-0.3,0.6-0.3s0.4,0.1,0.6,0.3c0.1,0.1,0.2,0.3,0.2,0.5c0,0,0,0,0,0c0,0.2-0.1,0.3-0.2,0.5c-0.1,0.2-0.4,0.4-0.7,0.4
	s-0.5-0.1-0.7-0.4C19.6,26.7,19.6,26.5,19.6,26.3z"/>
<path class="st0" d="M16.9,37.9c-0.1,0-0.1,0-0.2,0c-1.4,0-2.1,0.8-2.7,1.4c-0.1,0.1-0.2,0.2-0.3,0.3c0.5,0.2,1,0.5,1.3,0.8
	c0,0,0,0,0,0c0.5-0.6,0.9-0.9,1.6-0.9c0.5,0,0.8,0.1,1.1,0.4c0.1,0.1,0.3,0.2,0.4,0.4c0.4-0.3,0.8-0.6,1.4-0.7
	c-0.1-0.1-0.1-0.1-0.2-0.2C18.8,38.7,18.2,38,16.9,37.9z"/>
<path class="st0" d="M32.1,40.3C32.1,40.3,32.2,40.3,32.1,40.3c0.6-0.6,0.9-0.9,1.6-0.9c0.7,0,1,0.3,1.5,0.8
	c0.4-0.3,0.8-0.6,1.4-0.7c-0.1-0.1-0.1-0.1-0.2-0.2c-0.6-0.6-1.3-1.4-2.7-1.4c-0.2,0-0.4,0-0.6,0.1c-1,0.2-1.6,0.8-2.1,1.3
	c-0.1,0.1-0.2,0.2-0.3,0.3C31.3,39.7,31.7,40,32.1,40.3C32.1,40.3,32.1,40.3,32.1,40.3z"/>
<path class="st0" d="M8.2,39.4c0.7,0,1,0.3,1.6,0.9c0.2,0.2,0.5,0.5,0.7,0.7c0,0,0,0,0,0c0-0.6,0.3-1.1,0.7-1.4
	c-0.1-0.1-0.2-0.2-0.3-0.3c-0.6-0.6-1.3-1.4-2.7-1.4c-0.4,0-0.8,0.3-0.8,0.8S7.8,39.4,8.2,39.4z"/>
<path class="st0" d="M39.6,39.3c-0.2,0.2-0.4,0.4-0.5,0.5c0.3,0.3,0.5,0.7,0.5,1.2c0,0.1,0,0.2,0,0.3c0.5-0.3,0.8-0.6,1.1-1
	c0.5-0.6,0.9-0.9,1.6-0.9c0.4,0,0.8-0.3,0.8-0.8s-0.3-0.8-0.8-0.8C40.9,37.9,40.2,38.7,39.6,39.3z"/>
<path class="st0" d="M19.1,42.8c0,0,0.1-0.1,0.1-0.1c0.3-0.3,0.5-0.5,0.8-0.7c0.1-0.1,0.2-0.1,0.4-0.2c0.1,0,0.3-0.1,0.4-0.1
	c0.4,0,0.7,0.1,0.9,0.3c0.2,0.1,0.4,0.3,0.7,0.6c0.1,0.1,0.1,0.2,0.2,0.2c0.5,0.6,1.2,1.1,2.5,1.1c1.3,0,2-0.7,2.6-1.2h0
	c0,0,0.1-0.1,0.1-0.1c0.2-0.3,0.4-0.5,0.7-0.6c0.1-0.1,0.3-0.2,0.4-0.2c0.2-0.1,0.3-0.1,0.5-0.1c0.3,0,0.6,0.1,0.8,0.2
	c0.3,0.2,0.5,0.4,0.8,0.7c0.1,0.1,0.1,0.2,0.2,0.2c0.1,0.1,0.3,0.3,0.4,0.4c0.5,0.4,1.1,0.7,2,0.7h0c1.3,0,2-0.7,2.6-1.2
	c0,0,0.1-0.1,0.1-0.1c0.5-0.6,0.9-0.9,1.6-0.9c0.1,0,0.2,0,0.3-0.1c0.1,0,0.1-0.1,0.2-0.1c0.1,0,0.1-0.1,0.1-0.2
	c0.1-0.1,0.1-0.2,0.1-0.4c0-0.4-0.3-0.8-0.8-0.8h0c-0.8,0-1.4,0.3-1.9,0.6c-0.3,0.2-0.6,0.5-0.8,0.7c-0.1,0.1-0.2,0.2-0.3,0.3
	c-0.1,0.1-0.2,0.2-0.3,0.2c-0.2,0.1-0.4,0.2-0.6,0.3c-0.1,0-0.2,0-0.4,0h0c-0.5,0-0.8-0.2-1.1-0.4h0c-0.2-0.1-0.3-0.3-0.5-0.5
	c-0.1-0.2-0.3-0.3-0.5-0.5c0,0-0.1-0.1-0.1-0.1c-0.5-0.4-1.1-0.8-2.1-0.8h0c-0.4,0-0.8,0.1-1.1,0.2c-0.3,0.1-0.6,0.3-0.8,0.4
	c-0.3,0.2-0.6,0.5-0.8,0.7c-0.1,0.1-0.2,0.2-0.3,0.3c0,0-0.1,0.1-0.1,0.1c-0.3,0.2-0.5,0.4-0.8,0.5c-0.1,0-0.2,0-0.4,0h0
	c-0.5,0-0.8-0.2-1.1-0.4h0c0,0-0.1,0-0.1-0.1c-0.1-0.1-0.2-0.2-0.4-0.4c-0.2-0.2-0.4-0.4-0.6-0.6c-0.4-0.3-0.8-0.6-1.4-0.7
	c-0.2,0-0.4-0.1-0.7-0.1h0c-0.8,0-1.4,0.3-1.9,0.6c-0.1,0.1-0.2,0.2-0.3,0.3c-0.2,0.2-0.3,0.3-0.5,0.5c-0.1,0.1-0.2,0.2-0.3,0.3
	c-0.2,0.2-0.4,0.4-0.7,0.5c0,0-0.1,0-0.1,0.1c-0.1,0-0.3,0.1-0.4,0.1h0c-0.5,0-0.8-0.2-1.1-0.4c-0.2-0.1-0.3-0.3-0.5-0.5
	c-0.2-0.2-0.4-0.4-0.6-0.6c-0.3-0.3-0.8-0.5-1.3-0.7c-0.2-0.1-0.5-0.1-0.8-0.1h0c-0.4,0-0.8,0.3-0.8,0.8c0,0.3,0.1,0.5,0.3,0.6
	c0.1,0,0.1,0.1,0.2,0.1c0.1,0,0.1,0,0.2,0c0,0,0,0,0,0c0.3,0,0.6,0.1,0.8,0.2c0,0,0,0,0,0c0.3,0.2,0.5,0.4,0.8,0.7
	c0.1,0.1,0.1,0.2,0.2,0.2h0c0.5,0.6,1.2,1.1,2.5,1.1c0,0,0,0,0,0h0c0,0,0,0,0,0c0,0,0,0,0,0c0.2,0,0.4,0,0.6-0.1c0.1,0,0.1,0,0.2,0
	c0.1,0,0.3-0.1,0.4-0.1c0,0,0.1,0,0.1,0c0,0,0,0,0,0C18.4,43.5,18.7,43.1,19.1,42.8L19.1,42.8z"/>
<path class="st0" d="M23.6,40.3C23.6,40.3,23.6,40.3,23.6,40.3c0.2-0.2,0.2-0.3,0.3-0.3c0.4-0.4,0.7-0.6,1.3-0.6
	c0.6,0,0.9,0.2,1.3,0.6c0.1,0,0.1,0.1,0.2,0.2c0.1-0.1,0.1-0.1,0.2-0.2c0.3-0.2,0.7-0.5,1.2-0.6c-0.1-0.1-0.1-0.1-0.2-0.2
	c-0.5-0.5-1.1-1.2-2.2-1.3c-0.2,0-0.3,0-0.5,0c-0.3,0-0.6,0-0.9,0.1c-0.8,0.2-1.4,0.8-1.8,1.3c-0.1,0.1-0.2,0.2-0.3,0.3
	c0.3,0.1,0.6,0.3,0.9,0.5C23.3,40.1,23.5,40.2,23.6,40.3z"/>
</svg>
