<?xml version="1.0" encoding="utf-8"?>
<!-- Generator: Adobe Illustrator 25.4.1, SVG Export Plug-In . SVG Version: 6.00 Build 0)  -->
<svg version="1.1" id="Layer_1" xmlns="http://www.w3.org/2000/svg" xmlns:xlink="http://www.w3.org/1999/xlink" x="0px" y="0px"
	 viewBox="0 0 50.46 50.46" style="enable-background:new 0 0 50.46 50.46;" xml:space="preserve">
<g>
	<path d="M13.96,29.842c-2.057,0-3.722,1.666-3.722,3.722s1.665,3.722,3.722,3.722c2.058,0,3.722-1.666,3.722-3.722
		S16.018,29.842,13.96,29.842z M13.96,35.411c-1.021,0-1.846-0.83-1.846-1.847c0-1.022,0.826-1.847,1.846-1.847
		c1.018,0,1.846,0.826,1.846,1.847C15.806,34.581,14.981,35.411,13.96,35.411z"/>
	<path d="M42.257,29.842c-2.059,0-3.722,1.666-3.722,3.722s1.663,3.722,3.722,3.722s3.722-1.666,3.722-3.722
		S44.316,29.842,42.257,29.842z M42.257,35.411c-1.019,0-1.85-0.83-1.85-1.847c0-1.022,0.831-1.847,1.85-1.847
		c1.019,0,1.845,0.826,1.845,1.847C44.102,34.581,43.282,35.411,42.257,35.411z"/>
	<path d="M49.015,29.692c-0.321-0.915-0.577-1.91-0.985-2.228c-0.49-0.298-5.057-3.507-5.279-3.731
		c-2.275-2.325-8.108-7.771-11.55-7.771l-1.875-0.003v-0.456h0.05c1.452,0,1.223-2.33,0.09-2.33h-3.73
		c-0.987,0-1.096,2.33,0.271,2.33h0.047v0.451l-21.8-0.04c-0.86,0.048-2.007,0.784-2.371,2.299c-0.746,3.094-1.1,6.904-1.072,10.222
		c0.003,0.166-0.466,0.224-0.464,0.388c0.005,0.443,0.051,2.347,0.082,3.459c0.022,0.793,0.542,0.848,1.171,0.962l6.966,0.696
		c-0.017-0.169-0.025-0.338-0.025-0.512c0-2.835,2.294-5.137,5.13-5.137c2.837,0,5.136,2.3,5.136,5.137
		c0,0.246-0.017,0.487-0.053,0.726c5.412,0.005,12.692,0.077,18.043,0.199c-0.057-0.298-0.085-0.607-0.085-0.925
		c0-2.837,2.297-5.137,5.135-5.137c2.837,0,5.134,2.3,5.134,5.137c0,0.264-0.015,0.522-0.057,0.778l2.526-0.246
		c0.196-0.365,0.584-0.811,0.661-1.353v-2.178C50.112,30.083,49.259,29.792,49.015,29.692z M10.37,19.458
		c0,0.081-0.053,0.143-0.122,0.143H7.049c-0.066,0-0.122-0.062-0.122-0.143v-1.953c0-0.076,0.053-0.139,0.122-0.139h3.199
		c0.066,0,0.122,0.061,0.122,0.139C10.37,17.505,10.37,19.458,10.37,19.458z M19.806,24.028h-2.602v2.601h-2.23v-2.603h-2.602
		v-2.228h2.602v-2.602h2.23v2.602h2.602V24.028z M25.466,19.458c0,0.081-0.057,0.143-0.127,0.143h-3.196
		c-0.066,0-0.122-0.062-0.122-0.143v-1.953c0-0.076,0.053-0.139,0.122-0.139h3.196c0.067,0,0.127,0.061,0.127,0.139
		C25.466,17.505,25.466,19.458,25.466,19.458z M32.943,23.802c-0.179-0.034-0.351-0.092-0.497-0.206
		c-0.279-0.216-0.413-0.598-0.497-0.93c-0.264-1.011-0.102-1.985-0.231-3.02c-0.017-0.122-0.012-0.264,0.072-0.358
		c0.124-0.14,0.383-0.15,0.547-0.143l3.068,0.114c0.186,0.044,0.39,0.102,0.559,0.194c0.067,0.039,0.137,0.088,0.201,0.137
		l4.441,4.178l0.005,0.586L32.943,23.802z"/>
</g>
</svg>
