<?xml version="1.0" encoding="utf-8"?>
<!-- Generator: Adobe Illustrator 25.4.1, SVG Export Plug-In . SVG Version: 6.00 Build 0)  -->
<svg version="1.1" id="Layer_1" xmlns="http://www.w3.org/2000/svg" xmlns:xlink="http://www.w3.org/1999/xlink" x="0px" y="0px"
	 viewBox="0 0 50.46 50.46" style="enable-background:new 0 0 50.46 50.46;" xml:space="preserve">
<path d="M14.029,29.91c-2.088,0-3.777,1.69-3.777,3.777c0,2.087,1.689,3.777,3.777,3.777s3.777-1.691,3.777-3.777
	S16.117,29.91,14.029,29.91z M14.029,35.562c-1.036,0-1.873-0.843-1.873-1.875c0-1.037,0.838-1.875,1.873-1.875
	c1.033,0,1.873,0.838,1.873,1.875C15.903,34.719,15.065,35.562,14.029,35.562z"/>
<path d="M42.745,29.91c-2.089,0-3.777,1.69-3.777,3.777c0,2.087,1.688,3.777,3.777,3.777c2.089,0,3.777-1.691,3.777-3.777
	S44.834,29.91,42.745,29.91z M42.745,35.562c-1.034,0-1.877-0.843-1.877-1.875c0-1.037,0.843-1.875,1.877-1.875
	c1.034,0,1.872,0.838,1.872,1.875C44.617,34.719,43.785,35.562,42.745,35.562z"/>
<path d="M49.603,29.759c-0.326-0.929-0.585-1.938-0.999-2.261c-0.497-0.303-5.132-3.559-5.357-3.786
	c-2.309-2.359-8.228-7.886-11.721-7.886l-1.903-0.003V15.36h0.051c1.474,0,1.241-2.364,0.091-2.364h-3.785
	c-1.002,0-1.113,2.364,0.275,2.364h0.048v0.458L4.18,15.776c-0.873,0.049-2.036,0.796-2.406,2.333
	c-0.757,3.14-1.117,7.006-1.087,10.373c0.003,0.169-0.473,0.227-0.471,0.394c0.005,0.449,0.052,2.382,0.083,3.51
	c0.023,0.805,0.55,0.86,1.188,0.977l7.069,0.707c-0.018-0.172-0.025-0.343-0.025-0.52c0-2.876,2.328-5.213,5.205-5.213
	c2.879,0,5.212,2.334,5.212,5.213c0,0.25-0.018,0.495-0.054,0.737c5.492,0.005,12.88,0.078,18.31,0.202
	c-0.058-0.303-0.086-0.616-0.086-0.939c0-2.879,2.332-5.213,5.211-5.213s5.21,2.334,5.21,5.213c0,0.267-0.015,0.53-0.058,0.79
	l2.564-0.25c0.199-0.371,0.593-0.823,0.671-1.373v-2.21C50.716,30.155,49.851,29.859,49.603,29.759z M10.386,19.373
	c0,0.082-0.054,0.145-0.124,0.145H7.016c-0.067,0-0.124-0.063-0.124-0.145v-1.982c0-0.077,0.054-0.141,0.124-0.141h3.246
	c0.067,0,0.124,0.062,0.124,0.141V19.373z M19.961,24.011h-2.641v2.639h-2.263v-2.642h-2.641v-2.261h2.641v-2.641h2.263v2.641h2.641
	V24.011z M25.706,19.373c0,0.082-0.058,0.145-0.129,0.145h-3.244c-0.067,0-0.124-0.063-0.124-0.145v-1.982
	c0-0.077,0.054-0.141,0.124-0.141h3.244c0.068,0,0.129,0.062,0.129,0.141V19.373z M33.293,23.781
	c-0.182-0.034-0.356-0.093-0.505-0.209c-0.283-0.219-0.419-0.607-0.505-0.944c-0.267-1.026-0.103-2.015-0.235-3.064
	c-0.018-0.124-0.013-0.267,0.073-0.363c0.126-0.143,0.389-0.153,0.555-0.145l3.114,0.116c0.189,0.044,0.396,0.103,0.568,0.197
	c0.068,0.039,0.139,0.09,0.204,0.139l4.506,4.24l0.005,0.594L33.293,23.781z"/>
</svg>
