<?xml version="1.0" encoding="utf-8"?>
<!-- Generator: Adobe Illustrator 16.0.0, SVG Export Plug-In . SVG Version: 6.00 Build 0)  -->
<!DOCTYPE svg PUBLIC "-//W3C//DTD SVG 1.1//EN" "http://www.w3.org/Graphics/SVG/1.1/DTD/svg11.dtd">
<svg version="1.1" id="Layer_1" xmlns="http://www.w3.org/2000/svg" xmlns:xlink="http://www.w3.org/1999/xlink" x="0px" y="0px" viewBox="0 0 1366 557" enable-background="new 0 0 1366 557" xml:space="preserve">
<g>
	<path d="M472.671,364.568c38.399,0,69.467,31.091,69.467,69.467c0,38.377-31.068,69.468-69.467,69.468
		s-69.467-31.091-69.467-69.468C403.205,395.658,434.272,364.568,472.671,364.568z"/>
	<path d="M1000.774,364.568c38.423,0,69.467,31.091,69.467,69.467c0,38.377-31.044,69.468-69.467,69.468
		s-69.468-31.091-69.468-69.468C931.309,395.658,962.353,364.568,1000.774,364.568z"/>
	<path d="M1010.009,250.576c4.13,4.177,89.375,64.062,98.516,69.629c7.611,5.94,12.392,24.501,18.378,41.578
		c4.547,1.856,20.464,7.286,20.464,13.735v40.65c-1.438,10.115-8.679,18.422-12.345,25.243l-47.146,4.595
		c0.789-4.779,1.066-9.605,1.066-14.524c0-52.947-42.877-95.871-95.823-95.871c-52.947,0-95.825,42.924-95.825,95.871
		c0,5.94,0.511,11.694,1.577,17.263c-99.861-2.272-235.732-3.619-336.731-3.713c0.673-4.455,0.998-8.955,0.998-13.55
		c0-52.947-42.9-95.871-95.848-95.871c-52.924,0-95.732,42.97-95.732,95.871c0,3.248,0.139,6.403,0.464,9.561l-130.001-12.994
		c-11.74-2.135-21.439-3.154-21.856-17.958c-0.58-20.743-1.438-56.288-1.531-64.548c-0.046-3.063,8.701-4.132,8.654-7.239
		c-0.534-61.926,6.079-133.019,20-190.769c6.798-28.26,28.191-41.996,44.247-42.9l406.874,0.766v-8.422h-0.885
		c-25.521,0-23.48-43.481-5.059-43.481h69.606c21.16,0,25.43,43.481-1.671,43.481h-0.929v8.515l34.989,0.046
		C858.686,105.54,967.549,207.188,1010.009,250.576z"/>
	<polygon fill="#FFFFFF" points="491.581,165.889 533.206,165.889 533.206,214.45 581.768,214.45 581.768,256.075 533.206,256.075 
		533.206,304.613 491.581,304.613 491.581,256.028 443.019,256.028 443.019,214.45 491.581,214.45 	"/>
	<path fill="#FFFFFF" d="M625.388,131.735h59.652c1.253,0,2.367,1.137,2.367,2.6v36.45c0,1.509-1.068,2.668-2.367,2.668h-59.652
		c-1.229,0-2.273-1.159-2.273-2.668v-36.45C623.114,132.919,624.111,131.735,625.388,131.735z"/>
	<path fill="#FFFFFF" d="M343.691,131.735h59.699c1.229,0,2.274,1.137,2.274,2.6v36.45c0,1.509-0.998,2.668-2.274,2.668h-59.699
		c-1.229,0-2.274-1.159-2.274-2.668v-36.45C341.417,132.919,342.415,131.735,343.691,131.735z"/>
	<path fill="#FFFFFF" d="M887.084,173.243c-1.206-0.904-2.506-1.833-3.759-2.552c-3.155-1.717-6.961-2.808-10.441-3.62
		l-57.262-2.135c-3.063-0.139-7.889,0.046-10.209,2.668c-1.578,1.763-1.671,4.408-1.346,6.682
		c2.412,19.305-0.604,37.495,4.314,56.358c1.577,6.195,4.083,13.318,9.28,17.355c2.738,2.134,5.939,3.225,9.281,3.851
		l143.111,10.303l-0.093-10.928L887.084,173.243z"/>
	<path fill="#FFFFFF" d="M472.671,399.557c19.002,0,34.455,15.406,34.455,34.479c0,18.98-15.406,34.479-34.455,34.479
		s-34.455-15.498-34.455-34.479C438.216,414.963,453.623,399.557,472.671,399.557"/>
	<path fill="#FFFFFF" d="M1000.774,399.557c19.024,0,34.432,15.406,34.432,34.479c0,18.98-15.313,34.479-34.432,34.479
		c-19.025,0-34.525-15.498-34.525-34.479C966.249,414.963,981.749,399.557,1000.774,399.557z"/>
</g>
</svg>
