<?xml version="1.0" encoding="utf-8"?>
<!-- Generator: Adobe Illustrator 25.4.1, SVG Export Plug-In . SVG Version: 6.00 Build 0)  -->
<svg version="1.1" id="Layer_1" xmlns="http://www.w3.org/2000/svg" xmlns:xlink="http://www.w3.org/1999/xlink" x="0px" y="0px"
	 viewBox="0 0 50.5 50.5" style="enable-background:new 0 0 50.5 50.5;" xml:space="preserve">
<style type="text/css">
	.st0{fill:#FFFFFF;}
</style>
<g>
	<path d="M13.814,29.93c2.088,0,3.777,1.691,3.777,3.777c0,2.087-1.689,3.777-3.777,3.777s-3.777-1.691-3.777-3.777
		C10.037,31.621,11.726,29.93,13.814,29.93z"/>
	<path d="M42.529,29.93c2.089,0,3.777,1.691,3.777,3.777c0,2.087-1.688,3.777-3.777,3.777c-2.089,0-3.777-1.691-3.777-3.777
		C38.752,31.621,40.44,29.93,42.529,29.93z"/>
	<path d="M43.032,23.732c0.225,0.227,4.86,3.483,5.357,3.786c0.414,0.323,0.674,1.332,0.999,2.261
		c0.247,0.101,1.113,0.396,1.113,0.747v2.21c-0.078,0.55-0.472,1.002-0.671,1.373l-2.564,0.25c0.043-0.26,0.058-0.522,0.058-0.79
		c0-2.879-2.331-5.213-5.21-5.213c-2.879,0-5.21,2.334-5.21,5.213c0,0.323,0.028,0.636,0.086,0.939
		c-5.43-0.124-12.818-0.197-18.31-0.202c0.037-0.242,0.054-0.487,0.054-0.737c0-2.879-2.333-5.213-5.212-5.213
		c-2.878,0-5.205,2.337-5.205,5.213c0,0.177,0.008,0.348,0.025,0.52l-7.069-0.707c-0.638-0.116-1.166-0.171-1.188-0.976
		c-0.032-1.128-0.078-3.061-0.083-3.51c-0.003-0.167,0.473-0.225,0.471-0.394c-0.029-3.367,0.331-7.233,1.088-10.373
		c0.37-1.537,1.533-2.284,2.406-2.333l22.124,0.042V15.38H26.04c-1.388,0-1.277-2.364-0.275-2.364h3.785
		c1.151,0,1.383,2.364-0.091,2.364h-0.051v0.463l1.903,0.003C34.803,15.846,40.723,21.373,43.032,23.732z"/>
	<polygon class="st0" points="14.842,19.127 17.105,19.127 17.105,21.768 19.746,21.768 19.746,24.031 17.105,24.031 17.105,26.67 
		14.842,26.67 14.842,24.029 12.201,24.029 12.201,21.768 14.842,21.768 	"/>
	<path class="st0" d="M22.118,17.27h3.244c0.068,0,0.129,0.062,0.129,0.141v1.982c0,0.082-0.058,0.145-0.129,0.145h-3.244
		c-0.067,0-0.124-0.063-0.124-0.145v-1.982C21.994,17.334,22.048,17.27,22.118,17.27z"/>
	<path class="st0" d="M6.8,17.27h3.246c0.067,0,0.124,0.062,0.124,0.141v1.982c0,0.082-0.054,0.145-0.124,0.145H6.8
		c-0.067,0-0.124-0.063-0.124-0.145v-1.982C6.677,17.334,6.731,17.27,6.8,17.27z"/>
	<path class="st0" d="M36.348,19.527c-0.066-0.049-0.136-0.1-0.204-0.139c-0.172-0.093-0.379-0.153-0.568-0.197l-3.114-0.116
		c-0.167-0.008-0.429,0.003-0.555,0.145c-0.086,0.096-0.091,0.24-0.073,0.363c0.131,1.05-0.033,2.039,0.235,3.064
		c0.086,0.337,0.222,0.724,0.505,0.944c0.149,0.116,0.323,0.175,0.505,0.209l7.782,0.56l-0.005-0.594L36.348,19.527z"/>
	<path class="st0" d="M13.814,31.833c1.033,0,1.873,0.838,1.873,1.875c0,1.032-0.838,1.875-1.873,1.875s-1.873-0.843-1.873-1.875
		C11.94,32.671,12.778,31.833,13.814,31.833"/>
	<path class="st0" d="M42.529,31.833c1.034,0,1.872,0.838,1.872,1.875c0,1.032-0.833,1.875-1.872,1.875
		c-1.034,0-1.877-0.843-1.877-1.875C40.652,32.671,41.495,31.833,42.529,31.833z"/>
</g>
</svg>
