<?xml version="1.0" encoding="utf-8"?>
<!-- Generator: Adobe Illustrator 25.4.1, SVG Export Plug-In . SVG Version: 6.00 Build 0)  -->
<svg version="1.1" id="Layer_1" xmlns="http://www.w3.org/2000/svg" xmlns:xlink="http://www.w3.org/1999/xlink" x="0px" y="0px"
	 viewBox="0 0 50.5 50.5" style="enable-background:new 0 0 50.5 50.5;" xml:space="preserve">
<style type="text/css">
	.st0{fill:#FFFFFF;}
</style>
<g>
	<path d="M14.427,29.613c1.947,0,3.522,1.576,3.522,3.522c0,1.946-1.575,3.522-3.522,3.522s-3.522-1.576-3.522-3.522
		C10.905,31.19,12.48,29.613,14.427,29.613z"/>
	<path d="M41.2,29.613c1.948,0,3.522,1.576,3.522,3.522c0,1.946-1.574,3.522-3.522,3.522c-1.948,0-3.522-1.576-3.522-3.522
		C37.679,31.19,39.253,29.613,41.2,29.613z"/>
	<path d="M41.669,23.834c0.209,0.212,4.531,3.248,4.995,3.53c0.386,0.301,0.628,1.242,0.932,2.108
		c0.231,0.094,1.037,0.369,1.037,0.696v2.061c-0.073,0.513-0.44,0.934-0.626,1.28l-2.39,0.233c0.04-0.242,0.054-0.487,0.054-0.736
		c0-2.684-2.174-4.86-4.858-4.86c-2.684,0-4.858,2.176-4.858,4.86c0,0.301,0.026,0.593,0.08,0.875
		c-5.063-0.115-11.951-0.183-17.072-0.188c0.034-0.226,0.051-0.454,0.051-0.687c0-2.684-2.175-4.86-4.859-4.86
		c-2.683,0-4.853,2.178-4.853,4.86c0,0.165,0.007,0.325,0.024,0.485l-6.591-0.659c-0.595-0.108-1.087-0.16-1.108-0.91
		c-0.029-1.052-0.073-2.854-0.078-3.272c-0.002-0.155,0.441-0.209,0.439-0.367C1.959,25.142,2.294,21.538,3,18.61
		c0.345-1.433,1.429-2.129,2.243-2.175l20.628,0.039v-0.427h-0.045c-1.294,0-1.19-2.204-0.256-2.204h3.529
		c1.073,0,1.289,2.204-0.085,2.204h-0.047v0.432l1.774,0.002C33.997,16.481,39.516,21.635,41.669,23.834z"/>
	<polygon class="st0" points="15.385,19.541 17.496,19.541 17.496,22.003 19.958,22.003 19.958,24.113 17.496,24.113 17.496,26.574 
		15.385,26.574 15.385,24.111 12.923,24.111 12.923,22.003 15.385,22.003 	"/>
	<path class="st0" d="M22.169,17.809h3.024c0.064,0,0.12,0.058,0.12,0.132v1.848c0,0.077-0.054,0.135-0.12,0.135h-3.024
		c-0.062,0-0.115-0.059-0.115-0.135v-1.848C22.054,17.869,22.104,17.809,22.169,17.809z"/>
	<path class="st0" d="M7.888,17.809h3.027c0.062,0,0.115,0.058,0.115,0.132v1.848c0,0.077-0.051,0.135-0.115,0.135H7.888
		c-0.062,0-0.115-0.059-0.115-0.135v-1.848C7.772,17.869,7.823,17.809,7.888,17.809z"/>
	<path class="st0" d="M35.437,19.914c-0.061-0.046-0.127-0.093-0.191-0.129c-0.16-0.087-0.353-0.142-0.529-0.184l-2.903-0.108
		c-0.155-0.007-0.4,0.002-0.518,0.135c-0.08,0.089-0.085,0.223-0.068,0.339c0.122,0.979-0.031,1.901,0.219,2.857
		c0.08,0.314,0.207,0.675,0.47,0.88c0.139,0.108,0.301,0.164,0.471,0.195l7.255,0.522l-0.005-0.554L35.437,19.914z"/>
	<path class="st0" d="M14.427,31.387c0.963,0,1.747,0.781,1.747,1.748c0,0.962-0.781,1.748-1.747,1.748s-1.747-0.786-1.747-1.748
		C12.68,32.168,13.461,31.387,14.427,31.387"/>
	<path class="st0" d="M41.2,31.387c0.964,0,1.746,0.781,1.746,1.748c0,0.962-0.776,1.748-1.746,1.748
		c-0.965,0-1.75-0.786-1.75-1.748C39.45,32.168,40.236,31.387,41.2,31.387z"/>
</g>
</svg>
