<?xml version="1.0" encoding="utf-8"?>
<!-- Generator: Adobe Illustrator 25.4.1, SVG Export Plug-In . SVG Version: 6.00 Build 0)  -->
<svg version="1.1" id="Layer_1" xmlns="http://www.w3.org/2000/svg" xmlns:xlink="http://www.w3.org/1999/xlink" x="0px" y="0px"
	 viewBox="0 0 51.5 51.5" style="enable-background:new 0 0 51.5 51.5;" xml:space="preserve">
<style type="text/css">
	.st0{fill:#FFFFFF;}
</style>
<g>
	<path d="M14.9,30.1c1.9,0,3.5,1.6,3.5,3.5c0,1.9-1.6,3.5-3.5,3.5s-3.5-1.6-3.5-3.5C11.4,31.7,13,30.1,14.9,30.1z"/>
	<path d="M41.7,30.1c1.9,0,3.5,1.6,3.5,3.5c0,1.9-1.6,3.5-3.5,3.5c-1.9,0-3.5-1.6-3.5-3.5C38.2,31.7,39.7,30.1,41.7,30.1z"/>
	<path d="M42.1,24.3c0.2,0.2,4.5,3.2,5,3.5c0.4,0.3,0.6,1.2,0.9,2.1c0.2,0.1,1,0.4,1,0.7v2.1c-0.1,0.5-0.4,0.9-0.6,1.3l-2.4,0.2
		c0-0.2,0.1-0.5,0.1-0.7c0-2.7-2.2-4.9-4.9-4.9c-2.7,0-4.9,2.2-4.9,4.9c0,0.3,0,0.6,0.1,0.9c-5.1-0.1-12-0.2-17.1-0.2
		c0-0.2,0.1-0.5,0.1-0.7c0-2.7-2.2-4.9-4.9-4.9c-2.7,0-4.9,2.2-4.9,4.9c0,0.2,0,0.3,0,0.5l-6.6-0.7c-0.6-0.1-1.1-0.2-1.1-0.9
		c0-1.1-0.1-2.9-0.1-3.3c0-0.2,0.4-0.2,0.4-0.4c0-3.1,0.3-6.7,1-9.7c0.3-1.4,1.4-2.1,2.2-2.2l20.6,0v-0.4h0c-1.3,0-1.2-2.2-0.3-2.2
		h3.5c1.1,0,1.3,2.2-0.1,2.2h0V17l1.8,0C34.5,17,40,22.1,42.1,24.3z"/>
	<polygon class="st0" points="15.9,20 18,20 18,22.5 20.4,22.5 20.4,24.6 18,24.6 18,27.1 15.9,27.1 15.9,24.6 13.4,24.6 13.4,22.5 
		15.9,22.5 	"/>
	<path class="st0" d="M22.6,18.3h3c0.1,0,0.1,0.1,0.1,0.1v1.8c0,0.1-0.1,0.1-0.1,0.1h-3c-0.1,0-0.1-0.1-0.1-0.1v-1.8
		C22.5,18.3,22.6,18.3,22.6,18.3z"/>
	<path class="st0" d="M8.4,18.3h3c0.1,0,0.1,0.1,0.1,0.1v1.8c0,0.1-0.1,0.1-0.1,0.1h-3c-0.1,0-0.1-0.1-0.1-0.1v-1.8
		C8.3,18.3,8.3,18.3,8.4,18.3z"/>
	<path class="st0" d="M35.9,20.4c-0.1,0-0.1-0.1-0.2-0.1c-0.2-0.1-0.4-0.1-0.5-0.2L32.3,20c-0.2,0-0.4,0-0.5,0.1
		c-0.1,0.1-0.1,0.2-0.1,0.3c0.1,1,0,1.9,0.2,2.9c0.1,0.3,0.2,0.7,0.5,0.9c0.1,0.1,0.3,0.2,0.5,0.2l7.3,0.5l0-0.6L35.9,20.4z"/>
	<path class="st0" d="M14.9,31.9c1,0,1.7,0.8,1.7,1.7c0,1-0.8,1.7-1.7,1.7s-1.7-0.8-1.7-1.7C13.2,32.6,13.9,31.9,14.9,31.9"/>
	<path class="st0" d="M41.7,31.9c1,0,1.7,0.8,1.7,1.7c0,1-0.8,1.7-1.7,1.7c-1,0-1.8-0.8-1.8-1.7C39.9,32.6,40.7,31.9,41.7,31.9z"/>
</g>
</svg>
