<?xml version="1.0" encoding="utf-8"?>
<!-- Generator: Adobe Illustrator 25.4.1, SVG Export Plug-In . SVG Version: 6.00 Build 0)  -->
<svg version="1.1" id="Layer_1" xmlns="http://www.w3.org/2000/svg" xmlns:xlink="http://www.w3.org/1999/xlink" x="0px" y="0px"
	 viewBox="0 0 966 966" style="enable-background:new 0 0 966 966;" xml:space="preserve">
<style type="text/css">
	.st0{fill:#FFFFFF;}
</style>
<g>
	<path d="M272.7,569.1c38.4,0,69.5,31.1,69.5,69.5c0,38.4-31.1,69.5-69.5,69.5s-69.5-31.1-69.5-69.5
		C203.2,600.2,234.3,569.1,272.7,569.1z"/>
	<path d="M800.8,569.1c38.4,0,69.5,31.1,69.5,69.5c0,38.4-31,69.5-69.5,69.5s-69.5-31.1-69.5-69.5
		C731.3,600.2,762.4,569.1,800.8,569.1z"/>
	<path d="M810,455.1c4.1,4.2,89.4,64.1,98.5,69.6c7.6,5.9,12.4,24.5,18.4,41.6c4.5,1.9,20.5,7.3,20.5,13.7v40.7
		c-1.4,10.1-8.7,18.4-12.3,25.2l-47.1,4.6c0.8-4.8,1.1-9.6,1.1-14.5c0-52.9-42.9-95.9-95.8-95.9c-52.9,0-95.8,42.9-95.8,95.9
		c0,5.9,0.5,11.7,1.6,17.3c-99.9-2.3-235.7-3.6-336.7-3.7c0.7-4.5,1-9,1-13.5c0-52.9-42.9-95.9-95.8-95.9c-52.9,0-95.7,43-95.7,95.9
		c0,3.2,0.1,6.4,0.5,9.6l-130-13c-11.7-2.1-21.4-3.2-21.9-18c-0.6-20.7-1.4-56.3-1.5-64.5c0-3.1,8.7-4.1,8.7-7.2
		c-0.5-61.9,6.1-133,20-190.8c6.8-28.3,28.2-42,44.2-42.9l406.9,0.8v-8.4h-0.9c-25.5,0-23.5-43.5-5.1-43.5h69.6
		c21.2,0,25.4,43.5-1.7,43.5h-0.9v8.5l35,0C658.7,310,767.5,411.7,810,455.1z"/>
	<polygon class="st0" points="291.6,370.4 333.2,370.4 333.2,419 381.8,419 381.8,460.6 333.2,460.6 333.2,509.1 291.6,509.1 
		291.6,460.5 243,460.5 243,419 291.6,419 	"/>
	<path class="st0" d="M425.4,336.2H485c1.3,0,2.4,1.1,2.4,2.6v36.4c0,1.5-1.1,2.7-2.4,2.7h-59.7c-1.2,0-2.3-1.2-2.3-2.7v-36.4
		C423.1,337.4,424.1,336.2,425.4,336.2z"/>
	<path class="st0" d="M143.7,336.2h59.7c1.2,0,2.3,1.1,2.3,2.6v36.4c0,1.5-1,2.7-2.3,2.7h-59.7c-1.2,0-2.3-1.2-2.3-2.7v-36.4
		C141.4,337.4,142.4,336.2,143.7,336.2z"/>
	<path class="st0" d="M687.1,377.7c-1.2-0.9-2.5-1.8-3.8-2.6c-3.2-1.7-7-2.8-10.4-3.6l-57.3-2.1c-3.1-0.1-7.9,0-10.2,2.7
		c-1.6,1.8-1.7,4.4-1.3,6.7c2.4,19.3-0.6,37.5,4.3,56.4c1.6,6.2,4.1,13.3,9.3,17.4c2.7,2.1,5.9,3.2,9.3,3.9l143.1,10.3l-0.1-10.9
		L687.1,377.7z"/>
	<path class="st0" d="M272.7,604.1c19,0,34.5,15.4,34.5,34.5c0,19-15.4,34.5-34.5,34.5s-34.5-15.5-34.5-34.5
		C238.2,619.5,253.6,604.1,272.7,604.1"/>
	<path class="st0" d="M800.8,604.1c19,0,34.4,15.4,34.4,34.5c0,19-15.3,34.5-34.4,34.5c-19,0-34.5-15.5-34.5-34.5
		C766.2,619.5,781.7,604.1,800.8,604.1z"/>
</g>
</svg>
