<?xml version="1.0" encoding="utf-8"?>
<!-- Generator: Adobe Illustrator 25.4.1, SVG Export Plug-In . SVG Version: 6.00 Build 0)  -->
<svg version="1.1" id="Layer_1" xmlns="http://www.w3.org/2000/svg" xmlns:xlink="http://www.w3.org/1999/xlink" x="0px" y="0px"
	 viewBox="0 0 50.46 50.46" style="enable-background:new 0 0 50.46 50.46;" xml:space="preserve">
<style type="text/css">
	.st0{fill:#FFFFFF;}
</style>
<g>
	<path d="M14.029,29.91c2.088,0,3.777,1.691,3.777,3.777c0,2.087-1.689,3.777-3.777,3.777s-3.777-1.691-3.777-3.777
		C10.252,31.6,11.941,29.91,14.029,29.91z"/>
	<path d="M42.745,29.91c2.089,0,3.777,1.691,3.777,3.777c0,2.087-1.688,3.777-3.777,3.777c-2.089,0-3.777-1.691-3.777-3.777
		C38.968,31.6,40.656,29.91,42.745,29.91z"/>
	<path d="M43.247,23.712c0.225,0.227,4.86,3.483,5.357,3.786c0.414,0.323,0.674,1.332,0.999,2.261
		c0.247,0.101,1.113,0.396,1.113,0.747v2.21c-0.078,0.55-0.472,1.002-0.671,1.373l-2.564,0.25c0.043-0.26,0.058-0.522,0.058-0.79
		c0-2.879-2.331-5.213-5.21-5.213c-2.879,0-5.21,2.334-5.21,5.213c0,0.323,0.028,0.636,0.086,0.939
		c-5.43-0.124-12.818-0.197-18.31-0.202c0.037-0.242,0.054-0.487,0.054-0.737c0-2.879-2.333-5.213-5.212-5.213
		c-2.878,0-5.205,2.337-5.205,5.213c0,0.177,0.008,0.348,0.025,0.52l-7.069-0.707c-0.638-0.116-1.166-0.172-1.188-0.976
		c-0.032-1.128-0.078-3.061-0.083-3.51c-0.003-0.167,0.473-0.225,0.471-0.394c-0.029-3.367,0.331-7.233,1.088-10.373
		c0.37-1.537,1.533-2.284,2.406-2.333l22.124,0.042V15.36h-0.048c-1.388,0-1.277-2.364-0.275-2.364h3.785
		c1.151,0,1.383,2.364-0.091,2.364h-0.051v0.463l1.903,0.003C35.019,15.825,40.938,21.352,43.247,23.712z"/>
	<polygon class="st0" points="15.058,19.107 17.321,19.107 17.321,21.747 19.961,21.747 19.961,24.011 17.321,24.011 17.321,26.65 
		15.058,26.65 15.058,24.008 12.417,24.008 12.417,21.747 15.058,21.747 	"/>
	<path class="st0" d="M22.333,17.25h3.244c0.068,0,0.129,0.062,0.129,0.141v1.982c0,0.082-0.058,0.145-0.129,0.145h-3.244
		c-0.067,0-0.124-0.063-0.124-0.145v-1.982C22.21,17.314,22.264,17.25,22.333,17.25z"/>
	<path class="st0" d="M7.016,17.25h3.246c0.067,0,0.124,0.062,0.124,0.141v1.982c0,0.082-0.054,0.145-0.124,0.145H7.016
		c-0.067,0-0.124-0.063-0.124-0.145v-1.982C6.892,17.314,6.947,17.25,7.016,17.25z"/>
	<path class="st0" d="M36.563,19.507c-0.066-0.049-0.136-0.1-0.204-0.139c-0.172-0.093-0.379-0.153-0.568-0.197l-3.114-0.116
		c-0.167-0.008-0.429,0.003-0.555,0.145c-0.086,0.096-0.091,0.24-0.073,0.363c0.131,1.05-0.033,2.039,0.235,3.064
		c0.086,0.337,0.222,0.724,0.505,0.944c0.149,0.116,0.323,0.175,0.505,0.209l7.782,0.56l-0.005-0.594L36.563,19.507z"/>
	<path class="st0" d="M14.029,31.812c1.033,0,1.873,0.838,1.873,1.875c0,1.032-0.838,1.875-1.873,1.875s-1.873-0.843-1.873-1.875
		C12.156,32.65,12.994,31.812,14.029,31.812"/>
	<path class="st0" d="M42.745,31.812c1.034,0,1.872,0.838,1.872,1.875c0,1.032-0.833,1.875-1.872,1.875
		c-1.034,0-1.877-0.843-1.877-1.875C40.868,32.65,41.71,31.812,42.745,31.812z"/>
</g>
</svg>
