<?xml version="1.0" encoding="UTF-8"?>
<svg id="Layer_1" xmlns="http://www.w3.org/2000/svg" version="1.1" xmlns:xlink="http://www.w3.org/1999/xlink" viewBox="0 0 50.5 50.5">
  <!-- Generator: Adobe Illustrator 29.3.1, SVG Export Plug-In . SVG Version: 2.1.0 Build 151)  -->
  <path d="M41.017,25.25c.633-.775,1.225-1.552,1.736-2.328,2.689-4.089,3.294-7.691,1.701-10.143-.241-.371-.735-.476-1.106-.235s-.476.736-.235,1.106c1.207,1.859.589,4.918-1.696,8.393-.433.658-.931,1.317-1.459,1.976-1.322-1.465-2.84-2.902-4.52-4.279-.311-2.848-.859-5.471-1.599-7.773,1.521-.314,2.939-.464,4.205-.429.272,1.003,1.181,1.746,2.268,1.746,1.301,0,2.358-1.058,2.358-2.359s-1.058-2.358-2.358-2.358c-.952,0-1.769.569-2.142,1.383-1.476-.048-3.114.114-4.868.488-1.908-4.971-4.782-8.085-8.052-8.085s-6.141,3.112-8.049,8.079c-5.202-1.103-9.376-.391-11.155,2.348-.415.639-.685,1.368-.802,2.166-.064.437.238.844.675.908.442.065.843-.239.908-.675.083-.569.272-1.083.561-1.527,1.37-2.109,4.87-2.585,9.272-1.675-.738,2.298-1.285,4.917-1.596,7.759-1.711,1.399-3.231,2.84-4.537,4.288-.692-.863-1.302-1.723-1.819-2.572.298-.395.482-.881.482-1.413,0-1.301-1.058-2.359-2.358-2.359s-2.359,1.058-2.359,2.359,1.058,2.358,2.359,2.358c.186,0,.365-.027.539-.068.594.967,1.295,1.945,2.095,2.922-3.904,4.776-5.381,9.452-3.42,12.472,1.218,1.875,3.572,2.851,6.772,2.851.985,0,2.05-.093,3.187-.279.39-.064.791-.153,1.191-.238,1.908,4.976,4.784,8.094,8.055,8.094.545,0,1.09-.087,1.617-.259.421-.137.65-.588.514-1.008-.138-.42-.589-.648-1.008-.514-.368.12-.746.181-1.123.181-2.521,0-4.835-2.676-6.47-6.879,2.089-.566,4.268-1.374,6.471-2.423,2.208,1.051,4.392,1.86,6.486,2.427-.281.715-.583,1.388-.906,2.014-.098-.012-.194-.03-.295-.03-1.301,0-2.358,1.059-2.358,2.359s1.058,2.358,2.358,2.358,2.358-1.058,2.358-2.358c0-.624-.248-1.188-.644-1.61.374-.731.722-1.518,1.042-2.355.404.086.81.176,1.205.241,1.137.187,2.201.279,3.187.279,3.199,0,5.554-.976,6.771-2.851,1.593-2.452.988-6.055-1.701-10.144-.513-.777-1.105-1.555-1.738-2.329ZM38.918,25.25c-.982,1.103-2.084,2.193-3.289,3.255.068-1.068.105-2.154.105-3.254,0-1.107-.037-2.192-.103-3.253,1.204,1.06,2.305,2.149,3.287,3.252ZM16.366,25.25c0-1.606.081-3.175.23-4.691,1.194-.953,2.464-1.882,3.816-2.76,1.597-1.037,3.221-1.953,4.832-2.752,1.609.795,3.236,1.707,4.845,2.752,1.343.872,2.614,1.796,3.814,2.75.149,1.518.231,3.091.231,4.7s-.079,3.174-.224,4.694c-1.202.956-2.475,1.882-3.821,2.756-1.599,1.038-3.223,1.954-4.839,2.757-1.616-.803-3.24-1.719-4.839-2.757-1.344-.873-2.618-1.795-3.814-2.746-.149-1.518-.231-3.092-.231-4.703ZM33.63,18.328c-.862-.641-1.746-1.27-2.67-1.87-1.289-.837-2.581-1.593-3.862-2.274,1.774-.779,3.512-1.401,5.158-1.844.584,1.8,1.051,3.819,1.374,5.988ZM25.25,3.951c2.52,0,4.833,2.673,6.468,6.873-2.061.561-4.241,1.383-6.458,2.435-2.24-1.069-4.42-1.884-6.475-2.441,1.634-4.196,3.947-6.867,6.465-6.867ZM18.24,12.351c1.644.441,3.382,1.057,5.167,1.84-1.29.684-2.584,1.435-3.867,2.267-.932.605-1.813,1.233-2.67,1.869.322-2.164.788-4.179,1.37-5.976ZM14.869,22.013c-.066,1.056-.102,2.135-.102,3.237,0,1.111.037,2.2.104,3.265-1.209-1.063-2.313-2.151-3.29-3.246.971-1.091,2.075-2.183,3.288-3.256ZM15.744,38.714c-4.104.673-7.15-.005-8.357-1.863-1.52-2.34-.143-6.255,3.156-10.356,1.317,1.457,2.835,2.898,4.52,4.279.311,2.842.859,5.46,1.596,7.757-.305.062-.615.134-.915.183ZM18.243,38.158c-.582-1.797-1.049-3.812-1.371-5.976.859.639,1.747,1.262,2.669,1.86,1.278.83,2.573,1.59,3.869,2.278-1.764.776-3.498,1.393-5.167,1.838ZM27.091,36.32c1.297-.688,2.591-1.448,3.869-2.278.928-.603,1.816-1.235,2.682-1.879-.315,2.164-.778,4.186-1.367,5.999-1.675-.444-3.415-1.063-5.184-1.842ZM43.112,36.851c-1.207,1.859-4.258,2.538-8.356,1.863-.304-.05-.618-.123-.928-.186.744-2.324,1.288-4.953,1.599-7.758,1.684-1.379,3.206-2.82,4.531-4.288.528.658,1.026,1.318,1.459,1.976,2.284,3.475,2.902,6.533,1.695,8.393Z"/>
  <path d="M22.988,26.588h1.515v4.063c0,.382.27.711.645.785.052.01.104.015.156.015.318,0,.614-.191.739-.495l2.633-6.385c.103-.247.074-.528-.074-.75-.148-.222-.398-.355-.665-.355h-1.515v-4.064c0-.382-.27-.71-.645-.785-.371-.072-.749.126-.895.479l-2.634,6.386c-.102.247-.074.528.075.75.149.223.398.356.665.356Z"/>
</svg>