<?xml version="1.0" encoding="UTF-8"?>
<svg id="Layer_1" xmlns="http://www.w3.org/2000/svg" version="1.1" xmlns:xlink="http://www.w3.org/1999/xlink" viewBox="0 0 50.5 50.5">
  <!-- Generator: Adobe Illustrator 29.3.1, SVG Export Plug-In . SVG Version: 2.1.0 Build 151)  -->
  <path d="M11.641,28.164c.064,0,.129-.008.193-.023.04-.01,3.948-.958,7.866-.368,1.607.881,3.419,1.36,5.3,1.36s3.692-.479,5.299-1.36c3.919-.59,7.827.358,7.867.368.06.015.118.021.178.021.243,0,.476-.12.632-.317.195-.245.221-.6.079-.879-1.43-2.816-2.245-4.425-3.223-7.57.027-.305.048-.611.048-.919,0-2.761-1.089-5.271-2.856-7.165.132-1.237.247-2.343.414-3.948.025-.25-.067-.499-.253-.67-5.584-5.166-10.786-5.165-16.37,0-.185.171-.278.419-.252.67.167,1.605.283,2.71.414,3.947-1.768,1.894-2.857,4.404-2.857,7.165,0,.311.02.618.047.924-.976,3.137-1.792,4.749-3.24,7.601-.142.279-.107.615.088.86.154.193.386.302.626.302ZM25,27.533c-2.412,0-4.7-.902-6.443-2.541-1.829-1.714-2.837-4.028-2.837-6.515,0-.119.014-.235.018-.353.343.072.731.109,1.149.109,1.026,0,2.227-.214,3.35-.634,1.85-.693,3.26-1.84,4.102-3.303.578.745,1.302,1.442,2.158,2.034,1.7,1.175,3.615,1.784,5.546,1.784.677,0,1.356-.075,2.028-.227.065-.015.118-.05.175-.078.017.222.035.443.035.669,0,2.496-1.015,4.816-2.856,6.534-1.74,1.626-4.021,2.522-6.424,2.522ZM36.912,26.274c-1.061-.163-2.549-.321-4.199-.297,1.067-1.05,1.888-2.307,2.426-3.677.539,1.419,1.091,2.609,1.773,3.974ZM32.27,14.458c.27-.112.456-.362.487-.652.009-.084.017-.157.026-.239.555.833.969,1.761,1.22,2.753-.093-.013-.188-.015-.283.008-2.893.654-5.197-.542-6.312-1.312-1.365-.944-2.369-2.211-2.741-3.419,2.181-.105,4.348.805,6.799,2.751.144.114.319.173.497.173.104,0,.209-.02.309-.062ZM31.804,7.603c-.188,1.824-.314,3.009-.489,4.641-4.367-3.018-8.261-3.018-12.629,0-.175-1.632-.3-2.817-.49-4.641,4.751-4.247,8.857-4.248,13.608,0ZM17.218,13.565c.009.082.017.156.026.241.031.29.218.54.487.652.267.112.577.069.806-.112,1.608-1.276,3.092-2.101,4.539-2.495.068.257.151.515.259.771-.667,1.973-2.337,2.983-3.659,3.479-1.618.606-3.102.607-3.735.433.242-1.074.681-2.075,1.277-2.969ZM14.854,22.318c.534,1.358,1.352,2.599,2.431,3.658-1.65-.024-3.137.135-4.198.297.678-1.357,1.229-2.54,1.767-3.955Z"/>
  <path d="M40.649,41.797c-.55-2.771-3.388-9.55-8.645-12.822-.246-.155-.559-.161-.811-.021-1.896,1.051-4.043,1.616-6.187,1.635-2.137-.044-4.258-.602-6.139-1.613-.254-.173-.596-.191-.874-.018-5.258,3.273-8.095,10.053-8.646,12.822-.064.325.078.655.357.833,4.531,2.863,9.752,4.427,15.109,4.527.057.013.116.02.176.02h.01c5.421-.068,10.708-1.635,15.291-4.53.279-.178.422-.508.356-.833ZM24.999,32.189c.72-.006,1.434-.085,2.143-.197-.345,1.091-1.02,2.01-1.916,2.632-1.08-.567-1.92-1.517-2.362-2.647.705.115,1.416.198,2.134.212ZM34.362,43.79c-.14-.941-.34-1.879-.625-2.793-.131-.422-.576-.658-1.001-.526-.422.131-.658.579-.526,1.001.288.928.493,1.883.619,2.839-2.476.767-5.055,1.197-7.672,1.247-.045-.009-.091-.014-.138-.014-2.676-.034-5.314-.467-7.845-1.25.122-.921.317-1.84.589-2.732.129-.423-.109-.87-.532-.999-.42-.127-.87.108-.999.532-.267.876-.457,1.776-.592,2.678-1.59-.596-3.132-1.33-4.598-2.215.706-2.721,3.148-8.115,7.414-10.992.837.422,1.721.746,2.623,1.006.334,1.519,1.192,2.878,2.401,3.826-.646.151-1.332.178-2.025.056-.431-.08-.85.211-.928.646-.078.435.212.851.647.928.394.07.786.104,1.173.104,1.195,0,2.339-.326,3.333-.903.029-.017.055-.036.082-.057,1.591-.956,2.783-2.559,3.134-4.526.003-.015-.003-.03,0-.045.911-.261,1.803-.589,2.648-1.021,4.266,2.876,6.709,8.272,7.415,10.993-1.465.885-3.005,1.62-4.595,2.216Z"/>
  <path d="M32.642,35.533h-.52v-.52c0-.441-.358-.8-.8-.8s-.8.358-.8.8v.52h-.519c-.441,0-.8.358-.8.8s.358.8.8.8h.519v.52c0,.441.358.8.8.8s.8-.358.8-.8v-.52h.52c.441,0,.8-.358.8-.8s-.358-.8-.8-.8Z"/>
  <path d="M23.865,8.085h.335v.335c0,.442.358.8.8.8s.8-.358.8-.8v-.335h.335c.441,0,.8-.358.8-.8s-.358-.8-.8-.8h-.335v-.335c0-.442-.358-.8-.8-.8s-.8.358-.8.8v.335h-.335c-.442,0-.8.358-.8.8s.358.8.8.8Z"/>
</svg>