<?xml version="1.0" encoding="UTF-8"?>
<svg id="Layer_1" xmlns="http://www.w3.org/2000/svg" version="1.1" xmlns:xlink="http://www.w3.org/1999/xlink" viewBox="0 0 50.5 50.5">
  <!-- Generator: Adobe Illustrator 29.3.1, SVG Export Plug-In . SVG Version: 2.1.0 Build 151)  -->
  <path d="M24.844,29.07c5.999,0,10.878-4.88,10.878-10.879,0-2.724-1.013-5.21-2.673-7.12.121-1.141.233-2.206.388-3.705.025-.25-.067-.499-.253-.67-5.584-5.166-10.786-5.165-16.37,0-.185.171-.278.419-.252.67.142,1.364.247,2.367.356,3.397-1.826,1.947-2.953,4.555-2.953,7.428,0,5.999,4.88,10.879,10.879,10.879ZM18.196,7.603c4.751-4.247,8.857-4.248,13.608,0-.188,1.824-.314,3.009-.489,4.641-4.367-3.018-8.261-3.018-12.629,0-.175-1.632-.3-2.817-.49-4.641ZM17.244,13.806c.031.29.218.54.487.652.267.112.577.069.806-.112,4.651-3.693,8.275-3.692,12.927,0,.144.114.319.173.497.173.104,0,.209-.02.309-.062.27-.112.456-.362.487-.652.014-.131.026-.246.04-.371.836,1.393,1.326,3.017,1.326,4.756,0,5.117-4.162,9.279-9.279,9.279s-9.279-4.163-9.279-9.279c0-1.922.588-3.709,1.592-5.192.028.257.056.522.087.807Z"/>
  <path d="M40.649,41.797c-.55-2.771-3.388-9.55-8.645-12.822-.246-.155-.559-.161-.811-.021-1.896,1.051-4.043,1.616-6.187,1.635-2.137-.044-4.258-.602-6.139-1.613-.254-.173-.596-.191-.874-.018-5.258,3.273-8.095,10.053-8.646,12.822-.064.325.078.655.357.833,4.531,2.863,9.752,4.427,15.109,4.527.057.013.116.02.176.02h.01c5.421-.068,10.708-1.635,15.291-4.53.279-.178.422-.508.356-.833ZM27.142,31.992c-.345,1.091-1.02,2.01-1.916,2.632-1.08-.567-1.92-1.517-2.362-2.647.705.115,1.416.198,2.134.212.72-.006,1.434-.085,2.143-.197ZM34.362,43.79c-.14-.941-.34-1.879-.625-2.793-.131-.422-.576-.658-1.001-.526-.422.131-.658.579-.526,1.001.288.928.493,1.883.619,2.839-2.476.767-5.055,1.197-7.672,1.247-.045-.009-.091-.014-.138-.014-2.676-.034-5.314-.467-7.845-1.25.122-.921.317-1.84.589-2.732.129-.423-.109-.87-.532-.999-.42-.127-.87.108-.999.532-.267.876-.457,1.776-.592,2.678-1.59-.596-3.132-1.33-4.598-2.215.706-2.721,3.148-8.115,7.414-10.992.837.422,1.721.746,2.623,1.006.334,1.519,1.192,2.878,2.401,3.826-.646.151-1.332.178-2.025.056-.431-.08-.85.211-.928.646-.078.435.212.851.647.928.394.07.786.104,1.173.104,1.195,0,2.339-.326,3.333-.903.029-.017.055-.036.082-.057,1.591-.956,2.783-2.559,3.134-4.526.003-.015-.003-.03,0-.045.911-.261,1.803-.589,2.648-1.021,4.266,2.876,6.709,8.272,7.415,10.993-1.465.885-3.005,1.62-4.595,2.216Z"/>
  <path d="M32.642,35.533h-.52v-.52c0-.441-.358-.8-.8-.8s-.8.358-.8.8v.52h-.519c-.441,0-.8.358-.8.8s.358.8.8.8h.519v.52c0,.441.358.8.8.8s.8-.358.8-.8v-.52h.52c.441,0,.8-.358.8-.8s-.358-.8-.8-.8Z"/>
  <path d="M23.865,8.085h.335v.335c0,.442.358.8.8.8s.8-.358.8-.8v-.335h.335c.441,0,.8-.358.8-.8s-.358-.8-.8-.8h-.335v-.335c0-.442-.358-.8-.8-.8s-.8.358-.8.8v.335h-.335c-.442,0-.8.358-.8.8s.358.8.8.8Z"/>
</svg>