<?xml version="1.0" encoding="UTF-8"?><svg id="b1abeda8-54eb-430e-b305-9264c162078f" xmlns="http://www.w3.org/2000/svg" viewBox="0 0 50.5 50.5"><polygon points="4.52 21.72 2.28 21.72 2.28 19.98 4.21 19.98 4.21 19.68 2.28 19.68 2.28 18.06 4.49 18.06 4.49 17.76 1.94 17.76 1.94 22.02 4.52 22.02 4.52 21.72" fill="#353435"/><path d="m5.7,20.57l.4.08c.19.04.33.1.41.19.08.08.12.21.12.37,0,.18-.07.33-.2.43s-.34.15-.63.15c-.14,0-.27,0-.4-.03-.13-.02-.28-.05-.43-.1v.29c.13.04.26.07.4.09.14.02.28.03.43.03.38,0,.67-.08.87-.24.2-.16.3-.38.3-.65,0-.22-.06-.4-.18-.54-.12-.14-.33-.23-.62-.3l-.4-.08c-.19-.04-.33-.11-.4-.2-.08-.09-.11-.21-.11-.35,0-.11.03-.21.08-.29.06-.09.15-.16.27-.21.12-.05.29-.08.49-.08.12,0,.24,0,.35.02.11.01.23.04.36.07v-.29c-.11-.03-.23-.05-.34-.07-.12-.01-.24-.02-.37-.02-.4,0-.7.08-.89.25-.19.17-.29.37-.29.63,0,.22.06.39.18.53.12.14.32.24.6.3Z" fill="#353435"/><path d="m9.2,22.02v-.3c-.07.02-.14.03-.21.04-.06,0-.12.01-.18.01-.22,0-.39-.06-.51-.17-.12-.11-.17-.3-.17-.58v-1.83h1.02v-.29h-1.02v-1.14h-.29l-.05,1.14h-.61v.29h.61v1.89c0,.35.09.6.25.76.17.16.41.23.71.23.08,0,.15,0,.23-.01.07,0,.15-.02.23-.04Z" fill="#353435"/><path d="m10.04,19.68c.07-.11.16-.2.26-.27s.21-.12.33-.16.22-.05.33-.05c.05,0,.09,0,.13,0s.08,0,.13.01v-.32s-.08-.01-.12-.02c-.04,0-.08,0-.13,0-.18,0-.35.04-.52.11-.17.08-.31.19-.42.33h-.03l-.03-.42h-.29v3.12h.34v-2.34Z" fill="#353435"/><path d="m12.53,20.33c-.38.04-.65.14-.83.28s-.26.36-.26.62.08.47.25.61c.17.15.39.22.68.22.19,0,.36-.04.52-.11s.29-.17.4-.3h.03l.03.36h.29v-2.09c0-.27-.04-.48-.13-.64-.09-.16-.21-.27-.38-.33-.17-.07-.38-.1-.62-.1-.14,0-.29.01-.45.04-.16.02-.3.06-.43.1v.3c.15-.05.3-.09.44-.11.15-.02.28-.03.4-.03.18,0,.33.02.46.07.12.04.22.12.28.23s.1.27.1.47v.33l-.77.08Zm.36,1.36c-.15.07-.3.1-.45.1-.21,0-.37-.05-.48-.15-.11-.1-.16-.24-.16-.43,0-.18.06-.32.18-.42.12-.1.31-.17.58-.2l.75-.08v.86c-.12.15-.25.26-.4.33Z" fill="#353435"/><path d="m16.1,22.02v-.3c-.07.02-.14.03-.21.04-.06,0-.12.01-.18.01-.22,0-.39-.06-.51-.17-.12-.11-.17-.3-.17-.58v-1.83h1.02v-.29h-1.02v-1.14h-.29l-.05,1.14h-.61v.29h.61v1.89c0,.35.09.6.25.76.17.16.41.23.71.23.08,0,.15,0,.23-.01.07,0,.15-.02.23-.04Z" fill="#353435"/><path d="m17.03,21.91c.21.11.47.16.78.16.13,0,.26-.01.39-.03.13-.02.27-.05.42-.1v-.3c-.15.04-.28.08-.41.1-.13.02-.25.03-.37.03-.24,0-.44-.04-.61-.12s-.29-.22-.37-.4c-.08-.17-.11-.4-.12-.67h2.02v-.12c0-.37-.05-.68-.14-.92-.09-.24-.23-.41-.4-.53-.17-.11-.38-.17-.63-.17s-.46.06-.64.17c-.18.11-.32.29-.42.52-.1.24-.15.54-.15.91s.05.69.16.93c.11.24.27.41.48.52Zm-.18-2.27c.07-.19.17-.32.3-.4.13-.08.28-.12.46-.12s.32.04.45.12c.12.08.22.22.29.4.06.17.09.4.1.68h-1.69c0-.28.04-.51.1-.68Z" fill="#353435"/><path d="m19.89,21.92c.18.1.38.15.59.15.19,0,.37-.04.51-.11.15-.07.27-.16.36-.27h.02v.33c0,.38-.08.65-.25.8-.17.15-.42.23-.77.23-.13,0-.27-.01-.42-.04-.15-.02-.3-.06-.46-.11v.3c.13.05.28.08.44.11.16.02.31.04.45.04.45,0,.78-.11,1.01-.32.23-.21.34-.56.34-1.05v-2.99c-.09-.03-.18-.05-.28-.07-.1-.02-.2-.03-.31-.04-.1-.01-.21-.02-.31-.02-.5,0-.88.14-1.14.41-.26.27-.39.69-.39,1.26,0,.38.05.68.16.91.11.23.25.39.43.49Zm.05-2.46c.2-.21.48-.32.86-.32.11,0,.21,0,.32.02.1.01.19.03.26.05v2.14c-.1.14-.22.24-.37.31-.15.07-.3.1-.45.1-.17,0-.33-.04-.47-.11s-.25-.2-.33-.39c-.08-.18-.12-.44-.12-.77,0-.48.1-.82.3-1.03Z" fill="#353435"/><rect x="22.65" y="18.9" width=".34" height="3.12" fill="#353435"/><path d="m23.01,18.1s.07-.1.07-.17c0-.08-.02-.14-.07-.18s-.11-.06-.19-.06-.14.02-.19.06-.07.1-.07.18.02.13.07.17c.05.04.11.06.19.06s.14-.02.19-.06Z" fill="#353435"/><path d="m24.83,20.33c-.38.04-.65.14-.83.28s-.26.36-.26.62.08.47.25.61c.17.15.39.22.68.22.19,0,.36-.04.52-.11s.29-.17.4-.3h.03l.03.36h.29v-2.09c0-.27-.04-.48-.13-.64-.09-.16-.21-.27-.38-.33-.17-.07-.38-.1-.62-.1-.14,0-.29.01-.45.04-.16.02-.3.06-.43.1v.3c.15-.05.3-.09.44-.11.15-.02.28-.03.4-.03.18,0,.33.02.46.07.12.04.22.12.28.23s.1.27.1.47v.33l-.77.08Zm.36,1.36c-.15.07-.3.1-.45.1-.21,0-.37-.05-.48-.15-.11-.1-.16-.24-.16-.43,0-.18.06-.32.18-.42.12-.1.31-.17.58-.2l.75-.08v.86c-.12.15-.25.26-.4.33Z" fill="#353435"/><polygon points="2.27 25.2 4.73 28.94 5.09 28.94 5.09 24.67 4.77 24.67 4.77 28.41 2.3 24.67 1.94 24.67 1.94 28.94 2.27 28.94 2.27 25.2" fill="#353435"/><path d="m7.34,28.88c.16-.07.29-.17.4-.3h.03l.03.36h.29v-2.09c0-.27-.04-.48-.13-.64-.09-.16-.21-.27-.38-.33-.17-.07-.38-.1-.62-.1-.14,0-.29.01-.45.04-.16.02-.3.06-.43.1v.3c.15-.05.3-.09.44-.11.15-.02.28-.03.4-.03.18,0,.33.02.46.07.12.04.22.12.28.23s.1.27.1.47v.33l-.77.08c-.38.04-.65.14-.83.28s-.26.36-.26.62.08.47.25.61c.17.15.39.22.68.22.19,0,.36-.04.52-.11Zm-1.1-.76c0-.18.06-.32.18-.42.12-.1.31-.17.58-.2l.75-.08v.86c-.12.15-.25.26-.4.33s-.3.1-.45.1c-.21,0-.37-.05-.48-.15-.11-.1-.16-.24-.16-.43Z" fill="#353435"/><path d="m9.4,28.82c.2.11.44.17.72.17.12,0,.25-.01.37-.03.12-.02.25-.06.37-.1v-.3c-.14.05-.26.08-.38.1-.11.02-.22.03-.32.03-.22,0-.41-.04-.56-.13-.15-.08-.26-.22-.34-.42-.08-.19-.11-.45-.11-.78s.04-.57.12-.76c.08-.19.21-.33.37-.41.17-.08.37-.13.62-.13.09,0,.19,0,.29.02.1.01.2.03.3.06v-.3c-.1-.03-.2-.05-.31-.06-.11-.01-.21-.02-.32-.02-.31,0-.57.05-.79.16s-.38.28-.49.52c-.11.24-.17.54-.17.92s.05.69.15.92c.1.24.25.41.45.52Z" fill="#353435"/><rect x="11.43" y="25.82" width=".34" height="3.12" fill="#353435"/><path d="m11.6,24.6c-.08,0-.14.02-.19.06s-.07.1-.07.18.02.13.07.17c.05.04.11.06.19.06s.14-.02.19-.06c.05-.04.07-.1.07-.17,0-.08-.02-.14-.07-.18s-.11-.06-.19-.06Z" fill="#353435"/><path d="m14.48,25.93c-.19-.11-.42-.16-.67-.16s-.48.06-.68.17c-.19.11-.34.28-.45.52-.11.24-.16.54-.16.92s.05.69.16.93c.11.24.26.41.45.52.19.11.42.17.67.17s.48-.06.67-.17.34-.29.45-.52c.11-.24.16-.54.16-.92s-.05-.69-.16-.92c-.11-.24-.25-.41-.45-.52Zm.14,2.23c-.08.19-.18.33-.32.41-.14.08-.3.12-.49.12s-.35-.04-.49-.12-.25-.22-.32-.41c-.08-.19-.11-.46-.11-.79s.04-.59.11-.78c.08-.19.18-.33.32-.41.14-.08.3-.12.49-.12s.35.04.49.12c.14.08.25.22.32.41s.11.46.11.79-.04.59-.11.78Z" fill="#353435"/><path d="m18.15,28.94v-2.09c0-.26-.04-.47-.13-.63-.08-.16-.2-.27-.35-.34-.15-.07-.32-.1-.51-.1s-.37.04-.54.11c-.17.07-.32.17-.45.3h-.03l-.03-.36h-.29v3.12h.34v-2.4c.08-.11.18-.2.29-.27.11-.07.22-.12.33-.14s.22-.04.32-.04c.22,0,.39.06.52.17s.19.31.19.6v2.08h.34Z" fill="#353435"/><path d="m20.31,28.88c.16-.07.29-.17.4-.3h.03l.03.36h.29v-2.09c0-.27-.04-.48-.13-.64-.09-.16-.21-.27-.38-.33-.17-.07-.38-.1-.62-.1-.14,0-.29.01-.45.04-.16.02-.3.06-.43.1v.3c.15-.05.3-.09.44-.11.15-.02.28-.03.4-.03.18,0,.33.02.46.07.12.04.22.12.28.23s.1.27.1.47v.33l-.77.08c-.38.04-.65.14-.83.28s-.26.36-.26.62.08.47.25.61c.17.15.39.22.68.22.19,0,.36-.04.52-.11Zm-1.1-.76c0-.18.06-.32.18-.42.12-.1.31-.17.58-.2l.75-.08v.86c-.12.15-.25.26-.4.33s-.3.1-.45.1c-.21,0-.37-.05-.48-.15-.11-.1-.16-.24-.16-.43Z" fill="#353435"/><rect x="21.94" y="24.28" width=".34" height="4.66" fill="#353435"/><path d="m26.51,28.6h.03l.02.34h.29v-4.66h-.34v1.54c-.08-.01-.17-.02-.26-.03-.09,0-.19-.01-.28-.01-.34,0-.62.06-.85.18-.23.12-.4.31-.52.55s-.18.56-.18.94.05.68.16.9c.11.23.25.39.44.49s.39.15.62.15c.19,0,.36-.04.5-.11.15-.07.27-.17.36-.28Zm-1.29-.02c-.14-.08-.25-.21-.33-.39-.08-.19-.12-.44-.12-.77,0-.48.1-.82.3-1.03.2-.21.49-.32.88-.32.1,0,.19,0,.29.02.1.01.19.03.26.04v2.13c-.1.15-.22.26-.37.33-.15.07-.29.1-.45.1-.18,0-.34-.04-.48-.11Z" fill="#353435"/><path d="m29.98,27.38c0-.37-.05-.68-.14-.92-.09-.24-.23-.41-.4-.53-.17-.11-.38-.17-.63-.17s-.46.06-.64.17c-.18.11-.32.29-.42.52-.1.24-.15.54-.15.91s.05.69.16.93c.11.24.27.41.48.52s.47.16.78.16c.13,0,.26-.01.39-.03.13-.02.27-.05.42-.1v-.3c-.15.04-.28.08-.41.1-.13.02-.25.03-.37.03-.24,0-.44-.04-.61-.12s-.29-.22-.37-.4c-.08-.17-.11-.4-.12-.67h2.02v-.12Zm-1.92-.82c.07-.19.17-.32.3-.4.13-.08.28-.12.46-.12s.32.04.45.12c.12.08.22.22.29.4.06.17.09.4.1.68h-1.69c0-.28.04-.51.1-.68Z" fill="#353435"/><rect x="1.85" y="31.59" width=".77" height="4.26" fill="#353435"/><path d="m5.62,32.78c-.16-.08-.34-.12-.54-.12-.19,0-.36.03-.52.1-.16.07-.3.16-.42.28h-.04l-.05-.33h-.63v3.14h.76v-2.22c.06-.07.12-.14.2-.18.08-.05.16-.08.24-.1.08-.02.16-.03.24-.03.16,0,.29.04.38.13s.14.24.14.45v1.96h.76v-2c0-.29-.05-.52-.14-.7-.09-.17-.21-.3-.37-.38Z" fill="#353435"/><path d="m8.37,35.28c-.19,0-.34-.04-.43-.14-.09-.09-.14-.25-.14-.48v-1.35h.88v-.6h-.88v-1.12h-.62l-.14,1.12h-.54v.6h.54v1.47c0,.39.1.68.29.86s.47.27.83.27c.09,0,.19,0,.28-.02.1-.01.18-.03.26-.04v-.61c-.07.01-.13.02-.18.03-.06,0-.11.01-.16.01Z" fill="#353435"/><path d="m11.11,32.84c-.19-.12-.43-.18-.72-.18s-.54.06-.75.18c-.21.12-.37.3-.48.54-.11.24-.17.54-.17.89,0,.38.06.69.18.93.12.24.3.42.54.53s.55.17.92.17c.14,0,.29,0,.43-.03.15-.02.3-.05.46-.09v-.58c-.14.03-.28.06-.41.08s-.26.03-.38.03c-.24,0-.43-.03-.58-.09-.14-.06-.25-.16-.31-.29-.05-.11-.08-.27-.09-.44h1.94v-.2c0-.36-.05-.67-.15-.91s-.25-.43-.44-.55Zm-1.06.4c.09-.06.21-.09.34-.09s.24.03.33.09c.09.06.16.16.2.3.04.13.06.3.07.5h-1.23c0-.21.03-.38.07-.51.05-.14.12-.24.21-.3Z" fill="#353435"/><path d="m14.21,32.68c-.13-.01-.26-.02-.39-.02-.57,0-1,.14-1.29.43s-.43.71-.43,1.26c0,.36.06.65.17.88s.26.39.45.5c.18.11.38.16.6.16.18,0,.34-.03.48-.1.14-.07.26-.15.35-.26h.04v.24c0,.3-.07.51-.22.64s-.38.19-.7.19c-.14,0-.29-.01-.45-.03-.16-.02-.33-.06-.5-.11v.6c.16.05.33.08.51.1.18.02.34.03.5.03.55,0,.95-.12,1.22-.36s.4-.64.4-1.19v-2.8c-.11-.03-.22-.06-.35-.09-.13-.03-.26-.04-.39-.06Zm-.02,2.33c-.07.09-.17.15-.27.19-.11.04-.21.06-.32.06-.14,0-.27-.03-.38-.09-.11-.06-.19-.16-.25-.3-.06-.14-.09-.34-.09-.59,0-.37.08-.64.23-.8.15-.16.37-.24.66-.24.08,0,.16,0,.24.01.07,0,.14.02.2.04v1.71Z" fill="#353435"/><path d="m17.29,32.67c-.18,0-.34.04-.49.11s-.28.19-.37.34h-.04l-.06-.41h-.62v3.14h.76v-2.14c.06-.08.13-.14.22-.2.09-.05.18-.09.28-.12.1-.03.19-.04.29-.04.05,0,.1,0,.15,0,.05,0,.1,0,.15.02v-.69s-.07-.01-.12-.01c-.04,0-.09,0-.13,0Z" fill="#353435"/><rect x="17.98" y="32.71" width=".76" height="3.14" fill="#353435"/><path d="m18.36,31.35c-.16,0-.28.04-.36.11-.08.07-.12.17-.12.3s.04.23.12.3c.08.07.2.11.36.11s.28-.04.36-.11c.08-.07.12-.17.12-.3s-.04-.23-.12-.3c-.08-.07-.2-.11-.36-.11Z" fill="#353435"/><path d="m21.43,32.69c-.06,0-.13-.02-.2-.02s-.14,0-.22,0c-.36,0-.67.06-.92.19-.25.13-.43.32-.56.57-.13.25-.19.56-.19.93s.06.67.17.9c.12.23.27.4.46.5.19.1.4.16.64.16.19,0,.35-.04.5-.11.14-.07.26-.17.35-.28h.04l.05.33h.64v-4.66h-.76v1.49Zm0,2.32c-.07.09-.17.16-.27.21-.11.04-.22.07-.33.07-.14,0-.27-.03-.38-.09-.11-.06-.19-.16-.25-.31-.06-.14-.09-.34-.09-.6,0-.37.08-.64.23-.8s.38-.24.67-.24c.07,0,.15,0,.22.01s.14.02.2.03v1.72Z" fill="#353435"/><path d="m24.75,32.77c-.2-.08-.46-.12-.76-.12-.15,0-.32.01-.49.03-.18.02-.34.06-.49.1v.58c.14-.04.29-.08.44-.1.15-.02.29-.03.41-.03.18,0,.32.02.43.06s.19.1.24.19c.05.09.08.22.08.38v.12l-.58.06c-.44.03-.76.13-.95.29-.2.16-.3.39-.3.68,0,.27.09.48.26.65s.42.24.73.24c.17,0,.34-.03.49-.09.15-.06.27-.16.37-.29h.04l.05.33h.63v-1.94c0-.31-.05-.56-.15-.75-.1-.18-.25-.31-.45-.39Zm-.43,2.53c-.11.04-.21.06-.31.06-.16,0-.28-.04-.36-.11-.08-.07-.12-.18-.12-.31s.04-.24.13-.32.23-.12.43-.14l.51-.05v.67c-.09.09-.18.16-.29.2Z" fill="#353435"/><path d="m27.99,32.69c-.06,0-.13-.02-.2-.02s-.14,0-.22,0c-.36,0-.67.06-.92.19-.25.13-.43.32-.56.57-.13.25-.19.56-.19.93s.06.67.17.9c.12.23.27.4.46.5.19.1.4.16.64.16.19,0,.35-.04.5-.11.14-.07.26-.17.35-.28h.04l.05.33h.64v-4.66h-.76v1.49Zm0,2.32c-.07.09-.17.16-.27.21-.11.04-.22.07-.33.07-.14,0-.27-.03-.38-.09-.11-.06-.19-.16-.25-.31-.06-.14-.09-.34-.09-.6,0-.37.08-.64.23-.8s.38-.24.67-.24c.07,0,.15,0,.22.01s.14.02.2.03v1.72Z" fill="#353435"/><path d="m48.44,20.66c-.22-.42-.59-.72-1.04-.86-.45-.14-.93-.09-1.34.13-.16.08-.29.19-.41.31l-5.24-3.37c.22-.44.35-.93.35-1.46,0-1.77-1.44-3.21-3.21-3.21s-3.21,1.44-3.21,3.21c0,1.64,1.24,3,2.84,3.19v15.29c-.1.02-.19.04-.28.07-.14.04-.27.1-.4.17-.69.37-1.16,1.1-1.16,1.94s.47,1.57,1.16,1.94c.13.07.26.12.4.17.14.04.28.07.43.09.07,0,.15.01.23.01.38,0,.74-.1,1.05-.27.69-.37,1.16-1.1,1.16-1.94,0-.45-.13-.86-.36-1.21l6.96-11.69s.01,0,.02,0c.17.05.34.08.51.08.29,0,.57-.07.83-.21.42-.22.72-.59.86-1.04.14-.45.09-.93-.13-1.34Zm-9.58,13.64c-.08-.06-.17-.12-.26-.17-.21-.11-.44-.19-.68-.23v-15.29c.83-.1,1.56-.51,2.07-1.11l5.25,3.38s-.03.07-.04.1c-.14.45-.09.93.13,1.34.1.18.23.34.38.47l-6.85,11.51Zm-3.7-18.88c0-1.32,1.07-2.39,2.39-2.39s2.39,1.07,2.39,2.39-1.07,2.39-2.39,2.39-2.39-1.07-2.39-2.39Zm1.85,21.93c-.5-.21-.84-.7-.84-1.27s.35-1.06.84-1.27c.17-.07.35-.11.54-.11.76,0,1.38.62,1.38,1.38s-.62,1.38-1.38,1.38c-.19,0-.37-.04-.54-.11Zm11.09-15.49c-.1.32-.32.59-.62.75-.3.16-.64.19-.97.1-.32-.1-.59-.32-.75-.62s-.19-.64-.1-.97c.1-.32.32-.59.62-.75.19-.1.39-.15.6-.15.12,0,.25.02.37.06.32.1.59.32.75.62.16.3.19.64.1.97Z" fill="#353435"/><path d="m46.88,35.05c-.55,0-1.01-.45-1.01-1.01s.45-1.01,1.01-1.01,1.01.45,1.01,1.01-.45,1.01-1.01,1.01Zm0-1.76c-.42,0-.76.34-.76.76s.34.76.76.76.76-.34.76-.76-.34-.76-.76-.76Z" fill="#353435"/></svg>