<?xml version="1.0" encoding="utf-8"?>
<!-- Generator: Adobe Illustrator 28.0.0, SVG Export Plug-In . SVG Version: 6.00 Build 0)  -->
<svg version="1.1" id="Layer_1" xmlns="http://www.w3.org/2000/svg" xmlns:xlink="http://www.w3.org/1999/xlink" x="0px" y="0px"
	 viewBox="0 0 50.5 50.5" style="enable-background:new 0 0 50.5 50.5;" xml:space="preserve">
<g>
	<path d="M24.973,24.077c5.253,0,9.528-4.274,9.528-9.527s-4.274-9.527-9.528-9.527s-9.527,4.274-9.527,9.527
		S19.72,24.077,24.973,24.077z M24.973,6.622c4.372,0,7.928,3.557,7.928,7.928s-3.557,7.928-7.928,7.928
		c-4.371,0-7.928-3.557-7.928-7.928S20.602,6.622,24.973,6.622z"/>
	<path d="M41.355,30.548v-2.074c0-0.614-0.26-1.206-0.714-1.623c-0.461-0.424-1.079-0.635-1.719-0.584
		c-1.543,0.141-2.954,0.344-4.266,0.594c-0.971-1.17-2.109-2.246-3.426-3.066c-0.247-0.154-0.56-0.161-0.811-0.021
		c-1.625,0.901-3.467,1.386-5.303,1.402c-1.832-0.037-3.65-0.515-5.263-1.382c-0.252-0.168-0.592-0.186-0.868-0.015
		c-1.323,0.824-2.465,1.906-3.439,3.082c-1.317-0.251-2.734-0.454-4.284-0.596c-0.62-0.059-1.242,0.159-1.701,0.581
		c-0.455,0.418-0.716,1.011-0.716,1.626v2.091c-0.063-0.003-0.122-0.019-0.186-0.019c-1.212,0-2.197,0.985-2.197,2.197v3.925
		c0,1.212,0.985,2.197,2.197,2.197c0.064,0,0.123-0.016,0.186-0.019v1.326c0,1.197,0.935,2.173,2.132,2.221
		c2.678,0.093,9.277,0.668,12.708,3.979c0.392,0.379,0.895,0.569,1.399,0.575c0.009,0,0.016,0.005,0.025,0.005
		c0.01,0,0.019-0.006,0.029-0.006c0.5-0.008,0.998-0.196,1.389-0.572c3.437-3.313,10.017-3.889,12.689-3.981
		c1.199-0.048,2.139-1.022,2.139-2.221v-1.309c1.205-0.008,2.183-0.989,2.183-2.196v-3.925
		C43.537,31.537,42.56,30.557,41.355,30.548z M19.45,25.388c1.746,0.872,3.686,1.35,5.658,1.389
		c1.962-0.018,3.909-0.491,5.658-1.375c0.779,0.532,1.473,1.173,2.11,1.856c-3.546,0.892-6.131,2.254-7.769,4.134
		c-1.634-1.88-4.222-3.242-7.779-4.134C17.968,26.57,18.666,25.924,19.45,25.388z M8.66,37.267c-0.33,0-0.598-0.269-0.598-0.598
		v-3.925c0-0.329,0.268-0.598,0.598-0.598c1.411,0,2.56,1.148,2.56,2.56C11.219,36.118,10.071,37.267,8.66,37.267z M11.037,40.795
		c-0.332-0.013-0.592-0.286-0.592-0.621v-1.726c1.399-0.671,2.374-2.089,2.374-3.742s-0.975-3.07-2.374-3.741v-2.491
		c0-0.171,0.071-0.33,0.199-0.448c0.119-0.109,0.27-0.167,0.426-0.167c0.018,0,0.035,0,0.053,0.002
		c6.859,0.626,11.172,2.301,13.187,5.11v11.827C20.394,41.484,13.78,40.891,11.037,40.795z M39.755,40.174
		c0,0.341-0.259,0.608-0.599,0.621c-2.737,0.096-9.329,0.689-13.248,3.999V32.964c2.026-2.806,6.331-4.478,13.153-5.102
		c0.194-0.006,0.362,0.046,0.496,0.168c0.127,0.117,0.197,0.275,0.197,0.445v2.389c-1.509,0.625-2.574,2.11-2.574,3.842
		s1.065,3.218,2.574,3.843V40.174z M41.938,36.669c0,0.329-0.269,0.598-0.598,0.598c-1.411,0-2.56-1.148-2.56-2.561
		c0-1.411,1.148-2.56,2.56-2.56c0.329,0,0.598,0.269,0.598,0.598V36.669z"/>
</g>
</svg>
