<?xml version="1.0" encoding="utf-8"?>
<!-- Generator: Adobe Illustrator 24.0.1, SVG Export Plug-In . SVG Version: 6.00 Build 0)  -->
<svg version="1.1" id="Layer_1" xmlns="http://www.w3.org/2000/svg" xmlns:xlink="http://www.w3.org/1999/xlink" x="0px" y="0px"
	 viewBox="0 0 50.5 50.5" style="enable-background:new 0 0 50.5 50.5;" xml:space="preserve">
<g>
	<path d="M13.945,11.152c-0.013,0.125-0.038,0.247-0.038,0.375c0,1.938,1.571,3.51,3.51,3.51c1.622,0,2.973-1.105,3.376-2.6
		l1.516,0.277c0.049,0.009,0.097,0.013,0.145,0.013c0.379,0,0.716-0.271,0.786-0.657c0.079-0.435-0.209-0.851-0.644-0.931
		l-1.74-0.318c-0.326-1.6-1.742-2.805-3.439-2.805c-1.248,0-2.337,0.656-2.959,1.637l-0.063-0.011
		c-0.436-0.08-0.852,0.208-0.931,0.644C13.396,10.661,13.609,11.009,13.945,11.152z"/>
	<path d="M24.697,22.799l-4.194-1.905l-2.551-4.033c-0.147-0.232-0.346-0.422-0.57-0.548l-2.354-0.828
		c-0.866-0.299-1.761-0.094-2.476,0.444l0.073-0.806c0.145-1.609-1.043-3.031-2.652-3.176s-3.031,1.043-3.176,2.652l-0.249,2.771
		c-0.935,0.418-1.627,1.305-1.726,2.397l-0.193,2.138c-0.098,1.093,0.426,2.088,1.271,2.667l-0.016,0.171
		c-0.086,0.957,0.62,1.803,1.577,1.889l2.361,0.212c0.153,0.014,0.301,0.001,0.445-0.024l-1.744,6.568l-0.139,0.285l-4.528,5.68
		c-0.552,0.693-0.438,1.702,0.254,2.254c0.295,0.235,0.649,0.35,0.999,0.35c0.471,0,0.939-0.207,1.255-0.604l4.835-6.064
		c0.139-0.174,0.239-0.374,0.296-0.589l1.747-6.578l2.921,6.456l0.919,6.847c0.109,0.806,0.796,1.39,1.588,1.39
		c0.072,0,0.143-0.005,0.216-0.014c0.877-0.118,1.494-0.925,1.376-1.804l-0.951-7.08c-0.021-0.155-0.064-0.306-0.128-0.447
		l-2.675-5.91l0.021,0.004l0.801-5.687l0.719,1.137c0.167,0.264,0.407,0.473,0.693,0.603l3.507,1.594l-0.825,16.298
		c-0.027,0.529,0.381,0.981,0.91,1.007c0.016,0.001,0.033,0.001,0.049,0.001c0.508,0,0.932-0.398,0.958-0.911l0.797-15.755
		c0.57-0.038,1.104-0.37,1.357-0.927C25.86,24.115,25.504,23.165,24.697,22.799z"/>
	<path d="M44.686,13.164l-3.666,2.933L35.512,15.6c-0.023-0.002-0.046,0.002-0.069,0.001c-0.033-0.001-0.064-0.01-0.097-0.01h-3
		c-1.26,0-2.281,1.021-2.281,2.281v8.313L29.628,41.37c-0.022,0.784,0.595,1.438,1.379,1.461c0.014,0,0.028,0,0.042,0
		c0.766,0,1.396-0.608,1.419-1.379l0.371-12.871h1.998l0.563,12.84c0.033,0.763,0.662,1.358,1.418,1.358
		c0.021,0,0.042-0.001,0.063-0.002c0.783-0.034,1.391-0.697,1.356-1.481l-0.657-14.98V24.64l1.552,0.675v3.225
		c0,0.506,0.411,0.917,0.917,0.917h4.999c0.506,0,0.917-0.411,0.917-0.917v-7.663c0-0.506-0.411-0.917-0.917-0.917h-4.999
		c-0.506,0-0.917,0.41-0.917,0.917v1.34l-0.154-0.067l-1.397-3.32v-0.19l3.753,0.339c0.043,0.004,0.086,0.006,0.128,0.006
		c0.321,0,0.635-0.109,0.888-0.312l4.112-3.29c0.612-0.49,0.712-1.384,0.222-1.996C46.191,12.772,45.299,12.673,44.686,13.164z
		 M42.295,23.593l-1.328-0.578v-1.222h3.165v5.829h-3.165v-1.51l0.195,0.085c0.185,0.08,0.376,0.118,0.565,0.118
		c0.549,0,1.07-0.319,1.304-0.854C43.343,24.743,43.014,23.906,42.295,23.593z"/>
	<path d="M30.293,11.343c0.07,1.895,1.618,3.413,3.53,3.413c1.895,0,3.428-1.491,3.525-3.361h1.975c0.441,0,0.8-0.358,0.8-0.8
		s-0.358-0.8-0.8-0.8h-2.256c-0.547-1.25-1.792-2.126-3.245-2.126c-1.452,0-2.697,0.876-3.244,2.126h-0.03
		c-0.441,0-0.8,0.358-0.8,0.8C29.749,10.946,29.978,11.235,30.293,11.343z"/>
</g>
</svg>
