<?xml version="1.0" encoding="utf-8"?>
<!-- Generator: Adobe Illustrator 24.0.1, SVG Export Plug-In . SVG Version: 6.00 Build 0)  -->
<svg version="1.1" id="Layer_1" xmlns="http://www.w3.org/2000/svg" xmlns:xlink="http://www.w3.org/1999/xlink" x="0px" y="0px"
	 viewBox="0 0 50.5 50.5" style="enable-background:new 0 0 50.5 50.5;" xml:space="preserve">
<g>
	<path d="M15.765,25.635c1.185,0,2.179-0.774,2.534-1.839l1.147,0.244c0.057,0.012,0.112,0.018,0.168,0.018
		c0.369,0,0.701-0.258,0.781-0.634c0.092-0.432-0.184-0.857-0.615-0.949l-1.464-0.312c-0.339-1.094-1.346-1.894-2.551-1.894
		c-0.836,0-1.573,0.39-2.065,0.99c-0.294,0.067-0.539,0.294-0.606,0.609c-0.036,0.17-0.002,0.333,0.063,0.481
		c-0.045,0.194-0.074,0.394-0.074,0.602C13.083,24.434,14.284,25.635,15.765,25.635z"/>
	<path d="M21.329,31.566l-3.205-1.456l-1.95-3.082c-0.112-0.177-0.264-0.323-0.435-0.419l-1.799-0.633
		c-0.662-0.229-1.346-0.072-1.892,0.339l0.055-0.616c0.111-1.23-0.797-2.316-2.027-2.427c-1.23-0.111-2.316,0.797-2.427,2.027
		l-0.19,2.117c-0.714,0.32-1.244,0.997-1.319,1.832l-0.147,1.634c-0.075,0.835,0.325,1.596,0.971,2.038l-0.012,0.13
		c-0.066,0.731,0.474,1.378,1.205,1.443l1.805,0.162c0.117,0.011,0.23,0.001,0.34-0.018l-1.333,5.02l-0.107,0.218l-3.461,4.34
		c-0.422,0.529-0.335,1.301,0.194,1.723c0.226,0.18,0.496,0.267,0.763,0.267c0.36,0,0.717-0.158,0.959-0.461l3.695-4.634
		c0.106-0.133,0.183-0.286,0.226-0.45l1.335-5.027l2.232,4.933l0.703,5.233c0.083,0.615,0.609,1.062,1.214,1.062
		c0.055,0,0.109-0.004,0.165-0.01c0.67-0.09,1.141-0.707,1.052-1.378l-0.727-5.411c-0.016-0.119-0.049-0.234-0.098-0.342
		l-2.044-4.516l0.016,0.003l0.612-4.346l0.55,0.869c0.128,0.202,0.311,0.362,0.529,0.461l2.68,1.218l-0.63,12.455
		c-0.02,0.404,0.291,0.749,0.695,0.77c0.013,0.001,0.025,0.001,0.038,0.001c0.388,0,0.712-0.304,0.732-0.696l0.609-12.04
		c0.435-0.03,0.843-0.283,1.037-0.708C22.218,32.572,21.945,31.846,21.329,31.566z"/>
	<path d="M48.024,20.316c-0.654-0.426-1.537-0.241-1.965,0.417l-1.855,2.857l-2.145-3.072c-0.237-0.98-1.113-1.71-2.166-1.71h-3.242
		c-0.514,0-0.984,0.177-1.365,0.464v-0.15c0-0.506-0.411-0.917-0.917-0.917h-5.16c-0.506,0-0.917,0.41-0.917,0.917v4.066
		l-0.524,0.402c-0.001,0.001-0.001,0.002-0.002,0.003c-0.146,0.112-0.271,0.253-0.366,0.419c-0.001,0.002-0.002,0.003-0.003,0.005
		c-0.048,0.084-0.088,0.174-0.119,0.27c-0.024,0.074-0.036,0.149-0.047,0.224c-0.002,0.01-0.005,0.02-0.006,0.031
		c-0.022,0.173-0.009,0.343,0.031,0.507c0.003,0.013,0.004,0.026,0.007,0.039c0.047,0.175,0.127,0.338,0.236,0.483
		c0.003,0.004,0.003,0.009,0.006,0.012c0.002,0.002,0.004,0.004,0.006,0.006c0.063,0.082,0.137,0.156,0.217,0.223
		c0.022,0.019,0.047,0.032,0.071,0.05c0.058,0.042,0.117,0.082,0.182,0.116c0.037,0.019,0.075,0.034,0.114,0.049
		c0.036,0.015,0.069,0.034,0.106,0.046l0.093,0.03v0.931c0,0.506,0.411,0.917,0.917,0.917h5.16c0.001,0,0.001,0,0.002,0v2.093
		l-0.48,15.398c-0.024,0.784,0.592,1.439,1.376,1.464c0.015,0,0.029,0.001,0.045,0.001c0.764,0,1.395-0.607,1.419-1.377
		l0.415-13.311h2.26l0.814,13.275c0.047,0.754,0.672,1.334,1.417,1.334c0.029,0,0.059-0.001,0.088-0.003
		c0.783-0.048,1.379-0.722,1.331-1.505l-0.927-15.122V25.58l0.953,1.365c0.267,0.381,0.701,0.606,1.165,0.606
		c0.008,0,0.016,0,0.023,0c0.473-0.008,0.91-0.25,1.168-0.646l3.005-4.625C48.869,21.623,48.682,20.743,48.024,20.316z
		 M33.452,26.114h-3.326V25.36l0.022-0.017c0.623-0.477,0.741-1.369,0.265-1.991c-0.081-0.105-0.186-0.175-0.287-0.251v-3.064h3.326
		V26.114z"/>
	<path d="M43.954,11.821h2.316c0.441,0,0.8-0.358,0.8-0.8s-0.358-0.8-0.8-0.8h-2.316c-0.441,0-0.8,0.358-0.8,0.8
		S43.513,11.821,43.954,11.821z"/>
	<path d="M32.548,14.471h2.061c0.097,1.933,1.682,3.474,3.639,3.474c1.977,0,3.577-1.572,3.645-3.532
		c0.299-0.116,0.512-0.402,0.512-0.742c0-0.436-0.35-0.787-0.783-0.797c-0.553-1.318-1.855-2.245-3.374-2.245
		c-1.518,0-2.819,0.925-3.372,2.241h-2.328c-0.441,0-0.8,0.358-0.8,0.8S32.107,14.471,32.548,14.471z"/>
	<path d="M30.351,11.021c0-0.442-0.358-0.8-0.8-0.8h-0.329c-0.029-0.047-0.05-0.098-0.09-0.14l-4.438-4.574
		c-0.465-0.558-1.483-0.583-1.985-0.061l-0.872,0.759l-2.049-2.181C19.306,3.446,18.21,3.471,17.771,4l-1.265,1.397
		c-0.297,0.328-0.271,0.833,0.056,1.13c0.327,0.295,0.834,0.271,1.13-0.056l1.08-1.194l2.427,2.585
		c0.293,0.313,0.782,0.338,1.108,0.056l1.355-1.181l3.377,3.483h-7.895c-0.036-0.067-0.072-0.136-0.129-0.192l-5.354-5.307
		c-0.255-0.306-0.65-0.482-1.083-0.483c-0.001,0-0.002,0-0.002,0c-0.434,0-0.828,0.175-1.054,0.447L9.024,7.349l-1.11-0.966
		C7.382,5.822,6.254,5.891,5.837,6.397L2.053,10.3c-0.234,0.242-0.283,0.592-0.154,0.881c0.076,0.362,0.383,0.64,0.767,0.64h26.885
		C29.993,11.821,30.351,11.463,30.351,11.021z M6.887,7.61l1.667,1.452c0.324,0.282,0.813,0.257,1.108-0.056l2.916-3.109l4.36,4.325
		H4.357L6.887,7.61z"/>
</g>
</svg>
