<?xml version="1.0" encoding="utf-8"?>
<!-- Generator: Adobe Illustrator 18.0.0, SVG Export Plug-In . SVG Version: 6.00 Build 0)  -->
<!DOCTYPE svg PUBLIC "-//W3C//DTD SVG 1.1//EN" "http://www.w3.org/Graphics/SVG/1.1/DTD/svg11.dtd">
<svg version="1.1" id="Layer_1" xmlns="http://www.w3.org/2000/svg" xmlns:xlink="http://www.w3.org/1999/xlink" x="0px" y="0px"
	 viewBox="0 0 50.5 50.5" style="enable-background:new 0 0 50.5 50.5;" xml:space="preserve">
<style type="text/css">
	.st0{fill:#65B4E1;}
</style>
<g>
	<g>
		<path class="st0" d="M33.2,43.7c0-0.1-0.1-0.3-0.2-0.4c0,0,0,0,0,0h0c-0.5-1-1.6-1.7-2.9-1.7h-2.6v-2.8c0-0.2-0.2-0.4-0.5-0.4
			c-4.6,0.5-9.3-1.1-12.8-4.6l1.3-1.3c0.2,0.1,0.3,0.3,0.5,0.4l0,0c5.6,4.6,14,4.2,19.2-1c5.4-5.4,5.6-14.1,0.5-19.7l2.7-2.7
			c0.3-0.3,0.3-0.9,0-1.2c-0.3-0.3-0.9-0.3-1.2,0L34.7,11c-1.3-1.1-2.7-2-4.3-2.6c0.2,0.6,0.3,1.1,0.3,1.8c0,0.5-0.1,1.1-0.3,1.7
			c1.2-0.2,2.3,0,3.1,0.4l-0.3,0.3l-0.1,0.1l-3,3l-0.1-0.1l-0.9-0.9c-0.3,0.5-0.6,1-0.9,1.5l0.6,0.6l0.1,0.1l-3.8,3.8L25,20.4
			l-3.6-3.6c0.2-0.2,0.4-0.4,0.7-0.6c-0.3-0.5-0.6-1-0.9-1.5c-0.3,0.3-0.7,0.6-1,0.9l-3.4-3.4c0.9-0.8,1.9-1.4,2.9-1.9
			c0-0.1,0-0.2,0-0.3c0-0.6,0.1-1.1,0.3-1.6c-1.8,0.7-3.5,1.8-5,3.2c-5.2,5.2-5.6,13.6-1,19.2l0,0c0.1,0.2,0.3,0.3,0.4,0.5l-3.1,3.1
			c-0.3,0.3-0.3,0.9,0,1.2c0.3,0.3,0.9,0.3,1.2,0l0.6-0.6c3.5,3.5,8.1,5.3,12.7,5.2v1.4h-2.6c-1.4,0-2.6,0.9-3,2.1L33.2,43.7
			C33.2,43.7,33.2,43.7,33.2,43.7z M15.8,30.1c-0.1-0.1-0.1-0.2-0.2-0.4c0,0,0,0,0,0c0,0,0,0,0,0c-0.5-1.4-0.3-3.5,0.7-5.7l2.8,2.8
			L15.8,30.1z M17.4,31.5C17.4,31.5,17.4,31.5,17.4,31.5C17.4,31.5,17.3,31.4,17.4,31.5c-0.2-0.1-0.3-0.1-0.4-0.2l3.3-3.3l2.8,2.8
			C20.9,31.7,18.9,32,17.4,31.5z M20.1,33.4c1.4-0.1,2.8-0.6,4.3-1.3l2.3,2.3C24.5,34.6,22.2,34.3,20.1,33.4z M28.7,34l-2.8-2.8
			c1.4-0.9,2.9-1.9,4.3-3.3l3.4,3.4C32.1,32.6,30.5,33.5,28.7,34z M34.8,30.1l-3.4-3.4c1.3-1.4,2.4-2.8,3.2-4.3l2.8,2.8
			C36.9,27,36,28.7,34.8,30.1z M36.8,16.6c0.9,2.1,1.3,4.4,1,6.7l-2.3-2.3C36.2,19.4,36.6,17.9,36.8,16.6z M34.3,13.9L34.3,13.9
			l0.4-0.4c0.8,1.4,0.6,3.7-0.5,6.2l-2.8-2.8l-0.1-0.1L34.3,13.9z M30.2,18L30.2,18l3.2,3.2c-0.8,1.5-1.9,2.9-3.2,4.3L26.6,22
			l-0.2-0.2L30.2,18z M25.2,23l0.2,0.2l3.6,3.6c-1.4,1.3-2.9,2.4-4.3,3.2L21.8,27l-0.3-0.3L25.2,23z M20.3,18l3.6,3.6l0.2,0.2
			l-3.8,3.8L20,25.3l-2.9-2.9C17.9,20.9,18.9,19.4,20.3,18z M15.7,13.5l3.4,3.4c-1.3,1.4-2.4,2.8-3.2,4.3l-2.8-2.8
			C13.6,16.6,14.4,14.9,15.7,13.5z M13.7,27c-0.9-2.1-1.3-4.4-1-6.7l2.3,2.3C14.3,24.2,13.8,25.6,13.7,27z"/>
		<circle class="st0" cx="25.2" cy="10.3" r="0.9"/>
		<path class="st0" d="M28.9,10.4c0-2-1.6-3.7-3.6-3.7c-2,0-3.7,1.6-3.7,3.6c0,2.8,3.5,7.1,3.5,7.1S28.9,13.1,28.9,10.4z M23.1,10.3
			c0-1.2,1-2.2,2.2-2.1c1.2,0,2.2,1,2.1,2.2c0,1.2-1,2.2-2.2,2.1C24,12.5,23,11.5,23.1,10.3z"/>
	</g>
</g>
</svg>
