<svg xmlns="http://www.w3.org/2000/svg" viewBox="0 0 50.46 50.46">
  <title>Iconos</title>
  <g>
    <polygon points="14.35 34.66 14.35 33.09 31.65 33.09 31.65 31.71 14.35 31.71 14.35 15.17 12.98 15.17 12.98 31.71 11.52 31.71 11.52 33.09 12.98 33.09 12.98 34.66 14.35 34.66" fill="#00b5e4"/>
    <path d="M17.15,22.86a1.21,1.21,0,0,0-1.21,1.21v6h2.42v-6A1.21,1.21,0,0,0,17.15,22.86Z" fill="#00b5e4"/>
    <path d="M21.29,17.69a1.21,1.21,0,0,0-1.21,1.21V30.06H22.5V18.9A1.21,1.21,0,0,0,21.29,17.69Z" fill="#00b5e4"/>
    <path d="M25.44,13.17a1.21,1.21,0,0,0-1.21,1.21V30.06h2.42V14.38A1.21,1.21,0,0,0,25.44,13.17Z" fill="#00b5e4"/>
    <path d="M29.58,19.17a1.21,1.21,0,0,0-1.21,1.21v9.68h2.42V20.38A1.21,1.21,0,0,0,29.58,19.17Z" fill="#00b5e4"/>
    <path d="M29.32,40.26H11.26a2.34,2.34,0,0,1-2.34-2.34V8.26a2.34,2.34,0,0,1,2.34-2.34H30.65l0,6.07a1.06,1.06,0,0,0,1.08,1c0.38,0,3,0,5.25,0v19.3h0.25a8,8,0,0,1,1.58.16L38.78,11.41V11.33L32,4.13,32,4.06H11.26a4.2,4.2,0,0,0-4.2,4.2V37.92a4.2,4.2,0,0,0,4.2,4.2H29.54a7.93,7.93,0,0,1-.23-1.85h0ZM35.61,11H32.77l0-3.11Z" fill="#00b5e4"/>
    <path d="M37.27,34.14a6.13,6.13,0,1,0,6.13,6.13A6.13,6.13,0,0,0,37.27,34.14Zm2.48,5H38.11V39a1.19,1.19,0,0,0-.2-0.77A0.64,0.64,0,0,0,37.38,38a0.66,0.66,0,0,0-.5.18,0.71,0.71,0,0,0-.18.52,0.67,0.67,0,0,0,.17.48,2.2,2.2,0,0,0,.73.41,8.89,8.89,0,0,1,.95.44,2.89,2.89,0,0,1,.65.48,1.9,1.9,0,0,1,.41.62,2.12,2.12,0,0,1,.14.81,1.91,1.91,0,0,1-.54,1.41,2.29,2.29,0,0,1-1.35.62v1h-1V44a2.22,2.22,0,0,1-2-2.37V41.46h1.65v0.14a1.14,1.14,0,0,0,.23.78,0.84,0.84,0,0,0,.67.26,0.81,0.81,0,0,0,.57-0.18,0.63,0.63,0,0,0,.2-0.5,0.73,0.73,0,0,0-.18-0.53A1.86,1.86,0,0,0,37.24,41a8.83,8.83,0,0,1-.91-0.39,3,3,0,0,1-.68-0.46,1.93,1.93,0,0,1-.45-0.63A2.12,2.12,0,0,1,35,38.68a1.92,1.92,0,0,1,.55-1.41,2.27,2.27,0,0,1,1.33-.62v-1h1v1.05a2.1,2.1,0,0,1,1.28.73,2.46,2.46,0,0,1,.51,1.6v0.14Z" fill="#00b5e4"/>
  </g>
</svg>
