<?xml version="1.0" encoding="utf-8"?>
<!-- Generator: Adobe Illustrator 18.0.0, SVG Export Plug-In . SVG Version: 6.00 Build 0)  -->
<!DOCTYPE svg PUBLIC "-//W3C//DTD SVG 1.1//EN" "http://www.w3.org/Graphics/SVG/1.1/DTD/svg11.dtd">
<svg version="1.1" id="Layer_1" xmlns="http://www.w3.org/2000/svg" xmlns:xlink="http://www.w3.org/1999/xlink" x="0px" y="0px"
	 viewBox="0 0 50.5 50.5" style="enable-background:new 0 0 50.5 50.5;" xml:space="preserve">
<style type="text/css">
	.st0{fill:#65B4E1;}
</style>
<g>
	<g>
		<path class="st0" d="M39.6,7.2c0-0.2,0-0.4,0-0.7H10.8v0.7v0.7v32.4c0,2,1.6,3.7,3.7,3.7H36c2,0,3.7-1.6,3.7-3.7L39.6,7.2z
			 M38.4,40.3c0,1.3-1.1,2.4-2.4,2.4H14.4c-1.3,0-2.4-1.1-2.4-2.4V7.8h26.3V40.3z"/>
		<path class="st0" d="M16.8,40.5h17.1c1.3,0,2.4-1.1,2.4-2.4V20.8c0-0.2-0.2-0.4-0.4-0.4H14.8c-0.2,0-0.4,0.2-0.4,0.4V38
			C14.4,39.4,15.5,40.5,16.8,40.5z M35.6,35.4h-5.4v-9.8h5.4V35.4z M30.1,21.1h5.4v3.7h-5.4v-3.5c0,0,0-0.1,0-0.1V21.1z M30.1,39.6
			c0,0,0-0.1,0-0.1v-3.4h5.4V38c0,0.9-0.7,1.7-1.7,1.7L30.1,39.6L30.1,39.6z M21.3,21.1h8.1v3.7h-8.1V21.1z M21.3,25.6h8.1v14.1
			h-8.1V25.6z M15.1,21.1h5.4v3.7h-5.4V21.1z M15.1,25.6h5.4v14.1h-3.7c-0.9,0-1.7-0.7-1.7-1.7V25.6z"/>
		<path class="st0" d="M25.2,17.8c2.3,0,4.2-1.9,4.2-4.2s-1.9-4.2-4.2-4.2c-2.3,0-4.2,1.9-4.2,4.2S22.9,17.8,25.2,17.8z M25.2,10.1
			c1.9,0,3.5,1.6,3.5,3.5c0,1.9-1.6,3.5-3.5,3.5c-1.9,0-3.5-1.6-3.5-3.5C21.7,11.7,23.3,10.1,25.2,10.1z"/>
		<path class="st0" d="M25.2,15.7c0.3,0,0.6-0.1,0.9-0.2c0.3-0.1,0.5-0.3,0.6-0.5c0.2-0.2,0.2-0.5,0.2-0.8h-1c0,0.2-0.1,0.3-0.2,0.4
			c-0.1,0.1-0.3,0.2-0.5,0.2c-0.3,0-0.5-0.1-0.6-0.3c-0.1-0.2-0.2-0.5-0.2-0.9v-0.1c0-0.4,0.1-0.7,0.2-0.9c0.1-0.2,0.3-0.3,0.6-0.3
			c0.2,0,0.4,0.1,0.5,0.2c0.1,0.1,0.2,0.3,0.2,0.5h1c0-0.5-0.2-0.9-0.5-1.2c-0.3-0.3-0.7-0.4-1.2-0.4c-0.6,0-1.1,0.2-1.4,0.6
			c-0.3,0.4-0.5,0.9-0.5,1.5v0.1c0,0.7,0.2,1.2,0.5,1.6C24.2,15.5,24.7,15.7,25.2,15.7z"/>
	</g>
</g>
</svg>
