<svg xmlns="http://www.w3.org/2000/svg" viewBox="0 0 50.46 50.46">
  <title>Iconos</title>
  <g>
    <path d="M15.53,34.37a0.69,0.69,0,0,0,.69-0.69V33.12h17.3a0.69,0.69,0,0,0,0-1.37H16.22V16a0.69,0.69,0,1,0-1.37,0V31.74H14.39a0.69,0.69,0,1,0,0,1.38h0.46v0.57A0.69,0.69,0,0,0,15.53,34.37Z" fill="#00b5e4"/>
    <path d="M20.22,28.28V24.1a1.21,1.21,0,1,0-2.42,0v4.18A1.21,1.21,0,1,0,20.22,28.28Z" fill="#00b5e4"/>
    <path d="M24.37,28.28V18.93a1.21,1.21,0,1,0-2.42,0v9.35A1.21,1.21,0,1,0,24.37,28.28Z" fill="#00b5e4"/>
    <path d="M28.51,28.28V14.41a1.21,1.21,0,1,0-2.42,0V28.28A1.21,1.21,0,1,0,28.51,28.28Z" fill="#00b5e4"/>
    <path d="M32.66,28.28V20.41a1.21,1.21,0,1,0-2.42,0v7.87A1.21,1.21,0,1,0,32.66,28.28Z" fill="#00b5e4"/>
    <path d="M31.19,40.29H13.12a2.34,2.34,0,0,1-2.34-2.34V8.29a2.34,2.34,0,0,1,2.34-2.34H32.52l0,6.07a1.06,1.06,0,0,0,1.08,1c0.38,0,3,0,5.25,0v19.3h0.25a8,8,0,0,1,1.58.16L40.65,11.44V11.36L33.89,4.16l-0.06-.07H13.12a4.2,4.2,0,0,0-4.2,4.2V37.95a4.2,4.2,0,0,0,4.2,4.2H31.41a7.93,7.93,0,0,1-.23-1.85h0ZM37.47,11H34.64l0-3.11Z" fill="#00b5e4"/>
    <path d="M39.14,34.17a6.13,6.13,0,1,0,6.13,6.13A6.13,6.13,0,0,0,39.14,34.17Zm2.48,5H40V39a1.19,1.19,0,0,0-.2-0.77A0.64,0.64,0,0,0,39.25,38a0.66,0.66,0,0,0-.5.18,0.71,0.71,0,0,0-.18.52,0.67,0.67,0,0,0,.17.49,2.2,2.2,0,0,0,.73.41,8.88,8.88,0,0,1,.95.44,2.88,2.88,0,0,1,.65.48,1.9,1.9,0,0,1,.41.62,2.12,2.12,0,0,1,.14.81,1.91,1.91,0,0,1-.54,1.41,2.29,2.29,0,0,1-1.35.62v1h-1V44a2.22,2.22,0,0,1-2-2.37V41.49H38.3v0.14a1.14,1.14,0,0,0,.23.78,0.84,0.84,0,0,0,.67.26,0.81,0.81,0,0,0,.57-0.18A0.63,0.63,0,0,0,40,42a0.73,0.73,0,0,0-.18-0.53,1.86,1.86,0,0,0-.68-0.39,8.83,8.83,0,0,1-.91-0.39,3,3,0,0,1-.68-0.46,1.93,1.93,0,0,1-.45-0.63,2.12,2.12,0,0,1-.16-0.86,1.92,1.92,0,0,1,.55-1.41,2.27,2.27,0,0,1,1.33-.62v-1h1v1.05a2.1,2.1,0,0,1,1.28.73,2.46,2.46,0,0,1,.51,1.6v0.14Z" fill="#00b5e4"/>
  </g>
</svg>
