<?xml version="1.0" encoding="utf-8"?>
<!-- Generator: Adobe Illustrator 18.0.0, SVG Export Plug-In . SVG Version: 6.00 Build 0)  -->
<!DOCTYPE svg PUBLIC "-//W3C//DTD SVG 1.1//EN" "http://www.w3.org/Graphics/SVG/1.1/DTD/svg11.dtd">
<svg version="1.1" id="Layer_1" xmlns="http://www.w3.org/2000/svg" xmlns:xlink="http://www.w3.org/1999/xlink" x="0px" y="0px"
	 viewBox="0 0 50.5 50.5" style="enable-background:new 0 0 50.5 50.5;" xml:space="preserve">
<style type="text/css">
	.st0{fill:#65B4E1;}
</style>
<g>
	<g>
		<path class="st0" d="M15.5,34.4c0.4,0,0.7-0.3,0.7-0.7v-0.6h17.3c0.4,0,0.7-0.3,0.7-0.7s-0.3-0.7-0.7-0.7H16.2V16
			c0-0.4-0.3-0.7-0.7-0.7c-0.4,0-0.7,0.3-0.7,0.7v15.7h-0.5c-0.4,0-0.7,0.3-0.7,0.7s0.3,0.7,0.7,0.7h0.5v0.6
			C14.8,34.1,15.2,34.4,15.5,34.4z"/>
		<path class="st0" d="M20.2,28.3v-4.2c0-0.7-0.5-1.2-1.2-1.2c-0.7,0-1.2,0.5-1.2,1.2v4.2c0,0.7,0.5,1.2,1.2,1.2
			C19.7,29.5,20.2,29,20.2,28.3z"/>
		<path class="st0" d="M24.4,28.3v-9.4c0-0.7-0.5-1.2-1.2-1.2s-1.2,0.5-1.2,1.2v9.4c0,0.7,0.5,1.2,1.2,1.2S24.4,29,24.4,28.3z"/>
		<path class="st0" d="M28.5,28.3V14.4c0-0.7-0.5-1.2-1.2-1.2s-1.2,0.5-1.2,1.2v13.9c0,0.7,0.5,1.2,1.2,1.2S28.5,29,28.5,28.3z"/>
		<path class="st0" d="M32.7,28.3v-7.9c0-0.7-0.5-1.2-1.2-1.2c-0.7,0-1.2,0.5-1.2,1.2v7.9c0,0.7,0.5,1.2,1.2,1.2
			C32.1,29.5,32.7,29,32.7,28.3z"/>
		<path class="st0" d="M31.2,40.3H13.1c-1.3,0-2.3-1-2.3-2.3V8.3c0-1.3,1-2.3,2.3-2.3h19.4l0,6.1c0,0.6,0.5,1,1.1,1c0.4,0,3,0,5.3,0
			v19.3c0.1,0,0.2,0,0.3,0c0.5,0,1.1,0.1,1.6,0.2l-0.1-21.1v-0.1l-6.8-7.2l-0.1-0.1H13.1c-2.3,0-4.2,1.9-4.2,4.2v29.7
			c0,2.3,1.9,4.2,4.2,4.2h18.3C31.3,41.6,31.2,40.9,31.2,40.3C31.2,40.3,31.2,40.3,31.2,40.3z M37.5,11c-1.1,0-2.1,0-2.8,0l0-3.1
			L37.5,11z"/>
		<path class="st0" d="M39.1,34.2c-3.4,0-6.1,2.7-6.1,6.1s2.7,6.1,6.1,6.1s6.1-2.7,6.1-6.1S42.5,34.2,39.1,34.2z M41.6,39.2H40V39
			c0-0.3-0.1-0.6-0.2-0.8c-0.1-0.2-0.3-0.2-0.5-0.2c-0.2,0-0.4,0.1-0.5,0.2c-0.1,0.1-0.2,0.3-0.2,0.5c0,0.2,0.1,0.4,0.2,0.5
			c0.1,0.1,0.4,0.3,0.7,0.4c0.4,0.2,0.7,0.3,0.9,0.4c0.3,0.1,0.5,0.3,0.6,0.5c0.2,0.2,0.3,0.4,0.4,0.6c0.1,0.2,0.1,0.5,0.1,0.8
			c0,0.6-0.2,1-0.5,1.4c-0.3,0.3-0.8,0.5-1.3,0.6v1h-1v-1c-0.6-0.1-1.1-0.3-1.5-0.7c-0.4-0.4-0.6-1-0.6-1.7v-0.1h1.6v0.1
			c0,0.3,0.1,0.6,0.2,0.8c0.2,0.2,0.4,0.3,0.7,0.3c0.2,0,0.4-0.1,0.6-0.2c0.1-0.1,0.2-0.3,0.2-0.5c0-0.2-0.1-0.4-0.2-0.5
			c-0.1-0.1-0.4-0.3-0.7-0.4c-0.3-0.1-0.7-0.3-0.9-0.4c-0.3-0.1-0.5-0.3-0.7-0.5c-0.2-0.2-0.3-0.4-0.5-0.6c-0.1-0.2-0.2-0.5-0.2-0.9
			c0-0.6,0.2-1,0.6-1.4c0.3-0.3,0.8-0.5,1.3-0.6v-1h1v1.1c0.5,0.1,1,0.3,1.3,0.7c0.3,0.4,0.5,0.9,0.5,1.6V39.2z"/>
	</g>
</g>
</svg>
