<svg id="Layer_1" data-name="Layer 1" xmlns="http://www.w3.org/2000/svg" viewBox="0 0 50.46 50.46"><defs><style>.cls-1{fill:#65b4e1;}</style></defs><title>fallecimiento 02</title><circle class="cls-1" cx="25.21" cy="17.07" r="1.97"/><path class="cls-1" d="M25.23,11.78c-2.78,0-5,2.86-5,6.38s2.26,6.38,5,6.38,5-2.86,5-6.38S28,11.78,25.23,11.78Zm3.14,9.59a4.18,4.18,0,0,0-1.78-1.94,2.39,2.39,0,0,1-.62.31l-.05,0-.28.07h-.07l-.34,0-.34,0h-.07l-.28-.07-.05,0a2.39,2.39,0,0,1-.62-.31,4.18,4.18,0,0,0-1.78,1.94,6.49,6.49,0,0,1-.82-3.21c0-2.92,1.77-5.3,4-5.3s4,2.38,4,5.3A6.49,6.49,0,0,1,28.37,21.37Z"/><path class="cls-1" d="M44.51,42.43H39.1V17.89A13.91,13.91,0,0,0,32,5.8c-4.59-2.59-10-2.36-15,.62a12.18,12.18,0,0,0-5.71,10.43V42.43H6a1.59,1.59,0,0,0,0,3.18H44.51a1.59,1.59,0,1,0,0-3.18Zm-7.52,0H13.47V16.85a10,10,0,0,1,4.69-8.62C22.41,5.66,27.08,5.45,31,7.65a11.79,11.79,0,0,1,6,10.25Z"/></svg>