<?xml version="1.0" encoding="utf-8"?>
<!-- Generator: Adobe Illustrator 28.0.0, SVG Export Plug-In . SVG Version: 6.00 Build 0)  -->
<svg version="1.1" id="Layer_1" xmlns="http://www.w3.org/2000/svg" xmlns:xlink="http://www.w3.org/1999/xlink" x="0px" y="0px"
	 viewBox="0 0 50.5 50.5" style="enable-background:new 0 0 50.5 50.5;" xml:space="preserve">
<g>
	<path d="M46.451,21.972c0.211-1.019-0.344-2.021-1.319-2.384l-0.403-0.15l1.151-3.096c0.074-0.199,0.065-0.419-0.022-0.612
		c-0.089-0.193-0.25-0.343-0.449-0.417l-8.902-3.309c-0.412-0.154-0.874,0.057-1.028,0.471l-1.151,3.097l-0.663-0.247
		c-0.979-0.365-2.05,0.034-2.557,0.942L20.618,35.116c-0.297,0.533-0.346,1.168-0.134,1.741s0.661,1.023,1.233,1.236l3.724,1.384
		l-1.151,3.096c-0.154,0.414,0.057,0.874,0.471,1.028l8.902,3.31c0.09,0.033,0.184,0.05,0.278,0.05c0.114,0,0.228-0.024,0.333-0.072
		c0.193-0.089,0.343-0.25,0.417-0.449l1.151-3.096l3.464,1.288c0.235,0.088,0.482,0.131,0.728,0.131
		c0.351,0,0.699-0.088,1.013-0.262c0.534-0.296,0.912-0.809,1.035-1.406L46.21,23.14c0-0.001,0.001-0.003,0.001-0.004L46.451,21.972
		z M43.074,30.406l-1.587-1.92l2.056-0.349L43.074,30.406z M42.084,35.19L30.325,20.964l1.154-2.074l11.179,13.524L42.084,35.19z
		 M33.742,40.856L29.26,39.19l7.991-1.358l1.759,2.128L33.742,40.856z M41.095,39.973L28.445,24.67
		c-0.036-0.043-0.084-0.068-0.126-0.102l1.171-2.104l12.179,14.734L41.095,39.973z M27.501,26.038l2.721,3.292l-5.028,0.854
		L27.501,26.038z M24.196,31.977c0,0,0.001,0,0.001,0l7.061-1.199c0.045-0.008,0.08-0.032,0.121-0.047l1.758,2.127l-10.417,1.77
		L24.196,31.977z M43.891,26.455l-3.581,0.608l-1.759-2.128l5.86-0.996L43.891,26.455z M44.885,21.648l-0.126,0.609l-7.384,1.255
		l-1.76-2.129l6.631-1.127c0.016-0.003,0.029-0.013,0.044-0.017l2.285,0.849C44.804,21.173,44.934,21.409,44.885,21.648z
		 M36.698,13.784l7.403,2.751l-0.873,2.347l-7.403-2.751L36.698,13.784z M33.105,16.826l6.206,2.307l-4.873,0.828l-2.125-2.57
		l0.191-0.343C32.624,16.833,32.875,16.74,33.105,16.826z M22.023,36.369l12.292-2.088l1.759,2.128l-9.812,1.667l-3.988-1.482
		C22.131,36.54,22.064,36.448,22.023,36.369z M33.472,45.134l-7.402-2.752l0.872-2.346l7.403,2.751L33.472,45.134z M40.273,43.102
		c-0.075,0.039-0.224,0.098-0.409,0.03l-3.125-1.161l3.447-0.586l0.493,0.597l-0.163,0.789
		C40.477,42.963,40.347,43.061,40.273,43.102z"/>
	<path d="M19.614,16.88c0.091-0.101,0.948-1.052,1.225-1.358c0.5-0.272,2.553-1.383,3.642-1.972
		c0.109,0.002,0.217,0.003,0.324,0.003c9.509,0,11.001-7.437,11.015-7.513c0.078-0.417-0.183-0.821-0.594-0.923
		C35.15,5.1,27.742,3.389,23.82,12.089c-0.994,0.538-1.736,0.939-2.289,1.239l0.271-1.14c2.14-1.341,3.379-2.94,3.665-4.76
		c0.416-2.648-1.366-4.707-1.441-4.793c-0.211-0.24-0.545-0.33-0.849-0.231c-0.109,0.036-2.689,0.903-3.677,3.396
		c-0.682,1.72-0.422,3.736,0.752,5.991l-0.644,2.71c-0.124,0.135-0.328,0.362-0.65,0.719c-1.284-2.779-3.132-4.506-5.252-4.857
		c-2.226-0.372-4.66,0.779-6.854,3.231c-1.862,2.081-3.257,4.81-3.64,7.123c-0.378,2.283,0.155,4.576,1.502,6.458
		c1.347,1.881,3.346,3.125,5.628,3.503c0.479,0.079,0.958,0.119,1.435,0.119c1.792,0,3.536-0.557,5.023-1.621
		c1.881-1.347,3.125-3.346,3.503-5.628C20.625,21.599,20.357,19.143,19.614,16.88z M33.523,6.543c0.171,0,0.329,0.006,0.472,0.015
		c-0.623,1.603-2.618,5.053-8.327,5.372C28.109,7.247,31.629,6.543,33.523,6.543z M20.981,6.401
		c0.476-1.213,1.533-1.917,2.172-2.247c0.383,0.609,0.937,1.752,0.729,3.039c-0.196,1.216-1.026,2.339-2.472,3.345
		C20.677,8.938,20.532,7.548,20.981,6.401z M18.724,23.285c-0.309,1.861-1.323,3.49-2.856,4.589
		c-1.535,1.098-3.407,1.531-5.265,1.225c-1.861-0.309-3.491-1.322-4.589-2.856c-1.098-1.534-1.533-3.403-1.225-5.264
		c0.331-1.999,1.608-4.479,3.254-6.318c1.596-1.783,3.333-2.764,4.854-2.764c0.186,0,0.368,0.015,0.547,0.044
		c1.642,0.272,3.186,1.845,4.236,4.316C18.645,18.527,19.055,21.286,18.724,23.285z"/>
	<path d="M9.875,15.619c-0.382-0.227-0.871-0.1-1.097,0.279c-0.911,1.534-1.541,3.157-1.775,4.572
		c-0.351,2.119,0.094,4.281,1.252,6.088c0.152,0.238,0.411,0.368,0.674,0.368c0.147,0,0.297-0.041,0.431-0.126
		c0.372-0.238,0.48-0.733,0.242-1.105c-0.944-1.474-1.307-3.236-1.021-4.964c0.203-1.223,0.762-2.649,1.573-4.016
		C10.379,16.335,10.254,15.845,9.875,15.619z"/>
</g>
</svg>
