<?xml version="1.0" encoding="utf-8"?>
<!-- Generator: Adobe Illustrator 24.0.1, SVG Export Plug-In . SVG Version: 6.00 Build 0)  -->
<svg version="1.1" id="Layer_1" xmlns="http://www.w3.org/2000/svg" xmlns:xlink="http://www.w3.org/1999/xlink" x="0px" y="0px"
	 viewBox="0 0 50.5 50.5" style="enable-background:new 0 0 50.5 50.5;" xml:space="preserve">
<g>
	<path d="M6.027,23.195l0.794-3.186L3.758,17.46c-0.662-0.551-1.646-0.461-2.197,0.201C1.01,18.323,1.1,19.307,1.762,19.858
		l3.657,3.044C5.597,23.05,5.808,23.138,6.027,23.195z"/>
	<path d="M24.227,16.299c-0.689-0.515-1.667-0.376-2.185,0.313l-2.404,3.209l1.133,3.316c0.255-0.105,0.485-0.27,0.657-0.499
		l3.112-4.154C25.057,17.794,24.916,16.817,24.227,16.299z"/>
	<path d="M10.008,28.269l0.87-0.006l1.312-0.009l1.92-0.013l1.977-0.013l0.494-0.003l0.088-5.352l2.414,0.277l-1.117-3.269
		l-3.566-0.41l0.762,1.046l0.238,0.327c0.26,0.357,0.182,0.857-0.175,1.118c-0.356,0.261-0.857,0.183-1.118-0.175l-0.925-1.269
		l-0.005-0.007l-0.004,0.007l-0.834,1.244c-0.154,0.23-0.408,0.354-0.665,0.354c-0.153,0-0.308-0.044-0.445-0.136
		c-0.367-0.246-0.465-0.743-0.219-1.11l0.236-0.352l0.681-1.015l-3.429,0.393l-0.806,3.233l2.212-0.253L10.008,28.269z"/>
	<path d="M14.61,34.939l1.878-4.754l0.064-0.163l0.007-0.017c0.024-0.06,0.036-0.121,0.051-0.182l-3.344,0.022h-0.054l-3.203,0.021
		c0.009,0.068,0.015,0.135,0.033,0.203l0.002,0.007l0.029,0.109l1.233,4.623l-0.423,1.071l-2.449,5.804
		c-0.335,0.794,0.037,1.709,0.831,2.044c0.198,0.084,0.403,0.123,0.606,0.123c0.608,0,1.187-0.358,1.438-0.954l2.041-4.837
		l3.717,3.584c0.303,0.292,0.693,0.438,1.083,0.438c0.409,0,0.817-0.16,1.123-0.478c0.598-0.62,0.581-1.608-0.04-2.206L14.61,34.939
		z"/>
	<path d="M5.977,13.246c0,0.445,1.836,0.825,4.444,0.986c-0.116,0.323-0.19,0.666-0.19,1.029c0,1.693,1.373,3.066,3.066,3.066
		s3.066-1.373,3.066-3.066c0-0.369-0.076-0.717-0.195-1.045c2.485-0.168,4.215-0.539,4.215-0.97c0-0.434-1.755-0.807-4.269-0.974
		v-0.173c0-1.102-0.859-1.995-1.92-1.995h-2.208c-1.06,0-1.92,0.893-1.92,1.995v0.186C7.65,12.457,5.977,12.822,5.977,13.246z"/>
	<path d="M48.176,14.741c-0.039-0.027-0.082-0.044-0.123-0.066c-0.011-0.009-0.017-0.016-0.028-0.026
		c-2.854-1.279,1.234-3.336-1.003-5.27c-1.295-1.013-3.464-0.165-4.44,0.12c-1.329,0.388-1.841,1.913-0.143,1.859
		c1.698-0.054,3.06,0.148,2.507,1.492c-0.463,1.127-0.24,2.259,0.834,2.646l-2.174,3.204l-2.148,0.21
		c-0.395-0.393-0.847-0.584-1.26-0.468c-0.303,0.086-0.539,0.324-0.695,0.659l-1.136,0.111c-0.245-0.059-0.498-0.099-0.761-0.099
		c-0.506,0-0.978,0.125-1.405,0.331l-0.692,0.079c-0.174-0.371-0.434-0.635-0.767-0.71c-0.547-0.123-1.133,0.283-1.552,0.975
		l-1.848,0.212l-2.896-3.182c-0.582-0.638-1.566-0.684-2.205-0.104c-0.637,0.58-0.683,1.567-0.104,2.204l3.435,3.773
		c0.298,0.327,0.718,0.51,1.154,0.51c0.059,0,0.118-0.003,0.178-0.01l1.943-0.222c0.174,0.398,0.441,0.682,0.788,0.76
		c0.238,0.054,0.483-0.002,0.72-0.127v2.744l6.503-0.043v-3.093c0.238,0.106,0.48,0.145,0.709,0.08
		c0.482-0.136,0.792-0.658,0.881-1.343l2.191-0.215c0.461-0.045,0.879-0.293,1.139-0.677l2.583-3.809
		c0.002,0.008,0.003,0.006,0.004-0.005l0.227-0.335C49.075,16.195,48.889,15.225,48.176,14.741z"/>
	<path d="M40.988,27.905l-7.171,0.048c-0.666,0.664-1.355,1.615-1.754,2.935c-1.186,3.926-3.805,4.918-4.695,5.644
		c-0.89,0.726-1.543,2.243,2.027,1.104c0.483-0.154,0.924-0.233,1.334-0.262l-1.131,2.941c-0.31,0.804,0.092,1.707,0.896,2.016
		c0.184,0.071,0.373,0.104,0.56,0.104c0.627,0,1.218-0.38,1.456-1.001l1.263-3.284c0.882,0.481,1.62,0.997,2.439,0.961
		c0.917-0.04,1.945-0.399,3.016-0.64l0.788,4.062c0.146,0.746,0.798,1.264,1.53,1.264c0.099,0,0.198-0.009,0.299-0.028
		c0.847-0.164,1.399-0.983,1.235-1.829l-0.664-3.419c0.027,0.01,0.054,0.012,0.081,0.023c1.838,0.737,1.545-2.067,0.474-6.465
		C42.472,30.031,41.818,28.734,40.988,27.905z"/>
	<path d="M11.759,3.123c0.101,0,0.204-0.02,0.303-0.06l0.354-0.146c0.409-0.168,0.604-0.635,0.437-1.044
		c-0.167-0.409-0.635-0.603-1.044-0.437l-0.354,0.146c-0.409,0.168-0.604,0.635-0.437,1.044C11.145,2.936,11.444,3.123,11.759,3.123
		z"/>
	<path d="M19.25,6.16c0.125,0,0.251-0.029,0.369-0.091l0.412-0.214c0.392-0.204,0.544-0.687,0.34-1.079
		c-0.204-0.392-0.687-0.545-1.079-0.34L18.88,4.65c-0.392,0.204-0.544,0.687-0.34,1.079C18.683,6.003,18.961,6.16,19.25,6.16z"/>
	<path d="M33.968,4.671c0.102,0,0.205-0.02,0.305-0.061c0.408-0.168,0.604-0.635,0.436-1.044L34.68,3.498
		c-0.169-0.409-0.625-0.569-1.03-0.401c-0.409,0.168-0.59,0.67-0.422,1.079C33.355,4.484,33.653,4.671,33.968,4.671z"/>
	<path d="M5.258,8.177l0.487,0.067c0.037,0.005,0.074,0.008,0.11,0.008c0.393,0,0.736-0.29,0.792-0.691
		C6.708,7.124,6.402,6.72,5.964,6.659L5.477,6.592C5.042,6.531,4.635,6.836,4.575,7.275C4.515,7.712,4.82,8.116,5.258,8.177z"/>
	<path d="M43.41,5.216l0.419,0.129c0.078,0.024,0.157,0.036,0.235,0.036c0.342,0,0.659-0.221,0.765-0.565
		c0.13-0.422-0.107-0.87-0.529-1l-0.419-0.129c-0.421-0.13-0.87,0.106-1,0.529C42.751,4.639,42.988,5.086,43.41,5.216z"/>
	<path d="M30.135,12.98l0.354,0.226c0.133,0.085,0.281,0.126,0.429,0.126c0.265,0,0.522-0.131,0.676-0.37
		c0.237-0.373,0.128-0.867-0.245-1.104l-0.354-0.226c-0.371-0.237-0.865-0.128-1.104,0.244
		C29.652,12.249,29.762,12.743,30.135,12.98z"/>
	<path d="M6.24,45.308l-0.457,0.055c-0.438,0.052-0.751,0.45-0.699,0.889c0.049,0.407,0.394,0.705,0.793,0.705
		c0.032,0,0.064-0.002,0.096-0.006l0.457-0.055c0.438-0.052,0.751-0.45,0.699-0.889C7.077,45.567,6.679,45.257,6.24,45.308z"/>
	<path d="M15.818,43.339l-0.337-0.138c-0.411-0.169-0.876,0.029-1.043,0.438c-0.167,0.409,0.029,0.876,0.438,1.043l0.337,0.138
		c0.099,0.041,0.202,0.06,0.302,0.06c0.315,0,0.614-0.188,0.741-0.497C16.423,43.973,16.227,43.506,15.818,43.339z"/>
	<path d="M24.473,8.532L24.328,8.58c-0.419,0.14-0.646,0.593-0.506,1.012c0.112,0.335,0.424,0.547,0.759,0.547
		c0.083,0,0.169-0.013,0.253-0.042l0.145-0.048c0.419-0.14,0.646-0.593,0.506-1.012C25.344,8.618,24.893,8.389,24.473,8.532z"/>
	<path d="M35.838,43.516l-0.298,0.249c-0.34,0.283-0.385,0.787-0.101,1.126c0.158,0.189,0.385,0.287,0.613,0.287
		c0.182,0,0.363-0.061,0.513-0.187l0.298-0.249c0.34-0.283,0.385-0.787,0.101-1.126C36.68,43.275,36.176,43.231,35.838,43.516z"/>
	<path d="M28.2,44.853l-0.287-0.162c-0.388-0.219-0.874-0.081-1.09,0.303c-0.218,0.385-0.082,0.873,0.303,1.09l0.287,0.162
		c0.125,0.07,0.26,0.104,0.393,0.104c0.279,0,0.551-0.146,0.697-0.406C28.721,45.558,28.585,45.069,28.2,44.853z"/>
	<path d="M46.54,41.431l-0.554,0.121c-0.432,0.094-0.705,0.521-0.61,0.952c0.081,0.374,0.413,0.629,0.78,0.629
		c0.057,0,0.114-0.006,0.172-0.019l0.554-0.121c0.432-0.094,0.705-0.521,0.61-0.952C47.398,41.609,46.971,41.333,46.54,41.431z"/>
	<path d="M25.125,40.994l-0.249-0.151c-0.376-0.229-0.87-0.108-1.099,0.268c-0.23,0.377-0.11,0.869,0.267,1.1l0.249,0.151
		c0.13,0.079,0.273,0.116,0.415,0.116c0.27,0,0.534-0.137,0.684-0.384C25.623,41.717,25.503,41.225,25.125,40.994z"/>
	<path d="M4.195,41.138l-0.383,0.03c-0.44,0.035-0.77,0.421-0.734,0.861c0.033,0.419,0.383,0.736,0.796,0.736
		c0.021,0,0.042-0.001,0.064-0.002l0.383-0.03c0.44-0.035,0.77-0.421,0.734-0.861C5.019,41.432,4.623,41.117,4.195,41.138z"/>
	<path d="M31.271,18.586c0.12,0.322,0.425,0.522,0.75,0.522c0.093,0,0.187-0.016,0.279-0.05l0.026-0.01
		c0.268-0.101,0.449-0.331,0.501-0.592c0.072,0.021,0.147,0.032,0.222,0.032c0.188,0,0.377-0.066,0.53-0.201
		c0.018-0.016,0.035-0.031,0.052-0.047c0.206-0.19,0.29-0.464,0.246-0.722c0.261-0.023,0.505-0.173,0.637-0.421l0.028-0.054
		c0.029-0.055,0.049-0.112,0.064-0.169c0.556,0.789,1.474,1.304,2.512,1.302c1.253-0.002,2.328-0.756,2.802-1.833
		c0.022,0.036,0.046,0.071,0.074,0.104l0.04,0.047c0.162,0.184,0.387,0.276,0.615,0.272c0.018,0.23,0.135,0.451,0.339,0.594
		l0.048,0.033c0.214,0.146,0.474,0.175,0.703,0.1c0.092,0.227,0.287,0.41,0.543,0.475l0.031,0.008
		c0.063,0.015,0.127,0.023,0.19,0.023c0.36,0,0.688-0.245,0.777-0.611c0.104-0.429-0.159-0.862-0.588-0.966l-0.011-0.003
		c-0.154-0.04-0.309-0.032-0.45,0.015c-0.057-0.141-0.155-0.268-0.29-0.361l-0.034-0.024c-0.144-0.101-0.312-0.148-0.473-0.145
		c-0.013-0.167-0.078-0.332-0.197-0.467l-0.025-0.029c-0.12-0.141-0.279-0.23-0.447-0.264c0.025-0.17-0.004-0.349-0.095-0.51
		l-0.022-0.039c-0.09-0.161-0.227-0.279-0.385-0.346c0.058-0.16,0.065-0.339,0.01-0.514l-0.011-0.036
		c-0.08-0.265-0.284-0.458-0.53-0.534c-0.22-0.526-0.554-0.91-1.002-1.147c-0.885-0.469-1.856-0.155-2.289,0.033
		c-0.502-0.002-1.626,0.099-2.263,0.986c-0.12,0.167-0.211,0.35-0.278,0.545c-0.288,0.144-0.472,0.454-0.438,0.794l0.003,0.029
		c0.019,0.194,0.107,0.365,0.237,0.491c-0.138,0.117-0.237,0.281-0.27,0.474l-0.008,0.048c-0.033,0.187,0.001,0.37,0.086,0.524
		c-0.16,0.071-0.298,0.194-0.385,0.361l-0.022,0.041c-0.086,0.162-0.111,0.341-0.083,0.51c-0.171,0.015-0.338,0.084-0.473,0.209
		l-0.027,0.025c-0.137,0.121-0.221,0.278-0.254,0.444c-0.161-0.047-0.337-0.044-0.505,0.019l-0.017,0.006
		C31.328,17.712,31.117,18.172,31.271,18.586z"/>
</g>
</svg>
