<?xml version="1.0" encoding="utf-8"?>
<!-- Generator: Adobe Illustrator 28.0.0, SVG Export Plug-In . SVG Version: 6.00 Build 0)  -->
<svg version="1.1" id="Layer_1" xmlns="http://www.w3.org/2000/svg" xmlns:xlink="http://www.w3.org/1999/xlink" x="0px" y="0px"
	 viewBox="0 0 50.5 50.5" style="enable-background:new 0 0 50.5 50.5;" xml:space="preserve">
<g>
	<path d="M39.117,27.53c0.645-0.49,1.066-1.163,1.192-1.933c0.171-1.044-0.238-2.096-1.086-2.871
		c1.331-1.752,1.671-3.99,0.851-5.866c-0.499-1.141-1.377-2.047-2.503-2.597c0.117-0.563,0.154-1.13,0.109-1.689
		c-0.111-1.426-0.704-2.708-1.645-3.587c0.717-2.754-0.657-5.504-3.163-6.291c-1.155-0.362-2.405-0.229-3.521,0.378
		c-1.274,0.692-2.242,1.937-2.655,3.414c-0.021,0.075-0.04,0.151-0.059,0.228c-0.756-0.264-1.579-0.297-2.39-0.09
		c-1.314,0.334-2.447,1.243-3.191,2.558c-0.446,0.79-0.711,1.669-0.781,2.577c-1.022-0.051-2.051,0.253-2.963,0.862
		c-1.355,0.903-2.322,2.409-2.655,4.132c-0.361,1.872,0.09,3.776,1.16,5.125c-1.232,0.591-2.146,1.853-2.356,3.368
		c-0.188,1.362,0.215,2.69,1.084,3.621c-0.001,0.008-0.002,0.016-0.003,0.023C11.558,30.427,9.938,34.17,11,37.146
		c0.555,1.559,1.752,2.647,3.271,3.05c-1.712,1.695-2.409,3.368-2.443,3.451c-0.068,0.166-0.061,0.354,0.019,0.514
		c0.08,0.161,0.225,0.28,0.398,0.326c0.206,0.057,4.893,1.244,10.084-3.137c-0.091,2.153-0.114,3.506-0.113,5.942
		c0,0.166,0.066,0.325,0.184,0.442s0.276,0.183,0.442,0.183h0l4.118-0.002c0.342,0,0.62-0.274,0.625-0.616l0.021-1.59
		c0.014-1.183,0.024-2.133,0.061-3.297c4.554,4.707,9.502,3.576,9.725,3.521c0.17-0.041,0.315-0.151,0.399-0.305
		c0.085-0.153,0.102-0.335,0.047-0.501c-0.034-0.102-0.804-2.35-3.137-4.552c0.009-0.008,0.015-0.018,0.024-0.026
		c0.142-0.13,0.269-0.275,0.392-0.426c0.044-0.053,0.093-0.101,0.134-0.156c0.103-0.139,0.188-0.292,0.273-0.445
		c0.041-0.073,0.091-0.141,0.127-0.216c0.08-0.167,0.138-0.345,0.196-0.524c0.022-0.068,0.055-0.132,0.073-0.202
		c0.067-0.252,0.112-0.513,0.131-0.782c0,0,0-0.001,0-0.001c0,0,0-0.001,0-0.001c0.002-0.022,0.003-0.044,0.004-0.066
		c2.688-0.694,4.639-2.757,4.92-5.27C41.172,30.676,40.487,28.887,39.117,27.53z M39.729,32.323
		c-0.238,2.122-2.02,3.849-4.434,4.295c-0.314,0.059-0.534,0.346-0.509,0.665c0.011,0.142,0.022,0.285,0.013,0.431
		c-0.015,0.218-0.061,0.429-0.122,0.632c-0.017,0.058-0.042,0.113-0.062,0.17c-0.055,0.149-0.12,0.292-0.198,0.428
		c-0.027,0.048-0.055,0.096-0.085,0.143c-0.238,0.364-0.553,0.675-0.94,0.896c-0.002,0.001-0.002,0.003-0.004,0.004
		c-0.4,0.229-0.851,0.358-1.324,0.335c-0.658-0.029-1.268-0.328-1.717-0.842c-0.227-0.261-0.623-0.286-0.882-0.06
		c-0.261,0.227-0.287,0.622-0.06,0.882c0.675,0.773,1.6,1.225,2.602,1.27c0.055,0.002,0.109,0.004,0.164,0.004
		c0.503,0,0.989-0.105,1.436-0.295c1.483,1.336,2.328,2.729,2.732,3.541c-1.592,0.109-5.387-0.13-8.749-4.396
		c-0.163-0.206-0.438-0.286-0.683-0.209c-0.249,0.081-0.422,0.307-0.434,0.568c-0.089,2.016-0.103,3.229-0.122,4.909l-0.012,0.97
		l-2.875,0.001c0.004-2.373,0.039-3.727,0.157-6.288c0.015-0.318-0.213-0.598-0.529-0.646l-0.391-0.068
		c-0.037-0.007-0.074-0.01-0.111-0.01c-0.157,0-0.31,0.059-0.427,0.168c-3.772,3.526-7.285,3.708-8.807,3.578
		c0.451-0.776,1.331-2.049,2.758-3.166c0.023-0.018,0.038-0.042,0.058-0.063c0.389,0.22,0.813,0.357,1.257,0.378
		c0.046,0.002,0.092,0.003,0.138,0.003c1.705,0,3.12-1.481,3.25-3.438c0.023-0.345-0.238-0.643-0.583-0.666
		c-0.351-0.021-0.643,0.238-0.666,0.582c-0.086,1.302-1.03,2.314-2.082,2.269c-0.438-0.021-0.858-0.232-1.184-0.596
		c-0.438-0.491-0.662-1.195-0.613-1.931c0.023-0.345-0.238-0.644-0.583-0.666c-0.354-0.031-0.643,0.238-0.666,0.582
		c-0.057,0.862,0.162,1.695,0.591,2.376c-1.348-0.199-2.388-1.021-2.859-2.339c-0.873-2.448,0.523-5.551,3.061-6.78
		c0.019-0.006,0.113-0.04,0.131-0.049c0.203-0.089,0.344-0.278,0.37-0.498c0.026-0.217,0.057-0.437,0.091-0.656
		c0.033-0.209-0.042-0.421-0.2-0.562c-0.719-0.646-1.075-1.703-0.929-2.762c0.19-1.377,1.162-2.457,2.363-2.625
		c0.246-0.034,0.448-0.211,0.516-0.45c0.067-0.239-0.013-0.495-0.205-0.653c-1.256-1.031-1.84-2.875-1.488-4.699
		c0.269-1.396,1.042-2.609,2.12-3.328c0.854-0.57,1.831-0.778,2.754-0.587c0.187,0.04,0.384-0.01,0.531-0.135
		c0.146-0.124,0.228-0.309,0.221-0.501c-0.036-0.931,0.183-1.844,0.633-2.641c0.574-1.015,1.43-1.712,2.411-1.961
		c0.78-0.199,1.575-0.082,2.235,0.331c0.186,0.115,0.415,0.126,0.611,0.028c0.194-0.098,0.324-0.29,0.343-0.506
		c0.025-0.296,0.077-0.586,0.155-0.865c0.322-1.154,1.068-2.121,2.047-2.652c0.815-0.443,1.722-0.545,2.55-0.284
		c1.889,0.593,2.901,2.729,2.274,4.943c-0.021,0.049-0.041,0.099-0.06,0.15c-0.087,0.255-0.002,0.538,0.213,0.701
		c0.861,0.657,1.411,1.746,1.509,2.989c0.046,0.585-0.021,1.183-0.199,1.776c-0.096,0.317,0.072,0.653,0.383,0.767
		c1.054,0.388,1.874,1.15,2.31,2.146c0.716,1.637,0.31,3.566-1.06,5.036c-0.127,0.136-0.187,0.32-0.163,0.504
		c0.022,0.184,0.127,0.349,0.283,0.449c0.794,0.508,1.21,1.292,1.087,2.044c-0.103,0.628-0.565,1.159-1.269,1.458
		c-0.205,0.087-0.349,0.275-0.376,0.496c-0.028,0.221,0.062,0.439,0.239,0.575C39.141,29.055,39.911,30.698,39.729,32.323z"/>
	<path d="M34.62,29.527c-0.345,0.016-0.612,0.308-0.597,0.653c0.079,1.763-1.174,3.314-2.852,3.532
		c-0.827,0.107-1.642-0.152-2.23-0.714c-0.126-0.121-0.293-0.185-0.475-0.172c-0.175,0.012-0.337,0.098-0.446,0.234
		c-0.395,0.496-0.934,0.819-1.518,0.909c-0.663,0.101-1.298-0.115-1.745-0.593c-0.236-0.252-0.632-0.265-0.884-0.03
		c-0.252,0.236-0.266,0.632-0.03,0.884c0.616,0.659,1.446,1.016,2.333,1.016c0.171,0,0.344-0.014,0.518-0.04
		c0.694-0.107,1.342-0.423,1.874-0.906c0.796,0.546,1.777,0.781,2.764,0.652c2.317-0.301,4.049-2.421,3.941-4.829
		C35.258,29.78,34.998,29.529,34.62,29.527z"/>
	<path d="M26.029,29.136c1.044,0,2.075-0.456,2.843-1.261c0.934-0.979,1.392-2.381,1.227-3.751
		c-0.041-0.343-0.359-0.585-0.696-0.546c-0.343,0.042-0.587,0.353-0.546,0.696c0.121,1.004-0.211,2.028-0.889,2.739
		c-0.549,0.575-1.267,0.904-2.007,0.872c-0.678-0.02-1.307-0.331-1.77-0.877c-0.496-0.584-0.755-1.401-0.713-2.242
		c0.013-0.256-0.131-0.494-0.365-0.601c-0.232-0.106-0.508-0.06-0.693,0.118c-0.218,0.209-0.488,0.321-0.742,0.298
		c-0.249-0.016-0.473-0.14-0.648-0.359c-0.428-0.533-0.369-1.421,0.129-1.94c0.239-0.249,0.23-0.645-0.019-0.884
		c-0.249-0.239-0.645-0.23-0.884,0.019c-0.925,0.965-1.015,2.575-0.201,3.588c0.396,0.493,0.943,0.785,1.542,0.824
		c0.237,0.016,0.47-0.01,0.696-0.071c0.135,0.771,0.46,1.488,0.943,2.058c0.695,0.82,1.649,1.288,2.687,1.319
		C25.959,29.136,25.994,29.136,26.029,29.136z"/>
	<path d="M35.202,21.117c-0.747-0.14-1.4-0.58-1.838-1.238c-0.482-0.727-0.649-1.653-0.457-2.544
		c0.073-0.337-0.142-0.67-0.479-0.743c-0.332-0.073-0.67,0.141-0.743,0.479c-0.263,1.218-0.03,2.494,0.638,3.5
		c0.627,0.942,1.567,1.572,2.649,1.775c0.039,0.007,0.078,0.011,0.116,0.011c0.295,0,0.558-0.21,0.613-0.511
		C35.766,21.507,35.541,21.181,35.202,21.117z"/>
	<path d="M24.157,13.607c0.563,0.292,1.173,0.439,1.793,0.439c0.502,0,1.012-0.097,1.509-0.291c0.321-0.125,0.48-0.488,0.355-0.81
		c-0.127-0.323-0.489-0.483-0.811-0.355c-0.769,0.299-1.576,0.267-2.272-0.094c-0.305-0.159-0.684-0.039-0.843,0.268
		S23.851,13.448,24.157,13.607z"/>
</g>
</svg>
