<?xml version="1.0" encoding="utf-8"?>
<!-- Generator: Adobe Illustrator 25.4.1, SVG Export Plug-In . SVG Version: 6.00 Build 0)  -->
<svg version="1.1" id="Capa_4" xmlns="http://www.w3.org/2000/svg" xmlns:xlink="http://www.w3.org/1999/xlink" x="0px" y="0px"
	 viewBox="0 0 50.46 50.46" enable-background="new 0 0 50.46 50.46" xml:space="preserve">
<g>
	<path fill="#1D1D1B" d="M20.406,17.64l0.768-0.768v-0.166v-6.123l-3.561-3.561c-0.54-0.54-1.248-0.81-1.956-0.81
		c-0.708,0-1.416,0.27-1.956,0.81c-1.08,1.08-1.08,2.832,0,3.912L20.406,17.64z"/>
	<path fill="#1D1D1B" d="M10.049,27.997l2.767-2.767l-2.766-2.766h-3.08c-1.528,0-2.766,1.239-2.766,2.766s1.239,2.767,2.766,2.767
		H10.049z"/>
	<path fill="#1D1D1B" d="M43.491,22.464h-3.08l-2.766,2.766l2.766,2.767h3.08c1.528,0,2.766-1.239,2.766-2.767
		S45.018,22.464,43.491,22.464z"/>
	<path fill="#1D1D1B" d="M22.463,40.411v3.08c0,1.528,1.239,2.766,2.767,2.766c1.528,0,2.766-1.239,2.766-2.766v-3.08l-2.766-2.767
		L22.463,40.411z"/>
	<path fill="#1D1D1B" d="M27.997,6.97c0-1.528-1.239-2.767-2.766-2.767c-1.528,0-2.767,1.239-2.767,2.767v8.613l5.533-5.533V6.97z"
		/>
	<path fill="#1D1D1B" d="M23.377,24.318l13.383-13.383c1.08-1.08,1.08-2.832,0-3.912v0c-0.54-0.54-1.248-0.81-1.956-0.81
		c-0.708,0-1.416,0.27-1.956,0.81L19.464,20.406L23.377,24.318z"/>
	<path fill="#1D1D1B" d="M13.728,26.142l-6.705,6.705c-1.08,1.08-1.08,2.832,0,3.912v0c0.54,0.54,1.248,0.81,1.956,0.81
		c0.708,0,1.416-0.27,1.956-0.81l6.705-6.705L13.728,26.142z"/>
	<path fill="#1D1D1B" d="M30.054,32.82l-3.912,3.912l6.705,6.705c0.54,0.54,1.248,0.81,1.956,0.81c0.708,0,1.416-0.27,1.956-0.81
		c1.08-1.08,1.08-2.832,0-3.912L30.054,32.82z"/>
	<path fill="#1D1D1B" d="M20.406,30.996l3.912-3.912L10.935,13.701c-0.54-0.54-1.248-0.81-1.956-0.81
		c-0.708,0-1.416,0.27-1.956,0.81c-1.08,1.08-1.08,2.832,0,3.912L20.406,30.996z"/>
	<path fill="#1D1D1B" d="M36.732,24.318l6.705-6.705c1.08-1.08,1.08-2.832,0-3.912c-0.54-0.54-1.248-0.81-1.956-0.81
		c-0.708,0-1.416,0.27-1.956,0.81l-6.705,6.705L36.732,24.318z"/>
	<path fill="#1D1D1B" d="M27.083,26.142L13.701,39.525c-1.08,1.08-1.08,2.832,0,3.912h0c0.54,0.54,1.248,0.81,1.956,0.81
		c0.708,0,1.416-0.27,1.956-0.81l13.383-13.383L27.083,26.142z"/>
	<path fill="#1D1D1B" d="M30.064,19.474l-3.89,3.935l13.351,13.351c0.54,0.54,1.248,0.81,1.956,0.81c0.708,0,1.416-0.27,1.956-0.81
		c1.08-1.08,1.08-2.832,0-3.912L30.064,19.474z"/>
</g>
</svg>
