<svg id="Layer_1" data-name="Layer 1" xmlns="http://www.w3.org/2000/svg" viewBox="0 0 50.46 50.46"><defs><style>.cls-1{fill:#65b4e1;}</style></defs><title>fuego</title><path class="cls-1" d="M35.61,27.46a31.2,31.2,0,0,0-2.73-4.3C32,22,31.19,20.8,30.33,19.37a5.92,5.92,0,0,1,.91-7.58.88.88,0,0,0-.9-1.48c-4.2,1.63-7.52,3.28-8.85,8.4a15.26,15.26,0,0,0-.12,6.59c0,.22.06.42.09.61A1.5,1.5,0,0,1,21.24,27a1,1,0,0,1-.61.37.83.83,0,0,1-.72-.23,1.33,1.33,0,0,1-.28-1,18.48,18.48,0,0,1,.32-3.1,1.17,1.17,0,0,0-.81-1.46,1.65,1.65,0,0,0-1.85.72,31.1,31.1,0,0,0-3.13,6.73,11.73,11.73,0,0,0-.41,1.47l-.05.24a.71.71,0,0,0,0,.08A11.74,11.74,0,1,0,37,33.63a.9.9,0,0,0,0-.13v-.1c0-.13,0-.25,0-.38A11.6,11.6,0,0,0,35.61,27.46Zm-.4,5.91a.48.48,0,0,0,0,0v0a10,10,0,1,1-19.77-2.31v-.05l0-.14a10.22,10.22,0,0,1,.36-1.29A28.76,28.76,0,0,1,18,24.59a15.08,15.08,0,0,0-.15,1.53,3,3,0,0,0,.77,2.29,2.6,2.6,0,0,0,2.22.76,2.71,2.71,0,0,0,1.78-1,3.18,3.18,0,0,0,.56-2.45c0-.2-.06-.41-.1-.64a13.57,13.57,0,0,1,.08-5.87,8.55,8.55,0,0,1,5-6,7.58,7.58,0,0,0,.63,7.14c.9,1.49,1.81,2.77,2.62,3.9A29.57,29.57,0,0,1,34,28.26,9.88,9.88,0,0,1,35.21,33C35.21,33.11,35.21,33.22,35.2,33.37Z"/><path class="cls-1" d="M25.73,41A4.75,4.75,0,0,1,21,36.22a5.58,5.58,0,0,1,.12-1.08.79.79,0,0,1,.44-.54.8.8,0,0,1,.69,0A2.12,2.12,0,0,0,24.86,34a2.43,2.43,0,0,0,.44-1.83l-.05-.36a7,7,0,0,1,0-2.68.8.8,0,0,1,.71-.63.81.81,0,0,1,.81.48,6,6,0,0,0,.37.71c.51.84,1,1.57,1.45,2.16a15.56,15.56,0,0,1,1.34,2.09,4.74,4.74,0,0,1,.58,2.29v.21h0A4.75,4.75,0,0,1,25.73,41ZM22.6,36.38a3.14,3.14,0,0,0,6.26,0v-.18a3,3,0,0,0-.36-1.45h0l-.06-.12a14.56,14.56,0,0,0-1.2-1.85l-.32-.46a4,4,0,0,1-.79,2.64,3.72,3.72,0,0,1-3.54,1.43Zm7.07,0h0Z"/></svg>