<?xml version="1.0" encoding="utf-8"?>
<!-- Generator: Adobe Illustrator 18.0.0, SVG Export Plug-In . SVG Version: 6.00 Build 0)  -->
<!DOCTYPE svg PUBLIC "-//W3C//DTD SVG 1.1//EN" "http://www.w3.org/Graphics/SVG/1.1/DTD/svg11.dtd">
<svg version="1.1" id="Layer_1" xmlns="http://www.w3.org/2000/svg" xmlns:xlink="http://www.w3.org/1999/xlink" x="0px" y="0px"
	 viewBox="0 0 50.5 50.5" style="enable-background:new 0 0 50.5 50.5;" xml:space="preserve">
<style type="text/css">
	.st0{fill:#65B4E1;}
</style>
<path class="st0" d="M41.6,11.6c-2.7,0-5.5,2.7-7.5,1c-0.1-0.1-2.1-2-4.4-3.1h0c0,0-2.2-1.1-4.4-1.1c-0.7,0-1.8,0.2-2.4,0.4
	c-3.7,1.3-6.1,3.8-6.1,3.9c-1.9,1.7-4.8-1-7.5-1c-2.9,0-6,4-6,4c0,0,2.3,2.2,4.9,2.3c2.6,0.1,6.5-2.2,6.5-2.2l4,16.8
	c-0.2,0.1-0.4,0.1-0.5,0.2c-0.9,0.6-1.4,1.7-1.5,3.2c-0.1,2.1,0.4,3.8,1.3,4.7c0.7,0.7,1.6,1,2.9,1c0.6,0,2.6,0,4.5,0
	c1.9,0,3.9,0,4.5,0c1.2,0,2.2-0.3,2.9-1c0.9-0.9,1.3-2.5,1.3-4.7c-0.1-1.6-0.6-2.7-1.5-3.2c-0.2-0.1-0.3-0.2-0.5-0.2l4.1-16.8
	c0,0,3.8,2.4,6.5,2.2c2.6-0.1,4.9-2.3,4.9-2.3C47.5,15.6,44.5,11.6,41.6,11.6z M18.4,22.2c-0.5,0-0.9-0.5-0.9-1c0-0.5,0.5-0.9,1-0.9
	c0.5,0,0.9,0.5,0.9,1C19.4,21.8,19,22.2,18.4,22.2z M20.7,38.2c-0.7,0-1.2-0.6-1.2-1.3c0-0.7,0.6-1.2,1.3-1.2c0.7,0,1.2,0.6,1.2,1.3
	C22,37.7,21.4,38.2,20.7,38.2z M25.4,33.4c-0.4,0-1.8,0-3.1-0.4c0.3-0.7,0.6-1.7,1.1-3.3c1.4-4.7,0.9-7.9,0.6-8.8
	c-0.8-2.7-2.1-4.8-3.4-6.3c0.4,0.1,3.4,1.2,4.8,1.2c1.3,0,4.3-1,4.7-1.2c-1.2,1.5-2.6,3.6-3.4,6.3c-0.3,0.9-0.8,4.1,0.6,8.8
	c0.5,1.5,0.8,2.6,1.1,3.3C27.2,33.4,25.8,33.4,25.4,33.4z M30.5,38.2c-0.7,0-1.3-0.5-1.3-1.2c0-0.7,0.5-1.3,1.2-1.3
	c0.7,0,1.3,0.5,1.3,1.2C31.7,37.6,31.2,38.2,30.5,38.2z M32.4,22.1c-0.5,0-1-0.4-1-0.9c0-0.5,0.4-1,0.9-1c0.5,0,1,0.4,1,0.9
	C33.3,21.7,32.9,22.1,32.4,22.1z"/>
</svg>
