<svg xmlns="http://www.w3.org/2000/svg" viewBox="0 0 50.46 50.46">
  <title>Iconos</title>
  <path d="M41.56,11.61c-2.67,0-5.54,2.66-7.48,1A18,18,0,0,0,29.68,9.5h0a11.29,11.29,0,0,0-4.41-1.13,9.06,9.06,0,0,0-2.4.4,16.82,16.82,0,0,0-6.14,3.86c-1.94,1.67-4.81-1-7.48-1-2.93,0-6,4-6,4A8.84,8.84,0,0,0,8.22,18c2.65,0.13,6.49-2.25,6.49-2.25l4,16.79a2.57,2.57,0,0,0-.51.21,3.73,3.73,0,0,0-1.48,3.23c-0.08,2.14.36,3.75,1.27,4.67a3.72,3.72,0,0,0,2.87,1c0.63,0,2.57,0,4.51,0s3.87,0,4.51,0a3.77,3.77,0,0,0,2.87-1c0.91-.92,1.34-2.53,1.27-4.67a3.73,3.73,0,0,0-1.47-3.23,2.57,2.57,0,0,0-.52-0.22l4.05-16.8s3.85,2.37,6.49,2.25a8.84,8.84,0,0,0,4.9-2.34S44.49,11.58,41.56,11.61ZM18.45,22.16a1,1,0,1,1,1-.91A1,1,0,0,1,18.45,22.16Zm2.29,16A1.26,1.26,0,1,1,22.06,37,1.26,1.26,0,0,1,20.74,38.19Zm4.67-4.81A10.07,10.07,0,0,1,22.34,33c0.26-.72.6-1.75,1.06-3.26,1.43-4.7.93-7.89,0.64-8.81a18.62,18.62,0,0,0-3.39-6.31,21.09,21.09,0,0,0,4.78,1.17,21.18,21.18,0,0,0,4.74-1.18,18.62,18.62,0,0,0-3.39,6.31c-0.29.92-.79,4.11,0.64,8.81,0.46,1.52.81,2.56,1.06,3.27A10.2,10.2,0,0,1,25.4,33.38Zm5.12,4.81a1.26,1.26,0,1,1,1.18-1.32A1.26,1.26,0,0,1,30.53,38.19Zm1.86-16.06a1,1,0,1,1,.91-1A1,1,0,0,1,32.38,22.14Z" fill="#00b5e4"/>
</svg>
