<svg id="e0313e15-54c2-4474-9225-1a3be5dcc28e" data-name="stroke 1,6" xmlns="http://www.w3.org/2000/svg" viewBox="0 0 50.46 50.46"><path d="M27.849,15.231s-.78-8.374,6.618-8.549l-.085,8.475" fill="none" stroke="#000" stroke-linecap="round" stroke-linejoin="round" stroke-width="1.6"/><circle cx="30.91" cy="21.359" r="1.997"/><path d="M29.629,33.785v7.271a1.806,1.806,0,0,0,.17.761,15.31,15.31,0,0,1,1.041,3.016l.022.081A23.56,23.56,0,0,1,8.275,36.363a21.668,21.668,0,0,0,3.667-9.4,36.241,36.241,0,0,1,1.685-6.617c1.962-5.374,6.018-13.9,12.433-15.654L27.79,15.4h5.486a3.5,3.5,0,0,1,2.672,1.215A13.156,13.156,0,0,1,38.5,22.97a6.942,6.942,0,0,0,2.927,2.3,1.113,1.113,0,0,1,.759,1.1c-.094,2.023-1,6.757-7.362,7.1-8.111.433-8.544-.216-8.544-.216s.433.649,8.544.216c6.364-.339,7.268-5.073,7.362-7.1a1.113,1.113,0,0,0-.759-1.1,6.942,6.942,0,0,1-2.927-2.3,13.156,13.156,0,0,0-2.548-6.355A3.5,3.5,0,0,0,33.276,15.4H27.79L26.06,4.694c-6.415,1.75-10.471,10.28-12.433,15.654a36.241,36.241,0,0,0-1.685,6.617,21.668,21.668,0,0,1-3.667,9.4" fill="none" stroke="#000" stroke-linecap="round" stroke-linejoin="round" stroke-width="1.6"/><path d="M29.8,41.817a1.806,1.806,0,0,1-.17-.761" fill="none" stroke="#000" stroke-linecap="round" stroke-linejoin="round" stroke-width="1.6"/><path d="M40.968,28.324a2.6,2.6,0,0,1-1.344-1.278,3.242,3.242,0,0,1,.083-2.615" fill="none" stroke="#000" stroke-linecap="round" stroke-linejoin="round" stroke-width="1.2"/><path d="M18.1,24.208c4.428.884,7.631,1.156,12.059,2.041" fill="none" stroke="#000" stroke-linecap="round" stroke-linejoin="round" stroke-width="1.371"/><path d="M29.755,28.944l-10,.164" fill="none" stroke="#000" stroke-linecap="round" stroke-linejoin="round" stroke-width="1.371"/><path d="M10.318,34.14a23.084,23.084,0,0,0,19.521,7.892" fill="none" stroke="#000" stroke-linecap="round" stroke-linejoin="round" stroke-width="1.2"/></svg>