<svg xmlns="http://www.w3.org/2000/svg" viewBox="0 0 50.46 50.46">
  <title>Iconos</title>
  <g>
    <path d="M21.9,41.87l0-.06H36.59A2.44,2.44,0,0,0,39,39.38L38.93,13.45l1.76-.84V39.38a4.11,4.11,0,0,1-4.1,4.1H19l0.79-.24A4.74,4.74,0,0,0,21.9,41.87Z" fill="#00b5e4"/>
    <path d="M9.07,36.95V9.72a4.1,4.1,0,0,1,4.1-4.1H31L29.88,7.23l0,0.05H13.17a2.44,2.44,0,0,0-2.43,2.43v26Z" fill="#00b5e4"/>
    <path d="M12,38.45v1.82a0.42,0.42,0,0,0,.12.29,0.4,0.4,0,0,0,.29.12c2.24,0,4.55,0,6.66-2.62l0.26-.32-0.06.4c-0.51,3.66-2.76,5.54-6.88,5.75a0.4,0.4,0,0,0-.38.4v1.82L6.68,42.29l5.17-3.71Z" fill="#00b5e4"/>
    <path d="M32,12.28l6.42-1.44L37,9.63a0.42,0.42,0,0,1-.14-0.28A0.4,0.4,0,0,1,37,9.06c1.49-1.67,3-3.4,6.39-3.23l0.41,0-0.34-.23c-3.07-2.05-6-1.62-8.87,1.32h0A0.4,0.4,0,0,1,34,7L32.65,5.74Z" fill="#00b5e4"/>
  </g>
  <path d="M26,29.13l1.18,0.65c1.71-1.06,3.17-2.4,3.17-4.55a4.33,4.33,0,0,0-1.29-3.08,10.85,10.85,0,0,0-2.5-1.83l-1.23-.68-0.14-.08c-0.38-.2-0.75-0.41-1.11-0.61a4.67,4.67,0,0,1-.84-0.62c-0.11-.1-0.21-0.21-0.31-0.32h4.51a4.73,4.73,0,0,1-1.15.94l-0.46.26c0.44,0.23.88,0.48,1.33,0.74a7.79,7.79,0,0,0,3.18-5.66,0.66,0.66,0,0,0-.61-0.7h0a0.66,0.66,0,0,0-.66.62,7,7,0,0,1-.24,1.24H21.63a7,7,0,0,1-.24-1.24,0.66,0.66,0,0,0-.66-0.62h0a0.66,0.66,0,0,0-.61.7,8.57,8.57,0,0,0,1.47,4,6.16,6.16,0,0,0,1.92,1.76l0.4,0.22,0.89,0.48,0.48,0.26a19.25,19.25,0,0,1,1.83,1.09,7.05,7.05,0,0,1,1,.82H22.41a10,10,0,0,1,2.18-1.56l-0.13-.07-1.21-.66c-1.71,1.06-3.18,2.4-3.18,4.55a4.27,4.27,0,0,0,1.14,2.91,10.33,10.33,0,0,0,2.65,2l1.23,0.68,0.14,0.07c0.38,0.2.75,0.41,1.11,0.61a4.36,4.36,0,0,1,.6.42c0.12,0.1.25,0.21,0.36,0.32H23.17a4.62,4.62,0,0,1,1-.74l0.46-.26c-0.44-.23-0.88-0.48-1.33-0.74a7.79,7.79,0,0,0-3.18,5.66,0.66,0.66,0,1,0,1.31.08,7.2,7.2,0,0,1,.3-1.43h7.08a7.19,7.19,0,0,1,.3,1.43,0.66,0.66,0,1,0,1.31-.08,8.5,8.5,0,0,0-1.62-4.23A6.12,6.12,0,0,0,27,30.36l-0.4-.22-0.89-.48-0.48-.26a17.32,17.32,0,0,1-2.06-1.26,6.58,6.58,0,0,1-.76-0.65h5.64A10,10,0,0,1,25.87,29Zm-4.2-13.06h6.81A6.56,6.56,0,0,1,28,17.4H22.5A6.57,6.57,0,0,1,21.83,16.07Zm6.72,18.13H21.91a6.32,6.32,0,0,1,.73-1.33h5.18A6.32,6.32,0,0,1,28.55,34.19ZM21.9,23.59h6.65A2.92,2.92,0,0,1,29,24.92H21.41A2.92,2.92,0,0,1,21.9,23.59Zm0,3.28a2.92,2.92,0,0,1-.49-1.33H29a2.92,2.92,0,0,1-.49,1.33H21.9Z" fill="#00b5e4"/>
</svg>
