<?xml version="1.0" encoding="utf-8"?>
<!-- Generator: Adobe Illustrator 18.0.0, SVG Export Plug-In . SVG Version: 6.00 Build 0)  -->
<!DOCTYPE svg PUBLIC "-//W3C//DTD SVG 1.1//EN" "http://www.w3.org/Graphics/SVG/1.1/DTD/svg11.dtd">
<svg version="1.1" id="Layer_1" xmlns="http://www.w3.org/2000/svg" xmlns:xlink="http://www.w3.org/1999/xlink" x="0px" y="0px"
	 viewBox="0 0 50.5 50.5" style="enable-background:new 0 0 50.5 50.5;" xml:space="preserve">
<style type="text/css">
	.st0{fill:#65B4E1;}
</style>
<path class="st0" d="M23.5,18.6c-0.7-0.4-1.4-0.8-2.1-1.1c-3,1.9-5.6,4.2-5.6,8c0,2.2,0.9,4,2.3,5.4c1.2,1.3,2.8,2.3,4.4,3.2
	c0.7,0.4,1.5,0.8,2.2,1.2c0.1,0,0.2,0.1,0.2,0.1c0.7,0.4,1.3,0.7,1.9,1.1c0.6,0.3,1,0.7,1.5,1.1c0.2,0.2,0.4,0.4,0.5,0.6H21
	c0.6-0.6,1.2-1.2,2-1.7c0.3-0.2,0.5-0.3,0.8-0.5c-0.8-0.4-1.6-0.8-2.3-1.3c-5.1,3.3-5.6,9.7-5.6,10c0,0.6,0.4,1.2,1.1,1.2
	c0,0,0.1,0,0.1,0c0.6,0,1.1-0.5,1.2-1.1c0,0,0.1-0.9,0.4-2.2h12.7c0.3,1.2,0.4,2.2,0.4,2.2c0,0.6,0.5,1.1,1.2,1.1c0,0,0,0,0.1,0
	c0.6,0,1.1-0.6,1.1-1.2c0-0.2-0.3-3.9-2.6-7.1c-0.8-1.2-1.9-2.3-3.4-3.1c-0.2-0.1-0.5-0.3-0.7-0.4c-0.5-0.3-1-0.6-1.6-0.9
	c-0.3-0.2-0.6-0.3-0.8-0.5c-1.1-0.6-2.2-1.2-3.2-1.9c-0.6-0.5-1.2-0.9-1.7-1.4h9.9c-1,1-2.4,1.9-3.8,2.7c0.1,0,0.2,0.1,0.2,0.1
	c0.8,0.4,1.5,0.8,2.1,1.2c3-1.9,5.6-4.2,5.6-8c0-2.1-0.8-3.7-2-5.1c-1.2-1.4-2.9-2.5-4.7-3.5c-0.7-0.4-1.5-0.8-2.2-1.2
	c-0.1,0-0.2-0.1-0.2-0.1c-0.7-0.4-1.3-0.7-1.9-1.1c-0.4-0.2-0.7-0.5-1-0.7c-0.2-0.2-0.4-0.4-0.6-0.6h7.2c-0.5,0.5-1,0.9-1.7,1.3
	c-0.3,0.2-0.5,0.3-0.8,0.5c0.8,0.4,1.6,0.8,2.3,1.3c5.1-3.3,5.6-9.7,5.6-10c0-0.6-0.4-1.2-1.1-1.2c-0.6,0-1.2,0.4-1.2,1.1
	c0,0-0.1,1.1-0.5,2.5H18.7c-0.4-1.4-0.5-2.5-0.5-2.5c0-0.6-0.6-1.1-1.2-1.1c-0.6,0-1.1,0.6-1.1,1.2c0,0.2,0.3,4.2,2.8,7.4
	c0.8,1,1.8,2,3.1,2.7c0.2,0.1,0.5,0.3,0.7,0.4c0.5,0.3,1,0.6,1.6,0.9c0.3,0.2,0.6,0.3,0.8,0.5c1.3,0.7,2.5,1.4,3.6,2.2
	c0.5,0.4,0.9,0.7,1.3,1.2H20c1-1,2.4-1.9,3.8-2.7C23.7,18.7,23.6,18.6,23.5,18.6z M30.9,41.5H19c0.3-0.8,0.7-1.6,1.2-2.3h9.6
	C30.3,40,30.7,40.8,30.9,41.5z M19.1,9.6h11.7c-0.3,0.8-0.7,1.6-1.3,2.3h-9.1C19.8,11.2,19.4,10.4,19.1,9.6z M30.8,28.3H19.1
	c-0.5-0.7-0.8-1.5-0.9-2.3h13.4C31.6,26.8,31.3,27.6,30.8,28.3z M30.8,22.5c0.5,0.7,0.8,1.5,0.9,2.3H18.2c0.1-0.9,0.4-1.6,0.9-2.3
	H30.8z"/>
</svg>
