<svg id="Layer_1" data-name="Layer 1" xmlns="http://www.w3.org/2000/svg" viewBox="0 0 50.46 50.46"><defs><style>.cls-1{fill:#00b5e4;}</style></defs><title>Iconos</title><path class="cls-1" d="M28.21,42.33l0-.06H13.52a2.44,2.44,0,0,1-2.44-2.43V14.27l-1.67-1.2V39.83a4.11,4.11,0,0,0,4.1,4.1H31.08l-0.79-.24A4.74,4.74,0,0,1,28.21,42.33Z"/><path class="cls-1" d="M41,37.4V10.17a4.1,4.1,0,0,0-4.1-4.1H19.08l0.67,0.24A4.72,4.72,0,0,1,22,7.68l0,0.05H36.95a2.44,2.44,0,0,1,2.43,2.43v26Z"/><path class="cls-1" d="M37.19,37.52v2a0.46,0.46,0,0,1-.13.32,0.44,0.44,0,0,1-.32.13c-2.49,0-5.06,0-7.4-2.91l-0.28-.35,0.06,0.45c0.57,4.07,3.07,6.16,7.65,6.39a0.45,0.45,0,0,1,.42.45v2l5.94-4.25-5.75-4.12Z"/><path class="cls-1" d="M7.7,8.69L13.65,13v-2a0.46,0.46,0,0,1,.13-0.32,0.45,0.45,0,0,1,.32-0.13c2.49,0,5.06,0,7.4,2.91l0.28,0.35-0.06-.45c-0.57-4.07-3.07-6.16-7.65-6.39h0a0.45,0.45,0,0,1-.42-0.45v-2Z"/><path class="cls-1" d="M26.3,28.9l1.08,0.59c1.56-1,2.89-2.18,2.89-4.14a3.94,3.94,0,0,0-1.17-2.8,9.86,9.86,0,0,0-2.27-1.67l-1.12-.61-0.13-.07-1-.55a4.24,4.24,0,0,1-.76-0.57l-0.28-.29h4.1a4.3,4.3,0,0,1-1,.86l-0.42.24c0.4,0.21.8,0.44,1.21,0.68a7.08,7.08,0,0,0,2.89-5.14,0.6,0.6,0,0,0-.56-0.64h0a0.6,0.6,0,0,0-.6.56,6.34,6.34,0,0,1-.22,1.12H22.3a6.35,6.35,0,0,1-.22-1.12,0.6,0.6,0,0,0-.6-0.56h0a0.6,0.6,0,0,0-.56.64,7.79,7.79,0,0,0,1.34,3.67A5.6,5.6,0,0,0,24,20.68l0.36,0.2,0.81,0.44,0.44,0.24a17.5,17.5,0,0,1,1.66,1,6.41,6.41,0,0,1,.9.75H23a9.11,9.11,0,0,1,2-1.42l-0.12-.07-1.1-.6c-1.56,1-2.89,2.18-2.89,4.14a3.88,3.88,0,0,0,1,2.64,9.39,9.39,0,0,0,2.41,1.82l1.12,0.62,0.13,0.07,1,0.55a4,4,0,0,1,.54.39c0.11,0.09.22,0.19,0.33,0.29H23.7a4.2,4.2,0,0,1,.87-0.68L25,30.82c-0.4-.21-0.8-0.44-1.21-0.68a7.08,7.08,0,0,0-2.89,5.15,0.6,0.6,0,1,0,1.19.08,6.55,6.55,0,0,1,.27-1.3h6.44a6.54,6.54,0,0,1,.27,1.3,0.6,0.6,0,1,0,1.19-.08,7.72,7.72,0,0,0-1.47-3.85A5.56,5.56,0,0,0,27.18,30l-0.36-.2L26,29.38l-0.44-.24A15.74,15.74,0,0,1,23.7,28,6,6,0,0,1,23,27.4h5.13a9.08,9.08,0,0,1-2,1.42ZM22.48,17h6.19a6,6,0,0,1-.62,1.21h-5A6,6,0,0,1,22.48,17ZM28.59,33.5h-6a5.74,5.74,0,0,1,.66-1.21h4.71A5.74,5.74,0,0,1,28.59,33.5Zm-6-9.64h6A2.66,2.66,0,0,1,29,25.07H22.1A2.66,2.66,0,0,1,22.55,23.86Zm0,3a2.66,2.66,0,0,1-.44-1.21H29a2.66,2.66,0,0,1-.45,1.21h-6Z"/></svg>