<?xml version="1.0" encoding="utf-8"?>
<!-- Generator: Adobe Illustrator 18.0.0, SVG Export Plug-In . SVG Version: 6.00 Build 0)  -->
<!DOCTYPE svg PUBLIC "-//W3C//DTD SVG 1.1//EN" "http://www.w3.org/Graphics/SVG/1.1/DTD/svg11.dtd">
<svg version="1.1" id="Layer_1" xmlns="http://www.w3.org/2000/svg" xmlns:xlink="http://www.w3.org/1999/xlink" x="0px" y="0px"
	 viewBox="0 0 50.5 50.5" style="enable-background:new 0 0 50.5 50.5;" xml:space="preserve">
<style type="text/css">
	.st0{fill:#65B4E1;}
</style>
<path class="st0" d="M28.2,42.3L28.2,42.3l-14.7-0.1c-1.3,0-2.4-1.1-2.4-2.4V14.3l-1.7-1.2v26.8c0,2.3,1.8,4.1,4.1,4.1h17.6
	l-0.8-0.2C29.6,43.5,28.5,42.8,28.2,42.3z"/>
<path class="st0" d="M41,37.4V10.2c0-2.3-1.8-4.1-4.1-4.1H19.1l0.7,0.2c1.1,0.4,1.9,0.9,2.2,1.4l0,0.1h14.9c1.3,0,2.4,1.1,2.4,2.4
	v26L41,37.4z"/>
<path class="st0" d="M37.2,37.5v2c0,0.1,0,0.2-0.1,0.3C37,39.9,36.9,40,36.7,40c-2.5,0-5.1,0-7.4-2.9l-0.3-0.4l0.1,0.4
	c0.6,4.1,3.1,6.2,7.6,6.4c0.2,0,0.4,0.2,0.4,0.4v2l5.9-4.3l-5.7-4.1L37.2,37.5z"/>
<path class="st0" d="M7.7,8.7l5.9,4.3v-2c0-0.1,0-0.2,0.1-0.3c0.1-0.1,0.2-0.1,0.3-0.1c2.5,0,5.1,0,7.4,2.9l0.3,0.4l-0.1-0.4
	c-0.6-4.1-3.1-6.2-7.6-6.4h0c-0.2,0-0.4-0.2-0.4-0.4v-2L7.7,8.7z"/>
<path class="st0" d="M26.3,28.9c0.4,0.2,0.7,0.4,1.1,0.6c1.6-1,2.9-2.2,2.9-4.1c0-1.2-0.5-2.1-1.2-2.8c-0.6-0.7-1.4-1.2-2.3-1.7
	c-0.4-0.2-0.7-0.4-1.1-0.6c0,0-0.1,0-0.1-0.1c-0.3-0.2-0.7-0.4-1-0.6c-0.3-0.2-0.5-0.4-0.8-0.6c-0.1-0.1-0.2-0.2-0.3-0.3h4.1
	c-0.3,0.3-0.6,0.6-1,0.9c-0.1,0.1-0.3,0.2-0.4,0.2c0.4,0.2,0.8,0.4,1.2,0.7c2.6-1.7,2.9-5,2.9-5.1c0-0.3-0.2-0.6-0.6-0.6
	c0,0,0,0,0,0c-0.3,0-0.6,0.2-0.6,0.6c0,0,0,0.5-0.2,1.1h-6.6c-0.2-0.6-0.2-1.1-0.2-1.1c0-0.3-0.3-0.6-0.6-0.6c0,0,0,0,0,0
	c-0.3,0-0.6,0.3-0.6,0.6c0,0.1,0.2,2,1.3,3.7c0.4,0.6,1,1.2,1.7,1.6c0.1,0.1,0.2,0.1,0.4,0.2c0.3,0.1,0.5,0.3,0.8,0.4
	c0.1,0.1,0.3,0.2,0.4,0.2c0.6,0.3,1.2,0.6,1.7,1c0.3,0.2,0.6,0.5,0.9,0.7H23c0.5-0.5,1.2-1,2-1.4c0,0-0.1,0-0.1-0.1
	c-0.4-0.2-0.8-0.4-1.1-0.6c-1.6,1-2.9,2.2-2.9,4.1c0,1.1,0.4,1.9,1,2.6c0.6,0.7,1.5,1.3,2.4,1.8c0.4,0.2,0.7,0.4,1.1,0.6
	c0,0,0.1,0,0.1,0.1c0.3,0.2,0.7,0.4,1,0.6c0.2,0.1,0.4,0.2,0.5,0.4c0.1,0.1,0.2,0.2,0.3,0.3h-3.7c0.3-0.3,0.5-0.5,0.9-0.7
	c0.1-0.1,0.3-0.2,0.4-0.2c-0.4-0.2-0.8-0.4-1.2-0.7c-2.6,1.7-2.9,5-2.9,5.1c0,0.3,0.2,0.6,0.6,0.6c0.3,0,0.6-0.2,0.6-0.6
	c0,0,0-0.6,0.3-1.3h6.4c0.2,0.7,0.3,1.3,0.3,1.3c0,0.3,0.3,0.6,0.6,0.6c0.3,0,0.6-0.3,0.6-0.6c0-0.1-0.2-2.2-1.5-3.8
	c-0.4-0.5-0.9-1-1.6-1.4c-0.1-0.1-0.2-0.1-0.4-0.2c-0.3-0.1-0.5-0.3-0.8-0.4c-0.1-0.1-0.3-0.2-0.4-0.2c-0.7-0.4-1.3-0.7-1.9-1.1
	c-0.3-0.2-0.5-0.4-0.7-0.6h5.1c-0.5,0.5-1.2,1-2,1.4C26.2,28.8,26.2,28.9,26.3,28.9z M22.5,17h6.2c-0.1,0.4-0.3,0.8-0.6,1.2h-5
	C22.8,17.8,22.6,17.4,22.5,17z M28.6,33.5h-6c0.2-0.4,0.4-0.8,0.7-1.2h4.7C28.2,32.7,28.4,33.1,28.6,33.5z M22.6,23.9h6
	c0.2,0.4,0.4,0.8,0.4,1.2h-6.9C22.1,24.6,22.3,24.2,22.6,23.9z M22.5,26.8c-0.2-0.4-0.4-0.8-0.4-1.2H29c0,0.4-0.2,0.8-0.4,1.2H22.5z
	"/>
</svg>
