<svg xmlns="http://www.w3.org/2000/svg" viewBox="0 0 50.46 50.46">
  <title>Iconos</title>
  <path d="M23.54,18.56c-0.7-.37-1.41-0.76-2.08-1.14-3,1.87-5.59,4.23-5.59,8a7.62,7.62,0,0,0,2.27,5.42,19.08,19.08,0,0,0,4.39,3.23c0.72,0.41,1.45.81,2.17,1.19l0.25,0.13c0.67,0.36,1.33.71,1.95,1.07a8.22,8.22,0,0,1,1.48,1.1c0.19,0.18.37,0.37,0.54,0.56H21a8.33,8.33,0,0,1,2-1.66L23.81,36c-0.77-.41-1.55-0.84-2.34-1.31-5.1,3.25-5.58,9.68-5.6,10A1.16,1.16,0,0,0,17,45.88H17a1.16,1.16,0,0,0,1.15-1.08,12.28,12.28,0,0,1,.42-2.18H31.29a12.28,12.28,0,0,1,.42,2.18,1.16,1.16,0,0,0,1.15,1.08h0.08A1.16,1.16,0,0,0,34,44.65a15.08,15.08,0,0,0-2.59-7.1,10.84,10.84,0,0,0-3.37-3.1l-0.7-.39-1.57-.85-0.85-.46a33.89,33.89,0,0,1-3.22-1.92A12.41,12.41,0,0,1,20,29.39h9.93a17.64,17.64,0,0,1-3.84,2.74l0.23,0.13c0.77,0.41,1.47.79,2.13,1.17,3-1.87,5.59-4.23,5.59-8a7.51,7.51,0,0,0-2-5.12,18.18,18.18,0,0,0-4.66-3.52c-0.72-.41-1.45-0.81-2.17-1.19l-0.24-.13c-0.67-.36-1.33-0.71-1.95-1.07a7.67,7.67,0,0,1-1-.75c-0.22-.18-0.43-0.37-0.63-0.56h7.25a8.16,8.16,0,0,1-1.68,1.31l-0.81.46c0.77,0.41,1.55.84,2.34,1.31,5.1-3.25,5.58-9.68,5.6-10A1.16,1.16,0,1,0,31.71,6a12.66,12.66,0,0,1-.53,2.52H18.71A12.66,12.66,0,0,1,18.19,6a1.16,1.16,0,0,0-2.31.15,15,15,0,0,0,2.85,7.45,10.78,10.78,0,0,0,3.11,2.75l0.7,0.39,1.56,0.85,0.85,0.46a30.5,30.5,0,0,1,3.62,2.21,11.59,11.59,0,0,1,1.34,1.15H20a17.58,17.58,0,0,1,3.84-2.74Zm7.39,23H19a11.56,11.56,0,0,1,1.19-2.35h9.6A11.56,11.56,0,0,1,30.94,41.54ZM19.1,9.64H30.79A11.12,11.12,0,0,1,29.5,12H20.39A11.12,11.12,0,0,1,19.1,9.64ZM30.8,28.31H19.09A5.15,5.15,0,0,1,18.22,26H31.67A5.15,5.15,0,0,1,30.8,28.31Zm0-5.77a5.14,5.14,0,0,1,.86,2.35H18.22a5.15,5.15,0,0,1,.87-2.35H30.8Z" fill="#00b5e4"/>
</svg>
