<?xml version="1.0" encoding="utf-8"?>
<!-- Generator: Adobe Illustrator 24.0.1, SVG Export Plug-In . SVG Version: 6.00 Build 0)  -->
<svg version="1.1" id="Layer_1" xmlns="http://www.w3.org/2000/svg" xmlns:xlink="http://www.w3.org/1999/xlink" x="0px" y="0px"
	 viewBox="0 0 50.5 50.5" style="enable-background:new 0 0 50.5 50.5;" xml:space="preserve">
<g>
	<path d="M48.977,44.866c-0.005-0.025,0.002-0.05-0.005-0.075l-3.752-11.88c-0.01-0.033-0.03-0.062-0.045-0.093
		c-0.012-0.026-0.022-0.052-0.037-0.077c-0.006-0.01-0.009-0.023-0.016-0.033l-6.67-9.972c-0.002-0.002-0.004-0.004-0.006-0.006
		c-0.011-0.016-0.027-0.026-0.039-0.041c-0.009-0.011-0.019-0.02-0.028-0.03c-0.024-0.027-0.046-0.053-0.073-0.077
		c-0.022-0.019-0.041-0.038-0.065-0.055c-0.028-0.019-0.06-0.03-0.09-0.046c-0.003-0.002-0.006-0.003-0.009-0.005
		c-0.028-0.014-0.053-0.031-0.082-0.042c-0.012-0.005-0.022-0.014-0.034-0.018L25.489,18.48c-0.154-0.049-0.324-0.049-0.479,0
		l-12.537,3.938c-0.013,0.004-0.022,0.013-0.034,0.018c-0.029,0.01-0.053,0.027-0.08,0.041c-0.004,0.002-0.007,0.004-0.011,0.005
		c-0.03,0.016-0.062,0.027-0.09,0.046c-0.023,0.016-0.043,0.036-0.065,0.054c-0.027,0.023-0.049,0.05-0.073,0.077
		c-0.009,0.01-0.019,0.019-0.028,0.029c-0.012,0.015-0.028,0.025-0.039,0.041c-0.002,0.002-0.004,0.004-0.006,0.006l-6.67,9.972
		c-0.005,0.008-0.008,0.018-0.013,0.027c-0.016,0.026-0.026,0.054-0.039,0.082c-0.015,0.032-0.035,0.061-0.046,0.095l-3.752,11.88
		c-0.008,0.024,0,0.05-0.005,0.075c-0.016,0.075-0.022,0.149-0.016,0.225c0.003,0.042,0.006,0.08,0.016,0.121
		c0.017,0.074,0.049,0.142,0.088,0.21c0.015,0.026,0.017,0.058,0.035,0.083c0.007,0.009,0.019,0.013,0.026,0.022
		c0.009,0.011,0.011,0.024,0.02,0.035c0.044,0.05,0.101,0.076,0.154,0.113c0.036,0.025,0.065,0.058,0.104,0.076
		c0.108,0.051,0.224,0.082,0.342,0.082h45.918c0.118,0,0.234-0.03,0.342-0.082c0.039-0.018,0.067-0.051,0.102-0.075
		c0.052-0.036,0.11-0.063,0.154-0.113c0.009-0.01,0.012-0.024,0.02-0.035c0.007-0.009,0.019-0.013,0.026-0.022
		c0.018-0.025,0.02-0.057,0.035-0.084c0.038-0.067,0.07-0.134,0.087-0.207c0.01-0.041,0.013-0.08,0.016-0.123
		C48.999,45.014,48.993,44.941,48.977,44.866z M24.45,44.232h-4.14v-4.931c0-2.445,1.797-4.465,4.14-4.85V44.232z M26.05,34.452
		c2.342,0.385,4.14,2.405,4.14,4.85v4.931h-4.14V34.452z M25.25,32.771c-3.605,0-6.539,2.93-6.539,6.53v4.931h-1.401l-1.742-9.691
		l9.684-5.103l9.687,5.073l-1.747,9.72h-1.401v-4.931C31.789,35.701,28.856,32.771,25.25,32.771z M6.608,34.019l6.184,0.683
		l-8.871,7.825L6.608,34.019z M43.056,32.497l-6.251,0.666l1.418-7.89L43.056,32.497z M35.235,32.861l-8.12-4.252l9.623-4.109
		L35.235,32.861z M26.05,27.324v-6.991l9.432,2.963L26.05,27.324z M24.45,27.324l-9.432-4.028l9.432-2.963V27.324z M23.39,28.611
		l-8.12,4.278l-1.508-8.39L23.39,28.611z M12.276,25.273l1.424,7.921l-6.26-0.692L12.276,25.273z M14.141,35.646l1.544,8.587H4.407
		L14.141,35.646z M36.364,35.619l9.734,8.614H34.816L36.364,35.619z M37.713,34.676l6.178-0.658l2.685,8.502L37.713,34.676z"/>
	<path d="M7.9,17.428h3.353c1.239,0,2.277-0.878,2.524-2.046h7.263c1.423,0,2.581-1.158,2.581-2.581s-1.158-2.581-2.581-2.581h-9.78
		c-1.24,0-2.278,0.878-2.525,2.046H7.9c-1.423,0-2.58,1.158-2.58,2.581S6.478,17.428,7.9,17.428z M7.9,13.867h1.601
		c0.233,0,0.456-0.102,0.608-0.28c0.151-0.178,0.218-0.413,0.182-0.645c-0.007-0.046-0.013-0.093-0.013-0.141
		c0-0.541,0.44-0.981,0.981-0.981h9.78c0.541,0,0.981,0.44,0.981,0.981s-0.44,0.981-0.981,0.981h-8.028
		c-0.232,0-0.453,0.101-0.605,0.276c-0.151,0.176-0.22,0.409-0.187,0.639c0.008,0.049,0.014,0.099,0.014,0.149
		c0,0.541-0.44,0.981-0.98,0.981H7.9c-0.541,0-0.98-0.44-0.98-0.981S7.359,13.867,7.9,13.867z"/>
	<path d="M29.499,9.829h0.834c0.247,1.167,1.285,2.046,2.524,2.046h9.781c1.423,0,2.581-1.158,2.581-2.581s-1.158-2.581-2.581-2.581
		h-7.263c-0.247-1.167-1.285-2.046-2.524-2.046h-3.353c-1.423,0-2.58,1.158-2.58,2.581S28.076,9.829,29.499,9.829z M29.499,6.268
		h3.353c0.54,0,0.98,0.44,0.98,0.981c0,0.051-0.006,0.101-0.014,0.149c-0.033,0.23,0.035,0.463,0.187,0.639
		c0.152,0.176,0.373,0.276,0.605,0.276h8.028c0.541,0,0.981,0.44,0.981,0.981s-0.44,0.981-0.981,0.981h-9.781
		c-0.54,0-0.98-0.44-0.98-0.981c0-0.048,0.006-0.095,0.013-0.141c0.036-0.231-0.03-0.467-0.182-0.645
		c-0.152-0.178-0.375-0.28-0.608-0.28h-1.601c-0.541,0-0.98-0.44-0.98-0.981S28.958,6.268,29.499,6.268z"/>
</g>
</svg>
