<?xml version="1.0" encoding="utf-8"?>
<!-- Generator: Adobe Illustrator 24.0.1, SVG Export Plug-In . SVG Version: 6.00 Build 0)  -->
<!DOCTYPE svg PUBLIC "-//W3C//DTD SVG 1.1//EN" "http://www.w3.org/Graphics/SVG/1.1/DTD/svg11.dtd" [
	<!ENTITY ns_extend "http://ns.adobe.com/Extensibility/1.0/">
	<!ENTITY ns_ai "http://ns.adobe.com/AdobeIllustrator/10.0/">
	<!ENTITY ns_graphs "http://ns.adobe.com/Graphs/1.0/">
	<!ENTITY ns_vars "http://ns.adobe.com/Variables/1.0/">
	<!ENTITY ns_imrep "http://ns.adobe.com/ImageReplacement/1.0/">
	<!ENTITY ns_sfw "http://ns.adobe.com/SaveForWeb/1.0/">
	<!ENTITY ns_custom "http://ns.adobe.com/GenericCustomNamespace/1.0/">
	<!ENTITY ns_adobe_xpath "http://ns.adobe.com/XPath/1.0/">
]>
<svg version="1.1" id="Layer_1" xmlns:x="&ns_extend;" xmlns:i="&ns_ai;" xmlns:graph="&ns_graphs;"
	 xmlns="http://www.w3.org/2000/svg" xmlns:xlink="http://www.w3.org/1999/xlink" x="0px" y="0px" viewBox="0 0 50.5 50.5"
	 enable-background="new 0 0 50.5 50.5" xml:space="preserve">
<metadata>
	<sfw  xmlns="&ns_sfw;">
		<slices></slices>
		<sliceSourceBounds  bottomLeftOrigin="true" height="15.827" width="37.913" x="6.307" y="17.337"></sliceSourceBounds>
	</sfw>
</metadata>
<g>
	<path d="M10.108,24.625c0.499,0,1.023-0.044,1.574-0.134v-3.149h-0.909v2.446c-0.237,0.025-0.481,0.036-0.733,0.036
		c-0.564,0-1.033-0.087-1.403-0.264c-0.37-0.176-0.647-0.451-0.834-0.826s-0.28-0.863-0.28-1.463c0-0.626,0.096-1.13,0.29-1.513
		c0.194-0.383,0.479-0.662,0.854-0.834c0.373-0.173,0.839-0.26,1.396-0.26c0.489,0,0.975,0.063,1.454,0.188v-0.804
		c-0.504-0.125-1.013-0.188-1.527-0.188c-1.116,0-1.975,0.28-2.58,0.839s-0.904,1.415-0.902,2.569c0,1.147,0.3,1.993,0.899,2.54
		C8.007,24.352,8.906,24.625,10.108,24.625z"/>
	<path d="M15.053,24.652c0.698,0,1.239-0.21,1.63-0.629c0.39-0.419,0.584-1.049,0.584-1.889c0-0.846-0.194-1.477-0.579-1.891
		c-0.388-0.415-0.932-0.621-1.635-0.621s-1.25,0.208-1.635,0.624c-0.388,0.415-0.579,1.046-0.579,1.894
		c0,0.844,0.194,1.472,0.584,1.889C13.811,24.444,14.355,24.652,15.053,24.652z M14.126,20.759c0.212-0.269,0.519-0.404,0.927-0.404
		c0.411,0,0.72,0.136,0.93,0.409c0.212,0.273,0.317,0.734,0.317,1.384c0,0.637-0.106,1.092-0.317,1.363
		c-0.209,0.271-0.519,0.408-0.93,0.408s-0.721-0.136-0.93-0.409c-0.209-0.274-0.312-0.734-0.312-1.384
		C13.811,21.485,13.914,21.029,14.126,20.759z"/>
	<path d="M20.056,24.647c0.864,0,1.514-0.219,1.95-0.655c0.438-0.437,0.655-1.089,0.655-1.956c0-0.557-0.083-1.016-0.254-1.375
		c-0.169-0.359-0.396-0.623-0.683-0.79c-0.285-0.166-0.612-0.249-0.98-0.249c-0.282,0-0.542,0.05-0.773,0.151
		c-0.232,0.102-0.426,0.242-0.579,0.421h-0.05v-2.858H18.39v7.073c0.244,0.077,0.511,0.136,0.801,0.177
		C19.481,24.627,19.769,24.647,20.056,24.647z M19.34,20.882c0.134-0.157,0.292-0.276,0.484-0.355
		c0.189-0.079,0.388-0.119,0.6-0.119c0.403,0,0.715,0.129,0.937,0.386c0.222,0.255,0.333,0.698,0.333,1.323
		c0,0.63-0.128,1.087-0.388,1.37c-0.262,0.285-0.655,0.427-1.184,0.427c-0.267,0-0.526-0.033-0.781-0.098L19.34,20.882L19.34,20.882
		z"/>
	<path d="M24.263,18.75c0.204,0,0.36-0.047,0.469-0.139c0.106-0.092,0.159-0.226,0.159-0.398c0-0.173-0.053-0.307-0.159-0.403
		c-0.108-0.096-0.265-0.144-0.469-0.144s-0.36,0.048-0.469,0.144c-0.106,0.096-0.161,0.23-0.161,0.403
		c0,0.172,0.055,0.306,0.161,0.398C23.902,18.703,24.059,18.75,24.263,18.75z"/>
	<rect x="23.782" y="19.697" width="0.957" height="4.865"/>
	<path d="M28.361,24.652c0.433,0,0.889-0.063,1.373-0.188v-0.733c-0.479,0.122-0.894,0.183-1.252,0.183
		c-0.375,0-0.68-0.049-0.912-0.147c-0.234-0.098-0.408-0.257-0.527-0.474s-0.181-0.508-0.194-0.872h3.136v-0.269
		c0-0.842-0.171-1.476-0.511-1.897c-0.34-0.422-0.836-0.632-1.484-0.632c-0.67,0-1.189,0.211-1.557,0.635
		c-0.368,0.422-0.552,1.046-0.552,1.869c0,0.879,0.202,1.52,0.61,1.922C26.898,24.451,27.522,24.652,28.361,24.652z M27.15,20.625
		c0.191-0.243,0.469-0.365,0.831-0.365c0.363,0,0.632,0.122,0.816,0.365c0.181,0.243,0.277,0.645,0.29,1.205h-2.242
		C26.857,21.27,26.958,20.868,27.15,20.625z"/>
	<path d="M33.805,19.68c-0.131-0.023-0.265-0.036-0.403-0.036c-0.287,0-0.557,0.059-0.806,0.178c-0.252,0.12-0.453,0.295-0.61,0.523
		h-0.055l-0.073-0.648h-0.794v4.865h0.952v-3.443c0.149-0.196,0.345-0.349,0.589-0.456c0.247-0.107,0.496-0.161,0.746-0.161
		c0.166,0,0.317,0.01,0.453,0.031V19.68H33.805z"/>
	<path d="M37.064,19.622c-0.297,0-0.577,0.053-0.841,0.158c-0.266,0.106-0.498,0.257-0.697,0.453h-0.05l-0.07-0.537H34.61v4.865
		h0.952v-3.555c0.154-0.19,0.343-0.333,0.568-0.426c0.224-0.095,0.448-0.141,0.673-0.141c0.305,0,0.539,0.079,0.7,0.235
		c0.159,0.157,0.239,0.415,0.239,0.776v3.112h0.955v-3.161c0-0.618-0.146-1.068-0.436-1.353
		C37.971,19.764,37.57,19.622,37.064,19.622z"/>
	<path d="M43.641,20.243c-0.388-0.415-0.932-0.621-1.635-0.621s-1.249,0.208-1.635,0.624c-0.388,0.415-0.579,1.046-0.579,1.894
		c0,0.844,0.194,1.472,0.584,1.889c0.388,0.416,0.932,0.624,1.63,0.624s1.239-0.21,1.63-0.629c0.39-0.419,0.584-1.049,0.584-1.889
		C44.221,21.288,44.027,20.657,43.641,20.243z M42.936,23.511c-0.209,0.271-0.519,0.408-0.93,0.408s-0.72-0.136-0.93-0.409
		c-0.209-0.274-0.312-0.734-0.312-1.384c0-0.641,0.103-1.097,0.315-1.367c0.212-0.269,0.519-0.404,0.927-0.404
		c0.411,0,0.721,0.136,0.93,0.409c0.212,0.273,0.317,0.734,0.317,1.384C43.253,22.785,43.147,23.24,42.936,23.511z"/>
	<path d="M8.502,26.452L6.307,33.07h1.459l0.562-1.766h2.517l0.559,1.766h1.474l-2.194-6.618H8.502z M8.688,30.146l0.894-2.822
		l0.894,2.822H8.688z"/>
	<path d="M17.195,28.362c-0.292-0.173-0.622-0.259-0.985-0.259c-0.28,0-0.529,0.048-0.748,0.142
		c-0.219,0.096-0.403,0.231-0.549,0.408h-0.071v-2.808h-1.466v7.043c0.28,0.09,0.589,0.157,0.93,0.203
		c0.34,0.047,0.68,0.07,1.018,0.07c0.945,0,1.655-0.222,2.126-0.667c0.474-0.443,0.708-1.099,0.708-1.967
		c0-0.545-0.086-1-0.259-1.361C17.724,28.803,17.49,28.535,17.195,28.362z M16.374,31.738c-0.204,0.226-0.516,0.34-0.94,0.34
		c-0.212,0-0.408-0.025-0.592-0.072v-2.441c0.101-0.098,0.224-0.172,0.365-0.221s0.292-0.074,0.446-0.074
		c0.335,0,0.589,0.102,0.766,0.306c0.174,0.205,0.262,0.559,0.262,1.062C16.681,31.145,16.581,31.512,16.374,31.738z"/>
	<path d="M19.604,25.978c-0.305,0-0.534,0.064-0.683,0.193c-0.151,0.128-0.227,0.313-0.227,0.554c0,0.239,0.078,0.422,0.229,0.55
		c0.151,0.129,0.378,0.193,0.68,0.193s0.529-0.064,0.678-0.193c0.151-0.128,0.227-0.311,0.227-0.55c0-0.241-0.076-0.426-0.227-0.554
		C20.133,26.042,19.906,25.978,19.604,25.978z"/>
	<rect x="18.87" y="28.179" width="1.466" height="4.891"/>
	<path d="M23.423,28.103c-0.494,0-0.917,0.097-1.265,0.29c-0.35,0.194-0.615,0.48-0.796,0.857s-0.272,0.834-0.272,1.37
		c0,0.596,0.096,1.081,0.292,1.453c0.196,0.372,0.496,0.647,0.902,0.825c0.406,0.177,0.927,0.265,1.567,0.265
		c0.491,0,0.982-0.054,1.471-0.165V31.93c-0.461,0.104-0.884,0.156-1.265,0.156c-0.365,0-0.652-0.033-0.864-0.101
		c-0.209-0.068-0.365-0.176-0.466-0.327c-0.098-0.15-0.156-0.356-0.171-0.619h3.046v-0.376c0-0.835-0.186-1.47-0.557-1.907
		C24.672,28.321,24.133,28.103,23.423,28.103z M22.551,30.212c0.01-0.435,0.086-0.744,0.227-0.93
		c0.139-0.184,0.35-0.278,0.627-0.278c0.275,0,0.481,0.092,0.615,0.275c0.134,0.183,0.207,0.495,0.217,0.932h-1.686V30.212z"/>
	<path d="M28.232,28.283c-0.229,0.115-0.413,0.29-0.549,0.526h-0.07l-0.113-0.63h-1.197v4.891h1.466v-3.201
		c0.116-0.146,0.282-0.26,0.496-0.344S28.698,29.4,28.92,29.4c0.196,0,0.36,0.014,0.496,0.039v-1.292
		c-0.123-0.023-0.257-0.036-0.403-0.036C28.72,28.111,28.461,28.169,28.232,28.283z"/>
	<path d="M32.489,31.901c-0.118-0.055-0.204-0.147-0.262-0.275c-0.055-0.128-0.083-0.302-0.083-0.523v-1.798h1.315v-1.126h-1.315
		v-1.727h-1.202l-0.267,1.727h-0.816v1.126h0.816v2.021c0,0.626,0.159,1.088,0.479,1.386c0.32,0.297,0.788,0.447,1.406,0.447
		c0.31,0,0.617-0.034,0.927-0.103v-1.131c-0.224,0.038-0.398,0.058-0.526,0.058C32.764,31.983,32.607,31.956,32.489,31.901z"/>
	<path d="M36.248,28.103c-0.783,0-1.388,0.212-1.811,0.637c-0.426,0.425-0.637,1.057-0.637,1.897c0,0.555,0.098,1.021,0.295,1.398
		c0.197,0.377,0.479,0.659,0.844,0.847s0.801,0.281,1.31,0.281c0.506,0,0.945-0.093,1.31-0.281s0.645-0.47,0.844-0.85
		c0.196-0.378,0.295-0.846,0.295-1.404c0-0.831-0.214-1.46-0.64-1.887C37.631,28.315,37.026,28.103,36.248,28.103z M37.107,31.495
		c-0.076,0.21-0.181,0.36-0.322,0.448c-0.141,0.09-0.32,0.135-0.537,0.135s-0.396-0.045-0.537-0.135
		c-0.141-0.088-0.249-0.241-0.325-0.453c-0.073-0.214-0.111-0.501-0.111-0.866c0-0.36,0.038-0.646,0.111-0.856
		c0.076-0.21,0.184-0.36,0.328-0.449c0.141-0.09,0.32-0.134,0.534-0.134s0.39,0.044,0.534,0.134c0.141,0.09,0.249,0.242,0.325,0.457
		c0.076,0.214,0.113,0.503,0.113,0.867C37.22,31,37.182,31.283,37.107,31.495z"/>
</g>
</svg>
