<svg id="Layer_1" data-name="Layer 1" xmlns="http://www.w3.org/2000/svg" viewBox="0 0 50.46 50.46"><defs><style>.cls-1{fill:#65b4e1;}</style></defs><title>HABITAT</title><path class="cls-1" d="M48.07,21.09a6.67,6.67,0,1,0-7.27,6.64v8a3.43,3.43,0,0,0-.68,0,3.3,3.3,0,0,0-1.1.3,5,5,0,0,0-6-2.78c-.09,0-.17.07-.26.11V9.67A.75.75,0,0,0,32,8.92H17.56a.75.75,0,0,0-.75.75V33.23a5,5,0,0,0-5.71,2.84,3.31,3.31,0,0,0-1.1-.3,3.41,3.41,0,0,0-.51,0v-9h1.37a.5.5,0,0,0,.42-.23l.9-1.37,0,0a3,3,0,0,0,.3,0,3.12,3.12,0,1,0-1.32-.31l-.59.9H7.38l-.59-.9a3.07,3.07,0,1,0-1.32.31,3,3,0,0,0,.3,0l0,0,.9,1.37a.5.5,0,0,0,.42.23H8.49V36a3.39,3.39,0,0,0-2.24,2.89A3.76,3.76,0,0,0,6.32,40H5.2a.75.75,0,1,0,0,1.5H45.26a.75.75,0,0,0,0-1.5H43.89a7,7,0,0,0,0-1.18,3.42,3.42,0,0,0-1.24-2.33,3.47,3.47,0,0,0-.64-.41V27.73A6.68,6.68,0,0,0,48.07,21.09ZM10.43,22a2.08,2.08,0,1,1,2.08,2.08A2.08,2.08,0,0,1,10.43,22Zm-5,2.08A2.08,2.08,0,1,1,7.55,22,2.08,2.08,0,0,1,5.47,24.11ZM16.81,40H7.36A2.79,2.79,0,0,1,7.24,39a2.42,2.42,0,0,1,3.83-1.75l.56.39.21-.65a4.06,4.06,0,0,1,5-2.7Zm7.86,0h0c.07-1.67.09-3.33.09-5H25c0,1.67,0,3.34.09,5h-.39Zm6.57,0H26.53c-.09-2.13-.09-4.25-.09-6.38a.84.84,0,0,0,0-.18c0-.92,0-1.85,0-2.77a4.64,4.64,0,0,1,.4,2.6c-.09.82,1.2.81,1.28,0,.2-1.92-.53-4.45-2.77-4.61a2.33,2.33,0,0,0-1,0c-2.13.25-2.82,2.72-2.63,4.6.08.81,1.37.82,1.28,0a4.89,4.89,0,0,1,.32-2.46v2.68s0,.06,0,.09,0,0,0,0c0,2.13,0,4.26-.09,6.38h-4.9V10.42H31.25ZM42,37.31A2.43,2.43,0,0,1,42.89,39a5.54,5.54,0,0,1,0,1.09H32.75V34.47a4.11,4.11,0,0,1,.54-.21,4.06,4.06,0,0,1,5,2.7l.21.65.56-.4a2.4,2.4,0,0,1,1.16-.44A2.43,2.43,0,0,1,42,37.31ZM41.4,20.49a.6.6,0,0,0-.6.6v2.84a2,2,0,0,1-1.19-1.85.6.6,0,1,0-1.2,0,3.14,3.14,0,0,0,2.39,3.11v1.53a5.66,5.66,0,1,1,1.2,0V25.19a3.14,3.14,0,0,0,2.39-3.11.6.6,0,1,0-1.2,0A2,2,0,0,1,42,23.93V21.09A.6.6,0,0,0,41.4,20.49Z"/><circle class="cls-1" cx="24.86" cy="26.79" r="1.28"/><rect class="cls-1" x="20.98" y="13.32" width="1.48" height="2.79" rx="0.56" ry="0.56"/><rect class="cls-1" x="27.28" y="13.32" width="1.48" height="2.79" rx="0.56" ry="0.56"/><rect class="cls-1" x="20.98" y="18.57" width="1.48" height="2.79" rx="0.56" ry="0.56"/><rect class="cls-1" x="27.28" y="18.57" width="1.48" height="2.79" rx="0.56" ry="0.56"/></svg>