<?xml version="1.0" encoding="utf-8"?>
<!-- Generator: Adobe Illustrator 24.0.1, SVG Export Plug-In . SVG Version: 6.00 Build 0)  -->
<svg version="1.1" id="Layer_1" xmlns="http://www.w3.org/2000/svg" xmlns:xlink="http://www.w3.org/1999/xlink" x="0px" y="0px"
	 viewBox="0 0 50.5 50.5" style="enable-background:new 0 0 50.5 50.5;" xml:space="preserve">
<style type="text/css">
	.st0{fill:none;}
</style>
<g>
	<path class="st0" d="M19.2,7.9C19.2,7.9,19.2,7.9,19.2,7.9c0.5-0.5,0.5-1.2,0-1.7c-0.5-0.5-1.2-0.5-1.7,0c0,0,0,0,0,0
		c-0.5,0.5-0.5,1.2,0,1.7C18,8.4,18.8,8.4,19.2,7.9z"/>
	<path class="st0" d="M11.8,25.7c1.7,0,4.9-2.3,4.9-5.8c0-2.8-2.2-5-4.9-5c-2.4,0-4.9,1.8-4.9,4.7C6.9,23.7,10.1,25.7,11.8,25.7z"/>
	<path class="st0" d="M25.1,23c-2.4,0-4.9,1.8-4.9,4.7c0,4.2,3.2,6.1,4.9,6.1c1.7,0,4.9-2.3,4.9-5.8C30.1,25.2,27.9,23,25.1,23z"/>
	<path class="st0" d="M23.9,15.9c1.3,0.5,2.8-0.1,3.4-1.4c0.5-1.3-0.1-2.8-1.4-3.3c-1.3-0.5-2.8,0.1-3.4,1.4
		C22,13.9,22.6,15.4,23.9,15.9z"/>
	<path class="st0" d="M38.5,25.7c1.7,0,4.9-2.3,4.9-5.8c0-2.8-2.2-5-4.9-5c-2.4,0-4.9,1.8-4.9,4.7C33.6,23.7,36.8,25.7,38.5,25.7z"
		/>
	<path class="st0" d="M28.3,37.1c-2,0.9-4.4,0.9-6.4,0c-2.1,1.2-3.5,3.5-3.8,6.1c4.3,2.3,9.7,2.3,14,0
		C31.9,40.5,30.4,38.3,28.3,37.1z"/>
	<path d="M20.1,10.1c-0.1,0-0.2,0-0.2,0.1c0,0,0,0,0,0L19,12.3c0,0.1,0,0.2,0.1,0.2c0,0,0,0,0,0l1.3,0.5c0,0.3,0,0.6,0,0.8l-1.3,0.5
		c-0.1,0-0.1,0.1-0.1,0.2c0,0,0,0,0,0l0.9,2.2c0,0,0,0.1,0.1,0.1c0,0,0.1,0,0.1,0l1.3-0.5c0.2,0.2,0.4,0.4,0.6,0.6l-0.5,1.3
		c0,0.1,0,0.2,0.1,0.2l2.2,0.9c0.1,0,0.2,0,0.2-0.1l0.5-1.3c0.3,0,0.6,0,0.8,0l0.5,1.3c0,0,0.1,0.1,0.1,0.1c0,0,0.1,0,0.1,0l2.2-0.9
		c0.1,0,0.1-0.1,0.1-0.2L27.9,17c0.2-0.2,0.4-0.4,0.6-0.6l1.3,0.5c0.1,0,0.2,0,0.2-0.1c0,0,0,0,0,0l0.9-2.2c0-0.1,0-0.2-0.1-0.2
		c0,0,0,0-0.1,0L29.5,14c0-0.3,0-0.6,0-0.8l1.3-0.5c0.1,0,0.1-0.1,0.1-0.2c0,0,0,0,0,0l-0.9-2.2c0-0.1-0.1-0.1-0.2-0.1l-1.3,0.5
		c-0.2-0.2-0.4-0.4-0.6-0.6l0.5-1.3c0-0.1,0-0.2-0.1-0.2l-2.2-0.9c-0.1,0-0.2,0-0.2,0.1L25.4,9c-0.3,0-0.6,0-0.8,0L24,7.7
		c0-0.1-0.1-0.1-0.2-0.1c0,0,0,0,0,0l-2.2,0.9c-0.1,0-0.1,0.1-0.1,0.2L22,10c-0.2,0.2-0.4,0.4-0.6,0.6L20.1,10.1z M22.5,12.6
		c0.6-1.3,2.1-2,3.4-1.4c1.3,0.5,1.9,2,1.4,3.3c-0.6,1.3-2.1,2-3.4,1.4C22.6,15.4,22,13.9,22.5,12.6z"/>
	<path d="M16.3,7.7c0,0.1,0.1,0.2,0.2,0.4L16,8.5c0,0,0,0.1,0,0.1l0.8,0.8c0,0,0.1,0,0.1,0l0.5-0.5C17.5,9,17.6,9,17.8,9v0.7
		c0,0,0,0,0,0.1h1.1c0,0,0.1,0,0.1-0.1V9c0.1,0,0.2-0.1,0.4-0.2l0.5,0.5c0,0,0.1,0,0.1,0l0.8-0.8c0,0,0.1,0,0.1,0c0,0,0-0.1,0-0.1
		l-0.5-0.5c0.1-0.1,0.1-0.2,0.1-0.4H21c0,0,0.1,0,0.1-0.1V6.4c0,0,0-0.1-0.1-0.1h-0.7c0-0.1-0.1-0.2-0.2-0.4l0.5-0.5
		c0,0,0-0.1,0-0.1l-0.8-0.7c0,0-0.1,0-0.1,0c0,0,0,0,0,0l-0.5,0.5C19.2,5,19.1,5,18.9,4.9V4.3c0,0-0.1,0-0.1,0h-1.1
		c0,0-0.1,0-0.1,0.1l0.1,0.8c-0.1,0-0.2,0.1-0.4,0.2l-0.5-0.5c0,0-0.1,0-0.1,0c0,0,0,0,0,0L16,5.6c0,0,0,0.1,0,0.1l0.5,0.4
		c-0.1,0.1-0.1,0.2-0.1,0.4h-0.7c0,0-0.1,0-0.1,0.1v1.1c0,0,0,0,0.1,0H16.3z M17.5,6.2C17.5,6.2,17.5,6.2,17.5,6.2
		c0.5-0.5,1.3-0.5,1.7,0c0.5,0.5,0.5,1.2,0,1.7c0,0,0,0,0,0c-0.5,0.5-1.2,0.5-1.7,0C17,7.4,17,6.7,17.5,6.2z"/>
	<path d="M18.1,36.6c-0.1-0.4-0.5-0.5-0.9-0.4c-3.9,1.5-8.5,1.2-12.2-0.8c0.3-2.6,1.7-4.9,3.8-6.1c2,0.9,4.4,0.9,6.4,0
		c0.6,0.3,1.1,0.8,1.6,1.3c0.3,0.3,0.7,0.3,1,0c0.3-0.3,0.3-0.7,0-1c-0.7-0.7-1.5-1.3-2.3-1.7c-0.2-0.1-0.4-0.1-0.6,0
		c-1.8,0.9-4,0.9-5.8,0c-0.2-0.1-0.4-0.1-0.6,0c-2.8,1.4-4.7,4.4-4.9,7.8c0,0.3,0.1,0.5,0.3,0.6c2.4,1.4,5.2,2.1,8.1,2.1
		c2,0,3.9-0.3,5.7-1C18,37.3,18.2,36.9,18.1,36.6z"/>
	<path d="M28.7,35.7c-0.2-0.1-0.4-0.1-0.6,0c-1.8,0.9-4,0.9-5.8,0c-0.2-0.1-0.4-0.1-0.6,0c-2.8,1.4-4.7,4.4-4.9,7.8
		c0,0.3,0.1,0.5,0.3,0.6c2.4,1.4,5.2,2.1,8.1,2.1c2.8,0,5.6-0.7,8.1-2.1c0.2-0.1,0.4-0.4,0.3-0.6C33.4,40.1,31.5,37.1,28.7,35.7z
		 M18.2,43.2c0.3-2.6,1.7-4.9,3.8-6.1c2,0.9,4.4,0.9,6.4,0c2.1,1.2,3.5,3.5,3.8,6.1C27.9,45.4,22.4,45.4,18.2,43.2z"/>
	<path d="M42.1,27.9c-0.2-0.1-0.4-0.1-0.6,0c-1.8,0.9-4,0.9-5.8,0c-0.2-0.1-0.4-0.1-0.6,0c-0.9,0.4-1.7,1-2.4,1.8
		c-0.3,0.3-0.2,0.7,0,1c0.3,0.3,0.7,0.2,1,0c0.5-0.5,1.1-1,1.7-1.3c2,0.9,4.4,0.9,6.4,0c2.1,1.2,3.5,3.5,3.8,6.1
		c-3.7,2-8.3,2.3-12.2,0.8c-0.4-0.1-0.8,0-0.9,0.4c-0.1,0.4,0,0.8,0.4,0.9c1.8,0.7,3.7,1,5.7,1c2.8,0,5.6-0.7,8.1-2.1
		c0.2-0.1,0.4-0.4,0.3-0.6C46.7,32.3,44.9,29.3,42.1,27.9z"/>
	<path d="M25.1,21.6c-3.2,0-6.3,2.4-6.3,6.1c0,4.9,3.7,7.5,6.3,7.5c2.6,0,6.3-3,6.3-7.2C31.5,24.3,28.6,21.6,25.1,21.6z M25.2,33.8
		c-1.7,0-4.9-2-4.9-6.1c0-2.9,2.5-4.7,4.9-4.7c2.8,0,4.9,2.2,4.9,5C30.1,31.5,26.9,33.8,25.2,33.8z"/>
	<path d="M38.5,27.1c2.6,0,6.3-3,6.3-7.2c0-3.7-2.8-6.4-6.3-6.4c-3.2,0-6.3,2.4-6.3,6.1C32.1,24.4,35.9,27.1,38.5,27.1z M38.5,14.9
		c2.8,0,4.9,2.2,4.9,5c0,3.5-3.2,5.8-4.9,5.8c-1.7,0-4.9-2-4.9-6.1C33.6,16.7,36.1,14.9,38.5,14.9z"/>
	<path d="M11.8,27.1c2.6,0,6.3-3,6.3-7.2c0-3.7-2.8-6.4-6.3-6.4c-3.2,0-6.3,2.4-6.3,6.1C5.5,24.4,9.3,27.1,11.8,27.1z M11.8,14.9
		c2.8,0,4.9,2.2,4.9,5c0,3.5-3.2,5.8-4.9,5.8c-1.7,0-4.9-2-4.9-6.1C6.9,16.7,9.5,14.9,11.8,14.9z"/>
</g>
</svg>
