<?xml version="1.0" encoding="utf-8"?>
<!-- Generator: Adobe Illustrator 25.4.1, SVG Export Plug-In . SVG Version: 6.00 Build 0)  -->
<svg version="1.1" id="Capa_3" xmlns="http://www.w3.org/2000/svg" xmlns:xlink="http://www.w3.org/1999/xlink" x="0px" y="0px"
	 viewBox="0 0 50.46 50.46" enable-background="new 0 0 50.46 50.46" xml:space="preserve">
<g>
	<path d="M6.918,25.157c0-5.789,0-11.578,0-17.367c0-0.562,0.27-0.831,0.832-0.835c0.008,0,0.015,0,0.023,0
		c1.734,0,3.467-0.001,5.201,0c0.595,0,0.855,0.262,0.855,0.855c0,5.729,0,11.458,0,17.186c0,1.711,0.002,3.422,0.003,5.133
		c0,0.277,0.001,0.275,0.28,0.236c0.585-0.08,1.089-0.337,1.549-0.695c0.362-0.283,0.721-0.571,1.091-0.843
		c1.45-1.069,3.984-1.203,5.716,0.227c0.366,0.302,0.718,0.627,1.131,0.863c1.178,0.675,2.365,0.675,3.54-0.009
		c0.398-0.232,0.741-0.544,1.094-0.838c1.711-1.425,4.38-1.418,6.083,0.006c0.323,0.271,0.653,0.536,1.001,0.774
		c1.109,0.758,2.642,0.755,3.747-0.012c0.42-0.292,0.81-0.628,1.221-0.933c0.426-0.317,0.895-0.551,1.405-0.71
		c0.371-0.116,0.747-0.095,1.12-0.065c0.364,0.029,0.616,0.361,0.602,0.728c-0.014,0.363-0.298,0.692-0.665,0.664
		c-0.783-0.06-1.372,0.317-1.94,0.77c-0.512,0.409-1.002,0.861-1.615,1.111c-1.761,0.718-3.431,0.572-4.974-0.588
		c-0.307-0.231-0.6-0.481-0.908-0.711c-1.214-0.908-2.823-0.915-4.044-0.025c-0.445,0.324-0.856,0.691-1.31,1.002
		c-1.426,0.978-3.889,1.114-5.605-0.298c-0.349-0.287-0.695-0.579-1.072-0.83c-1.084-0.719-2.623-0.712-3.692,0.031
		c-0.334,0.232-0.649,0.491-0.966,0.746c-0.759,0.611-1.609,1.001-2.59,1.072c-0.151,0.011-0.203,0.059-0.202,0.216
		c0.008,1.002,0.01,2.005,0.002,3.007c-0.001,0.187,0.069,0.21,0.227,0.19c0.602-0.076,1.121-0.331,1.596-0.697
		c0.424-0.326,0.814-0.7,1.28-0.967c1.705-0.976,3.409-0.969,5.099,0.039c0.435,0.259,0.818,0.594,1.203,0.919
		c1.139,0.962,3.066,1.016,4.304-0.037c0.356-0.302,0.718-0.598,1.109-0.856c1.588-1.05,3.741-1.037,5.308,0.045
		c0.359,0.248,0.706,0.517,1.037,0.802c1.213,1.045,3.146,1.03,4.323,0.043c0.415-0.348,0.832-0.697,1.297-0.982
		c0.629-0.386,1.293-0.632,2.051-0.573c0.441,0.034,0.746,0.302,0.748,0.712c0.002,0.41-0.302,0.73-0.744,0.702
		c-0.616-0.039-1.113,0.209-1.581,0.555c-0.345,0.255-0.671,0.537-1.017,0.791c-1.781,1.308-4.083,1.288-5.843-0.049
		c-0.312-0.237-0.612-0.49-0.926-0.725c-1.203-0.899-2.816-0.907-4.026-0.026c-0.451,0.328-0.867,0.701-1.329,1.016
		c-1.428,0.973-3.887,1.108-5.605-0.31c-0.348-0.288-0.695-0.579-1.073-0.829c-1.075-0.71-2.614-0.705-3.673,0.03
		c-0.396,0.275-0.765,0.587-1.148,0.88c-0.705,0.541-1.495,0.871-2.384,0.938c-0.175,0.013-0.24,0.065-0.238,0.254
		c0.011,0.942,0.01,1.884,0.001,2.827c-0.002,0.185,0.053,0.234,0.231,0.21c0.535-0.073,1.019-0.266,1.449-0.591
		c0.331-0.25,0.659-0.503,0.979-0.766c1.63-1.334,4.275-1.395,6.027,0.071c0.266,0.222,0.537,0.439,0.815,0.646
		c1.21,0.903,2.826,0.91,4.045,0.015c0.389-0.285,0.754-0.602,1.146-0.882c1.655-1.179,3.931-1.16,5.567,0.042
		c0.425,0.312,0.825,0.659,1.259,0.958c1.046,0.721,2.571,0.725,3.636,0.031c0.412-0.268,0.773-0.601,1.164-0.896
		c0.535-0.404,1.116-0.711,1.774-0.867c0.367-0.087,0.735-0.052,1.099-0.023c0.327,0.026,0.524,0.291,0.525,0.623
		c0.002,0.556-0.217,0.801-0.775,0.769c-0.679-0.039-1.23,0.232-1.747,0.619c-0.446,0.334-0.857,0.714-1.334,1.008
		c-1.632,1.006-3.776,0.924-5.325-0.212c-0.334-0.245-0.652-0.511-0.98-0.765c-1.257-0.974-2.895-0.987-4.173-0.037
		c-0.429,0.319-0.826,0.68-1.276,0.972c-1.568,1.017-3.741,0.987-5.271-0.089c-0.4-0.282-0.775-0.599-1.166-0.894
		c-1.217-0.915-2.834-0.925-4.063-0.022c-0.388,0.286-0.757,0.598-1.146,0.883c-0.679,0.497-1.444,0.776-2.284,0.831
		c-0.149,0.01-0.187,0.058-0.183,0.199c0.01,0.362,0.006,0.723,0.005,1.085c0,0.448-0.26,0.712-0.714,0.714
		c-0.95,0.003-1.9,0.001-2.849,0.001c-0.829,0-1.658,0-2.488,0c-0.597,0-0.856-0.257-0.856-0.851
		C6.918,36.72,6.918,30.939,6.918,25.157z M8.232,25.155c0,3.4,0,6.799,0,10.199c0,2.111,0,4.221,0.001,6.332
		c0,0.113-0.045,0.246,0.16,0.245c1.251-0.006,2.503-0.004,3.754-0.002c0.116,0,0.157-0.04,0.156-0.159
		c-0.006-0.384-0.01-0.769,0.002-1.153c0.005-0.162-0.065-0.187-0.201-0.184c-0.332,0.007-0.663-0.004-0.995,0.005
		c-0.137,0.003-0.183-0.038-0.179-0.178c0.009-0.354,0.011-0.709-0.001-1.063c-0.005-0.159,0.059-0.186,0.197-0.183
		c0.331,0.008,0.663-0.002,0.995,0.005c0.136,0.003,0.185-0.04,0.182-0.18c-0.008-0.362-0.012-0.724,0.002-1.085
		c0.008-0.187-0.046-0.244-0.237-0.241c-0.731,0.011-1.462,0.004-2.193,0.006c-0.227,0.001-0.433-0.049-0.598-0.217
		c-0.201-0.206-0.264-0.513-0.148-0.774c0.13-0.292,0.367-0.432,0.682-0.434c0.761-0.003,1.523-0.004,2.284,0.002
		c0.15,0.001,0.215-0.033,0.209-0.199c-0.012-0.369-0.012-0.739-0.001-1.108c0.005-0.163-0.053-0.205-0.207-0.201
		c-0.354,0.009-0.709-0.002-1.063,0.005c-0.139,0.003-0.201-0.027-0.196-0.185c0.012-0.354,0.01-0.709,0.001-1.063
		c-0.004-0.143,0.047-0.179,0.182-0.176c0.347,0.008,0.694-0.006,1.04,0.007c0.181,0.007,0.255-0.036,0.245-0.234
		c-0.016-0.346-0.015-0.694-0.001-1.04c0.008-0.189-0.051-0.243-0.24-0.241c-0.731,0.011-1.462,0.004-2.193,0.005
		c-0.177,0-0.346-0.023-0.494-0.128c-0.25-0.176-0.362-0.489-0.28-0.779c0.087-0.308,0.353-0.513,0.69-0.515
		c0.769-0.004,1.538-0.005,2.307,0.001c0.149,0.001,0.217-0.026,0.211-0.196c-0.013-0.376-0.009-0.754-0.001-1.131
		c0.003-0.138-0.04-0.185-0.18-0.182c-0.354,0.008-0.709-0.003-1.063,0.006c-0.141,0.003-0.18-0.046-0.177-0.182
		c0.008-0.354,0.011-0.709-0.001-1.063c-0.005-0.155,0.052-0.191,0.195-0.187c0.331,0.009,0.664-0.005,0.995,0.007
		c0.171,0.006,0.241-0.034,0.232-0.222c-0.015-0.346-0.017-0.694,0.001-1.04c0.011-0.206-0.059-0.252-0.254-0.249
		c-0.746,0.011-1.492,0.009-2.239,0.003c-0.439-0.004-0.742-0.305-0.739-0.716c0.003-0.393,0.297-0.693,0.709-0.697
		c0.769-0.008,1.538-0.009,2.307,0c0.171,0.002,0.22-0.05,0.214-0.218c-0.012-0.361-0.014-0.724,0.001-1.085
		c0.007-0.178-0.058-0.216-0.22-0.212c-0.377,0.01-0.754-0.002-1.131,0.005c-0.153,0.003-0.212-0.042-0.207-0.204
		c0.012-0.339,0.012-0.679,0-1.017c-0.006-0.167,0.059-0.204,0.21-0.201c0.392,0.007,0.784-0.002,1.176,0.004
		c0.128,0.002,0.172-0.041,0.17-0.169c-0.006-0.324-0.015-0.649,0.003-0.972c0.011-0.208-0.051-0.268-0.261-0.265
		c-0.746,0.013-1.492,0.01-2.239,0.003c-0.427-0.004-0.727-0.3-0.731-0.7c-0.004-0.403,0.292-0.708,0.716-0.712
		c0.769-0.008,1.538-0.007,2.307-0.001c0.154,0.001,0.211-0.04,0.207-0.202c-0.011-0.377-0.009-0.754,0-1.131
		c0.003-0.139-0.045-0.183-0.181-0.18c-0.392,0.007-0.784-0.001-1.176,0.003c-0.136,0.002-0.205-0.029-0.199-0.188
		c0.012-0.346,0.01-0.694,0-1.04c-0.004-0.151,0.049-0.196,0.194-0.193c0.377,0.007,0.754-0.006,1.131,0.006
		c0.174,0.006,0.24-0.038,0.232-0.224c-0.015-0.339-0.015-0.679,0-1.017c0.009-0.202-0.043-0.269-0.258-0.265
		c-0.746,0.014-1.492,0.01-2.239,0.002c-0.451-0.005-0.763-0.341-0.733-0.767c0.027-0.38,0.334-0.652,0.757-0.654
		c0.754-0.004,1.508-0.004,2.261,0.002c0.151,0.001,0.215-0.034,0.21-0.199c-0.011-0.369-0.011-0.739,0-1.108
		c0.005-0.162-0.053-0.205-0.208-0.201c-0.399,0.009-0.799,0-1.198,0.004c-0.142,0.001-0.199-0.047-0.195-0.198
		c0.01-0.331,0.016-0.664-0.001-0.995c-0.01-0.193,0.074-0.229,0.237-0.227c0.392,0.005,0.784-0.005,1.176,0.004
		c0.152,0.004,0.193-0.05,0.19-0.195c-0.009-0.362-0.012-0.724,0.001-1.085c0.007-0.179-0.049-0.228-0.227-0.227
		C10.902,8.384,9.726,8.379,8.55,8.379c-0.36,0-0.317-0.028-0.317,0.312C8.232,14.18,8.232,19.667,8.232,25.155z"/>
</g>
</svg>
