<?xml version="1.0" encoding="UTF-8"?>
<svg id="Layer_1" xmlns="http://www.w3.org/2000/svg" version="1.1" xmlns:xlink="http://www.w3.org/1999/xlink" viewBox="0 0 50.5 50.5">
  <!-- Generator: Adobe Illustrator 29.3.1, SVG Export Plug-In . SVG Version: 2.1.0 Build 151)  -->
  <g>
    <path d="M21.552,29.827h-10.681c-.442,0-.8.358-.8.8v10.617h-2.149V12.77h9.318c.487,4.11,3.988,7.309,8.227,7.309s7.739-3.2,8.226-7.309h8.885v16.857c0,.441.358.8.8.8s.8-.358.8-.8V11.97c0-.442-.358-.8-.8-.8h-9.652c-.319-4.282-3.896-7.67-8.258-7.67s-7.94,3.389-8.259,7.67H7.123c-.442,0-.8.358-.8.8v30.074c0,.441.358.8.8.8h14.429c.442,0,.8-.358.8-.8v-11.417c0-.441-.358-.8-.8-.8ZM18.777,11.789c0-3.689,3.001-6.69,6.69-6.69s6.69,3.001,6.69,6.69-3.001,6.69-6.69,6.69-6.69-3.001-6.69-6.69ZM11.671,31.427h3.741v9.817h-3.741v-9.817ZM17.011,41.244v-9.817h3.741v9.817h-3.741Z"/>
    <path d="M14.792,22.005c-.442,0-.8.358-.8.8v3.306c0,.441.358.8.8.8h20.918c.441,0,.8-.358.8-.8v-3.306c0-.442-.358-.8-.8-.8H14.792ZM34.91,25.311H15.591v-1.706h19.319v1.706Z"/>
    <path d="M31.161,41.499c-1.379,0-2.5,1.121-2.5,2.5s1.121,2.501,2.5,2.501,2.501-1.122,2.501-2.501-1.122-2.5-2.501-2.5ZM31.161,44.901c-.496,0-.9-.404-.9-.901s.404-.9.9-.9.901.404.901.9-.404.901-.901.901Z"/>
    <path d="M39.928,41.499c-1.379,0-2.501,1.121-2.501,2.5s1.122,2.501,2.501,2.501,2.5-1.122,2.5-2.501-1.121-2.5-2.5-2.5ZM39.928,44.901c-.497,0-.901-.404-.901-.901s.404-.9.901-.9.9.404.9.9-.404.901-.9.901Z"/>
    <path d="M33.487,39.095v-3.686c0-.441-.358-.8-.8-.8h-2.916c-.233,0-.455.102-.606.278l-1.185,1.379c-.125.146-.193.33-.193.521v2.307c0,.441.358.8.8.8h4.101c.441,0,.8-.358.8-.8ZM31.888,38.295h-2.501v-1.21l.752-.876h1.749v2.086Z"/>
    <path d="M42.212,36.162h-.519v-.52c0-.441-.358-.8-.8-.8s-.8.358-.8.8v.52h-.52c-.441,0-.8.358-.8.8s.358.8.8.8h.52v.519c0,.441.358.8.8.8s.8-.358.8-.8v-.519h.519c.441,0,.8-.358.8-.8s-.358-.8-.8-.8Z"/>
    <path d="M45.379,31.763h-16.566c-.236,0-.462.104-.613.286l-3.173,3.791c-.121.145-.187.326-.187.514v4.34h-.049c-.442,0-.8.358-.8.8v2.506c0,.441.358.8.8.8h2.452c.441,0,.8-.358.8-.8s-.358-.8-.8-.8h-1.603l-.049-.906h.049c.442,0,.8-.358.8-.8v-4.849l2.747-3.282h15.393v9.837h-.716c-.441,0-.8.358-.8.8s.358.8.8.8h1.516c.441,0,.8-.358.8-.8v-11.437c0-.441-.358-.8-.8-.8Z"/>
    <path d="M36.008,43.199h-.927c-.441,0-.8.358-.8.8s.358.8.8.8h.927c.441,0,.8-.358.8-.8s-.358-.8-.8-.8Z"/>
  </g>
  <path d="M22.212,13.085h1.963v1.963c0,.289.234.523.523.523h1.545c.288,0,.523-.234.523-.523v-1.963h1.963c.288,0,.523-.234.523-.523v-1.545c0-.289-.234-.523-.523-.523h-1.963v-1.963c0-.289-.234-.523-.523-.523h-1.545c-.289,0-.523.234-.523.523v1.963h-1.963c-.289,0-.523.234-.523.523v1.545c0,.289.234.523.523.523Z"/>
</svg>