<svg id="Layer_1" data-name="Layer 1" xmlns="http://www.w3.org/2000/svg" viewBox="0 0 50.46 50.46"><defs><style>.cls-1{fill:none;stroke:#12b5e1;stroke-linecap:round;stroke-linejoin:round;stroke-width:1.8px;}</style></defs><title>hotel lineal</title><path class="cls-1" d="M6.25,38.39v2a2.07,2.07,0,0,0,1.67,2.08,2,2,0,0,0,2.33-2V34.79H41.76v5.55a2.07,2.07,0,0,0,1.66,2.08,2,2,0,0,0,2.34-2V33.1a2.31,2.31,0,0,0-2.32-2.31H10.25V18.43a2.07,2.07,0,0,0-1.66-2.08,2,2,0,0,0-2.34,2V38.39"/><circle class="cls-1" cx="17.19" cy="23.34" r="3.94"/><path class="cls-1" d="M39.74,27.28H44V23.67a3.61,3.61,0,0,0-3.61-3.6H23.73v7.21H34"/><line class="cls-1" x1="36.39" y1="27.28" x2="36.16" y2="27.28"/></svg>