<svg id="Layer_1" data-name="Layer 1" xmlns="http://www.w3.org/2000/svg" viewBox="0 0 50.46 50.46"><defs><style>.cls-1{fill:#00b5e4;}</style></defs><title>Iconos</title><path class="cls-1" d="M40.31,34.76c-.92-3.29-3.75-6.42-8.72-7.27S23,25.59,22.26,23.22A3,3,0,0,0,21.88,27c1.76,2.45,5.48,2.16,5.74,3.44.39,2-5.34,4.07-10.09,1.15-6.35-3.9-4.13-8.34-6.81-9.1H9.64S9.26,33.39,18.36,38c6.41,3.23,15.68-1.68,22.28,1.68C40.63,39.66,41.22,38.05,40.31,34.76Z"/><path class="cls-1" d="M17,23.65c-3.21-4-4.7-9.48-.7-11.5-3.39,2.06-1.2,9.06,1.48,11.31.32-.24,2.45-2.74,2.61-4.73.22-2.77-2-4.25-2.5-5-1.11-1.76.64-2.43,1.42-2.46-.92-.59-7.05-1.29-8.35,3.32C9.38,20.05,15.89,23.14,17,23.65Z"/></svg>