<svg xmlns="http://www.w3.org/2000/svg" viewBox="0 0 50.46 50.46">
  <title>Iconos</title>
  <g>
    <path d="M44.3,9.6H6.16a3.11,3.11,0,0,0-3.11,3.11v25a3.11,3.11,0,0,0,3.11,3.11H44.3a3.11,3.11,0,0,0,3.11-3.11v-25A3.11,3.11,0,0,0,44.3,9.6Zm1.33,28.14a1.33,1.33,0,0,1-1.33,1.33H6.16a1.33,1.33,0,0,1-1.33-1.33v-25a1.33,1.33,0,0,1,1.33-1.33H44.3a1.33,1.33,0,0,1,1.33,1.33v25Z" fill="#00b5e4"/>
    <path d="M34.41,17.15H22.66a0.74,0.74,0,0,0-.73.73v2.2H20.09a2,2,0,0,0-1.25.52l-2.27,2.27a1.57,1.57,0,0,0-.26.34,2.11,2.11,0,0,0-.16.35,1.89,1.89,0,0,0-.07.42q0,0.27,0,.4c0,0.08,0,.23,0,0.44s0,0.34,0,.4V28.9a0.74,0.74,0,0,0-.73.73,0.91,0.91,0,0,0,0,.3,0.43,0.43,0,0,0,.15.21l0.19,0.13a0.62,0.62,0,0,0,.27.07l0.26,0h1.28a2.94,2.94,0,0,0,5,2.08,2.83,2.83,0,0,0,.86-2.08h4.4a2.94,2.94,0,0,0,5.87,0h0.55l0.26,0a0.62,0.62,0,0,0,.27-0.07l0.19-.13a0.44,0.44,0,0,0,.15-0.21,0.91,0.91,0,0,0,0-.3V17.89A0.74,0.74,0,0,0,34.41,17.15ZM21.49,31.4a1.44,1.44,0,1,1,.44-1A1.41,1.41,0,0,1,21.49,31.4Zm0.44-6.91H17.52V24.15a0.34,0.34,0,0,1,.1-0.25l2.24-2.24a0.34,0.34,0,0,1,.25-0.1h1.81V24.5Zm9.84,6.91a1.44,1.44,0,1,1,.44-1A1.41,1.41,0,0,1,31.77,31.4Z" fill="#00b5e4"/>
  </g>
</svg>
