<svg xmlns="http://www.w3.org/2000/svg" viewBox="0 0 50.46 50.46">
  <title>Iconos</title>
  <g>
    <path d="M16.46,22.54h0V22.46l0-.12H16.37c-2.76,0-3.49,2.73-3.49,4.16a0.89,0.89,0,0,0,1.77,0c0-.1,0-2.39,1.76-2.39h0.08l0.1,0h0.19L16.68,24A2.65,2.65,0,0,1,16.46,22.54Z" fill="#00b5e4"/>
    <path d="M19.79,25.53l0-.12-0.21,0a2.2,2.2,0,0,1-.81,0,2.63,2.63,0,0,1-.66-0.18l-0.2-.08,0.05,0.21a4.67,4.67,0,0,1,.14,1.34L18.16,46.6a0.89,0.89,0,0,0,1.78,0L19.85,26.86A6,6,0,0,0,19.79,25.53Z" fill="#00b5e4"/>
    <path d="M37.37,24.23L30.85,11.14A2,2,0,0,0,29.05,10a2.17,2.17,0,0,0-1.8,1.07L23.6,18l-5.08,2.78a2,2,0,0,0,1.94,3.54l5.62-3.07a2,2,0,0,0,.81-0.82l2.1-4,4.24,8.5-5.51,7.77a2,2,0,0,0-.33,1.59L29.9,46a2,2,0,0,0,2,1.59,2,2,0,0,0,.43,0,2,2,0,0,0,1.55-2.4L31.52,34.33l5.7-8A2,2,0,0,0,37.37,24.23Z" fill="#00b5e4"/>
    <path d="M25.4,9.94a3.54,3.54,0,1,0-2.5-1A3.53,3.53,0,0,0,25.4,9.94Z" fill="#00b5e4"/>
  </g>
</svg>
