<svg xmlns="http://www.w3.org/2000/svg" viewBox="0 0 50.46 50.46">
  <title>Iconos</title>
  <g>
    <path d="M11.05,21.22L7.38,24a0.28,0.28,0,0,0-.11.22v5.83a0.28,0.28,0,0,0,.28.28h7.34a0.28,0.28,0,0,0,.28-0.28V24.23A0.28,0.28,0,0,0,15.06,24l-3.67-2.79A0.28,0.28,0,0,0,11.05,21.22Z" fill="#00b5e4"/>
    <path d="M16.26,22.41a0.87,0.87,0,0,0,.86-1,0.87,0.87,0,0,0-.34-0.58l-5-3.83a0.88,0.88,0,0,0-1.06,0L5.84,20.7a0.87,0.87,0,0,0,1.06,1.39l4.33-3.29,4.51,3.43A0.87,0.87,0,0,0,16.26,22.41Z" fill="#00b5e4"/>
    <path d="M20.62,20.43h7.59a0.81,0.81,0,0,0,0-1.62H20.62A0.81,0.81,0,1,0,20.62,20.43Z" fill="#00b5e4"/>
    <path d="M20.62,25H36.73a0.81,0.81,0,0,0,0-1.62H20.62A0.81,0.81,0,1,0,20.62,25Z" fill="#00b5e4"/>
    <path d="M20.62,29.6H36.73a0.81,0.81,0,0,0,0-1.62H20.62A0.81,0.81,0,1,0,20.62,29.6Z" fill="#00b5e4"/>
    <path d="M48.46,31.36l-1.09-1.05-0.47-.46-0.49.44-0.55.49V12.44a3.11,3.11,0,0,0-3.11-3.11H4.61a3.11,3.11,0,0,0-3.11,3.11v25.1a3.11,3.11,0,0,0,3.11,3.11H36.53a6.64,6.64,0,0,1-1.28-1.78H4.61a1.33,1.33,0,0,1-1.33-1.33V12.44a1.33,1.33,0,0,1,1.33-1.33H42.75a1.33,1.33,0,0,1,1.33,1.33V30a6.69,6.69,0,0,1,1.5,1l-0.24.21-0.52.46L44.51,32a5.19,5.19,0,0,0-7.63,6.9A5.22,5.22,0,0,0,39,40.65a5.15,5.15,0,0,0,4.57-.11,5.23,5.23,0,0,0,2.16-2.13,5.16,5.16,0,0,0,.63-2.47,5.08,5.08,0,0,0-.12-1.07l0.29-.33,0.63-.7,1.33-1.49L49,31.84Zm-1.83,2-0.63.7-4.87,5.42-3.83-4.76,1.35-1.19L41.07,36l4.22-3.74,0.52-.46,1.07-.95L48,31.87Z" fill="#00b5e4"/>
  </g>
</svg>
