<svg xmlns="http://www.w3.org/2000/svg" viewBox="0 0 50.46 50.46">
  <title>Iconos</title>
  <path d="M32.08,9.51c-1.15-.92-1.94-0.7-3.06,1.36a2.75,2.75,0,0,1-2.56,1.5V12.28a2.75,2.75,0,1,0-2.43,0v0.09a2.76,2.76,0,0,1-2.66-1.45c-1.16-2-2-2.24-3.08-1.3S12.66,16,7.14,15.58a3.65,3.65,0,0,0,4.09,1.9,3.68,3.68,0,0,0,4.17.46,3.07,3.07,0,0,0,3.49.07,3,3,0,0,0,3.28.14,2.92,2.92,0,0,0,1.91.51l0.05,6.18-0.16,0c-0.94-.2-1.85-0.38-3.81-0.91s-3.94-1.26-4.25-1.67A0.35,0.35,0,0,1,16,22.15a3.22,3.22,0,0,1,.79-0.25,18.68,18.68,0,0,1,2.57-.28,19.05,19.05,0,0,1,2.24,0c0.22,0,1.36,0,1.39-.9a1,1,0,0,0-1.07-1,5.57,5.57,0,0,0-1.48,0c-1.72.14-7-.23-7.62,2.54a1,1,0,0,1,0,.2c0.24,2.41,5.26,3.42,8.88,4.1a4.9,4.9,0,0,0-2.11,3.38c-0.12,1.51,1.1,2.93,3.9,4.51C21.37,35.9,20,37.32,20.13,39A6.41,6.41,0,0,0,24,43.39h0s-1.71-2.55-1.82-4c-0.11-.72.23-1.75,1.69-3a3,3,0,0,1,.37-0.3l0,5.18s0,0,0,.05a1.22,1.22,0,1,0,2.44,0l0-5a3.93,3.93,0,0,1,1.8,3c-0.09,1.4-1.75,4-1.75,4h0a6.41,6.41,0,0,0,3.78-4.44c0.1-1.7-1.3-3.1-3.42-4.58,2.77-1.62,4-3.07,3.81-4.58a5,5,0,0,0-2.17-3.34c3.61-.75,8.6-1.84,8.81-4.26a1,1,0,0,1,0-.2c-0.68-2.76-5.94-2.29-7.67-2.4H28.46a1,1,0,0,0-1.12,1,1.18,1.18,0,0,0,1.39,1,14.62,14.62,0,0,1,2.24,0,16.72,16.72,0,0,1,2.56.22,3.29,3.29,0,0,1,.8.24l0.12,0.07c-0.3.41-2.36,1.23-4.22,1.75-1.71.49-3.14,0.82-3.52,0.91l-0.13,0-0.05-6.07a3.28,3.28,0,0,0,1.83-.58,3,3,0,0,0,3.27-.2,3,3,0,0,0,3.47-.14,3.69,3.69,0,0,0,4.18-.53,3.65,3.65,0,0,0,4.06-2c-5.51.54-10.08-4.82-11.24-5.75h0Zm-7.88,23a12,12,0,0,1-1.26-.78A2.2,2.2,0,0,1,22,30c0-.53-0.17-1.5,2.17-2.44Zm4.3-2.42a2.21,2.21,0,0,1-.92,1.59,6.39,6.39,0,0,1-.94.68l0-4.64c2,0.88,1.9,1.87,1.9,2.36h0Zm0,0" fill="#00b5e4"/>
</svg>
