<svg xmlns="http://www.w3.org/2000/svg" viewBox="0 0 50.46 50.46">
  <title>Iconos</title>
  <path d="M35.43,14.94a1.53,1.53,0,0,0-1.34,1.67v7.91a0.66,0.66,0,1,1-1.3,0V13a1.53,1.53,0,0,0-1.34-1.67A1.53,1.53,0,0,0,30.11,13V23.3a0.66,0.66,0,1,1-1.3,0V11.75a1.53,1.53,0,0,0-1.34-1.67,1.53,1.53,0,0,0-1.34,1.67V23.3a0.66,0.66,0,1,1-1.3,0V14.18a1.53,1.53,0,0,0-1.34-1.67,1.53,1.53,0,0,0-1.34,1.67V28.59l0.08,2.08,0,0a0.36,0.36,0,0,1-.25.1h0c-0.62,0-1.23-.78-2-1.77a10,10,0,0,0-3.46-3.17,2.85,2.85,0,0,0-.64-0.19,2.4,2.4,0,0,0-1.18.1v0l-0.08,0a2.4,2.4,0,0,0-.77.61,0.37,0.37,0,0,0-.07.31,0.54,0.54,0,0,0,.27.37L14,27.21l0.07,0,0.27,0.18a7.73,7.73,0,0,1,1,.7c1.39,1.16,2.35,3,3.69,5.62l0.9,1.72a10.24,10.24,0,0,0,3.81,3.74,10.87,10.87,0,0,0,4.92,1.16h0.13c5.3,0,8-2.49,8-7.36V16.61A1.54,1.54,0,0,0,35.43,14.94Z" fill="#00b5e4"/>
</svg>
