<svg id="Layer_1" data-name="Layer 1" xmlns="http://www.w3.org/2000/svg" viewBox="0 0 50.46 50.46"><defs><style>.cls-1{fill:#00b5e4;}</style></defs><title>Iconos</title><path class="cls-1" d="M28.94,31.91a3.45,3.45,0,0,0-.86-2.46,7.78,7.78,0,0,0-2.92-1.69,34.41,34.41,0,0,1-3.55-1.54,11.31,11.31,0,0,1-2.56-1.76,7.05,7.05,0,0,1-1.66-2.33,7.82,7.82,0,0,1-.59-3.19,7.08,7.08,0,0,1,2-5.23,8.6,8.6,0,0,1,5.42-2.38v-4h3v4.1a7.88,7.88,0,0,1,5.23,2.78,9.17,9.17,0,0,1,1.89,6H28.94A5.21,5.21,0,0,0,28,16.78a3.09,3.09,0,0,0-2.5-1.12,3.18,3.18,0,0,0-2.4.88A3.34,3.34,0,0,0,22.26,19a3.19,3.19,0,0,0,.83,2.3A9.15,9.15,0,0,0,26.18,23a34.28,34.28,0,0,1,3.71,1.71,10.71,10.71,0,0,1,2.45,1.81,7,7,0,0,1,1.53,2.3,7.92,7.92,0,0,1,.53,3,7,7,0,0,1-2,5.21,8.77,8.77,0,0,1-5.51,2.36V43.2h-3V39.46a9.08,9.08,0,0,1-6-2.75,8.85,8.85,0,0,1-2.12-6.2h5.46A5,5,0,0,0,22.29,34a3.89,3.89,0,0,0,3.07,1.2A3.75,3.75,0,0,0,28,34.28,3,3,0,0,0,28.94,31.91Z"/></svg>