<svg id="Layer_1" data-name="Layer 1" xmlns="http://www.w3.org/2000/svg" viewBox="0 0 50.46 50.46"><defs><style>.cls-1{fill:none;}</style></defs><title>importaciones</title><path d="M26.463,12.727c-.025-.041-.051-.081-.08-.12a1,1,0,0,0-.877-.431.817.817,0,0,0-.67.4,1.252,1.252,0,0,0-.147.5.812.812,0,0,1-.04.177.549.549,0,0,1-.194.219c-.2.156-1.406.772-1.586.39-.054-.107.341-.708.394-.821a1.184,1.184,0,0,0,0-.934,1.578,1.578,0,0,0-.749-.623,10.623,10.623,0,0,1-2.477-1.606A7.643,7.643,0,0,0,18.591,8.6a1.288,1.288,0,0,0-1.7.276,1.672,1.672,0,0,0-2.424.382,1.9,1.9,0,0,0-.34,1.139.908.908,0,0,1-.087.495.808.808,0,0,1-.341.149,1.173,1.173,0,0,0-.67,1.025c-.04.432,0,.871,0,1.3a6.489,6.489,0,0,1-.555,1.847,7.05,7.05,0,0,0-.482,4.415,5.374,5.374,0,0,1,.3,1.2,2.978,2.978,0,0,1-.087.842c-.114.559-.248,1.118-.4,1.663a3.887,3.887,0,0,0-.207,1.1,9.221,9.221,0,0,0,.134,1.047,2.414,2.414,0,0,1-.148,1,5.647,5.647,0,0,0,.067,2.547,1.083,1.083,0,0,0-.207.708,2.151,2.151,0,0,0,.187.707,9.261,9.261,0,0,1,.482,2.123,12.95,12.95,0,0,1-.134,2.278,2.636,2.636,0,0,1-.2,1.069,2.7,2.7,0,0,0-.228.806,1.7,1.7,0,0,0,.509,1.649.842.842,0,0,0,.435.106,1.192,1.192,0,0,0,.381.743,1.137,1.137,0,0,0,.917.233,3.052,3.052,0,0,1,1.018,0c.04.318.087.637.127.955s0,1,.261,1.3a1.007,1.007,0,0,0,.81.255,11.14,11.14,0,0,0,2.222-.22.32.32,0,0,0,.174-.077c.107-.107.054-.291,0-.425a1.29,1.29,0,0,0-.636-.707,2.829,2.829,0,0,0-.435-.092c-.622-.149-.977-.828-1.252-1.415-.16-.347-.314-.708-.475-1.048a.608.608,0,0,1-.067-.509c.148-.29.556-.269.67-.63s-.074-.75.22-1.082c.181-.2.456-.283.63-.488a1.482,1.482,0,0,0,.227-.871c0-.41,0-.912-.368-1.089a3.962,3.962,0,0,0-.589-.127c-.194-.064-.368-.3-.248-.474s.248-.114.389-.128c.89-.085.97-1.132,1.01-1.861a1.948,1.948,0,0,0,0-.445h.1a.7.7,0,0,0,.928-.428l.009-.025a1.379,1.379,0,0,0-.194-1.252c.114.169.91-.524.977-.637.281-.467,0-1.069.221-1.585a4.084,4.084,0,0,0,2.2-.361,3.47,3.47,0,0,0,1.62-1.585,1.878,1.878,0,0,0,.187-1.365,2.385,2.385,0,0,0-.181-.382l-.562-1.076a3.516,3.516,0,0,1-.06-2.469,5.459,5.459,0,0,1,1.078-2.32,4.908,4.908,0,0,1,1.586-1.415l.147-.071a1.8,1.8,0,0,0,.844-.651,1.749,1.749,0,0,0,.22-.658A1.993,1.993,0,0,0,26.463,12.727Z"/><path d="M19.7,39.181a.589.589,0,0,0-.6,0,.44.44,0,0,0-.117.588.4.4,0,0,0,.3.19,1.769,1.769,0,0,1,.033.411.407.407,0,0,0,.395.417h.007c.214,0,.321-.431.321-.665C20.037,39.733,20.071,39.415,19.7,39.181Z"/><path d="M21,39.11h-.087c-.669-.049-.823.956-.549,1.415a.479.479,0,0,0,.549.262.4.4,0,0,0,.208-.495.471.471,0,0,1,0-.382c.046-.078.14-.113.2-.191a.349.349,0,0,0,0-.368A.525.525,0,0,0,21,39.11Z"/><path d="M29.265,21.356h8.6a.919.919,0,0,0,0-1.838h-8.6a.919.919,0,1,0,0,1.838Z"/><path d="M29.087,25.159h6.934a.94.94,0,0,0,0-1.837H29.087a.94.94,0,0,0,0,1.837Z"/><path d="M29.087,28.963h6.934a.94.94,0,0,0,0-1.838H29.087a.94.94,0,0,0,0,1.838Z"/><path d="M32.061,7.292l-1.41-1.513L29.16,13.564,37,12.417l-1.411-1.479a.665.665,0,0,1-.183-.47.653.653,0,0,1,.206-.458c2.1-1.995,4.254-4.036,8.565-3.44-2.683-2.133-6.4-3.44-11.213.722A.654.654,0,0,1,32.061,7.292Z"/><polygon class="cls-1" points="43.687 36.438 43.091 36.966 38.253 41.254 35.409 38.468 33.861 39.832 38.253 45.29 43.848 39.076 44.57 38.273 46.107 36.553 44.857 35.349 43.687 36.438"/><path d="M32.8,5.438a13.4,13.4,0,0,1,3.771-2.03H30.2l2.225,2.03Z"/><path d="M10.436,44.591A1.525,1.525,0,0,1,8.9,43.077V6.971a1.525,1.525,0,0,1,1.525-1.525H28.208l0-.008h1l.482-2.03H16.965l.015.009H10.391A3.567,3.567,0,0,0,6.87,6.971V43.054a3.566,3.566,0,0,0,3.566,3.566H32.99a7.613,7.613,0,0,1-1.468-2.041Z"/><polygon class="cls-1" points="43.687 36.438 43.091 36.966 38.253 41.254 35.409 38.468 33.861 39.832 38.253 45.29 43.848 39.076 44.57 38.273 46.107 36.553 44.857 35.349 43.687 36.438"/><path d="M46.669,35.98l-1.25-1.2L44.88,34.2l-.562.505-1.227,1.124-.6.527-.355.321a5.847,5.847,0,0,0-3.887-1.41A5.951,5.951,0,1,0,44.2,41.22a5.886,5.886,0,0,0-.091-1.285l.332-.378.688-.768,1.525-1.709.528-.584Zm-2.1,2.293-.722.8L38.253,45.29l-4.392-5.458,1.548-1.364,2.844,2.786,4.838-4.288.6-.528,1.17-1.089,1.25,1.2Z"/><path d="M43.687,32.939V26.121l.006,0V8.353a4.37,4.37,0,0,0-2,.081l-.03.007v3.73l-.017.008v22.4c.081.041.162.083.241.127Z"/></svg>