<svg xmlns="http://www.w3.org/2000/svg" viewBox="0 0 50.46 50.46">
  <title>Iconos</title>
  <g>
    <path d="M17.81,20.92a0.73,0.73,0,0,0,.91,1.14,9.15,9.15,0,0,1,11.37,0A0.73,0.73,0,0,0,31,20.92,10.61,10.61,0,0,0,17.81,20.92Z" fill="#00b5e4"/>
    <path d="M24.36,22.13a7.33,7.33,0,0,0-4.52,1.54,0.49,0.49,0,1,0,.59.77,6.43,6.43,0,0,1,7.94.06A0.49,0.49,0,1,0,29,23.74,7.32,7.32,0,0,0,24.36,22.13Z" fill="#00b5e4"/>
    <path d="M21.75,25.85a0.36,0.36,0,0,0,.41.6,4,4,0,0,1,4.48.09A0.36,0.36,0,0,0,27.07,26,4.7,4.7,0,0,0,21.75,25.85Z" fill="#00b5e4"/>
    <circle cx="24.4" cy="28.82" r="1.36" fill="#00b5e4"/>
    <path d="M41.65,29.43a5.18,5.18,0,0,0-4,2l-3.66-2.32a10.83,10.83,0,0,0-1.69-12.66l3.84-4.2A4.33,4.33,0,1,0,35,11.16L31.16,15.4a10.82,10.82,0,0,0-13.72.17L15.2,13.24a5.91,5.91,0,1,0-1.08,1l2.25,2.34a10.82,10.82,0,0,0-2,11.49L9.68,30.48a3.38,3.38,0,1,0,.65,1.35l4.75-2.4a10.89,10.89,0,0,0,7,5.07l-0.58,4a4.14,4.14,0,1,0,1.48.21l0.58-4c0.27,0,.54,0,0.81,0a10.84,10.84,0,0,0,8.73-4.43l3.7,2.35A5.2,5.2,0,1,0,41.65,29.43ZM38.49,6.21a1.15,1.15,0,1,1-1.15,1.15A1.15,1.15,0,0,1,38.49,6.21ZM37.71,8.63a1.35,1.35,0,0,0,1.56,0,2.58,2.58,0,0,1,1.26,1.9,3.26,3.26,0,0,1-2,.66H38.42a3.26,3.26,0,0,1-2-.66A2.58,2.58,0,0,1,37.71,8.63ZM10.63,6.15A1.58,1.58,0,1,1,9.05,7.73,1.58,1.58,0,0,1,10.63,6.15Zm2.81,5.94a4.48,4.48,0,0,1-2.71.91h-0.2a4.48,4.48,0,0,1-2.71-.91A3.55,3.55,0,0,1,9.56,9.48a1.86,1.86,0,0,0,2.15,0A3.55,3.55,0,0,1,13.44,12.09ZM7,30.58a0.92,0.92,0,1,1-.92.92A0.92,0.92,0,0,1,7,30.58ZM8.64,34a2.61,2.61,0,0,1-1.58.53H6.95A2.61,2.61,0,0,1,5.37,34a2.06,2.06,0,0,1,1-1.52,1.08,1.08,0,0,0,1.25,0A2.06,2.06,0,0,1,8.64,34ZM21.7,40.22a1.11,1.11,0,1,1-1.11,1.11A1.11,1.11,0,0,1,21.7,40.22Zm2,4.18a3.16,3.16,0,0,1-1.91.64H21.63a3.16,3.16,0,0,1-1.91-.64,2.5,2.5,0,0,1,1.22-1.83,1.31,1.31,0,0,0,1.51,0A2.5,2.5,0,0,1,23.67,44.39ZM24.4,32.27h0a8.38,8.38,0,0,1,0-16.75h0A8.38,8.38,0,0,1,24.4,32.27Zm17.25-.67a1.4,1.4,0,1,1-1.4,1.4A1.4,1.4,0,0,1,41.65,31.6Zm2.5,5.28a4,4,0,0,1-2.41.81H41.57a4,4,0,0,1-2.41-.81,3.16,3.16,0,0,1,1.54-2.32,1.65,1.65,0,0,0,1.91,0A3.16,3.16,0,0,1,44.15,36.88Z" fill="#00b5e4"/>
  </g>
</svg>
