<svg id="Layer_1" data-name="Layer 1" xmlns="http://www.w3.org/2000/svg" viewBox="0 0 50.46 50.46"><defs><style>.cls-1{fill:#12b5e1;}</style></defs><title>incucai</title><path class="cls-1" d="M15.36,13.05a3.26,3.26,0,0,1,2-2.08,3.14,3.14,0,0,1,4.06,2.34A3,3,0,0,1,18.05,17a3.06,3.06,0,0,1-2.69-4M35.22,39a.66.66,0,0,1-.66.66H31.2a.67.67,0,0,1-.67-.66V28.57A4.21,4.21,0,0,0,26.13,24c-1.43,0-3,.09-4.78.26a.68.68,0,0,0-.61.67V37.16h0V39a.67.67,0,0,1-.66.66H16.72a.67.67,0,0,1-.67-.66V21a.67.67,0,0,1,.67-.67h3.36a.67.67,0,0,1,.66.67.66.66,0,0,0,1.06.53,9,9,0,0,1,5.35-1.81c4.89,0,8.07,2.94,8.07,7.51ZM39.85,8.29H10.61a2.32,2.32,0,0,0-2.32,2.32V39.85a2.32,2.32,0,0,0,2.32,2.32H39.85a2.32,2.32,0,0,0,2.32-2.32V10.61A2.32,2.32,0,0,0,39.85,8.29Z"/></svg>