<svg xmlns="http://www.w3.org/2000/svg" viewBox="0 0 50.46 50.46">
  <title>Iconos</title>
  <g>
    <path d="M38.93,23.15a0.88,0.88,0,0,0-.83,0l-6.07,3L32,23.89a0.88,0.88,0,0,0-1.28-.76l-6.07,3-0.08-2.27a0.88,0.88,0,0,0-1.28-.76L17.9,25.79l-0.58-9.34A1.46,1.46,0,0,0,15.89,15H11.28a1.45,1.45,0,0,0-1.42,1.41L8.23,45.23a1.53,1.53,0,0,0,.35,1.06,1.4,1.4,0,0,0,1.07.5l29.77,0a1.4,1.4,0,0,0,1.07-.5,1.52,1.52,0,0,0,.35-1.07C40.38,36.6,39.38,24,39.38,23.85A0.89,0.89,0,0,0,38.93,23.15ZM10,45L11.6,16.8h4l0.65,10.43a0.88,0.88,0,0,0,1.28.74l5.32-2.64,0.08,2.27a0.88,0.88,0,0,0,1.28.76l6.07-3,0.08,2.27a0.88,0.88,0,0,0,1.28.76l6.13-3.06c0.26,3.41,1,12.78,1.35,19.7Z" fill="#00b5e4"/>
    <path d="M42.14,4.87c-1.26-2.21-4-4-6.62-2.87a3.85,3.85,0,0,0-2.28,3.48A2.76,2.76,0,0,0,35.1,8.09a0.88,0.88,0,0,0,.64-1.65,1,1,0,0,1-.73-1A2.1,2.1,0,0,1,36.2,3.63c1.62-.68,3.5.55,4.4,2.12a5.11,5.11,0,0,1,.32,4.33,7,7,0,0,1-4,4.1c-3.82,1.48-7.84-.91-9.51-4.09-2.26-4.31-6-6.28-10-5.27-3.16.79-5.54,3.35-5.53,5.94a0.88,0.88,0,0,0,.88.88h0a0.88,0.88,0,0,0,.88-0.89c0-1.78,1.83-3.63,4.19-4.22,3.19-.79,6.2.84,8.05,4.38a10.23,10.23,0,0,0,8.69,5.49,8.3,8.3,0,0,0,3-.57,8.86,8.86,0,0,0,5-5.16A6.89,6.89,0,0,0,42.14,4.87Z" fill="#00b5e4"/>
    <path d="M21.72,32.15H18.21a0.88,0.88,0,1,0,0,1.77h3.51A0.88,0.88,0,1,0,21.72,32.15Z" fill="#00b5e4"/>
    <path d="M28.62,32.15H25.11a0.88,0.88,0,0,0,0,1.77h3.51A0.88,0.88,0,0,0,28.62,32.15Z" fill="#00b5e4"/>
    <path d="M35.54,32.15H32a0.88,0.88,0,1,0,0,1.77h3.51A0.88,0.88,0,1,0,35.54,32.15Z" fill="#00b5e4"/>
  </g>
</svg>
