<?xml version="1.0" encoding="utf-8"?>
<!-- Generator: Adobe Illustrator 18.0.0, SVG Export Plug-In . SVG Version: 6.00 Build 0)  -->
<!DOCTYPE svg PUBLIC "-//W3C//DTD SVG 1.1//EN" "http://www.w3.org/Graphics/SVG/1.1/DTD/svg11.dtd">
<svg version="1.1" id="Layer_1" xmlns="http://www.w3.org/2000/svg" xmlns:xlink="http://www.w3.org/1999/xlink" x="0px" y="0px"
	 viewBox="0 0 50.5 50.5" style="enable-background:new 0 0 50.5 50.5;" xml:space="preserve">
<style type="text/css">
	.st0{fill:#65B4E1;}
</style>
<g>
	<g>
		<path class="st0" d="M38.9,23.1c-0.3-0.1-0.6-0.2-0.8,0l-6.1,3L32,23.9c0-0.3-0.2-0.6-0.4-0.7c-0.3-0.2-0.6-0.2-0.8,0l-6.1,3
			l-0.1-2.3c0-0.3-0.2-0.6-0.4-0.7c-0.3-0.2-0.6-0.2-0.8,0l-5.4,2.7l-0.6-9.3c0-0.8-0.7-1.4-1.4-1.4h-4.6c-0.8,0-1.4,0.6-1.4,1.4
			L8.2,45.2c0,0.4,0.1,0.8,0.4,1.1c0.3,0.3,0.7,0.5,1.1,0.5l29.8,0c0.4,0,0.8-0.2,1.1-0.5c0.2-0.3,0.4-0.7,0.4-1.1
			c-0.5-8.6-1.5-21.2-1.5-21.3C39.4,23.6,39.2,23.3,38.9,23.1z M10,45l1.6-28.2h4l0.6,10.4c0,0.3,0.2,0.6,0.4,0.7
			c0.3,0.1,0.6,0.2,0.8,0l5.3-2.6l0.1,2.3c0,0.3,0.2,0.6,0.4,0.7c0.3,0.2,0.6,0.2,0.8,0l6.1-3l0.1,2.3c0,0.3,0.2,0.6,0.4,0.7
			c0.3,0.2,0.6,0.2,0.8,0l6.1-3.1c0.3,3.4,1,12.8,1.3,19.7L10,45z"/>
		<path class="st0" d="M42.1,4.9c-1.3-2.2-4-4-6.6-2.9c-1.3,0.6-2.3,2-2.3,3.5c0,1.2,0.7,2.2,1.9,2.6c0.5,0.2,1,0,1.1-0.5
			c0.2-0.5,0-1-0.5-1.1c-0.5-0.2-0.7-0.5-0.7-1c0-0.7,0.5-1.5,1.2-1.8c1.6-0.7,3.5,0.5,4.4,2.1c0.9,1.7,0.7,3.3,0.3,4.3
			c-0.6,1.8-2.2,3.4-4,4.1c-3.8,1.5-7.8-0.9-9.5-4.1c-2.3-4.3-6-6.3-10-5.3c-3.2,0.8-5.5,3.3-5.5,5.9c0,0.5,0.4,0.9,0.9,0.9
			c0,0,0,0,0,0c0.5,0,0.9-0.4,0.9-0.9c0-1.8,1.8-3.6,4.2-4.2c3.2-0.8,6.2,0.8,8.1,4.4c1.6,3,5,5.5,8.7,5.5c1,0,2-0.2,3-0.6
			c2.3-0.9,4.2-2.9,5-5.2C43.3,8.7,43.1,6.6,42.1,4.9z"/>
		<path class="st0" d="M21.7,32.2h-3.5c-0.5,0-0.9,0.4-0.9,0.9c0,0.5,0.4,0.9,0.9,0.9h3.5c0.5,0,0.9-0.4,0.9-0.9
			C22.6,32.5,22.2,32.2,21.7,32.2z"/>
		<path class="st0" d="M28.6,32.2h-3.5c-0.5,0-0.9,0.4-0.9,0.9c0,0.5,0.4,0.9,0.9,0.9h3.5c0.5,0,0.9-0.4,0.9-0.9
			C29.5,32.5,29.1,32.2,28.6,32.2z"/>
		<path class="st0" d="M35.5,32.2H32c-0.5,0-0.9,0.4-0.9,0.9c0,0.5,0.4,0.9,0.9,0.9h3.5c0.5,0,0.9-0.4,0.9-0.9
			C36.4,32.5,36,32.2,35.5,32.2z"/>
	</g>
</g>
</svg>
