<?xml version="1.0" encoding="UTF-8"?>
<svg xmlns="http://www.w3.org/2000/svg" width="50.46" height="50.46" version="1.1" viewBox="0 0 50.46 50.46">
  <!-- Generator: Adobe Illustrator 28.7.1, SVG Export Plug-In . SVG Version: 1.2.0 Build 142)  -->
  <g>
    <g id="stroke_1_x2C_6">
      <g>
        <path d="M21.638,11.928c.248.105.468.062.679-.129.161-.147.226-.342.198-.594l-.002-.242c-.002-.418-.257-.7-.633-.701h-.003c-.379,0-.635.28-.637.696v.123c0,.093-.002.186,0,.28.009.271.137.456.396.566Z"/>
        <path d="M24.721,11.932c.26.096.477.049.682-.144.153-.145.214-.334.188-.578l-.002-.24c-.002-.421-.253-.706-.627-.708h-.006c-.177,0-.329.058-.44.168-.128.126-.199.321-.199.547v.065c-.002.104-.003.208,0,.312.007.262.165.488.404.577Z"/>
        <path d="M28.026,11.974h.002c.379,0,.635-.28.637-.696,0-.174.002-.288,0-.403-.007-.27-.136-.455-.396-.566-.086-.037-.171-.056-.252-.056-.142,0-.278.057-.409.171-.174.151-.244.35-.215.606l.002.243c.002.418.256.701.633.701Z"/>
        <path d="M21.881,14.217c-.176,0-.329.058-.44.168-.128.126-.199.321-.2.548v.11c0,.089,0,.178,0,.267.006.262.164.488.404.577.257.095.476.051.682-.144.153-.144.213-.334.187-.578v-.239c-.003-.421-.255-.706-.628-.709h-.006Z"/>
        <path d="M24.943,15.929c.173-.027.335-.057.447-.168.128-.126.198-.32.199-.546v-.11c0-.089,0-.178,0-.267-.007-.274-.165-.493-.424-.584-.081-.028-.158-.043-.232-.043-.159,0-.304.068-.443.207-.141.141-.2.33-.173.56l.002.237c.002.425.253.711.625.714Z"/>
        <path d="M27.791,15.884c.237.1.456.063.662-.117.172-.15.243-.349.213-.608l-.002-.242c-.002-.417-.258-.699-.635-.699h0c-.379,0-.634.28-.636.698v.083c-.002.106-.003.212,0,.318.009.272.138.457.397.567Z"/>
        <path d="M21.644,19.841c.259.096.478.051.683-.143.153-.145.214-.334.188-.578v-.239c-.003-.421-.254-.707-.627-.71-.204-.018-.334.057-.446.168-.128.126-.199.321-.2.546v.11c0,.089,0,.178,0,.267.006.262.163.489.402.578Z"/>
        <path d="M24.318,19.182c.002.419.256.7.634.701h0c.379,0,.635-.28.637-.698v-.109c0-.089,0-.178,0-.268-.005-.295-.174-.524-.453-.615-.217-.071-.517-.023-.663.21-.073.117-.116.27-.161.431,0,.002-.002.004-.002.007l.009.003v.338Z"/>
        <path d="M28.034,18.172h-.004c-.371,0-.633.273-.637.667v.063c0,.122-.002.245,0,.367.007.271.135.457.393.568.244.105.466.065.679-.126.163-.148.228-.342.2-.593l-.002-.265c-.003-.4-.262-.679-.631-.68Z"/>
        <path d="M45.141,27.337h-8.113v-10.055l.224-.018c.296-.022.5-.177.641-.484v-.381c-.189-.32-.47-.456-.948-.434-1.179.019-2.358.015-3.556.013l-1.648-.003V7.058c0-.526-.226-.75-.753-.75h-12.084c-.503,0-.737.235-.738.738v.681c-.002.641-.003,1.283.005,1.925.004.282-.11.465-.369.592-.713.351-1.422.706-2.133,1.06-.761.38-1.522.76-2.285,1.135-.358.176-.497.4-.497.798.007,4.548.007,9.096.006,13.645v.423l-.089.032h-7.117c-.372,0-.673.301-.673.673s.301.673.673.673h1.379c0,.269,0,.538,0,.807.003,1.146.81,2.024,1.963,2.134.573.056,1.144.132,1.713.208l.775.101c.3.038.478.18.58.461.106.291.227.578.349.864.109.257.218.514.316.775.073.193.039.469-.079.628-.306.413-.622.818-.936,1.224-.213.274-.426.547-.635.823-.75.985-.683,2.052.186,2.928.493.498.99.993,1.486,1.488l.695.694c1.007,1.009,2.046,1.066,3.175.181l.111-.086c.593-.466,1.185-.93,1.791-1.379.16-.118.439-.153.628-.08.264.099.525.21.785.32.284.12.567.239.854.345.279.103.426.288.461.583l.08.647c.054.432.107.865.157,1.296l.019.173c.07.625.135,1.217.584,1.613.233.207.519.359.822.521.122.064.243.129.361.198h4.23c.115-.066.235-.128.353-.19.297-.156.578-.303.806-.502.472-.411.539-1.026.611-1.677l.015-.134c.055-.486.116-.973.177-1.46l.061-.485c.025-.203.099-.453.458-.583.3-.108.594-.232.887-.356.25-.107.499-.212.752-.308.195-.074.471-.042.628.073.463.344.917.698,1.37,1.05l.647.503c1.013.781,2.074.718,2.984-.186.755-.75,1.509-1.503,2.257-2.259.869-.878.939-1.947.19-2.932-.512-.673-1.031-1.339-1.558-2-.189-.237-.215-.454-.088-.727.259-.558.468-1.065.643-1.55.109-.306.311-.466.632-.505.387-.046.772-.095,1.158-.144.417-.053.835-.106,1.253-.155,1.044-.122,1.682-.654,1.952-1.628.013-.043.032-.078.051-.105v-1.207h1.366c.372,0,.673-.301.673-.673s-.301-.673-.673-.673ZM26.5,27.337h-3.089v-3.017h3.089v3.017ZM32.913,28.689c-.435,3.74-3.64,6.65-7.514,6.65h-.025c-3.83-.012-6.987-2.92-7.439-6.65h14.978ZM31.753,20.762h.786c.411.003.822.005,1.231-.002.223-.004.421-.125.533-.324.11-.199.109-.43-.004-.621-.133-.222-.309-.326-.557-.326h-.002c-.477,0-.948,0-1.418-.003l-.388-.031-.148-.063-.029-.172v-1.952h3.966v10.068h-3.965v-2.62h1.919c.211,0,.389-.063.515-.182.122-.114.186-.271.186-.456,0-.384-.278-.632-.706-.633h-1.919v-2.683ZM30.449,7.593v19.743h-2.649v-3.017h.053l.052.004c.01,0,.026-.003.038-.004h.088c.372,0,.674-.302.674-.674s-.302-.674-.674-.674h-6.129c-.25,0-.459.142-.576.344-.004.007-.009.012-.013.019-.023.044-.038.09-.051.138-.004.016-.015.031-.018.048-.002.013.002.026,0,.039-.004.029-.017.056-.017.086,0,.031.014.058.018.088.001.008.003.016.005.024.055.317.319.563.652.563h.208v3.017h-2.656V7.593h10.995ZM14.16,13.924c0-.215.045-.456.372-.615.738-.358,1.472-.726,2.206-1.094l1.405-.693v4.453h-.743c-.406.002-.809.003-1.216-.002h-.012c-.198,0-.352.069-.482.216-.181.205-.219.42-.116.66.114.264.298.394.565.396.411.004.821.003,1.234.002h.776s0,2.682,0,2.682h-1.92c-.21,0-.388.063-.515.182-.122.114-.186.272-.186.456,0,.378.284.632.706.634l1.675.011.196.038.037.207v2.427h-.743c-.405,0-.811.002-1.216-.002-.233-.004-.362.065-.495.216-.182.204-.22.42-.116.66.114.264.298.394.565.396.41.003.819.003,1.234.002h.779s0,2.18,0,2.18h-3.988v-.254c0-4.386,0-8.772-.004-13.158ZM41.784,30.509c-.946.135-2.068.291-3.204.418-.367.041-.555.193-.692.561-.291.779-.639,1.613-1.064,2.549-.147.324-.127.546.069.796.66.836,1.312,1.679,1.961,2.523.426.553.393,1.023-.104,1.524-.752.756-1.505,1.51-2.261,2.262-.481.48-.958.507-1.497.094l-.494-.381c-.661-.508-1.323-1.017-1.972-1.54-.296-.239-.543-.266-.913-.092-.776.365-1.6.708-2.52,1.049-.349.129-.493.311-.535.671-.107.929-.24,1.946-.419,3.204-.084.597-.434.904-1.04.911-.558.006-1.115.008-1.673.008s-1.115-.003-1.673-.008c-.621-.006-.966-.313-1.054-.938-.152-1.066-.291-2.134-.417-3.204-.041-.34-.183-.514-.525-.644-.828-.314-1.684-.672-2.614-1.09-.301-.134-.517-.11-.764.084-.829.648-1.661,1.294-2.496,1.937-.587.453-1.045.422-1.579-.109-.745-.743-1.491-1.487-2.234-2.234-.484-.488-.512-.949-.091-1.496.65-.844,1.301-1.687,1.962-2.524.2-.254.223-.477.079-.794-.423-.933-.772-1.767-1.065-2.549-.139-.375-.325-.529-.685-.57-1.114-.125-2.237-.281-3.204-.418-.586-.083-.9-.43-.906-1.006-.003-.272,0-.547,0-.82h4.324s.008.004.013.007h4.028c.452,4.506,4.263,8.04,8.884,8.047h.012c4.626,0,8.445-3.534,8.897-8.047h3.107s.006-.005.01-.007h5.244c0,.282.004.564,0,.848-.007.55-.325.898-.894.979Z"/>
      </g>
    </g>
  </g>
</svg>