<?xml version="1.0" encoding="utf-8"?>
<!-- Generator: Adobe Illustrator 24.0.1, SVG Export Plug-In . SVG Version: 6.00 Build 0)  -->
<svg version="1.1" id="Layer_1" xmlns="http://www.w3.org/2000/svg" xmlns:xlink="http://www.w3.org/1999/xlink" x="0px" y="0px"
	 viewBox="0 0 50.5 50.5" style="enable-background:new 0 0 50.5 50.5;" xml:space="preserve">
<g>
	<path d="M40.64,34.393V21.681c-0.007-0.302-0.15-0.586-0.39-0.77l-14.44-10.44c-0.338-0.229-0.782-0.229-1.12,0L10.3,20.911
		c-0.24,0.184-0.383,0.468-0.39,0.77v12.712h1.9V22.171l13.44-9.7l13.44,9.7l-0.027,12.222H40.64z"/>
	<path d="M7.734,19.957c0.052-0.031,0.101-0.067,0.146-0.106l17.37-12.59l17.37,12.6c0.443,0.383,1.112,0.334,1.495-0.109
		c0.383-0.443,0.334-1.112-0.109-1.495c-0.046-0.039-0.095-0.075-0.146-0.106v-0.01l-18-13c-0.37-0.267-0.87-0.267-1.24,0l-8.5,6.17
		v-5.36c0-0.585-0.474-1.06-1.06-1.06S14,5.365,14,5.951c0,0,0,0,0,0v6.52c0.006,0.096,0.027,0.19,0.06,0.28l-7.42,5.39
		c-0.501,0.302-0.663,0.953-0.361,1.455C6.581,20.097,7.232,20.259,7.734,19.957z"/>
	<path d="M44.297,36.641h-6.425l-2.076-3.726c-0.173-0.311-0.498-0.505-0.854-0.513c-0.355,0-0.688,0.175-0.873,0.479l-3.647,5.966
		l-4-10.771c-0.15-0.403-0.526-0.678-0.974-0.65c-0.431,0.016-0.803,0.305-0.924,0.719L20.651,41.43l-3.667-9.869
		c-0.144-0.386-0.509-0.645-0.92-0.651c-0.434-0.016-0.786,0.238-0.942,0.619l-2.104,5.112H6.203c-0.552,0-1,0.447-1,1s0.448,1,1,1
		h7.485c0.405,0,0.771-0.244,0.925-0.619l1.386-3.369l3.829,10.306c0.146,0.393,0.521,0.651,0.937,0.651
		c0.012,0,0.024,0,0.037-0.001c0.431-0.016,0.803-0.305,0.924-0.719l3.874-13.285l3.665,9.869c0.133,0.358,0.46,0.609,0.841,0.646
		c0.384,0.03,0.75-0.147,0.949-0.474l3.828-6.262l1.529,2.743c0.177,0.316,0.511,0.513,0.874,0.513h7.013c0.552,0,1-0.447,1-1
		S44.849,36.641,44.297,36.641z"/>
</g>
</svg>
