<svg xmlns="http://www.w3.org/2000/svg" viewBox="0 0 50.46 50.46">
  <title>Iconos</title>
  <g>
    <g>
      <rect x="14.44" y="20.88" width="2.83" height="12.43" fill="#00b5e4"/>
      <rect x="20.69" y="20.88" width="2.83" height="12.43" fill="#00b5e4"/>
      <rect x="26.94" y="20.88" width="2.83" height="12.43" fill="#00b5e4"/>
      <rect x="33.18" y="20.88" width="2.83" height="12.43" fill="#00b5e4"/>
    </g>
    <g>
      <path d="M38.34,35.54a1.14,1.14,0,0,0-.5-0.41A1.12,1.12,0,0,0,37.41,35H13.05a1.12,1.12,0,0,0-.44.09,1.14,1.14,0,0,0-.5.41,1.12,1.12,0,0,0,0,1.26,1.14,1.14,0,0,0,.5.41,1.12,1.12,0,0,0,.44.09H37.41a1.12,1.12,0,0,0,.44-0.09,1.14,1.14,0,0,0,.5-0.41A1.12,1.12,0,0,0,38.34,35.54Z" fill="#00b5e4"/>
      <path d="M41,39H9.45a1.13,1.13,0,0,0,0,2.26H41A1.13,1.13,0,0,0,41,39Z" fill="#00b5e4"/>
    </g>
    <path d="M39.14,15.7L25.82,9.32a1.26,1.26,0,0,0-1.17,0L11.32,15.7a1.26,1.26,0,0,0,.59,2.37h0.73v1.08H37.82V18.07h0.73A1.26,1.26,0,0,0,39.14,15.7Z" fill="#00b5e4"/>
  </g>
</svg>
