<?xml version="1.0" encoding="utf-8"?>
<!-- Generator: Adobe Illustrator 18.0.0, SVG Export Plug-In . SVG Version: 6.00 Build 0)  -->
<!DOCTYPE svg PUBLIC "-//W3C//DTD SVG 1.1//EN" "http://www.w3.org/Graphics/SVG/1.1/DTD/svg11.dtd">
<svg version="1.1" id="Layer_1" xmlns="http://www.w3.org/2000/svg" xmlns:xlink="http://www.w3.org/1999/xlink" x="0px" y="0px"
	 viewBox="0 0 50.5 50.5" style="enable-background:new 0 0 50.5 50.5;" xml:space="preserve">
<style type="text/css">
	.st0{fill:#65B4E1;}
</style>
<g>
	<g>
		<g>
			<rect x="14.4" y="20.9" class="st0" width="2.8" height="12.4"/>
			<rect x="20.7" y="20.9" class="st0" width="2.8" height="12.4"/>
			<rect x="26.9" y="20.9" class="st0" width="2.8" height="12.4"/>
			<rect x="33.2" y="20.9" class="st0" width="2.8" height="12.4"/>
		</g>
		<g>
			<path class="st0" d="M38.3,35.5c0-0.1-0.1-0.1-0.1-0.2c-0.1-0.1-0.2-0.2-0.4-0.2S37.6,35,37.4,35H13.1c-0.2,0-0.3,0-0.4,0.1
				c-0.1,0.1-0.3,0.1-0.4,0.2c-0.1,0.1-0.1,0.1-0.1,0.2c-0.1,0.2-0.2,0.4-0.2,0.6s0.1,0.4,0.2,0.6c0,0.1,0.1,0.1,0.1,0.2
				c0.1,0.1,0.2,0.2,0.4,0.2c0.1,0.1,0.3,0.1,0.4,0.1h24.4c0.2,0,0.3,0,0.4-0.1c0.1-0.1,0.3-0.1,0.4-0.2c0.1-0.1,0.1-0.1,0.1-0.2
				c0.1-0.2,0.2-0.4,0.2-0.6S38.5,35.7,38.3,35.5z"/>
			<path class="st0" d="M41,39H9.4c-0.6,0-1.1,0.5-1.1,1.1c0,0.6,0.5,1.1,1.1,1.1H41c0.6,0,1.1-0.5,1.1-1.1C42.1,39.5,41.6,39,41,39
				z"/>
		</g>
		<path class="st0" d="M39.1,15.7L25.8,9.3c-0.4-0.2-0.8-0.2-1.2,0l-13.3,6.4c-1.2,0.6-0.7,2.4,0.6,2.4h0.7v1.1h25.2v-1.1h0.7
			C39.9,18.1,40.3,16.3,39.1,15.7z"/>
	</g>
</g>
</svg>
