<svg id="Layer_1" data-name="Layer 1" xmlns="http://www.w3.org/2000/svg" viewBox="0 0 50.46 50.46"><defs><style>.cls-1{fill:#00b5e4;}</style></defs><title>Iconos</title><path class="cls-1" d="M16.1,33.22l0,11.67a2.16,2.16,0,0,0,3.38,1.8l5.33-3.62a0.81,0.81,0,0,1,.91,0l5.26,3.65A2.16,2.16,0,0,0,34.33,45l0-11.73-1.36,2,0,9.77a0.8,0.8,0,0,1-1.26.65l-5.26-3.65a2.17,2.17,0,0,0-2.45,0l-5.33,3.62a0.8,0.8,0,0,1-1.25-.67l0-9.65Z"/><path class="cls-1" d="M39.87,22.24a3.47,3.47,0,0,0,2-2.95,3.47,3.47,0,0,0-2-2.95,2.62,2.62,0,0,1-1.06-3.27,3.49,3.49,0,0,0,0-3.42,3.21,3.21,0,0,0-2.83-1.39,5.18,5.18,0,0,0-.59,0l-0.26,0a2.63,2.63,0,0,1-2.52-2c-0.44-2.16-1.87-2.93-3.06-2.93a3.79,3.79,0,0,0-2.54,1.11,2.62,2.62,0,0,1-3.44,0A3.79,3.79,0,0,0,21,3.36c-1.2,0-2.63.77-3.06,2.93a2.63,2.63,0,0,1-2.52,2l-0.26,0a5.18,5.18,0,0,0-.59,0,3.21,3.21,0,0,0-2.83,1.39,3.49,3.49,0,0,0,0,3.42,2.62,2.62,0,0,1-1.06,3.27,3.47,3.47,0,0,0-2,2.95,3.47,3.47,0,0,0,2,2.95,2.62,2.62,0,0,1,1.06,3.27,3.49,3.49,0,0,0,0,3.42,3.21,3.21,0,0,0,2.83,1.39,5.16,5.16,0,0,0,.59,0l0.26,0a2.63,2.63,0,0,1,2.52,2c0.44,2.16,1.87,2.93,3.06,2.93a3.79,3.79,0,0,0,2.54-1.11,2.62,2.62,0,0,1,3.44,0,3.79,3.79,0,0,0,2.54,1.11c1.2,0,2.63-.77,3.06-2.93a2.63,2.63,0,0,1,2.52-2l0.26,0a5.16,5.16,0,0,0,.59,0,3.21,3.21,0,0,0,2.83-1.39,3.49,3.49,0,0,0,0-3.42A2.62,2.62,0,0,1,39.87,22.24Zm-2.3,3.84c0.76,1.66,0,2.88-1.63,2.88l-0.44,0-0.42,0A4,4,0,0,0,31.22,32c-0.24,1.2-.91,1.84-1.73,1.84a2.47,2.47,0,0,1-1.62-.75,4,4,0,0,0-5.28,0,2.47,2.47,0,0,1-1.62.75c-0.82,0-1.49-.64-1.73-1.84a4,4,0,0,0-3.85-3.13l-0.42,0-0.44,0c-1.66,0-2.39-1.22-1.63-2.88a4,4,0,0,0-1.63-5c-1.72-1-1.72-2.55,0-3.52a4,4,0,0,0,1.63-5c-0.76-1.66,0-2.88,1.63-2.88l0.44,0,0.42,0a4,4,0,0,0,3.85-3.13c0.24-1.2.91-1.84,1.73-1.84a2.47,2.47,0,0,1,1.62.75,4,4,0,0,0,5.28,0,2.47,2.47,0,0,1,1.62-.75c0.82,0,1.49.64,1.73,1.84a4,4,0,0,0,3.85,3.13l0.42,0,0.44,0c1.66,0,2.39,1.22,1.63,2.88a4,4,0,0,0,1.63,5c1.72,1,1.72,2.55,0,3.52A4,4,0,0,0,37.57,26.08Z"/><path class="cls-1" d="M25.23,9.22A10.08,10.08,0,1,0,35.31,19.3,10.09,10.09,0,0,0,25.23,9.22Zm0,18.8A8.72,8.72,0,1,1,34,19.3,8.73,8.73,0,0,1,25.23,28Z"/><path class="cls-1" d="M26.56,21.79a1.71,1.71,0,0,1-1.18.43,1.88,1.88,0,0,1-1.51-.68,3.56,3.56,0,0,1-.58-2.29,3.32,3.32,0,0,1,.59-2.2,1.93,1.93,0,0,1,1.53-.68,1.75,1.75,0,0,1,1.79,1.43l1.7-.41A3.35,3.35,0,0,0,28,15.83a3.53,3.53,0,0,0-2.53-.92,3.75,3.75,0,0,0-2.88,1.17,4.64,4.64,0,0,0-1.1,3.29,4.42,4.42,0,0,0,1.09,3.16,3.66,3.66,0,0,0,2.78,1.16A3.63,3.63,0,0,0,27.66,23a3.73,3.73,0,0,0,1.27-2.07l-1.66-.53A2.52,2.52,0,0,1,26.56,21.79Z"/></svg>