<?xml version="1.0" encoding="utf-8"?>
<!-- Generator: Adobe Illustrator 24.0.1, SVG Export Plug-In . SVG Version: 6.00 Build 0)  -->
<svg version="1.1" id="Layer_1" xmlns="http://www.w3.org/2000/svg" xmlns:xlink="http://www.w3.org/1999/xlink" x="0px" y="0px"
	 viewBox="0 0 50.5 50.5" style="enable-background:new 0 0 50.5 50.5;" xml:space="preserve">
<style type="text/css">
	.st0{fill:#1D1D1B;}
</style>
<g>
	<path class="st0" d="M20.342,22.164c0,0.257,0.201,0.458,0.457,0.458h0.777v4.622h-0.777c-0.261,0-0.457,0.206-0.457,0.479
		c0,0.257,0.201,0.458,0.457,0.458h2.46c0.264,0,0.479-0.206,0.479-0.458c0-0.269-0.21-0.479-0.479-0.479h-0.748v-4.622h0.748
		c0.264,0,0.479-0.205,0.479-0.458c0-0.269-0.21-0.479-0.479-0.479h-2.46C20.538,21.685,20.342,21.891,20.342,22.164z"/>
	<path class="st0" d="M25.62,28.127c0.072,0.034,0.131,0.034,0.178,0.034c0.189,0,0.361-0.107,0.452-0.288l0.663-1.671h2.177
		l0.663,1.669c0.085,0.227,0.359,0.347,0.621,0.259c0.225-0.086,0.344-0.369,0.261-0.618l-2.18-5.478l-0.009-0.045l-0.016-0.026
		c-0.021-0.037-0.05-0.084-0.097-0.116c-0.034-0.049-0.08-0.075-0.128-0.103l-0.051-0.015h-0.004
		c-0.058-0.024-0.115-0.024-0.156-0.024c-0.04,0-0.082,0-0.135,0.025L27.8,21.747c-0.042,0.021-0.093,0.046-0.131,0.1
		c-0.062,0.043-0.092,0.115-0.104,0.145l-2.195,5.513c-0.054,0.128-0.053,0.271,0.002,0.393
		C25.424,28.009,25.516,28.093,25.62,28.127z M27.995,23.46l0.723,1.79h-1.432L27.995,23.46z"/>
	<path d="M45.779,24.86c-0.305-2.153-1.062-4.111-2.145-5.557c0.156-1.634-0.16-3.464-0.901-5.198
		c-0.869-2.029-2.229-3.718-3.771-4.697c-0.005-0.026-0.016-0.05-0.021-0.076c-0.012-0.085-0.03-0.166-0.066-0.24
		c-0.589-2.365-2.645-4.077-5.067-4.077c-0.094,0-0.187,0.005-0.285,0.015c-0.996-1.083-2.358-1.694-3.801-1.694
		c-1.887,0-3.541,1.028-4.473,2.565c-0.932-1.537-2.585-2.565-4.472-2.565c-1.442,0-2.804,0.612-3.802,1.694
		c-0.094-0.009-0.188-0.014-0.285-0.014c-2.531,0-4.681,1.862-5.154,4.393c-1.542,0.979-2.901,2.668-3.77,4.697
		c-0.742,1.732-1.058,3.563-0.903,5.198c-1.081,1.446-1.838,3.404-2.144,5.557c-0.487,3.436,0.302,6.672,1.977,8.269
		c-0.177,1.915,0.496,4.164,1.847,6.116c1.368,1.976,3.272,3.415,5.149,3.906c1.928,2.571,4.593,4.022,6.998,4.022
		c1.077,0,2.102-0.291,2.985-0.902c0.668-0.463,1.198-1.099,1.575-1.848c0.391,0.771,0.917,1.393,1.575,1.847
		c0.883,0.612,1.907,0.903,2.984,0.903c2.405,0,5.07-1.451,6.998-4.022c1.877-0.492,3.781-1.931,5.148-3.906
		c1.351-1.951,2.023-4.201,1.847-6.116C45.477,31.532,46.266,28.297,45.779,24.86z M31.47,17.451c0.798,0,1.446,0.649,1.446,1.447
		v12.378c0,0.798-0.648,1.446-1.446,1.446H19.092c-0.797,0-1.446-0.648-1.446-1.446V18.897c0-0.798,0.649-1.447,1.446-1.447H31.47z
		 M24.063,43.143c-0.285,0.804-0.722,1.414-1.299,1.812c-1.972,1.365-5.128,0.354-7.358-2.233c1.428-0.647,2.427-2.078,2.427-3.745
		c0-0.441-0.358-0.8-0.8-0.8s-0.8,0.358-0.8,0.8c0,1.383-1.122,2.509-2.504,2.516c-1.396-0.48-2.808-1.623-3.871-3.158
		c-1.144-1.653-1.707-3.512-1.56-5.056c1.075-0.141,2.07-0.676,2.741-1.549c0.269-0.351,0.203-0.853-0.147-1.122
		c-0.351-0.269-0.853-0.202-1.122,0.147c-0.5,0.652-1.287,1.01-2.111,0.983c-0.022-0.001-0.04,0.009-0.062,0.009
		c-1.153-1.308-1.683-3.916-1.294-6.662c0.223-1.574,0.737-3.054,1.439-4.214c0.154,0.002,0.306,0.014,0.453,0.043
		c1.215,0.232,2.097,1.3,2.097,2.54c0,0.653-0.245,1.277-0.689,1.757c-0.3,0.324-0.281,0.83,0.043,1.13
		c0.154,0.144,0.349,0.214,0.543,0.214c0.215,0,0.429-0.087,0.587-0.257c0.719-0.776,1.115-1.786,1.115-2.844
		c0-2.006-1.428-3.735-3.396-4.111c-0.004-0.001-0.008,0-0.013-0.001c-0.177-1.416,0.085-3.046,0.753-4.606
		c0.653-1.525,1.611-2.804,2.694-3.642c0.641,1.441,2.081,2.451,3.758,2.451c0.442,0,0.8-0.358,0.8-0.8s-0.358-0.8-0.8-0.8
		c-1.378,0-2.497-1.113-2.514-2.487c0.402-1.578,1.723-2.724,3.3-2.822c0.177,1.491,1.435,2.655,2.973,2.655
		c0.442,0,0.8-0.358,0.8-0.8s-0.358-0.8-0.8-0.8c-0.777,0-1.409-0.632-1.409-1.409c0-0.005-0.003-0.01-0.003-0.016
		c0.705-0.842,1.691-1.332,2.742-1.332c2.025,0,3.672,1.715,3.666,3.863c-0.008,0.059-0.015,0.118-0.019,0.266
		c0,0.001,0,0.003,0.001,0.004c-0.298,0.243-0.499,0.597-0.499,1.011c0,0.424,0.213,0.785,0.524,1.027v2.482v2.262h-1.807v-2.233
		c0.311-0.242,0.524-0.603,0.524-1.028c0-0.731-0.593-1.323-1.323-1.323c-0.731,0-1.323,0.593-1.323,1.323
		c0,0.424,0.213,0.785,0.523,1.027v2.233h-1.952c-1.68,0-3.046,1.367-3.046,3.046v2.141h-0.682
		c-0.242-0.311-0.603-0.523-1.027-0.523c-0.731,0-1.323,0.593-1.323,1.323s0.593,1.323,1.323,1.323c0.424,0,0.785-0.213,1.028-0.524
		h0.682v4.896h-1.682c-0.242-0.311-0.603-0.523-1.027-0.523c-0.731,0-1.323,0.593-1.323,1.323c0,0.731,0.593,1.323,1.323,1.323
		c0.425,0,0.785-0.213,1.028-0.524h1.682v2.142c0,1.68,1.366,3.046,3.046,3.046h1.952v1.268c-0.311,0.242-0.523,0.603-0.523,1.027
		c0,0.731,0.593,1.323,1.323,1.323c0.731,0,1.323-0.593,1.323-1.323c0-0.424-0.213-0.785-0.524-1.028v-1.268h1.807v2.813v2.482
		c-0.311,0.242-0.524,0.603-0.524,1.027c0,0.417,0.206,0.774,0.508,1.017C24.415,42.151,24.308,42.629,24.063,43.143z M40.64,38.335
		c-1.049,1.516-2.438,2.646-3.817,3.136c-1.377-0.012-2.494-1.134-2.494-2.514c0-0.441-0.358-0.8-0.8-0.8s-0.8,0.358-0.8,0.8
		c0,1.654,0.987,3.074,2.397,3.728c-2.233,2.615-5.406,3.642-7.391,2.27c-0.577-0.399-1.014-1.009-1.333-1.895
		c-0.213-0.438-0.318-0.91-0.337-1.4c0.302-0.243,0.508-0.599,0.508-1.017c0-0.424-0.213-0.785-0.524-1.027v-2.482v-2.813h1.869
		v2.233c-0.311,0.242-0.524,0.603-0.524,1.028c0,0.731,0.593,1.323,1.323,1.323s1.323-0.593,1.323-1.323
		c0-0.424-0.213-0.785-0.523-1.027v-2.233h1.951c1.68,0,3.046-1.366,3.046-3.046v-2.142h1.682c0.242,0.311,0.603,0.524,1.028,0.524
		c0.731,0,1.323-0.593,1.323-1.323c0-0.731-0.593-1.323-1.323-1.323c-0.424,0-0.785,0.213-1.027,0.523h-1.683v-4.896h0.683
		c0.242,0.311,0.603,0.524,1.028,0.524c0.731,0,1.323-0.593,1.323-1.323s-0.593-1.323-1.323-1.323c-0.424,0-0.785,0.213-1.027,0.523
		h-0.683v-2.141c0-1.68-1.366-3.046-3.046-3.046h-1.951v-1.268c0.311-0.242,0.523-0.603,0.523-1.027
		c0-0.731-0.593-1.323-1.323-1.323s-1.323,0.593-1.323,1.323c0,0.425,0.213,0.785,0.524,1.028v1.268H26.05l0.003-4.746
		c0.309-0.242,0.521-0.602,0.521-1.025c0-0.416-0.204-0.771-0.503-1.014c0.001-0.029,0.003-0.049,0.004-0.089
		c-0.003-0.061-0.01-0.12-0.024-0.219c0-2.108,1.647-3.823,3.673-3.823c1.072,0,2.081,0.505,2.787,1.379
		c-0.017,0.762-0.639,1.377-1.406,1.377c-0.441,0-0.8,0.358-0.8,0.8s0.358,0.8,0.8,0.8c1.536,0,2.793-1.161,2.973-2.65
		c1.595,0.124,2.915,1.318,3.274,2.941c-0.075,1.321-1.163,2.376-2.502,2.376c-0.441,0-0.8,0.358-0.8,0.8s0.358,0.8,0.8,0.8
		c1.672,0,3.108-1.005,3.751-2.44c1.07,0.838,2.017,2.108,2.664,3.618c0.669,1.565,0.932,3.201,0.752,4.618
		c-1.948,0.391-3.358,2.107-3.358,4.1c0,1.058,0.396,2.068,1.114,2.844c0.157,0.17,0.372,0.257,0.587,0.257
		c0.194,0,0.39-0.071,0.544-0.214c0.324-0.3,0.343-0.806,0.043-1.13c-0.444-0.479-0.688-1.103-0.688-1.757
		c0-1.239,0.882-2.308,2.097-2.54c0.131-0.025,0.268-0.034,0.405-0.038c0.701,1.159,1.214,2.637,1.436,4.209
		c0.388,2.74-0.138,5.343-1.285,6.654c-0.003,0-0.005-0.001-0.008-0.001c-0.849,0.02-1.612-0.333-2.111-0.983
		c-0.27-0.351-0.771-0.416-1.122-0.147c-0.351,0.27-0.416,0.771-0.147,1.122c0.658,0.857,1.627,1.388,2.678,1.542
		C42.35,34.817,41.786,36.679,40.64,38.335z"/>
</g>
</svg>
