<?xml version="1.0" encoding="utf-8"?>
<!-- Generator: Adobe Illustrator 18.0.0, SVG Export Plug-In . SVG Version: 6.00 Build 0)  -->
<!DOCTYPE svg PUBLIC "-//W3C//DTD SVG 1.1//EN" "http://www.w3.org/Graphics/SVG/1.1/DTD/svg11.dtd">
<svg version="1.1" id="Layer_1" xmlns="http://www.w3.org/2000/svg" xmlns:xlink="http://www.w3.org/1999/xlink" x="0px" y="0px"
	 viewBox="0 0 50.5 50.5" style="enable-background:new 0 0 50.5 50.5;" xml:space="preserve">
<style type="text/css">
	.st0{fill:#65B4E1;}
</style>
<path class="st0" d="M16.1,33.2l0,11.7c0,0.8,0.4,1.5,1.1,1.9c0.7,0.4,1.6,0.3,2.2-0.1l5.3-3.6c0.3-0.2,0.6-0.2,0.9,0l5.3,3.7
	c0.4,0.3,0.8,0.4,1.2,0.4c0.3,0,0.7-0.1,1-0.2c0.7-0.4,1.2-1.1,1.2-1.9l0-11.7l-1.4,2l0,9.8c0,0.3-0.2,0.6-0.4,0.7
	c-0.3,0.1-0.6,0.1-0.8-0.1l-5.3-3.7c-0.7-0.5-1.7-0.5-2.4,0l-5.3,3.6c-0.3,0.2-0.6,0.2-0.8,0c-0.3-0.1-0.4-0.4-0.4-0.7l0-9.7
	L16.1,33.2z"/>
<path class="st0" d="M39.9,22.2c1.3-0.7,2-1.8,2-2.9s-0.7-2.2-2-2.9c-1.1-0.6-1.6-2.1-1.1-3.3c0.6-1.3,0.6-2.5,0-3.4
	c-0.6-0.9-1.6-1.4-2.8-1.4c-0.2,0-0.4,0-0.6,0c-0.1,0-0.2,0-0.3,0c-1.2,0-2.3-0.9-2.5-2c-0.4-2.2-1.9-2.9-3.1-2.9
	c-0.9,0-1.7,0.4-2.5,1.1c-0.5,0.4-1.1,0.6-1.7,0.6c-0.7,0-1.3-0.2-1.7-0.6c-0.8-0.7-1.7-1.1-2.5-1.1c-1.2,0-2.6,0.8-3.1,2.9
	c-0.2,1.1-1.3,2-2.5,2c-0.1,0-0.2,0-0.3,0c-0.2,0-0.4,0-0.6,0c-1.3,0-2.3,0.5-2.8,1.4c-0.6,0.9-0.6,2.2,0,3.4c0.5,1.2,0,2.7-1.1,3.3
	c-1.3,0.7-2,1.8-2,2.9s0.7,2.2,2,2.9c1.1,0.6,1.6,2.1,1.1,3.3c-0.6,1.3-0.6,2.5,0,3.4c0.6,0.9,1.6,1.4,2.8,1.4c0.2,0,0.4,0,0.6,0
	c0.1,0,0.2,0,0.3,0c1.2,0,2.3,0.9,2.5,2c0.4,2.2,1.9,2.9,3.1,2.9c0.9,0,1.7-0.4,2.5-1.1c0.5-0.4,1.1-0.6,1.7-0.6
	c0.7,0,1.3,0.2,1.7,0.6c0.8,0.7,1.7,1.1,2.5,1.1c1.2,0,2.6-0.8,3.1-2.9c0.2-1.1,1.3-2,2.5-2c0.1,0,0.2,0,0.3,0c0.2,0,0.4,0,0.6,0
	c1.3,0,2.3-0.5,2.8-1.4c0.6-0.9,0.6-2.2,0-3.4C38.3,24.4,38.8,22.9,39.9,22.2z M37.6,26.1c0.8,1.7,0,2.9-1.6,2.9c-0.1,0-0.3,0-0.4,0
	c-0.1,0-0.3,0-0.4,0c-1.8,0-3.5,1.3-3.9,3.1c-0.2,1.2-0.9,1.8-1.7,1.8c-0.5,0-1.1-0.2-1.6-0.8c-0.7-0.7-1.7-1-2.6-1
	c-1,0-1.9,0.3-2.6,1c-0.6,0.5-1.1,0.8-1.6,0.8c-0.8,0-1.5-0.6-1.7-1.8c-0.4-1.8-2-3.1-3.9-3.1c-0.1,0-0.3,0-0.4,0
	c-0.2,0-0.3,0-0.4,0c-1.7,0-2.4-1.2-1.6-2.9c0.8-1.8,0.1-4.1-1.6-5c-1.7-1-1.7-2.6,0-3.5c1.7-1,2.5-3.2,1.6-5
	c-0.8-1.7,0-2.9,1.6-2.9c0.1,0,0.3,0,0.4,0c0.1,0,0.3,0,0.4,0c1.8,0,3.5-1.3,3.9-3.1c0.2-1.2,0.9-1.8,1.7-1.8c0.5,0,1.1,0.2,1.6,0.8
	c0.7,0.7,1.7,1,2.6,1c1,0,1.9-0.3,2.6-1C28.4,5,29,4.7,29.5,4.7c0.8,0,1.5,0.6,1.7,1.8c0.4,1.8,2,3.1,3.9,3.1c0.1,0,0.3,0,0.4,0
	c0.2,0,0.3,0,0.4,0c1.7,0,2.4,1.2,1.6,2.9c-0.8,1.8-0.1,4.1,1.6,5s1.7,2.6,0,3.5C37.5,22,36.7,24.3,37.6,26.1z"/>
<path class="st0" d="M25.2,9.2c-5.6,0-10.1,4.5-10.1,10.1s4.5,10.1,10.1,10.1s10.1-4.5,10.1-10.1S30.8,9.2,25.2,9.2z M25.2,28
	c-4.8,0-8.7-3.9-8.7-8.7s3.9-8.7,8.7-8.7c4.8,0,8.7,3.9,8.7,8.7S30,28,25.2,28z"/>
<path class="st0" d="M26.6,21.8c-0.3,0.3-0.7,0.4-1.2,0.4c-0.6,0-1.1-0.2-1.5-0.7c-0.4-0.5-0.6-1.2-0.6-2.3c0-1,0.2-1.7,0.6-2.2
	c0.4-0.5,0.9-0.7,1.5-0.7c0.5,0,0.8,0.1,1.2,0.4c0.3,0.3,0.5,0.6,0.6,1l1.7-0.4c-0.2-0.7-0.5-1.2-0.9-1.6c-0.6-0.6-1.5-0.9-2.5-0.9
	c-1.2,0-2.1,0.4-2.9,1.2c-0.7,0.8-1.1,1.9-1.1,3.3c0,1.3,0.4,2.4,1.1,3.2c0.7,0.8,1.7,1.2,2.8,1.2c0.9,0,1.7-0.2,2.3-0.7
	s1-1.1,1.3-2.1l-1.7-0.5C27.1,21,26.9,21.5,26.6,21.8z"/>
</svg>
