<?xml version="1.0" encoding="utf-8"?>
<!-- Generator: Adobe Illustrator 18.0.0, SVG Export Plug-In . SVG Version: 6.00 Build 0)  -->
<!DOCTYPE svg PUBLIC "-//W3C//DTD SVG 1.1//EN" "http://www.w3.org/Graphics/SVG/1.1/DTD/svg11.dtd">
<svg version="1.1" id="Layer_1" xmlns="http://www.w3.org/2000/svg" xmlns:xlink="http://www.w3.org/1999/xlink" x="0px" y="0px"
	 viewBox="0 0 50.5 50.5" style="enable-background:new 0 0 50.5 50.5;" xml:space="preserve">
<style type="text/css">
	.st0{fill:#65B4E1;}
</style>
<path class="st0" d="M16.5,22.5L16.5,22.5L16.5,22.5C16.5,22.5,16.5,22.5,16.5,22.5l0-0.2l-0.1,0c-2.8,0-3.5,2.7-3.5,4.2
	c0,0.5,0.4,0.9,0.9,0.9c0.5,0,0.9-0.4,0.9-0.9c0-0.1,0-2.4,1.8-2.4c0,0,0,0,0.1,0c0,0,0.1,0,0.1,0l0.2,0L16.7,24
	C16.5,23.5,16.4,23,16.5,22.5z"/>
<path class="st0" d="M19.8,25.5l0-0.1l-0.2,0c-0.3,0.1-0.5,0.1-0.8,0c-0.2,0-0.4-0.1-0.7-0.2l-0.2-0.1l0.1,0.2
	c0.1,0.5,0.2,1,0.1,1.3l0.1,19.8c0,0.5,0.4,0.9,0.9,0.9c0.2,0,0.5-0.1,0.6-0.3c0.2-0.2,0.3-0.4,0.3-0.6l-0.1-19.7
	C19.9,26.8,19.9,26.2,19.8,25.5z"/>
<path class="st0" d="M30.8,11.1c-0.3-0.7-1-1.1-1.8-1.1c-0.8,0.1-1.5,0.5-1.8,1.1L23.6,18l-5.1,2.8c-0.5,0.3-0.8,0.7-1,1.2
	c-0.2,0.5-0.1,1.1,0.2,1.5c0.3,0.5,0.7,0.8,1.2,1c0.5,0.2,1.1,0.1,1.5-0.2l5.6-3.1c0.3-0.2,0.6-0.5,0.8-0.8l2.1-4l4.2,8.5l-5.5,7.8
	c-0.3,0.5-0.4,1-0.3,1.6L29.9,46c0.2,0.9,1,1.6,2,1.6c0.1,0,0.3,0,0.4,0c0.5-0.1,1-0.4,1.3-0.9c0.3-0.5,0.4-1,0.3-1.5l-2.3-10.8
	l5.7-8c0.4-0.6,0.5-1.4,0.2-2.1L30.8,11.1z"/>
<path class="st0" d="M27.9,8.9c0.6-0.6,1-1.5,1-2.5c0-2-1.6-3.5-3.5-3.5s-3.5,1.6-3.5,3.5c0,1,0.4,1.9,1,2.5c0.6,0.6,1.5,1,2.5,1
	C26.4,9.9,27.3,9.5,27.9,8.9z"/>
</svg>
