<svg id="Layer_1" data-name="Layer 1" xmlns="http://www.w3.org/2000/svg" viewBox="0 0 50.46 50.46"><defs><style>.cls-1{fill:#00b5e4;}</style></defs><title>Iconos</title><path class="cls-1" d="M21.7,36.73h7.51a0.81,0.81,0,1,0,0-1.62H21.7A0.81,0.81,0,0,0,21.7,36.73Z"/><path class="cls-1" d="M21.7,39.72h7.51a0.81,0.81,0,1,0,0-1.62H21.7A0.81,0.81,0,0,0,21.7,39.72Z"/><path class="cls-1" d="M28.35,41.9a0.81,0.81,0,0,0-.81-0.81H23.38a0.81,0.81,0,0,0,0,1.62h4.15A0.81,0.81,0,0,0,28.35,41.9Z"/><path class="cls-1" d="M29.13,24.49a0.62,0.62,0,0,0,.38-0.38,2.55,2.55,0,0,0-.58-2.82,3.59,3.59,0,0,0-.37,2.5A1,1,0,0,0,29.13,24.49Z"/><path class="cls-1" d="M22,24.49a1,1,0,0,0,.57-0.71,3.59,3.59,0,0,0-.37-2.5,2.55,2.55,0,0,0-.58,2.82A0.63,0.63,0,0,0,22,24.49Z"/><path class="cls-1" d="M15.69,16.88c0,0.32,0,.64,0,1,0,2.77,1.49,5.54,2.94,8.21,1.28,2.36,2.48,4.59,2.48,6.5a0.81,0.81,0,0,0,.8.81s2.27,0,3.64,0h0.14c1.36,0,3.63,0,3.63,0a0.81,0.81,0,0,0,.8-0.81c0-1.86,1.16-4,2.4-6.2,1.49-2.69,3-5.47,3-8.51,0-.33,0-0.65-0.05-1A9.77,9.77,0,0,0,29.92,20a4.22,4.22,0,0,1,1,4.91,2.13,2.13,0,0,1-1.8,1.23A1.63,1.63,0,0,1,28.61,26,2.54,2.54,0,0,1,27,24.24a5.25,5.25,0,0,1,.61-3.92,5.69,5.69,0,0,0-4.1,0,5.25,5.25,0,0,1,.61,3.92A2.54,2.54,0,0,1,22.5,26a2,2,0,0,1-2.32-1.15,4.22,4.22,0,0,1,1-4.91A9.82,9.82,0,0,0,15.69,16.88Z"/><path class="cls-1" d="M26.89,8a7,7,0,0,0-1.3-.1,5.49,5.49,0,0,0-1.35.1A10,10,0,0,0,16,15.28,11.41,11.41,0,0,1,22.5,19a7.3,7.3,0,0,1,6.11,0,11.41,11.41,0,0,1,6.52-3.71A10,10,0,0,0,26.89,8Z"/></svg>