<?xml version="1.0" encoding="utf-8"?>
<!-- Generator: Adobe Illustrator 18.0.0, SVG Export Plug-In . SVG Version: 6.00 Build 0)  -->
<!DOCTYPE svg PUBLIC "-//W3C//DTD SVG 1.1//EN" "http://www.w3.org/Graphics/SVG/1.1/DTD/svg11.dtd">
<svg version="1.1" id="Layer_1" xmlns="http://www.w3.org/2000/svg" xmlns:xlink="http://www.w3.org/1999/xlink" x="0px" y="0px"
	 viewBox="0 0 50.5 50.5" style="enable-background:new 0 0 50.5 50.5;" xml:space="preserve">
<style type="text/css">
	.st0{fill:#65B4E1;}
</style>
<g>
	<g>
		<g>
			<path class="st0" d="M20.5,17.2c-0.5,0-0.8-0.4-0.8-0.8c0-2.9,2.3-5.2,5.2-5.2c0.5,0,0.8,0.4,0.8,0.8s-0.4,0.8-0.8,0.8
				c-1.9,0-3.5,1.6-3.5,3.5C21.4,16.8,21,17.2,20.5,17.2z"/>
		</g>
		<path class="st0" d="M29.5,36H21c-0.5,0-0.9,0.4-0.9,0.9c0,0.5,0.4,0.9,0.9,0.9h8.5c0.5,0,0.9-0.4,0.9-0.9
			C30.4,36.4,30,36,29.5,36z"/>
		<path class="st0" d="M29.5,39.4H21c-0.5,0-0.9,0.4-0.9,0.9c0,0.5,0.4,0.9,0.9,0.9h8.5c0.5,0,0.9-0.4,0.9-0.9
			C30.4,39.8,30,39.4,29.5,39.4z"/>
		<path class="st0" d="M27.6,42.8h-4.7c-0.5,0-0.9,0.4-0.9,0.9c0,0.5,0.4,0.9,0.9,0.9h4.7c0.5,0,0.9-0.4,0.9-0.9
			C28.5,43.2,28.1,42.8,27.6,42.8z"/>
		<path class="st0" d="M26.7,6c-0.5-0.1-0.9-0.1-1.3-0.1l-0.1,0c-0.5,0-1.1,0-1.5,0.1c-5.3,0.7-9.4,5.4-9.4,10.8c0,3,1.6,6,3.1,8.8
			c1.3,2.5,2.6,4.8,2.6,6.7c0,0.6,0.5,1.2,1.2,1.2c0,0,2.4,0,3.8,0h0.1c1.4,0,3.8,0,3.8,0c0.6,0,1.2-0.5,1.2-1.2
			c0-1.9,1.2-4.1,2.5-6.4c1.6-2.9,3.2-5.9,3.2-9.1C36,11.4,32,6.8,26.7,6z M25.4,8.3c0.3,0,0.6,0,1,0.1c4.2,0.6,7.3,4.2,7.3,8.4
			c0,2.7-1.5,5.4-2.9,8c-1.2,2.2-2.4,4.3-2.7,6.4c-0.8,0-1.9,0-2.7,0h-0.1c-0.8,0-1.9,0-2.7,0c-0.3-2.2-1.5-4.4-2.8-6.7
			c-1.4-2.6-2.9-5.3-2.9-7.7c0-4.2,3.2-7.8,7.4-8.4c0.3,0,0.5-0.1,0.8-0.1c0,0,0.1,0,0.2,0H25.4z M25.3,7.9L25.3,7.9L25.3,7.9
			L25.3,7.9z"/>
	</g>
</g>
</svg>
