<svg id="Layer_1" data-name="Layer 1" xmlns="http://www.w3.org/2000/svg" viewBox="0 0 50.46 50.46"><defs><style>.cls-1{fill:none;stroke:#12b5e1;stroke-linecap:round;stroke-linejoin:round;stroke-width:1.8px;}</style></defs><title>lazo lineal</title><path class="cls-1" d="M28.22,18.83a9.37,9.37,0,0,0,.57-1,2.78,2.78,0,0,0-2.46-4.11h0a2.78,2.78,0,0,0-2.19,4.45L39.6,36.82l-3,8.08S18.09,22.81,18,22.74a10.27,10.27,0,0,1,8.1-16.48h.09a10.28,10.28,0,0,1,9.41,14.38s-.33,1.14-2.6,3.8"/><path class="cls-1" d="M22,37.28,15.64,44.9l-3-8.08,6.71-8.07M24,34.85l-.18.25"/></svg>