<svg id="ef3ad29b-5519-43c1-a012-d07e746ae7a2" data-name="stroke 1,6" xmlns="http://www.w3.org/2000/svg" viewBox="0 0 50.46 50.46"><rect x="7.247" y="7.124" width="35.967" height="36.611" rx="3.499" fill="none" stroke="#000" stroke-miterlimit="10" stroke-width="1.6"/><polygon points="20.676 19.271 17.352 19.271 17.352 33.634 27.877 33.634 27.877 30.926 20.676 30.926 20.676 19.271"/><rect x="29.518" y="22.595" width="3.201" height="11.039"/><path d="M31.118,17.486A2.026,2.026,0,0,0,29.682,18a1.737,1.737,0,0,0,0,2.542,2.025,2.025,0,0,0,1.436.513,2,2,0,0,0,1.447-.523,1.758,1.758,0,0,0,.543-1.322,1.573,1.573,0,0,0-.553-1.242A2.115,2.115,0,0,0,31.118,17.486Z"/><path d="M39.162,13.68a2.306,2.306,0,0,0-1.141-.439l1.421-1.388v-.939H34.708v1.163h2.846l-1.278,1.247v.951H37.1a1.566,1.566,0,0,1,.847.176.553.553,0,0,1,.26.483.569.569,0,0,1-.294.5A1.71,1.71,0,0,1,37,15.62a3.985,3.985,0,0,1-1.064-.147,3.161,3.161,0,0,1-.925-.412l-.559,1.12a3.473,3.473,0,0,0,1.12.475,5.749,5.749,0,0,0,1.457.183,3.788,3.788,0,0,0,1.534-.273,2.078,2.078,0,0,0,.9-.708,1.617,1.617,0,0,0,.294-.924A1.537,1.537,0,0,0,39.162,13.68Z"/></svg>