<svg xmlns="http://www.w3.org/2000/svg" viewBox="0 0 50.46 50.46">
  <title>Iconos</title>
  <g>
    <path d="M40.85,36.69l-8.73-8.61a13.66,13.66,0,0,1-4.1,4.1l8.73,8.61a2.9,2.9,0,0,0,4.1-4.1h0Zm0,0" fill="#00b5e4"/>
    <path d="M32,20.43A11.6,11.6,0,1,0,20.37,32,11.6,11.6,0,0,0,32,20.43h0Zm-11.6,8.7a8.7,8.7,0,1,1,8.7-8.7,8.71,8.71,0,0,1-8.7,8.7h0Zm0,0" fill="#00b5e4"/>
    <path d="M15.53,21.36a0.94,0.94,0,0,1-.94-0.94,5.78,5.78,0,0,1,5.77-5.77,0.94,0.94,0,0,1,0,1.87,3.9,3.9,0,0,0-3.9,3.9A0.94,0.94,0,0,1,15.53,21.36Z" fill="#00b5e4"/>
  </g>
</svg>
