<?xml version="1.0" encoding="utf-8"?>
<!-- Generator: Adobe Illustrator 18.0.0, SVG Export Plug-In . SVG Version: 6.00 Build 0)  -->
<!DOCTYPE svg PUBLIC "-//W3C//DTD SVG 1.1//EN" "http://www.w3.org/Graphics/SVG/1.1/DTD/svg11.dtd">
<svg version="1.1" id="Layer_1" xmlns="http://www.w3.org/2000/svg" xmlns:xlink="http://www.w3.org/1999/xlink" x="0px" y="0px"
	 viewBox="0 0 50.5 50.5" style="enable-background:new 0 0 50.5 50.5;" xml:space="preserve">
<style type="text/css">
	.st0{fill:#65B4E1;}
</style>
<g>
	<g>
		<path class="st0" d="M40.8,36.7l-8.7-8.6c-1.1,1.6-2.5,3-4.1,4.1l8.7,8.6c1.1,1.1,3,1.1,4.1,0C42,39.7,42,37.8,40.8,36.7
			L40.8,36.7z M40.8,36.7"/>
		<path class="st0" d="M32,20.4C32,14,26.8,8.8,20.4,8.8C14,8.8,8.8,14,8.8,20.4C8.8,26.8,14,32,20.4,32C26.8,32,32,26.8,32,20.4
			L32,20.4z M20.4,29.1c-4.8,0-8.7-3.9-8.7-8.7c0-4.8,3.9-8.7,8.7-8.7c4.8,0,8.7,3.9,8.7,8.7C29.1,25.2,25.2,29.1,20.4,29.1
			L20.4,29.1z M20.4,29.1"/>
		<path class="st0" d="M15.5,21.4c-0.5,0-0.9-0.4-0.9-0.9c0-3.2,2.6-5.8,5.8-5.8c0.5,0,0.9,0.4,0.9,0.9s-0.4,0.9-0.9,0.9
			c-2.1,0-3.9,1.7-3.9,3.9C16.5,20.9,16.1,21.4,15.5,21.4z"/>
	</g>
</g>
</svg>
