<?xml version="1.0" encoding="UTF-8"?><svg id="b1abeda8-54eb-430e-b305-9264c162078f" xmlns="http://www.w3.org/2000/svg" viewBox="0 0 50.5 50.5"><path d="m24.24,22.17c-.12-1.74-.82-3.23-2.07-4.46-1.38-1.36-3.04-2.02-4.91-2.01h0c-1.89-.04-3.81.8-5.12,2.22-1.38,1.5-2,3.28-1.86,5.3.12,1.74.82,3.23,2.07,4.46,1.38,1.36,3.04,2.02,4.91,2.01h0c1.89.04,3.81-.8,5.12-2.22,1.38-1.5,2-3.28,1.86-5.3Zm-6.98,5.21h0s0,0-.01,0c-2.58,0-4.68-2.13-4.67-4.7.01-2.58,2.11-4.67,4.68-4.67h0s0,0,.01,0c2.58,0,4.68,2.13,4.67,4.7-.01,2.58-2.11,4.67-4.68,4.67Z" fill="#353435"/><path d="m19.68,22.28c.27,1.68-1.15,3.1-2.83,2.83-1.01-.17-1.83-.98-2-2-.27-1.68,1.15-3.1,2.83-2.83,1.01.17,1.83.98,2,2Z" fill="#353435"/><path d="m39.15,11.33L19.99,3.31c-1.15-.48-2.42.36-2.42,1.61v7.91c.45.01.91.05,1.37.13,4.09.67,7.38,3.97,8.05,8.05,1,6.08-3.57,11.35-9.42,11.52v13.03c0,1.78,2.35,2.42,3.25.88L39.99,13.82c.54-.91.14-2.08-.83-2.49Z" fill="#353435"/><path d="m38.54,40.49c0,.71-.18,1.16-.49,1.56-.81,1.01-1.76,1.89-2.7,2.78-.22.21-.46.41-.68.62-.12.11-.21.1-.33,0-1.15-1.05-2.3-2.09-3.29-3.29-.74-.9-.77-1.97-.1-2.82.97-1.23,2.53-1.12,3.42.16.12.17.16.15.28-.02.54-.78,1.51-1.11,2.39-.83.9.28,1.5,1.1,1.5,1.85Z" fill="#353435"/></svg>