<svg xmlns="http://www.w3.org/2000/svg" viewBox="0 0 50.46 50.46">
  <title>Iconos</title>
  <g>
    <g>
      <path d="M21,23.62a8.09,8.09,0,1,0-8.09-8.09A8.1,8.1,0,0,0,21,23.62Zm-6.21-8.09A6.21,6.21,0,1,1,21,21.74,6.22,6.22,0,0,1,14.74,15.53Z" fill="#00b5e4"/>
      <path d="M29.72,41.32l-0.14-.12a11,11,0,0,1-1.14-1.09l0-.05a0.11,0.11,0,0,0-.12,0l-0.07,0a20.59,20.59,0,0,1-6.58,1.09h-1a20.68,20.68,0,0,1-11.86-3.7c0.41-2.2,2.67-7.67,6.94-10.27a11.15,11.15,0,0,0,4.57,1.41h0.3l0.56,0,0.5,0,0.28,0H22a11.27,11.27,0,0,0,4.66-1.48l0,0A0.12,0.12,0,0,0,26.74,27v0c0.18-.49.36-1,0.53-1.37l0-.09a0.12,0.12,0,0,0-.06-0.15L27,25.26l-0.45-.21-0.06,0a0.12,0.12,0,0,0-.12,0l-0.05,0a9.31,9.31,0,0,1-4.52,1.64H21.56a7.91,7.91,0,0,1-.88,0H20.41a9.31,9.31,0,0,1-4.52-1.64l-0.05,0a0.12,0.12,0,0,0-.12,0l-0.06,0C9.15,28.28,6.47,37.11,6.89,38.34v0a0.12,0.12,0,0,0,0,.05l0,0A22.51,22.51,0,0,0,20.63,43h1a22.48,22.48,0,0,0,7.9-1.43l0.17-.06A0.12,0.12,0,0,0,29.72,41.32Z" fill="#00b5e4"/>
    </g>
    <polygon points="38.66 23.55 43.09 23.55 42.92 20.65 38.49 20.65 38.66 23.55" fill="#00b5e4"/>
    <polygon points="34.18 23.55 34.35 20.65 29.93 20.65 29.76 23.55 34.18 23.55" fill="#00b5e4"/>
    <path d="M38.76,25.23l0.43,8.1a2.77,2.77,0,1,1-5.53,0l0.43-8.1H29.66l-0.43,8.1a7.49,7.49,0,0,0,7.19,7.74,7.49,7.49,0,0,0,7.19-7.74l-0.43-8.1H38.76Z" fill="#00b5e4"/>
    <polygon points="39.15 8.71 34.96 14.7 37.97 14.7 36.3 19.51 40.79 13.2 37.79 13.2 39.15 8.71" fill="#00b5e4"/>
  </g>
</svg>
