<?xml version="1.0" encoding="utf-8"?>
<!-- Generator: Adobe Illustrator 18.0.0, SVG Export Plug-In . SVG Version: 6.00 Build 0)  -->
<!DOCTYPE svg PUBLIC "-//W3C//DTD SVG 1.1//EN" "http://www.w3.org/Graphics/SVG/1.1/DTD/svg11.dtd">
<svg version="1.1" id="Layer_1" xmlns="http://www.w3.org/2000/svg" xmlns:xlink="http://www.w3.org/1999/xlink" x="0px" y="0px"
	 viewBox="0 0 50.5 50.5" style="enable-background:new 0 0 50.5 50.5;" xml:space="preserve">
<style type="text/css">
	.st0{fill:#65B4E1;}
</style>
<path class="st0" d="M12.4,14.1c0,5.2,4.2,9.5,9.5,9.5c5.2,0,9.5-4.2,9.5-9.5s-4.2-9.5-9.5-9.5C16.6,4.6,12.4,8.9,12.4,14.1z
	 M29.4,14.1c0,4.1-3.4,7.5-7.5,7.5c-4.1,0-7.5-3.4-7.5-7.5s3.4-7.5,7.5-7.5C26,6.6,29.4,9.9,29.4,14.1z"/>
<path class="st0" d="M21.8,46.6c0.1,0,0.2,0,0.2,0c0.1,0,0.2,0,0.2,0c0.1,0,0.2,0,0.3,0c3.2,0,6.3-0.6,9.3-1.7l0.2-0.1L32,44.7
	c-0.6-0.5-1-0.9-1.4-1.3l-0.1-0.1l-0.1,0c-2.6,0.9-5.2,1.3-7.9,1.3c-0.1,0-0.2,0-0.3,0c-0.1,0-0.2,0-0.3,0l0,0l0,0
	c-0.1,0-0.2,0-0.3,0c-0.1,0-0.2,0-0.3,0c-5.1,0-10.1-1.5-14.2-4.5c0.4-2.3,3-9.2,8.4-12.4c1.7,1,3.5,1.5,5.4,1.7l0.1,0
	c0.1,0,0.2,0,0.3,0c0.2,0,0.4,0,0.7,0c0.2,0,0.4,0,0.6,0c0.1,0,0.2,0,0.3,0l0.1,0c1.9-0.2,3.8-0.8,5.5-1.7l0,0l0,0
	c0.2-0.6,0.4-1.1,0.6-1.6l0-0.1L29,25.8c-0.2-0.1-0.4-0.2-0.5-0.3l-0.1,0l-0.1,0c-1.6,1.1-3.5,1.8-5.4,2l-0.1,0c-0.1,0-0.2,0-0.3,0
	c-0.2,0-0.4,0-0.5,0c-0.2,0-0.4,0-0.5,0c-0.1,0-0.2,0-0.3,0l-0.1,0c-1.9-0.2-3.8-0.8-5.4-2l-0.1,0l-0.1,0
	C7.9,29.3,4.8,39.7,5.3,41.1l0,0l0,0c4.7,3.5,10.3,5.4,16.1,5.4C21.6,46.6,21.7,46.6,21.8,46.6z"/>
<polygon class="st0" points="41.4,26.4 45.9,26.4 45.7,23.4 41.2,23.4 "/>
<polygon class="st0" points="36.8,26.4 36.9,23.4 32.4,23.4 32.2,26.4 "/>
<path class="st0" d="M41.5,28.1l0.4,8.3c0,1.7-1.3,3.1-2.8,3.1c-1.6,0-2.8-1.4-2.8-3.1l0.4-8.3h-4.5l-0.4,8.3c0,4.4,3.3,7.9,7.4,7.9
	s7.4-3.6,7.4-7.9L46,28.1H41.5z"/>
<polygon class="st0" points="41.9,11.2 37.6,17.3 40.6,17.3 38.9,22.3 43.5,15.8 40.5,15.8 "/>
</svg>
