<svg xmlns="http://www.w3.org/2000/svg" viewBox="0 0 50.46 50.46">
  <title>Iconos</title>
  <path d="M12.38,14.07a9.46,9.46,0,1,0,9.46-9.46A9.47,9.47,0,0,0,12.38,14.07Zm17,0a7.51,7.51,0,1,1-7.51-7.51A7.52,7.52,0,0,1,29.35,14.07Z" fill="#00b5e4"/>
  <path d="M21.8,46.55h0.82A26.56,26.56,0,0,0,32,44.87l0.2-.08L32,44.66a13.21,13.21,0,0,1-1.37-1.31l-0.06-.06-0.08,0a24.6,24.6,0,0,1-7.86,1.3H21.46A24.69,24.69,0,0,1,7.23,40.14c0.4-2.29,3-9.21,8.39-12.42a13.1,13.1,0,0,0,5.44,1.7H21.1l0.3,0,0.66,0,0.59,0,0.33,0h0.08a13.24,13.24,0,0,0,5.47-1.73l0,0,0,0C28.81,27,29,26.49,29.22,26l0-.11L29,25.75l-0.54-.26-0.07,0-0.06,0a11.19,11.19,0,0,1-5.43,2H22.84l-0.27,0-0.53,0-0.53,0-0.27,0H21.19a11.19,11.19,0,0,1-5.43-2l-0.06,0-0.07,0C7.95,29.3,4.79,39.66,5.28,41.11v0l0,0a26.59,26.59,0,0,0,16.14,5.4H21.8Z" fill="#00b5e4"/>
  <polygon points="41.35 26.41 45.9 26.41 45.72 23.43 41.18 23.43 41.35 26.41" fill="#00b5e4"/>
  <polygon points="36.76 26.41 36.94 23.43 32.39 23.43 32.22 26.41 36.76 26.41" fill="#00b5e4"/>
  <path d="M41.46,28.13l0.44,8.32a2.85,2.85,0,1,1-5.68,0l0.44-8.32H32.12l-0.44,8.32a7.68,7.68,0,0,0,7.38,7.94,7.68,7.68,0,0,0,7.38-7.94L46,28.13H41.46Z" fill="#00b5e4"/>
  <polygon points="41.86 11.18 37.56 17.32 40.64 17.32 38.93 22.26 43.54 15.79 40.46 15.79 41.86 11.18" fill="#00b5e4"/>
</svg>
