<?xml version="1.0" encoding="utf-8"?>
<!-- Generator: Adobe Illustrator 24.2.1, SVG Export Plug-In . SVG Version: 6.00 Build 0)  -->
<svg version="1.1" id="Layer_1" xmlns="http://www.w3.org/2000/svg" xmlns:xlink="http://www.w3.org/1999/xlink" x="0px" y="0px"
	 viewBox="0 0 50.5 50.5" style="enable-background:new 0 0 50.5 50.5;" xml:space="preserve">
<style type="text/css">
	.st0{fill:#65B4E1;}
</style>
<g>
	<path class="st0" d="M40.6,13.7h-5.2V9.2c0.1-2.8-2.2-5.2-5-5.3H20.1c-2.8,0.1-5.1,2.5-5,5.3v4.5H9.9c-3.8,0-6.9,3.1-6.9,6.9v19.2
		c0,3.8,3.1,6.8,6.9,6.7c0,0,0,0,0,0h30.7c3.8,0.1,6.9-2.9,6.9-6.7c0,0,0,0,0,0V20.7C47.5,16.9,44.4,13.8,40.6,13.7z M17.8,9.2
		C17.9,8,18.9,7,20.1,7h10.2c1.2,0,2.3,0.9,2.3,2.2v4.5H17.8L17.8,9.2z M25.2,43.1c-7.1,0-12.8-5.7-12.8-12.8s5.7-12.8,12.8-12.8
		S38,23.3,38,30.3S32.3,43.1,25.2,43.1z"/>
	<path class="st0" d="M32.7,26.4h-3.2v-3.5c-0.1-0.8-0.8-1.5-1.6-1.5h-5.2c-0.7,0-1.3,0.7-1.3,1.4c0,0,0,0.1,0,0.1v3.5h-3.5
		c-0.7,0-1.4,0.5-1.4,1.3c0,0,0,0.1,0,0.1v5.1c-0.1,0.8,0.6,1.5,1.4,1.6h3.6v3.2c0,0.8,0.5,1.7,1.3,1.7h5.2c0.9-0.1,1.5-0.8,1.6-1.7
		v-3.2h3.2c0.8-0.1,1.4-0.8,1.3-1.6c0,0,0,0,0,0v-5.1c0.1-0.7-0.5-1.3-1.1-1.4C32.8,26.4,32.7,26.4,32.7,26.4z M31.3,31.8h-4.9v4.5
		h-2.2v-4.5h-4.9v-2.3h4.9v-4.9h2.3v4.9h4.9V31.8z"/>
</g>
</svg>
