<?xml version="1.0" encoding="utf-8"?>
<!-- Generator: Adobe Illustrator 25.4.1, SVG Export Plug-In . SVG Version: 6.00 Build 0)  -->
<svg version="1.1" id="stroke_1_x2C_6" xmlns="http://www.w3.org/2000/svg" xmlns:xlink="http://www.w3.org/1999/xlink" x="0px"
	 y="0px" viewBox="0 0 50.46 50.46" style="enable-background:new 0 0 50.46 50.46;" xml:space="preserve">
<g>
	<path d="M33.814,29.021c-0.196,0.033-0.384,0.107-0.577,0.163c0.076-1.576-1.526-2.573-2.916-1.767
		c-0.215-0.52-0.574-0.897-1.106-1.1c-0.53-0.203-1.044-0.134-1.565,0.111c0-0.111,0-0.19,0-0.269c0-1.175,0.002-2.35-0.002-3.525
		c0-0.166-0.014-0.333-0.041-0.497c-0.157-0.951-1.136-1.65-2.077-1.488c-0.981,0.169-1.612,0.909-1.613,1.907
		c-0.002,2.944-0.001,5.889-0.001,8.833c0,0.078,0,0.155,0,0.235c-0.193-0.179-0.368-0.343-0.544-0.504
		c-0.747-0.68-1.579-1.179-2.625-1.201c-0.598-0.013-1.189,0.038-1.724,0.345c-0.548,0.314-0.776,0.835-0.629,1.434
		c0.085,0.345,0.312,0.596,0.554,0.842c0.305,0.309,0.624,0.61,0.891,0.95c0.647,0.825,1.022,1.791,1.378,2.765
		c0.504,1.379,1.107,2.708,2.067,3.842c1.05,1.241,2.366,1.922,4.019,1.895c0.797-0.013,1.595,0,2.393-0.003
		c0.838-0.004,1.658-0.135,2.455-0.394c2.323-0.755,3.786-2.592,3.842-4.934c0.047-1.95,0.025-3.902,0.007-5.852
		C35.989,29.656,34.953,28.827,33.814,29.021z M35.044,36.703c-0.049,1.839-1.031,3.084-2.698,3.805
		c-0.772,0.334-1.584,0.51-2.424,0.528c-0.906,0.02-1.813,0.017-2.72,0.018c-1.202,0.001-2.186-0.488-3-1.351
		c-0.746-0.792-1.264-1.727-1.683-2.72c-0.354-0.839-0.663-1.698-1.028-2.532c-0.425-0.974-1.029-1.829-1.832-2.536
		c-0.097-0.086-0.193-0.179-0.269-0.283c-0.179-0.246-0.129-0.453,0.148-0.58c0.433-0.198,0.895-0.235,1.361-0.185
		c0.79,0.085,1.421,0.498,1.941,1.061c0.401,0.434,0.744,0.922,1.096,1.399c0.178,0.241,0.347,0.352,0.571,0.296
		c0.228-0.057,0.357-0.253,0.357-0.555c0.001-1.77,0-3.54,0-5.31c0-1.755-0.001-3.511,0.001-5.266c0-0.413,0.245-0.748,0.624-0.875
		c0.378-0.127,0.806-0.015,1.02,0.324c0.112,0.178,0.184,0.415,0.185,0.626c0.012,2.532,0.008,5.063,0.008,7.595
		c0,0.065-0.002,0.131,0.001,0.196c0.014,0.292,0.206,0.489,0.475,0.488c0.267-0.001,0.463-0.199,0.47-0.492
		c0.008-0.312,0.002-0.624,0.002-0.936c0-0.464-0.005-0.929,0.002-1.393c0.008-0.495,0.415-0.882,0.915-0.883
		c0.5,0,0.913,0.386,0.917,0.88c0.007,1.066,0.002,2.133,0.004,3.199c0,0.287,0.13,0.482,0.349,0.537
		c0.324,0.081,0.595-0.141,0.597-0.503c0.005-0.754-0.001-1.509,0.003-2.263c0.003-0.491,0.343-0.865,0.833-0.927
		c0.424-0.054,0.861,0.254,0.974,0.697c0.027,0.103,0.027,0.215,0.027,0.323c0.002,1.03,0.002,2.06,0.001,3.09
		c0,0.213,0.076,0.383,0.271,0.483c0.164,0.084,0.325,0.064,0.472-0.04c0.156-0.109,0.207-0.27,0.206-0.455
		c-0.002-0.435-0.003-0.87,0-1.306c0.004-0.532,0.396-0.929,0.912-0.93c0.52-0.002,0.922,0.392,0.923,0.92
		C35.059,32.8,35.096,34.753,35.044,36.703z"/>
	<path d="M21.406,39.297h-8.682c-1.001,0-1.815-0.814-1.815-1.815V11.324c0-1.001,0.814-1.815,1.815-1.815h19.148
		c1.001,0,1.814,0.814,1.814,1.815v15.949c0,0.276,0.224,0.5,0.5,0.5s0.5-0.224,0.5-0.5V11.324c0-1.552-1.263-2.815-2.814-2.815
		H12.724c-1.552,0-2.815,1.263-2.815,2.815v26.158c0,1.553,1.263,2.815,2.815,2.815h8.682c0.276,0,0.5-0.224,0.5-0.5
		S21.683,39.297,21.406,39.297z"/>
	<path d="M31.78,26.147c0.276,0,0.5-0.224,0.5-0.5V12.053c0-0.566-0.46-1.027-1.026-1.027H13.343c-0.566,0-1.027,0.46-1.027,1.027
		v23.088c0,0.566,0.46,1.027,1.027,1.027h6.177c0.276,0,0.5-0.224,0.5-0.5s-0.224-0.5-0.5-0.5l-6.204-0.027l0.027-23.115
		l17.937,0.027v13.594C31.28,25.923,31.503,26.147,31.78,26.147z"/>
	<path d="M28.966,24.752c0.074,0.039,0.154,0.058,0.233,0.058c0.179,0,0.353-0.097,0.442-0.267c0.331-0.627,0.506-1.335,0.506-2.048
		c0-2.423-1.972-4.394-4.395-4.394s-4.394,1.971-4.394,4.394c0,0.575,0.109,1.135,0.326,1.663c0.104,0.255,0.397,0.377,0.652,0.274
		c0.256-0.104,0.378-0.396,0.274-0.652c-0.167-0.408-0.251-0.841-0.251-1.285c0-1.872,1.522-3.394,3.394-3.394
		c1.872,0,3.395,1.522,3.395,3.394c0,0.559-0.132,1.09-0.391,1.581C28.628,24.32,28.722,24.623,28.966,24.752z"/>
	<path d="M29.36,15.346c0-1.05-0.854-1.904-1.905-1.904H17.141c-1.05,0-1.904,0.854-1.904,1.904c0,1.05,0.854,1.905,1.904,1.905
		h10.313C28.505,17.251,29.36,16.396,29.36,15.346z M16.237,15.346c0-0.499,0.406-0.904,0.904-0.904h10.313
		c0.499,0,0.905,0.406,0.905,0.904c0,0.499-0.406,0.905-0.905,0.905H17.141C16.643,16.251,16.237,15.845,16.237,15.346z"/>
	<path d="M45.596,19.993l-7.646-3.566c-0.195-0.092-0.429-0.046-0.576,0.112c-0.147,0.158-0.177,0.394-0.072,0.583l1.838,3.329
		l-1.784,3.355c-0.102,0.19-0.069,0.424,0.08,0.58c0.097,0.101,0.228,0.155,0.361,0.155c0.072,0,0.146-0.016,0.214-0.048
		l7.588-3.594c0.175-0.083,0.287-0.259,0.286-0.453S45.772,20.075,45.596,19.993z M38.948,22.942l1.202-2.261
		c0.079-0.149,0.078-0.329-0.004-0.477l-1.227-2.223l5.29,2.468L38.948,22.942z"/>
</g>
</svg>
