<?xml version="1.0" encoding="utf-8"?>
<!-- Generator: Adobe Illustrator 16.0.0, SVG Export Plug-In . SVG Version: 6.00 Build 0)  -->
<!DOCTYPE svg PUBLIC "-//W3C//DTD SVG 1.1//EN" "http://www.w3.org/Graphics/SVG/1.1/DTD/svg11.dtd">
<svg version="1.1" id="Layer_1" xmlns="http://www.w3.org/2000/svg" xmlns:xlink="http://www.w3.org/1999/xlink" x="0px" y="0px"
	 width="1366px" height="557px" viewBox="0 0 1366 557" enable-background="new 0 0 1366 557" xml:space="preserve">
<g>
	<g>
		<path d="M1106.418,223.765l-67.939,0.163c-1.764,0-3.155-1.438-3.155-3.132l0.464-68.866c0-1.671,1.393-3.132,3.154-3.132h54.018
			c1.719,0,2.879,1.461,3.063,3.132C1097.785,161.72,1108.088,219.729,1106.418,223.765 M969.148,148.75h44.875
			c1.764,0,3.109,1.508,3.203,3.132l1.205,59.213c-17.818-11.646-38.887-17.495-61.068-20.395l8.631-38.818
			C966.365,150.212,967.387,148.75,969.148,148.75z M912.951,144.945l18.979,0.673l-20.418,71.419
			c11.185-3.04,19.861-4.038,28.91-4.525c9.979-0.417,20.467,0.046,35.315,4.664c11.138,3.457,21.765,8.492,31.37,14.78
			c27.287,17.773,47.24,45.803,54.48,78.612l0.37,1.763v0.093c1.671,7.89,2.601,15.964,2.601,24.41v3.248l-0.094,0.371v0.278
			c-0.094,5.755-0.65,11.322-1.484,16.799l78.332-0.093h35.314c8.863-28.771,35.641-49.701,67.104-49.701
			c21.021,0,39.955,9.28,52.811,23.992h8.955l-0.23-34.688l-12.67-2.414l7.426-53.088l-7.1-9.351l-96.896-1.323l0.512-71.674
			c0-1.369-1.115-2.507-2.508-2.507h-22.32c-1.299,0-2.553,1.138-2.553,2.507l-0.51,71.418l-40.281-0.858l-20.836-109.981
			l-186.969-0.115L912.951,144.945z"/>
		<path d="M938.336,238.569c54.665,0,99.075,44.363,99.075,99.099c0,54.713-44.41,99.123-99.075,99.123
			c-54.666,0-99.076-44.41-99.076-99.123C839.26,282.933,883.67,238.569,938.336,238.569z"/>
		<path d="M1243.268,329.129c29.746,0,53.832,24.038,53.832,53.784c0,29.699-24.086,53.785-53.832,53.785
			c-29.699,0-53.783-24.086-53.783-53.785C1189.484,353.12,1213.568,329.129,1243.268,329.129z"/>
		<path d="M525.347,356.601c22.275,0,40.373,18.054,40.373,40.327c0,22.321-18.098,40.419-40.373,40.419
			c-22.344,0-40.396-18.098-40.396-40.419C484.951,374.654,503.003,356.601,525.347,356.601z"/>
		<path d="M701.295,356.601c22.274,0,40.372,18.054,40.372,40.327c0,22.321-18.098,40.419-40.372,40.419
			c-22.321,0-40.373-18.098-40.373-40.419C660.922,374.654,678.974,356.601,701.295,356.601z"/>
		<path d="M781.484,258.476v84.436h-23.11l0.324,25.104l6.452,0.558l-0.094,24.596l-12.809,0.093
			c-0.929-27.101-23.201-48.911-50.561-48.911c-27.378,0-49.699,21.812-50.558,48.911c-40.976,0-33.366,0-74.319,0
			c-0.905-27.101-23.203-48.911-50.559-48.911c-27.379,0-49.724,21.812-50.582,48.911l-12.808-0.093l-0.209-24.224h6.66
			l0.093-26.034h-23.087v-84.436C574.236,258.476,653.59,258.476,781.484,258.476"/>
		<path d="M834.201,362.82c-1.299-6.033-2.135-12.251-2.32-18.654l-42.508-7.379v12.762h-23.109l0.186,13.318L834.201,362.82z"/>
		<path d="M139.53,356.601c22.344,0,40.396,18.054,40.396,40.327c0,22.321-18.052,40.419-40.396,40.419
			c-22.344,0-40.396-18.098-40.396-40.419C99.134,374.654,117.186,356.601,139.53,356.601z"/>
		<path d="M315.501,356.601c22.321,0,40.396,18.054,40.396,40.327c0,22.321-18.075,40.419-40.396,40.419
			c-22.344,0-40.396-18.098-40.396-40.419C275.104,374.654,293.157,356.601,315.501,356.601z"/>
		<path d="M395.713,258.476v84.436h-23.11l0.139,26.034h6.613l-0.139,24.224l-12.831,0.093
			c-0.858-27.101-23.133-48.911-50.559-48.911c-27.426,0-49.608,21.812-50.559,48.911c-40.953,0-33.366,0-74.319,0
			c-0.905-27.101-23.249-48.911-50.605-48.911c-27.379,0-49.701,21.812-50.559,48.911l-12.831-0.093L76.86,368.62l6.451-0.604
			l0.325-25.059H60.503v-84.482C188.418,258.476,267.772,258.476,395.713,258.476"/>
		<rect x="379.123" y="349.548" width="83.832" height="13.598"/>
		<path d="M98.948,248.546c3.132-3.991,6.891-8.957,14.502-9.977c13.203-1.811,49.933-12.739,60.188-15.453
			c10.279-2.715,27.913-11.787,39.631-11.787c11.74,0,29.375,5.406,44.062,9.072c14.734,3.62,64.62,13.597,64.62,13.597
			l35.269,14.548h0.093H98.948z"/>
		<path d="M467.317,248.546c3.573-7.796,7.842-17.449,16.451-19.49c15.012-3.526,56.638-24.758,68.333-30.07
			c11.625-5.29,31.695-23.018,44.99-23.018c13.319,0,33.319,10.65,50.002,17.728c16.66,7.029,73.367,26.566,73.367,26.566
			l40.003,28.331h0.047H467.317V248.546L467.317,248.546z"/>
		<path fill="#FFFFFF" d="M938.336,288.548c27.102,0,49.098,22.021,49.098,49.119c0,27.148-21.996,49.146-49.098,49.146
			c-27.146,0-49.145-21.996-49.145-49.146C889.192,310.568,911.189,288.548,938.336,288.548"/>
		<path fill="#FFFFFF" d="M1243.268,356.23c14.805,0,26.684,11.881,26.684,26.684c0,14.711-11.879,26.684-26.684,26.684
			c-14.711,0-26.684-11.973-26.684-26.684C1216.678,368.111,1228.557,356.23,1243.268,356.23"/>
		<path fill="#FFFFFF" d="M525.347,376.88c11.021,0,20.001,8.957,20.001,20.002c0,11.044-8.933,20.047-20.001,20.047
			c-11.091,0-20.07-8.91-20.07-20.047C505.277,385.837,514.257,376.88,525.347,376.88"/>
		<path fill="#FFFFFF" d="M701.295,376.88c11.045,0,20.047,8.957,20.047,20.002c0,11.044-8.955,20.047-20.047,20.047
			c-11.066,0-20.048-8.91-20.048-20.047C681.247,385.837,690.229,376.88,701.295,376.88"/>
		<path fill="#FFFFFF" d="M139.53,376.88c11.021,0,20,8.957,20,20.002c0,11.044-8.933,20.047-20,20.047s-20.001-8.91-20.001-20.047
			C119.529,385.837,128.462,376.88,139.53,376.88"/>
		<path fill="#FFFFFF" d="M315.501,376.88c11.068,0,20,8.957,20,20.002c0,11.044-8.933,20.047-20,20.047
			c-11.021,0-20.024-8.91-20.024-20.047C295.476,385.837,304.433,376.88,315.501,376.88"/>
	</g>
</g>
</svg>
