<?xml version="1.0" encoding="utf-8"?>
<!-- Generator: Adobe Illustrator 16.0.0, SVG Export Plug-In . SVG Version: 6.00 Build 0)  -->
<!DOCTYPE svg PUBLIC "-//W3C//DTD SVG 1.1//EN" "http://www.w3.org/Graphics/SVG/1.1/DTD/svg11.dtd">
<svg version="1.1" id="Layer_1" xmlns="http://www.w3.org/2000/svg" xmlns:xlink="http://www.w3.org/1999/xlink" x="0px" y="0px"
	 width="1366px" height="557px" viewBox="0 0 1366 557" enable-background="new 0 0 1366 557" xml:space="preserve">
<g>
	<path d="M540.966,97.998L530.525,122.5l228.521,20.162c44.595,5.777,21.903,109.146-22.692,103.345L365.439,196.91l-54.828,31.603
		l-4.664,70.374l105.247,92.229c15.87-31.646,48.679-53.458,86.545-53.458c42.183,0,78.077,27.009,91.279,64.688h92.323v-0.139
		v-0.232l-0.046-0.187v-0.186v-0.278v-0.186v-0.187v-0.186v-0.231v-0.14v-0.187l-0.046-0.187v-0.277v-0.37v-0.187v-0.187
		l-0.046-0.231v-0.186v-0.187v-0.186v-0.232v-0.186v-0.187v-0.186v-0.187v-0.278v-0.187v-0.231v-0.14v-0.186v-0.187
		c0-78.237,63.412-141.559,141.559-141.559l2.506,0.047h1.112l1.3,0.046l2.32,0.093h0.141l0.648,0.046l2.831,0.187l1.392,0.139
		l2.229,0.14l0.277,0.046l2.414,0.231l0.928,0.163l1.484,0.187l2.043,0.277l0.323,0.046l2.367,0.396l0.741,0.139l0.604,0.093
		l2.925,0.558l0.557,0.093l2.32,0.534l0.648,0.139l1.671,0.441l1.718,0.417l0.604,0.186l2.32,0.626l0.463,0.14l1.764,0.533
		l1.578,0.465l0.742,0.231l2.229,0.766l0.371,0.14l1.855,0.626l1.393,0.51l0,0l3.063,1.16l0.187,0.093l1.949,0.789l1.253,0.534
		l0.882,0.371l2.136,0.952l0.186,0.093l1.949,0.905l1.113,0.58l1.02,0.464l2.041,1.044l0,0l2.043,1.044l1.021,0.58l1.02,0.58
		l1.855,1.044l0.094,0.046l2.088,1.184l0.094,0.046l1.624,0.998l0.187,0.14l1.764,1.091l0.186,0.139l1.949,1.253l0.789,0.464
		l1.16,0.859l1.576,1.09l0.278,0.187l1.856,1.346l0.648,0.465l1.207,0.998l1.346,0.951l0.418,0.276l1.764,1.439l0.559,0.418
		l1.205,1.043l1.764,1.485l1.717,1.509l1.254,1.206l0.464,0.371l1.114,1.091l0.463,0.464l1.672,1.624l0.277,0.278l1.393,1.346
		l0.975,1.044l0.558,0.604l1.577,1.717l0.187,0.186l1.347,1.462l1.483,1.765l1.485,1.763l2.877,3.62l1.393,1.81l1.206,1.625
		l0.231,0.371l0.695,0.928l0.744,1.021l1.205,1.809l0.094,0.095l1.207,1.948c1.67,2.553,3.248,5.15,4.825,7.936l104.597-0.464
		l13.828-41.695h-29.699l47.521-185.411h17.4l-0.789-45.964H849.211l-0.418,124.6L827.68,178l-10.396-80.676L540.966,97.998z"/>
	<path d="M497.739,365.87c37.867,0,68.517,30.674,68.517,68.493c0,37.867-30.697,68.494-68.517,68.494
		c-37.82,0-68.517-30.721-68.517-68.494C429.223,396.498,459.919,365.87,497.739,365.87z"/>
	<path d="M822.76,288.396c59.445,0,107.66,48.146,107.66,107.637c0,59.398-48.215,107.613-107.66,107.613
		c-59.398,0-107.566-48.215-107.566-107.613C715.193,336.543,763.361,288.396,822.76,288.396z"/>
	<path d="M219.611,185.029l56.591,7.193l19.049-24.479c1.624-1.81,4.432-2.228,7.981-1.764l422.588,58.263
		c25.894,3.318,39.258-55.547,13.363-58.864l-475.047-50.233c-12.158-1.276-17.1-2.042-20.905,7.981L219.611,185.029z"/>
	<path d="M1146.389,475.942l-13.736,25.478H911.857c29.049-21.903,48.539-56.012,50.582-94.76L1146.389,475.942z"/>
	<path fill="#FFFFFF" d="M1043.092,97.418h-25.523L983.09,257.607l25.014,0.093C1019.703,204.659,1031.211,151.78,1043.092,97.418"
		/>
	<polygon fill="#FFFFFF" points="907.635,257.561 963.414,257.7 998.355,97.928 908.33,97.37 	"/>
	<path fill="#FFFFFF" d="M497.739,400.396c18.817,0,33.969,15.221,33.969,34.015s-15.198,34.016-33.969,34.016
		s-33.991-15.222-33.991-34.016S478.969,400.396,497.739,400.396z"/>
	<path fill="#FFFFFF" d="M822.76,342.669c29.467,0,53.365,23.897,53.365,53.364c0,29.421-23.898,53.365-53.365,53.365
		s-53.318-23.944-53.318-53.365C769.439,366.566,793.293,342.669,822.76,342.669z"/>
</g>
</svg>
