<?xml version="1.0" encoding="utf-8"?>
<!-- Generator: Adobe Illustrator 16.0.0, SVG Export Plug-In . SVG Version: 6.00 Build 0)  -->
<!DOCTYPE svg PUBLIC "-//W3C//DTD SVG 1.1//EN" "http://www.w3.org/Graphics/SVG/1.1/DTD/svg11.dtd">
<svg version="1.1" id="Layer_1" xmlns="http://www.w3.org/2000/svg" xmlns:xlink="http://www.w3.org/1999/xlink" x="0px" y="0px"
	 width="1366px" height="557px" viewBox="0 0 1366 557" enable-background="new 0 0 1366 557" xml:space="preserve">
<g>
	<g>
		<path d="M539.134,58.665l191.771,2.088l55.873,167.919l-10.023,62.693c-31.37-0.208-64.317-0.394-78.729-0.532l-0.672,44.852
			H518.738l0.046-45.037l-294.63,0.465c-5.499,0.046-10.163-2.182-12.39-10.396l-2.947-60.025
			c-1.485-28.656,23.481-79.911,52.137-79.911h72.741h177.873h25.616L539.134,58.665z"/>
		<path d="M942.516,174.887l100.653-39.863c-7.191,10.441-32.252,60.165-33.645,69.562l19.723,138.244l-18.145,2.971
			l-73.414,123.067l-46.174,13.364l-8.492,13.271h140.47c37.172,0,74.296,1.114,107.197-21.16
			c50.629-34.387,20.837-64.969-22.506-134.021l-42.693,1.021l60.05-196.203V57.04L930.959,87.25l-131.466,86.919l16.752,52.184
			l-5.801,35.175C854.53,235.146,898.477,204.541,942.516,174.887"/>
		<path d="M309.031,499.914c-9.606-0.232-19.189-2.832-28.261-7.844c-31.603-17.634-43.83-59.492-27.333-93.367
			c11.509-23.574,33.923-37.031,57.125-37.125v0.094h489.21v-0.094c0.929,0,1.718,0,2.599,0.094h0.836l0,0
			c21.996,1.299,42.739,14.664,53.737,37.031c16.521,33.875,4.271,75.733-27.333,93.367c-8.492,4.734-17.448,7.286-26.404,7.75
			v0.141h-3.435h-489.21L309.031,499.914L309.031,499.914z"/>
		<path fill="#FFFFFF" d="M747.704,204.308l0.094,50.931c0,4.037-3.991,8.84-8.633,8.84l-32.438-0.998
			c-4.71,0-8.793-4.548-8.793-8.84l-1.091-32.159l-28.702-34.178h-63.483c-4.803,0-8.794-3.991-8.794-8.887v-83.53
			c0-4.896,3.991-10.465,8.794-10.465c34.781,0,69.655,1.532,104.342,1.532c4.826,0,7.749,4.641,8.817,8.794
			C727.749,131.637,737.773,167.997,747.704,204.308"/>
		<path fill="#FFFFFF" d="M780.931,392.623c20.604,0,37.311,16.754,37.311,37.357s-16.752,37.402-37.311,37.402
			c-20.743,0-37.402-16.799-37.402-37.402S760.188,392.623,780.931,392.623"/>
		<path fill="#FFFFFF" d="M329.519,392.623c20.627,0,37.357,16.754,37.357,37.357s-16.776,37.402-37.357,37.402
			c-20.674,0-37.403-16.707-37.403-37.356S308.845,392.623,329.519,392.623z"/>
		<path fill="#FFFFFF" d="M708.862,400.651H401.401c3.666,9.003,5.662,18.935,5.662,29.329c0,11.787-2.622,22.924-7.216,33.041
			h310.64c-4.664-10.117-7.24-21.254-7.24-33.041C703.246,419.678,705.243,409.748,708.862,400.651z"/>
	</g>
</g>
</svg>
