<?xml version="1.0" encoding="utf-8"?>
<!-- Generator: Adobe Illustrator 24.0.1, SVG Export Plug-In . SVG Version: 6.00 Build 0)  -->
<svg version="1.1" id="Layer_1" xmlns="http://www.w3.org/2000/svg" xmlns:xlink="http://www.w3.org/1999/xlink" x="0px" y="0px"
	 viewBox="0 0 50.5 50.5" style="enable-background:new 0 0 50.5 50.5;" xml:space="preserve">
<path d="M47.782,23.616l-2.021-2.85c-0.193-0.272-0.336-0.575-0.423-0.899c-0.087-0.323-0.115-0.657-0.084-0.99l0.326-3.478
	c0.055-0.585-0.071-1.163-0.364-1.671l-0.003-0.004c-0.294-0.51-0.731-0.909-1.267-1.154l-3.176-1.458
	c-0.304-0.139-0.577-0.33-0.814-0.567l-0.004-0.003c-0.236-0.238-0.427-0.511-0.565-0.813l-1.457-3.175
	c-0.246-0.535-0.646-0.974-1.155-1.268c-0.51-0.294-1.089-0.423-1.675-0.366l-3.479,0.326c-0.336,0.032-0.667,0.003-0.991-0.084
	c-0.323-0.086-0.626-0.229-0.898-0.422l-2.85-2.021c-0.478-0.34-1.041-0.519-1.629-0.52v0H25.25h-0.005v0
	c-0.587,0.001-1.15,0.18-1.629,0.52l-2.849,2.021c-0.271,0.192-0.573,0.334-0.896,0.421l-0.008,0.002
	c-0.237,0.063-0.48,0.095-0.724,0.095c-0.083,0-0.172-0.004-0.262-0.012l-3.478-0.326c-0.086-0.008-0.175-0.012-0.264-0.012
	c-0.493,0-0.98,0.131-1.407,0.376l0,0l-0.004,0.002l-0.004,0.002l0,0c-0.508,0.294-0.906,0.732-1.151,1.265l-1.457,3.175
	c-0.14,0.303-0.331,0.578-0.568,0.816c-0.237,0.237-0.512,0.428-0.816,0.568l-3.175,1.457c-0.535,0.246-0.973,0.645-1.268,1.155
	c-0.294,0.509-0.421,1.088-0.366,1.675l0.326,3.478c0.031,0.333,0.003,0.667-0.084,0.99c-0.086,0.324-0.229,0.626-0.423,0.899
	l-2.021,2.85c-0.34,0.479-0.52,1.042-0.521,1.629h0v0.005v0.005h0c0.001,0.587,0.181,1.15,0.521,1.629l2.021,2.85
	c0.194,0.274,0.336,0.577,0.423,0.899c0.087,0.323,0.115,0.656,0.084,0.991l-0.326,3.478c-0.055,0.586,0.072,1.165,0.366,1.676
	c0.294,0.509,0.733,0.908,1.268,1.154l3.175,1.457c0.303,0.139,0.577,0.329,0.812,0.564l0.007,0.007
	c0.235,0.236,0.425,0.509,0.564,0.812l1.457,3.175c0.245,0.535,0.645,0.974,1.155,1.267c0.509,0.296,1.089,0.425,1.675,0.367
	l3.478-0.326c0.141-0.012,0.282-0.009,0.422-0.001c-0.013-0.001-0.025-0.004-0.038-0.005c0.165,0.007,0.327,0.029,0.487,0.064
	c-0.041-0.009-0.082-0.009-0.123-0.016c0.081,0.014,0.163,0.021,0.242,0.042c0.324,0.087,0.626,0.229,0.899,0.423l2.85,2.021
	c0.48,0.341,1.045,0.521,1.634,0.521s1.153-0.181,1.634-0.521l2.85-2.021c0.274-0.194,0.577-0.337,0.899-0.423
	c0.039-0.01,0.08-0.012,0.12-0.021c0.16-0.035,0.322-0.057,0.487-0.064c0.128-0.006,0.256-0.01,0.385,0.001l3.478,0.326
	c0.049,0.004,0.098,0,0.148,0.002c0.038,0.002,0.077,0.005,0.115,0.005c0.009,0,0.018-0.003,0.027-0.004
	c0.233-0.003,0.463-0.033,0.687-0.091c0.018-0.005,0.035-0.011,0.052-0.016c0.223-0.063,0.44-0.145,0.642-0.261l0.005-0.003
	c0.509-0.294,0.908-0.732,1.154-1.268l1.457-3.174c0.14-0.305,0.331-0.58,0.568-0.815c0.235-0.237,0.51-0.429,0.814-0.568
	l3.175-1.457c0.535-0.245,0.972-0.644,1.265-1.151l0,0l0.002-0.004l0.003-0.005l0,0c0.293-0.51,0.419-1.087,0.365-1.671
	l-0.326-3.478c-0.031-0.333-0.003-0.664,0.083-0.986l0.002-0.01c0.087-0.321,0.229-0.622,0.422-0.895l2.021-2.85
	c0.341-0.479,0.521-1.044,0.521-1.634S48.123,24.095,47.782,23.616z M19.139,5.512c0.003,0,0.005-0.001,0.008-0.001
	c0.181-0.001,0.362-0.011,0.538-0.043l0.808,3.017c-0.096,0.014-0.191,0.021-0.285,0.021c-0.061,0-0.126-0.003-0.193-0.009
	l-2.87-0.269c-0.082-0.007-0.164-0.011-0.242-0.011c-0.362,0-0.729,0.079-1.062,0.229l-1.761-3.051
	c0.329-0.149,0.693-0.228,1.054-0.228c0.078,0,0.158,0.004,0.239,0.011l3.478,0.326c0.08,0.008,0.161,0.005,0.242,0.006
	C19.11,5.51,19.124,5.512,19.139,5.512z M16.303,8.551c-0.003,0.001-0.007,0.002-0.01,0.003C16.296,8.553,16.299,8.552,16.303,8.551
	z M16.905,8.471c0.016,0,0.033,0.002,0.049,0.002c-0.02,0-0.039-0.001-0.059-0.001C16.898,8.472,16.901,8.471,16.905,8.471z
	 M20.692,8.696c-0.125,0.027-0.251,0.044-0.379,0.05C20.441,8.74,20.568,8.723,20.692,8.696z M19.235,5.503
	c0.078-0.002,0.154-0.013,0.231-0.021C19.389,5.49,19.313,5.5,19.235,5.503z M7.127,14.786L7.127,14.786L7.127,14.786L7.127,14.786z
	 M10.54,10.9l2.209,2.208c-0.126,0.098-0.264,0.182-0.409,0.249L9.721,14.56C9.313,14.747,8.96,15.037,8.7,15.4l-3.051-1.761
	c0.258-0.36,0.608-0.649,1.012-0.834l3.175-1.457C10.09,11.231,10.327,11.081,10.54,10.9z M8.48,17.055
	c-0.012-0.193,0-0.383,0.034-0.568C8.48,16.673,8.468,16.863,8.48,17.055z M8.751,15.81c-0.092,0.173-0.163,0.353-0.209,0.54
	C8.589,16.161,8.66,15.98,8.751,15.81z M5.336,20.178l3.017,0.809c-0.06,0.147-0.137,0.289-0.23,0.419l-1.667,2.351
	c-0.26,0.367-0.42,0.795-0.463,1.238H2.469c0.044-0.441,0.203-0.866,0.46-1.228l2.021-2.85C5.112,20.689,5.242,20.44,5.336,20.178z
	 M5.504,31.647c0.026-0.279,0.014-0.559-0.035-0.832l3.017-0.81c0.022,0.158,0.026,0.318,0.011,0.479l-0.269,2.869
	C8.186,33.8,8.261,34.25,8.446,34.658l-3.051,1.762c-0.183-0.403-0.258-0.852-0.216-1.295L5.504,31.647z M8.48,33.444
	c-0.013,0.194,0,0.385,0.035,0.573C8.48,33.831,8.468,33.639,8.48,33.444z M13.11,37.751c0.098,0.126,0.182,0.263,0.249,0.408
	l1.202,2.619c0.187,0.408,0.478,0.761,0.84,1.021l-1.761,3.052c-0.36-0.258-0.648-0.608-0.834-1.013l-1.457-3.175
	c-0.116-0.254-0.267-0.49-0.447-0.704L13.11,37.751z M14.464,43.931L14.464,43.931L14.464,43.931L14.464,43.931z M38.16,37.142
	l2.619-1.202c0.408-0.188,0.762-0.479,1.021-0.841l3.052,1.762c-0.259,0.36-0.609,0.648-1.014,0.834l-3.174,1.456
	c-0.257,0.119-0.494,0.27-0.704,0.448l-2.208-2.209C37.875,37.293,38.012,37.21,38.16,37.142z M30.485,42.003l2.87,0.269
	c0.018,0.002,0.037-0.003,0.055-0.002c0.062,0.005,0.124,0.009,0.185,0.009c0.071,0,0.14-0.017,0.211-0.023
	c0.099-0.008,0.195-0.012,0.292-0.031c0.112-0.022,0.219-0.062,0.327-0.099c0.077-0.026,0.159-0.037,0.233-0.07l1.762,3.051
	c-0.333,0.15-0.688,0.227-1.056,0.227c-0.087,0-0.165-0.004-0.239-0.011l-3.477-0.325c-0.09-0.009-0.187-0.014-0.288-0.014
	c-0.183,0-0.366,0.017-0.546,0.049l-0.809-3.018C30.164,41.993,30.323,41.989,30.485,42.003z M30.107,42.003
	c0.061-0.005,0.123-0.013,0.184-0.013c0.04,0,0.081,0.003,0.122,0.006C30.311,41.989,30.209,41.994,30.107,42.003z M20.987,42.147
	c0.15,0.061,0.291,0.138,0.419,0.229l2.351,1.667c0.365,0.26,0.792,0.42,1.238,0.464v3.522c-0.441-0.043-0.866-0.202-1.229-0.46
	l-2.849-2.021c-0.227-0.161-0.476-0.291-0.74-0.386L20.987,42.147z M29.514,8.353c-0.147-0.059-0.288-0.136-0.42-0.229l-2.351-1.667
	c-0.367-0.26-0.795-0.42-1.238-0.464V2.469c0.44,0.043,0.865,0.202,1.229,0.46l2.849,2.021c0.23,0.163,0.479,0.292,0.74,0.386
	L29.514,8.353z M37.39,12.749c-0.1-0.129-0.183-0.267-0.247-0.409L35.941,9.72C35.752,9.312,35.461,8.958,35.1,8.7l1.762-3.051
	c0.359,0.258,0.647,0.608,0.833,1.013l1.457,3.174c0.116,0.253,0.268,0.49,0.448,0.704L37.39,12.749z M42.147,29.513
	c0.06-0.148,0.138-0.289,0.23-0.42l1.667-2.351c0.26-0.366,0.42-0.794,0.464-1.238h3.522c-0.043,0.441-0.202,0.866-0.46,1.229
	l-2.021,2.85c-0.163,0.229-0.292,0.478-0.386,0.739L42.147,29.513z M44.996,18.852c-0.026,0.277-0.015,0.557,0.035,0.833
	l-3.017,0.808c-0.022-0.158-0.026-0.319-0.011-0.479l0.269-2.869c0.042-0.447-0.033-0.898-0.217-1.304l3.051-1.761
	c0.183,0.403,0.257,0.85,0.216,1.294L44.996,18.852z M42.02,17.059c0.013-0.196,0-0.389-0.035-0.579
	C42.02,16.668,42.033,16.862,42.02,17.059z M42.02,33.442c0.013,0.196,0,0.388-0.034,0.575C42.02,33.829,42.033,33.636,42.02,33.442
	z M41.747,34.696c0.094-0.175,0.166-0.359,0.212-0.549C41.912,34.339,41.84,34.523,41.747,34.696z M41.958,16.348
	c-0.047-0.19-0.118-0.373-0.212-0.548C41.839,15.973,41.91,16.156,41.958,16.348z M34.672,8.741
	c-0.12-0.063-0.245-0.113-0.372-0.154C34.428,8.628,34.553,8.679,34.672,8.741z M34.132,8.536c-0.148-0.035-0.3-0.054-0.453-0.06
	C33.833,8.482,33.984,8.501,34.132,8.536z M26.593,6.667l2.351,1.667c0.226,0.16,0.476,0.278,0.743,0.35l0.002,0
	c0.266,0.072,0.544,0.096,0.819,0.069l2.87-0.269c0.05-0.005,0.101-0.006,0.151-0.007c0.028-0.001,0.055-0.001,0.083-0.001
	c0.196,0.001,0.389,0.026,0.577,0.076c0.005,0.001,0.01,0.003,0.016,0.005c0.191,0.052,0.375,0.128,0.55,0.228
	c0.42,0.242,0.748,0.603,0.949,1.042l1.202,2.619c0.117,0.252,0.274,0.478,0.468,0.672l0,0l0.003,0.003
	c0.196,0.196,0.423,0.354,0.676,0.47l2.619,1.202c0.439,0.202,0.8,0.53,1.042,0.949l0.002,0.002c0.24,0.418,0.344,0.894,0.299,1.375
	l-0.269,2.869c-0.026,0.274-0.003,0.549,0.068,0.816l0,0l0.001,0.005l0.001,0.005l0.001,0c0.073,0.268,0.19,0.517,0.349,0.74
	l1.667,2.351c0.279,0.395,0.428,0.859,0.428,1.343c0,0.484-0.148,0.949-0.428,1.343l-1.667,2.351
	c-0.162,0.228-0.279,0.478-0.351,0.746c-0.071,0.268-0.095,0.543-0.069,0.819l0.269,2.869c0.045,0.483-0.06,0.959-0.301,1.377
	c-0.241,0.419-0.602,0.747-1.042,0.948l-2.619,1.202c-0.251,0.115-0.479,0.274-0.676,0.471c-0.196,0.196-0.354,0.423-0.471,0.677
	l-1.202,2.618c-0.201,0.438-0.529,0.8-0.948,1.043c-0.354,0.203-0.755,0.311-1.16,0.311c-0.064,0-0.136-0.003-0.217-0.01l-2.87-0.27
	c-0.068-0.007-0.141-0.01-0.216-0.01c-0.202,0-0.405,0.026-0.604,0.079c-0.27,0.072-0.521,0.19-0.745,0.351l-2.351,1.667
	c-0.395,0.279-0.859,0.428-1.343,0.428c-0.484,0-0.949-0.148-1.343-0.428l-2.351-1.667c-0.226-0.16-0.476-0.278-0.745-0.351
	l-0.005-0.001c-0.267-0.07-0.541-0.094-0.816-0.068l-2.87,0.269c-0.479,0.046-0.956-0.058-1.375-0.299l-0.002-0.001
	c-0.419-0.243-0.747-0.604-0.949-1.043l-1.203-2.618c-0.116-0.253-0.274-0.48-0.47-0.677c-0.197-0.196-0.424-0.354-0.676-0.471
	l-2.619-1.202c-0.44-0.201-0.8-0.529-1.042-0.948c-0.242-0.418-0.346-0.895-0.301-1.377l0.269-2.869
	c0.025-0.277,0.002-0.554-0.069-0.82c-0.072-0.269-0.189-0.52-0.351-0.745l-1.667-2.351c-0.28-0.394-0.428-0.858-0.428-1.343
	c0-0.484,0.148-0.948,0.428-1.343l1.667-2.351c0.159-0.224,0.276-0.473,0.349-0.74l0,0l0.001-0.005l0.001-0.005l-0.001,0
	c0.071-0.268,0.094-0.542,0.068-0.816l-0.269-2.869c-0.045-0.481,0.059-0.957,0.299-1.375l0.002-0.003
	c0.242-0.419,0.603-0.747,1.042-0.949l2.619-1.202c0.252-0.116,0.48-0.274,0.676-0.47c0.196-0.196,0.355-0.423,0.471-0.676
	l1.202-2.619c0.203-0.44,0.531-0.8,0.949-1.042l0.003-0.002c0.198-0.114,0.413-0.194,0.635-0.245
	c0.039-0.009,0.081-0.009,0.121-0.016c0.203-0.036,0.41-0.057,0.618-0.038l2.87,0.269c0.039,0.004,0.076-0.001,0.115,0
	c0.034,0.002,0.069,0.005,0.103,0.005c0.011,0,0.022-0.004,0.033-0.004c0.193-0.003,0.384-0.021,0.57-0.07
	c0.267-0.071,0.518-0.189,0.745-0.35l2.351-1.667c0.395-0.28,0.859-0.428,1.343-0.428S26.198,6.388,26.593,6.667z M17.063,42.019
	c-0.198,0.013-0.394,0.001-0.584-0.035C16.671,42.02,16.866,42.032,17.063,42.019z M16.362,41.962
	c-0.195-0.047-0.38-0.12-0.555-0.213C15.985,41.843,16.17,41.916,16.362,41.962z M8.753,34.695c-0.092-0.17-0.163-0.352-0.21-0.541
	C8.59,34.341,8.66,34.522,8.753,34.695z M14.423,45.49c-0.013-0.003-0.026-0.008-0.039-0.012
	C14.397,45.482,14.41,45.486,14.423,45.49z M15.106,45.58c0.049,0.001,0.099,0,0.149-0.002c-0.041,0.002-0.081,0.006-0.121,0.006
	C15.124,45.583,15.115,45.58,15.106,45.58z M31.36,45.238c0.048,0,0.096,0.004,0.144,0.007c-0.064-0.003-0.128-0.002-0.192,0
	C31.329,45.244,31.344,45.238,31.36,45.238z M35.457,45.576c0.192-0.006,0.381-0.031,0.564-0.075
	C35.837,45.545,35.648,45.569,35.457,45.576z M36.686,45.247c-0.151,0.081-0.309,0.144-0.471,0.196
	C36.378,45.39,36.536,45.327,36.686,45.247z"/>
<path d="M21.836,12.164c-0.002,0.001-0.005,0.002-0.007,0.003c-0.173,0.055-0.354,0.082-0.537,0.083c-0.023,0-0.046,0-0.068,0
	c-0.039-0.001-0.078-0.002-0.116-0.005l-2.261-0.211c-0.776-0.073-1.516,0.354-1.841,1.063l-0.947,2.063
	c-0.183,0.397-0.502,0.716-0.898,0.898l-2.063,0.947c-0.708,0.325-1.136,1.065-1.063,1.841l0.211,2.26
	c0.041,0.435-0.076,0.871-0.329,1.228l-1.313,1.852c-0.451,0.636-0.451,1.491,0,2.126l1.313,1.852
	c0.252,0.356,0.37,0.793,0.329,1.229l-0.211,2.26c-0.072,0.775,0.355,1.516,1.063,1.842l2.063,0.947
	c0.396,0.182,0.716,0.5,0.898,0.897l0.947,2.064c0.081,0.177,0.191,0.332,0.318,0.47c0.005,0.006,0.012,0.009,0.017,0.015
	c0.119,0.127,0.253,0.234,0.402,0.322c0.034,0.02,0.071,0.031,0.106,0.048c0.126,0.064,0.254,0.119,0.392,0.153
	c0.049,0.012,0.1,0.014,0.151,0.022c0.095,0.015,0.187,0.041,0.285,0.041c0.057,0,0.114-0.002,0.171-0.008l2.261-0.212
	c0.037-0.003,0.074-0.004,0.111-0.005c0.024-0.001,0.048,0,0.072,0c0.183,0.002,0.364,0.029,0.537,0.083
	c0.003,0.001,0.006,0.002,0.009,0.003c0.177,0.057,0.345,0.139,0.498,0.248l1.852,1.313c0.318,0.226,0.691,0.338,1.063,0.338
	s0.746-0.112,1.063-0.338l1.852-1.313c0.153-0.108,0.321-0.191,0.497-0.248c0.003-0.001,0.007-0.003,0.01-0.004
	c0.173-0.054,0.353-0.082,0.536-0.083c0.024,0,0.048,0,0.072,0c0.037,0.001,0.075,0.002,0.112,0.005l2.261,0.212
	c0.057,0.006,0.113,0.008,0.17,0.008c0.098,0,0.19-0.026,0.285-0.041c0.051-0.008,0.102-0.01,0.152-0.022
	c0.138-0.034,0.266-0.089,0.392-0.152c0.035-0.018,0.072-0.028,0.106-0.048c0.151-0.089,0.288-0.198,0.409-0.328
	c0.003-0.003,0.007-0.005,0.01-0.008c0.127-0.138,0.238-0.294,0.319-0.471l0.946-2.063c0.183-0.397,0.502-0.717,0.898-0.898
	l2.063-0.947c0.709-0.326,1.136-1.065,1.063-1.841l-0.212-2.261c-0.041-0.436,0.076-0.872,0.329-1.229l1.313-1.852
	c0.451-0.636,0.451-1.491,0-2.126l-1.313-1.852c-0.253-0.356-0.37-0.792-0.329-1.228l0.212-2.26
	c0.072-0.776-0.354-1.517-1.063-1.841l-2.063-0.947c-0.396-0.182-0.716-0.501-0.898-0.898l-0.946-2.063
	c-0.081-0.177-0.192-0.332-0.319-0.471c-0.005-0.005-0.011-0.008-0.016-0.014c-0.119-0.127-0.254-0.235-0.403-0.323
	c-0.033-0.019-0.069-0.03-0.103-0.047c-0.127-0.065-0.256-0.12-0.396-0.154c-0.047-0.012-0.096-0.013-0.144-0.021
	c-0.096-0.016-0.19-0.042-0.29-0.042c-0.057,0-0.114,0.003-0.171,0.008l-2.261,0.211c-0.039,0.004-0.078,0.004-0.116,0.005
	c-0.023,0.001-0.046,0-0.069,0c-0.183-0.001-0.364-0.029-0.536-0.083c-0.003-0.001-0.005-0.002-0.008-0.003
	c-0.177-0.057-0.345-0.139-0.498-0.248l-1.853-1.314c-0.636-0.451-1.489-0.451-2.126,0l-1.852,1.314
	C22.182,12.025,22.013,12.108,21.836,12.164z M30.053,35.154l-1.695-0.159c-0.042-0.004-0.084-0.006-0.127-0.006
	c-0.104,0-0.205,0.024-0.306,0.048c-0.021,0.005-0.042,0.004-0.062,0.01c-0.153,0.043-0.3,0.105-0.431,0.198l-1.389,0.985
	c-0.474,0.334-1.11,0.334-1.584,0l-1.389-0.985c-0.131-0.093-0.278-0.155-0.431-0.198c-0.021-0.006-0.042-0.005-0.063-0.01
	c-0.101-0.023-0.202-0.048-0.306-0.048c-0.042,0-0.084,0.002-0.127,0.006l-1.695,0.159c-0.014,0.001-0.028,0.001-0.042,0.002
	c-0.066,0.004-0.13-0.007-0.195-0.012c-0.085-0.007-0.17-0.014-0.251-0.036c-0.04-0.011-0.077-0.031-0.116-0.045
	c-0.086-0.032-0.172-0.065-0.25-0.114c-0.025-0.015-0.044-0.037-0.068-0.054c-0.188-0.136-0.349-0.312-0.45-0.533l-0.71-1.547
	c-0.137-0.3-0.378-0.541-0.678-0.679l-1.547-0.711c-0.528-0.241-0.846-0.793-0.792-1.372l0.159-1.695
	c0.031-0.328-0.057-0.657-0.248-0.926l-0.985-1.389c-0.335-0.474-0.335-1.111,0-1.584l0.985-1.389
	c0.191-0.269,0.279-0.598,0.248-0.926l-0.159-1.695c-0.054-0.579,0.265-1.13,0.792-1.373l1.548-0.71
	c0.3-0.138,0.541-0.379,0.678-0.678l0.71-1.547c0.182-0.396,0.536-0.674,0.946-0.765c-0.007,0.002-0.014,0.001-0.021,0.003
	c0.028-0.007,0.057-0.007,0.085-0.012c-0.021,0.004-0.042,0.004-0.062,0.009c0.137-0.03,0.279-0.04,0.424-0.027l1.695,0.159
	c0.329,0.03,0.658-0.057,0.927-0.249l1.389-0.985c0.474-0.336,1.11-0.336,1.584,0l1.389,0.985c0.132,0.094,0.279,0.156,0.432,0.198
	c0.019,0.005,0.038,0.004,0.057,0.009c0.102,0.024,0.204,0.048,0.31,0.048c0.043,0,0.086-0.002,0.128-0.006l1.695-0.159
	c0.015-0.001,0.029-0.001,0.044-0.002c0.067-0.004,0.131,0.007,0.196,0.012c0.084,0.007,0.169,0.014,0.249,0.036
	c0.042,0.012,0.081,0.032,0.122,0.047c0.084,0.032,0.168,0.064,0.244,0.111c0.027,0.017,0.049,0.041,0.074,0.06
	c0.185,0.135,0.343,0.31,0.443,0.528l0.71,1.547c0.139,0.3,0.38,0.541,0.68,0.678l1.547,0.71c0.527,0.242,0.847,0.794,0.793,1.373
	l-0.159,1.695c-0.03,0.328,0.058,0.657,0.248,0.926l0.985,1.389c0.336,0.474,0.336,1.111,0,1.584l-0.985,1.389
	c-0.19,0.269-0.278,0.598-0.248,0.926l0.159,1.695c0.054,0.579-0.266,1.131-0.793,1.372l-1.547,0.711
	c-0.3,0.138-0.541,0.378-0.68,0.679l-0.71,1.548c-0.1,0.219-0.26,0.396-0.448,0.531c-0.024,0.017-0.044,0.04-0.069,0.056
	c-0.077,0.049-0.163,0.081-0.249,0.113c-0.039,0.015-0.076,0.034-0.117,0.046c-0.081,0.022-0.166,0.029-0.25,0.036
	c-0.065,0.005-0.129,0.016-0.196,0.012C30.081,35.155,30.067,35.155,30.053,35.154z M27.832,35.06
	c-0.072,0.022-0.136,0.062-0.203,0.096C27.696,35.123,27.76,35.082,27.832,35.06z M22.87,35.155
	c-0.067-0.033-0.13-0.073-0.201-0.095C22.74,35.082,22.803,35.122,22.87,35.155z M20.09,35.136
	c-0.031-0.005-0.062-0.006-0.092-0.013C20.028,35.13,20.06,35.131,20.09,35.136z M19.681,34.999
	c-0.019-0.01-0.039-0.016-0.058-0.026C19.641,34.984,19.662,34.989,19.681,34.999z M19.624,15.525
	c0.016-0.009,0.033-0.014,0.049-0.022C19.658,15.511,19.64,15.516,19.624,15.525z M30.829,15.504
	c0.015,0.008,0.032,0.013,0.047,0.021C30.861,15.516,30.844,15.512,30.829,15.504z M30.416,15.364
	c0.028,0.005,0.057,0.006,0.084,0.012C30.473,15.369,30.444,15.368,30.416,15.364z M28.23,15.5c-0.056,0-0.11-0.019-0.165-0.026
	c0.085,0.01,0.168,0.027,0.254,0.022C28.289,15.498,28.259,15.5,28.23,15.5z M27.629,15.344c0.067,0.033,0.131,0.073,0.202,0.095
	C27.759,15.417,27.696,15.377,27.629,15.344z M22.27,34.999c0.058,0,0.113,0.019,0.17,0.026c-0.087-0.011-0.173-0.028-0.262-0.022
	C22.208,35.001,22.239,34.999,22.27,34.999z M28.061,35.025c0.057-0.007,0.112-0.026,0.17-0.026c0.031,0,0.061,0.002,0.092,0.004
	C28.234,34.997,28.148,35.014,28.061,35.025z M17.254,37.769c0.019,0.023,0.03,0.053,0.05,0.075
	C17.284,37.821,17.273,37.792,17.254,37.769z M17.574,38.075c0.047,0.036,0.088,0.079,0.138,0.11
	C17.661,38.154,17.621,38.111,17.574,38.075z M18.011,38.322c0.063,0.025,0.124,0.056,0.19,0.074
	C18.134,38.378,18.074,38.347,18.011,38.322z M18.511,38.44c0.096,0.009,0.191,0.025,0.29,0.018
	c-0.042,0.003-0.083,0.006-0.125,0.006C18.62,38.464,18.567,38.446,18.511,38.44z M21.353,38.249
	c0.145,0.006,0.288,0.026,0.427,0.066C21.642,38.275,21.498,38.255,21.353,38.249z M22.272,38.541
	c-0.111-0.072-0.229-0.129-0.352-0.175C22.043,38.412,22.161,38.469,22.272,38.541z M28.228,38.541
	c0.111-0.072,0.229-0.129,0.352-0.176C28.457,38.412,28.339,38.469,28.228,38.541z M28.72,38.315c0.139-0.04,0.282-0.06,0.427-0.066
	C29.002,38.255,28.859,38.275,28.72,38.315z M31.823,38.464c-0.041,0-0.082-0.003-0.124-0.006c0.098,0.007,0.193-0.009,0.289-0.018
	C31.933,38.446,31.88,38.464,31.823,38.464z M32.3,38.396c0.065-0.018,0.125-0.049,0.188-0.073
	C32.425,38.347,32.366,38.378,32.3,38.396z M32.789,38.185c0.05-0.031,0.091-0.074,0.137-0.11
	C32.879,38.111,32.839,38.154,32.789,38.185z M33.196,37.844c0.021-0.023,0.033-0.054,0.052-0.079
	C33.229,37.789,33.217,37.82,33.196,37.844z M33.237,12.717c-0.015-0.019-0.024-0.042-0.04-0.06
	C33.213,12.675,33.222,12.699,33.237,12.717z M32.921,12.42c-0.045-0.034-0.084-0.076-0.132-0.106
	C32.838,12.344,32.876,12.386,32.921,12.42z M32.488,12.177c-0.063-0.025-0.122-0.055-0.187-0.073
	C32.366,12.122,32.425,12.152,32.488,12.177z M31.989,12.059c-0.096-0.009-0.191-0.025-0.29-0.018
	c0.042-0.003,0.084-0.006,0.125-0.006C31.881,12.035,31.934,12.054,31.989,12.059z"/>
</svg>
