<svg id="Layer_1" data-name="Layer 1" xmlns="http://www.w3.org/2000/svg" viewBox="0 0 50.46 50.46"><defs><style>.cls-1{fill:#00b5e4;}</style></defs><title>Iconos</title><polygon class="cls-1" points="26.24 20.34 26.24 20.32 26.38 20.34 25.85 13.19 24.76 13.21 24.43 18.62 20.83 18.99 20.84 20.08 26.24 20.34"/><path class="cls-1" d="M25.64,5.16a13.82,13.82,0,0,0-10,4,13.44,13.44,0,0,0-4.07,9.64c0,10.08,12.08,25.19,12.59,25.83l0.43,0.54a0.45,0.45,0,0,0,.34.17h0a0.45,0.45,0,0,0,.34-0.16l0.45-.52C26.27,44,39.27,28.8,39.27,19.24A13.87,13.87,0,0,0,25.64,5.16Zm-0.24,2h0.21a11.84,11.84,0,0,1,11.62,12C37.23,26.76,27.7,39,25,42.36,22.41,39,13.59,26.77,13.59,18.81a11.4,11.4,0,0,1,3.46-8.18A11.84,11.84,0,0,1,25.4,7.21Z"/><path class="cls-1" d="M19.14,25.09a8.67,8.67,0,0,0,6.13,2.66h0.15a8.73,8.73,0,0,0,.14-17.46,8.53,8.53,0,0,0-6.21,2.45A8.73,8.73,0,0,0,19.14,25.09Zm6.27-12.75h0.12a6.68,6.68,0,0,1-.11,13.36H25.3A6.68,6.68,0,0,1,25.41,12.34Z"/></svg>