<svg xmlns="http://www.w3.org/2000/svg" viewBox="0 0 50.46 50.46">
  <title>Iconos</title>
  <g>
    <polygon points="25.67 13.16 24.58 13.19 24.25 18.6 20.65 18.97 20.66 20.06 26.06 20.32 26.06 20.3 26.2 20.32 25.67 13.16" fill="#00b5e4"/>
    <path d="M25.46,5.14a13.82,13.82,0,0,0-10,4,13.44,13.44,0,0,0-4.07,9.64C11.37,28.87,23.44,44,24,44.62l0.43,0.54a0.45,0.45,0,0,0,.34.17h0a0.45,0.45,0,0,0,.34-0.16l0.45-.52C26.08,44,39.09,28.78,39.09,19.22A13.87,13.87,0,0,0,25.46,5.14Zm-0.68,37.2C22.23,39,13.41,26.75,13.41,18.79a11.4,11.4,0,0,1,3.46-8.18,11.84,11.84,0,0,1,8.35-3.42h0.21A11.84,11.84,0,0,1,37,19.22C37,26.74,27.52,39,24.78,42.34Z" fill="#00b5e4"/>
    <path d="M31.5,12.94a8.67,8.67,0,0,0-6.13-2.66,8.53,8.53,0,0,0-6.21,2.45,8.73,8.73,0,0,0,5.92,15h0.15A8.73,8.73,0,0,0,31.5,12.94ZM29.88,23.81a6.65,6.65,0,0,1-4.64,1.88H25.12a6.68,6.68,0,0,1,.11-13.36h0.12A6.68,6.68,0,0,1,29.88,23.81Z" fill="#00b5e4"/>
  </g>
</svg>
