<?xml version="1.0" encoding="utf-8"?>
<!-- Generator: Adobe Illustrator 18.0.0, SVG Export Plug-In . SVG Version: 6.00 Build 0)  -->
<!DOCTYPE svg PUBLIC "-//W3C//DTD SVG 1.1//EN" "http://www.w3.org/Graphics/SVG/1.1/DTD/svg11.dtd">
<svg version="1.1" id="Layer_1" xmlns="http://www.w3.org/2000/svg" xmlns:xlink="http://www.w3.org/1999/xlink" x="0px" y="0px"
	 viewBox="0 0 50.5 50.5" style="enable-background:new 0 0 50.5 50.5;" xml:space="preserve">
<style type="text/css">
	.st0{fill:#65B4E1;}
</style>
<g>
	<g>
		<polygon class="st0" points="26.2,20.3 26.2,20.3 26.4,20.3 25.9,13.2 24.8,13.2 24.4,18.6 20.8,19 20.8,20.1 		"/>
		<path class="st0" d="M25.6,5.2c-3.8-0.1-7.3,1.4-10,4c-2.6,2.6-4.1,6-4.1,9.6c0,10.1,12.1,25.2,12.6,25.8l0.4,0.5
			c0.1,0.1,0.2,0.2,0.3,0.2c0,0,0,0,0,0c0.1,0,0.3-0.1,0.3-0.2l0.4-0.5c0.6-0.6,13.6-15.9,13.6-25.4C39.3,11.5,33.3,5.3,25.6,5.2z
			 M25.4,7.2l0.2,0c6.5,0.1,11.6,5.4,11.6,12c0,7.5-9.5,19.8-12.3,23.1C22.4,39,13.6,26.8,13.6,18.8c0-3.1,1.2-6,3.5-8.2
			C19.3,8.4,22.3,7.2,25.4,7.2z"/>
		<path class="st0" d="M19.1,25.1c1.6,1.7,3.8,2.6,6.1,2.7l0.2,0c2.3,0,4.4-0.9,6.1-2.5c1.7-1.6,2.6-3.8,2.7-6.1
			c0-2.3-0.8-4.5-2.5-6.2c-1.6-1.7-3.8-2.6-6.1-2.7c-2.4,0-4.5,0.8-6.2,2.5c-1.7,1.6-2.6,3.8-2.7,6.1C16.6,21.2,17.5,23.4,19.1,25.1
			z M25.4,12.3l0.1,0c1.8,0,3.5,0.8,4.7,2c1.2,1.3,1.9,3,1.9,4.8c0,1.8-0.8,3.4-2,4.7c-1.3,1.2-2.9,1.9-4.6,1.9l-0.1,0
			c-1.8,0-3.4-0.8-4.7-2c-1.2-1.3-1.9-3-1.9-4.8c0-1.8,0.8-3.5,2-4.7C22,13,23.7,12.3,25.4,12.3z"/>
	</g>
</g>
</svg>
