<svg id="Layer_1" data-name="Layer 1" xmlns="http://www.w3.org/2000/svg" viewBox="0 0 50.46 50.46"><defs><style>.cls-1{fill:#12b5e1;}</style></defs><title>martillo negativo</title><path class="cls-1" d="M41.17,32.86,41,32.68a1.22,1.22,0,0,0-.38-.26,1.28,1.28,0,0,0-.47-.1l-11.12,0a1.15,1.15,0,0,0-.85.35.65.65,0,0,0-.15.18,1.2,1.2,0,0,0,0,1.34l.15.18a1.22,1.22,0,0,0,.38.26,1.1,1.1,0,0,0,.47.1l11.12,0a1.23,1.23,0,0,0,.47-.09,1.42,1.42,0,0,0,.38-.26,1.19,1.19,0,0,0,.15-.18,1.21,1.21,0,0,0,0-1.35Z"/><path class="cls-1" d="M12,35.07l11.37-8.56a3.5,3.5,0,0,0,1.35-3.39l3.53-2.65a13.5,13.5,0,0,0,2.56,2.19,1.46,1.46,0,0,1,.43-.53l5.9-4.43a1.37,1.37,0,0,1,.62-.26A14.3,14.3,0,0,0,35.46,13a14.09,14.09,0,0,0-3.7-3.5,1.46,1.46,0,0,1-.4.49l-5.9,4.44a1.52,1.52,0,0,1-.58.26,13.42,13.42,0,0,0,1.41,3.16l-3.52,2.65a3.49,3.49,0,0,0-3.63.35L7.76,29.42A3.54,3.54,0,0,0,12,35.07Zm0,0"/><path class="cls-1" d="M31.91,23.15a.78.78,0,0,0-.24.33A1.75,1.75,0,0,0,32,25.15a2,2,0,0,0,1.21.79.89.89,0,0,0,.68-.15l1.82-1.36,4.08-3.07a1,1,0,0,0,.34-.81,2,2,0,0,0-.44-1.19,2,2,0,0,0-1.22-.79.93.93,0,0,0-.29,0,.82.82,0,0,0-.38.15Zm0,0"/><path class="cls-1" d="M24.17,13.44a1,1,0,0,0,.34,0,.82.82,0,0,0,.34-.14l5.9-4.44A.82.82,0,0,0,31,8.56a1.72,1.72,0,0,0-.32-1.7,2,2,0,0,0-1.22-.79.86.86,0,0,0-.67.14L24.87,9.14l-2,1.51c-.49.37-.45,1.28.1,2a2,2,0,0,0,1.21.79Zm0,0"/><path class="cls-1" d="M37.2,36.05H32c-1,0-1.91,0-2.73.09-2.72.24-4.43,2.21-4.56,5.37l19.76.07c-.11-3.16-1.81-5.14-4.53-5.41-.82-.08-1.74-.1-2.73-.1Zm0,0"/></svg>