<svg id="Layer_1" data-name="Layer 1" xmlns="http://www.w3.org/2000/svg" viewBox="0 0 50.46 50.46"><defs><style>.cls-1{fill:#12b5e1;}</style></defs><title>martillo</title><path class="cls-1" d="M39,37.29a2.34,2.34,0,0,0,.25-.3,2.79,2.79,0,0,0,.48-1.56,2.76,2.76,0,0,0-.47-1.57,3.21,3.21,0,0,0-.34-.41,2.74,2.74,0,0,0-2-.82l-11.12,0h0a2.68,2.68,0,0,0-1.08.22,2.82,2.82,0,0,0-.89.59,2.64,2.64,0,0,0-.34.41,2.77,2.77,0,0,0,0,3.13,2.6,2.6,0,0,0,.26.32c-1.84,1-2.95,2.92-3.05,5.58a.8.8,0,0,0,.79.83l19.75.06h0a.78.78,0,0,0,.57-.24.77.77,0,0,0,.22-.58C41.91,40.24,40.81,38.26,39,37.29ZM24.77,34.71a.65.65,0,0,1,.15-.18,1.15,1.15,0,0,1,.85-.35h0l11.12,0a1.2,1.2,0,0,1,.47.1,1.22,1.22,0,0,1,.38.26,1.19,1.19,0,0,1,.15.18,1.14,1.14,0,0,1,.2.68,1.2,1.2,0,0,1-.2.67l-.15.18a1.33,1.33,0,0,1-.39.26,1.18,1.18,0,0,1-.46.09h0l-11.12,0a1,1,0,0,1-.46-.1,1.16,1.16,0,0,1-.39-.26.86.86,0,0,1-.14-.18,1.17,1.17,0,0,1,0-1.34Zm-2.45,7.37c.33-2.29,1.67-3.69,3.76-3.89h.05l10.43,0h0c2.09.21,3.42,1.62,3.74,3.91Z"/><path class="cls-1" d="M36.94,20l-.44-.6a2.54,2.54,0,0,0-1.53-1l-.07-.2a15.71,15.71,0,0,0-2.26-4.27h0a15.7,15.7,0,0,0-3.5-3.5l-.27-.2a2.54,2.54,0,0,0-.47-1.86L28,7.77a2.56,2.56,0,0,0-3.57-.55L18.85,11.3a2.56,2.56,0,0,0-.54,3.57l.44.6a2.51,2.51,0,0,0,1.33.92l.18.57A16.26,16.26,0,0,0,21.12,19L18.83,20.7a4.71,4.71,0,0,0-1.35-.22,4.58,4.58,0,0,0-2.77.89L3.25,29.81a4.63,4.63,0,1,0,5.48,7.46L20.2,28.82a4.57,4.57,0,0,0,1.86-3.73l2.3-1.69A14.45,14.45,0,0,0,26,24.77l.38.27a2.55,2.55,0,0,0,.5,1.43l.44.59a2.56,2.56,0,0,0,3.57.55l5.54-4.07A2.57,2.57,0,0,0,36.94,20ZM21.39,14.73a1,1,0,0,1-1.36-.2l-.44-.6a1,1,0,0,1,.21-1.36L25.33,8.5a1,1,0,0,1,1.35.21l.44.6a1,1,0,0,1-.2,1.35Zm3.46,6.89a.48.48,0,0,0-.66-.06l-3.56,2.61a.5.5,0,0,0-.19.47,3,3,0,0,1-1.19,2.9L7.79,36a3,3,0,1,1-3.6-4.9l11.46-8.44a3.07,3.07,0,0,1,1.81-.58,3.23,3.23,0,0,1,1.32.31.49.49,0,0,0,.51,0l3.55-2.62a.5.5,0,0,0,.13-.65,13.51,13.51,0,0,1-1.2-2.61c.1-.05,6.38-4.67,6.45-4.75a14.43,14.43,0,0,1,3.14,3.15h0a14.83,14.83,0,0,1,2,3.71,2.67,2.67,0,0,0-.43.25l-5.53,4.07a2.75,2.75,0,0,0-.53.55A13.56,13.56,0,0,1,24.85,21.62Zm5.07,4.71a1,1,0,0,1-1.35-.21l-.44-.59a1,1,0,0,1-.12-.9c.77-.58,5.45-4,6.18-4.55l.35-.16a1,1,0,0,1,.68.38l.44.6a1,1,0,0,1-.21,1.36Z"/></svg>