<?xml version="1.0" encoding="utf-8"?>
<!-- Generator: Adobe Illustrator 18.0.0, SVG Export Plug-In . SVG Version: 6.00 Build 0)  -->
<!DOCTYPE svg PUBLIC "-//W3C//DTD SVG 1.1//EN" "http://www.w3.org/Graphics/SVG/1.1/DTD/svg11.dtd">
<svg version="1.1" id="Layer_1" xmlns="http://www.w3.org/2000/svg" xmlns:xlink="http://www.w3.org/1999/xlink" x="0px" y="0px"
	 viewBox="0 0 50.5 50.5" style="enable-background:new 0 0 50.5 50.5;" xml:space="preserve">
<style type="text/css">
	.st0{fill:#65B4E1;}
</style>
<path class="st0" d="M33.5,9.5c-1.2-0.9-1.9-0.7-3.1,1.4c-0.7,1.3-1.8,1.5-2.6,1.5l0-0.1c0.9-0.5,1.5-1.4,1.5-2.5
	c0-1.5-1.3-2.7-2.8-2.7c-1.5,0-2.7,1.3-2.7,2.8c0,1.1,0.6,2,1.5,2.4l0,0.1c-0.7,0-1.9-0.1-2.7-1.4c-1.2-2-2-2.2-3.1-1.3
	c-1.1,1-5.6,6.4-11.1,5.9c0,0,1.1,2.5,4.1,1.9c0,0,1.6,1.6,4.2,0.5c0,0,1.4,1.2,3.5,0.1c0,0,1.6,1.2,3.3,0.1c0,0,0.8,0.6,1.9,0.5
	l0.1,6.2c-0.1,0-0.1,0-0.2,0c-0.9-0.2-1.9-0.4-3.8-0.9c-1.9-0.5-3.9-1.3-4.3-1.7c0,0,0.1,0,0.1-0.1c0.2-0.1,0.5-0.2,0.8-0.3
	c0.7-0.1,1.6-0.2,2.6-0.3c1.9-0.1,2,0,2.2,0c0.2,0,1.4,0,1.4-0.9c0-0.9-0.6-0.9-1.1-1c-0.8-0.1-0.4-0.1-1.5,0
	c-1.7,0.1-7-0.2-7.6,2.5c0,0.1,0,0.1,0,0.2c0.2,2.4,5.3,3.4,8.9,4.1c-1.2,0.8-1.9,2-2.1,3.4c-0.1,1.5,1.1,2.9,3.9,4.5
	c-2.1,1.5-3.5,2.9-3.4,4.6c0.2,1.4,1.4,3.2,3.9,4.4l0,0c0,0-1.7-2.6-1.8-4c-0.1-0.7,0.2-1.7,1.7-3c0.1-0.1,0.2-0.2,0.4-0.3l0,5.2
	c0,0,0,0,0,0.1c0,0.7,0.6,1.2,1.2,1.2c0.7,0,1.2-0.6,1.2-1.2l0-5c1.3,1,1.9,2.3,1.8,3c-0.1,1.4-1.8,4-1.8,4l0,0
	c2.4-1.2,3.6-3,3.8-4.4c0.1-1.7-1.3-3.1-3.4-4.6c2.8-1.6,4-3.1,3.8-4.6c-0.3-1.4-0.9-2.5-2.2-3.3c3.6-0.7,8.6-1.8,8.8-4.3
	c0-0.1,0-0.1,0-0.2c-0.7-2.8-5.9-2.3-7.7-2.4c-1,0-0.9,0-1.4,0c-0.5,0-1.1,0.3-1.1,1c0,0.8,0.9,1,1.4,1c0.3,0,0.4-0.1,2.2,0
	c0.9,0,1.9,0.1,2.6,0.2c0.3,0.1,0.6,0.1,0.8,0.2c0,0,0.1,0,0.1,0.1c-0.3,0.4-2.4,1.2-4.2,1.7c-1.7,0.5-3.1,0.8-3.5,0.9
	c0,0-0.1,0-0.1,0l-0.1-6.1c0.8,0.1,1.8-0.6,1.8-0.6c1.7,1,3.3-0.2,3.3-0.2c2.2,1.1,3.5-0.1,3.5-0.1c2.6,1.1,4.2-0.5,4.2-0.5
	c3,0.5,4.1-2,4.1-2C39.2,15.8,34.6,10.4,33.5,9.5L33.5,9.5z M25.6,32.5c-0.5-0.3-0.8-0.4-1.3-0.8c-0.6-0.5-0.9-1.1-0.9-1.7
	c0-0.5-0.2-1.5,2.2-2.4L25.6,32.5z M29.9,30.1c0,0.5-0.3,1.1-0.9,1.6c-0.3,0.3-0.6,0.5-0.9,0.7l0-4.6C30,28.6,29.9,29.6,29.9,30.1
	L29.9,30.1z M29.9,30.1"/>
</svg>
