<?xml version="1.0" encoding="utf-8"?>
<!-- Generator: Adobe Illustrator 18.0.0, SVG Export Plug-In . SVG Version: 6.00 Build 0)  -->
<!DOCTYPE svg PUBLIC "-//W3C//DTD SVG 1.1//EN" "http://www.w3.org/Graphics/SVG/1.1/DTD/svg11.dtd">
<svg version="1.1" id="Layer_1" xmlns="http://www.w3.org/2000/svg" xmlns:xlink="http://www.w3.org/1999/xlink" x="0px" y="0px"
	 viewBox="0 0 50.5 50.5" style="enable-background:new 0 0 50.5 50.5;" xml:space="preserve">
<style type="text/css">
	.st0{fill:#65B4E1;}
</style>
<g>
	<path class="st0" d="M11.7,31.5l-1.1-8.4L24,21.4l0.3,2.3l1.7-2L24.5,10c-0.6-4.6-4.8-7.8-9.4-7.2l-0.8,0.1
		c-2.2,0.3-4.2,1.4-5.5,3.2c-1.4,1.8-2,4-1.7,6.2l2.5,19.5c0.4,2.8,2.1,5.2,4.7,6.5l0.2,0.1l0-0.2c0.1-0.6,0.2-1.2,0.3-1.8l0-0.1
		l-0.1,0C13.1,35.2,11.9,33.5,11.7,31.5z M10.3,21.2L9.1,12c-0.5-3.5,2-6.7,5.5-7.2l0.8-0.1c0.3,0,0.6-0.1,0.8-0.1
		c1.4,0,2.8,0.5,3.9,1.3c1.4,1,2.2,2.5,2.4,4.2l1.2,9.1L10.3,21.2z"/>
	<path class="st0" d="M13.7,7.2c-0.3-0.1-0.5,0-0.8,0.1c-1.9,1.2-2.5,3.1-2.1,5.7l0,0.1c0,0.5,0.4,0.9,0.9,0.9c0,0,0,0,0.1,0
		c0,0,0.1,0,0.1,0c0.5-0.1,0.8-0.4,0.9-0.9c0-0.2,0-0.3,0-0.5C12.6,11.5,12.5,9.9,14,9c0.2-0.1,0.4-0.4,0.4-0.6s0-0.5-0.1-0.7
		C14.2,7.4,14,7.2,13.7,7.2z"/>
	<path class="st0" d="M44.4,18.4l-0.6-0.5c-3.5-3-8.8-2.6-11.8,0.9L19.3,33.8c-3,3.5-2.6,8.8,0.9,11.8l0.6,0.5c1.6,1.3,3.5,2,5.4,2
		c2.4,0,4.7-1,6.4-2.9l12.7-14.9C48.4,26.7,47.9,21.4,44.4,18.4z M36.6,37.5l-5.5,6.4c-2.3,2.7-6.3,3-9,0.7l-0.6-0.5
		c-1.3-1.1-2.1-2.6-2.2-4.4c-0.1-1.7,0.4-3.4,1.5-4.6l5.5-6.4L36.6,37.5z M43.9,28.9l-6,7l-10.3-8.8l6-7c2.3-2.7,6.3-3,9-0.7
		l0.6,0.5C45.8,22.2,46.1,26.3,43.9,28.9z"/>
	<path class="st0" d="M39.6,19.8c-2.1-0.6-4,0.2-5.6,2.3l-0.1,0.1c-0.4,0.4-0.4,0.9-0.1,1.3c0,0.1,0.1,0.1,0.1,0.1
		c0.2,0.2,0.4,0.2,0.6,0.2c0.2,0,0.4-0.1,0.6-0.2c0.1-0.1,0.2-0.2,0.3-0.4c0.7-0.9,1.8-2.1,3.5-1.6c0.5,0.1,1.1-0.2,1.2-0.7
		c0.1-0.3,0-0.5-0.1-0.8C40.1,20.1,39.9,19.9,39.6,19.8z"/>
</g>
</svg>
