<?xml version="1.0" encoding="UTF-8"?>
<svg id="Layer_1" xmlns="http://www.w3.org/2000/svg" version="1.1" xmlns:xlink="http://www.w3.org/1999/xlink" viewBox="0 0 50.5 50.5">
  <!-- Generator: Adobe Illustrator 29.3.1, SVG Export Plug-In . SVG Version: 2.1.0 Build 151)  -->
  <path d="M24.844,26.833c5.999,0,10.878-4.88,10.878-10.879s-4.88-10.879-10.878-10.879-10.879,4.88-10.879,10.879,4.88,10.879,10.879,10.879ZM32.924,11.406c-4.821-.295-5.942-3.282-6.193-4.538,2.657.551,4.897,2.244,6.193,4.538ZM24.42,6.696c-2.068,5.457-6.57,6.538-8.498,6.736,1.065-3.762,4.444-6.551,8.498-6.736ZM15.611,15.052c1.837-.135,7.188-1.046,9.888-6.792.743,1.964,2.744,4.762,8.148,4.779.305.918.476,1.896.476,2.915,0,5.117-4.162,9.279-9.279,9.279s-9.279-4.163-9.279-9.279c0-.304.017-.605.046-.902Z"/>
  <path d="M40.649,39.561c-.43-2.169-2.27-6.789-5.567-10.265.619-1.589.549-3.397-.301-5.204-.187-.398-.66-.574-1.064-.383-.399.188-.571.665-.383,1.064.532,1.13.652,2.24.432,3.264-.554-.473-1.14-.912-1.761-1.299-.246-.155-.559-.161-.811-.021-1.896,1.051-4.043,1.616-6.187,1.635-2.135-.043-4.256-.601-6.139-1.613-.254-.173-.596-.191-.874-.018-.864.538-1.657,1.177-2.391,1.871-.451-.944-.393-1.846.689-3.061.293-.33.264-.835-.066-1.129s-.835-.264-1.129.066c-1.92,2.156-1.491,3.941-.663,5.33-2.998,3.405-4.676,7.685-5.085,9.746-.064.325.078.655.357.833,4.53,2.862,9.749,4.426,15.104,4.527.059.014.119.021.181.021h.01c.328-.004.653-.031.979-.046.018.003.032.014.05.016.031.004.062.005.092.005.07,0,.134-.02.199-.037,4.957-.287,9.762-1.81,13.971-4.469.279-.178.422-.508.356-.833ZM27.005,43.225c.373-5.2-1.08-9.139-1.146-9.314-.156-.413-.619-.619-1.029-.467-.414.155-.623.616-.468,1.03.015.04,1.425,3.897,1.029,8.836-.076.002-.152.01-.229.012-.047-.009-.095-.015-.143-.015-4.937-.062-9.756-1.438-13.976-3.986.514-1.981,1.953-5.376,4.341-8.188.013.016.026.034.039.05.343.436.671.853.875,1.236-.122.113-.234.237-.332.377-.904,1.293-.549,3.383-.197,5.268-.156.134-.286.298-.38.487-.188.375-.219.801-.087,1.198.218.66.833,1.078,1.493,1.078.163,0,.329-.025.492-.079.822-.272,1.27-1.163.998-1.986-.154-.467-.51-.807-.938-.968-.27-1.443-.598-3.324-.069-4.08.085-.122.228-.27.572-.327,1.196-.19,2.241,1.846,2.82,3.53-.097.106-.198.209-.265.341-.188.375-.219.801-.087,1.199.218.66.833,1.078,1.493,1.078.163,0,.329-.025.492-.079.398-.132.722-.412.911-.787s.219-.801.087-1.198c-.132-.398-.411-.723-.786-.911-.101-.051-.206-.088-.313-.116-.627-1.863-2.028-4.883-4.427-4.646-.276-.562-.689-1.089-1.094-1.604-.067-.085-.125-.164-.188-.246.607-.591,1.258-1.141,1.965-1.617,2.018,1.019,4.263,1.578,6.542,1.623,2.271-.02,4.523-.573,6.543-1.607.556.375,1.08.794,1.574,1.243-.388.586-.929,1.111-1.602,1.565-.422-.374-.971-.609-1.579-.609-1.319,0-2.393,1.073-2.393,2.393s1.073,2.393,2.393,2.393,2.393-1.073,2.393-2.393c0-.122-.018-.24-.036-.357.81-.523,1.474-1.138,1.983-1.822,2.594,2.882,4.145,6.507,4.683,8.581-3.641,2.198-7.728,3.524-11.952,3.887ZM30.728,32.937c0,.438-.355.793-.793.793s-.793-.355-.793-.793.355-.793.793-.793.793.355.793.793Z"/>
  <path d="M29.233,39.858c-.599,0-1.085.487-1.085,1.086s.486,1.086,1.085,1.086,1.086-.487,1.086-1.086-.487-1.086-1.086-1.086Z"/>
  <path d="M29.934,37.777c0-.599-.487-1.085-1.086-1.085s-1.085.486-1.085,1.085.486,1.086,1.085,1.086,1.086-.487,1.086-1.086Z"/>
  <path d="M34.258,35.5c-.441,0-.8.358-.8.8v.519h-.519c-.441,0-.8.358-.8.8s.358.8.8.8h.519v.52c0,.441.358.8.8.8s.8-.358.8-.8v-.52h.52c.441,0,.8-.358.8-.8s-.358-.8-.8-.8h-.52v-.519c0-.441-.358-.8-.8-.8Z"/>
</svg>