<?xml version="1.0" encoding="UTF-8"?>
<svg id="Layer_1" xmlns="http://www.w3.org/2000/svg" version="1.1" xmlns:xlink="http://www.w3.org/1999/xlink" viewBox="0 0 50.5 50.5">
  <!-- Generator: Adobe Illustrator 29.3.1, SVG Export Plug-In . SVG Version: 2.1.0 Build 151)  -->
  <path d="M40.649,39.561c-.431-2.169-2.271-6.791-5.57-10.268.311-.8.457-1.658.404-2.554-.026-.441-.408-.784-.846-.752-.441.026-.777.405-.752.846.025.417-.018.823-.104,1.217-.559-.478-1.149-.921-1.776-1.311-.246-.155-.559-.161-.811-.021-1.896,1.051-4.043,1.616-6.187,1.635-2.135-.043-4.256-.601-6.139-1.613-.254-.173-.596-.191-.874-.018-.984.613-1.884,1.349-2.699,2.158-.243-.48-.228-.968.16-1.655.217-.385.081-.873-.304-1.09-.386-.219-.874-.081-1.09.303-.884,1.567-.525,2.751.118,3.664-2.835,3.353-4.433,7.442-4.831,9.443-.064.325.078.655.357.833,4.53,2.862,9.749,4.426,15.104,4.527.059.014.119.021.181.021h.01c.328-.004.653-.031.979-.046.018.003.032.014.05.016.031.004.062.005.092.005.07,0,.134-.02.199-.037,4.957-.287,9.762-1.81,13.971-4.469.279-.178.422-.508.356-.833ZM27.005,43.225c.373-5.2-1.08-9.139-1.146-9.314-.156-.413-.619-.619-1.029-.467-.414.155-.623.616-.468,1.03.015.04,1.425,3.897,1.029,8.836-.076.002-.152.01-.229.012-.047-.009-.095-.015-.143-.015-4.937-.062-9.756-1.438-13.976-3.986.504-1.944,1.9-5.249,4.208-8.029.019.018.039.037.057.055.386.372.754.728.976,1.081-.117.11-.224.232-.318.366-.904,1.293-.549,3.383-.197,5.268-.156.134-.286.298-.38.487-.188.375-.219.801-.087,1.198.218.66.833,1.078,1.493,1.078.163,0,.329-.025.492-.079.822-.272,1.27-1.163.998-1.986-.154-.467-.51-.807-.938-.968-.27-1.443-.598-3.324-.069-4.08.085-.122.228-.27.572-.327,1.196-.19,2.241,1.846,2.82,3.53-.097.106-.198.209-.265.341-.188.375-.219.801-.087,1.199.218.66.833,1.078,1.493,1.078.163,0,.329-.025.492-.079.398-.132.722-.412.911-.787s.219-.801.087-1.198c-.132-.398-.411-.723-.786-.911-.101-.051-.206-.088-.313-.116-.628-1.867-2.034-4.896-4.442-4.645-.326-.613-.837-1.116-1.341-1.601-.033-.032-.06-.06-.093-.091.652-.653,1.361-1.257,2.131-1.776,2.018,1.019,4.263,1.578,6.542,1.623,2.271-.02,4.523-.573,6.543-1.607.558.376,1.082.797,1.578,1.247-.392.59-.928,1.12-1.596,1.57-.424-.38-.977-.618-1.59-.618-1.319,0-2.393,1.073-2.393,2.393s1.073,2.393,2.393,2.393,2.393-1.073,2.393-2.393c0-.127-.018-.249-.037-.37.802-.52,1.465-1.132,1.975-1.819,2.6,2.883,4.154,6.515,4.693,8.591-3.641,2.198-7.728,3.524-11.952,3.887ZM30.728,32.937c0,.438-.355.793-.793.793s-.793-.355-.793-.793.355-.793.793-.793.793.355.793.793Z"/>
  <path d="M29.233,39.858c-.599,0-1.085.487-1.085,1.086s.486,1.086,1.085,1.086,1.086-.487,1.086-1.086-.487-1.086-1.086-1.086Z"/>
  <path d="M29.934,37.777c0-.599-.487-1.085-1.086-1.085s-1.085.486-1.085,1.085.486,1.086,1.085,1.086,1.086-.487,1.086-1.086Z"/>
  <path d="M34.258,35.5c-.441,0-.8.358-.8.8v.519h-.519c-.441,0-.8.358-.8.8s.358.8.8.8h.519v.52c0,.441.358.8.8.8s.8-.358.8-.8v-.52h.52c.441,0,.8-.358.8-.8s-.358-.8-.8-.8h-.52v-.519c0-.441-.358-.8-.8-.8Z"/>
  <path d="M11.091,25.638c.064,0,.129-.008.193-.023.041-.011,4.125-1.006,8.133-.329.007.001.013-.002.019,0,1.631.976,3.53,1.548,5.564,1.548s3.939-.573,5.571-1.552c.004,0,.008.001.013,0,4.002-.677,8.092.319,8.132.33.058.014.115.021.172.021.244,0,.477-.125.635-.324.195-.245.217-.605.075-.885-1.652-3.257-2.482-4.892-3.695-9.172-.013-.048-.044-.084-.065-.127-.427-5.611-5.118-10.049-10.837-10.049s-10.412,4.44-10.837,10.053c-.021.043-.052.079-.065.127-1.215,4.285-2.046,5.923-3.721,9.22-.142.279-.107.615.087.86.154.193.386.302.626.302ZM15.721,15.954c0-.305.017-.606.046-.903,1.857-.141,7.179-1.067,9.87-6.791.744,1.966,2.748,4.77,8.168,4.78.305.918.476,1.895.476,2.914,0,5.117-4.163,9.279-9.279,9.279s-9.279-4.163-9.279-9.279ZM37.463,23.744c-1.147-.176-2.798-.343-4.609-.283,1.178-1.232,2.071-2.735,2.569-4.41.625,1.755,1.244,3.1,2.039,4.693ZM33.08,11.407c-4.843-.289-5.964-3.29-6.214-4.544,2.666.546,4.914,2.243,6.214,4.544ZM24.558,6.697c-2.063,5.44-6.541,6.53-8.479,6.733,1.064-3.755,4.434-6.541,8.479-6.733ZM14.577,19.054c.499,1.675,1.393,3.179,2.572,4.411-1.813-.061-3.464.107-4.612.283.792-1.585,1.412-2.93,2.04-4.694Z"/>
</svg>