<svg xmlns="http://www.w3.org/2000/svg" viewBox="0 0 50.46 50.46">
  <title>Iconos</title>
  <g>
    <path d="M11.69,31.48L10.6,23.12,24,21.37l0.3,2.29,1.74-2L24.54,10A8.38,8.38,0,0,0,15.16,2.8l-0.76.1a8.38,8.38,0,0,0-7.22,9.38L9.72,31.74a8.35,8.35,0,0,0,4.71,6.47l0.16,0.08,0-.18a11.17,11.17,0,0,1,.33-1.76l0-.09-0.08,0A6.34,6.34,0,0,1,11.69,31.48ZM10.34,21.15L9.15,12a6.39,6.39,0,0,1,5.51-7.16l0.76-.1a6.5,6.5,0,0,1,.83-0.05,6.39,6.39,0,0,1,6.32,5.56l1.19,9.13Z" fill="#00b5e4"/>
    <path d="M13.72,7.16a1,1,0,0,0-.75.13C11.11,8.46,10.42,10.38,10.9,13l0,0.11a1,1,0,0,0,.92.94H12a1,1,0,0,0,.86-0.92,1.84,1.84,0,0,0,0-.48C12.65,11.51,12.54,9.9,14,9A1,1,0,0,0,13.72,7.16Z" fill="#00b5e4"/>
    <path d="M44.42,18.42l-0.58-.5a8.38,8.38,0,0,0-11.8.95L19.32,33.82a8.38,8.38,0,0,0,.95,11.8l0.58,0.5a8.38,8.38,0,0,0,11.8-.95L45.37,30.22A8.38,8.38,0,0,0,44.42,18.42Zm-7.82,19-5.46,6.42a6.4,6.4,0,0,1-9,.72l-0.58-.5a6.39,6.39,0,0,1-.72-9l5.46-6.42Zm7.25-8.52-6,7L27.59,27.17l6-7a6.39,6.39,0,0,1,9-.72l0.58,0.5A6.39,6.39,0,0,1,43.86,28.94Z" fill="#00b5e4"/>
    <path d="M39.63,19.81c-2.11-.59-4,0.19-5.62,2.31l-0.07.09a1,1,0,0,0-.07,1.31L34,23.66a1,1,0,0,0,1.26,0,1.85,1.85,0,0,0,.33-0.36c0.7-.91,1.82-2.07,3.51-1.6A1,1,0,0,0,40.32,21,1,1,0,0,0,39.63,19.81Z" fill="#00b5e4"/>
  </g>
</svg>
