<?xml version="1.0" encoding="utf-8"?>
<!-- Generator: Adobe Illustrator 22.1.0, SVG Export Plug-In . SVG Version: 6.00 Build 0)  -->
<svg version="1.1" id="Layer_1" xmlns="http://www.w3.org/2000/svg" xmlns:xlink="http://www.w3.org/1999/xlink" x="0px" y="0px"
	 viewBox="0 0 50.5 50.5" style="enable-background:new 0 0 50.5 50.5;" xml:space="preserve">
<style type="text/css">
	.st0{fill:#12B5E1;}
</style>
<title>chat crecer</title>
<path class="st0" d="M25.5,2c-12.6-0.2-23,9.7-23.3,22.3c0,6.4,2.9,12.5,7.8,16.6v6.7c0,0.5,0.4,1,1,1c0.2,0,0.4-0.1,0.5-0.1
	l5.4-3.4c2.8,1.1,5.7,1.6,8.6,1.6c12.6,0.2,23-9.7,23.3-22.3C48.5,11.7,38,1.8,25.5,2z M40.7,19.2L29.1,30.8
	c-0.4,0.4-0.9,0.4-1.3,0.1l-6.3-5.4L11.4,31c-0.4,0.2-0.8,0.1-1.1-0.2c-0.4-0.4-0.4-1,0-1.4l11.6-11.6c0.4-0.4,0.9-0.4,1.3-0.1
	l6.3,5.4l10.1-5.5c0.4-0.2,1-0.1,1.2,0.3C41.1,18.3,41,18.8,40.7,19.2z"/>
</svg>
