<?xml version="1.0" encoding="utf-8"?>
<!-- Generator: Adobe Illustrator 27.9.6, SVG Export Plug-In . SVG Version: 9.03 Build 54986)  -->
<svg version="1.1" id="Layer_1" xmlns="http://www.w3.org/2000/svg" xmlns:xlink="http://www.w3.org/1999/xlink" x="0px" y="0px"
	 viewBox="0 0 50.5 50.5" style="enable-background:new 0 0 50.5 50.5;" xml:space="preserve">
<g>
	<path d="M6.5,22.8c0.5,0,0.9,0.1,1.2,0.5c0.3,0.3,0.4,0.7,0.4,1.2v3.2c0,0,0,0.1,0,0.1c0,0,0,0-0.1,0H7.1c0,0-0.1,0-0.1,0
		c0,0,0-0.1,0-0.1v-2.9c0-0.3-0.1-0.5-0.2-0.7c-0.2-0.2-0.4-0.3-0.6-0.3c-0.3,0-0.5,0.1-0.6,0.3c-0.2,0.2-0.2,0.4-0.2,0.7v3
		c0,0,0,0.1,0,0.1c0,0,0,0-0.1,0H4.2c0,0-0.1,0-0.1,0c0,0,0-0.1,0-0.1v-2.9c0-0.3-0.1-0.5-0.2-0.7s-0.4-0.3-0.6-0.3
		c-0.2,0-0.4,0.1-0.6,0.2c-0.2,0.1-0.2,0.3-0.3,0.6v3.1c0,0,0,0.1,0,0.1c0,0,0,0-0.1,0H1.4c0,0-0.1,0-0.1,0c0,0,0-0.1,0-0.1V23
		c0,0,0-0.1,0-0.1c0,0,0.1,0,0.1,0h0.9c0,0,0.1,0,0.1,0c0,0,0,0,0,0.1v0.3c0,0,0,0,0,0c0,0,0,0,0,0c0.1-0.2,0.3-0.3,0.5-0.4
		c0.2-0.1,0.4-0.1,0.7-0.1c0.3,0,0.6,0.1,0.8,0.2c0.2,0.1,0.4,0.3,0.5,0.6c0,0,0,0,0.1,0c0.1-0.3,0.3-0.4,0.6-0.6
		C5.9,22.8,6.2,22.8,6.5,22.8z M9.6,22.2c-0.2,0-0.4-0.1-0.5-0.2s-0.2-0.3-0.2-0.5c0-0.2,0.1-0.4,0.2-0.5c0.1-0.1,0.3-0.2,0.5-0.2
		S9.9,20.9,10,21c0.1,0.1,0.2,0.3,0.2,0.5S10.2,21.9,10,22C9.9,22.1,9.7,22.2,9.6,22.2z M9.1,27.8C9.1,27.8,9,27.8,9.1,27.8
		C9,27.7,9,27.7,9,27.7V23c0,0,0-0.1,0-0.1c0,0,0.1,0,0.1,0H10c0,0,0.1,0,0.1,0c0,0,0,0,0,0.1v4.7c0,0,0,0.1,0,0.1c0,0,0,0-0.1,0
		H9.1z"/>
	<path d="M15.3,27.8c-0.1,0-0.1,0-0.1-0.1l-0.3-1c0,0,0,0,0,0h-2.5c0,0,0,0,0,0l-0.3,1c0,0.1-0.1,0.1-0.1,0.1h-1c0,0-0.1,0-0.1,0
		c0,0,0-0.1,0-0.1l2.1-6.5c0-0.1,0.1-0.1,0.1-0.1h1.2c0.1,0,0.1,0,0.1,0.1l2.1,6.5c0,0,0,0,0,0c0,0.1,0,0.1-0.1,0.1
		C16.3,27.8,15.3,27.8,15.3,27.8z M12.6,25.7C12.6,25.7,12.6,25.7,12.6,25.7l2,0.1c0,0,0.1,0,0-0.1l-1-3.2c0,0,0,0,0,0c0,0,0,0,0,0
		L12.6,25.7z M19.3,22.8c0.2,0,0.4,0,0.5,0.1c0.1,0,0.1,0.1,0.1,0.1l-0.2,0.9c0,0.1-0.1,0.1-0.1,0.1c-0.1,0-0.2,0-0.3,0
		c-0.1,0-0.1,0-0.2,0c-0.3,0-0.5,0.1-0.7,0.3c-0.2,0.2-0.3,0.4-0.3,0.7v2.7c0,0,0,0.1,0,0.1c0,0,0,0-0.1,0h-0.9c0,0-0.1,0-0.1,0
		c0,0,0-0.1,0-0.1V23c0,0,0-0.1,0-0.1c0,0,0.1,0,0.1,0H18c0,0,0.1,0,0.1,0c0,0,0,0,0,0.1v0.4c0,0,0,0,0,0c0,0,0,0,0,0
		C18.4,23,18.8,22.8,19.3,22.8z M23.2,23C23.2,22.9,23.2,22.9,23.2,23c0.1-0.1,0.1-0.1,0.1-0.1h0.9c0,0,0.1,0,0.1,0c0,0,0,0,0,0.1
		v4.5c0,0.8-0.2,1.4-0.7,1.7c-0.5,0.3-1.1,0.5-1.8,0.5c-0.2,0-0.4,0-0.6,0c-0.1,0-0.1,0-0.1-0.1l0-0.8c0-0.1,0-0.1,0.1-0.1
		c0.2,0,0.4,0,0.5,0c0.5,0,0.8-0.1,1.1-0.3c0.2-0.2,0.3-0.5,0.3-0.9v-0.1c0,0,0,0,0,0c0,0,0,0,0,0c-0.3,0.3-0.6,0.4-1.1,0.4
		c-0.4,0-0.8-0.1-1.1-0.3c-0.3-0.2-0.6-0.5-0.7-1C20,26.2,20,25.8,20,25.3c0-0.5,0.1-0.9,0.2-1.2c0.1-0.4,0.3-0.7,0.7-0.9
		c0.3-0.2,0.7-0.4,1.1-0.4c0.5,0,0.9,0.1,1.2,0.4c0,0,0,0,0,0c0,0,0,0,0,0L23.2,23L23.2,23z M23.1,26.1c0-0.1,0-0.2,0-0.3
		c0-0.1,0-0.3,0-0.5c0-0.2,0-0.4,0-0.5c0-0.1,0-0.2-0.1-0.3c-0.1-0.2-0.2-0.4-0.3-0.5c-0.2-0.1-0.4-0.2-0.6-0.2
		c-0.2,0-0.4,0.1-0.6,0.2s-0.3,0.3-0.3,0.5c-0.1,0.2-0.1,0.5-0.1,0.8c0,0.4,0,0.7,0.1,0.8c0.1,0.2,0.2,0.4,0.3,0.5
		c0.2,0.1,0.4,0.2,0.6,0.2c0.2,0,0.5-0.1,0.6-0.2C22.9,26.5,23,26.3,23.1,26.1z M29.3,24.8c0,0.2,0,0.3,0,0.5l0,0.3
		c0,0.1,0,0.1-0.1,0.1h-3c0,0,0,0,0,0c0,0.2,0,0.4,0.1,0.4c0.2,0.5,0.5,0.7,1.1,0.7c0.4,0,0.8-0.2,1-0.5c0,0,0.1-0.1,0.1-0.1
		c0,0,0,0,0.1,0l0.6,0.5c0.1,0,0.1,0.1,0,0.2c-0.2,0.3-0.5,0.5-0.8,0.7c-0.3,0.2-0.7,0.2-1.1,0.2c-0.5,0-0.9-0.1-1.3-0.3
		c-0.3-0.2-0.6-0.5-0.8-0.9c-0.1-0.3-0.2-0.8-0.2-1.4c0-0.4,0-0.7,0.1-0.9c0.1-0.5,0.4-0.8,0.7-1.1c0.4-0.3,0.8-0.4,1.3-0.4
		C28.4,22.8,29.1,23.4,29.3,24.8z M27.1,23.8c-0.2,0-0.4,0.1-0.6,0.2c-0.2,0.1-0.3,0.3-0.3,0.5c0,0.1-0.1,0.2-0.1,0.4c0,0,0,0,0,0
		h1.9c0,0,0,0,0,0c0-0.2,0-0.3-0.1-0.4c-0.1-0.2-0.2-0.4-0.3-0.5C27.6,23.8,27.4,23.8,27.1,23.8z M32.4,22.8c0.5,0,0.9,0.2,1.2,0.5
		c0.3,0.3,0.5,0.7,0.5,1.3v3.1c0,0,0,0.1,0,0.1c0,0,0,0-0.1,0h-0.9c0,0-0.1,0-0.1,0c0,0,0-0.1,0-0.1v-2.9c0-0.3-0.1-0.5-0.2-0.7
		c-0.2-0.2-0.4-0.3-0.7-0.3c-0.3,0-0.5,0.1-0.7,0.3c-0.2,0.2-0.2,0.4-0.2,0.7v2.9c0,0,0,0.1,0,0.1c0,0,0,0-0.1,0h-0.9
		c0,0-0.1,0-0.1,0c0,0,0-0.1,0-0.1V23c0,0,0-0.1,0-0.1c0,0,0.1,0,0.1,0H31c0,0,0.1,0,0.1,0c0,0,0,0,0,0.1v0.3c0,0,0,0,0,0
		c0,0,0,0,0,0C31.5,23,31.9,22.8,32.4,22.8z M37.6,23.7C37.6,23.7,37.6,23.7,37.6,23.7c-0.1,0.1-0.1,0.1-0.1,0.1h-1c0,0,0,0,0,0v2.3
		c0,0.2,0.1,0.4,0.2,0.5c0.1,0.1,0.3,0.2,0.5,0.2h0.3c0,0,0.1,0,0.1,0c0,0,0,0,0,0.1v0.7c0,0.1,0,0.1-0.1,0.1l-0.5,0
		c-0.5,0-0.9-0.1-1.1-0.3c-0.2-0.2-0.4-0.5-0.4-1v-2.7c0,0,0,0,0,0h-0.5c0,0-0.1,0-0.1,0c0,0,0-0.1,0-0.1V23c0,0,0-0.1,0-0.1
		c0,0,0.1,0,0.1,0h0.5c0,0,0,0,0,0v-1.1c0,0,0-0.1,0-0.1c0,0,0.1,0,0.1,0h0.8c0,0,0.1,0,0.1,0c0,0,0,0,0,0.1v1.1c0,0,0,0,0,0h1
		c0,0,0.1,0,0.1,0c0,0,0,0,0,0.1L37.6,23.7L37.6,23.7z M38.9,22.2c-0.2,0-0.4-0.1-0.5-0.2s-0.2-0.3-0.2-0.5c0-0.2,0.1-0.4,0.2-0.5
		c0.1-0.1,0.3-0.2,0.5-0.2c0.2,0,0.4,0.1,0.5,0.2c0.1,0.1,0.2,0.3,0.2,0.5s-0.1,0.4-0.2,0.5C39.3,22.1,39.1,22.2,38.9,22.2z
		 M38.4,27.8C38.4,27.8,38.4,27.8,38.4,27.8c-0.1-0.1-0.1-0.1-0.1-0.1V23c0,0,0-0.1,0-0.1c0,0,0.1,0,0.1,0h0.9c0,0,0.1,0,0.1,0
		c0,0,0,0,0,0.1v4.7c0,0,0,0.1,0,0.1c0,0,0,0-0.1,0H38.4z M42.8,22.8c0.5,0,0.9,0.2,1.2,0.5c0.3,0.3,0.5,0.7,0.5,1.3v3.1
		c0,0,0,0.1,0,0.1c0,0,0,0-0.1,0h-0.9c0,0-0.1,0-0.1,0c0,0,0-0.1,0-0.1v-2.9c0-0.3-0.1-0.5-0.2-0.7c-0.2-0.2-0.4-0.3-0.7-0.3
		c-0.3,0-0.5,0.1-0.7,0.3c-0.2,0.2-0.2,0.4-0.2,0.7v2.9c0,0,0,0.1,0,0.1c0,0,0,0-0.1,0h-0.9c0,0-0.1,0-0.1,0c0,0,0-0.1,0-0.1V23
		c0,0,0-0.1,0-0.1c0,0,0.1,0,0.1,0h0.9c0,0,0.1,0,0.1,0c0,0,0,0,0,0.1v0.3c0,0,0,0,0,0c0,0,0,0,0,0C41.8,23,42.2,22.8,42.8,22.8z
		 M47.2,22.8c0.4,0,0.8,0.1,1.1,0.2c0.3,0.1,0.5,0.3,0.7,0.6c0.2,0.2,0.2,0.5,0.2,0.8v3.2c0,0,0,0.1,0,0.1c0,0,0,0-0.1,0h-0.9
		c0,0-0.1,0-0.1,0c0,0,0-0.1,0-0.1v-0.3c0,0,0,0,0,0c0,0,0,0,0,0c-0.3,0.3-0.8,0.5-1.4,0.5c-0.5,0-0.9-0.1-1.2-0.4
		c-0.3-0.2-0.5-0.6-0.5-1.1c0-0.5,0.2-0.9,0.5-1.2c0.4-0.3,0.8-0.4,1.5-0.4h1c0,0,0,0,0,0v-0.2c0-0.3-0.1-0.4-0.2-0.6
		c-0.1-0.1-0.4-0.2-0.7-0.2c-0.2,0-0.4,0-0.6,0.1c-0.1,0.1-0.2,0.2-0.3,0.4c0,0.1-0.1,0.1-0.1,0.1l-0.9-0.1c0,0-0.1,0-0.1,0
		c0,0,0,0,0-0.1c0.1-0.4,0.3-0.7,0.6-1C46.2,22.9,46.7,22.8,47.2,22.8z M47,27c0.3,0,0.6-0.1,0.8-0.2c0.2-0.2,0.3-0.4,0.3-0.6v-0.5
		c0,0,0,0,0,0h-0.8c-0.3,0-0.6,0.1-0.8,0.2c-0.2,0.1-0.3,0.3-0.3,0.5c0,0.2,0.1,0.4,0.2,0.5C46.6,26.9,46.8,27,47,27z"/>
</g>
</svg>
