<?xml version="1.0" encoding="utf-8"?>
<!-- Generator: Adobe Illustrator 27.9.6, SVG Export Plug-In . SVG Version: 9.03 Build 54986)  -->
<svg version="1.1" id="Layer_1" xmlns="http://www.w3.org/2000/svg" xmlns:xlink="http://www.w3.org/1999/xlink" x="0px" y="0px"
	 viewBox="0 0 50.5 50.5" style="enable-background:new 0 0 50.5 50.5;" xml:space="preserve">
<path d="M33.2,18.7c1.1,1.2,1.7,2.9,1.7,5.1v13c0,0.1,0,0.2-0.1,0.3s-0.2,0.1-0.3,0.1h-3.6c-0.1,0-0.2,0-0.3-0.1
	c-0.1-0.1-0.1-0.2-0.1-0.3V24.7c0-1.2-0.3-2.2-1-2.9c-0.6-0.7-1.5-1.1-2.6-1.1c-1.1,0-2,0.4-2.6,1.1c-0.7,0.7-1,1.6-1,2.8v12.1
	c0,0.1,0,0.2-0.1,0.3c-0.1,0.1-0.2,0.1-0.3,0.1h-3.6c-0.1,0-0.2,0-0.3-0.1c-0.1-0.1-0.1-0.2-0.1-0.3V24.7c0-1.2-0.3-2.2-1-2.9
	c-0.7-0.7-1.5-1.1-2.6-1.1c-1,0-1.8,0.3-2.5,0.9c-0.6,0.6-1,1.4-1.1,2.4v12.8c0,0.1,0,0.2-0.1,0.3c-0.1,0.1-0.2,0.1-0.3,0.1H7.5
	c-0.1,0-0.2,0-0.3-0.1C7,37,7,36.9,7,36.8V17.6c0-0.1,0-0.2,0.1-0.3c0.1-0.1,0.2-0.1,0.3-0.1h3.6c0.1,0,0.2,0,0.3,0.1
	c0.1,0.1,0.1,0.2,0.1,0.3v1.3c0,0.1,0,0.1,0.1,0.2c0.1,0,0.1,0,0.2-0.1c0.6-0.7,1.3-1.3,2.1-1.6s1.8-0.5,2.8-0.5
	c1.3,0,2.4,0.3,3.4,0.8s1.7,1.3,2.2,2.3c0.1,0.1,0.2,0.1,0.3,0c0.6-1,1.4-1.8,2.4-2.3c1-0.5,2.2-0.7,3.4-0.7
	C30.5,16.9,32.1,17.5,33.2,18.7L33.2,18.7z"/>
<path d="M38.8,37.1c-0.1-0.1-0.1-0.2-0.1-0.3V17.6c0-0.1,0-0.2,0.1-0.3c0.1-0.1,0.2-0.1,0.3-0.1h3.6c0.1,0,0.2,0,0.3,0.1
	c0.1,0.1,0.1,0.2,0.1,0.3v19.2c0,0.1,0,0.2-0.1,0.3c-0.1,0.1-0.2,0.1-0.3,0.1h-3.6C39,37.2,38.9,37.2,38.8,37.1z"/>
<circle cx="40.9" cy="11.8" r="2.6"/>
</svg>
