<svg id="b4a7f257-85f2-40c3-91f6-5c0534ae003b" data-name="stroke 1,6" xmlns="http://www.w3.org/2000/svg" viewBox="0 0 50.46 50.46"><path d="M13.185,41.792c-.517-.514-.507-.787.053-1.267,1.137-.976,2.271-1.955,3.419-2.919a2.313,2.313,0,0,1,.708-.406c2.041-.732,4.09-1.44,6.127-2.179a1.5,1.5,0,0,0,.658-.47c1.028-1.279,2.021-2.586,3.048-3.865a1.878,1.878,0,0,1,.725-.547c1.847-.785,3.7-1.548,5.561-2.3a.861.861,0,0,0,.5-.559q.77-2.671,1.574-5.332a4.222,4.222,0,0,1,.354-.841q1.095-1.982,2.22-3.949a2.013,2.013,0,0,1,.519-.595c.679-.519,1.377-1.013,2.073-1.511.51-.366.754-.325,1.152.175V40.887a.9.9,0,0,1-.9.905Zm12.421-7.028c.195.015.309.029.423.031,1.977.024,3.954.061,5.931.06a1.488,1.488,0,0,1,1.122.508c1.45,1.66,2.92,3.3,4.388,4.947a.6.6,0,0,0,.347.227c.927.019,1.854.01,2.787.01v-8.7c-.655,0-1.281-.021-1.905,0a1.622,1.622,0,0,1-1.1-.355c-.991-.808-2.007-1.584-3-2.395a.572.572,0,0,0-.674-.094c-1.824.764-3.654,1.514-5.479,2.275a.661.661,0,0,0-.271.2C27.33,32.55,26.5,33.624,25.606,34.764ZM35.969,40.53c-1.3-1.464-2.536-2.862-3.788-4.244a.7.7,0,0,0-.473-.156q-3.529-.047-7.06-.065a1.468,1.468,0,0,0-.492.081c-1.772.619-3.529,1.281-5.313,1.862a6.052,6.052,0,0,0-2.28,1.329c-.421.4-.877.758-1.383,1.193ZM40.612,30.6V16.687a5.134,5.134,0,0,0-1.684,1.586c-.6,1.185-1.29,2.321-1.936,3.482a2.468,2.468,0,0,0-.2.489c-.529,1.78-1.047,3.564-1.584,5.342a.494.494,0,0,0,.171.533c.987.766,1.96,1.55,2.945,2.318a.836.836,0,0,0,.424.153C39.353,30.605,39.963,30.6,40.612,30.6Z"/><path d="M14.928,8.252a13.661,13.661,0,0,1,5.52,1.509c.572.273,1.131.576,1.692.873a2.667,2.667,0,0,0,1.459.525,1.816,1.816,0,0,1,1.027.447c.806.6,1.574,1.253,2.357,1.884a1.888,1.888,0,0,1,.721,1.23,1.108,1.108,0,0,0,.3.518,20.434,20.434,0,0,1,3.5,4.892,8.322,8.322,0,0,1,.968,3.963,4.544,4.544,0,0,1-.714,2.346A.619.619,0,0,1,30.6,26.4a20.608,20.608,0,0,0-4.242-5.319c-.568-.562-1.154-1.106-1.737-1.653a.909.909,0,0,0-1.295.086q-5.462,6.774-10.922,13.55A2.466,2.466,0,1,1,8.44,30.15q5.43-6.741,10.878-13.47a1.02,1.02,0,0,0,.287-1.141.73.73,0,0,0-.187-.316,35.083,35.083,0,0,0-6.536-3.9,15.83,15.83,0,0,0-1.554-.506c-.676-.2-.826-.738-.315-1.221A5.428,5.428,0,0,1,14.928,8.252ZM20.61,17.09c-.122.144-.227.266-.328.39q-4.152,5.148-8.3,10.295c-.855,1.06-1.713,2.116-2.561,3.181a1.114,1.114,0,0,0,.123,1.684c.61.521,1.241.417,1.823-.3q4.263-5.285,8.525-10.571c.851-1.055,1.7-2.112,2.564-3.187ZM26.5,14.907a2.2,2.2,0,0,0-.311-.424q-1.162-.96-2.345-1.894a.552.552,0,0,0-.909.1Q22,13.841,21.07,15a.55.55,0,0,0,.071.884q1.181.972,2.379,1.922a.548.548,0,0,0,.852-.1c.632-.782,1.264-1.563,1.888-2.35A2.97,2.97,0,0,0,26.5,14.907Zm-6.361-.771,1.765-2.192c-.463-.253-.884-.5-1.318-.717a14.327,14.327,0,0,0-5.411-1.7,4.48,4.48,0,0,0-2.217.355c1.188.633,2.433,1.243,3.624,1.947S18.937,13.351,20.141,14.136ZM25.519,18.3c.994,1.05,1.98,2.051,2.918,3.1s1.807,2.115,2.753,3.23c.155-3.539-1.919-5.95-3.979-8.426Z"/></svg>