<?xml version="1.0" encoding="utf-8"?>
<!-- Generator: Adobe Illustrator 22.0.0, SVG Export Plug-In . SVG Version: 6.00 Build 0)  -->
<svg version="1.1" id="Layer_1" xmlns="http://www.w3.org/2000/svg" xmlns:xlink="http://www.w3.org/1999/xlink" x="0px" y="0px"
	 viewBox="0 0 50.46 50.46" style="enable-background:new 0 0 50.46 50.46;" xml:space="preserve">
<style type="text/css">
	.st0{fill:#FFFFFF;}
</style>
<g>
	<rect x="-5.54" y="-5.54" width="61.54" height="61.54"/>
	<g>
		<g>
			<path class="st0" d="M12.563,34.267c-0.023,0.017-0.046,0.028-0.074,0.028l0,0l0,0c-0.028,0-0.057-0.011-0.074-0.028
				c-0.12-0.108-2.997-2.661-3.436-3.59c-0.222-0.473-0.251-1.003-0.074-1.493c0.177-0.49,0.536-0.883,1.009-1.105
				c0.262-0.125,0.541-0.188,0.832-0.188c0.718,0,1.379,0.399,1.721,1.02c0.011,0.023,0.04,0.023,0.051,0
				c0.342-0.627,1.003-1.02,1.721-1.02l0,0c0.291,0,0.57,0.063,0.832,0.188c0.473,0.222,0.832,0.615,1.009,1.105
				c0.177,0.49,0.154,1.02-0.074,1.493C15.56,31.606,12.683,34.159,12.563,34.267L12.563,34.267z"/>
			<path class="st0" d="M37.886,34.267c0.023,0.017,0.046,0.028,0.074,0.028l0,0l0,0c0.028,0,0.057-0.011,0.074-0.028
				c0.12-0.108,2.997-2.661,3.436-3.59c0.222-0.473,0.251-1.003,0.074-1.493c-0.177-0.49-0.536-0.883-1.009-1.105
				c-0.262-0.125-0.541-0.188-0.832-0.188c-0.718,0-1.379,0.399-1.721,1.02c-0.011,0.023-0.04,0.023-0.051,0
				c-0.342-0.627-1.003-1.02-1.721-1.02l0,0c-0.291,0-0.57,0.063-0.832,0.188c-0.473,0.222-0.832,0.615-1.009,1.105
				c-0.177,0.49-0.154,1.02,0.074,1.493C34.888,31.606,37.766,34.159,37.886,34.267L37.886,34.267z"/>
			<path class="st0" d="M46.239,26.267L46.239,26.267c0-0.006-0.006-0.011-0.011-0.023c-0.165-0.313-0.348-0.615-0.547-0.906
				c-2.125-3.459-4.2-6.063-6.519-9.573c-3.02-4.576-7.128-6.843-10.94-4.074c-0.638,0.462-0.558,1.362-0.199,2.029
				c0.296,0.547,1.288,0.94,2.325,0.365c2.131-1.185,3.755-0.473,5.311,1.641c0.444,0.604,2.866,3.915,4.148,5.732
				c-0.598-0.12-1.214-0.182-1.846-0.182c-4.747,0-8.667,3.539-9.265,8.126h-6.94c-0.598-4.587-4.519-8.126-9.265-8.126
				c-0.632,0-1.248,0.063-1.846,0.182c1.282-1.818,3.704-5.128,4.148-5.732c1.561-2.114,3.185-2.821,5.311-1.641
				c1.037,0.576,2.023,0.188,2.325-0.365c0.365-0.667,0.439-1.567-0.199-2.029c-3.812-2.764-7.92-0.496-10.94,4.074
				c-2.319,3.51-4.388,6.114-6.519,9.573c-0.199,0.291-0.382,0.593-0.547,0.906C4.215,26.25,4.21,26.261,4.21,26.267h0.006
				c-0.684,1.299-1.077,2.781-1.077,4.353c0,5.163,4.188,9.351,9.351,9.351c4.638,0,8.485-3.373,9.22-7.801h7.043
				c0.735,4.427,4.581,7.801,9.22,7.801c5.163,0,9.351-4.188,9.351-9.351C47.316,29.042,46.923,27.566,46.239,26.267z
				 M12.483,37.225c-3.653,0-6.61-2.957-6.61-6.61s2.957-6.61,6.61-6.61s6.61,2.957,6.61,6.61S16.136,37.225,12.483,37.225z
				 M37.965,37.225c-3.653,0-6.61-2.957-6.61-6.61s2.957-6.61,6.61-6.61s6.61,2.957,6.61,6.61S41.618,37.225,37.965,37.225z"/>
		</g>
	</g>
</g>
</svg>
