<?xml version="1.0" encoding="utf-8"?>
<!-- Generator: Adobe Illustrator 22.0.0, SVG Export Plug-In . SVG Version: 6.00 Build 0)  -->
<svg version="1.1" id="Layer_1" xmlns="http://www.w3.org/2000/svg" xmlns:xlink="http://www.w3.org/1999/xlink" x="0px" y="0px"
	 viewBox="0 0 50.46 50.46" style="enable-background:new 0 0 50.46 50.46;" xml:space="preserve">
<g>
	<g>
		<path d="M12.574,34.261c-0.023,0.017-0.046,0.028-0.074,0.028l0,0l0,0c-0.028,0-0.057-0.011-0.074-0.028
			c-0.12-0.108-2.995-2.659-3.433-3.587c-0.222-0.473-0.25-1.002-0.074-1.492c0.176-0.49,0.535-0.882,1.008-1.104
			c0.262-0.125,0.541-0.188,0.831-0.188c0.717,0,1.378,0.399,1.719,1.019c0.011,0.023,0.04,0.023,0.051,0
			c0.342-0.626,1.002-1.019,1.719-1.019l0,0c0.29,0,0.569,0.063,0.831,0.188c0.473,0.222,0.831,0.615,1.008,1.104
			c0.176,0.49,0.154,1.019-0.074,1.492C15.569,31.602,12.694,34.153,12.574,34.261L12.574,34.261z"/>
		<path d="M37.874,34.261c0.023,0.017,0.046,0.028,0.074,0.028l0,0l0,0c0.028,0,0.057-0.011,0.074-0.028
			c0.12-0.108,2.995-2.659,3.433-3.587c0.222-0.473,0.25-1.002,0.074-1.492c-0.176-0.49-0.535-0.882-1.008-1.104
			c-0.262-0.125-0.541-0.188-0.831-0.188c-0.717,0-1.378,0.399-1.719,1.019c-0.011,0.023-0.04,0.023-0.051,0
			c-0.342-0.626-1.002-1.019-1.719-1.019l0,0c-0.29,0-0.569,0.063-0.831,0.188c-0.473,0.222-0.831,0.615-1.008,1.104
			c-0.176,0.49-0.154,1.019,0.074,1.492C34.88,31.602,37.755,34.153,37.874,34.261L37.874,34.261z"/>
		<path d="M46.221,26.268L46.221,26.268c0-0.006-0.006-0.011-0.011-0.023c-0.165-0.313-0.347-0.615-0.547-0.905
			c-2.124-3.456-4.196-6.057-6.513-9.564c-3.017-4.572-7.122-6.837-10.931-4.071c-0.638,0.461-0.558,1.361-0.199,2.027
			c0.296,0.547,1.287,0.939,2.323,0.364c2.129-1.184,3.752-0.473,5.306,1.64c0.444,0.603,2.864,3.911,4.145,5.727
			c-0.598-0.12-1.213-0.182-1.845-0.182c-4.742,0-8.659,3.535-9.257,8.118h-6.934c-0.598-4.583-4.515-8.118-9.257-8.118
			c-0.632,0-1.247,0.063-1.845,0.182c1.281-1.816,3.701-5.124,4.145-5.727c1.56-2.112,3.182-2.818,5.306-1.64
			c1.036,0.575,2.021,0.188,2.323-0.364c0.364-0.666,0.438-1.566-0.199-2.027c-3.809-2.761-7.913-0.495-10.931,4.071
			c-2.317,3.507-4.384,6.109-6.513,9.564c-0.199,0.29-0.381,0.592-0.547,0.905c-0.006,0.006-0.011,0.017-0.011,0.023h0.006
			c-0.683,1.298-1.076,2.778-1.076,4.35c0,5.158,4.184,9.342,9.342,9.342c4.634,0,8.477-3.37,9.211-7.794h7.037
			c0.734,4.424,4.577,7.794,9.211,7.794c5.158,0,9.342-4.184,9.342-9.342C47.297,29.041,46.904,27.566,46.221,26.268z
			 M12.494,37.216c-3.649,0-6.604-2.955-6.604-6.604s2.955-6.604,6.604-6.604s6.604,2.955,6.604,6.604S16.144,37.216,12.494,37.216z
			 M37.954,37.216c-3.649,0-6.604-2.955-6.604-6.604s2.955-6.604,6.604-6.604c3.649,0,6.604,2.955,6.604,6.604
			S41.603,37.216,37.954,37.216z"/>
	</g>
</g>
</svg>
