<?xml version="1.0" encoding="utf-8"?>
<!-- Generator: Adobe Illustrator 16.0.0, SVG Export Plug-In . SVG Version: 6.00 Build 0)  -->
<!DOCTYPE svg PUBLIC "-//W3C//DTD SVG 1.1//EN" "http://www.w3.org/Graphics/SVG/1.1/DTD/svg11.dtd">
<svg version="1.1" id="Layer_1" xmlns="http://www.w3.org/2000/svg" xmlns:xlink="http://www.w3.org/1999/xlink" x="0px" y="0px"
	 width="1366px" height="557px" viewBox="0 0 1366 557" enable-background="new 0 0 1366 557" xml:space="preserve">
<g>
	<path d="M761.608,117.731l-14.246,0.673c-11.368,0.511-33.597,33.272,4.502,33.921l21.393,3.759l3.99,17.541
		c13.086,0.858,20.094-2.854,21.717,10.742c-2.969,20.511-1.717,34.432-4.269,51.253c-2.32,15.639-10.487,23.341-27.75,67.495
		c-6.312,16.058-13.828,39.072-20.417,51.927l-62.994-1.159c-8.283-13.365-46.335-68.98-40.209-76.243
		c1.996-2.39,5.221-3.852,11.322-5.708c3.318-0.998,5.777-2.367,7.541-3.944c2.182-1.996,3.226-4.408,3.48-7.123
		c0.557-6.613-2.576-15.267-7.286-22.9c-9.351-15.105-18.376-17.82-34.106-23.853c-52.554-20.255-158.61-34.872-173.646-34.826
		c-16.056,0.093-18.005,13.109-26.798,16.845c-2.646,1.207-4.641,1.207-6.729,0.673c-9.28-2.181-20.533-6.543-29.86-9.49
		c-5.268-1.67-13.921-0.441-17.472,5.847c-2.574,4.547-1.577,19.652-0.186,25.035c3.829,14.501,13.712,25.453,0.743,47.124
		c-10.163,17.124-11.253,20.673-19.606,37.704l18.237,4.594c2.993,0.789,7.796-3.944,19.861-12.297
		c19.489-13.598,26.474-20.302,39.258-14.92l92.273,21.277c9.561,3.989,21.044,1.483,31.694,28.073l-33.597,11.275
		c20.812,21.718,39.211,78.006,33.504,94.434l45.847-10.303l28.19,25.431l188.006,4.548c-6.264-20.418-6.961-41.301-2.924-61.161
		c8.491-41.765,39.63-82.414,80.977-95.801c9.28-3.018,19.025-4.617,29.049-4.617c6.219,0,12.345,0.533,18.283,1.508
		c3.016-2.691,1.764-6.032-0.65-10.928c-6.172-12.577-21.253-30.65-36.938-48.308c-4.641-5.244-60.836-64.641-60.883-64.827
		c18.655-13.736,37.635-4.71,35.777-27.03c-7.563-12.738-20.093-35.871-28.816-40.302c-11.322-5.592-31.647-6.798-44.501-9.165
		l-3.48-0.487l-16.611-22.135c4.176-8.562,0.603-23.434-7.286-35.824c-1.624-2.622-3.294-5.081-6.312-4.571l-19.071,0.812
		c-2.971,0.534-4.642,3.318-4.501,6.311l5.149,31.091c0.187,3.04,3.435,5.035,6.404,4.548l6.543,0.255l4.13,18.283
		c-8.538,0.325-12.251,6.033-9.56,16.683L761.608,117.731z"/>
	<path d="M934.325,324.275c53.598,0,97.124,43.527,97.124,97.171c0,53.645-43.526,97.077-97.124,97.077
		c-53.644,0-97.124-43.527-97.124-97.077C837.201,367.804,880.728,324.275,934.325,324.275z"/>
	<path d="M431.675,331.33c53.667,0,97.124,43.526,97.124,97.123c0,53.645-43.504,97.125-97.124,97.125
		c-53.597,0-97.124-43.48-97.124-97.125C334.551,374.856,378.032,331.33,431.675,331.33z"/>
	<path fill="#FFFFFF" d="M934.325,371.794c27.379,0,49.605,22.182,49.605,49.652c0,27.378-22.181,49.561-49.605,49.561
		s-49.605-22.183-49.605-49.652C884.72,393.975,906.946,371.794,934.325,371.794"/>
	<path fill="#FFFFFF" d="M431.675,378.849c27.425,0,49.606,22.272,49.606,49.604c0,27.379-22.182,49.606-49.606,49.606
		c-27.402,0-49.605-22.182-49.605-49.606S404.32,378.849,431.675,378.849"/>
</g>
</svg>
