<?xml version="1.0" encoding="utf-8"?>
<!-- Generator: Adobe Illustrator 16.0.0, SVG Export Plug-In . SVG Version: 6.00 Build 0)  -->
<!DOCTYPE svg PUBLIC "-//W3C//DTD SVG 1.1//EN" "http://www.w3.org/Graphics/SVG/1.1/DTD/svg11.dtd">
<svg version="1.1" id="Layer_1" xmlns="http://www.w3.org/2000/svg" xmlns:xlink="http://www.w3.org/1999/xlink" x="0px" y="0px"
	 width="1366px" height="557px" viewBox="0 0 1366 557" enable-background="new 0 0 1366 557" xml:space="preserve">
<g>
	<path d="M975.113,273.525c61.121,0,110.715,49.547,110.715,110.692c0,18.574-4.575,36.051-12.674,51.4
		c-18.254,36.073-55.586,60.776-98.773,60.776c-61.168,0-110.76-49.547-110.76-110.69c0-18.551,4.62-36.027,12.672-51.377
		C894.547,298.252,931.926,273.525,975.113,273.525"/>
	<path d="M493.916,492.965c31.842-8.305,55.312-36.967,55.312-71.004c0-34.084-23.47-62.725-55.312-71.027
		c24.796,14.183,41.473,40.673,41.473,71.027C535.388,452.293,518.712,478.781,493.916,492.965z"/>
	<path d="M441.12,345.58c42.182,0,76.38,34.199,76.38,76.356c0,42.183-34.198,76.38-76.38,76.38
		c-42.158,0-76.356-34.197-76.356-76.38C364.764,379.779,398.962,345.58,441.12,345.58z"/>
	<path d="M741.011,309.896c8.052,0,14.595,6.563,14.595,14.639v55.678c0,6.566-2.607,12.994-7.137,17.637l-19.033,19.604
		c-4.209,4.324-11.619,7.458-17.657,7.458h-92.164c-8.075,0-14.617-6.565-14.617-14.617V382.64l-34.907,16.974
		c-14.479-46.002-56.089-79.994-106.048-83.195c-38.865-3.203-78.896,13.221-106.071,49.271l-24.225-17.521
		c1.487-2.127,3.043-4.232,4.667-6.268c36.439-42.525,92.23-60.024,140.887-52.545l0.687,19.993l68.625-0.848L741.011,309.896z"/>
	<path d="M852.457,359.877c-19.764-2.47-5.215-1.143-19.672-3.34v13.359v2.563v12.055H815.08c-0.412,6.429-2.059,14.045-6.68,19.375
		c-3.752,4.394-9.014,6.703-15.099,6.703c-5.627,0-10.34-1.897-14.045-5.627c-9.242-9.266-10.11-27.68-10.11-55.084
		c0-3.063,0.047-19.924,0.047-19.924c0-18.896-8.054-31.956-26.765-32.367l-252.607-5.559l-0.184-39.483l304.214,29.966l0.274,0.047
		c1.83,0.137,16.562,2.241,18.986,27.335h19.672v2.517v10.042c8.464-22.028,21.319-40.9,37.286-55.883l-140.818-3.477
		l-255.078-28.022l0.184,36.852c-39.803-6.039-76.997,4.461-112.773,27.038l-27.587-24.132l-18.277-1.167l0.252-14.571
		l-26.467-0.938l-1.121-115.519l16.218-11.804l190.8-0.114c10.683,14.663,13.542,20.382,25.849,33.42l141.756,0.16
		c12.444,2.905,15.875,0.435,18.3,17.591c48.679-34.838,132.949-66.109,164.929,5.193v-33.375c-0.229-2.905,1.234-5.787,3.979-7.183
		l12.993-6.68c3.567-1.83,8.006-0.411,9.836,3.18l10.385,20.245c2.105-8.349,7.504-15.898,15.189-21.891l-29.052-56.593
		c-21.502,0.046-33.215,11.574-36.782,15.807c0,2.036,0,4.392,0,4.392c0,4.026-3.248,7.32-7.274,7.32
		c-4.07,0-7.318-3.294-7.318-7.32v-6.931c0-1.487,0.41-2.905,1.233-4.118c0.504-0.709,9.196-12.878,26.992-19.444h-46.619
		c-8.051,0-14.639-6.542-14.639-14.617c0-8.075,6.588-14.617,14.639-14.617h54.535l-11.713-0.16
		c10.979,0.983,31.293-0.549,31.293,14.777c0,0.389-0.092,0.755-0.138,1.121l37.378,72.88c9.379-4.232,20.45-6.726,32.3-6.726
		v87.908c-14.596,0-27.999-3.683-38.521-9.882l5.581,10.935c1.83,3.568,0.412,8.006-3.155,9.836l-6.496,3.317l6.13,12.032
		c35.228-16.745,77.409-19.352,118.995-3.66c2.426,1.029,4.805,2.127,7.138,3.271c-11.758,25.62-1.51,5.536-11.3,26.169
		C946.153,232.99,864.443,277.78,852.457,359.877z"/>
	<path fill="#FFFFFF" d="M1014.688,405.834c-7.641,13.977-22.556,23.469-39.573,23.469c-24.89,0-45.064-20.176-45.064-45.086
		c0-6.977,1.603-13.61,4.438-19.513l0.229-0.458c7.641-14.045,22.555-23.605,39.665-23.605c24.842,0,45.064,20.176,45.064,45.063
		C1019.445,392.955,1017.706,399.771,1014.688,405.834z"/>
	<path fill="#FFFFFF" d="M441.12,382.912c21.571,0,39.024,17.477,39.024,39.024c0,21.549-17.453,39.024-39.024,39.024
		c-21.548,0-39.001-17.476-39.001-39.024C402.119,400.389,419.572,382.912,441.12,382.912z"/>
</g>
</svg>
