<?xml version="1.0" encoding="utf-8"?>
<!-- Generator: Adobe Illustrator 16.0.0, SVG Export Plug-In . SVG Version: 6.00 Build 0)  -->
<!DOCTYPE svg PUBLIC "-//W3C//DTD SVG 1.1//EN" "http://www.w3.org/Graphics/SVG/1.1/DTD/svg11.dtd">
<svg version="1.1" id="Layer_1" xmlns="http://www.w3.org/2000/svg" xmlns:xlink="http://www.w3.org/1999/xlink" x="0px" y="0px"
	 width="1366px" height="557px" viewBox="0 0 1366 557" enable-background="new 0 0 1366 557" xml:space="preserve">
<g>
	<path d="M426.013,284.929c63.39,0,114.731,51.411,114.731,114.708c0,63.39-51.389,114.825-114.731,114.825
		s-114.778-51.437-114.778-114.825S362.623,284.929,426.013,284.929"/>
	<path fill="#FFFFFF" d="M426.013,333.097c36.769,0,66.587,29.795,66.587,66.54c0,36.792-29.818,66.634-66.587,66.634
		s-66.564-29.842-66.564-66.634C359.448,362.892,389.244,333.097,426.013,333.097z"/>
	<path d="M427.772,168.02l-1.622,21.361c-15.546,1.46-27.408,1.182-42.422,1.182c-4.124,0-7.53,5.259-7.53,9.383l-0.811,15.847
		l-15.662,49.744c-2.316,5.491,31.139,4.981,43.418-1.9l40.013-22.358l126.734,35.819c25.138,9.128,13.901,21.13,6.58,21.87
		l-52.801,7.067c26.713,26.318,39.387,58.94,37.672,98.56l50.16-6.347l-16.891,63.807l176.802-3.754
		c22.844,0.186,38.783-1.575,31.647-25.485c-18.812-62.648-6.209-108.894,32.808-152.428l23.725,13.368l36.236-27.27l-1.482-26.158
		c6.348-1.229,62.648-10.727,69.135-12.441c9.453-2.548,8.248-8.896,8.248-16.357l-5.467-38.298
		c-5.562-42.375-9.176-45.156-40.963-69.552c-19.925-15.176-40.686-20.366-65.15-13.624c-3.337,0.951-4.354,0.139-6.486-1.181
		l-22.428-8.249c4.076-8.502-0.186-21.222-8.018-33.548c-1.621-2.525-3.289-4.981-6.256-4.472l-28.266,4.078
		c-2.92,0.579-4.634,3.267-4.447,6.325l7.229,28.081c0.14,2.988,3.336,4.981,6.255,4.448l6.72-0.648
		c3.613-0.672,17.887,12.279,22.705,27.941c-8.434,2.433-17.934,4.31-25.995,6.974c-4.772,1.622-8.759,3.707-8.664,6.649
		c0,3.892,3.892,10.333,8.153,15.268c3.014,3.568,5.47,5.468,8.063,6.742c7.321,3.661,19.925,7.321,28.08,10.241l-19.091,16.913
		c-33.55-29.054-80.813-35.772-110.19-30.235c-26.413,5.027-35.61,22.729-55.93,57.598
		C568.848,203.329,503.79,155.439,427.772,168.02"/>
	<path d="M940.035,284.929c63.343,0,114.73,51.411,114.73,114.708c0,63.39-51.389,114.825-114.73,114.825
		c-63.391,0-114.778-51.437-114.778-114.825S876.645,284.929,940.035,284.929"/>
	<path fill="#FFFFFF" d="M940.035,333.097c36.792,0,66.634,29.795,66.634,66.54c0,36.792-29.842,66.634-66.634,66.634
		s-66.54-29.749-66.54-66.634C873.495,362.892,903.243,333.097,940.035,333.097z"/>
</g>
</svg>
