<?xml version="1.0" encoding="utf-8"?>
<!-- Generator: Adobe Illustrator 18.0.0, SVG Export Plug-In . SVG Version: 6.00 Build 0)  -->
<!DOCTYPE svg PUBLIC "-//W3C//DTD SVG 1.1//EN" "http://www.w3.org/Graphics/SVG/1.1/DTD/svg11.dtd">
<svg version="1.1" id="Layer_1" xmlns="http://www.w3.org/2000/svg" xmlns:xlink="http://www.w3.org/1999/xlink" x="0px" y="0px"
	 viewBox="0 0 50.5 50.5" style="enable-background:new 0 0 50.5 50.5;" xml:space="preserve">
<style type="text/css">
	.st0{fill:#65B4E1;}
</style>
<path class="st0" d="M14.4,36c-0.2,0-0.3,0-0.5,0.1c-0.1,0.1-0.3,0.2-0.4,0.3c-0.1,0.1-0.1,0.1-0.2,0.2c-0.1,0.2-0.2,0.4-0.2,0.7
	c0,0.3,0.1,0.5,0.2,0.7c0,0.1,0.1,0.1,0.2,0.2c0.1,0.1,0.2,0.2,0.4,0.3s0.3,0.1,0.5,0.1H37c0.2,0,0.3,0,0.5-0.1
	c0.1-0.1,0.3-0.2,0.4-0.3C37.9,38,38,38,38,37.9c0.1-0.2,0.2-0.4,0.2-0.7c0-0.3-0.1-0.5-0.2-0.7c0-0.1-0.1-0.1-0.2-0.2
	c-0.1-0.1-0.2-0.2-0.4-0.3C37.3,36,37.2,36,37,36h-2.7h-3.1h-3.9h-3.1h-3.9h-3.1H14.4z"/>
<path class="st0" d="M39.3,18.2c0.1-0.3,0.1-0.6,0-0.9c-0.1-0.3-0.3-0.6-0.6-0.8L26.9,8.3C26.5,8.1,26.1,8,25.7,8
	c-0.4,0-0.8,0.1-1.1,0.3l-11.9,8.2c-0.1,0.1-0.3,0.2-0.4,0.4c-0.3,0.4-0.4,0.9-0.2,1.4c0.3,0.6,0.9,1,1.7,1h3.4h3.1h3.9h3.1h3.9h3.1
	h3.4c0.6,0,1.1-0.2,1.4-0.6C39.2,18.5,39.3,18.3,39.3,18.2z M25.7,16.1c-1.2,0-2.1-1-2.1-2.1s1-2.1,2.1-2.1s2.1,1,2.1,2.1
	S26.9,16.1,25.7,16.1z"/>
<rect x="17.2" y="20.9" class="st0" width="3.1" height="13.7"/>
<rect x="24.2" y="20.9" class="st0" width="3.1" height="13.7"/>
<rect x="31.2" y="20.9" class="st0" width="3.1" height="13.7"/>
<path class="st0" d="M9.2,41c0,0.7,0.6,1.2,1.2,1.2H41c0.7,0,1.2-0.6,1.2-1.2s-0.6-1.2-1.2-1.2H10.5C9.8,39.8,9.2,40.3,9.2,41z"/>
</svg>
