<svg id="ed47d3f9-3384-46b7-a20f-7727ae129314" data-name="fondo" xmlns="http://www.w3.org/2000/svg" viewBox="0 0 50.46 50.46"><path d="M44.052,11.248l-.1.063-.11.068c-.032.02-.065.041-.1.061l-.064.036-.035.019-.081.045c-.042.024-.087.049-.132.071l-.113.056-.073.035c-.044.023-.088.045-.131.065l-.13.056-.08.034-.1.043c-.052.022-.1.042-.189.073l-.055.02c-.036.015-.071.028-.093.035-.111.039-.225.076-.336.11-.172.052-.356.1-.56.147-.473.108-.942.181-1.346.241l-.142.02L40,12.558c-.231.035-.468.07-.7.111-2.458.426-3.884,1.356-4.77,3.111-.095.188-.177.388-.246.556l-.083.209-.013.032c-.085.21-.18.444-.283.669a4.4,4.4,0,0,1-.713,1.133,3.317,3.317,0,0,1-.246.243c-.047.041-.1.082-.15.126-.094.076-.193.151-.3.227-.251.178-.517.34-.73.47a8.631,8.631,0,0,0-.852.567,3.466,3.466,0,0,0-.286.252c-.043.042-.084.086-.121.129-.1.114-.2.238-.3.38-.167.228-.331.478-.5.738a9.526,9.526,0,0,1-1.073,1.435,3.476,3.476,0,0,1-1.353.9A3.287,3.287,0,0,1,26.63,24a4.507,4.507,0,0,1-.538.047h-.1c-.17,0-.352-.009-.554-.025A6.392,6.392,0,0,1,21.71,22.63a5.575,5.575,0,0,1-.561-.569,12.816,12.816,0,0,1-.937-1.257c-.065-.095-.134-.19-.2-.286a7.683,7.683,0,0,0-.841-1.066c-.052-.052-.106-.1-.156-.147a7.964,7.964,0,0,0-.693-.527c-.212-.15-.432-.3-.645-.481a7.007,7.007,0,0,1-1.124-1.192,18.065,18.065,0,0,1-1.361-2.2,8.078,8.078,0,0,0-2.536-3.226,8.335,8.335,0,0,0-1.864-.735c-.36-.111-.731-.226-1.1-.367-.139-.053-.265-.1-.392-.162-.1-.044-.2-.093-.295-.141-.031-.015-.063-.032-.075-.039L8.88,10.2c-.057-.03-.114-.061-.186-.1l-.068-.041-.048-.029c-.057-.033-.115-.067-.163-.1l-.082-.054L8.248,9.82l-.106-.072L8.05,9.68l-.04-.029c-.049-.035-.1-.071-.136-.1l-.1-.08-.03-.024c-.05-.04-.1-.08-.15-.125l-.088-.078L7.461,9.2c-.039-.036-.079-.072-.113-.105l-.117-.116A.8.8,0,0,1,7,8.4H6.313v2.429h0v5.061a.812.812,0,0,1,.145-.03h0a.885.885,0,0,1,.171.017,12.189,12.189,0,0,1,4.761,1.039c.065.029.133.049.2.078.215.1.424.2.63.309.3.162.6.341.881.528a18.961,18.961,0,0,1,2.973,2.518,1,1,0,0,1,.084.1,3.615,3.615,0,0,0,.263.3,5.387,5.387,0,0,0,.767.7c.342.26.714.5,1.1.753a6.811,6.811,0,0,1,2.952,2.946,3.088,3.088,0,0,0,.738,1.184,4.5,4.5,0,0,0,2.37.76c.042,0,.083.009.125.009h.028c.2.015.4.03.6.03a4.825,4.825,0,0,0,2.34-.471c.028-.017.056-.033.085-.048a6.7,6.7,0,0,0,1.421-.956c.395-.335.773-.7,1.16-1.082a19.362,19.362,0,0,1,1.58-1.432,7.067,7.067,0,0,1,2.741-1.382,25.643,25.643,0,0,0,6.6-3.2l.026-.016c.022-.018.045-.034.069-.05.226-.146.632-.376,1.1-.641.536-.3,1.2-.681,1.406-.83a.812.812,0,0,1,.482-.159h0V13.782h0V11.211C44.088,11.223,44.07,11.237,44.052,11.248Z"/><path d="M35.275,8.4h0l-9.9,13.761-.164.228-.2-.277L15.145,8.4H7.8l.007.007.016.016.082.081.117.108.027.023.036.033.017.015.026.023q.059.051.12.1l.036.03c.026.02.051.042.077.061s.079.061.119.09l.048.035c.025.018.048.037.073.053s.079.055.119.082l.06.04.037.024.017.012.016.01c.042.028.085.053.128.078l.065.039.061.037c.053.03.107.059.16.087l.05.027.05.027c.089.045.178.088.266.127.11.049.224.1.348.143.353.136.721.249,1.076.358a8.841,8.841,0,0,1,2.02.809,8.81,8.81,0,0,1,2.83,3.534,17.36,17.36,0,0,0,1.293,2.1A6.145,6.145,0,0,0,18.2,17.67c.194.161.4.309.608.453a8.515,8.515,0,0,1,.751.573c.065.058.131.12.2.184l.016.016a9.856,9.856,0,0,1,1.12,1.453,8.178,8.178,0,0,0,1.354,1.664A5.6,5.6,0,0,0,25.5,23.208c.177.015.338.023.488.023h.086A2.95,2.95,0,0,0,27,23.081a4.408,4.408,0,0,0,2.017-2.015c.168-.257.341-.522.525-.774.121-.165.234-.306.348-.436.051-.058.106-.117.163-.173a4.3,4.3,0,0,1,.349-.308,9.371,9.371,0,0,1,.934-.624c.229-.139.463-.282.685-.439.095-.067.18-.132.261-.2.042-.034.084-.069.124-.1a2.106,2.106,0,0,0,.178-.176,3.613,3.613,0,0,0,.579-.93c.1-.222.2-.457.28-.663l.082-.206c.081-.2.171-.414.275-.621,1-1.984,2.653-3.078,5.357-3.546.267-.046.538-.086.8-.126l.145-.021c.413-.061.853-.131,1.284-.229.183-.042.349-.085.5-.132.1-.03.2-.063.3-.1l.06-.022.078-.029c.052-.02.1-.038.156-.06l.021-.009.006,0,.013-.006.019-.008.021-.009.093-.04.116-.05c.031-.014.061-.029.091-.045l.092-.045.1-.049.1-.054.09-.049c.028-.017.058-.032.088-.049l.046-.028.022-.014.039-.024.084-.051.079-.049.116-.079.078-.053h0l.07-.047c.042-.03.084-.062.124-.093l.068-.051c.015-.01.029-.022.043-.032V8.4Z"/><path d="M41.555,19.182h0l0,.006c-.76.462-1.551.943-2.362,1.4a18.863,18.863,0,0,1-4.578,1.97c-2.943.721-4.114,3.4-6.54,4.686-.022.013-.046.024-.069.037-.046.024-.089.05-.135.073a5.527,5.527,0,0,1-2.779.6,5.976,5.976,0,0,1-3.664-1,3.8,3.8,0,0,1-.948-1.475A4.052,4.052,0,0,0,19.368,24c-.851-.749-1.94-1.294-2.853-2.026a5.718,5.718,0,0,1-.782-.742c-.084-.1-.165-.2-.241-.3-.3-.306-.614-.608-.933-.9-.061-.056-.123-.11-.185-.165a14.856,14.856,0,0,0-1.57-1.244,10.279,10.279,0,0,0-.9-.554c-.211-.115-.425-.223-.646-.32a11.356,11.356,0,0,0-4.745-1.048H6.5a.061.061,0,0,0-.04-.017c-.059,0-.1.131-.126.335-.119.877,0,3.263,0,4.138h0a.869.869,0,0,1,.176.018l.047.01.1.02.17.035.075.017.077.018.1.022.168.039.164.043.118.03.166.045c.053.014.106.029.154.044l.108.031.084.024.066.02.162.05.145.045.12.039.072.024.095.032.116.039.034.011.088.03.19.068.1.035.084.03.038.013.194.073.11.041.1.038c.085.032.168.065.248.1l.158.062.263.107.133.055.3.128.084.036.325.14.062.027c.477.209.943.422,1.4.629l.114.052c.78.357,1.586.726,2.371,1.146a14.707,14.707,0,0,1,2.329,1.5c.4.323.778.671,1.142,1.008l.032.029.317.294c.236.217.55.5.877.756a8.992,8.992,0,0,0,4.461,1.84c.1.012.2.021.295.029l.051,0,.043,0c.066,0,.13.01.2.013l.051,0,.066,0c.051,0,.1,0,.154,0h.177c.071,0,.142,0,.239,0h.02c.1,0,.191-.007.3-.014l.052,0,.038,0,.209-.017.1-.01c.064-.007.128-.015.222-.028l.035,0,.038,0c.085-.012.168-.025.26-.041l.03,0c.1-.016.191-.036.313-.061l.058-.013.051-.011.153-.036.1-.025.215-.058.073-.021c.089-.026.178-.053.273-.084l.021-.006c.081-.027.162-.056.244-.086l.061-.023.033-.013.214-.084.071-.03L29,29.349l.033-.015.014,0,.013-.007.012-.007L29.1,29.3c.091-.043.181-.087.266-.13a18.049,18.049,0,0,0,3.065-2.155,16.555,16.555,0,0,1,3.887-2.582c.137-.059.284-.116.459-.178l.03-.012a18.138,18.138,0,0,1,4.694-.812l2.546-.211.061,0V17.682C43.683,17.992,42.042,18.867,41.555,19.182Z"/><path d="M16.621,37.361l-.058-.039-.087-.06-.14-.095c-.061-.042-.12-.086-.177-.127l-.107-.078-.135-.1c-.059-.043-.117-.088-.172-.131l-.1-.08-.139-.109-.117-.095-.043-.035-.108-.09-.085-.07-.047-.039c-.054-.046-.106-.091-.15-.131l-.114-.1-.029-.024c-.034-.03-.069-.06-.1-.085l-.109-.1-.046-.043-.108-.1-.116-.108c-.071-.068-.141-.136-.209-.2l-.084-.084-.032-.031-.043-.043c-.122-.124-.241-.248-.358-.374l-.208-.226a7.731,7.731,0,0,0-.762-.763c-.035-.029-.071-.057-.106-.083a3.447,3.447,0,0,0-.832-.456c-.09-.036-.186-.07-.293-.1a7.328,7.328,0,0,0-1.275-.269c-.116-.015-.23-.028-.338-.039l-.111-.011-.254-.022-.1-.008c-.094-.006-.189-.013-.286-.018l-.059,0c-.119-.006-.237-.011-.356-.015H8.587l-.3-.008-.09,0-.257,0H7.554a16.577,16.577,0,0,0,9.553,9.275V37.522a.811.811,0,0,1-.456-.14Z"/><path d="M43.223,31.67l-.066.016h0l-.13.035-.146.042-.086.025-.129.039-.143.046-.086.028-.059.019-.045.015-.023.008-.133.047-.092.033-.061.022-.041.015-.023.008q-.068.024-.132.051l-.091.035-.063.025-.039.015-.02.008-.126.052-.092.038c-.042.017-.082.033-.122.051l-.118.052-.092.04-.122.054c-.038.017-.076.035-.113.054l-.094.043-.119.057c-.037.018-.074.035-.111.054l-.091.045L40.3,32.8h0l-.1.052-.1.049c-.038.019-.075.038-.111.058s-.071.037-.107.057l-.09.048-.1.056-.1.057-.093.052-.1.053c-.035.021-.071.041-.107.061l-.177.1-.143.084-.132.077c-.077.046-.154.091-.229.137l-.035.022-.257.156-.075.047a8.14,8.14,0,0,0-1.317.959c-.14.13-.274.273-.4.411a7.026,7.026,0,0,1-.6.584,5.641,5.641,0,0,1-1.095.676c-.125.063-.252.124-.38.184l-.063.029-.064.029c-.086.039-.171.079-.258.116l-.1.042-.109.045-.182.076-.112.044-.127.05-.115.045v4.776a16.758,16.758,0,0,0,9.7-9.639c.06-.155.115-.312.17-.469.031-.091.068-.18.1-.272Z"/><path d="M41.564,24.245l-.272.024A20.8,20.8,0,0,0,38,24.743c-.311.078-.621.161-.924.27l0,0h0c-.17.061-.311.115-.442.171a15.969,15.969,0,0,0-3.693,2.465A18.65,18.65,0,0,1,29.731,29.9c-.1.048-.191.094-.287.14l-.058.025-.03.014-.207.091-.1.041c-.07.029-.14.056-.21.083h0l-.032.013-.058.022c-.1.037-.2.072-.3.105l-.009,0c-.1.033-.2.063-.3.091l-.068.019-.033.01-.211.056-.113.028-.214.05-.03.006h0c-.024,0-.048.012-.072.016-.1.021-.207.042-.311.06l-.038.006c-.093.017-.185.031-.28.044h0l-.076.01-.033,0c-.072.009-.142.018-.214.025l-.117.012c-.073.007-.148.013-.221.018l-.037,0-.065,0c-.106.007-.213.012-.32.014H25.65c-.08,0-.159,0-.239,0h-.045l-.079,0h-.028c-.073,0-.147,0-.22-.007l-.116,0c-.074,0-.149-.009-.225-.014h0l-.036,0-.065,0c-.108-.009-.215-.019-.323-.032a9.8,9.8,0,0,1-4.862-2.007c-.34-.265-.661-.552-.928-.8l-.32-.3c-.363-.337-.738-.685-1.129-1a13.968,13.968,0,0,0-2.2-1.421c-.175-.093-.355-.178-.533-.267-.511-.257-1.024-.5-1.534-.736l-.288-.133c-.477-.218-.968-.443-1.471-.663l-.056-.024c-.107-.047-.215-.094-.324-.14l-.083-.036-.214-.09-.085-.036-.129-.053-.259-.106-.151-.06-.239-.094-.092-.034-.113-.042-.19-.071-.107-.038-.106-.038L8.675,22.6l-.116-.039-.114-.038-.171-.058-.124-.039-.121-.038-.158-.049L7.738,22.3l-.117-.034q-.078-.024-.156-.045l-.138-.037-.117-.03-.154-.04c-.047-.012-.095-.023-.142-.033L6.8,22.058l-.155-.035c-.047-.01-.093-.02-.142-.029l-.1-.021c-.029-.007-.059-.012-.088-.018v4.516c0,.135.01.278.013.417a.1.1,0,0,1,.017,0l.6-.017.085,0,.135,0h.082l.075,0h.732l.106,0,.089,0,.105,0,.117,0,.191.006.114.006.192.009.124.008.082.005.106.007.112.009.162.013.037,0,.117.012.06.006.133.014.1.011c.072.008.144.016.218.026l.105.014.212.031.071.012c.2.031.378.063.544.1.122.024.242.051.35.076l.053.011.158.039.12.03.1.024.039.01.131.037.12.034.04.011.1.029c.037.01.075.022.13.04l.106.033c.059.017.117.036.182.057l.109.037.112.039c.056.019.112.037.166.057l.121.045.124.046.04.015.108.04c.046.017.093.036.127.05l.117.046.156.063.034.014.085.035.137.059.072.031.061.025.13.059.111.05.141.063.1.048.037.017.107.051c.052.024.1.048.162.077l.11.054.117.057.107.053.055.027.054.028.055.028.118.06.177.091.033.017.069.036.106.057c.064.033.128.066.192.1l.2.108.12.066.088.048.139.077.122.068.121.068V27.515l.281.38,7.821,10.582,7.126-9.641.851-1.153.125-.168v4.537l.02-.016.1-.08.035-.029L33.5,31.9c.068-.055.135-.107.228-.18l.068-.053.082-.066.242-.183.06-.045c.033-.027.067-.052.088-.068l.265-.193.054-.037.041-.03.033-.024.232-.162.058-.041.1-.072c.1-.07.206-.14.3-.2l.095-.064c.109-.071.218-.141.326-.209l.085-.054c.113-.071.227-.14.336-.206l.073-.044c.124-.075.25-.149.375-.221l.04-.023c.133-.077.266-.152.424-.238.707-.388,1.439-.745,2.174-1.06.575-.246,1.18-.479,1.713-.685l.608-.236.463-.183.061-.026.054-.022.12-.049.082-.034.034-.014.065-.028.051-.022.1-.044.08-.034.062-.026.108-.048.094-.042.04-.018.118-.053c.028-.012.055-.025.09-.042l.1-.047.148-.07.1-.051.051-.023.057-.029h0l.033-.016a.816.816,0,0,1,.36-.084c.008,0,.015,0,.023,0V24.034Z"/><path d="M43.95,27.378v0h0c-.038.02-.078.04-.117.058s-.106.051-.159.075l-.086.042c-.037.018-.073.035-.112.052l-.156.07-.094.042-.11.048-.149.064-.106.045-.054.023h0l-.054.023-.141.059-.112.046-.112.046-.476.189L41.3,28.5c-.556.215-1.131.437-1.686.674-.712.306-1.417.65-2.1,1.023l-.007,0-.024.013-.013.007c-.124.068-.248.138-.371.209l-.04.023c-.121.07-.243.141-.364.213l-.065.04-.333.2-.077.05-.316.2-.09.061-.3.2-.1.068-.285.2c-.019.015-.039.028-.059.043l-.067.047c-.084.061-.169.122-.252.184-.024.017-.047.035-.07.053l-.07.053c-.078.059-.157.117-.234.177l-.07.056-.077.061-.221.174-.072.059-.09.073c-.067.055-.135.11-.2.165l-.077.065-.086.074c-.058.048-.115.1-.172.146v3.27l.048-.018.177-.075.109-.045.088-.037.246-.111.08-.037.036-.016c.123-.057.243-.116.363-.175A4.93,4.93,0,0,0,35.4,35.3a6.189,6.189,0,0,0,.525-.515c.141-.15.288-.3.439-.447a8.819,8.819,0,0,1,1.443-1.055l.084-.053.055-.034.207-.126.026-.015c.063-.039.127-.077.192-.115l.052-.032.128-.075.153-.089.17-.1.075-.043.037-.021.08-.045.032-.018.08-.044L39.3,32.4l.061-.033.047-.024.078-.042.121-.065.119-.061.109-.056.038-.02.045-.022.133-.067.083-.041.121-.059.132-.062.085-.04.127-.06.136-.061.1-.042.044-.02.06-.025c.047-.022.094-.041.147-.063l.089-.036.147-.061.047-.018.071-.028.082-.032c.051-.021.1-.041.163-.063l.044-.015.078-.028.108-.039.077-.027.053-.019.138-.045.085-.028.078-.026.09-.028.045-.014.082-.024.1-.029.065-.019.085-.024.143-.038.041-.009h0l.049-.014a.823.823,0,0,1,.187-.033h.056a.776.776,0,0,1,.215.044,16.564,16.564,0,0,0,.522-2.831c.015-.156.028-.313.039-.47.006-.092.018-.183.022-.274l-.032.016Z"/><path d="M16.737,30.324l-.263-.147-.141-.079-.2-.107-.2-.109-.177-.094-.114-.06-.1-.053c-.054-.029-.109-.057-.164-.084l-.122-.063-.1-.052L15,29.4l-.12-.059-.109-.054-.14-.065-.121-.058-.121-.056-.135-.061-.119-.054-.123-.055-.136-.058-.123-.052-.118-.05c-.045-.018-.09-.037-.136-.054l-.12-.048-.119-.047-.142-.053L13,28.531l-.074-.027-.037-.014-.008,0-.144-.049-.119-.041-.105-.036c-.05-.016-.1-.032-.148-.046l-.122-.038-.073-.023-.034-.01-.007,0-.133-.038-.124-.035-.115-.032-.118-.03-.129-.032-.048-.012-.036-.009-.051-.012-.052-.012c-.11-.025-.221-.05-.333-.072-.161-.033-.33-.063-.517-.093l-.073-.012-.191-.027-.1-.015h-.017l-.177-.021-.1-.012-.182-.018-.114-.012-.178-.014-.118-.009-.182-.012L8.916,27.7l-.185-.01-.109,0-.183-.006-.111,0-.2,0-.1,0-.194,0H7.452l-.2,0H7.162c-.066,0-.131,0-.2,0l-.6.017c.006.079.019.158.026.237.011.135.028.27.043.405a16.558,16.558,0,0,0,.626,3.008c.04.132.08.264.123.395.023.069.041.139.065.207l.278,0H7.94l.276,0,.088,0,.308.008.049,0,.367.015.06,0c.1.005.2.011.3.018l.108.009c.089.007.178.014.267.023l.107.01c.122.013.244.026.366.042a8.118,8.118,0,0,1,1.418.3l.009,0c.117.038.23.078.335.119a4.246,4.246,0,0,1,1.024.563c.047.035.092.07.136.107a8.457,8.457,0,0,1,.848.845c.066.073.133.147.2.219.1.108.207.218.314.327l.027.028h0l.07.069.082.082c.065.065.13.129.2.192l.046.043.028.026.029.027.111.1c.049.045.1.092.147.136l.115.1.114.1.142.123.121.1.113.094c.049.04.1.081.147.12l.124.1.112.086.155.119.128.094.11.079c.054.039.107.079.163.117s.088.061.132.091l.088.06.088.06h0V30.534l-.28-.158Z"/></svg>