<svg xmlns="http://www.w3.org/2000/svg" viewBox="0 0 50.46 50.46">
  <title>Iconos</title>
  <path d="M14.44,36a1.23,1.23,0,0,0-.48.1,1.25,1.25,0,0,0-.55.45,1.23,1.23,0,0,0,0,1.39,1.26,1.26,0,0,0,.55.45,1.23,1.23,0,0,0,.48.1H37a1.23,1.23,0,0,0,.48-0.1A1.26,1.26,0,0,0,38,37.89a1.23,1.23,0,0,0,0-1.39,1.25,1.25,0,0,0-.55-0.45A1.23,1.23,0,0,0,37,36H14.44Z" fill="#00b5e4"/>
  <path d="M39.34,18.19a1.32,1.32,0,0,0,0-.93,1.54,1.54,0,0,0-.6-0.78L26.87,8.3a2.06,2.06,0,0,0-2.27,0L12.67,16.48a1.66,1.66,0,0,0-.38.35,1.34,1.34,0,0,0-.19,1.35,1.81,1.81,0,0,0,1.7,1H37.63a1.93,1.93,0,0,0,1.44-.61A1.48,1.48,0,0,0,39.34,18.19ZM25.72,16.12A2.13,2.13,0,1,1,27.85,14,2.13,2.13,0,0,1,25.72,16.12Z" fill="#00b5e4"/>
  <rect x="17.16" y="20.88" width="3.11" height="13.66" fill="#00b5e4"/>
  <rect x="24.16" y="20.88" width="3.11" height="13.66" fill="#00b5e4"/>
  <rect x="31.17" y="20.88" width="3.11" height="13.66" fill="#00b5e4"/>
  <path d="M9.24,41a1.24,1.24,0,0,0,1.24,1.24H41a1.24,1.24,0,0,0,0-2.48H10.48A1.24,1.24,0,0,0,9.24,41Z" fill="#00b5e4"/>
</svg>
