<svg xmlns="http://www.w3.org/2000/svg" viewBox="0 0 50.46 50.46">
  <title>Iconos</title>
  <g>
    <g>
      <circle cx="34.19" cy="20.02" r="3.85" transform="translate(-5.07 14.65) rotate(-22.56)" fill="#00b5e4"/>
      <path d="M26.72,23.84a8.15,8.15,0,0,1,4.84,2.85l0.1,0.1,0,0c-5.23-7.3-9.15-11.93-13.46-12.17-2.27-.13-4.38.95-6.46,3.29a1.63,1.63,0,0,0,0,2.13l0.16,0.16a1.62,1.62,0,0,0,2.3-.14c1.37-1.55,2.63-2.27,3.84-2.2,1.84,0.1,4,1.94,6.44,4.84L22.65,24.3A7,7,0,0,1,23.46,24,7.64,7.64,0,0,1,26.72,23.84Z" fill="#00b5e4"/>
    </g>
    <g>
      <path d="M9.83,30.06c0.84-.89,1.36-1.39,2.46-1.39a2.39,2.39,0,0,1,1.65.62,7.35,7.35,0,0,1,.61.57,6.22,6.22,0,0,1,2.13-1.15l-0.24-.24a5.43,5.43,0,0,0-3.81-2.1l-0.34,0a5.32,5.32,0,0,0-4.15,2.12l-0.39.4a6.65,6.65,0,0,1,2,1.26Z" fill="#00b5e4"/>
      <path d="M36.2,30.14l0.07-.08c0.84-.89,1.36-1.39,2.46-1.39A2.9,2.9,0,0,1,41,29.87a6.23,6.23,0,0,1,2.12-1.16l-0.24-.24a5.33,5.33,0,0,0-4.16-2.12,5.14,5.14,0,0,0-.94.09,5.72,5.72,0,0,0-3.22,2l-0.4.4a6.59,6.59,0,0,1,2,1.21Z" fill="#00b5e4"/>
      <path d="M45.07,30h0a4.64,4.64,0,0,0-2.95,1,10,10,0,0,0-1.21,1.14l-0.47.48A5.13,5.13,0,0,1,40,33a2.36,2.36,0,0,1-1,.46,2.74,2.74,0,0,1-.6.06h0a2.42,2.42,0,0,1-1.71-.66h0A9.61,9.61,0,0,1,36,32.1c-0.22-.24-0.46-0.49-0.73-0.73l-0.19-.17A4.69,4.69,0,0,0,31.83,30h0a4.85,4.85,0,0,0-1.69.28,4.75,4.75,0,0,0-1.25.7,10,10,0,0,0-1.22,1.14l-0.47.48-0.13.13a2.61,2.61,0,0,1-1.3.73,2.83,2.83,0,0,1-.56.05h0a2.41,2.41,0,0,1-1.7-.66h0l-0.16-.12c-0.19-.18-0.39-0.38-0.6-0.61a12.38,12.38,0,0,0-.92-0.9,4.73,4.73,0,0,0-2.21-1.13,5.18,5.18,0,0,0-1-.1h0a4.63,4.63,0,0,0-2.94,1c-0.17.13-.33,0.26-0.48,0.4s-0.51.51-.74,0.75-0.32.32-.48,0.46a3.41,3.41,0,0,1-1.06.75,2.1,2.1,0,0,1-.21.09,2.66,2.66,0,0,1-.7.09h0a2.42,2.42,0,0,1-1.7-.66,9.58,9.58,0,0,1-.75-0.73,12.34,12.34,0,0,0-.93-0.91,4.83,4.83,0,0,0-2-1.06A4.93,4.93,0,0,0,5.39,30h0a1.16,1.16,0,0,0-1.16,1.16,1.14,1.14,0,0,0,.54,1,1.37,1.37,0,0,0,.29.15,1,1,0,0,0,.26,0H5.39a2.35,2.35,0,0,1,1.28.34h0a6,6,0,0,1,1.17,1l0.35,0.37h0A5,5,0,0,0,12,35.82h0.06a5.11,5.11,0,0,0,.92-0.1l0.3-.07a4.45,4.45,0,0,0,.6-0.2l0.18-.06h0A6.4,6.4,0,0,0,16,33.9h0l0.19-.2a5.72,5.72,0,0,1,1.22-1.07,2.31,2.31,0,0,1,.56-0.24,2.56,2.56,0,0,1,.68-0.08,2.34,2.34,0,0,1,1.45.46,7.05,7.05,0,0,1,1,.93l0.35,0.37a5,5,0,0,0,3.8,1.76,5.12,5.12,0,0,0,4-1.92h0l0.19-.2a7,7,0,0,1,1-.93A2.45,2.45,0,0,1,31,32.43a2.49,2.49,0,0,1,.8-0.12,2.35,2.35,0,0,1,1.24.32,5.69,5.69,0,0,1,1.23,1.07l0.35,0.36a8.6,8.6,0,0,0,.68.64,4.68,4.68,0,0,0,3.13,1.12h0a5.12,5.12,0,0,0,4-1.92l0.19-.2c0.84-.89,1.36-1.39,2.46-1.39a1.13,1.13,0,0,0,.52-0.14A1.22,1.22,0,0,0,45.85,32a1.18,1.18,0,0,0,.2-0.24,1.12,1.12,0,0,0,.18-0.61A1.16,1.16,0,0,0,45.07,30Z" fill="#00b5e4"/>
      <path d="M23,30.14l0.08-.08,0.44-.45a2.63,2.63,0,0,1,4,0l0.24,0.24,0.31-.24a6.08,6.08,0,0,1,1.81-.92l-0.24-.24a5.63,5.63,0,0,0-3.34-2.06,5.28,5.28,0,0,0-.82-0.06,5,5,0,0,0-1.35.18,6,6,0,0,0-2.8,1.94l-0.4.4a6.21,6.21,0,0,1,1.38.76A7.88,7.88,0,0,1,23,30.14Z" fill="#00b5e4"/>
    </g>
  </g>
</svg>
