<?xml version="1.0" encoding="utf-8"?>
<!-- Generator: Adobe Illustrator 25.4.1, SVG Export Plug-In . SVG Version: 6.00 Build 0)  -->
<svg version="1.1" id="Capa_3" xmlns="http://www.w3.org/2000/svg" xmlns:xlink="http://www.w3.org/1999/xlink" x="0px" y="0px"
	 viewBox="0 0 50.46 50.46" enable-background="new 0 0 50.46 50.46" xml:space="preserve">
<g>
	<rect x="10.84" y="15.685" width="2.655" height="1.161"/>
	<rect x="10.84" y="20.994" width="2.655" height="1.161"/>
	<rect x="14.656" y="20.994" width="2.655" height="1.161"/>
	<path d="M45.019,27.631v-0.068l1.371-2.374c0.08-0.139,0.123-0.297,0.123-0.458v0c0-0.506-0.41-0.916-0.916-0.916h-0.909v-1.493v0
		c0-0.641-0.52-1.161-1.161-1.161h0h-1.493v-1.659v0c0-0.641-0.52-1.161-1.161-1.161l0,0h-4.314h-1.161h-4.148h0
		c-0.641,0-1.161,0.52-1.161,1.161v0v1.659h-1.493h0c-0.641,0-1.161,0.52-1.161,1.161v0v1.493v1.161v1.493h-6.139v-4.314v-1.161
		v-1.493h0.747c0.321,0,0.581-0.26,0.581-0.581l0,0c0-0.321-0.26-0.581-0.581-0.581h-0.747h-1.161h-2.821v-1.493v-1.161v-1.493
		h0.581c0.321,0,0.581-0.26,0.581-0.581v0c0-0.321-0.26-0.581-0.581-0.581l-0.581,0H16.15H9.347h0c-0.641,0-1.161,0.52-1.161,1.161
		v0v4.148v1.161v4.314H4.889c-0.379,0-0.685,0.307-0.685,0.686l0,0c0,0.314,0.066,0.624,0.194,0.91l3.245,7.273L4.95,31.838
		c-0.329-0.103-0.679,0.084-0.738,0.424c-0.049,0.28,0.118,0.544,0.38,0.626l3.231,1.014c1.087,0.341,2.252,0.341,3.338,0
		l1.95-0.612c1.087-0.341,2.252-0.341,3.338,0l1.95,0.612c1.087,0.341,2.252,0.341,3.338,0l1.95-0.612
		c1.087-0.341,2.252-0.341,3.338,0l1.95,0.612c1.087,0.341,2.252,0.341,3.338,0l1.95-0.612c1.087-0.341,2.252-0.341,3.338,0
		l1.95,0.612c1.087,0.341,2.252,0.341,3.338,0l3.203-1.005c0.226-0.071,0.425-0.324,0.416-0.561
		c-0.015-0.362-0.37-0.615-0.719-0.505l-2.899,0.91c-0.322,0.101-0.652,0.169-0.984,0.21l3.071-5.319H45.019z M43.525,23.815h-4.148
		v-1.493h4.148V23.815z M38.216,22.322v1.493h-4.48v-1.493H38.216z M40.871,19.501v1.659h-1.493h-1.161h-1.659v-1.659H40.871z
		 M31.248,19.501h4.148v1.659h-1.659h-1.161h-1.327V19.501z M28.593,22.322h3.982v1.493h-3.982V22.322z M28.593,24.976h3.982v1.493
		h-3.982V24.976z M9.347,14.192h6.802v1.493h-1.493v1.161h1.493v1.493H9.347V14.192z M9.347,19.501h10.784v1.493h-1.493v1.161h1.493
		v4.314h-7.466v-1.902c0-0.416-0.337-0.753-0.753-0.753h-0.409H9.347V19.501z M40.636,32.83c0,0-0.184,0.166-1.082-0.09l-1.95-0.612
		c-1.087-0.341-2.252-0.341-3.338,0l-1.95,0.612c-1.087,0.341-2.252,0.341-3.338,0l-1.95-0.612c-1.087-0.341-2.252-0.341-3.338,0
		l-1.95,0.612c-1.087,0.341-2.252,0.341-3.338,0l-1.95-0.612c-1.087-0.341-2.252-0.341-3.338,0l-1.95,0.612
		c-0.687,0.216-1.405,0.294-2.115,0.237l-3.57-8h6.028v1.493v0c0,0.641,0.52,1.161,1.161,1.161h0h7.466h1.161h6.139h1.161h3.982h0
		c0.641,0,1.161-0.52,1.161-1.161v0v-1.493h11.434l-0.862,1.493h-8.83c-0.321,0-0.581,0.26-0.581,0.581l0,0
		c0,0.321,0.26,0.581,0.581,0.581h8.16L40.636,32.83z"/>
	<path d="M45.792,35.103l-2.899,0.91c-1.087,0.341-2.252,0.341-3.338,0l-1.95-0.612c-1.087-0.341-2.252-0.341-3.338,0l-1.95,0.612
		c-1.087,0.341-2.252,0.341-3.338,0l-1.95-0.612c-1.087-0.341-2.252-0.341-3.338,0l-1.95,0.612c-1.087,0.341-2.252,0.341-3.338,0
		L16.45,35.4c-1.087-0.341-2.252-0.341-3.338,0l-1.95,0.612c-1.087,0.341-2.252,0.341-3.338,0l-2.899-0.91
		c-0.357-0.112-0.72,0.155-0.72,0.529c0,0.242,0.157,0.456,0.388,0.529l3.231,1.014c1.087,0.341,2.252,0.341,3.338,0l1.95-0.612
		c1.087-0.341,2.252-0.341,3.338,0l1.95,0.612c1.087,0.341,2.252,0.341,3.338,0l1.95-0.612c1.087-0.341,2.252-0.341,3.338,0
		l1.95,0.612c1.087,0.341,2.252,0.341,3.338,0l1.95-0.612c1.087-0.341,2.252-0.341,3.338,0l1.95,0.612
		c1.087,0.341,2.252,0.341,3.338,0l3.231-1.014c0.231-0.072,0.388-0.287,0.388-0.529C46.512,35.257,46.149,34.991,45.792,35.103z"/>
	<path d="M16.045,28.897c-0.394,0-0.713,0.319-0.713,0.713c0,0.394,0.319,0.713,0.713,0.713c0.394,0,0.713-0.319,0.713-0.713
		C16.758,29.216,16.439,28.897,16.045,28.897z"/>
	<path d="M18.7,28.897c-0.394,0-0.713,0.319-0.713,0.713c0,0.394,0.319,0.713,0.713,0.713c0.394,0,0.713-0.319,0.713-0.713
		C19.412,29.216,19.093,28.897,18.7,28.897z"/>
	<path d="M21.425,28.897c-0.394,0-0.713,0.319-0.713,0.713c0,0.394,0.319,0.713,0.713,0.713c0.394,0,0.713-0.319,0.713-0.713
		C22.138,29.216,21.819,28.897,21.425,28.897z"/>
	<path d="M24.08,28.897c-0.394,0-0.713,0.319-0.713,0.713c0,0.394,0.319,0.713,0.713,0.713c0.394,0,0.713-0.319,0.713-0.713
		C24.792,29.216,24.473,28.897,24.08,28.897z"/>
	<circle cx="26.685" cy="29.61" r="0.713"/>
	<circle cx="29.34" cy="29.61" r="0.713"/>
</g>
</svg>
