<svg id="Layer_1" data-name="Layer 1" xmlns="http://www.w3.org/2000/svg" viewBox="0 0 50.46 50.46"><defs><style>.cls-1{fill:#65b4e1;}</style></defs><title>notificaciones</title><path class="cls-1" d="M42.37,32.26c-2.13-1.56-2.84-6.67-3.35-10.4l0-.35a11,11,0,0,0-7.83-9.28,3.62,3.62,0,1,0-5.36,0,11,11,0,0,0-7.83,9.27l0,.35c-.51,3.73-1.22,8.84-3.35,10.4a6.26,6.26,0,0,0-2.45,6.93l.41,1.19H23.05a5.72,5.72,0,0,0,10.82,0H44.41l.41-1.19A6.26,6.26,0,0,0,42.37,32.26ZM28.46,8a1.86,1.86,0,1,1-1.86,1.86A1.86,1.86,0,0,1,28.46,8Zm0,34.52A4,4,0,0,1,25,40.38h7A4,4,0,0,1,28.46,42.49Zm14.7-3.87H13.77a4.47,4.47,0,0,1,1.82-4.94c2.81-2.05,3.5-7.52,4.1-11.93a9.08,9.08,0,0,1,8.64-8.12h.26a9.08,9.08,0,0,1,8.64,8.12c.23,1.69.48,3.53.85,5.27H35a.88.88,0,0,0,0,1.76h3.52a14.41,14.41,0,0,0,1,2.59H33.08a.88.88,0,0,0,0,1.76h7.5l.11,0a4.94,4.94,0,0,0,.64.57A4.47,4.47,0,0,1,43.16,38.62Z"/><path class="cls-1" d="M30.47,31.37h-.42a.88.88,0,1,0,0,1.76h.42a.88.88,0,0,0,0-1.76Z"/></svg>