<?xml version="1.0" encoding="utf-8"?>
<!-- Generator: Adobe Illustrator 22.1.0, SVG Export Plug-In . SVG Version: 6.00 Build 0)  -->
<svg version="1.1" id="Layer_1" xmlns="http://www.w3.org/2000/svg" xmlns:xlink="http://www.w3.org/1999/xlink" x="0px" y="0px"
	 viewBox="0 0 50.5 50.5" style="enable-background:new 0 0 50.5 50.5;" xml:space="preserve">
<style type="text/css">
	.st0{fill:#0EB5E3;}
	.st1{fill:#12B5E1;}
</style>
<title>nube seguridad</title>
<path class="st0" d="M105.9,5.4h-0.3V5.3c0-4.3-3.5-7.8-7.8-7.8c-2.2,0-4.3,0.9-5.8,2.6c-3.8-5.3-11.2-6.5-16.5-2.7
	c-3.1,2.2-4.9,5.8-4.9,9.6c0,0.4,0,0.9,0.1,1.3c-2.9,1.3-4.8,4.2-4.8,7.4c0.1,4.6,3.8,8.3,8.4,8.4h17.3v-1.8H74.3
	c-3.6-0.1-6.5-3-6.7-6.6c0-2.7,1.7-5.1,4.3-6c0.4-0.1,0.7-0.6,0.6-1c-0.1-0.6-0.1-1.2-0.2-1.7C72.3,1.6,76.7-3,82.2-3
	c3.7-0.1,7.2,2,8.9,5.2c0.2,0.3,0.5,0.5,0.8,0.5c0.3,0,0.6-0.2,0.8-0.4c1.8-2.8,5.5-3.6,8.3-1.8c1.7,1.1,2.8,3,2.8,5
	c0,0.3,0,0.6-0.1,0.9c0,0.3,0,0.5,0.2,0.7c0.2,0.2,0.4,0.3,0.7,0.3h0.5h0.1c0.2,0,0.4,0,0.6,0c4.2,0,7.5,3.4,7.5,7.5
	c-0.1,3.4-2.3,6.4-5.6,7.3V24c4.3-1,7.3-4.8,7.4-9.2C115.2,9.7,111,5.5,105.9,5.4C105.9,5.4,105.9,5.4,105.9,5.4z"/>
<g>
	<g>
		<path class="st1" d="M25.2,30.3c-1.3,0.3-2.2,1.4-2.2,2.7v8.4c0,0.7,0.5,1.2,1.2,1.2l0,0h10.3c0.7,0,1.2-0.6,1.2-1.2v-8.4
			c0-1.3-0.9-2.4-2.2-2.7v-2.5c-0.1-2.3-2.1-4.1-4.4-4c-2.2,0.1-3.9,1.8-4,4L25.2,30.3z M32.9,31.8c0.7,0,1.3,0.6,1.3,1.3l0,0v8.1
			h-9.7v-8.1c0-0.7,0.6-1.3,1.3-1.3L32.9,31.8z M26.8,27.8c0.1-1.4,1.3-2.5,2.7-2.4c1.3,0.1,2.3,1.1,2.4,2.4v2.4h-5.1V27.8z"/>
		<path class="st1" d="M28.7,36.2l-0.5,2c0,0.1,0,0.2,0.1,0.3c0.1,0.1,0.2,0.1,0.3,0.1h1.6c0.1,0,0.2-0.1,0.3-0.1
			c0.1-0.1,0.1-0.2,0.1-0.3l-0.5-2c0.6-0.4,0.8-1.2,0.4-1.8c-0.4-0.6-1.2-0.8-1.8-0.4s-0.8,1.2-0.4,1.8
			C28.4,35.9,28.6,36.1,28.7,36.2z"/>
	</g>
	<g>
		<path class="st0" d="M45.1,21.5c-1.6-1.6-3.8-2.6-6.1-2.6c-0.1-3.9-3.3-7.1-7.2-7.1c-2,0-3.8,0.8-5.2,2.2
			c-3.5-4.7-10.2-5.7-15-2.3c-3.2,2.3-4.9,6.1-4.5,10c-2.6,1.3-4.3,3.9-4.3,6.8c0.1,4.3,3.5,7.7,7.8,7.9h9.3c0.6,0,1.1-0.5,1.1-1.1
			c0-0.6-0.5-1.1-1.1-1.1h-9.3c-3.1-0.1-5.7-2.6-5.7-5.7c0-2.3,1.5-4.4,3.7-5.2c0.5-0.2,0.8-0.7,0.7-1.2c-0.9-4.7,2.1-9.4,6.9-10.3
			c3.8-0.8,7.7,1.1,9.5,4.5c0.2,0.3,0.5,0.5,0.9,0.5c0.4,0,0.7-0.2,0.9-0.5c1.5-2.4,4.7-3.1,7.1-1.6c1.5,0.9,2.4,2.5,2.4,4.3
			c0,0.3,0,0.5-0.1,0.8c0,0.3,0,0.6,0.2,0.9c0.2,0.2,0.5,0.4,0.8,0.4H39c3.6,0,6.5,2.9,6.5,6.5c-0.1,3.7-3.1,6.6-6.8,6.6h-0.3
			c-0.6,0-1,0.5-1,1s0.5,1,1,1h0.3c4.9,0,8.8-3.9,8.9-8.8C47.7,25.3,46.8,23.1,45.1,21.5z"/>
	</g>
</g>
</svg>
