<?xml version="1.0" encoding="UTF-8"?>
<svg id="Layer_1" xmlns="http://www.w3.org/2000/svg" version="1.1" xmlns:xlink="http://www.w3.org/1999/xlink" viewBox="0 0 50.5 50.5">
  <!-- Generator: Adobe Illustrator 29.3.1, SVG Export Plug-In . SVG Version: 2.1.0 Build 151)  -->
  <path d="M44.507,12.778c-.241-.371-.735-.476-1.106-.235s-.476.736-.235,1.106c1.519,2.34.143,6.254-3.156,10.354-1.302-1.441-2.817-2.876-4.521-4.269-.311-2.847-.86-5.469-1.599-7.769,1.521-.314,2.94-.464,4.206-.429.271,1.003,1.18,1.746,2.268,1.746,1.301,0,2.358-1.058,2.358-2.359s-1.058-2.358-2.358-2.358c-.952,0-1.768.569-2.141,1.382-1.477-.049-3.115.113-4.869.488-1.908-4.97-4.782-8.084-8.051-8.084s-6.147,3.118-8.056,8.094c-.399-.085-.801-.174-1.191-.238-4.829-.795-8.366.118-9.958,2.571-.415.638-.685,1.367-.802,2.165-.064.437.238.844.675.908.439.064.844-.237.908-.675.084-.569.272-1.083.561-1.527,1.207-1.859,4.253-2.537,8.357-1.863.3.049.61.121.916.184-.738,2.299-1.286,4.92-1.597,7.765-1.711,1.399-3.231,2.84-4.537,4.288-.692-.863-1.302-1.723-1.819-2.572.298-.395.482-.881.482-1.413,0-1.301-1.058-2.359-2.358-2.359s-2.359,1.058-2.359,2.359,1.058,2.358,2.359,2.358c.186,0,.365-.027.539-.068.594.967,1.295,1.945,2.095,2.922-3.904,4.776-5.381,9.452-3.42,12.472,1.218,1.875,3.572,2.851,6.772,2.851.985,0,2.05-.093,3.187-.279.39-.064.791-.153,1.191-.238,1.908,4.976,4.784,8.094,8.055,8.094.544,0,1.088-.087,1.618-.259.42-.137.65-.588.514-1.008-.136-.42-.588-.647-1.008-.514-.369.12-.747.181-1.124.181-2.521,0-4.836-2.676-6.47-6.879,2.093-.567,4.277-1.378,6.484-2.43,2.236,1.065,4.417,1.893,6.468,2.448-.279.71-.58,1.378-.9,2-.098-.012-.195-.03-.296-.03-1.301,0-2.358,1.059-2.358,2.359s1.058,2.358,2.358,2.358,2.358-1.058,2.358-2.358c0-.624-.247-1.188-.644-1.61.373-.728.72-1.513,1.039-2.347,1.552.33,3.021.512,4.354.512,3.136,0,5.563-.927,6.812-2.851,1.961-3.02.484-7.695-3.42-12.472,3.904-4.776,5.381-9.452,3.42-12.472ZM38.954,25.25c-.968,1.085-2.067,2.172-3.272,3.238.068-1.063.104-2.144.104-3.238,0-1.102-.036-2.181-.102-3.237,1.205,1.066,2.303,2.152,3.271,3.236ZM16.418,25.25c0-1.606.081-3.175.23-4.691,1.194-.953,2.464-1.882,3.816-2.76,1.6-1.039,3.226-1.957,4.841-2.756,1.615.803,3.238,1.718,4.836,2.756,1.352.878,2.622,1.806,3.815,2.759.149,1.515.23,3.085.23,4.691s-.078,3.168-.223,4.685c-1.196.955-2.468,1.886-3.822,2.765-1.596,1.037-3.217,1.951-4.83,2.753-1.61-.796-3.237-1.708-4.847-2.753-1.344-.873-2.618-1.795-3.814-2.746-.149-1.52-.231-3.094-.231-4.705ZM33.681,18.327c-.857-.636-1.738-1.264-2.67-1.869-1.275-.828-2.568-1.588-3.862-2.274,1.774-.779,3.512-1.401,5.158-1.844.584,1.8,1.051,3.819,1.374,5.987ZM25.302,3.951c2.519,0,4.832,2.673,6.467,6.872-2.061.561-4.241,1.382-6.457,2.435-2.206-1.05-4.389-1.861-6.481-2.428,1.635-4.204,3.95-6.88,6.471-6.88ZM18.295,12.342c1.672.445,3.409,1.064,5.176,1.842-1.294.685-2.593,1.439-3.879,2.274-.932.605-1.813,1.233-2.67,1.869.322-2.168.79-4.185,1.373-5.985ZM14.921,22.013c-.066,1.056-.102,2.135-.102,3.237,0,1.111.037,2.2.104,3.265-1.209-1.063-2.313-2.151-3.29-3.246.972-1.091,2.076-2.183,3.288-3.256ZM15.796,38.714c-4.105.673-7.15-.005-8.357-1.863-1.52-2.34-.143-6.255,3.156-10.356,1.317,1.457,2.835,2.898,4.52,4.279.311,2.842.859,5.46,1.596,7.757-.306.062-.617.134-.916.184ZM18.295,38.158c-.582-1.797-1.049-3.812-1.371-5.976.859.639,1.747,1.262,2.669,1.86,1.299.844,2.597,1.585,3.887,2.27-1.769.78-3.51,1.4-5.184,1.845ZM27.155,36.314c1.292-.686,2.583-1.445,3.857-2.272.936-.608,1.821-1.239,2.682-1.878-.315,2.161-.776,4.179-1.364,5.99-1.646-.441-3.386-1.057-5.174-1.84ZM43.165,36.851c-1.371,2.112-4.876,2.586-9.284,1.672.743-2.321,1.285-4.947,1.597-7.748,1.708-1.396,3.226-2.834,4.531-4.278,3.298,4.1,4.675,8.014,3.156,10.354Z"/>
  <circle cx="25.25" cy="25.25" r="4.496"/>
</svg>
