<svg xmlns="http://www.w3.org/2000/svg" viewBox="0 0 50.46 50.46">
  <title>Iconos</title>
  <path d="M35.28,19.51c0.32-.91.59-1.78,0.79-2.62C37,13.1,36.62,10.55,35,9.53s-4.09-.24-7.08,2.28a29.65,29.65,0,0,0-2.55,2.45,29.67,29.67,0,0,0-2.55-2.45c-3-2.51-5.44-3.3-7.08-2.28s-2,3.57-1.09,7.36c0.21,0.84.47,1.71,0.79,2.62C10.63,20.56,7.09,22.43,7.09,25s3.54,4.46,8.33,5.52c-1.63,4.61-1.92,8.61.29,10a3,3,0,0,0,1.59.44c1.49,0,3.35-.91,5.49-2.71a29.69,29.69,0,0,0,2.55-2.46,29.68,29.68,0,0,0,2.55,2.46C30,40,31.9,41,33.39,41A3,3,0,0,0,35,40.52c2.21-1.37,1.92-5.37.29-10C40,29.49,43.59,27.62,43.59,25S40.05,20.56,35.28,19.51ZM29,13.07c1.78-1.49,3.38-2.32,4.43-2.32a1.33,1.33,0,0,1,.71.18c0.92,0.57,1.06,2.7.36,5.56a27,27,0,0,1-.83,2.69,46.54,46.54,0,0,0-4.73-.56c-0.8-1.12-1.62-2.16-2.45-3.12A28.27,28.27,0,0,1,29,13.07ZM18.8,26.79c0.32,0.56.65,1.12,1,1.68,0.25,0.4.51,0.8,0.77,1.19-1-.1-2-0.22-2.89-0.38C18,28.48,18.38,27.65,18.8,26.79Zm0-3.52c-0.42-.85-0.79-1.68-1.13-2.5,0.92-.15,1.89-0.28,2.9-0.38-0.26.39-.52,0.79-0.77,1.19C19.46,22.13,19.12,22.7,18.8,23.27ZM19.72,25c0.46-.85,1-1.7,1.49-2.57s1-1.5,1.47-2.22c0.87,0,1.75-.08,2.66-0.08s1.8,0,2.66.08c0.5,0.72,1,1.45,1.47,2.22S30.5,24.18,31,25c-0.47.85-1,1.71-1.49,2.57s-1,1.5-1.47,2.22c-0.87,0-1.75.08-2.66,0.08s-1.8,0-2.66-.08c-0.5-.72-1-1.45-1.47-2.22S20.18,25.88,19.72,25Zm11.16,3.44c0.35-.56.68-1.12,1-1.68,0.42,0.86.79,1.69,1.13,2.49-0.91.15-1.88,0.28-2.89,0.38C30.37,29.27,30.63,28.87,30.88,28.47Zm0-6.89c-0.25-.4-0.51-0.8-0.77-1.19,1,0.1,2,.23,2.9.38-0.34.82-.72,1.65-1.13,2.5C31.56,22.7,31.23,22.13,30.88,21.58Zm-4.12-3.06-1.42,0-1.42,0c0.47-.62.94-1.21,1.42-1.77C25.82,17.32,26.29,17.9,26.76,18.52ZM16.58,10.94a1.33,1.33,0,0,1,.71-0.18c1,0,2.65.82,4.43,2.32a28.27,28.27,0,0,1,2.51,2.43c-0.83,1-1.65,2-2.45,3.12a46.55,46.55,0,0,0-4.73.56,27,27,0,0,1-.83-2.69C15.52,13.64,15.66,11.51,16.58,10.94ZM8.75,25c0-1.44,2.81-3,7.25-3.95,0.52,1.28,1.14,2.61,1.84,4C17.15,26.35,16.53,27.67,16,29,11.56,28,8.75,26.47,8.75,25Zm13,12c-2.25,1.89-4.22,2.71-5.14,2.14-1.23-.76-1.06-4,0.48-8.25a46.55,46.55,0,0,0,4.72.56c0.8,1.12,1.62,2.16,2.45,3.13A28.28,28.28,0,0,1,21.72,37Zm2.2-5.45,1.42,0,1.42,0c-0.47.62-.95,1.21-1.42,1.77C24.86,32.73,24.39,32.15,23.92,31.53ZM34.1,39.11c-0.92.57-2.89-.25-5.14-2.14a28.29,28.29,0,0,1-2.51-2.43c0.83-1,1.65-2,2.45-3.13a46.57,46.57,0,0,0,4.72-.56C35.16,35.14,35.33,38.35,34.1,39.11ZM34.67,29c-0.53-1.3-1.15-2.62-1.83-3.94,0.7-1.34,1.32-2.67,1.84-4,4.44,1,7.24,2.5,7.24,3.95S39.12,28,34.67,29Z" fill="#00b5e4"/>
  <circle cx="25.2" cy="25.25" r="3.02" fill="#00b5e4"/>
</svg>
