<?xml version="1.0" encoding="utf-8"?>
<!-- Generator: Adobe Illustrator 18.0.0, SVG Export Plug-In . SVG Version: 6.00 Build 0)  -->
<!DOCTYPE svg PUBLIC "-//W3C//DTD SVG 1.1//EN" "http://www.w3.org/Graphics/SVG/1.1/DTD/svg11.dtd">
<svg version="1.1" id="Layer_1" xmlns="http://www.w3.org/2000/svg" xmlns:xlink="http://www.w3.org/1999/xlink" x="0px" y="0px"
	 viewBox="0 0 50.5 50.5" style="enable-background:new 0 0 50.5 50.5;" xml:space="preserve">
<style type="text/css">
	.st0{fill:#65B4E1;}
</style>
<path class="st0" d="M35.3,19.5c0.3-0.9,0.6-1.8,0.8-2.6c0.9-3.8,0.6-6.3-1.1-7.4c-1.6-1-4.1-0.2-7.1,2.3c-0.8,0.7-1.7,1.5-2.6,2.5
	c-0.9-0.9-1.7-1.7-2.6-2.5c-3-2.5-5.4-3.3-7.1-2.3c-1.6,1-2,3.6-1.1,7.4c0.2,0.8,0.5,1.7,0.8,2.6c-4.8,1.1-8.3,2.9-8.3,5.5
	c0,2.6,3.5,4.5,8.3,5.5c-1.6,4.6-1.9,8.6,0.3,10c0.5,0.3,1,0.4,1.6,0.4c1.5,0,3.4-0.9,5.5-2.7c0.8-0.7,1.7-1.5,2.6-2.5
	c0.9,0.9,1.7,1.7,2.6,2.5c2.1,1.8,4,2.7,5.5,2.7c0.6,0,1.1-0.1,1.6-0.4c2.2-1.4,1.9-5.4,0.3-10c4.8-1.1,8.3-2.9,8.3-5.5
	C43.6,22.4,40.1,20.6,35.3,19.5z M29,13.1c1.8-1.5,3.4-2.3,4.4-2.3c0.3,0,0.5,0.1,0.7,0.2c0.9,0.6,1.1,2.7,0.4,5.6
	c-0.2,0.9-0.5,1.8-0.8,2.7c-1.5-0.3-3.1-0.4-4.7-0.6c-0.8-1.1-1.6-2.2-2.5-3.1C27.3,14.6,28.1,13.8,29,13.1z M18.8,26.8
	c0.3,0.6,0.7,1.1,1,1.7c0.3,0.4,0.5,0.8,0.8,1.2c-1-0.1-2-0.2-2.9-0.4C18,28.5,18.4,27.6,18.8,26.8z M18.8,23.3
	c-0.4-0.8-0.8-1.7-1.1-2.5c0.9-0.2,1.9-0.3,2.9-0.4c-0.3,0.4-0.5,0.8-0.8,1.2C19.5,22.1,19.1,22.7,18.8,23.3z M19.7,25
	c0.5-0.8,1-1.7,1.5-2.6c0.5-0.8,1-1.5,1.5-2.2c0.9,0,1.7-0.1,2.7-0.1c0.9,0,1.8,0,2.7,0.1c0.5,0.7,1,1.5,1.5,2.2
	c0.5,0.9,1,1.7,1.5,2.6c-0.5,0.9-1,1.7-1.5,2.6c-0.5,0.8-1,1.5-1.5,2.2c-0.9,0-1.7,0.1-2.7,0.1c-0.9,0-1.8,0-2.7-0.1
	c-0.5-0.7-1-1.5-1.5-2.2C20.7,26.7,20.2,25.9,19.7,25z M30.9,28.5c0.3-0.6,0.7-1.1,1-1.7c0.4,0.9,0.8,1.7,1.1,2.5
	c-0.9,0.2-1.9,0.3-2.9,0.4C30.4,29.3,30.6,28.9,30.9,28.5z M30.9,21.6c-0.3-0.4-0.5-0.8-0.8-1.2c1,0.1,2,0.2,2.9,0.4
	c-0.3,0.8-0.7,1.7-1.1,2.5C31.6,22.7,31.2,22.1,30.9,21.6z M26.8,18.5c-0.5,0-0.9,0-1.4,0c-0.5,0-0.9,0-1.4,0
	c0.5-0.6,0.9-1.2,1.4-1.8C25.8,17.3,26.3,17.9,26.8,18.5z M16.6,10.9c0.2-0.1,0.4-0.2,0.7-0.2c1,0,2.6,0.8,4.4,2.3
	c0.8,0.7,1.7,1.5,2.5,2.4c-0.8,1-1.7,2-2.5,3.1c-1.6,0.1-3.2,0.3-4.7,0.6c-0.3-0.9-0.6-1.8-0.8-2.7C15.5,13.6,15.7,11.5,16.6,10.9z
	 M8.7,25c0-1.4,2.8-3,7.2-3.9c0.5,1.3,1.1,2.6,1.8,4c-0.7,1.3-1.3,2.6-1.8,3.9C11.6,28,8.7,26.5,8.7,25z M21.7,37
	c-2.3,1.9-4.2,2.7-5.1,2.1c-1.2-0.8-1.1-4,0.5-8.2c1.5,0.3,3.1,0.4,4.7,0.6c0.8,1.1,1.6,2.2,2.5,3.1C23.4,35.5,22.5,36.3,21.7,37z
	 M23.9,31.5c0.5,0,0.9,0,1.4,0c0.5,0,0.9,0,1.4,0c-0.5,0.6-0.9,1.2-1.4,1.8C24.9,32.7,24.4,32.1,23.9,31.5z M34.1,39.1
	c-0.9,0.6-2.9-0.2-5.1-2.1c-0.8-0.7-1.7-1.5-2.5-2.4c0.8-1,1.7-2,2.5-3.1c1.6-0.1,3.2-0.3,4.7-0.6C35.2,35.1,35.3,38.3,34.1,39.1z
	 M34.7,29c-0.5-1.3-1.1-2.6-1.8-3.9c0.7-1.3,1.3-2.7,1.8-4c4.4,1,7.2,2.5,7.2,3.9C41.9,26.5,39.1,28,34.7,29z"/>
<circle class="st0" cx="25.2" cy="25.3" r="3"/>
</svg>
