<svg xmlns="http://www.w3.org/2000/svg" viewBox="0 0 50.46 50.46">
  <title>Iconos</title>
  <path d="M18.62,42.31H32.2a9.44,9.44,0,0,0,9.43-9.43V20l-2,2.24V32.88A7.43,7.43,0,0,1,32.2,40.3H18.62a7.43,7.43,0,0,1-7.42-7.42V19.3a7.43,7.43,0,0,1,7.42-7.42H32.2A7.37,7.37,0,0,1,36.12,13l1.55-1.38A9.37,9.37,0,0,0,32.2,9.87H18.62A9.44,9.44,0,0,0,9.19,19.3V32.88A9.44,9.44,0,0,0,18.62,42.31Z" fill="#00b5e4"/>
  <polygon points="25.37 25.01 18.38 17.97 14.47 21.42 25.54 35.17 25.54 35.17 25.54 35.17 39.62 19.5 41.45 17.46 45.3 13.16 42.16 10.12 39.07 12.86 37.57 14.19 25.37 25.01" fill="#00b5e4"/>
</svg>
