<?xml version="1.0" encoding="utf-8"?>
<!-- Generator: Adobe Illustrator 28.0.0, SVG Export Plug-In . SVG Version: 6.00 Build 0)  -->
<svg version="1.1" id="Layer_1" xmlns="http://www.w3.org/2000/svg" xmlns:xlink="http://www.w3.org/1999/xlink" x="0px" y="0px"
	 viewBox="0 0 50.5 50.5" style="enable-background:new 0 0 50.5 50.5;" xml:space="preserve">
<g>
	<path d="M25.175,14.882c2.15,0,3.892-1.743,3.892-3.892c0-2.15-1.743-3.892-3.892-3.892s-3.892,1.743-3.892,3.892
		C21.283,13.139,23.025,14.882,25.175,14.882z"/>
	<path d="M29.641,16.69c-0.363-0.324-0.832-0.502-1.318-0.502h-1.456l1.107,0.705c0.29,0.162,0.475,0.449,0.525,0.77
		c0.008,0.053,0.022,0.105,0.022,0.16c0,0.386-0.209,0.743-0.546,0.931l-1.242,0.696l0.624,0.742
		c0.241,0.287,0.314,0.679,0.193,1.033l-1.517,4.424v0.506c0,0.589-0.479,1.067-1.067,1.067s-1.067-0.478-1.067-1.067v-0.506
		l-1.517-4.424c-0.121-0.354-0.048-0.747,0.193-1.033L23.2,19.45l-1.242-0.696c-0.337-0.188-0.546-0.545-0.546-0.931
		c0-0.055,0.013-0.107,0.022-0.16c0.05-0.322,0.235-0.609,0.525-0.77l1.107-0.705h-5.621l-3.319-4.528
		c-0.183-0.25-0.417-0.437-0.674-0.573l2.709-7.114c0.108-0.429-0.151-0.863-0.58-0.971c-0.424-0.107-0.863,0.151-0.971,0.581
		l-2.782,7.404c-0.163,0.062-0.323,0.138-0.471,0.246c-0.883,0.647-1.073,1.886-0.427,2.769l3.913,5.338
		c0.373,0.509,0.967,0.81,1.598,0.81h4.606v8.508c-0.002,0.021-0.009,0.041-0.011,0.063l-1.191,17.192
		c-0.076,1.091,0.747,2.037,1.839,2.112c0.047,0.004,0.093,0.005,0.139,0.005c1.031,0,1.901-0.799,1.974-1.844l1.126-16.25h0.485
		l1.138,16.168c0.073,1.044,0.943,1.842,1.974,1.842c0.047,0,0.094-0.001,0.141-0.005c1.092-0.076,1.914-1.023,1.837-2.114
		l-1.194-16.973v-7.159l1.702,1.517l-0.388,4.476c-0.094,1.09,0.713,2.05,1.803,2.145c0.059,0.005,0.116,0.007,0.173,0.007
		c1.017,0,1.882-0.778,1.972-1.81l0.473-5.465c0.054-0.623-0.189-1.234-0.655-1.649L29.641,16.69z"/>
	<path d="M37.065,14.023c-0.129,0-0.25,0.029-0.361,0.078v-3.046c0-0.365-0.295-0.66-0.66-0.66h-3.26c-0.36,0-0.66,0.29-0.66,0.66
		v3.87l0,0c0.002,0.495,0.408,0.896,0.903,0.896c0.496,0,0.899-0.402,0.899-0.899c0-0.496-0.402-0.899-0.899-0.899
		c-0.13,0-0.252,0.03-0.363,0.08v-1.216c0-0.25,0.203-0.453,0.453-0.453h2.593c0.25,0,0.453,0.203,0.453,0.453v2.038l0,0
		c0.002,0.495,0.406,0.896,0.901,0.896c0.496,0,0.899-0.402,0.899-0.899C37.964,14.426,37.562,14.023,37.065,14.023z"/>
	<path d="M39.054,8.246c-0.129,0-0.25,0.029-0.361,0.078V5.278c0-0.365-0.296-0.66-0.66-0.66h-0.931
		c-0.384,0-0.696,0.311-0.696,0.696v0.639c0,0.389,0.315,0.704,0.704,0.704h0.59c0.25,0,0.453,0.203,0.453,0.453v2.038l0,0
		c0.002,0.495,0.405,0.896,0.901,0.896c0.496,0,0.899-0.402,0.899-0.899S39.55,8.246,39.054,8.246z"/>
	<path d="M23.491,18.559c0.126,0.076,0.267,0.112,0.408,0.12c0.015,0.001,0.03,0.006,0.046,0.006c0.141,0,0.281-0.033,0.409-0.101
		l0.274-0.145c0.142-0.074,0.256-0.185,0.337-0.316c0.081,0.132,0.196,0.242,0.338,0.317l0.275,0.145
		c0.128,0.067,0.269,0.101,0.408,0.101c0.157,0,0.315-0.042,0.454-0.126c0.264-0.159,0.425-0.444,0.425-0.752v-0.289
		c0-0.308-0.161-0.592-0.424-0.751c-0.263-0.16-0.589-0.169-0.862-0.027l-0.275,0.144c-0.143,0.075-0.258,0.185-0.339,0.317
		c-0.081-0.131-0.196-0.242-0.338-0.316l-0.274-0.144c-0.142-0.075-0.299-0.106-0.454-0.098c-0.142,0.007-0.283,0.047-0.408,0.124
		c-0.264,0.159-0.425,0.444-0.425,0.752v0.289C23.066,18.114,23.227,18.4,23.491,18.559z"/>
</g>
</svg>
