<svg id="Layer_1" data-name="Layer 1" xmlns="http://www.w3.org/2000/svg" viewBox="0 0 50.46 50.46"><defs><style>.cls-1{fill:#00b5e4;}</style></defs><title>Iconos</title><polygon class="cls-1" points="28.42 39.82 33.62 46.28 41.68 37.31 42.72 36.14 44.93 33.68 43.13 31.94 41.36 33.51 40.5 34.27 38.78 35.8 33.52 40.46 29.52 36.43 27.28 38.41 27.51 38.69 28.42 39.82"/><path class="cls-1" d="M32,8.48H18.53a9.37,9.37,0,0,0-9.36,9.36V31.32a9.37,9.37,0,0,0,9.36,9.36h7.62l-0.67-.83-0.94-1.16h-6a7.38,7.38,0,0,1-7.37-7.37V17.84a7.38,7.38,0,0,1,7.37-7.37H32a7.38,7.38,0,0,1,7.37,7.37V31.32a7.27,7.27,0,0,1-.07.92l0.51-.46,1.55-1.37V17.84A9.37,9.37,0,0,0,32,8.48Z"/><path class="cls-1" d="M34.16,24.68a9.06,9.06,0,1,0-9.06,9.06A9.07,9.07,0,0,0,34.16,24.68Zm-6.49,4.11a3.12,3.12,0,0,1-1.75.81v1a0.23,0.23,0,0,1-.23.23h-1a0.23,0.23,0,0,1-.23-0.23v-1a3.41,3.41,0,0,1-1.86-.87,2.88,2.88,0,0,1-.81-2.26,0.23,0.23,0,0,1,0-.08A0.29,0.29,0,0,1,22,26.22H23.8a0.23,0.23,0,0,1,.23.23,1.39,1.39,0,0,0,.31,1,1.14,1.14,0,0,0,.82.3,1,1,0,0,0,.71-0.24,0.87,0.87,0,0,0,.23-0.65,1,1,0,0,0-.23-0.67A2.49,2.49,0,0,0,25,25.7a6.39,6.39,0,0,1-2.14-1.18,2.52,2.52,0,0,1-.74-1.93,2.58,2.58,0,0,1,.74-1.89,3.06,3.06,0,0,1,1.75-.83V18.72a0.23,0.23,0,0,1,.23-0.23h1a0.23,0.23,0,0,1,.23.23v1.17a2.85,2.85,0,0,1,1.67,1A3.15,3.15,0,0,1,28.38,23a0.23,0.23,0,0,1,0,.12,0.3,0.3,0,0,1-.22.14H26.35A0.23,0.23,0,0,1,26.12,23a1.63,1.63,0,0,0-.26-1,0.76,0.76,0,0,0-.64-0.31,0.78,0.78,0,0,0-.63.23,1,1,0,0,0-.21.67,0.89,0.89,0,0,0,.22.63,2.63,2.63,0,0,0,.94.54A6.86,6.86,0,0,1,27.66,25a2.48,2.48,0,0,1,.75,1.91A2.55,2.55,0,0,1,27.67,28.79Z"/></svg>