<?xml version="1.0" encoding="utf-8"?>
<!-- Generator: Adobe Illustrator 18.0.0, SVG Export Plug-In . SVG Version: 6.00 Build 0)  -->
<!DOCTYPE svg PUBLIC "-//W3C//DTD SVG 1.1//EN" "http://www.w3.org/Graphics/SVG/1.1/DTD/svg11.dtd">
<svg version="1.1" id="Layer_1" xmlns="http://www.w3.org/2000/svg" xmlns:xlink="http://www.w3.org/1999/xlink" x="0px" y="0px"
	 viewBox="0 0 50.5 50.5" style="enable-background:new 0 0 50.5 50.5;" xml:space="preserve">
<style type="text/css">
	.st0{fill:#65B4E1;}
</style>
<polygon class="st0" points="28.4,39.8 33.6,46.3 41.7,37.3 42.7,36.1 44.9,33.7 43.1,31.9 41.4,33.5 40.5,34.3 38.8,35.8 
	33.5,40.5 29.5,36.4 27.3,38.4 27.5,38.7 "/>
<path class="st0" d="M32,8.5H18.5c-5.2,0-9.4,4.2-9.4,9.4v13.5c0,5.2,4.2,9.4,9.4,9.4h7.6l-0.7-0.8l-0.9-1.2h-6
	c-4.1,0-7.4-3.3-7.4-7.4V17.8c0-4.1,3.3-7.4,7.4-7.4H32c4.1,0,7.4,3.3,7.4,7.4v13.5c0,0.3,0,0.6-0.1,0.9l0.5-0.5l1.5-1.4V17.8
	C41.4,12.7,37.2,8.5,32,8.5z"/>
<path class="st0" d="M34.2,24.7c0-5-4.1-9.1-9.1-9.1c-5,0-9.1,4.1-9.1,9.1c0,5,4.1,9.1,9.1,9.1C30.1,33.7,34.2,29.7,34.2,24.7z
	 M27.7,28.8c-0.4,0.4-1,0.7-1.7,0.8v1c0,0.1-0.1,0.2-0.2,0.2h-1c-0.1,0-0.2-0.1-0.2-0.2v-1c-0.7-0.1-1.4-0.4-1.9-0.9
	c-0.6-0.5-0.8-1.3-0.8-2.3c0,0,0-0.1,0-0.1c0-0.1,0.1-0.2,0.2-0.2h1.8c0.1,0,0.2,0.1,0.2,0.2c0,0.5,0.1,0.8,0.3,1
	c0.2,0.2,0.5,0.3,0.8,0.3c0.3,0,0.5-0.1,0.7-0.2c0.2-0.2,0.2-0.4,0.2-0.7c0-0.3-0.1-0.5-0.2-0.7c-0.2-0.2-0.5-0.4-0.9-0.5
	c-0.9-0.3-1.7-0.7-2.1-1.2c-0.5-0.5-0.7-1.1-0.7-1.9c0-0.8,0.2-1.4,0.7-1.9c0.4-0.4,1-0.7,1.7-0.8v-1.1c0-0.1,0.1-0.2,0.2-0.2h1
	c0.1,0,0.2,0.1,0.2,0.2v1.2c0.7,0.1,1.3,0.5,1.7,1c0.5,0.5,0.7,1.3,0.7,2.1c0,0,0,0.1,0,0.1c0,0.1-0.1,0.1-0.2,0.1h-1.8
	c-0.1,0-0.2-0.1-0.2-0.2c0-0.4-0.1-0.8-0.3-1c-0.2-0.2-0.4-0.3-0.6-0.3c-0.3,0-0.5,0.1-0.6,0.2c-0.1,0.2-0.2,0.4-0.2,0.7
	c0,0.3,0.1,0.5,0.2,0.6c0.2,0.2,0.5,0.4,0.9,0.5c0.9,0.4,1.7,0.8,2.1,1.2c0.5,0.5,0.7,1.1,0.7,1.9C28.4,27.7,28.2,28.3,27.7,28.8z"
	/>
</svg>
