<svg xmlns="http://www.w3.org/2000/svg" viewBox="0 0 50.46 50.46">
  <title>Iconos</title>
  <g>
    <path d="M34.33,24.68a9.06,9.06,0,1,0-9.06,9.06A9.07,9.07,0,0,0,34.33,24.68Zm-6.49,4.11a3.12,3.12,0,0,1-1.75.81v1a0.23,0.23,0,0,1-.23.23h-1a0.23,0.23,0,0,1-.23-0.23v-1a3.41,3.41,0,0,1-1.86-.87A2.88,2.88,0,0,1,22,26.48a0.23,0.23,0,0,1,0-.08,0.29,0.29,0,0,1,.23-0.18H24a0.23,0.23,0,0,1,.23.23,1.39,1.39,0,0,0,.31,1,1.14,1.14,0,0,0,.82.3,1,1,0,0,0,.71-0.24,0.87,0.87,0,0,0,.23-0.65,1,1,0,0,0-.23-0.67,2.49,2.49,0,0,0-.91-0.53A6.39,6.39,0,0,1,23,24.52a2.52,2.52,0,0,1-.74-1.93A2.58,2.58,0,0,1,23,20.7a3.06,3.06,0,0,1,1.75-.83V18.72A0.23,0.23,0,0,1,25,18.49h1a0.23,0.23,0,0,1,.23.23v1.17a2.85,2.85,0,0,1,1.67,1A3.15,3.15,0,0,1,28.56,23a0.23,0.23,0,0,1,0,.12,0.3,0.3,0,0,1-.22.14H26.53A0.23,0.23,0,0,1,26.3,23,1.63,1.63,0,0,0,26,22a0.76,0.76,0,0,0-.64-0.31,0.78,0.78,0,0,0-.63.23,1,1,0,0,0-.21.67,0.89,0.89,0,0,0,.22.63,2.63,2.63,0,0,0,.94.54A6.86,6.86,0,0,1,27.84,25a2.48,2.48,0,0,1,.75,1.91A2.55,2.55,0,0,1,27.85,28.79Z" fill="#00b5e4"/>
    <path d="M48.37,31.38l-1.09-1.05-0.47-.46-0.49.44-0.55.49V11.32a3.11,3.11,0,0,0-3.11-3.11H7.82a3.11,3.11,0,0,0-3.11,3.11V37.56a3.11,3.11,0,0,0,3.11,3.11H36.43a6.64,6.64,0,0,1-1.28-1.78H7.82a1.33,1.33,0,0,1-1.33-1.33V11.32A1.33,1.33,0,0,1,7.82,10H42.65A1.33,1.33,0,0,1,44,11.32V30a6.69,6.69,0,0,1,1.5,1l-0.24.21-0.52.46L44.42,32a5.19,5.19,0,0,0-7.63,6.9,5.22,5.22,0,0,0,2.11,1.78,5.15,5.15,0,0,0,4.57-.11,5.23,5.23,0,0,0,2.16-2.13A5.16,5.16,0,0,0,46.26,36a5.08,5.08,0,0,0-.12-1.07l0.29-.33,0.63-.7,1.33-1.49,0.46-.51Zm-1.83,2-0.63.7L41,39.51h0l-3.83-4.76,1.35-1.19L41,36l4.22-3.74,0.52-.46,1.07-.95,1.09,1.05Z" fill="#00b5e4"/>
  </g>
</svg>
