<svg xmlns="http://www.w3.org/2000/svg" viewBox="0 0 50.46 50.46">
  <title>Iconos</title>
  <path d="M32.06,44.21a4.89,4.89,0,0,0,2.82-.89h0.53c2.63,0,4.34-1.57,4.34-4V12.88c0-4.82-4.29-6.57-6.79-6.57l-18.66,0A3.67,3.67,0,0,0,11,8a2,2,0,0,0-.23,1h0V9.43c0,0.36,0,.81,0,1.43V44.21H32.06Zm2.72-4.41a2.58,2.58,0,0,1-2.72,2.41H12.72V11H32.06a2.58,2.58,0,0,1,2.72,2.41V39.8ZM12.24,8.74c0.1-.31.47-1,2.37-1l18.47,0a5.48,5.48,0,0,1,5.17,5.52v26a2.27,2.27,0,0,1-2,2.39,4.12,4.12,0,0,0,.49-1.92V13.38A4.58,4.58,0,0,0,32.06,9H12.39C12.12,8.91,12.25,8.73,12.24,8.74Z" fill="#00b5e4"/>
  <path d="M24.22,19.93H23.27a7.16,7.16,0,0,0-6.67,6.67h0v0.95h0a7.16,7.16,0,0,0,6.67,6.66v0h0.95v0a7.15,7.15,0,0,0,6.66-6.66h0V26.6h0A7.16,7.16,0,0,0,24.22,19.93Zm-3.15,1.55A7.45,7.45,0,0,0,20,23.73H18.52A6.2,6.2,0,0,1,21.07,21.47ZM18,24.68H19.7a11.39,11.39,0,0,0-.24,1.91h-1.9A6.2,6.2,0,0,1,18,24.68Zm-0.46,2.86h1.9a11.39,11.39,0,0,0,.24,1.91H18A6.2,6.2,0,0,1,17.57,27.54Zm1,2.87h1.43a7.46,7.46,0,0,0,1.13,2.25A6.2,6.2,0,0,1,18.52,30.41Zm4.75,2.8a4,4,0,0,1-2.34-2.8h2.34v2.8Zm0-3.75H20.66a10.62,10.62,0,0,1-.25-1.91h2.86v1.91Zm0-2.86H20.42a10.62,10.62,0,0,1,.25-1.91h2.61V26.6Zm0-2.87H20.93a4,4,0,0,1,2.34-2.8v2.8Zm5.7,0H27.55a7.46,7.46,0,0,0-1.13-2.25A6.2,6.2,0,0,1,29,23.73Zm-4.75-2.8a4,4,0,0,1,2.34,2.8H24.22v-2.8Zm0,3.75h2.61a11.06,11.06,0,0,1,.25,1.91H24.22V24.68Zm0,2.86h2.86a10.62,10.62,0,0,1-.25,1.91H24.22V27.54Zm0,5.67v-2.8h2.34A4,4,0,0,1,24.22,33.21Zm2.2-.55a7.63,7.63,0,0,0,1.13-2.25H29A6.2,6.2,0,0,1,26.42,32.67Zm3.05-3.21H27.8A11.39,11.39,0,0,0,28,27.54h1.9A6.2,6.2,0,0,1,29.47,29.46ZM28,26.6a11.39,11.39,0,0,0-.24-1.91h1.68a6.2,6.2,0,0,1,.46,1.91H28Z" fill="#00b5e4"/>
</svg>
