<?xml version="1.0" encoding="utf-8"?>
<!-- Generator: Adobe Illustrator 18.0.0, SVG Export Plug-In . SVG Version: 6.00 Build 0)  -->
<!DOCTYPE svg PUBLIC "-//W3C//DTD SVG 1.1//EN" "http://www.w3.org/Graphics/SVG/1.1/DTD/svg11.dtd">
<svg version="1.1" id="Layer_1" xmlns="http://www.w3.org/2000/svg" xmlns:xlink="http://www.w3.org/1999/xlink" x="0px" y="0px"
	 viewBox="0 0 50.5 50.5" style="enable-background:new 0 0 50.5 50.5;" xml:space="preserve">
<style type="text/css">
	.st0{fill:#65B4E1;}
</style>
<path class="st0" d="M32.1,44.2c1.1,0,2-0.3,2.8-0.9h0.5c2.6,0,4.3-1.6,4.3-4V12.9c0-4.8-4.3-6.6-6.8-6.6l-18.7,0
	C12.7,6.3,11.5,7,11,8c-0.1,0.3-0.2,0.5-0.2,1h0v0.5c0,0.4,0,0.8,0,1.4v33.4H32.1z M34.8,39.8c0,1.3-1.2,2.4-2.7,2.4H12.7V11h19.3
	c1.5,0,2.7,1.1,2.7,2.4V39.8z M12.2,8.7c0.1-0.3,0.5-1,2.4-1l18.5,0c1.6,0,5.2,1.5,5.2,5.5v26c0,1.3-0.7,2.1-2,2.4
	c0.3-0.6,0.5-1.2,0.5-1.9V13.4c0-2.4-2.1-4.4-4.7-4.4H12.4C12.1,8.9,12.3,8.7,12.2,8.7z"/>
<path class="st0" d="M24.2,19.9L24.2,19.9l-0.9,0v0c-3.6,0.2-6.4,3.1-6.7,6.7h0v0.9h0c0.2,3.6,3.1,6.4,6.7,6.7v0h0.9v0
	c3.6-0.2,6.4-3.1,6.7-6.7h0v-0.9h0C30.7,23,27.8,20.2,24.2,19.9z M21.1,21.5c-0.5,0.6-0.8,1.4-1.1,2.3h-1.4
	C19.1,22.8,20,22,21.1,21.5z M18,24.7h1.7c-0.1,0.6-0.2,1.2-0.2,1.9h-1.9C17.6,25.9,17.8,25.3,18,24.7z M17.6,27.5h1.9
	c0,0.7,0.1,1.3,0.2,1.9H18C17.8,28.9,17.6,28.2,17.6,27.5z M18.5,30.4h1.4c0.3,0.9,0.7,1.6,1.1,2.3C20,32.2,19.1,31.4,18.5,30.4z
	 M23.3,33.2c-1-0.3-1.8-1.3-2.3-2.8h2.3V33.2z M23.3,29.5h-2.6c-0.1-0.6-0.2-1.2-0.2-1.9h2.9V29.5z M23.3,26.6h-2.9
	c0-0.7,0.1-1.3,0.2-1.9h2.6V26.6z M23.3,23.7h-2.3c0.5-1.5,1.4-2.5,2.3-2.8V23.7z M29,23.7h-1.4c-0.3-0.9-0.7-1.6-1.1-2.3
	C27.5,22,28.4,22.8,29,23.7z M24.2,20.9c1,0.3,1.8,1.3,2.3,2.8h-2.3V20.9z M24.2,24.7h2.6c0.1,0.6,0.2,1.2,0.2,1.9h-2.9V24.7z
	 M24.2,27.5h2.9c0,0.7-0.1,1.3-0.2,1.9h-2.6V27.5z M24.2,33.2v-2.8h2.3C26.1,31.9,25.2,33,24.2,33.2z M26.4,32.7
	c0.5-0.6,0.8-1.4,1.1-2.3H29C28.4,31.4,27.5,32.2,26.4,32.7z M29.5,29.5h-1.7c0.1-0.6,0.2-1.2,0.2-1.9h1.9
	C29.9,28.2,29.7,28.9,29.5,29.5z M28,26.6c0-0.7-0.1-1.3-0.2-1.9h1.7c0.2,0.6,0.4,1.2,0.5,1.9H28z"/>
</svg>
