<svg xmlns="http://www.w3.org/2000/svg" viewBox="0 0 50.46 50.46">
  <title>Iconos</title>
  <g>
    <path d="M25.24,2.73h0A19.22,19.22,0,0,0,6,22c0,5.78,2.42,10.38,6.59,14.49L23.2,46.89a2.91,2.91,0,0,0,2,.84h0a2.91,2.91,0,0,0,2-.84L37.85,36.44C42,32.33,44.44,27.73,44.44,22A19.22,19.22,0,0,0,25.24,2.73Zm0,35.77A16.54,16.54,0,1,1,41.77,22,16.55,16.55,0,0,1,25.23,38.5Z" fill="#00b5e4"/>
    <path d="M15,14.87H13.21a0.21,0.21,0,0,0-.24.23v5.47a0.25,0.25,0,1,0,.5,0V18.28a0,0,0,0,1,.05-0.05H15A1.68,1.68,0,1,0,15,14.87Zm0,2.89h-1.5a0,0,0,0,1-.05-0.05V15.39a0,0,0,0,1,.05-0.05H15A1.22,1.22,0,1,1,15,17.75Z" fill="#00b5e4"/>
    <path d="M22,18.75V15.1a0.25,0.25,0,1,0-.5,0v3.66A1.43,1.43,0,0,1,20,20.41a1.43,1.43,0,0,1-1.51-1.66V15.1a0.25,0.25,0,1,0-.5,0v3.65a1.87,1.87,0,0,0,2,2.14A1.87,1.87,0,0,0,22,18.75Z" fill="#00b5e4"/>
    <path d="M27.36,20.83a0.28,0.28,0,0,0,.31-0.31V15.1a0.25,0.25,0,0,0-.25-0.27,0.24,0.24,0,0,0-.25.27v4.73h0L24.28,15.1a0.4,0.4,0,0,0-.36-0.27,0.28,0.28,0,0,0-.3.32v5.42a0.25,0.25,0,1,0,.5,0V15.82h0L27,20.56A0.42,0.42,0,0,0,27.36,20.83Z" fill="#00b5e4"/>
    <path d="M28.89,15.33h1.57a0,0,0,0,1,.05.05v5.18a0.25,0.25,0,1,0,.5,0V15.39a0,0,0,0,1,.05-0.05h1.57a0.24,0.24,0,1,0,0-.47H28.89A0.23,0.23,0,1,0,28.89,15.33Z" fill="#00b5e4"/>
    <path d="M37.42,19.55a5.17,5.17,0,0,0,.17-1.72,5.18,5.18,0,0,0-.17-1.72,2,2,0,0,0-3.83,0,5.24,5.24,0,0,0-.17,1.72,5.23,5.23,0,0,0,.17,1.72A2,2,0,0,0,37.42,19.55Zm-3.35-.14a5.11,5.11,0,0,1-.15-1.58,5.1,5.1,0,0,1,.15-1.58,1.53,1.53,0,0,1,2.87,0,5.21,5.21,0,0,1,.15,1.58,5.22,5.22,0,0,1-.15,1.58A1.53,1.53,0,0,1,34.07,19.41Z" fill="#00b5e4"/>
    <path d="M14.56,23.17H13.4a0.43,0.43,0,0,0-.46.47v4a0.43,0.43,0,0,0,.46.46h1.16a1.76,1.76,0,0,0,2-1.13,4.08,4.08,0,0,0,.14-1.32,4,4,0,0,0-.14-1.32A1.76,1.76,0,0,0,14.56,23.17Zm0.94,3.41a0.89,0.89,0,0,1-1,.55H14a0,0,0,0,1,0,0V24.16a0,0,0,0,1,0,0h0.49a0.89,0.89,0,0,1,1,.56,3.58,3.58,0,0,1,.09,1A3.58,3.58,0,0,1,15.5,26.58Z" fill="#00b5e4"/>
    <path d="M18,23.13a0.52,0.52,0,0,0-.53.56v3.87a0.53,0.53,0,1,0,1.06,0V23.69A0.52,0.52,0,0,0,18,23.13Z" fill="#00b5e4"/>
    <path d="M22.78,25.35h-1a0.42,0.42,0,1,0,0,.84H22.1a0,0,0,0,1,0,0,1.57,1.57,0,0,1-.06.48,0.79,0.79,0,0,1-.79.5,0.77,0.77,0,0,1-.8-0.54,3.62,3.62,0,0,1-.08-1.05,3.55,3.55,0,0,1,.08-1A0.76,0.76,0,0,1,21.28,24a0.84,0.84,0,0,1,.74.36,0.53,0.53,0,0,0,.47.26A0.47,0.47,0,0,0,23,24.17a0.62,0.62,0,0,0-.09-0.32,1.78,1.78,0,0,0-1.6-.76,1.73,1.73,0,0,0-1.8,1.19,4,4,0,0,0-.14,1.34A4,4,0,0,0,19.48,27a1.73,1.73,0,0,0,1.8,1.19,1.75,1.75,0,0,0,1.79-1.23,3.92,3.92,0,0,0,.12-1.11V25.77A0.38,0.38,0,0,0,22.78,25.35Z" fill="#00b5e4"/>
    <path d="M24.54,23.13a0.52,0.52,0,0,0-.54.56v3.87a0.53,0.53,0,1,0,1.06,0V23.69A0.52,0.52,0,0,0,24.54,23.13Z" fill="#00b5e4"/>
    <path d="M29.49,23.65A0.48,0.48,0,0,0,29,23.17H26.15a0.48,0.48,0,0,0-.53.48,0.48,0.48,0,0,0,.53.47H27a0,0,0,0,1,0,0v3.4a0.53,0.53,0,1,0,1.06,0v-3.4a0,0,0,0,1,0,0H29A0.48,0.48,0,0,0,29.49,23.65Z" fill="#00b5e4"/>
    <path d="M32.13,23.75a0.77,0.77,0,0,0-.74-0.62,0.76,0.76,0,0,0-.73.62l-1.33,3.67a0.61,0.61,0,0,0,0,.2,0.5,0.5,0,0,0,.51.5,0.51,0.51,0,0,0,.5-0.38l0.2-.6h1.75l0.2,0.6a0.51,0.51,0,0,0,.5.38,0.5,0.5,0,0,0,.51-0.5,0.57,0.57,0,0,0,0-.2ZM30.8,26.24l0.57-1.72h0L32,26.24H30.8Z" fill="#00b5e4"/>
    <path d="M37,27.13H35.28a0,0,0,0,1,0,0v-3.4a0.53,0.53,0,1,0-1.06,0v3.85a0.5,0.5,0,0,0,.53.53H37A0.48,0.48,0,1,0,37,27.13Z" fill="#00b5e4"/>
  </g>
</svg>
