<svg xmlns="http://www.w3.org/2000/svg" viewBox="0 0 50.46 50.46">
  <title>Iconos</title>
  <g>
    <path d="M25.26,3h0A18.69,18.69,0,0,0,6.29,21.65c0,5.7,2.39,10.08,6.5,14.14C18.21,41.13,23.39,46,23.39,46a2.72,2.72,0,0,0,2.13.75V46h0v0.77a4.94,4.94,0,0,0,1.86-.83s5-5,10.39-10.31c4.11-4.05,6.47-8.27,6.47-14A18.72,18.72,0,0,0,25.26,3Zm0,34.65A16.33,16.33,0,1,1,41.58,21.33,16.33,16.33,0,0,1,25.25,37.65Z" fill="#00b5e4"/>
    <g>
      <g>
        <path d="M17.75,21.31a0.63,0.63,0,0,1,0-.18,0.49,0.49,0,0,1,.5-0.48,0.49,0.49,0,0,1,.48.35l0.88,2.73L20.47,21a0.51,0.51,0,0,1,.5-0.39H21a0.51,0.51,0,0,1,.5.39l0.89,2.71L23.31,21a0.49,0.49,0,0,1,.47-0.35,0.47,0.47,0,0,1,.48.47,0.7,0.7,0,0,1,0,.19L23,24.81a0.54,0.54,0,0,1-.51.4h-0.1a0.53,0.53,0,0,1-.5-0.4L21,22.26l-0.88,2.55a0.53,0.53,0,0,1-.5.4h-0.1a0.54,0.54,0,0,1-.51-0.4Z" fill="#00b5e4"/>
        <path d="M24.74,21.14a0.49,0.49,0,1,1,1,0v3.55a0.49,0.49,0,0,1-1,0V21.14Z" fill="#00b5e4"/>
        <path d="M26.52,21.17A0.49,0.49,0,0,1,27,20.68H29.5a0.45,0.45,0,1,1,0,.89h-2v0.95h1.72a0.45,0.45,0,1,1,0,.89H27.5v1.27a0.49,0.49,0,0,1-1,0V21.17Z" fill="#00b5e4"/>
        <path d="M30.26,20.91a0.55,0.55,0,0,1,1.08,0h0a0.55,0.55,0,0,1-1.08,0h0Zm0.06,1.26a0.48,0.48,0,0,1,1,0v2.52a0.48,0.48,0,0,1-1,0V22.17Z" fill="#00b5e4"/>
      </g>
      <path d="M29.47,19.91a0.41,0.41,0,0,1-.35-0.63,1.9,1.9,0,0,1,3.21,0,0.41,0.41,0,0,1-.7.44,1.08,1.08,0,0,0-1.82,0A0.41,0.41,0,0,1,29.47,19.91Z" fill="#00b5e4"/>
      <path d="M32.54,18.5a0.41,0.41,0,0,1-.33-0.16,1.87,1.87,0,0,0-3,0,0.41,0.41,0,0,1-.65-0.5,2.69,2.69,0,0,1,4.27,0,0.41,0.41,0,0,1-.07.58A0.41,0.41,0,0,1,32.54,18.5Z" fill="#00b5e4"/>
      <path d="M27.89,17.19a0.41,0.41,0,0,1-.27-0.1,0.41,0.41,0,0,1,0-.58,4.17,4.17,0,0,1,6.31,0,0.41,0.41,0,0,1-.62.54,3.35,3.35,0,0,0-5.06,0A0.41,0.41,0,0,1,27.89,17.19Z" fill="#00b5e4"/>
    </g>
  </g>
</svg>
