<svg id="a1fa9d15-5523-4d72-a4ca-f762b900da54" data-name="stroke 1,6" xmlns="http://www.w3.org/2000/svg" viewBox="0 0 50.46 50.46"><path d="M21.022,13.053v13.61a2.413,2.413,0,0,1-3.256,2.261L12.32,26.9a2.344,2.344,0,0,1-1.293-1.135,5.013,5.013,0,0,1,.014-3.806c1.169-3.687,3.237-11.239,3.417-11.509a5.043,5.043,0,0,1,5.125-3.687c3.237-.067,8.8.017,11.38.064a2.413,2.413,0,0,1,2.064,1.236l2.57,4.6a2.411,2.411,0,0,0,1.888,1.227l6.182.562a1.291,1.291,0,0,1,1.145,1.557l-1.178,5.478a2.5,2.5,0,0,0-.046.355c-.048.691-.638,3.464-7.011,3.622-7.283.18-8.092.18-8.092.18" fill="none" stroke="#000" stroke-linecap="round" stroke-miterlimit="10" stroke-width="1.6"/><circle cx="29.793" cy="13.976" r="2.044"/><path d="M32.885,44.431a8.4,8.4,0,0,0,.918-2.539c.975-5.93.14-16.1.14-16.1s.835,10.174-.14,16.1a8.4,8.4,0,0,1-.918,2.539" fill="none" stroke="#000" stroke-linecap="round" stroke-miterlimit="10" stroke-width="1.6"/><path d="M9.639,37.678a1.7,1.7,0,0,0,.192,2.436,24.426,24.426,0,0,0,23.054,4.317" fill="none" stroke="#000" stroke-linecap="round" stroke-miterlimit="10" stroke-width="1.6"/><path d="M13.822,27.79a14.922,14.922,0,0,1-4.183,9.888" fill="none" stroke="#000" stroke-linecap="round" stroke-miterlimit="10" stroke-width="1.6"/><path d="M33.935,40.976a24.056,24.056,0,0,1-23.322-4.45" fill="none" stroke="#000" stroke-linecap="round" stroke-miterlimit="10" stroke-width="1.2"/><path d="M40.773,14.419a2.951,2.951,0,0,0,3.447,3.6" fill="none" stroke="#000" stroke-linecap="round" stroke-miterlimit="10" stroke-width="1.2"/></svg>