<?xml version="1.0" encoding="utf-8"?>
<!-- Generator: Adobe Illustrator 16.0.0, SVG Export Plug-In . SVG Version: 6.00 Build 0)  -->
<!DOCTYPE svg PUBLIC "-//W3C//DTD SVG 1.1//EN" "http://www.w3.org/Graphics/SVG/1.1/DTD/svg11.dtd">
<svg version="1.1" id="Layer_1" xmlns="http://www.w3.org/2000/svg" xmlns:xlink="http://www.w3.org/1999/xlink" x="0px" y="0px"
	 width="595.28px" height="841.89px" viewBox="0 0 595.28 841.89" enable-background="new 0 0 595.28 841.89" xml:space="preserve">
<g>
	<g>
		<path d="M568.21,222.325c-46.319-29.083-73.235-10.773-95.854,4.309c-23.689,16.154-39.844,28-79.699-4.309l0,0l0,0
			c-37.689-23.69-63.534-15.071-82.926-3.226v-71.081c0-6.464-4.299-10.773-10.762-10.773c-6.464,0-10.773,4.309-10.773,10.773
			v85.081c-19.38,11.845-36.618,17.226-71.081-9.69l0,0l0,0c-46.308-29.082-73.236-10.773-95.854,4.298
			c-23.689,16.166-39.844,28.011-79.688-4.298c-4.31-3.238-11.856-3.238-15.094,2.143c-4.31,3.238-3.227,10.773,1.083,14.011
			c22.618,18.309,40.927,24.761,57.082,24.761c20.463,0,35.546-10.762,48.462-19.38c20.464-14,37.701-25.844,71.093-4.309
			c22.607,17.237,40.927,23.689,55.999,23.689c9.69,0,19.38-3.226,26.916-6.452v24.761c-13.988,10.773-54.916,44.165-75.379,98.009
			l0,0c-4.309,11.845-8.619,23.69-10.785,36.618c-9.679,58.165,9.702,119.543,56.021,182.006l-66.783,87.246
			c-3.227,3.227-3.227,8.607,0,12.917c2.154,4.31,7.535,5.393,11.845,4.31l96.937-22.618l96.925,22.618c1.071,0,2.155,0,2.155,0
			c3.226,0,7.535-2.154,8.618-5.381c2.144-4.31,2.144-8.619,0-12.928l-67.866-87.236c47.402-62.462,65.712-122.77,56.021-182.005
			c-2.166-12.928-5.393-25.856-10.785-36.618l0,0c-20.463-53.855-61.379-87.235-75.379-98.009v-37.689
			c20.464-14.011,37.701-25.856,71.081-4.309c22.618,17.226,40.928,23.69,55.999,23.69c20.463,0,35.546-10.773,48.474-19.381
			c21.535-14.011,37.679-25.856,72.153-4.309c5.393,3.226,11.845,2.155,15.07-3.238C574.674,232.016,573.602,225.551,568.21,222.325
			z M317.277,591.73c-3.238,4.309-3.238,9.701,0,12.928l53.844,70.01l-69.998-16.166c-1.083,0-2.155,0-2.155,0h-2.155
			l-70.009,16.166l53.855-70.01c3.227-4.31,3.227-9.69,0-12.928c-46.319-59.236-65.7-117.39-57.081-171.233
			c1.083-7.547,3.226-15.083,5.381-21.547c15.083,8.619,41.999,20.464,74.307,20.464c20.464,0,44.154-5.381,66.783-19.38
			c2.144,6.464,4.31,14,5.381,21.535C382.978,475.424,363.574,532.494,317.277,591.73z M361.431,378.487
			c-53.855,36.618-106.627,10.773-126.008,0c18.309-40.927,49.546-67.843,62.451-77.545
			C310.813,310.644,342.05,337.56,361.431,378.487z"/>
		<path d="M568.21,319.25c-46.319-29.071-73.235-10.762-95.854,4.31c-23.689,16.154-39.844,27.999-79.699-4.31
			c-4.31-3.226-11.846-3.226-15.071,2.155c-3.227,4.31-3.227,11.856,2.154,15.083c22.618,18.309,40.928,24.772,57.082,24.772
			c20.452,0,35.534-10.773,48.462-19.392c21.535-14,37.689-25.845,72.165-4.31c5.381,3.238,11.845,2.155,15.071-3.226
			C574.674,330.024,573.602,322.488,568.21,319.25z"/>
		<path d="M219.269,334.333c3.226-5.381,2.143-11.845-3.227-15.083c-46.319-29.071-73.235-10.762-95.854,4.31
			c-23.702,16.154-39.855,27.999-79.7-4.31c-4.309-3.226-11.845-3.226-15.083,2.155c-3.238,4.31-3.238,11.856,2.155,15.083
			c22.618,18.309,40.927,24.772,57.082,24.772c20.463,0,35.546-10.773,48.462-19.392c21.547-14,37.701-25.845,72.153-4.31
			C209.566,340.797,216.042,339.714,219.269,334.333z"/>
		<path d="M302.194,340.797c10.704,0,19.392,8.676,19.392,19.38c0,10.716-8.688,19.392-19.392,19.392s-19.392-8.676-19.392-19.392
			C282.803,349.474,291.49,340.797,302.194,340.797z"/>
	</g>
</g>
</svg>
