<?xml version="1.0" encoding="utf-8"?>
<!-- Generator: Adobe Illustrator 24.0.1, SVG Export Plug-In . SVG Version: 6.00 Build 0)  -->
<svg version="1.1" id="Layer_1" xmlns="http://www.w3.org/2000/svg" xmlns:xlink="http://www.w3.org/1999/xlink" x="0px" y="0px"
	 viewBox="0 0 50.5 50.5" style="enable-background:new 0 0 50.5 50.5;" xml:space="preserve">
<g>
	<path d="M37.462,14.687c0.096,0,0.193-0.014,0.289-0.044c0.001,0,0.002-0.001,0.003-0.001c0.247-0.079,0.448-0.249,0.567-0.479
		c0.119-0.23,0.141-0.493,0.063-0.734c-0.078-0.248-0.247-0.45-0.478-0.569c-0.231-0.12-0.495-0.143-0.742-0.063
		c-0.508,0.163-0.79,0.708-0.627,1.216C36.668,14.423,37.051,14.687,37.462,14.687z"/>
	<path d="M4.704,15.472c0.054-0.022,5.425-2.277,7.758,0.698c1.145,1.459,0.87,3.582,0.551,6.039
		c-0.35,2.707-0.747,5.774,0.717,8.712c1.958,3.931,5.361,5.479,8.671,5.479c1.463,0,2.908-0.303,4.202-0.836
		c2.329-0.959,4.08-2.759,4.683-4.815c0.631-2.15,0.087-4.48-1.617-6.924c-1.166-1.673-2.174-2.847-2.983-3.79
		c-1.545-1.801-2.4-2.811-2.812-5.281c1.606-0.396,2.806-1.838,2.806-3.565c0-1.216-0.599-2.287-1.51-2.958
		c0.041-0.048,0.075-0.101,0.118-0.148c1.275-1.422,2.944-1.926,3.986-1.926c3.033,0,5.187,1.904,5.637,3.433
		c-1.353,2.155-2.069,4.615-2.062,7.131c-0.002,1.347,0.208,2.693,0.624,4.004c0.988,3.108,3.037,5.694,5.817,7.366
		c-0.277,0.468-0.477,0.975-0.599,1.515c-0.085,0.371-0.126,0.728-0.127,1.077c-0.022,1.169,0.354,2.328,1.062,3.274
		c0.089,0.151,0.226,0.271,0.391,0.337c0.096,0.039,0.198,0.058,0.299,0.058c0.124,0,0.248-0.028,0.361-0.086
		c0.901-0.456,1.643-1.144,2.15-1.979c0.891,0.39,1.893,0.525,2.894,0.375c0.378-0.056,0.664-0.371,0.683-0.752
		c0.077-1.59-0.557-3.114-1.738-4.183c-0.417-0.378-0.877-0.679-1.376-0.898c0.568-1.295,0.931-2.684,1.067-4.089
		c0.546,0.042,1.08,0.174,1.573,0.392c0.243,0.107,0.522,0.088,0.746-0.052c0.225-0.14,0.366-0.382,0.377-0.646
		c0.029-0.705-0.071-1.425-0.299-2.142c-0.538-1.693-1.744-3.082-3.335-3.859c-0.384-0.944-0.863-1.823-1.425-2.614
		c-1.385-1.97-3.279-3.511-5.493-4.497c-0.574-2.382-3.501-4.765-7.227-4.765c-1.371,0-3.549,0.644-5.177,2.457
		c-0.149,0.167-0.301,0.355-0.451,0.559c-0.211-0.038-0.426-0.065-0.648-0.065c-2.03,0-3.682,1.651-3.682,3.682
		c0,1.781,1.27,3.268,2.952,3.608c0.479,3.072,1.584,4.393,3.204,6.28c0.827,0.964,1.765,2.056,2.885,3.663
		c1.413,2.026,1.882,3.896,1.394,5.559c-0.468,1.595-1.873,3.01-3.757,3.786c-3.556,1.466-8.462,0.877-10.832-3.876
		c-1.247-2.502-0.898-5.192-0.562-7.793c0.349-2.697,0.679-5.245-0.879-7.231c-3.084-3.931-9.379-1.295-9.647-1.181
		c-0.406,0.174-0.594,0.644-0.42,1.05C3.827,15.459,4.297,15.646,4.704,15.472z M42.478,17.763c1.316,0.559,2.318,1.657,2.749,3.013
		c0.053,0.166,0.097,0.332,0.131,0.497c-0.588-0.127-1.198-0.172-1.803-0.133c-0.409,0.027-0.732,0.358-0.747,0.768
		c-0.065,1.731-0.525,3.459-1.331,4.998c-0.103,0.196-0.12,0.426-0.046,0.636c0.013,0.036,0.031,0.077,0.051,0.115
		c0.104,0.214,0.3,0.373,0.537,0.429c0.588,0.137,1.116,0.416,1.572,0.829c0.645,0.583,1.056,1.361,1.179,2.204
		c-0.665-0.027-1.302-0.23-1.843-0.595c-0.202-0.136-0.456-0.174-0.687-0.101c-0.232,0.073-0.419,0.248-0.507,0.475
		c-0.237,0.613-0.642,1.147-1.168,1.555c-0.274-0.54-0.415-1.142-0.404-1.751c0.001-0.244,0.03-0.485,0.088-0.742
		c0.135-0.598,0.408-1.138,0.813-1.604c0.179-0.207,0.239-0.497,0.16-0.759c-0.062-0.209-0.207-0.383-0.401-0.482
		c-2.806-1.441-4.875-3.882-5.825-6.874c-0.274-0.863-0.446-1.743-0.515-2.627c0.195,0.012,0.39,0.023,0.584,0.023
		c0.994,0,1.983-0.155,2.956-0.463c1.157-0.367,2.203-0.933,3.13-1.672c0.337,0.57,0.647,1.165,0.892,1.81
		C42.12,17.514,42.277,17.678,42.478,17.763z M40.233,14.182c-0.794,0.65-1.695,1.148-2.697,1.467c-1,0.318-2.021,0.431-3.044,0.358
		c0.107-1.808,0.609-3.57,1.52-5.157C37.673,11.617,39.101,12.765,40.233,14.182z M22.997,9.107c1.148,0,2.082,0.934,2.082,2.082
		s-0.934,2.082-2.082,2.082s-2.082-0.934-2.082-2.082S21.849,9.107,22.997,9.107z"/>
	<path d="M46.463,40.15c-1.091,0-1.589-0.319-2.22-0.723c-0.713-0.457-1.522-0.975-3.082-0.975s-2.368,0.518-3.082,0.975
		c-0.63,0.403-1.128,0.723-2.22,0.723c-1.091,0-1.589-0.319-2.219-0.723c-0.714-0.457-1.522-0.975-3.082-0.975
		s-2.369,0.518-3.083,0.975c-0.631,0.403-1.128,0.723-2.22,0.723c-1.091,0-1.588-0.319-2.218-0.723
		c-0.713-0.457-1.522-0.975-3.081-0.975c-1.561,0-2.37,0.518-3.083,0.975c-0.631,0.403-1.129,0.723-2.221,0.723
		c-1.093,0-1.592-0.319-2.223-0.723c-0.714-0.457-1.524-0.975-3.085-0.975S6.975,38.97,6.26,39.427
		c-0.631,0.403-1.13,0.723-2.223,0.723c-0.442,0-0.8,0.358-0.8,0.8s0.358,0.8,0.8,0.8c1.561,0,2.371-0.518,3.085-0.975
		c0.631-0.403,1.13-0.723,2.223-0.723s1.591,0.319,2.223,0.723c0.714,0.457,1.524,0.975,3.085,0.975c1.56,0,2.369-0.518,3.083-0.975
		c0.631-0.403,1.129-0.723,2.221-0.723c1.09,0,1.588,0.319,2.218,0.723c0.713,0.457,1.522,0.975,3.082,0.975
		c1.56,0,2.369-0.518,3.083-0.975c0.631-0.403,1.128-0.723,2.22-0.723c1.091,0,1.589,0.319,2.219,0.723
		c0.714,0.457,1.522,0.975,3.082,0.975s2.369-0.518,3.083-0.975c0.63-0.403,1.128-0.723,2.219-0.723s1.589,0.319,2.219,0.723
		c0.714,0.457,1.523,0.975,3.083,0.975c0.442,0,0.8-0.358,0.8-0.8S46.905,40.15,46.463,40.15z"/>
	<path d="M46.463,44.344c-1.091,0-1.589-0.318-2.22-0.723c-0.713-0.456-1.522-0.974-3.082-0.974s-2.368,0.518-3.082,0.974
		c-0.63,0.404-1.128,0.723-2.22,0.723s-1.589-0.318-2.219-0.722c-0.713-0.457-1.522-0.975-3.082-0.975
		c-1.56,0-2.369,0.518-3.083,0.974c-0.63,0.404-1.128,0.723-2.22,0.723c-1.091,0-1.588-0.318-2.219-0.722
		c-0.713-0.457-1.522-0.975-3.081-0.975c-1.56,0-2.37,0.518-3.083,0.974c-0.631,0.404-1.129,0.723-2.221,0.723
		c-1.093,0-1.592-0.319-2.224-0.723c-0.714-0.456-1.524-0.974-3.084-0.974s-2.37,0.518-3.084,0.974
		c-0.631,0.403-1.13,0.723-2.224,0.723c-0.442,0-0.8,0.358-0.8,0.8s0.358,0.8,0.8,0.8c1.561,0,2.371-0.518,3.085-0.974
		c0.631-0.403,1.13-0.723,2.223-0.723s1.592,0.319,2.223,0.723c0.714,0.456,1.524,0.974,3.085,0.974c1.56,0,2.369-0.518,3.083-0.974
		c0.631-0.403,1.129-0.723,2.221-0.723c1.09,0,1.588,0.318,2.218,0.722c0.713,0.457,1.522,0.975,3.081,0.975
		c1.56,0,2.369-0.518,3.083-0.974c0.63-0.404,1.128-0.723,2.22-0.723c1.091,0,1.589,0.318,2.219,0.722
		c0.713,0.457,1.522,0.975,3.082,0.975c1.56,0,2.369-0.518,3.082-0.975c0.63-0.403,1.128-0.722,2.219-0.722
		c1.091,0,1.589,0.318,2.219,0.722c0.713,0.457,1.522,0.975,3.082,0.975c0.442,0,0.8-0.358,0.8-0.8S46.905,44.344,46.463,44.344z"/>
</g>
</svg>
