<?xml version="1.0" encoding="utf-8"?>
<!-- Generator: Adobe Illustrator 18.0.0, SVG Export Plug-In . SVG Version: 6.00 Build 0)  -->
<!DOCTYPE svg PUBLIC "-//W3C//DTD SVG 1.1//EN" "http://www.w3.org/Graphics/SVG/1.1/DTD/svg11.dtd">
<svg version="1.1" id="Layer_1" xmlns="http://www.w3.org/2000/svg" xmlns:xlink="http://www.w3.org/1999/xlink" x="0px" y="0px"
	 viewBox="0 0 50.5 50.5" style="enable-background:new 0 0 50.5 50.5;" xml:space="preserve">
<style type="text/css">
	.st0{fill:#65B4E1;}
</style>
<g>
	<g>
		<path class="st0" d="M28.9,31.9c0-1-0.3-1.9-0.9-2.5c-0.6-0.6-1.5-1.2-2.9-1.7s-2.6-1-3.5-1.5c-1-0.5-1.8-1.1-2.6-1.8
			c-0.7-0.7-1.3-1.4-1.7-2.3c-0.4-0.9-0.6-2-0.6-3.2c0-2.1,0.7-3.9,2-5.2c1.4-1.4,3.2-2.2,5.4-2.4v-4h3v4.1c2.2,0.3,4,1.2,5.2,2.8
			c1.3,1.5,1.9,3.5,1.9,6h-5.5c0-1.5-0.3-2.6-0.9-3.4c-0.6-0.7-1.5-1.1-2.5-1.1c-1,0-1.8,0.3-2.4,0.9c-0.6,0.6-0.8,1.4-0.8,2.4
			c0,1,0.3,1.7,0.8,2.3c0.6,0.6,1.6,1.2,3.1,1.8c1.5,0.6,2.7,1.2,3.7,1.7c1,0.5,1.8,1.1,2.5,1.8c0.7,0.7,1.2,1.4,1.5,2.3
			c0.4,0.9,0.5,1.9,0.5,3c0,2.1-0.7,3.9-2,5.2s-3.2,2.1-5.5,2.4v3.8h-3v-3.7c-2.6-0.3-4.6-1.2-6-2.7c-1.4-1.6-2.1-3.6-2.1-6.2h5.5
			c0,1.5,0.4,2.6,1.1,3.4s1.7,1.2,3.1,1.2c1.1,0,2-0.3,2.6-0.9S28.9,32.9,28.9,31.9z"/>
	</g>
</g>
</svg>
