<svg xmlns="http://www.w3.org/2000/svg" viewBox="0 0 50.46 50.46">
  <title>Iconos</title>
  <path d="M46.31,39.82H39.64V30.43a1.36,1.36,0,0,0,0-2.63V21.88h0.61a0.37,0.37,0,0,0,.37-0.37c0-.11,0-0.25,0-0.42a14.62,14.62,0,0,0-1-6.42C36.89,8.3,33.17,7.56,33,7.53a0.37,0.37,0,0,0-.42.28l-1.17,4.9L10.63,22.3a0.37,0.37,0,0,0-.21.34v8.41H7.89a0.37,0.37,0,0,0-.37.37v8.4H4.15a0.37,0.37,0,0,0-.37.37v2.46a0.37,0.37,0,0,0,.37.37H46.31a0.37,0.37,0,0,0,.37-0.37V40.19A0.37,0.37,0,0,0,46.31,39.82ZM21,39.82l3.6-4.64,3.6,4.64H21Zm4.4-5.67,1.93-2.49c0.7,3,1.3,5.53,1.68,7.14Zm-0.79-1L22.94,31l1.66-2.15L26.27,31Zm0.79-5.32,0.78-1,0.7,2.93Zm-0.79-1-1.2-1.56,1.2-5,1.2,5ZM23,26.8l0.78,1-1.48,1.92Zm-1.15,4.86,1.93,2.49L20.2,38.81C20.57,37.19,21.18,34.63,21.88,31.67Zm18-2.55a0.64,0.64,0,1,1-.63-0.64A0.64,0.64,0,0,1,39.91,29.12Zm-1-1.32a1.36,1.36,0,0,0,0,2.63v9.39h-8.4c-0.33-1.58-1.41-6.21-4.77-20.26l7.78-3.67,4.66,5.85a0.37,0.37,0,0,0,.29.14h0.44V27.8ZM11.15,26.44l12-5.67C20.05,33.88,19,38.28,18.7,39.82H14v-8.4a0.37,0.37,0,0,0-.37-0.37H11.15V26.44Z" fill="#00b5e4"/>
</svg>
