<?xml version="1.0" encoding="utf-8"?>
<!-- Generator: Adobe Illustrator 18.0.0, SVG Export Plug-In . SVG Version: 6.00 Build 0)  -->
<!DOCTYPE svg PUBLIC "-//W3C//DTD SVG 1.1//EN" "http://www.w3.org/Graphics/SVG/1.1/DTD/svg11.dtd">
<svg version="1.1" id="Layer_1" xmlns="http://www.w3.org/2000/svg" xmlns:xlink="http://www.w3.org/1999/xlink" x="0px" y="0px"
	 viewBox="0 0 50.5 50.5" style="enable-background:new 0 0 50.5 50.5;" xml:space="preserve">
<style type="text/css">
	.st0{fill:#65B4E1;}
</style>
<path class="st0" d="M46.3,39.8h-6.7v-9.4c0.6-0.2,1-0.7,1-1.3c0-0.6-0.4-1.2-1-1.3v-5.9h0.6c0.1,0,0.2,0,0.3-0.1
	c0.1-0.1,0.1-0.2,0.1-0.3c0-0.1,0-0.2,0-0.4c0-1.2,0.1-3.7-1-6.4c-2.7-6.4-6.4-7.1-6.6-7.1c-0.2,0-0.4,0.1-0.4,0.3l-1.2,4.9
	l-20.8,9.6c-0.1,0.1-0.2,0.2-0.2,0.3l0,0.3c0,0,0,0,0,0v8.1H7.9c-0.2,0-0.4,0.2-0.4,0.4v8.4H4.1c-0.2,0-0.4,0.2-0.4,0.4v2.5
	c0,0.2,0.2,0.4,0.4,0.4h42.2c0.2,0,0.4-0.2,0.4-0.4v-2.5C46.7,40,46.5,39.8,46.3,39.8z M21,39.8l3.6-4.6l3.6,4.6H21z M25.4,34.2
	l1.9-2.5c0.7,3,1.3,5.5,1.7,7.1L25.4,34.2z M24.6,33.1L22.9,31l1.7-2.2l1.7,2.2L24.6,33.1z M25.4,27.8l0.8-1c0.2,1,0.5,2,0.7,2.9
	L25.4,27.8z M24.6,26.8l-1.2-1.6c0.4-1.7,0.8-3.4,1.2-5c0.4,1.6,0.8,3.3,1.2,5L24.6,26.8z M23,26.8l0.8,1l-1.5,1.9
	C22.6,28.8,22.8,27.8,23,26.8z M21.9,31.7l1.9,2.5l-3.6,4.7C20.6,37.2,21.2,34.6,21.9,31.7z M39.9,29.1c0,0.4-0.3,0.6-0.6,0.6
	c-0.4,0-0.6-0.3-0.6-0.6c0-0.4,0.3-0.6,0.6-0.6C39.6,28.5,39.9,28.8,39.9,29.1z M38.9,27.8c-0.6,0.2-1,0.7-1,1.3
	c0,0.6,0.4,1.2,1,1.3v9.4h-8.4c-0.3-1.6-1.4-6.2-4.8-20.3l7.8-3.7l4.7,5.9c0.1,0.1,0.2,0.1,0.3,0.1h0.4V27.8z M11.2,26.4l12-5.7
	c-3.1,13.1-4.2,17.5-4.5,19.1H14v-8.4c0-0.2-0.2-0.4-0.4-0.4h-2.5V26.4z"/>
</svg>
