<?xml version="1.0" encoding="UTF-8"?>
<svg xmlns="http://www.w3.org/2000/svg" width="50.46" height="50.46" version="1.1" viewBox="0 0 50.46 50.46">
  <!-- Generator: Adobe Illustrator 28.7.1, SVG Export Plug-In . SVG Version: 1.2.0 Build 142)  -->
  <g>
    <g id="Capa_2">
      <path d="M42.003,40.627c-.278-.281-.664-.456-1.103-.465-.216-.005-.433-.005-.654-.002h-.222v-.004c-.005-.054-.009-.098-.01-.14v-.893c0-.535.002-1.071-.002-1.606-.003-.508-.233-.737-.746-.743-.152-.002-.306,0-.458,0h-.146c-.007-.021-.014-.042-.014-.049-.002-4.114-.004-8.229,0-12.343,0-.063.028-.143.04-.155.517-.235.753-.688.98-1.127l.073-.139c.98-1.854,1.189-3.603.639-5.344-.715-2.254-1.382-4.456-2.117-6.893-.38-1.262-1.049-2.256-1.988-2.954-.522-.388-1.098-.719-1.653-1.038-.25-.144-1.015-.597-1.502-.438-.65.134-1.222,1.034-.881,2.145.301.982.6,1.965.898,2.949l.7,2.305-.038.014c-.069.026-.127.047-.187.065l-4.403,1.346c-5.429,1.659-10.856,3.318-16.281,4.984-.171.053-.265.062-.321.03-.057-.03-.103-.111-.146-.255-.231-.79-.943-1.171-1.765-.948-.265.072-.526.153-.811.24-.979.304-1.352,1.014-1.051,2l.273.902c.338,1.117.687,2.272,1.057,3.401.11.337.336.67.588.871.182.144.411.204.654.268.078.021.157.042.236.065v7.294h-.103c-.124,0-.244,0-.362,0-.691,0-.881.188-.881.869,0,1.11,0,2.22,0,3.33v1.991s-.229,0-.229,0c-.229-.003-.443-.004-.658.002-.867.017-1.532.681-1.547,1.544-.006.363-.005.727-.004,1.09v.418c0,.086.013.139.018.209v.166c0,.338.274.612.612.612h33.5c.338,0,.612-.274.612-.612v-1.667c0-.518-.235-.979-.599-1.295ZM12.897,26.544c0-.214.047-.291.23-.37.629-.275.947-.949.773-1.638-.021-.085-.046-.168-.075-.267l-.01-.032,8.594-2.625v1.512h-.109c-.16-.001-.317-.002-.478.002-.476.013-.688.21-.733.681l-.815,8.544c-.243,2.544-.487,5.087-.732,7.631-.005.051-.018.101-.031.152,0,.004-.002.009-.003.013h-5.27v-.303c0-1.677,0-3.354,0-5.031,0-.684-.159-.841-.853-.843-.118-.002-.236,0-.364,0h-.117v-1.724c0-1.9.002-3.801-.006-5.701ZM26.346,24.397l-1.696,2.362-1.713-2.362h3.409ZM23.685,21.026c.035-.521.448-.885.991-.885.021,0,.041,0,.062.002.522.026.909.443.918.992.008.475.006.95.004,1.433v.533h-1.986c0-.195-.004-.388-.007-.58-.007-.516-.015-1.003.018-1.495ZM23.844,35.051l-2.949,3.708.638-6.673,2.312,2.965ZM22.701,31.579l1.949-2.708.278.384c.556.77,1.096,1.517,1.63,2.267.011.02.01.083,0,.102-.58.742-1.166,1.479-1.771,2.241l-.151.19-1.935-2.476ZM24.624,36.052l3.188,4.087h-6.436l3.247-4.087ZM25.415,35.058l2.289-2.878.587,6.562c-.952-1.219-1.903-2.438-2.876-3.684ZM28.187,23.731c-.033-.367-.268-.581-.66-.602-.086-.005-.172-.006-.26-.006-.108,0-.223.002-.338.003-.032-.348-.025-.699-.02-1.038.011-.589.022-1.197-.164-1.802l8.329-2.547.141.456c.193.625.385,1.245.574,1.865.095.309.188.619.281.928.219.73.446,1.484.69,2.221.063.192.185.361.301.524.062.086.123.172.176.261l.042.069c.06.096.121.195.121.275.009,3.775.008,7.55.007,11.324v.943c0,.044-.004.088-.008.144l-.002.025h-.302c-.928,0-1.022.098-1.022,1.041v2.315h-6.413l-.069-.744c-.05-.54-.101-1.083-.149-1.625-.141-1.547-.279-3.093-.417-4.64-.076-.85-.15-1.698-.226-2.548l-.168-1.911c-.146-1.645-.293-3.289-.444-4.932ZM27.104,25.463l.478,5.348-2.174-2.997,1.696-2.351ZM23.84,27.761c.013.021.013.089.002.108-.65.914-1.307,1.825-1.963,2.735l-.232.323.521-5.486.211.29c.509.703.988,1.364,1.462,2.029ZM9.101,41.922c0-.275.224-.499.498-.499h31.278c.064,0,.123.015.179.036.008.005.021.007.028.012.016.008.029.02.044.029.081.091.095.253.095.55v.816H9.101v-.945ZM38.748,38.015v2.121h-1.421v-2.121h1.421ZM11.279,24.912l-.418-1.365c-.278-.91-.557-1.82-.833-2.73q-.108-.355.263-.473l.198-.062c.145-.044.289-.089.432-.14.072-.025.134-.038.185-.038.039,0,.071.007.099.021.059.032.102.108.129.227.033.143.081.282.127.417.021.062.041.123.061.185.189.597.426.724,1.019.544l1.165-.354c1.596-.486,3.191-.971,4.786-1.459l16.022-4.903c.706-.216.819-.428.604-1.134l-.228-.746c-.5-1.642-1.001-3.284-1.492-4.929-.026-.088-.016-.196-.005-.311.003-.023.005-.046.007-.07.134.003.269-.004.365.039,1.117.498,1.885,1.063,2.415,1.779.404.546.693,1.085.858,1.601.732,2.285,1.43,4.622,2.105,6.882l.191.641c.065.219.089.45.108.636.007.066.013.125.02.175-.029,1.273-.391,2.415-1.137,3.593-.034.054-.145.124-.191.135-.091-.057-.179-.17-.212-.276-.454-1.458-.899-2.919-1.345-4.379l-.233-.764c-.029-.095-.057-.19-.085-.286-.048-.163-.096-.326-.148-.487-.153-.468-.434-.615-.912-.467-1.745.531-3.489,1.063-5.232,1.595l-2.421.741c-.462.143-.939.291-1.413.42-.139.04-.321.028-.442-.029-1.125-.529-2.354-.152-2.987.917-.067.113-.214.226-.347.267-2.477.768-4.956,1.528-7.435,2.288l-1.87.573c-.314.097-.483.204-.564.359-.082.155-.075.353.021.661l.075.234c.095.292.151.469.111.545-.042.08-.238.137-.564.233l-.209.062c-.489.145-.487.143-.643-.366ZM11.562,35.217h1.425v4.92h-1.425v-4.92Z"/>
    </g>
  </g>
</svg>