<?xml version="1.0" encoding="utf-8"?>
<!-- Generator: Adobe Illustrator 24.0.1, SVG Export Plug-In . SVG Version: 6.00 Build 0)  -->
<svg version="1.1" id="Layer_1" xmlns="http://www.w3.org/2000/svg" xmlns:xlink="http://www.w3.org/1999/xlink" x="0px" y="0px"
	 viewBox="0 0 50.5 50.5" style="enable-background:new 0 0 50.5 50.5;" xml:space="preserve">
<path d="M42.564,34.385c-1.035,0-1.841-0.248-2.418-0.746c-0.577-0.497-0.866-1.263-0.866-2.299c0-0.557,0.039-0.994,0.119-1.313
	l4.18-20.837h-9.314l-0.836,4.358c-2.03-3.224-5.513-4.836-10.448-4.836c-3.264,0-6.249,0.806-8.956,2.418s-4.846,3.841-6.418,6.687
	c-1.573,2.846-2.358,6.04-2.358,9.582c0,2.946,0.627,5.503,1.881,7.672c1.254,2.17,2.935,3.832,5.045,4.986
	c2.109,1.155,4.418,1.731,6.925,1.731c4.736,0,8.517-1.731,11.344-5.194c0.557,1.632,1.582,2.906,3.075,3.821
	s3.393,1.373,5.702,1.373c1.791,0,3.482-0.259,5.075-0.776l0.955-7.105C44.534,34.226,43.639,34.385,42.564,34.385z M30.206,29.012
	c-0.797,1.592-1.911,2.836-3.343,3.731c-1.433,0.896-3.066,1.343-4.896,1.343c-2.309,0-4.11-0.636-5.403-1.91
	c-1.294-1.273-1.94-3.005-1.94-5.194c-0.001-2.07,0.396-3.901,1.193-5.493c0.796-1.591,1.91-2.836,3.343-3.732
	c1.433-0.895,3.065-1.343,4.896-1.343c2.308,0,4.109,0.637,5.403,1.911c1.293,1.274,1.941,3.006,1.941,5.194
	C31.4,25.589,31.002,27.42,30.206,29.012z"/>
</svg>
