<?xml version="1.0" encoding="utf-8"?>
<!-- Generator: Adobe Illustrator 24.0.1, SVG Export Plug-In . SVG Version: 6.00 Build 0)  -->
<svg version="1.1" id="Layer_1" xmlns="http://www.w3.org/2000/svg" xmlns:xlink="http://www.w3.org/1999/xlink" x="0px" y="0px"
	 viewBox="0 0 50.5 50.5" style="enable-background:new 0 0 50.5 50.5;" xml:space="preserve">
<g>
	<path d="M24.874,28.281c0.089,0.134,0.233,0.202,0.376,0.202s0.287-0.067,0.376-0.202L38.269,9.238
		c0.049-0.074,0.087-0.152,0.12-0.232H35.25l-9.624,14.496c-0.089,0.134-0.233,0.202-0.376,0.202s-0.287-0.067-0.376-0.202
		L15.25,9.006h-3.138c0.033,0.079,0.07,0.158,0.12,0.232L24.874,28.281z"/>
	<path d="M25.25,32.321L9.771,9.006h-1.2l16.263,24.496c0.092,0.139,0.248,0.222,0.416,0.222c0.167,0,0.324-0.083,0.416-0.222
		L41.927,9.006h-1.198L25.25,32.321z"/>
	<path d="M47.145,7.981c-0.025-0.092-0.06-0.189-0.102-0.284c-0.02-0.048-0.043-0.096-0.067-0.14
		c-0.022-0.041-0.048-0.083-0.076-0.123c-0.051-0.079-0.106-0.153-0.165-0.222c-0.027-0.032-0.056-0.064-0.083-0.092
		c-0.108-0.11-0.231-0.209-0.365-0.294c-0.035-0.022-0.088-0.052-0.125-0.071c-0.084-0.046-0.198-0.095-0.315-0.134
		c-0.032-0.01-0.096-0.03-0.128-0.038c-0.169-0.042-0.326-0.062-0.485-0.062H29.725c-0.667,0-1.285,0.332-1.653,0.887l-2.822,4.25
		l-2.822-4.251c-0.368-0.555-0.986-0.887-1.653-0.887H5.267c-0.16,0-0.317,0.02-0.48,0.061c-0.039,0.01-0.103,0.029-0.141,0.042
		C4.54,6.659,4.424,6.708,4.316,6.768C4.29,6.782,4.238,6.811,4.214,6.827C4.079,6.911,3.956,7.01,3.849,7.12
		C3.824,7.146,3.797,7.176,3.771,7.206C3.71,7.275,3.65,7.355,3.595,7.442C3.567,7.485,3.54,7.529,3.517,7.573
		C3.495,7.613,3.475,7.656,3.456,7.7C3.417,7.789,3.384,7.88,3.358,7.971c-0.012,0.04-0.022,0.08-0.031,0.118
		C3.299,8.226,3.283,8.367,3.283,8.506v3.388c0,1.037,0.801,1.892,1.817,1.977v0.76c0,1.038,0.801,1.892,1.817,1.977v0.76
		c0,1.037,0.801,1.892,1.817,1.977v0.76c0,1.038,0.801,1.892,1.817,1.977v0.76c0,1.038,0.801,1.892,1.817,1.977v0.76
		c0,1.037,0.801,1.892,1.817,1.977v0.76c0,1.038,0.801,1.892,1.817,1.977v0.76c0,1.038,0.801,1.892,1.817,1.977v0.76
		c0,1.037,0.801,1.892,1.817,1.977v0.76c0,1.038,0.801,1.892,1.817,1.977v0.76c0,1.038,0.801,1.892,1.817,1.977v0.76
		c0,1.094,0.89,1.984,1.984,1.984s1.984-0.89,1.984-1.984v-0.76c1.016-0.085,1.817-0.939,1.817-1.977v-0.76
		c1.016-0.085,1.817-0.939,1.817-1.977v-0.76c1.016-0.085,1.817-0.939,1.817-1.977v-0.76C33.7,32.94,34.5,32.086,34.5,31.048v-0.76
		c1.016-0.085,1.817-0.939,1.817-1.977v-0.76c1.016-0.085,1.817-0.939,1.817-1.977v-0.76c1.016-0.085,1.817-0.939,1.817-1.977v-0.76
		c1.016-0.085,1.817-0.939,1.817-1.977v-0.76c1.016-0.085,1.817-0.939,1.817-1.977v-0.76c1.016-0.085,1.817-0.939,1.817-1.977v-0.76
		c1.016-0.085,1.817-0.939,1.817-1.977V8.506c0-0.139-0.015-0.28-0.045-0.418C47.164,8.054,47.155,8.017,47.145,7.981z
		 M45.733,11.894c0,0.276-0.224,0.5-0.5,0.5c-0.276,0-0.5-0.224-0.5-0.5v-1.732l-0.818,1.231v3.237c0,0.276-0.224,0.5-0.5,0.5
		s-0.5-0.224-0.5-0.5v-1.732l-0.818,1.231v3.237c0,0.276-0.224,0.5-0.5,0.5s-0.5-0.224-0.5-0.5v-1.732l-0.818,1.232v3.237
		c0,0.276-0.224,0.5-0.5,0.5s-0.5-0.224-0.5-0.5v-1.732l-0.818,1.231v3.237c0,0.276-0.224,0.5-0.5,0.5s-0.5-0.224-0.5-0.5v-1.732
		l-0.818,1.231v3.237c0,0.276-0.224,0.5-0.5,0.5s-0.5-0.224-0.5-0.5v-1.732l-0.818,1.232v3.237c0,0.276-0.224,0.5-0.5,0.5
		s-0.5-0.224-0.5-0.5V26.58l-0.818,1.231v3.237c0,0.276-0.224,0.5-0.5,0.5s-0.5-0.224-0.5-0.5v-1.732l-0.818,1.232v3.237
		c0,0.276-0.224,0.5-0.5,0.5s-0.5-0.224-0.5-0.5v-1.732l-0.818,1.231v3.237c0,0.276-0.224,0.5-0.5,0.5s-0.5-0.224-0.5-0.5v-1.732
		l-0.818,1.231v3.237c0,0.276-0.224,0.5-0.5,0.5s-0.5-0.224-0.5-0.5v-1.732l-0.818,1.232v3.237c0,0.276-0.224,0.5-0.5,0.5
		s-0.5-0.224-0.5-0.5v-3.237l-0.818-1.232v1.732c0,0.276-0.224,0.5-0.5,0.5s-0.5-0.224-0.5-0.5v-3.237l-0.818-1.231v1.732
		c0,0.276-0.224,0.5-0.5,0.5s-0.5-0.224-0.5-0.5v-3.237L20.3,32.053v1.732c0,0.276-0.224,0.5-0.5,0.5s-0.5-0.224-0.5-0.5v-3.237
		l-0.818-1.231v1.732c0,0.276-0.224,0.5-0.5,0.5s-0.5-0.224-0.5-0.5v-3.237l-0.818-1.231v1.732c0,0.276-0.224,0.5-0.5,0.5
		s-0.5-0.224-0.5-0.5v-3.237l-0.818-1.231v1.732c0,0.276-0.224,0.5-0.5,0.5s-0.5-0.224-0.5-0.5v-3.237l-0.818-1.231v1.732
		c0,0.276-0.224,0.5-0.5,0.5s-0.5-0.224-0.5-0.5v-3.237l-0.818-1.231v1.732c0,0.276-0.224,0.5-0.5,0.5s-0.5-0.224-0.5-0.5v-3.237
		L9.4,15.635v1.732c0,0.276-0.224,0.5-0.5,0.5s-0.5-0.224-0.5-0.5V14.13l-0.818-1.232v1.732c0,0.276-0.224,0.5-0.5,0.5
		s-0.5-0.224-0.5-0.5v-3.237l-0.818-1.231v1.732c0,0.276-0.224,0.5-0.5,0.5s-0.5-0.224-0.5-0.5V8.506
		c0-0.036,0.004-0.072,0.012-0.106C4.78,8.395,4.783,8.389,4.784,8.384c0.009-0.035,0.021-0.068,0.037-0.099
		C4.824,8.28,4.824,8.275,4.827,8.27c0.003-0.005,0.007-0.009,0.01-0.014c0.017-0.03,0.037-0.058,0.06-0.083
		C4.902,8.167,4.905,8.162,4.91,8.157c0.028-0.028,0.059-0.052,0.092-0.073c0.009-0.005,0.018-0.01,0.027-0.014
		c0.027-0.015,0.055-0.027,0.085-0.037c0.01-0.004,0.021-0.007,0.031-0.01c0.039-0.01,0.079-0.016,0.121-0.016h15.508
		c0.167,0,0.324,0.084,0.416,0.223l4.058,6.114l4.059-6.114c0.093-0.14,0.249-0.223,0.416-0.223h15.508
		c0.042,0,0.082,0.007,0.121,0.016c0.011,0.003,0.021,0.006,0.031,0.01c0.03,0.01,0.058,0.022,0.085,0.037
		c0.009,0.005,0.018,0.009,0.027,0.014c0.034,0.021,0.065,0.045,0.092,0.073c0.005,0.005,0.008,0.01,0.013,0.015
		c0.023,0.025,0.043,0.053,0.06,0.083c0.003,0.005,0.007,0.009,0.01,0.014c0.003,0.005,0.003,0.01,0.006,0.015
		c0.016,0.031,0.028,0.064,0.037,0.099C45.717,8.39,45.72,8.395,45.721,8.4c0.007,0.034,0.012,0.069,0.012,0.106V11.894z"/>
	<path d="M25.25,20.395c0.167,0,0.324-0.085,0.416-0.224l7.412-11.166H31.88l-6.63,9.987l-6.63-9.987h-1.199l7.413,11.166
		C24.926,20.311,25.083,20.395,25.25,20.395z"/>
</g>
</svg>
