<?xml version="1.0" encoding="utf-8"?>
<!-- Generator: Adobe Illustrator 28.0.0, SVG Export Plug-In . SVG Version: 6.00 Build 0)  -->
<svg version="1.1" id="Layer_1" xmlns="http://www.w3.org/2000/svg" xmlns:xlink="http://www.w3.org/1999/xlink" x="0px" y="0px"
	 viewBox="0 0 50.5 50.5" style="enable-background:new 0 0 50.5 50.5;" xml:space="preserve">
<g>
	<path d="M8.346,16.046c0.175,0,0.353-0.046,0.515-0.143L25.727,5.759l16.907,10.089c0.473,0.283,1.088,0.129,1.371-0.347
		c0.283-0.474,0.128-1.088-0.347-1.371L26.237,3.734c-0.316-0.189-0.711-0.188-1.028,0.002l-8.583,5.162V5.077c0-0.552-0.448-1-1-1
		s-1,0.448-1,1v5.024l-6.797,4.088c-0.473,0.285-0.626,0.899-0.341,1.373C7.676,15.874,8.007,16.046,8.346,16.046z"/>
	<path d="M12.039,18.998l0.016,0l0.016,0c0.156,0.003,0.309,0.025,0.461,0.053v-1.023l13.195-7.936l13.304,7.939V31.15h2V17.464
		c0-0.352-0.185-0.678-0.488-0.859L26.237,8.068c-0.316-0.189-0.711-0.188-1.028,0.002l-14.193,8.536
		c-0.3,0.181-0.484,0.506-0.484,0.857v2.005c0.288-0.189,0.604-0.33,0.945-0.405C11.661,19.023,11.85,19.002,12.039,18.998z"/>
	<path d="M31.249,21.48H20.151c-0.552,0-1,0.448-1,1v1.969c0.047-0.017,0.092-0.034,0.154-0.051
		c0.074-0.025,0.149-0.048,0.227-0.063c0.067-0.013,0.135-0.021,0.229-0.028c0.077-0.01,0.154-0.017,0.234-0.017h0.007h0.003
		c0.312,0.002,0.616,0.066,0.901,0.189c0.087,0.037,0.165,0.088,0.246,0.135V23.48h9.098v9.662c0.626-0.177,1.294-0.288,2-0.336
		V22.48C32.249,21.928,31.801,21.48,31.249,21.48z"/>
	<path d="M21.751,35.44c0.183-0.025,0.311-0.193,0.286-0.375c-0.003-0.018-0.007-0.037-0.012-0.055l-0.768-3.068l0.058-1.584
		l0.001-0.03c0.15,0.349,0.273,0.709,0.368,1.075c0.095,0.367,0.161,0.741,0.199,1.119c0.006,0.069,0.026,0.135,0.056,0.194
		c0.011,0.021,0.029,0.036,0.042,0.055c0.024,0.035,0.045,0.072,0.077,0.1c0.02,0.018,0.046,0.028,0.069,0.043
		c0.032,0.021,0.061,0.046,0.097,0.06c0.026,0.01,0.056,0.01,0.085,0.016c0.037,0.008,0.073,0.021,0.112,0.021
		c0.001,0,0.002,0,0.002,0h0.039h0.012c0.148-0.013,0.277-0.085,0.366-0.191c0.089-0.106,0.137-0.246,0.124-0.394
		c-0.001-0.018-0.006-0.072-0.016-0.157c-0.073-0.59-0.417-2.628-1.604-3.563c-0.054-0.042-0.113-0.078-0.17-0.116l0,0
		c-0.036-0.024-0.07-0.051-0.107-0.073c-0.291-0.17-0.625-0.277-1.011-0.289H19.94c-0.521,0.016-0.946,0.204-1.301,0.485
		c-1.354,1.072-1.611,3.571-1.626,3.708c-0.027,0.294,0.187,0.554,0.48,0.585h0.039c0.001,0,0.001,0,0.002,0h0.009
		c0.001,0,0.001,0,0.002,0c0.038,0,0.072-0.013,0.108-0.021c0.03-0.006,0.062-0.006,0.091-0.017
		c0.035-0.014,0.064-0.039,0.095-0.059c0.023-0.016,0.051-0.026,0.071-0.045c0.029-0.027,0.049-0.062,0.071-0.094
		c0.015-0.021,0.035-0.039,0.047-0.062c0.03-0.059,0.049-0.125,0.055-0.195c0.087-0.759,0.298-1.499,0.621-2.191
		c0.004-0.009,0.006-0.018,0.01-0.026l0.101,1.642l-0.823,3.004c-0.053,0.179,0.049,0.368,0.228,0.421
		c0.012,0.004,0.025,0.007,0.038,0.009l0.457,0.078v1.507c0.022,0.002,0.043,0.001,0.066,0.003c0.364,0.039,0.687,0.069,1.018,0.101
		v-1.484c0.143,0,0.285,0,0.446,0c0.004,0,0.007,0,0.012,0v0.241v1.288c0.39,0.033,0.741,0.047,1.084,0.055V35.5L21.751,35.44z"/>
	<path d="M20.621,27.754c0.033-0.018,0.067-0.032,0.098-0.053c0.04-0.026,0.074-0.059,0.111-0.09
		c0.028-0.023,0.059-0.044,0.085-0.069c0.035-0.035,0.065-0.076,0.096-0.115c0.021-0.027,0.046-0.05,0.065-0.079
		c0.025-0.036,0.043-0.077,0.064-0.116c0.006-0.012,0.013-0.023,0.019-0.035c0.012-0.024,0.028-0.046,0.039-0.071
		c0.026-0.061,0.044-0.125,0.061-0.19c0.005-0.019,0.014-0.037,0.018-0.056c0.018-0.086,0.028-0.174,0.029-0.265
		c0.001-0.091-0.008-0.18-0.025-0.266c-0.017-0.086-0.042-0.169-0.075-0.248c-0.066-0.158-0.161-0.301-0.279-0.421
		c-0.118-0.12-0.26-0.217-0.417-0.285c-0.157-0.068-0.33-0.106-0.512-0.107h0c-0.001,0-0.002,0-0.003,0
		c-0.05,0-0.098,0.009-0.147,0.014c-0.04,0.004-0.08,0.004-0.119,0.012c-0.048,0.01-0.093,0.027-0.139,0.042
		c-0.036,0.011-0.073,0.019-0.108,0.033c-0.045,0.019-0.086,0.045-0.128,0.068c-0.032,0.018-0.066,0.032-0.096,0.052
		c-0.038,0.026-0.072,0.057-0.107,0.087c-0.029,0.024-0.061,0.046-0.088,0.073c-0.032,0.032-0.058,0.069-0.087,0.104
		c-0.025,0.03-0.052,0.057-0.075,0.09c-0.028,0.041-0.049,0.087-0.072,0.131c-0.016,0.031-0.036,0.059-0.05,0.092
		c-0.021,0.05-0.034,0.103-0.05,0.156c-0.009,0.03-0.022,0.059-0.029,0.09c-0.018,0.085-0.028,0.174-0.029,0.265v0
		c0,0.003,0,0.006,0,0.009c0,0.09,0.009,0.179,0.026,0.264c0.027,0.134,0.08,0.257,0.144,0.372c0.059,0.106,0.127,0.206,0.212,0.292
		c0.089,0.089,0.19,0.166,0.301,0.227c0.111,0.061,0.232,0.107,0.36,0.133c0.085,0.018,0.174,0.028,0.264,0.028
		c0.001,0,0.002,0,0.003,0c0.05,0,0.098-0.009,0.147-0.014c0.04-0.004,0.081-0.004,0.12-0.012c0.047-0.009,0.091-0.027,0.136-0.041
		c0.037-0.012,0.075-0.019,0.111-0.034C20.54,27.803,20.579,27.777,20.621,27.754z"/>
	<path d="M13.846,38.102v-3.938l0.605-0.105c0.016-0.008,0.04-0.008,0.056-0.016c0.25-0.073,0.387-0.339,0.315-0.589l-1.146-4.188
		l0.137-2.292c0.46,0.976,0.75,2.025,0.871,3.098c0.04,0.387,0.363,0.686,0.758,0.686h0.065c0.21-0.02,0.389-0.148,0.512-0.324
		s0.19-0.399,0.173-0.609l0,0v0c-0.01-0.099-0.12-1.121-0.511-2.277c-0.147-0.433-0.333-0.885-0.568-1.314
		c-0.392-0.715-0.921-1.367-1.631-1.762c-0.071-0.04-0.153-0.062-0.228-0.096l0,0c-0.136-0.063-0.268-0.132-0.416-0.175
		c-0.229-0.067-0.474-0.108-0.737-0.116h-0.105c-0.525,0.016-0.977,0.164-1.378,0.386c-0.426,0.237-0.787,0.57-1.093,0.956
		c-0.407,0.515-0.716,1.125-0.948,1.726c-0.058,0.15-0.111,0.3-0.16,0.448c-0.098,0.296-0.178,0.583-0.244,0.85
		c-0.033,0.133-0.062,0.261-0.088,0.382c-0.051,0.242-0.09,0.457-0.117,0.631c-0.014,0.087-0.025,0.164-0.034,0.23
		c-0.018,0.131-0.027,0.215-0.029,0.24c-0.032,0.42,0.266,0.783,0.686,0.823h0.065c0.395,0,0.718-0.299,0.759-0.686
		c0.121-1.073,0.42-2.122,0.871-3.098l0.137,2.292L9.28,33.454c-0.036,0.125-0.02,0.254,0.036,0.361
		c0.056,0.107,0.153,0.192,0.278,0.228c0.016,0.008,0.04,0.008,0.057,0.016l0.605,0.105v2.604c0.27,0.176,0.541,0.357,0.813,0.574
		c0.122,0.098,0.365,0.259,0.704,0.457v-3.474h0.557v3.776c0,0.002,0.001,0.004,0.001,0.007c0.347,0.184,0.752,0.384,1.206,0.589
		C13.72,38.559,13.846,38.35,13.846,38.102z"/>
	<path d="M12.755,23.514c0.635-0.28,1.081-0.907,1.096-1.647c0-0.013,0.004-0.024,0.004-0.037v0c0-0.75-0.454-1.396-1.1-1.679
		c-0.215-0.094-0.452-0.148-0.7-0.152C11.93,20,11.808,20.015,11.69,20.041c-0.353,0.077-0.669,0.256-0.914,0.504
		c-0.082,0.083-0.156,0.173-0.22,0.27c-0.195,0.291-0.308,0.64-0.308,1.015c0,0.334,0.095,0.642,0.25,0.911
		c0.079,0.137,0.168,0.267,0.279,0.378c0.245,0.248,0.561,0.427,0.914,0.506c0.118,0.026,0.24,0.042,0.365,0.045
		C12.303,23.664,12.54,23.609,12.755,23.514z"/>
	<path d="M44.898,32.15h-6.742c-0.442,0-0.8,0.358-0.8,0.8v1.328c-0.727-0.136-1.877-0.31-3.637-0.475
		c-0.279-0.026-0.553-0.038-0.82-0.038c-3.143,0-5.466,1.698-7.364,3.088l-0.306,0.224c-1.157,0.843-2.265,1.099-3.624,1.099
		c-0.853,0-1.805-0.101-2.931-0.22c-0.195-0.02-0.383-0.03-0.565-0.03c-0.936,0-1.708,0.263-2.301,0.791
		c-0.559,0.499-0.819,1.114-0.945,1.596c-2.328-0.832-3.976-1.833-4.42-2.188c-1.186-0.947-2.309-1.431-3.259-1.431
		c-0.565,0-1.069,0.172-1.488,0.519c-0.477,0.395-0.75,0.908-0.79,1.485c-0.08,1.151,0.802,2.148,0.879,2.232
		c0.12,0.143,3.004,3.51,9.265,4.986c3.939,0.93,7.909,1.189,11.119,1.189c2.962,0,5.278-0.222,6.322-0.343
		c2.346-0.273,3.893-0.817,4.865-1.299v0.842c0,0.441,0.358,0.8,0.8,0.8h6.742c0.442,0,0.8-0.358,0.8-0.8V32.95
		C45.698,32.508,45.34,32.15,44.898,32.15z M38.956,33.75h5.142v11.756h-5.142V33.75z M31.324,45.274
		c-1.196,0.11-3.002,0.231-5.16,0.231c-3.108,0-6.945-0.251-10.746-1.146c-5.709-1.347-8.381-4.43-8.427-4.482
		c-0.171-0.19-0.516-0.703-0.488-1.072c0.007-0.091,0.029-0.229,0.206-0.375c0.129-0.107,0.294-0.154,0.483-0.154
		c0.641,0,1.555,0.541,2.254,1.099c0.067,0.053,0.149,0.115,0.246,0.183c1.461,1.026,6.3,3.612,12.013,3.612
		c0.873,0,1.767-0.06,2.672-0.196c4.541-0.681,6.337-2.434,6.412-2.508c0.31-0.311,0.31-0.81,0.002-1.123
		c-0.156-0.159-0.362-0.238-0.569-0.238c-0.202,0-0.404,0.075-0.56,0.225c-0.015,0.015-1.563,1.469-5.522,2.062
		c-0.408,0.061-0.814,0.105-1.217,0.134c-0.403,0.029-0.802,0.042-1.197,0.042c-0.96,0-1.894-0.08-2.787-0.217
		c-0.894-0.136-1.747-0.329-2.546-0.553c0.057-0.26,0.188-0.63,0.491-0.895c0.285-0.25,0.693-0.378,1.221-0.378
		c0.131,0,0.27,0.008,0.417,0.024c1.132,0.12,2.147,0.228,3.098,0.228c1.62,0,3.053-0.312,4.553-1.407l0.309-0.226
		c1.869-1.37,3.795-2.78,6.397-2.78c0.225,0,0.456,0.011,0.692,0.033c1.996,0.187,3.173,0.387,3.787,0.513v7.703
		c-0.528,0.369-2.019,1.208-5.049,1.56C32.054,45.202,31.722,45.237,31.324,45.274z"/>
	<path d="M41.513,35.692c-0.442,0-0.8,0.358-0.8,0.8v3.601c0,0.441,0.358,0.8,0.8,0.8s0.8-0.358,0.8-0.8v-3.601
		C42.313,36.05,41.955,35.692,41.513,35.692z"/>
	<path d="M40.773,43.018c0.04,0.1,0.1,0.189,0.17,0.26c0.08,0.07,0.17,0.13,0.26,0.17c0.1,0.04,0.2,0.06,0.31,0.06
		c0.21,0,0.41-0.079,0.56-0.229c0.08-0.07,0.14-0.16,0.18-0.26c0.04-0.101,0.06-0.2,0.06-0.311c0-0.21-0.09-0.42-0.23-0.56
		c-0.15-0.15-0.36-0.225-0.57-0.225s-0.42,0.075-0.57,0.225c-0.15,0.149-0.23,0.35-0.23,0.56
		C40.713,42.818,40.733,42.917,40.773,43.018z"/>
</g>
</svg>
