<?xml version="1.0" encoding="utf-8"?>
<!-- Generator: Adobe Illustrator 24.2.1, SVG Export Plug-In . SVG Version: 6.00 Build 0)  -->
<svg version="1.1" id="Layer_1" xmlns="http://www.w3.org/2000/svg" xmlns:xlink="http://www.w3.org/1999/xlink" x="0px" y="0px"
	 viewBox="0 0 50.5 50.5" style="enable-background:new 0 0 50.5 50.5;" xml:space="preserve">
<path d="M38.2,23.3c-0.3-0.3-0.7-0.5-1.3-0.7l-0.5-0.1c-0.2,0-0.3-0.1-0.4-0.1s-0.2-0.1-0.2-0.2s-0.1-0.1-0.1-0.2
	c0-0.2,0.1-0.3,0.3-0.4s0.5-0.1,1-0.1c0.2,0,0.5,0,0.7,0c0.3,0,0.5,0.1,0.7,0.1v-1.3c-0.4-0.1-0.8-0.1-1.2-0.2v-0.9h-1.5v1
	c-0.5,0.1-0.9,0.4-1.2,0.7C34.2,21.1,34,21.5,34,22c0,0.5,0.1,0.9,0.4,1.2s0.7,0.5,1.3,0.6l0.5,0.1c0.2,0.1,0.4,0.1,0.5,0.2
	c0.1,0,0.2,0.1,0.2,0.2c0,0.1,0.1,0.2,0.1,0.3c0,0.2-0.1,0.3-0.2,0.4c-0.2,0.1-0.4,0.1-0.8,0.1c-0.3,0-0.5,0-0.9-0.1
	s-0.6-0.1-0.9-0.2v1.3c0.4,0.1,0.9,0.2,1.4,0.2v0.9h1.5v-1c0.5-0.1,0.9-0.4,1.1-0.7c0.3-0.3,0.4-0.7,0.4-1.2
	C38.6,24,38.5,23.6,38.2,23.3z M26.7,21.6c-0.8,0-1.5,0.7-1.5,1.5s0.7,1.5,1.5,1.5s1.5-0.7,1.5-1.5S27.6,21.6,26.7,21.6z M27.3,22.9
	c-0.2,0-0.4-0.2-0.4-0.4c0-0.2,0.2-0.4,0.4-0.4c0.2,0,0.4,0.2,0.4,0.4C27.6,22.7,27.5,22.9,27.3,22.9z M26.7,21.6
	c-0.8,0-1.5,0.7-1.5,1.5s0.7,1.5,1.5,1.5s1.5-0.7,1.5-1.5S27.6,21.6,26.7,21.6z M27.3,22.9c-0.2,0-0.4-0.2-0.4-0.4
	c0-0.2,0.2-0.4,0.4-0.4c0.2,0,0.4,0.2,0.4,0.4C27.6,22.7,27.5,22.9,27.3,22.9z M26.7,21.6c-0.8,0-1.5,0.7-1.5,1.5s0.7,1.5,1.5,1.5
	s1.5-0.7,1.5-1.5S27.6,21.6,26.7,21.6z M27.3,22.9c-0.2,0-0.4-0.2-0.4-0.4c0-0.2,0.2-0.4,0.4-0.4c0.2,0,0.4,0.2,0.4,0.4
	C27.6,22.7,27.5,22.9,27.3,22.9z M26.7,21.6c-0.8,0-1.5,0.7-1.5,1.5s0.7,1.5,1.5,1.5s1.5-0.7,1.5-1.5S27.6,21.6,26.7,21.6z
	 M27.3,22.9c-0.2,0-0.4-0.2-0.4-0.4c0-0.2,0.2-0.4,0.4-0.4c0.2,0,0.4,0.2,0.4,0.4C27.6,22.7,27.5,22.9,27.3,22.9z M26.7,21.6
	c-0.8,0-1.5,0.7-1.5,1.5s0.7,1.5,1.5,1.5s1.5-0.7,1.5-1.5S27.6,21.6,26.7,21.6z M27.3,22.9c-0.2,0-0.4-0.2-0.4-0.4
	c0-0.2,0.2-0.4,0.4-0.4c0.2,0,0.4,0.2,0.4,0.4C27.6,22.7,27.5,22.9,27.3,22.9z M26.7,21.6c-0.8,0-1.5,0.7-1.5,1.5s0.7,1.5,1.5,1.5
	s1.5-0.7,1.5-1.5S27.6,21.6,26.7,21.6z M27.3,22.9c-0.2,0-0.4-0.2-0.4-0.4c0-0.2,0.2-0.4,0.4-0.4c0.2,0,0.4,0.2,0.4,0.4
	C27.6,22.7,27.5,22.9,27.3,22.9z M26.8,19c-2.3,0-4.1,1.8-4.1,4.1c0,2,1.5,3.7,3.4,4.1c0,0,0.1,0,0.1,0.1c0.1,0.2,0.3,0.5,0.4,0.6
	c0.1,0.1,0.2,0.2,0.3,0.1c0.1,0,0.1-0.1,0.1-0.1c0.1-0.1,0.2-0.4,0.4-0.6c0,0,0.1-0.1,0.1-0.1c1.9-0.3,3.4-2,3.4-4.1
	C30.9,20.8,29,19,26.8,19z M26.7,25.3c-1.2,0-2.3-1-2.3-2.3s1-2.3,2.3-2.3c1.3,0,2.3,1,2.3,2.3S28,25.3,26.7,25.3z M26.7,21.6
	c-0.8,0-1.5,0.7-1.5,1.5s0.7,1.5,1.5,1.5s1.5-0.7,1.5-1.5S27.6,21.6,26.7,21.6z M27.3,22.9c-0.2,0-0.4-0.2-0.4-0.4
	c0-0.2,0.2-0.4,0.4-0.4c0.2,0,0.4,0.2,0.4,0.4C27.6,22.7,27.5,22.9,27.3,22.9z M38.2,23.3c-0.3-0.3-0.7-0.5-1.3-0.7l-0.5-0.1
	c-0.2,0-0.3-0.1-0.4-0.1s-0.2-0.1-0.2-0.2s-0.1-0.1-0.1-0.2c0-0.2,0.1-0.3,0.3-0.4s0.5-0.1,1-0.1c0.2,0,0.5,0,0.7,0
	c0.3,0,0.5,0.1,0.7,0.1v-1.3c-0.4-0.1-0.8-0.1-1.2-0.2v-0.9h-1.5v1c-0.5,0.1-0.9,0.4-1.2,0.7C34.2,21.1,34,21.5,34,22
	c0,0.5,0.1,0.9,0.4,1.2s0.7,0.5,1.3,0.6l0.5,0.1c0.2,0.1,0.4,0.1,0.5,0.2c0.1,0,0.2,0.1,0.2,0.2c0,0.1,0.1,0.2,0.1,0.3
	c0,0.2-0.1,0.3-0.2,0.4c-0.2,0.1-0.4,0.1-0.8,0.1c-0.3,0-0.5,0-0.9-0.1s-0.6-0.1-0.9-0.2v1.3c0.4,0.1,0.9,0.2,1.4,0.2v0.9h1.5v-1
	c0.5-0.1,0.9-0.4,1.1-0.7c0.3-0.3,0.4-0.7,0.4-1.2C38.6,24,38.5,23.6,38.2,23.3z M26.7,21.6c-0.8,0-1.5,0.7-1.5,1.5s0.7,1.5,1.5,1.5
	s1.5-0.7,1.5-1.5S27.6,21.6,26.7,21.6z M27.3,22.9c-0.2,0-0.4-0.2-0.4-0.4c0-0.2,0.2-0.4,0.4-0.4c0.2,0,0.4,0.2,0.4,0.4
	C27.6,22.7,27.5,22.9,27.3,22.9z M26.7,21.6c-0.8,0-1.5,0.7-1.5,1.5s0.7,1.5,1.5,1.5s1.5-0.7,1.5-1.5S27.6,21.6,26.7,21.6z
	 M27.3,22.9c-0.2,0-0.4-0.2-0.4-0.4c0-0.2,0.2-0.4,0.4-0.4c0.2,0,0.4,0.2,0.4,0.4C27.6,22.7,27.5,22.9,27.3,22.9z M26.8,19
	c-2.3,0-4.1,1.8-4.1,4.1c0,2,1.5,3.7,3.4,4.1c0,0,0.1,0,0.1,0.1c0.1,0.2,0.3,0.5,0.4,0.6c0.1,0.1,0.2,0.2,0.3,0.1
	c0.1,0,0.1-0.1,0.1-0.1c0.1-0.1,0.2-0.4,0.4-0.6c0,0,0.1-0.1,0.1-0.1c1.9-0.3,3.4-2,3.4-4.1C30.9,20.8,29,19,26.8,19z M26.7,25.3
	c-1.2,0-2.3-1-2.3-2.3s1-2.3,2.3-2.3c1.3,0,2.3,1,2.3,2.3S28,25.3,26.7,25.3z M26.7,21.6c-0.8,0-1.5,0.7-1.5,1.5s0.7,1.5,1.5,1.5
	s1.5-0.7,1.5-1.5S27.6,21.6,26.7,21.6z M27.3,22.9c-0.2,0-0.4-0.2-0.4-0.4c0-0.2,0.2-0.4,0.4-0.4c0.2,0,0.4,0.2,0.4,0.4
	C27.6,22.7,27.5,22.9,27.3,22.9z M26.7,21.6c-0.8,0-1.5,0.7-1.5,1.5s0.7,1.5,1.5,1.5s1.5-0.7,1.5-1.5S27.6,21.6,26.7,21.6z
	 M27.3,22.9c-0.2,0-0.4-0.2-0.4-0.4c0-0.2,0.2-0.4,0.4-0.4c0.2,0,0.4,0.2,0.4,0.4C27.6,22.7,27.5,22.9,27.3,22.9z M26.7,21.6
	c-0.8,0-1.5,0.7-1.5,1.5s0.7,1.5,1.5,1.5s1.5-0.7,1.5-1.5S27.6,21.6,26.7,21.6z M27.3,22.9c-0.2,0-0.4-0.2-0.4-0.4
	c0-0.2,0.2-0.4,0.4-0.4c0.2,0,0.4,0.2,0.4,0.4C27.6,22.7,27.5,22.9,27.3,22.9z M26.8,19c-2.3,0-4.1,1.8-4.1,4.1c0,2,1.5,3.7,3.4,4.1
	c0,0,0.1,0,0.1,0.1c0.1,0.2,0.3,0.5,0.4,0.6c0.1,0.1,0.2,0.2,0.3,0.1c0.1,0,0.1-0.1,0.1-0.1c0.1-0.1,0.2-0.4,0.4-0.6
	c0,0,0.1-0.1,0.1-0.1c1.9-0.3,3.4-2,3.4-4.1C30.9,20.8,29,19,26.8,19z M26.7,25.3c-1.2,0-2.3-1-2.3-2.3s1-2.3,2.3-2.3
	c1.3,0,2.3,1,2.3,2.3S28,25.3,26.7,25.3z M26.7,21.6c-0.8,0-1.5,0.7-1.5,1.5s0.7,1.5,1.5,1.5s1.5-0.7,1.5-1.5S27.6,21.6,26.7,21.6z
	 M27.3,22.9c-0.2,0-0.4-0.2-0.4-0.4c0-0.2,0.2-0.4,0.4-0.4c0.2,0,0.4,0.2,0.4,0.4C27.6,22.7,27.5,22.9,27.3,22.9z M38.2,23.3
	c-0.3-0.3-0.7-0.5-1.3-0.7l-0.5-0.1c-0.2,0-0.3-0.1-0.4-0.1s-0.2-0.1-0.2-0.2s-0.1-0.1-0.1-0.2c0-0.2,0.1-0.3,0.3-0.4s0.5-0.1,1-0.1
	c0.2,0,0.5,0,0.7,0c0.3,0,0.5,0.1,0.7,0.1v-1.3c-0.4-0.1-0.8-0.1-1.2-0.2v-0.9h-1.5v1c-0.5,0.1-0.9,0.4-1.2,0.7
	C34.2,21.1,34,21.5,34,22c0,0.5,0.1,0.9,0.4,1.2s0.7,0.5,1.3,0.6l0.5,0.1c0.2,0.1,0.4,0.1,0.5,0.2c0.1,0,0.2,0.1,0.2,0.2
	c0,0.1,0.1,0.2,0.1,0.3c0,0.2-0.1,0.3-0.2,0.4c-0.2,0.1-0.4,0.1-0.8,0.1c-0.3,0-0.5,0-0.9-0.1s-0.6-0.1-0.9-0.2v1.3
	c0.4,0.1,0.9,0.2,1.4,0.2v0.9h1.5v-1c0.5-0.1,0.9-0.4,1.1-0.7c0.3-0.3,0.4-0.7,0.4-1.2C38.6,24,38.5,23.6,38.2,23.3z M38.2,23.3
	c-0.3-0.3-0.7-0.5-1.3-0.7l-0.5-0.1c-0.2,0-0.3-0.1-0.4-0.1s-0.2-0.1-0.2-0.2s-0.1-0.1-0.1-0.2c0-0.2,0.1-0.3,0.3-0.4s0.5-0.1,1-0.1
	c0.2,0,0.5,0,0.7,0c0.3,0,0.5,0.1,0.7,0.1v-1.3c-0.4-0.1-0.8-0.1-1.2-0.2v-0.9h-1.5v1c-0.5,0.1-0.9,0.4-1.2,0.7
	C34.2,21.1,34,21.5,34,22c0,0.5,0.1,0.9,0.4,1.2s0.7,0.5,1.3,0.6l0.5,0.1c0.2,0.1,0.4,0.1,0.5,0.2c0.1,0,0.2,0.1,0.2,0.2
	c0,0.1,0.1,0.2,0.1,0.3c0,0.2-0.1,0.3-0.2,0.4c-0.2,0.1-0.4,0.1-0.8,0.1c-0.3,0-0.5,0-0.9-0.1s-0.6-0.1-0.9-0.2v1.3
	c0.4,0.1,0.9,0.2,1.4,0.2v0.9h1.5v-1c0.5-0.1,0.9-0.4,1.1-0.7c0.3-0.3,0.4-0.7,0.4-1.2C38.6,24,38.5,23.6,38.2,23.3z M26.8,19
	c-2.3,0-4.1,1.8-4.1,4.1c0,2,1.5,3.7,3.4,4.1c0,0,0.1,0,0.1,0.1c0.1,0.2,0.3,0.5,0.4,0.6c0.1,0.1,0.2,0.2,0.3,0.1
	c0.1,0,0.1-0.1,0.1-0.1c0.1-0.1,0.2-0.4,0.4-0.6c0,0,0.1-0.1,0.1-0.1c1.9-0.3,3.4-2,3.4-4.1C30.9,20.8,29,19,26.8,19z M26.7,25.3
	c-1.2,0-2.3-1-2.3-2.3s1-2.3,2.3-2.3c1.3,0,2.3,1,2.3,2.3S28,25.3,26.7,25.3z M26.7,21.6c-0.8,0-1.5,0.7-1.5,1.5s0.7,1.5,1.5,1.5
	s1.5-0.7,1.5-1.5S27.6,21.6,26.7,21.6z M27.3,22.9c-0.2,0-0.4-0.2-0.4-0.4c0-0.2,0.2-0.4,0.4-0.4c0.2,0,0.4,0.2,0.4,0.4
	C27.6,22.7,27.5,22.9,27.3,22.9z M39.1,15.8H30v-1.3c0.6-0.4,1-1.1,1-1.8v-1.4c0-1.2-1-2.2-2.2-2.2H10.4c-1.2,0-2.2,1-2.2,2.2v1.4
	c0,0.8,0.4,1.4,1,1.8v23.6c-0.6,0.4-1,1.1-1,1.8v1.4c0,1.2,1,2.2,2.2,2.2h18.3c1.2,0,2.2-1,2.2-2.2v-1.4c0-0.8-0.4-1.4-1-1.8v-7h9.1
	c1.6,0,3-1.3,3-3v-9.4C42.1,17.1,40.8,15.8,39.1,15.8z M10.1,11.3c0-0.2,0.1-0.3,0.3-0.3h18.3c0.2,0,0.3,0.1,0.3,0.3v1.4
	c0,0.2-0.1,0.3-0.3,0.3H10.4c-0.2,0-0.3-0.1-0.3-0.3V11.3z M18.1,22c-2.3,0.5-4,2.2-4,4.3c0,2.5,2.4,4.5,5.4,4.5
	c0.9,0,1.7-0.2,2.4-0.5c1,0.5,2.2,0.9,3.5,0.9h2.6v1h-17V20.4h7.5C18.4,20.9,18.2,21.4,18.1,22z M20.1,28.8c-0.2,0-0.3,0-0.5,0
	c-1.9,0-3.5-1.2-3.5-2.5c0-1,0.8-1.9,2-2.3C18.1,25.9,18.9,27.5,20.1,28.8z M28.1,34v3.6h-17V34H28.1z M11.1,18.5v-3.6h17v0.9h-2.6
	c-2.3,0-4.4,1.1-5.8,2.8H11.1z M29,41.3c0,0.2-0.1,0.3-0.3,0.3H10.4c-0.2,0-0.3-0.2-0.3-0.3v-1.4c0-0.2,0.1-0.3,0.3-0.3h18.3
	c0.2,0,0.3,0.1,0.3,0.3C29,39.9,29,41.3,29,41.3z M40.5,28.1c0,0.8-0.6,1.4-1.4,1.4H25.4c-3.2,0-5.8-2.6-5.8-5.8v-0.5
	c0-3.2,2.6-5.8,5.8-5.8h13.7c0.8,0,1.4,0.6,1.4,1.4V28.1z M36.8,22.6l-0.5-0.1c-0.2,0-0.3-0.1-0.4-0.1s-0.2-0.1-0.2-0.2
	s-0.1-0.1-0.1-0.2c0-0.2,0.1-0.3,0.3-0.4s0.5-0.1,1-0.1c0.2,0,0.5,0,0.7,0c0.3,0,0.5,0.1,0.7,0.1v-1.3c-0.4-0.1-0.8-0.1-1.2-0.2
	v-0.9h-1.5v1c-0.5,0.1-0.9,0.4-1.2,0.7C34.2,21.1,34,21.5,34,22c0,0.5,0.1,0.9,0.4,1.2s0.7,0.5,1.3,0.6l0.5,0.1
	c0.2,0.1,0.4,0.1,0.5,0.2c0.1,0,0.2,0.1,0.2,0.2c0,0.1,0.1,0.2,0.1,0.3c0,0.2-0.1,0.3-0.2,0.4c-0.2,0.1-0.4,0.1-0.8,0.1
	c-0.3,0-0.5,0-0.9-0.1s-0.6-0.1-0.9-0.2v1.3c0.4,0.1,0.9,0.2,1.4,0.2v0.9h1.5v-1c0.5-0.1,0.9-0.4,1.1-0.7c0.3-0.3,0.4-0.7,0.4-1.2
	c0-0.5-0.1-0.9-0.4-1.2C37.9,23,37.4,22.8,36.8,22.6z M26.8,19c-2.3,0-4.1,1.8-4.1,4.1c0,2,1.5,3.7,3.4,4.1c0,0,0.1,0,0.1,0.1
	c0.1,0.2,0.3,0.5,0.4,0.6c0.1,0.1,0.2,0.2,0.3,0.1c0.1,0,0.1-0.1,0.1-0.1c0.1-0.1,0.2-0.4,0.4-0.6c0,0,0.1-0.1,0.1-0.1
	c1.9-0.3,3.4-2,3.4-4.1C30.9,20.8,29,19,26.8,19z M26.7,25.3c-1.2,0-2.3-1-2.3-2.3s1-2.3,2.3-2.3c1.3,0,2.3,1,2.3,2.3
	S28,25.3,26.7,25.3z M26.7,21.6c-0.8,0-1.5,0.7-1.5,1.5s0.7,1.5,1.5,1.5s1.5-0.7,1.5-1.5S27.6,21.6,26.7,21.6z M27.3,22.9
	c-0.2,0-0.4-0.2-0.4-0.4c0-0.2,0.2-0.4,0.4-0.4c0.2,0,0.4,0.2,0.4,0.4C27.6,22.7,27.5,22.9,27.3,22.9z M26.7,21.6
	c-0.8,0-1.5,0.7-1.5,1.5s0.7,1.5,1.5,1.5s1.5-0.7,1.5-1.5S27.6,21.6,26.7,21.6z M27.3,22.9c-0.2,0-0.4-0.2-0.4-0.4
	c0-0.2,0.2-0.4,0.4-0.4c0.2,0,0.4,0.2,0.4,0.4C27.6,22.7,27.5,22.9,27.3,22.9z M26.7,21.6c-0.8,0-1.5,0.7-1.5,1.5s0.7,1.5,1.5,1.5
	s1.5-0.7,1.5-1.5S27.6,21.6,26.7,21.6z M27.3,22.9c-0.2,0-0.4-0.2-0.4-0.4c0-0.2,0.2-0.4,0.4-0.4c0.2,0,0.4,0.2,0.4,0.4
	C27.6,22.7,27.5,22.9,27.3,22.9z M26.8,19c-2.3,0-4.1,1.8-4.1,4.1c0,2,1.5,3.7,3.4,4.1c0,0,0.1,0,0.1,0.1c0.1,0.2,0.3,0.5,0.4,0.6
	c0.1,0.1,0.2,0.2,0.3,0.1c0.1,0,0.1-0.1,0.1-0.1c0.1-0.1,0.2-0.4,0.4-0.6c0,0,0.1-0.1,0.1-0.1c1.9-0.3,3.4-2,3.4-4.1
	C30.9,20.8,29,19,26.8,19z M26.7,25.3c-1.2,0-2.3-1-2.3-2.3s1-2.3,2.3-2.3c1.3,0,2.3,1,2.3,2.3S28,25.3,26.7,25.3z M26.7,21.6
	c-0.8,0-1.5,0.7-1.5,1.5s0.7,1.5,1.5,1.5s1.5-0.7,1.5-1.5S27.6,21.6,26.7,21.6z M27.3,22.9c-0.2,0-0.4-0.2-0.4-0.4
	c0-0.2,0.2-0.4,0.4-0.4c0.2,0,0.4,0.2,0.4,0.4C27.6,22.7,27.5,22.9,27.3,22.9z M38.2,23.3c-0.3-0.3-0.7-0.5-1.3-0.7l-0.5-0.1
	c-0.2,0-0.3-0.1-0.4-0.1s-0.2-0.1-0.2-0.2s-0.1-0.1-0.1-0.2c0-0.2,0.1-0.3,0.3-0.4s0.5-0.1,1-0.1c0.2,0,0.5,0,0.7,0
	c0.3,0,0.5,0.1,0.7,0.1v-1.3c-0.4-0.1-0.8-0.1-1.2-0.2v-0.9h-1.5v1c-0.5,0.1-0.9,0.4-1.2,0.7C34.2,21.1,34,21.5,34,22
	c0,0.5,0.1,0.9,0.4,1.2s0.7,0.5,1.3,0.6l0.5,0.1c0.2,0.1,0.4,0.1,0.5,0.2c0.1,0,0.2,0.1,0.2,0.2c0,0.1,0.1,0.2,0.1,0.3
	c0,0.2-0.1,0.3-0.2,0.4c-0.2,0.1-0.4,0.1-0.8,0.1c-0.3,0-0.5,0-0.9-0.1s-0.6-0.1-0.9-0.2v1.3c0.4,0.1,0.9,0.2,1.4,0.2v0.9h1.5v-1
	c0.5-0.1,0.9-0.4,1.1-0.7c0.3-0.3,0.4-0.7,0.4-1.2C38.6,24,38.5,23.6,38.2,23.3z M38.2,23.3c-0.3-0.3-0.7-0.5-1.3-0.7l-0.5-0.1
	c-0.2,0-0.3-0.1-0.4-0.1s-0.2-0.1-0.2-0.2s-0.1-0.1-0.1-0.2c0-0.2,0.1-0.3,0.3-0.4s0.5-0.1,1-0.1c0.2,0,0.5,0,0.7,0
	c0.3,0,0.5,0.1,0.7,0.1v-1.3c-0.4-0.1-0.8-0.1-1.2-0.2v-0.9h-1.5v1c-0.5,0.1-0.9,0.4-1.2,0.7C34.2,21.1,34,21.5,34,22
	c0,0.5,0.1,0.9,0.4,1.2s0.7,0.5,1.3,0.6l0.5,0.1c0.2,0.1,0.4,0.1,0.5,0.2c0.1,0,0.2,0.1,0.2,0.2c0,0.1,0.1,0.2,0.1,0.3
	c0,0.2-0.1,0.3-0.2,0.4c-0.2,0.1-0.4,0.1-0.8,0.1c-0.3,0-0.5,0-0.9-0.1s-0.6-0.1-0.9-0.2v1.3c0.4,0.1,0.9,0.2,1.4,0.2v0.9h1.5v-1
	c0.5-0.1,0.9-0.4,1.1-0.7c0.3-0.3,0.4-0.7,0.4-1.2C38.6,24,38.5,23.6,38.2,23.3z M26.7,21.6c-0.8,0-1.5,0.7-1.5,1.5s0.7,1.5,1.5,1.5
	s1.5-0.7,1.5-1.5S27.6,21.6,26.7,21.6z M27.3,22.9c-0.2,0-0.4-0.2-0.4-0.4c0-0.2,0.2-0.4,0.4-0.4c0.2,0,0.4,0.2,0.4,0.4
	C27.6,22.7,27.5,22.9,27.3,22.9z M26.7,21.6c-0.8,0-1.5,0.7-1.5,1.5s0.7,1.5,1.5,1.5s1.5-0.7,1.5-1.5S27.6,21.6,26.7,21.6z
	 M27.3,22.9c-0.2,0-0.4-0.2-0.4-0.4c0-0.2,0.2-0.4,0.4-0.4c0.2,0,0.4,0.2,0.4,0.4C27.6,22.7,27.5,22.9,27.3,22.9z M26.8,19
	c-2.3,0-4.1,1.8-4.1,4.1c0,2,1.5,3.7,3.4,4.1c0,0,0.1,0,0.1,0.1c0.1,0.2,0.3,0.5,0.4,0.6c0.1,0.1,0.2,0.2,0.3,0.1
	c0.1,0,0.1-0.1,0.1-0.1c0.1-0.1,0.2-0.4,0.4-0.6c0,0,0.1-0.1,0.1-0.1c1.9-0.3,3.4-2,3.4-4.1C30.9,20.8,29,19,26.8,19z M26.7,25.3
	c-1.2,0-2.3-1-2.3-2.3s1-2.3,2.3-2.3c1.3,0,2.3,1,2.3,2.3S28,25.3,26.7,25.3z M26.7,21.6c-0.8,0-1.5,0.7-1.5,1.5s0.7,1.5,1.5,1.5
	s1.5-0.7,1.5-1.5S27.6,21.6,26.7,21.6z M27.3,22.9c-0.2,0-0.4-0.2-0.4-0.4c0-0.2,0.2-0.4,0.4-0.4c0.2,0,0.4,0.2,0.4,0.4
	C27.6,22.7,27.5,22.9,27.3,22.9z M38.2,23.3c-0.3-0.3-0.7-0.5-1.3-0.7l-0.5-0.1c-0.2,0-0.3-0.1-0.4-0.1s-0.2-0.1-0.2-0.2
	s-0.1-0.1-0.1-0.2c0-0.2,0.1-0.3,0.3-0.4s0.5-0.1,1-0.1c0.2,0,0.5,0,0.7,0c0.3,0,0.5,0.1,0.7,0.1v-1.3c-0.4-0.1-0.8-0.1-1.2-0.2
	v-0.9h-1.5v1c-0.5,0.1-0.9,0.4-1.2,0.7C34.2,21.1,34,21.5,34,22c0,0.5,0.1,0.9,0.4,1.2s0.7,0.5,1.3,0.6l0.5,0.1
	c0.2,0.1,0.4,0.1,0.5,0.2c0.1,0,0.2,0.1,0.2,0.2c0,0.1,0.1,0.2,0.1,0.3c0,0.2-0.1,0.3-0.2,0.4c-0.2,0.1-0.4,0.1-0.8,0.1
	c-0.3,0-0.5,0-0.9-0.1s-0.6-0.1-0.9-0.2v1.3c0.4,0.1,0.9,0.2,1.4,0.2v0.9h1.5v-1c0.5-0.1,0.9-0.4,1.1-0.7c0.3-0.3,0.4-0.7,0.4-1.2
	C38.6,24,38.5,23.6,38.2,23.3z M26.7,21.6c-0.8,0-1.5,0.7-1.5,1.5s0.7,1.5,1.5,1.5s1.5-0.7,1.5-1.5S27.6,21.6,26.7,21.6z M27.3,22.9
	c-0.2,0-0.4-0.2-0.4-0.4c0-0.2,0.2-0.4,0.4-0.4c0.2,0,0.4,0.2,0.4,0.4C27.6,22.7,27.5,22.9,27.3,22.9z M26.7,21.6
	c-0.8,0-1.5,0.7-1.5,1.5s0.7,1.5,1.5,1.5s1.5-0.7,1.5-1.5S27.6,21.6,26.7,21.6z M27.3,22.9c-0.2,0-0.4-0.2-0.4-0.4
	c0-0.2,0.2-0.4,0.4-0.4c0.2,0,0.4,0.2,0.4,0.4C27.6,22.7,27.5,22.9,27.3,22.9z M26.8,19c-2.3,0-4.1,1.8-4.1,4.1c0,2,1.5,3.7,3.4,4.1
	c0,0,0.1,0,0.1,0.1c0.1,0.2,0.3,0.5,0.4,0.6c0.1,0.1,0.2,0.2,0.3,0.1c0.1,0,0.1-0.1,0.1-0.1c0.1-0.1,0.2-0.4,0.4-0.6
	c0,0,0.1-0.1,0.1-0.1c1.9-0.3,3.4-2,3.4-4.1C30.9,20.8,29,19,26.8,19z M26.7,25.3c-1.2,0-2.3-1-2.3-2.3s1-2.3,2.3-2.3
	c1.3,0,2.3,1,2.3,2.3S28,25.3,26.7,25.3z M26.7,21.6c-0.8,0-1.5,0.7-1.5,1.5s0.7,1.5,1.5,1.5s1.5-0.7,1.5-1.5S27.6,21.6,26.7,21.6z
	 M27.3,22.9c-0.2,0-0.4-0.2-0.4-0.4c0-0.2,0.2-0.4,0.4-0.4c0.2,0,0.4,0.2,0.4,0.4C27.6,22.7,27.5,22.9,27.3,22.9z M38.2,23.3
	c-0.3-0.3-0.7-0.5-1.3-0.7l-0.5-0.1c-0.2,0-0.3-0.1-0.4-0.1s-0.2-0.1-0.2-0.2s-0.1-0.1-0.1-0.2c0-0.2,0.1-0.3,0.3-0.4s0.5-0.1,1-0.1
	c0.2,0,0.5,0,0.7,0c0.3,0,0.5,0.1,0.7,0.1v-1.3c-0.4-0.1-0.8-0.1-1.2-0.2v-0.9h-1.5v1c-0.5,0.1-0.9,0.4-1.2,0.7
	C34.2,21.1,34,21.5,34,22c0,0.5,0.1,0.9,0.4,1.2s0.7,0.5,1.3,0.6l0.5,0.1c0.2,0.1,0.4,0.1,0.5,0.2c0.1,0,0.2,0.1,0.2,0.2
	c0,0.1,0.1,0.2,0.1,0.3c0,0.2-0.1,0.3-0.2,0.4c-0.2,0.1-0.4,0.1-0.8,0.1c-0.3,0-0.5,0-0.9-0.1s-0.6-0.1-0.9-0.2v1.3
	c0.4,0.1,0.9,0.2,1.4,0.2v0.9h1.5v-1c0.5-0.1,0.9-0.4,1.1-0.7c0.3-0.3,0.4-0.7,0.4-1.2C38.6,24,38.5,23.6,38.2,23.3z M26.7,21.6
	c-0.8,0-1.5,0.7-1.5,1.5s0.7,1.5,1.5,1.5s1.5-0.7,1.5-1.5S27.6,21.6,26.7,21.6z M27.3,22.9c-0.2,0-0.4-0.2-0.4-0.4
	c0-0.2,0.2-0.4,0.4-0.4c0.2,0,0.4,0.2,0.4,0.4C27.6,22.7,27.5,22.9,27.3,22.9z M26.7,21.6c-0.8,0-1.5,0.7-1.5,1.5s0.7,1.5,1.5,1.5
	s1.5-0.7,1.5-1.5S27.6,21.6,26.7,21.6z M27.3,22.9c-0.2,0-0.4-0.2-0.4-0.4c0-0.2,0.2-0.4,0.4-0.4c0.2,0,0.4,0.2,0.4,0.4
	C27.6,22.7,27.5,22.9,27.3,22.9z M26.8,19c-2.3,0-4.1,1.8-4.1,4.1c0,2,1.5,3.7,3.4,4.1c0,0,0.1,0,0.1,0.1c0.1,0.2,0.3,0.5,0.4,0.6
	c0.1,0.1,0.2,0.2,0.3,0.1c0.1,0,0.1-0.1,0.1-0.1c0.1-0.1,0.2-0.4,0.4-0.6c0,0,0.1-0.1,0.1-0.1c1.9-0.3,3.4-2,3.4-4.1
	C30.9,20.8,29,19,26.8,19z M26.7,25.3c-1.2,0-2.3-1-2.3-2.3s1-2.3,2.3-2.3c1.3,0,2.3,1,2.3,2.3S28,25.3,26.7,25.3z M26.7,21.6
	c-0.8,0-1.5,0.7-1.5,1.5s0.7,1.5,1.5,1.5s1.5-0.7,1.5-1.5S27.6,21.6,26.7,21.6z M27.3,22.9c-0.2,0-0.4-0.2-0.4-0.4
	c0-0.2,0.2-0.4,0.4-0.4c0.2,0,0.4,0.2,0.4,0.4C27.6,22.7,27.5,22.9,27.3,22.9z"/>
</svg>
