<?xml version="1.0" encoding="utf-8"?>
<!-- Generator: Adobe Illustrator 24.2.1, SVG Export Plug-In . SVG Version: 6.00 Build 0)  -->
<svg version="1.1" id="Layer_1" xmlns="http://www.w3.org/2000/svg" xmlns:xlink="http://www.w3.org/1999/xlink" x="0px" y="0px"
	 viewBox="0 0 50.5 50.5" style="enable-background:new 0 0 50.5 50.5;" xml:space="preserve">
<style type="text/css">
	.st0{fill:none;}
	.st1{fill:#1D1D1B;}
</style>
<path class="st0" d="M20.2,6.9c0.5,0,1,0.1,1.4,0.1V4.2h-3.8v2.8c0.5-0.1,0.9-0.1,1.4-0.1C19.3,6.9,20.2,6.9,20.2,6.9z"/>
<path class="st0" d="M25,21.4c-0.2,0-0.4,0.2-0.4,0.4s0.2,0.4,0.4,0.4s0.4-0.2,0.4-0.4C25.3,21.6,25.2,21.4,25,21.4z"/>
<path class="st0" d="M12.5,44.9c0,0.6,0.4,1.1,0.9,1.3c0.5,0.2,1,0.1,1.3-0.2l0.4-0.3c1.2-0.8,2.7-0.8,3.9,0c0.5,0.4,1.1,0.4,1.6,0
	c0.6-0.4,1.3-0.6,1.9-0.6s1.4,0.2,1.9,0.6l0.4,0.3c0.4,0.3,0.9,0.3,1.3,0.2c0,0,0,0,0,0c0.5-0.2,0.9-0.7,0.9-1.3V34.7H12.5
	C12.5,34.7,12.5,44.9,12.5,44.9z"/>
<path class="st0" d="M23.2,15.1H27c-0.3-3.5-3.2-6.2-6.8-6.2h-0.9c-3.8,0-6.8,3.1-6.8,6.8v0.7h6.5C20.1,15.6,21.6,15.1,23.2,15.1z"
	/>
<path class="st0" d="M15.8,23.8h-3.3v3.6h4.7C16.4,26.3,15.9,25.1,15.8,23.8z"/>
<path class="st0" d="M12.5,21.9h3.3c0.1-1.3,0.6-2.5,1.3-3.6h-4.6V21.9z"/>
<path class="st0" d="M19.1,29.2h-6.7v3.6h14.6v-2.4h-3.9C21.7,30.4,20.3,30,19.1,29.2z"/>
<path class="st0" d="M36.8,16.7H23.2c-3.2,0-5.8,2.6-5.8,5.8V23c0,3.2,2.6,5.8,5.8,5.8h13.7c0.8,0,1.4-0.6,1.4-1.4V18
	C38.2,17.3,37.6,16.7,36.8,16.7z M25.2,26.4c0,0-0.1,0-0.1,0.1c-0.1,0.2-0.3,0.5-0.4,0.6c0,0-0.1,0.1-0.1,0.1c-0.1,0-0.2,0-0.3-0.1
	c-0.1-0.1-0.2-0.3-0.4-0.6c0,0-0.1-0.1-0.1-0.1c-1.9-0.3-3.4-2-3.4-4.1c0-2.3,1.8-4.1,4.1-4.1c2.3,0,4.1,1.8,4.1,4.1
	C28.6,24.4,27.1,26.1,25.2,26.4z M35.9,24.9c-0.3,0.3-0.6,0.5-1.1,0.7v1h-1.5v-0.9c-0.5,0-0.9-0.1-1.4-0.2v-1.3
	c0.3,0.1,0.5,0.1,0.9,0.2c0.3,0,0.6,0.1,0.9,0.1c0.4,0,0.7,0,0.8-0.1s0.2-0.2,0.2-0.4c0-0.1,0-0.2-0.1-0.3c0-0.1-0.1-0.1-0.2-0.2
	c-0.1-0.1-0.3-0.1-0.5-0.2l-0.5-0.1c-0.6-0.1-1-0.4-1.3-0.6c-0.3-0.3-0.4-0.7-0.4-1.2c0-0.5,0.1-0.8,0.4-1.2
	c0.3-0.3,0.6-0.5,1.2-0.7v-1.1h1.5v0.9c0.4,0,0.8,0.1,1.2,0.2v1.3c-0.2-0.1-0.4-0.1-0.7-0.1c-0.2,0-0.5,0-0.7,0c-0.5,0-0.8,0-1,0.2
	c-0.2,0.1-0.3,0.2-0.3,0.4c0,0.1,0,0.2,0.1,0.2c0,0.1,0.1,0.1,0.2,0.2c0.1,0,0.2,0.1,0.4,0.1l0.5,0.1c0.6,0.2,1.1,0.4,1.4,0.7
	c0.3,0.3,0.4,0.7,0.4,1.2C36.3,24.2,36.2,24.6,35.9,24.9z"/>
<path class="st0" d="M24.5,20.1c-1.2,0-2.3,1-2.3,2.3s1,2.3,2.3,2.3s2.3-1,2.3-2.3C26.7,21.1,25.7,20.1,24.5,20.1z M24.5,23.9
	c-0.8,0-1.5-0.7-1.5-1.5s0.7-1.5,1.5-1.5s1.5,0.7,1.5,1.5S25.3,23.9,24.5,23.9z"/>
<path d="M36.8,15.1h-7.9c-0.2-3.4-2.4-6.2-5.4-7.5V3.9c0-0.9-0.7-1.6-1.6-1.6h-4.4c-0.9,0-1.6,0.7-1.6,1.6v3.7
	c-3.2,1.3-5.4,4.4-5.4,8.1v29.2c0,1.4,0.9,2.6,2.2,3.1c1,0.4,2.2,0.2,3.1-0.4l0.4-0.3c0.5-0.4,1.1-0.4,1.6,0c1.2,0.8,2.7,0.8,3.9,0
	c0.5-0.4,1.1-0.4,1.6,0l0.4,0.3c0.6,0.4,1.2,0.6,1.9,0.6c0.4,0,0.8-0.1,1.1-0.2l0,0c1.3-0.5,2.2-1.7,2.2-3.1V30.4h7.9
	c1.6,0,3-1.3,3-3V18C39.8,16.4,38.5,15.1,36.8,15.1z M17.8,4.2h3.8v2.8c-0.5-0.1-0.9-0.1-1.4-0.1h-0.9c-0.5,0-1,0.1-1.4,0.1
	L17.8,4.2L17.8,4.2z M12.5,15.7c0-3.8,3.1-6.8,6.8-6.8h0.9c3.6,0,6.5,2.7,6.8,6.2h-3.9c-1.6,0-3,0.5-4.2,1.3h-6.5L12.5,15.7
	L12.5,15.7z M12.5,23.8h3.3c0.1,1.3,0.6,2.5,1.4,3.6h-4.7V23.8z M15.8,21.9h-3.3v-3.6H17C16.3,19.3,15.9,20.6,15.8,21.9z M27.1,44.9
	c0,0.6-0.4,1.1-0.9,1.3c0,0,0,0,0,0c-0.4,0.2-0.9,0.1-1.3-0.2l-0.4-0.3c-0.6-0.4-1.3-0.6-1.9-0.6s-1.4,0.2-1.9,0.6
	c-0.5,0.4-1.1,0.4-1.6,0c-1.2-0.8-2.7-0.8-3.9,0L14.7,46c-0.4,0.3-0.9,0.3-1.3,0.2c-0.5-0.2-0.9-0.7-0.9-1.3V34.7h14.6
	C27.1,34.7,27.1,44.9,27.1,44.9z M27.1,32.8H12.5v-3.6h6.7c1.2,0.7,2.5,1.2,4,1.2h3.9C27.1,30.4,27.1,32.8,27.1,32.8z M38.2,27.4
	c0,0.8-0.6,1.4-1.4,1.4H23.2c-3.2,0-5.8-2.6-5.8-5.8v-0.5c0-3.2,2.6-5.8,5.8-5.8h13.7c0.8,0,1.4,0.6,1.4,1.4
	C38.2,18,38.2,27.4,38.2,27.4z"/>
<path class="st1" d="M24.5,18.3c-2.3,0-4.1,1.8-4.1,4.1c0,2,1.5,3.7,3.4,4.1c0,0,0.1,0,0.1,0.1c0.1,0.2,0.3,0.5,0.4,0.6
	c0.1,0.1,0.2,0.2,0.3,0.1c0.1,0,0.1-0.1,0.1-0.1c0.1-0.1,0.2-0.4,0.4-0.6c0,0,0.1-0.1,0.1-0.1c1.9-0.3,3.4-2,3.4-4.1
	C28.6,20.1,26.7,18.3,24.5,18.3z M24.5,24.6c-1.2,0-2.3-1-2.3-2.3s1-2.3,2.3-2.3s2.3,1,2.3,2.3S25.7,24.6,24.5,24.6z"/>
<path class="st1" d="M24.5,20.9c-0.8,0-1.5,0.7-1.5,1.5s0.7,1.5,1.5,1.5s1.5-0.7,1.5-1.5S25.3,20.9,24.5,20.9z M25,22.1
	c-0.2,0-0.4-0.2-0.4-0.4s0.2-0.4,0.4-0.4s0.4,0.2,0.4,0.4S25.2,22.1,25,22.1z"/>
<path class="st1" d="M34.5,21.9L34,21.8c-0.2,0-0.3-0.1-0.4-0.1c-0.1,0-0.2-0.1-0.2-0.2c0-0.1-0.1-0.1-0.1-0.2
	c0-0.2,0.1-0.3,0.3-0.4c0.2-0.1,0.5-0.2,1-0.2c0.2,0,0.4,0,0.7,0c0.2,0,0.5,0.1,0.7,0.1v-1.3c-0.4-0.1-0.8-0.1-1.2-0.2v-0.9h-1.5
	v1.1c-0.5,0.1-0.9,0.3-1.2,0.7s-0.4,0.7-0.4,1.2c0,0.5,0.1,0.9,0.4,1.2c0.3,0.3,0.7,0.5,1.3,0.6l0.5,0.1c0.2,0.1,0.4,0.1,0.5,0.2
	c0.1,0.1,0.2,0.1,0.2,0.2c0,0.1,0.1,0.2,0.1,0.3c0,0.2-0.1,0.3-0.2,0.4s-0.4,0.1-0.8,0.1c-0.3,0-0.5,0-0.9-0.1
	c-0.3,0-0.6-0.1-0.9-0.2v1.3c0.4,0.1,0.9,0.2,1.4,0.2v0.9h1.5v-1c0.5-0.1,0.9-0.4,1.1-0.7c0.3-0.3,0.4-0.7,0.4-1.2
	c0-0.5-0.1-0.9-0.4-1.2C35.6,22.3,35.2,22,34.5,21.9z"/>
</svg>
