<?xml version="1.0" encoding="utf-8"?>
<!-- Generator: Adobe Illustrator 24.2.1, SVG Export Plug-In . SVG Version: 6.00 Build 0)  -->
<svg version="1.1" id="Layer_1" xmlns="http://www.w3.org/2000/svg" xmlns:xlink="http://www.w3.org/1999/xlink" x="0px" y="0px"
	 viewBox="0 0 50.5 50.5" style="enable-background:new 0 0 50.5 50.5;" xml:space="preserve">
<style type="text/css">
	.st0{fill:none;}
	.st1{fill:#1D1D1B;}
</style>
<path class="st0" d="M22.3,29.5c-0.7,0.3-1.5,0.5-2.4,0.5c-3,0-5.4-2-5.4-4.5c0-2,1.7-3.8,4-4.3c0.1-0.5,0.2-1.1,0.4-1.6h-7.5v11.7
	h17v-1h-2.6C24.5,30.3,23.4,30,22.3,29.5z"/>
<path class="st0" d="M29.1,38.8H10.8c-0.2,0-0.3,0.1-0.3,0.3v1.4c0,0.2,0.1,0.3,0.3,0.3h18.3c0.2,0,0.3-0.1,0.3-0.3v-1.4
	C29.4,38.9,29.2,38.8,29.1,38.8z"/>
<path class="st0" d="M27.6,21.3c-0.2,0-0.4,0.2-0.4,0.4s0.2,0.4,0.4,0.4s0.4-0.2,0.4-0.4C28,21.5,27.8,21.3,27.6,21.3z"/>
<path class="st0" d="M16.4,25.5c0,1.4,1.6,2.6,3.5,2.6c0.2,0,0.3,0,0.5,0c-1.2-1.3-1.9-2.9-2-4.8C17.2,23.6,16.4,24.5,16.4,25.5z"/>
<path class="st0" d="M25.8,15h2.6v-0.9h-17v3.6H20C21.4,16,23.5,15,25.8,15z"/>
<rect x="11.4" y="33.2" class="st0" width="17" height="3.6"/>
<path class="st0" d="M10.8,12.2h18.3c0.2,0,0.3-0.1,0.3-0.3v-1.4c0-0.2-0.1-0.3-0.3-0.3H10.8c-0.2,0-0.3,0.1-0.3,0.3v1.4
	C10.5,12.1,10.6,12.2,10.8,12.2z"/>
<path class="st0" d="M39.5,16.6H25.8c-3.2,0-5.8,2.6-5.8,5.8v0.5c0,3.2,2.6,5.8,5.8,5.8h13.7c0.8,0,1.4-0.6,1.4-1.4v-9.4
	C40.8,17.2,40.2,16.6,39.5,16.6z M27.8,26.3c0,0-0.1,0-0.1,0.1c-0.1,0.2-0.3,0.5-0.4,0.6c0,0-0.1,0.1-0.1,0.1c-0.1,0-0.2,0-0.3-0.1
	c-0.1-0.1-0.2-0.3-0.4-0.6c0,0-0.1-0.1-0.1-0.1c-1.9-0.3-3.4-2-3.4-4.1c0-2.3,1.8-4.1,4.1-4.1c2.3,0,4.1,1.8,4.1,4.1
	C31.2,24.3,29.7,26,27.8,26.3z M38.6,24.8c-0.3,0.3-0.6,0.5-1.1,0.7v1h-1.5v-0.9c-0.5,0-0.9-0.1-1.4-0.2v-1.3
	c0.3,0.1,0.5,0.1,0.9,0.2c0.3,0,0.6,0.1,0.9,0.1c0.4,0,0.7,0,0.8-0.1c0.2-0.1,0.2-0.2,0.2-0.4c0-0.1,0-0.2-0.1-0.3
	c0-0.1-0.1-0.1-0.2-0.2c-0.1-0.1-0.3-0.1-0.5-0.2L36.1,23c-0.6-0.1-1-0.4-1.3-0.6c-0.3-0.3-0.4-0.7-0.4-1.2c0-0.5,0.1-0.8,0.4-1.2
	s0.6-0.5,1.2-0.7v-1.1h1.5v0.9c0.4,0,0.8,0.1,1.2,0.2v1.3c-0.2-0.1-0.4-0.1-0.7-0.1c-0.2,0-0.5,0-0.7,0c-0.5,0-0.8,0-1,0.2
	c-0.2,0.1-0.3,0.2-0.3,0.4c0,0.1,0,0.2,0.1,0.2c0,0.1,0.1,0.1,0.2,0.2c0.1,0,0.2,0.1,0.4,0.1l0.5,0.1c0.6,0.2,1.1,0.4,1.4,0.7
	c0.3,0.3,0.4,0.7,0.4,1.2C39,24.1,38.8,24.5,38.6,24.8z"/>
<path class="st0" d="M27.1,20c-1.2,0-2.3,1-2.3,2.3s1,2.3,2.3,2.3s2.3-1,2.3-2.3C29.3,21,28.3,20,27.1,20z M27.1,23.8
	c-0.8,0-1.5-0.7-1.5-1.5s0.7-1.5,1.5-1.5c0.8,0,1.5,0.7,1.5,1.5S27.9,23.8,27.1,23.8z"/>
<path d="M39.5,15h-9.1v-1.3c0.6-0.4,1-1.1,1-1.8v-1.4c0-1.2-1-2.2-2.2-2.2H10.8c-1.2,0-2.2,1-2.2,2.2v1.4c0,0.8,0.4,1.4,1,1.8v23.6
	c-0.6,0.4-1,1.1-1,1.8v1.4c0,1.2,1,2.2,2.2,2.2h18.3c1.2,0,2.2-1,2.2-2.2v-1.4c0-0.8-0.4-1.4-1-1.8v-7h9.1c1.6,0,3-1.3,3-3v-9.4
	C42.4,16.3,41.1,15,39.5,15z M28.4,36.8h-17v-3.6h17V36.8z M11.4,14.1h17V15h-2.6c-2.3,0-4.4,1.1-5.8,2.7h-8.6
	C11.4,17.7,11.4,14.1,11.4,14.1z M10.5,10.5c0-0.2,0.1-0.3,0.3-0.3h18.3c0.2,0,0.3,0.1,0.3,0.3v1.4c0,0.2-0.1,0.3-0.3,0.3H10.8
	c-0.2,0-0.3-0.1-0.3-0.3V10.5z M29.4,40.5c0,0.2-0.1,0.3-0.3,0.3H10.8c-0.2,0-0.3-0.1-0.3-0.3v-1.4c0-0.2,0.1-0.3,0.3-0.3h18.3
	c0.2,0,0.3,0.1,0.3,0.3V40.5z M28.4,31.3h-17V19.6h7.5c-0.2,0.5-0.3,1-0.4,1.6c-2.3,0.5-4,2.2-4,4.3c0,2.5,2.4,4.5,5.4,4.5
	c0.9,0,1.7-0.2,2.4-0.5c1,0.5,2.2,0.9,3.5,0.9h2.6L28.4,31.3L28.4,31.3z M18.4,23.2c0.1,1.9,0.8,3.5,2,4.8c-0.2,0-0.3,0-0.5,0
	c-1.9,0-3.5-1.2-3.5-2.6C16.4,24.5,17.2,23.6,18.4,23.2z M40.8,27.3c0,0.8-0.6,1.4-1.4,1.4H25.8c-3.2,0-5.8-2.6-5.8-5.8v-0.5
	c0-3.2,2.6-5.8,5.8-5.8h13.7c0.8,0,1.4,0.6,1.4,1.4V27.3z"/>
<path class="st1" d="M27.1,18.2c-2.3,0-4.1,1.8-4.1,4.1c0,2,1.5,3.7,3.4,4.1c0,0,0.1,0,0.1,0.1c0.1,0.2,0.3,0.5,0.4,0.6
	c0.1,0.1,0.2,0.2,0.3,0.1c0.1,0,0.1-0.1,0.1-0.1c0.1-0.1,0.2-0.4,0.4-0.6c0,0,0.1-0.1,0.1-0.1c1.9-0.3,3.4-2,3.4-4.1
	C31.2,20,29.4,18.2,27.1,18.2z M27.1,24.5c-1.2,0-2.3-1-2.3-2.3s1-2.3,2.3-2.3s2.3,1,2.3,2.3C29.3,23.5,28.3,24.5,27.1,24.5z"/>
<path class="st1" d="M27.1,20.8c-0.8,0-1.5,0.7-1.5,1.5s0.7,1.5,1.5,1.5c0.8,0,1.5-0.7,1.5-1.5S27.9,20.8,27.1,20.8z M27.6,22
	c-0.2,0-0.4-0.2-0.4-0.4s0.2-0.4,0.4-0.4s0.4,0.2,0.4,0.4C28,21.9,27.8,22,27.6,22z"/>
<path class="st1" d="M37.2,21.8l-0.5-0.1c-0.2,0-0.3-0.1-0.4-0.1c-0.1,0-0.2-0.1-0.2-0.2c0-0.1-0.1-0.1-0.1-0.2
	c0-0.2,0.1-0.3,0.3-0.4c0.2-0.1,0.5-0.2,1-0.2c0.2,0,0.4,0,0.7,0c0.2,0,0.5,0.1,0.7,0.1v-1.3c-0.4-0.1-0.8-0.1-1.2-0.2v-0.9h-1.5
	v1.1c-0.5,0.1-0.9,0.3-1.2,0.7s-0.4,0.7-0.4,1.2c0,0.5,0.1,0.9,0.4,1.2s0.7,0.5,1.3,0.6l0.5,0.1c0.2,0.1,0.4,0.1,0.5,0.2
	c0.1,0.1,0.2,0.1,0.2,0.2c0,0.1,0.1,0.2,0.1,0.3c0,0.2-0.1,0.3-0.2,0.4s-0.4,0.1-0.8,0.1c-0.3,0-0.5,0-0.9-0.1
	c-0.3,0-0.6-0.1-0.9-0.2v1.3c0.4,0.1,0.9,0.2,1.4,0.2v0.9h1.5v-1c0.5-0.1,0.9-0.4,1.1-0.7c0.3-0.3,0.4-0.7,0.4-1.2
	c0-0.5-0.1-0.9-0.4-1.2C38.2,22.2,37.8,21.9,37.2,21.8z"/>
</svg>
