<?xml version="1.0" encoding="utf-8"?>
<!-- Generator: Adobe Illustrator 24.2.1, SVG Export Plug-In . SVG Version: 6.00 Build 0)  -->
<svg version="1.1" id="Layer_1" xmlns="http://www.w3.org/2000/svg" xmlns:xlink="http://www.w3.org/1999/xlink" x="0px" y="0px"
	 viewBox="0 0 50.5 50.5" style="enable-background:new 0 0 50.5 50.5;" xml:space="preserve">
<path d="M35.89,22.57c-0.29-0.3-0.74-0.52-1.35-0.67l-0.51-0.13c-0.18-0.05-0.31-0.1-0.41-0.15s-0.16-0.11-0.2-0.17
	c-0.04-0.07-0.06-0.15-0.06-0.24c0-0.19,0.09-0.33,0.28-0.43c0.19-0.1,0.52-0.15,1-0.15c0.22,0,0.45,0.02,0.69,0.05
	c0.25,0.03,0.47,0.07,0.66,0.12v-1.29c-0.38-0.09-0.78-0.14-1.21-0.16v-0.92H33.3v1.05c-0.51,0.13-0.89,0.35-1.15,0.65
	c-0.26,0.31-0.39,0.7-0.39,1.16c0,0.48,0.14,0.87,0.42,1.17c0.28,0.29,0.7,0.51,1.26,0.65l0.51,0.13c0.21,0.06,0.37,0.11,0.48,0.17
	c0.11,0.05,0.19,0.11,0.23,0.18c0.05,0.07,0.07,0.15,0.07,0.26c0,0.19-0.08,0.33-0.24,0.43c-0.16,0.09-0.43,0.14-0.82,0.14
	c-0.26,0-0.54-0.02-0.87-0.07c-0.32-0.05-0.61-0.11-0.87-0.19v1.29c0.43,0.13,0.89,0.21,1.37,0.24v0.93h1.48v-1.05
	c0.5-0.13,0.88-0.35,1.14-0.67c0.27-0.32,0.4-0.7,0.4-1.16C36.32,23.26,36.18,22.87,35.89,22.57z M24.45,20.88
	c-0.82,0-1.5,0.67-1.5,1.5s0.68,1.5,1.5,1.5c0.83,0,1.51-0.67,1.51-1.5S25.28,20.88,24.45,20.88z M24.97,22.15
	c-0.21,0-0.37-0.17-0.37-0.37c0-0.21,0.16-0.38,0.37-0.38c0.21,0,0.38,0.17,0.38,0.38C25.35,21.98,25.18,22.15,24.97,22.15z
	 M24.45,20.88c-0.82,0-1.5,0.67-1.5,1.5s0.68,1.5,1.5,1.5c0.83,0,1.51-0.67,1.51-1.5S25.28,20.88,24.45,20.88z M24.97,22.15
	c-0.21,0-0.37-0.17-0.37-0.37c0-0.21,0.16-0.38,0.37-0.38c0.21,0,0.38,0.17,0.38,0.38C25.35,21.98,25.18,22.15,24.97,22.15z
	 M24.45,20.88c-0.82,0-1.5,0.67-1.5,1.5s0.68,1.5,1.5,1.5c0.83,0,1.51-0.67,1.51-1.5S25.28,20.88,24.45,20.88z M24.97,22.15
	c-0.21,0-0.37-0.17-0.37-0.37c0-0.21,0.16-0.38,0.37-0.38c0.21,0,0.38,0.17,0.38,0.38C25.35,21.98,25.18,22.15,24.97,22.15z
	 M24.45,20.88c-0.82,0-1.5,0.67-1.5,1.5s0.68,1.5,1.5,1.5c0.83,0,1.51-0.67,1.51-1.5S25.28,20.88,24.45,20.88z M24.97,22.15
	c-0.21,0-0.37-0.17-0.37-0.37c0-0.21,0.16-0.38,0.37-0.38c0.21,0,0.38,0.17,0.38,0.38C25.35,21.98,25.18,22.15,24.97,22.15z
	 M24.45,20.88c-0.82,0-1.5,0.67-1.5,1.5s0.68,1.5,1.5,1.5c0.83,0,1.51-0.67,1.51-1.5S25.28,20.88,24.45,20.88z M24.97,22.15
	c-0.21,0-0.37-0.17-0.37-0.37c0-0.21,0.16-0.38,0.37-0.38c0.21,0,0.38,0.17,0.38,0.38C25.35,21.98,25.18,22.15,24.97,22.15z
	 M24.45,20.88c-0.82,0-1.5,0.67-1.5,1.5s0.68,1.5,1.5,1.5c0.83,0,1.51-0.67,1.51-1.5S25.28,20.88,24.45,20.88z M24.97,22.15
	c-0.21,0-0.37-0.17-0.37-0.37c0-0.21,0.16-0.38,0.37-0.38c0.21,0,0.38,0.17,0.38,0.38C25.35,21.98,25.18,22.15,24.97,22.15z
	 M24.47,18.27c-2.27,0-4.12,1.84-4.12,4.11c0,2.03,1.48,3.72,3.41,4.05c0.05,0.01,0.1,0.04,0.12,0.08c0.13,0.21,0.28,0.45,0.36,0.56
	c0.07,0.1,0.16,0.17,0.29,0.14c0.06-0.02,0.11-0.06,0.15-0.11c0.08-0.12,0.24-0.37,0.37-0.59c0.03-0.04,0.07-0.07,0.12-0.08
	c1.93-0.33,3.41-2.02,3.41-4.05C28.58,20.11,26.74,18.27,24.47,18.27z M24.45,24.63c-1.24,0-2.25-1.01-2.25-2.25
	c0-1.25,1.01-2.26,2.25-2.26c1.25,0,2.26,1.01,2.26,2.26C26.71,23.62,25.7,24.63,24.45,24.63z M24.45,20.88
	c-0.82,0-1.5,0.67-1.5,1.5s0.68,1.5,1.5,1.5c0.83,0,1.51-0.67,1.51-1.5S25.28,20.88,24.45,20.88z M24.97,22.15
	c-0.21,0-0.37-0.17-0.37-0.37c0-0.21,0.16-0.38,0.37-0.38c0.21,0,0.38,0.17,0.38,0.38C25.35,21.98,25.18,22.15,24.97,22.15z
	 M35.89,22.57c-0.29-0.3-0.74-0.52-1.35-0.67l-0.51-0.13c-0.18-0.05-0.31-0.1-0.41-0.15s-0.16-0.11-0.2-0.17
	c-0.04-0.07-0.06-0.15-0.06-0.24c0-0.19,0.09-0.33,0.28-0.43c0.19-0.1,0.52-0.15,1-0.15c0.22,0,0.45,0.02,0.69,0.05
	c0.25,0.03,0.47,0.07,0.66,0.12v-1.29c-0.38-0.09-0.78-0.14-1.21-0.16v-0.92H33.3v1.05c-0.51,0.13-0.89,0.35-1.15,0.65
	c-0.26,0.31-0.39,0.7-0.39,1.16c0,0.48,0.14,0.87,0.42,1.17c0.28,0.29,0.7,0.51,1.26,0.65l0.51,0.13c0.21,0.06,0.37,0.11,0.48,0.17
	c0.11,0.05,0.19,0.11,0.23,0.18c0.05,0.07,0.07,0.15,0.07,0.26c0,0.19-0.08,0.33-0.24,0.43c-0.16,0.09-0.43,0.14-0.82,0.14
	c-0.26,0-0.54-0.02-0.87-0.07c-0.32-0.05-0.61-0.11-0.87-0.19v1.29c0.43,0.13,0.89,0.21,1.37,0.24v0.93h1.48v-1.05
	c0.5-0.13,0.88-0.35,1.14-0.67c0.27-0.32,0.4-0.7,0.4-1.16C36.32,23.26,36.18,22.87,35.89,22.57z M24.45,20.88
	c-0.82,0-1.5,0.67-1.5,1.5s0.68,1.5,1.5,1.5c0.83,0,1.51-0.67,1.51-1.5S25.28,20.88,24.45,20.88z M24.97,22.15
	c-0.21,0-0.37-0.17-0.37-0.37c0-0.21,0.16-0.38,0.37-0.38c0.21,0,0.38,0.17,0.38,0.38C25.35,21.98,25.18,22.15,24.97,22.15z
	 M24.45,20.88c-0.82,0-1.5,0.67-1.5,1.5s0.68,1.5,1.5,1.5c0.83,0,1.51-0.67,1.51-1.5S25.28,20.88,24.45,20.88z M24.97,22.15
	c-0.21,0-0.37-0.17-0.37-0.37c0-0.21,0.16-0.38,0.37-0.38c0.21,0,0.38,0.17,0.38,0.38C25.35,21.98,25.18,22.15,24.97,22.15z
	 M24.47,18.27c-2.27,0-4.12,1.84-4.12,4.11c0,2.03,1.48,3.72,3.41,4.05c0.05,0.01,0.1,0.04,0.12,0.08c0.13,0.21,0.28,0.45,0.36,0.56
	c0.07,0.1,0.16,0.17,0.29,0.14c0.06-0.02,0.11-0.06,0.15-0.11c0.08-0.12,0.24-0.37,0.37-0.59c0.03-0.04,0.07-0.07,0.12-0.08
	c1.93-0.33,3.41-2.02,3.41-4.05C28.58,20.11,26.74,18.27,24.47,18.27z M24.45,24.63c-1.24,0-2.25-1.01-2.25-2.25
	c0-1.25,1.01-2.26,2.25-2.26c1.25,0,2.26,1.01,2.26,2.26C26.71,23.62,25.7,24.63,24.45,24.63z M24.45,20.88
	c-0.82,0-1.5,0.67-1.5,1.5s0.68,1.5,1.5,1.5c0.83,0,1.51-0.67,1.51-1.5S25.28,20.88,24.45,20.88z M24.97,22.15
	c-0.21,0-0.37-0.17-0.37-0.37c0-0.21,0.16-0.38,0.37-0.38c0.21,0,0.38,0.17,0.38,0.38C25.35,21.98,25.18,22.15,24.97,22.15z
	 M24.45,20.88c-0.82,0-1.5,0.67-1.5,1.5s0.68,1.5,1.5,1.5c0.83,0,1.51-0.67,1.51-1.5S25.28,20.88,24.45,20.88z M24.97,22.15
	c-0.21,0-0.37-0.17-0.37-0.37c0-0.21,0.16-0.38,0.37-0.38c0.21,0,0.38,0.17,0.38,0.38C25.35,21.98,25.18,22.15,24.97,22.15z
	 M24.45,20.88c-0.82,0-1.5,0.67-1.5,1.5s0.68,1.5,1.5,1.5c0.83,0,1.51-0.67,1.51-1.5S25.28,20.88,24.45,20.88z M24.97,22.15
	c-0.21,0-0.37-0.17-0.37-0.37c0-0.21,0.16-0.38,0.37-0.38c0.21,0,0.38,0.17,0.38,0.38C25.35,21.98,25.18,22.15,24.97,22.15z
	 M24.47,18.27c-2.27,0-4.12,1.84-4.12,4.11c0,2.03,1.48,3.72,3.41,4.05c0.05,0.01,0.1,0.04,0.12,0.08c0.13,0.21,0.28,0.45,0.36,0.56
	c0.07,0.1,0.16,0.17,0.29,0.14c0.06-0.02,0.11-0.06,0.15-0.11c0.08-0.12,0.24-0.37,0.37-0.59c0.03-0.04,0.07-0.07,0.12-0.08
	c1.93-0.33,3.41-2.02,3.41-4.05C28.58,20.11,26.74,18.27,24.47,18.27z M24.45,24.63c-1.24,0-2.25-1.01-2.25-2.25
	c0-1.25,1.01-2.26,2.25-2.26c1.25,0,2.26,1.01,2.26,2.26C26.71,23.62,25.7,24.63,24.45,24.63z M24.45,20.88
	c-0.82,0-1.5,0.67-1.5,1.5s0.68,1.5,1.5,1.5c0.83,0,1.51-0.67,1.51-1.5S25.28,20.88,24.45,20.88z M24.97,22.15
	c-0.21,0-0.37-0.17-0.37-0.37c0-0.21,0.16-0.38,0.37-0.38c0.21,0,0.38,0.17,0.38,0.38C25.35,21.98,25.18,22.15,24.97,22.15z
	 M35.89,22.57c-0.29-0.3-0.74-0.52-1.35-0.67l-0.51-0.13c-0.18-0.05-0.31-0.1-0.41-0.15s-0.16-0.11-0.2-0.17
	c-0.04-0.07-0.06-0.15-0.06-0.24c0-0.19,0.09-0.33,0.28-0.43c0.19-0.1,0.52-0.15,1-0.15c0.22,0,0.45,0.02,0.69,0.05
	c0.25,0.03,0.47,0.07,0.66,0.12v-1.29c-0.38-0.09-0.78-0.14-1.21-0.16v-0.92H33.3v1.05c-0.51,0.13-0.89,0.35-1.15,0.65
	c-0.26,0.31-0.39,0.7-0.39,1.16c0,0.48,0.14,0.87,0.42,1.17c0.28,0.29,0.7,0.51,1.26,0.65l0.51,0.13c0.21,0.06,0.37,0.11,0.48,0.17
	c0.11,0.05,0.19,0.11,0.23,0.18c0.05,0.07,0.07,0.15,0.07,0.26c0,0.19-0.08,0.33-0.24,0.43c-0.16,0.09-0.43,0.14-0.82,0.14
	c-0.26,0-0.54-0.02-0.87-0.07c-0.32-0.05-0.61-0.11-0.87-0.19v1.29c0.43,0.13,0.89,0.21,1.37,0.24v0.93h1.48v-1.05
	c0.5-0.13,0.88-0.35,1.14-0.67c0.27-0.32,0.4-0.7,0.4-1.16C36.32,23.26,36.18,22.87,35.89,22.57z M35.89,22.57
	c-0.29-0.3-0.74-0.52-1.35-0.67l-0.51-0.13c-0.18-0.05-0.31-0.1-0.41-0.15s-0.16-0.11-0.2-0.17c-0.04-0.07-0.06-0.15-0.06-0.24
	c0-0.19,0.09-0.33,0.28-0.43c0.19-0.1,0.52-0.15,1-0.15c0.22,0,0.45,0.02,0.69,0.05c0.25,0.03,0.47,0.07,0.66,0.12v-1.29
	c-0.38-0.09-0.78-0.14-1.21-0.16v-0.92H33.3v1.05c-0.51,0.13-0.89,0.35-1.15,0.65c-0.26,0.31-0.39,0.7-0.39,1.16
	c0,0.48,0.14,0.87,0.42,1.17c0.28,0.29,0.7,0.51,1.26,0.65l0.51,0.13c0.21,0.06,0.37,0.11,0.48,0.17c0.11,0.05,0.19,0.11,0.23,0.18
	c0.05,0.07,0.07,0.15,0.07,0.26c0,0.19-0.08,0.33-0.24,0.43c-0.16,0.09-0.43,0.14-0.82,0.14c-0.26,0-0.54-0.02-0.87-0.07
	c-0.32-0.05-0.61-0.11-0.87-0.19v1.29c0.43,0.13,0.89,0.21,1.37,0.24v0.93h1.48v-1.05c0.5-0.13,0.88-0.35,1.14-0.67
	c0.27-0.32,0.4-0.7,0.4-1.16C36.32,23.26,36.18,22.87,35.89,22.57z M24.47,18.27c-2.27,0-4.12,1.84-4.12,4.11
	c0,2.03,1.48,3.72,3.41,4.05c0.05,0.01,0.1,0.04,0.12,0.08c0.13,0.21,0.28,0.45,0.36,0.56c0.07,0.1,0.16,0.17,0.29,0.14
	c0.06-0.02,0.11-0.06,0.15-0.11c0.08-0.12,0.24-0.37,0.37-0.59c0.03-0.04,0.07-0.07,0.12-0.08c1.93-0.33,3.41-2.02,3.41-4.05
	C28.58,20.11,26.74,18.27,24.47,18.27z M24.45,24.63c-1.24,0-2.25-1.01-2.25-2.25c0-1.25,1.01-2.26,2.25-2.26
	c1.25,0,2.26,1.01,2.26,2.26C26.71,23.62,25.7,24.63,24.45,24.63z M24.45,20.88c-0.82,0-1.5,0.67-1.5,1.5s0.68,1.5,1.5,1.5
	c0.83,0,1.51-0.67,1.51-1.5S25.28,20.88,24.45,20.88z M24.97,22.15c-0.21,0-0.37-0.17-0.37-0.37c0-0.21,0.16-0.38,0.37-0.38
	c0.21,0,0.38,0.17,0.38,0.38C25.35,21.98,25.18,22.15,24.97,22.15z M36.82,15.06h-7.9c-0.23-3.37-2.37-6.22-5.36-7.46V3.95
	c0-0.9-0.73-1.63-1.63-1.63h-4.36c-0.9,0-1.63,0.73-1.63,1.63V7.6c-3.16,1.31-5.39,4.43-5.39,8.06v29.22c0,1.38,0.87,2.62,2.21,3.11
	c1.03,0.37,2.17,0.21,3.06-0.43l0.37-0.27c0.48-0.36,1.14-0.36,1.63,0c1.15,0.84,2.71,0.84,3.87,0c0.48-0.36,1.14-0.36,1.63,0
	l0.37,0.27c0.57,0.41,1.25,0.62,1.93,0.62c0.38,0,0.76-0.06,1.12-0.19l0.05-0.02c1.29-0.47,2.16-1.71,2.16-3.09V30.42h7.87
	c1.64,0,2.98-1.33,2.98-2.97v-9.41C39.8,16.4,38.46,15.06,36.82,15.06z M17.84,4.22h3.82v2.84c-0.47-0.08-0.95-0.13-1.44-0.13h-0.94
	c-0.49,0-0.97,0.05-1.44,0.13V4.22z M12.45,15.66c0-3.76,3.07-6.83,6.83-6.83h0.94c3.57,0,6.5,2.75,6.8,6.23h-3.87
	c-1.58,0-3.04,0.5-4.24,1.34h-6.46V15.66z M12.45,18.3h4.58c-0.71,1.03-1.16,2.25-1.27,3.57h-3.31V18.3z M12.45,23.77h3.32
	c0.14,1.32,0.63,2.54,1.37,3.56h-4.69V23.77z M27.05,44.88c0,0.58-0.37,1.11-0.91,1.31l-0.05,0.01c-0.43,0.16-0.91,0.09-1.28-0.18
	l-0.37-0.27c-0.58-0.42-1.26-0.63-1.94-0.63s-1.35,0.21-1.93,0.63c-0.49,0.36-1.15,0.36-1.63,0c-1.16-0.84-2.72-0.84-3.87,0
	l-0.37,0.27c-0.38,0.27-0.86,0.34-1.33,0.17c-0.55-0.2-0.92-0.73-0.92-1.31V34.7h14.6V44.88z M27.05,32.8h-14.6v-3.57h6.69
	c1.16,0.75,2.53,1.19,4.01,1.19h3.9V32.8z M38.2,27.45c0,0.76-0.62,1.37-1.38,1.37H23.15c-3.21,0-5.82-2.61-5.82-5.81v-0.53
	c0-3.21,2.61-5.82,5.82-5.82h13.67c0.76,0,1.38,0.62,1.38,1.38V27.45z M34.54,21.9l-0.51-0.13c-0.18-0.05-0.31-0.1-0.41-0.15
	s-0.16-0.11-0.2-0.17c-0.04-0.07-0.06-0.15-0.06-0.24c0-0.19,0.09-0.33,0.28-0.43c0.19-0.1,0.52-0.15,1-0.15
	c0.22,0,0.45,0.02,0.69,0.05c0.25,0.03,0.47,0.07,0.66,0.12v-1.29c-0.38-0.09-0.78-0.14-1.21-0.16v-0.92H33.3v1.05
	c-0.51,0.13-0.89,0.35-1.15,0.65c-0.26,0.31-0.39,0.7-0.39,1.16c0,0.48,0.14,0.87,0.42,1.17c0.28,0.29,0.7,0.51,1.26,0.65l0.51,0.13
	c0.21,0.06,0.37,0.11,0.48,0.17c0.11,0.05,0.19,0.11,0.23,0.18c0.05,0.07,0.07,0.15,0.07,0.26c0,0.19-0.08,0.33-0.24,0.43
	c-0.16,0.09-0.43,0.14-0.82,0.14c-0.26,0-0.54-0.02-0.87-0.07c-0.32-0.05-0.61-0.11-0.87-0.19v1.29c0.43,0.13,0.89,0.21,1.37,0.24
	v0.93h1.48v-1.05c0.5-0.13,0.88-0.35,1.14-0.67c0.27-0.32,0.4-0.7,0.4-1.16c0-0.48-0.14-0.87-0.43-1.17
	C35.6,22.27,35.15,22.05,34.54,21.9z M24.47,18.27c-2.27,0-4.12,1.84-4.12,4.11c0,2.03,1.48,3.72,3.41,4.05
	c0.05,0.01,0.1,0.04,0.12,0.08c0.13,0.21,0.28,0.45,0.36,0.56c0.07,0.1,0.16,0.17,0.29,0.14c0.06-0.02,0.11-0.06,0.15-0.11
	c0.08-0.12,0.24-0.37,0.37-0.59c0.03-0.04,0.07-0.07,0.12-0.08c1.93-0.33,3.41-2.02,3.41-4.05C28.58,20.11,26.74,18.27,24.47,18.27z
	 M24.45,24.63c-1.24,0-2.25-1.01-2.25-2.25c0-1.25,1.01-2.26,2.25-2.26c1.25,0,2.26,1.01,2.26,2.26
	C26.71,23.62,25.7,24.63,24.45,24.63z M24.45,20.88c-0.82,0-1.5,0.67-1.5,1.5s0.68,1.5,1.5,1.5c0.83,0,1.51-0.67,1.51-1.5
	S25.28,20.88,24.45,20.88z M24.97,22.15c-0.21,0-0.37-0.17-0.37-0.37c0-0.21,0.16-0.38,0.37-0.38c0.21,0,0.38,0.17,0.38,0.38
	C25.35,21.98,25.18,22.15,24.97,22.15z M24.45,20.88c-0.82,0-1.5,0.67-1.5,1.5s0.68,1.5,1.5,1.5c0.83,0,1.51-0.67,1.51-1.5
	S25.28,20.88,24.45,20.88z M24.97,22.15c-0.21,0-0.37-0.17-0.37-0.37c0-0.21,0.16-0.38,0.37-0.38c0.21,0,0.38,0.17,0.38,0.38
	C25.35,21.98,25.18,22.15,24.97,22.15z M24.45,20.88c-0.82,0-1.5,0.67-1.5,1.5s0.68,1.5,1.5,1.5c0.83,0,1.51-0.67,1.51-1.5
	S25.28,20.88,24.45,20.88z M24.97,22.15c-0.21,0-0.37-0.17-0.37-0.37c0-0.21,0.16-0.38,0.37-0.38c0.21,0,0.38,0.17,0.38,0.38
	C25.35,21.98,25.18,22.15,24.97,22.15z M24.47,18.27c-2.27,0-4.12,1.84-4.12,4.11c0,2.03,1.48,3.72,3.41,4.05
	c0.05,0.01,0.1,0.04,0.12,0.08c0.13,0.21,0.28,0.45,0.36,0.56c0.07,0.1,0.16,0.17,0.29,0.14c0.06-0.02,0.11-0.06,0.15-0.11
	c0.08-0.12,0.24-0.37,0.37-0.59c0.03-0.04,0.07-0.07,0.12-0.08c1.93-0.33,3.41-2.02,3.41-4.05C28.58,20.11,26.74,18.27,24.47,18.27z
	 M24.45,24.63c-1.24,0-2.25-1.01-2.25-2.25c0-1.25,1.01-2.26,2.25-2.26c1.25,0,2.26,1.01,2.26,2.26
	C26.71,23.62,25.7,24.63,24.45,24.63z M24.45,20.88c-0.82,0-1.5,0.67-1.5,1.5s0.68,1.5,1.5,1.5c0.83,0,1.51-0.67,1.51-1.5
	S25.28,20.88,24.45,20.88z M24.97,22.15c-0.21,0-0.37-0.17-0.37-0.37c0-0.21,0.16-0.38,0.37-0.38c0.21,0,0.38,0.17,0.38,0.38
	C25.35,21.98,25.18,22.15,24.97,22.15z M35.89,22.57c-0.29-0.3-0.74-0.52-1.35-0.67l-0.51-0.13c-0.18-0.05-0.31-0.1-0.41-0.15
	s-0.16-0.11-0.2-0.17c-0.04-0.07-0.06-0.15-0.06-0.24c0-0.19,0.09-0.33,0.28-0.43c0.19-0.1,0.52-0.15,1-0.15
	c0.22,0,0.45,0.02,0.69,0.05c0.25,0.03,0.47,0.07,0.66,0.12v-1.29c-0.38-0.09-0.78-0.14-1.21-0.16v-0.92H33.3v1.05
	c-0.51,0.13-0.89,0.35-1.15,0.65c-0.26,0.31-0.39,0.7-0.39,1.16c0,0.48,0.14,0.87,0.42,1.17c0.28,0.29,0.7,0.51,1.26,0.65l0.51,0.13
	c0.21,0.06,0.37,0.11,0.48,0.17c0.11,0.05,0.19,0.11,0.23,0.18c0.05,0.07,0.07,0.15,0.07,0.26c0,0.19-0.08,0.33-0.24,0.43
	c-0.16,0.09-0.43,0.14-0.82,0.14c-0.26,0-0.54-0.02-0.87-0.07c-0.32-0.05-0.61-0.11-0.87-0.19v1.29c0.43,0.13,0.89,0.21,1.37,0.24
	v0.93h1.48v-1.05c0.5-0.13,0.88-0.35,1.14-0.67c0.27-0.32,0.4-0.7,0.4-1.16C36.32,23.26,36.18,22.87,35.89,22.57z M35.89,22.57
	c-0.29-0.3-0.74-0.52-1.35-0.67l-0.51-0.13c-0.18-0.05-0.31-0.1-0.41-0.15s-0.16-0.11-0.2-0.17c-0.04-0.07-0.06-0.15-0.06-0.24
	c0-0.19,0.09-0.33,0.28-0.43c0.19-0.1,0.52-0.15,1-0.15c0.22,0,0.45,0.02,0.69,0.05c0.25,0.03,0.47,0.07,0.66,0.12v-1.29
	c-0.38-0.09-0.78-0.14-1.21-0.16v-0.92H33.3v1.05c-0.51,0.13-0.89,0.35-1.15,0.65c-0.26,0.31-0.39,0.7-0.39,1.16
	c0,0.48,0.14,0.87,0.42,1.17c0.28,0.29,0.7,0.51,1.26,0.65l0.51,0.13c0.21,0.06,0.37,0.11,0.48,0.17c0.11,0.05,0.19,0.11,0.23,0.18
	c0.05,0.07,0.07,0.15,0.07,0.26c0,0.19-0.08,0.33-0.24,0.43c-0.16,0.09-0.43,0.14-0.82,0.14c-0.26,0-0.54-0.02-0.87-0.07
	c-0.32-0.05-0.61-0.11-0.87-0.19v1.29c0.43,0.13,0.89,0.21,1.37,0.24v0.93h1.48v-1.05c0.5-0.13,0.88-0.35,1.14-0.67
	c0.27-0.32,0.4-0.7,0.4-1.16C36.32,23.26,36.18,22.87,35.89,22.57z M24.45,20.88c-0.82,0-1.5,0.67-1.5,1.5s0.68,1.5,1.5,1.5
	c0.83,0,1.51-0.67,1.51-1.5S25.28,20.88,24.45,20.88z M24.97,22.15c-0.21,0-0.37-0.17-0.37-0.37c0-0.21,0.16-0.38,0.37-0.38
	c0.21,0,0.38,0.17,0.38,0.38C25.35,21.98,25.18,22.15,24.97,22.15z M24.45,20.88c-0.82,0-1.5,0.67-1.5,1.5s0.68,1.5,1.5,1.5
	c0.83,0,1.51-0.67,1.51-1.5S25.28,20.88,24.45,20.88z M24.97,22.15c-0.21,0-0.37-0.17-0.37-0.37c0-0.21,0.16-0.38,0.37-0.38
	c0.21,0,0.38,0.17,0.38,0.38C25.35,21.98,25.18,22.15,24.97,22.15z M24.47,18.27c-2.27,0-4.12,1.84-4.12,4.11
	c0,2.03,1.48,3.72,3.41,4.05c0.05,0.01,0.1,0.04,0.12,0.08c0.13,0.21,0.28,0.45,0.36,0.56c0.07,0.1,0.16,0.17,0.29,0.14
	c0.06-0.02,0.11-0.06,0.15-0.11c0.08-0.12,0.24-0.37,0.37-0.59c0.03-0.04,0.07-0.07,0.12-0.08c1.93-0.33,3.41-2.02,3.41-4.05
	C28.58,20.11,26.74,18.27,24.47,18.27z M24.45,24.63c-1.24,0-2.25-1.01-2.25-2.25c0-1.25,1.01-2.26,2.25-2.26
	c1.25,0,2.26,1.01,2.26,2.26C26.71,23.62,25.7,24.63,24.45,24.63z M24.45,20.88c-0.82,0-1.5,0.67-1.5,1.5s0.68,1.5,1.5,1.5
	c0.83,0,1.51-0.67,1.51-1.5S25.28,20.88,24.45,20.88z M24.97,22.15c-0.21,0-0.37-0.17-0.37-0.37c0-0.21,0.16-0.38,0.37-0.38
	c0.21,0,0.38,0.17,0.38,0.38C25.35,21.98,25.18,22.15,24.97,22.15z M35.89,22.57c-0.29-0.3-0.74-0.52-1.35-0.67l-0.51-0.13
	c-0.18-0.05-0.31-0.1-0.41-0.15s-0.16-0.11-0.2-0.17c-0.04-0.07-0.06-0.15-0.06-0.24c0-0.19,0.09-0.33,0.28-0.43
	c0.19-0.1,0.52-0.15,1-0.15c0.22,0,0.45,0.02,0.69,0.05c0.25,0.03,0.47,0.07,0.66,0.12v-1.29c-0.38-0.09-0.78-0.14-1.21-0.16v-0.92
	H33.3v1.05c-0.51,0.13-0.89,0.35-1.15,0.65c-0.26,0.31-0.39,0.7-0.39,1.16c0,0.48,0.14,0.87,0.42,1.17c0.28,0.29,0.7,0.51,1.26,0.65
	l0.51,0.13c0.21,0.06,0.37,0.11,0.48,0.17c0.11,0.05,0.19,0.11,0.23,0.18c0.05,0.07,0.07,0.15,0.07,0.26c0,0.19-0.08,0.33-0.24,0.43
	c-0.16,0.09-0.43,0.14-0.82,0.14c-0.26,0-0.54-0.02-0.87-0.07c-0.32-0.05-0.61-0.11-0.87-0.19v1.29c0.43,0.13,0.89,0.21,1.37,0.24
	v0.93h1.48v-1.05c0.5-0.13,0.88-0.35,1.14-0.67c0.27-0.32,0.4-0.7,0.4-1.16C36.32,23.26,36.18,22.87,35.89,22.57z M24.45,20.88
	c-0.82,0-1.5,0.67-1.5,1.5s0.68,1.5,1.5,1.5c0.83,0,1.51-0.67,1.51-1.5S25.28,20.88,24.45,20.88z M24.97,22.15
	c-0.21,0-0.37-0.17-0.37-0.37c0-0.21,0.16-0.38,0.37-0.38c0.21,0,0.38,0.17,0.38,0.38C25.35,21.98,25.18,22.15,24.97,22.15z
	 M24.45,20.88c-0.82,0-1.5,0.67-1.5,1.5s0.68,1.5,1.5,1.5c0.83,0,1.51-0.67,1.51-1.5S25.28,20.88,24.45,20.88z M24.97,22.15
	c-0.21,0-0.37-0.17-0.37-0.37c0-0.21,0.16-0.38,0.37-0.38c0.21,0,0.38,0.17,0.38,0.38C25.35,21.98,25.18,22.15,24.97,22.15z
	 M24.47,18.27c-2.27,0-4.12,1.84-4.12,4.11c0,2.03,1.48,3.72,3.41,4.05c0.05,0.01,0.1,0.04,0.12,0.08c0.13,0.21,0.28,0.45,0.36,0.56
	c0.07,0.1,0.16,0.17,0.29,0.14c0.06-0.02,0.11-0.06,0.15-0.11c0.08-0.12,0.24-0.37,0.37-0.59c0.03-0.04,0.07-0.07,0.12-0.08
	c1.93-0.33,3.41-2.02,3.41-4.05C28.58,20.11,26.74,18.27,24.47,18.27z M24.45,24.63c-1.24,0-2.25-1.01-2.25-2.25
	c0-1.25,1.01-2.26,2.25-2.26c1.25,0,2.26,1.01,2.26,2.26C26.71,23.62,25.7,24.63,24.45,24.63z M24.45,20.88
	c-0.82,0-1.5,0.67-1.5,1.5s0.68,1.5,1.5,1.5c0.83,0,1.51-0.67,1.51-1.5S25.28,20.88,24.45,20.88z M24.97,22.15
	c-0.21,0-0.37-0.17-0.37-0.37c0-0.21,0.16-0.38,0.37-0.38c0.21,0,0.38,0.17,0.38,0.38C25.35,21.98,25.18,22.15,24.97,22.15z
	 M35.89,22.57c-0.29-0.3-0.74-0.52-1.35-0.67l-0.51-0.13c-0.18-0.05-0.31-0.1-0.41-0.15s-0.16-0.11-0.2-0.17
	c-0.04-0.07-0.06-0.15-0.06-0.24c0-0.19,0.09-0.33,0.28-0.43c0.19-0.1,0.52-0.15,1-0.15c0.22,0,0.45,0.02,0.69,0.05
	c0.25,0.03,0.47,0.07,0.66,0.12v-1.29c-0.38-0.09-0.78-0.14-1.21-0.16v-0.92H33.3v1.05c-0.51,0.13-0.89,0.35-1.15,0.65
	c-0.26,0.31-0.39,0.7-0.39,1.16c0,0.48,0.14,0.87,0.42,1.17c0.28,0.29,0.7,0.51,1.26,0.65l0.51,0.13c0.21,0.06,0.37,0.11,0.48,0.17
	c0.11,0.05,0.19,0.11,0.23,0.18c0.05,0.07,0.07,0.15,0.07,0.26c0,0.19-0.08,0.33-0.24,0.43c-0.16,0.09-0.43,0.14-0.82,0.14
	c-0.26,0-0.54-0.02-0.87-0.07c-0.32-0.05-0.61-0.11-0.87-0.19v1.29c0.43,0.13,0.89,0.21,1.37,0.24v0.93h1.48v-1.05
	c0.5-0.13,0.88-0.35,1.14-0.67c0.27-0.32,0.4-0.7,0.4-1.16C36.32,23.26,36.18,22.87,35.89,22.57z M24.45,20.88
	c-0.82,0-1.5,0.67-1.5,1.5s0.68,1.5,1.5,1.5c0.83,0,1.51-0.67,1.51-1.5S25.28,20.88,24.45,20.88z M24.97,22.15
	c-0.21,0-0.37-0.17-0.37-0.37c0-0.21,0.16-0.38,0.37-0.38c0.21,0,0.38,0.17,0.38,0.38C25.35,21.98,25.18,22.15,24.97,22.15z
	 M24.45,20.88c-0.82,0-1.5,0.67-1.5,1.5s0.68,1.5,1.5,1.5c0.83,0,1.51-0.67,1.51-1.5S25.28,20.88,24.45,20.88z M24.97,22.15
	c-0.21,0-0.37-0.17-0.37-0.37c0-0.21,0.16-0.38,0.37-0.38c0.21,0,0.38,0.17,0.38,0.38C25.35,21.98,25.18,22.15,24.97,22.15z
	 M24.47,18.27c-2.27,0-4.12,1.84-4.12,4.11c0,2.03,1.48,3.72,3.41,4.05c0.05,0.01,0.1,0.04,0.12,0.08c0.13,0.21,0.28,0.45,0.36,0.56
	c0.07,0.1,0.16,0.17,0.29,0.14c0.06-0.02,0.11-0.06,0.15-0.11c0.08-0.12,0.24-0.37,0.37-0.59c0.03-0.04,0.07-0.07,0.12-0.08
	c1.93-0.33,3.41-2.02,3.41-4.05C28.58,20.11,26.74,18.27,24.47,18.27z M24.45,24.63c-1.24,0-2.25-1.01-2.25-2.25
	c0-1.25,1.01-2.26,2.25-2.26c1.25,0,2.26,1.01,2.26,2.26C26.71,23.62,25.7,24.63,24.45,24.63z M24.45,20.88
	c-0.82,0-1.5,0.67-1.5,1.5s0.68,1.5,1.5,1.5c0.83,0,1.51-0.67,1.51-1.5S25.28,20.88,24.45,20.88z M24.97,22.15
	c-0.21,0-0.37-0.17-0.37-0.37c0-0.21,0.16-0.38,0.37-0.38c0.21,0,0.38,0.17,0.38,0.38C25.35,21.98,25.18,22.15,24.97,22.15z"/>
</svg>
