<?xml version="1.0" encoding="utf-8"?>
<!-- Generator: Adobe Illustrator 24.2.1, SVG Export Plug-In . SVG Version: 6.00 Build 0)  -->
<svg version="1.1" id="Layer_1" xmlns="http://www.w3.org/2000/svg" xmlns:xlink="http://www.w3.org/1999/xlink" x="0px" y="0px"
	 viewBox="0 0 50.5 50.5" style="enable-background:new 0 0 50.5 50.5;" xml:space="preserve">
<path d="M38.18,23.27c-0.29-0.3-0.74-0.52-1.35-0.67l-0.51-0.13c-0.18-0.05-0.31-0.1-0.41-0.15c-0.1-0.05-0.16-0.1-0.2-0.17
	c-0.04-0.07-0.06-0.15-0.06-0.24c0-0.18,0.09-0.33,0.28-0.43c0.19-0.1,0.52-0.15,1-0.15c0.22,0,0.45,0.02,0.69,0.05
	c0.25,0.03,0.47,0.07,0.66,0.12v-1.29c-0.38-0.09-0.78-0.14-1.21-0.16v-0.92h-1.48v1.05c-0.51,0.13-0.89,0.35-1.15,0.66
	c-0.26,0.3-0.39,0.69-0.39,1.15c0,0.48,0.14,0.87,0.42,1.17c0.28,0.3,0.7,0.51,1.26,0.65l0.51,0.13c0.21,0.06,0.37,0.11,0.48,0.17
	c0.11,0.05,0.19,0.11,0.23,0.18c0.05,0.07,0.07,0.16,0.07,0.26c0,0.19-0.08,0.33-0.24,0.43c-0.16,0.09-0.44,0.14-0.82,0.14
	c-0.26,0-0.55-0.02-0.87-0.07c-0.32-0.05-0.61-0.11-0.87-0.19v1.29c0.43,0.13,0.89,0.21,1.37,0.24v0.94h1.48v-1.05
	c0.5-0.14,0.88-0.36,1.14-0.68c0.27-0.31,0.4-0.7,0.4-1.16C38.61,23.96,38.47,23.57,38.18,23.27z M26.74,21.58
	c-0.83,0-1.5,0.67-1.5,1.5c0,0.83,0.67,1.5,1.5,1.5s1.51-0.67,1.51-1.5C28.25,22.25,27.57,21.58,26.74,21.58z M27.26,22.85
	c-0.21,0-0.37-0.17-0.37-0.37c0-0.21,0.16-0.38,0.37-0.38c0.21,0,0.37,0.17,0.37,0.38C27.63,22.68,27.47,22.85,27.26,22.85z
	 M26.74,21.58c-0.83,0-1.5,0.67-1.5,1.5c0,0.83,0.67,1.5,1.5,1.5s1.51-0.67,1.51-1.5C28.25,22.25,27.57,21.58,26.74,21.58z
	 M27.26,22.85c-0.21,0-0.37-0.17-0.37-0.37c0-0.21,0.16-0.38,0.37-0.38c0.21,0,0.37,0.17,0.37,0.38
	C27.63,22.68,27.47,22.85,27.26,22.85z M26.74,21.58c-0.83,0-1.5,0.67-1.5,1.5c0,0.83,0.67,1.5,1.5,1.5s1.51-0.67,1.51-1.5
	C28.25,22.25,27.57,21.58,26.74,21.58z M27.26,22.85c-0.21,0-0.37-0.17-0.37-0.37c0-0.21,0.16-0.38,0.37-0.38
	c0.21,0,0.37,0.17,0.37,0.38C27.63,22.68,27.47,22.85,27.26,22.85z M26.74,21.58c-0.83,0-1.5,0.67-1.5,1.5c0,0.83,0.67,1.5,1.5,1.5
	s1.51-0.67,1.51-1.5C28.25,22.25,27.57,21.58,26.74,21.58z M27.26,22.85c-0.21,0-0.37-0.17-0.37-0.37c0-0.21,0.16-0.38,0.37-0.38
	c0.21,0,0.37,0.17,0.37,0.38C27.63,22.68,27.47,22.85,27.26,22.85z M26.74,21.58c-0.83,0-1.5,0.67-1.5,1.5c0,0.83,0.67,1.5,1.5,1.5
	s1.51-0.67,1.51-1.5C28.25,22.25,27.57,21.58,26.74,21.58z M27.26,22.85c-0.21,0-0.37-0.17-0.37-0.37c0-0.21,0.16-0.38,0.37-0.38
	c0.21,0,0.37,0.17,0.37,0.38C27.63,22.68,27.47,22.85,27.26,22.85z M26.74,21.58c-0.83,0-1.5,0.67-1.5,1.5c0,0.83,0.67,1.5,1.5,1.5
	s1.51-0.67,1.51-1.5C28.25,22.25,27.57,21.58,26.74,21.58z M27.26,22.85c-0.21,0-0.37-0.17-0.37-0.37c0-0.21,0.16-0.38,0.37-0.38
	c0.21,0,0.37,0.17,0.37,0.38C27.63,22.68,27.47,22.85,27.26,22.85z M26.76,18.97c-2.28,0-4.12,1.84-4.12,4.11
	c0,2.03,1.48,3.72,3.41,4.05c0.05,0.01,0.1,0.04,0.12,0.08c0.13,0.22,0.28,0.46,0.36,0.57c0.07,0.09,0.16,0.16,0.29,0.13
	c0.06-0.02,0.11-0.06,0.15-0.11c0.08-0.12,0.24-0.37,0.37-0.59c0.03-0.04,0.07-0.07,0.12-0.08c1.93-0.33,3.41-2.02,3.41-4.05
	C30.87,20.81,29.03,18.97,26.76,18.97z M26.74,25.33c-1.24,0-2.25-1-2.25-2.25s1.01-2.25,2.25-2.25c1.25,0,2.26,1,2.26,2.25
	S27.99,25.33,26.74,25.33z M26.74,21.58c-0.83,0-1.5,0.67-1.5,1.5c0,0.83,0.67,1.5,1.5,1.5s1.51-0.67,1.51-1.5
	C28.25,22.25,27.57,21.58,26.74,21.58z M27.26,22.85c-0.21,0-0.37-0.17-0.37-0.37c0-0.21,0.16-0.38,0.37-0.38
	c0.21,0,0.37,0.17,0.37,0.38C27.63,22.68,27.47,22.85,27.26,22.85z M38.18,23.27c-0.29-0.3-0.74-0.52-1.35-0.67l-0.51-0.13
	c-0.18-0.05-0.31-0.1-0.41-0.15c-0.1-0.05-0.16-0.1-0.2-0.17c-0.04-0.07-0.06-0.15-0.06-0.24c0-0.18,0.09-0.33,0.28-0.43
	c0.19-0.1,0.52-0.15,1-0.15c0.22,0,0.45,0.02,0.69,0.05c0.25,0.03,0.47,0.07,0.66,0.12v-1.29c-0.38-0.09-0.78-0.14-1.21-0.16v-0.92
	h-1.48v1.05c-0.51,0.13-0.89,0.35-1.15,0.66c-0.26,0.3-0.39,0.69-0.39,1.15c0,0.48,0.14,0.87,0.42,1.17c0.28,0.3,0.7,0.51,1.26,0.65
	l0.51,0.13c0.21,0.06,0.37,0.11,0.48,0.17c0.11,0.05,0.19,0.11,0.23,0.18c0.05,0.07,0.07,0.16,0.07,0.26c0,0.19-0.08,0.33-0.24,0.43
	c-0.16,0.09-0.44,0.14-0.82,0.14c-0.26,0-0.55-0.02-0.87-0.07c-0.32-0.05-0.61-0.11-0.87-0.19v1.29c0.43,0.13,0.89,0.21,1.37,0.24
	v0.94h1.48v-1.05c0.5-0.14,0.88-0.36,1.14-0.68c0.27-0.31,0.4-0.7,0.4-1.16C38.61,23.96,38.47,23.57,38.18,23.27z M26.74,21.58
	c-0.83,0-1.5,0.67-1.5,1.5c0,0.83,0.67,1.5,1.5,1.5s1.51-0.67,1.51-1.5C28.25,22.25,27.57,21.58,26.74,21.58z M27.26,22.85
	c-0.21,0-0.37-0.17-0.37-0.37c0-0.21,0.16-0.38,0.37-0.38c0.21,0,0.37,0.17,0.37,0.38C27.63,22.68,27.47,22.85,27.26,22.85z
	 M26.74,21.58c-0.83,0-1.5,0.67-1.5,1.5c0,0.83,0.67,1.5,1.5,1.5s1.51-0.67,1.51-1.5C28.25,22.25,27.57,21.58,26.74,21.58z
	 M27.26,22.85c-0.21,0-0.37-0.17-0.37-0.37c0-0.21,0.16-0.38,0.37-0.38c0.21,0,0.37,0.17,0.37,0.38
	C27.63,22.68,27.47,22.85,27.26,22.85z M26.76,18.97c-2.28,0-4.12,1.84-4.12,4.11c0,2.03,1.48,3.72,3.41,4.05
	c0.05,0.01,0.1,0.04,0.12,0.08c0.13,0.22,0.28,0.46,0.36,0.57c0.07,0.09,0.16,0.16,0.29,0.13c0.06-0.02,0.11-0.06,0.15-0.11
	c0.08-0.12,0.24-0.37,0.37-0.59c0.03-0.04,0.07-0.07,0.12-0.08c1.93-0.33,3.41-2.02,3.41-4.05C30.87,20.81,29.03,18.97,26.76,18.97z
	 M26.74,25.33c-1.24,0-2.25-1-2.25-2.25s1.01-2.25,2.25-2.25c1.25,0,2.26,1,2.26,2.25S27.99,25.33,26.74,25.33z M26.74,21.58
	c-0.83,0-1.5,0.67-1.5,1.5c0,0.83,0.67,1.5,1.5,1.5s1.51-0.67,1.51-1.5C28.25,22.25,27.57,21.58,26.74,21.58z M27.26,22.85
	c-0.21,0-0.37-0.17-0.37-0.37c0-0.21,0.16-0.38,0.37-0.38c0.21,0,0.37,0.17,0.37,0.38C27.63,22.68,27.47,22.85,27.26,22.85z
	 M26.74,21.58c-0.83,0-1.5,0.67-1.5,1.5c0,0.83,0.67,1.5,1.5,1.5s1.51-0.67,1.51-1.5C28.25,22.25,27.57,21.58,26.74,21.58z
	 M27.26,22.85c-0.21,0-0.37-0.17-0.37-0.37c0-0.21,0.16-0.38,0.37-0.38c0.21,0,0.37,0.17,0.37,0.38
	C27.63,22.68,27.47,22.85,27.26,22.85z M26.74,21.58c-0.83,0-1.5,0.67-1.5,1.5c0,0.83,0.67,1.5,1.5,1.5s1.51-0.67,1.51-1.5
	C28.25,22.25,27.57,21.58,26.74,21.58z M27.26,22.85c-0.21,0-0.37-0.17-0.37-0.37c0-0.21,0.16-0.38,0.37-0.38
	c0.21,0,0.37,0.17,0.37,0.38C27.63,22.68,27.47,22.85,27.26,22.85z M26.76,18.97c-2.28,0-4.12,1.84-4.12,4.11
	c0,2.03,1.48,3.72,3.41,4.05c0.05,0.01,0.1,0.04,0.12,0.08c0.13,0.22,0.28,0.46,0.36,0.57c0.07,0.09,0.16,0.16,0.29,0.13
	c0.06-0.02,0.11-0.06,0.15-0.11c0.08-0.12,0.24-0.37,0.37-0.59c0.03-0.04,0.07-0.07,0.12-0.08c1.93-0.33,3.41-2.02,3.41-4.05
	C30.87,20.81,29.03,18.97,26.76,18.97z M26.74,25.33c-1.24,0-2.25-1-2.25-2.25s1.01-2.25,2.25-2.25c1.25,0,2.26,1,2.26,2.25
	S27.99,25.33,26.74,25.33z M26.74,21.58c-0.83,0-1.5,0.67-1.5,1.5c0,0.83,0.67,1.5,1.5,1.5s1.51-0.67,1.51-1.5
	C28.25,22.25,27.57,21.58,26.74,21.58z M27.26,22.85c-0.21,0-0.37-0.17-0.37-0.37c0-0.21,0.16-0.38,0.37-0.38
	c0.21,0,0.37,0.17,0.37,0.38C27.63,22.68,27.47,22.85,27.26,22.85z M38.18,23.27c-0.29-0.3-0.74-0.52-1.35-0.67l-0.51-0.13
	c-0.18-0.05-0.31-0.1-0.41-0.15c-0.1-0.05-0.16-0.1-0.2-0.17c-0.04-0.07-0.06-0.15-0.06-0.24c0-0.18,0.09-0.33,0.28-0.43
	c0.19-0.1,0.52-0.15,1-0.15c0.22,0,0.45,0.02,0.69,0.05c0.25,0.03,0.47,0.07,0.66,0.12v-1.29c-0.38-0.09-0.78-0.14-1.21-0.16v-0.92
	h-1.48v1.05c-0.51,0.13-0.89,0.35-1.15,0.66c-0.26,0.3-0.39,0.69-0.39,1.15c0,0.48,0.14,0.87,0.42,1.17c0.28,0.3,0.7,0.51,1.26,0.65
	l0.51,0.13c0.21,0.06,0.37,0.11,0.48,0.17c0.11,0.05,0.19,0.11,0.23,0.18c0.05,0.07,0.07,0.16,0.07,0.26c0,0.19-0.08,0.33-0.24,0.43
	c-0.16,0.09-0.44,0.14-0.82,0.14c-0.26,0-0.55-0.02-0.87-0.07c-0.32-0.05-0.61-0.11-0.87-0.19v1.29c0.43,0.13,0.89,0.21,1.37,0.24
	v0.94h1.48v-1.05c0.5-0.14,0.88-0.36,1.14-0.68c0.27-0.31,0.4-0.7,0.4-1.16C38.61,23.96,38.47,23.57,38.18,23.27z M38.18,23.27
	c-0.29-0.3-0.74-0.52-1.35-0.67l-0.51-0.13c-0.18-0.05-0.31-0.1-0.41-0.15c-0.1-0.05-0.16-0.1-0.2-0.17
	c-0.04-0.07-0.06-0.15-0.06-0.24c0-0.18,0.09-0.33,0.28-0.43c0.19-0.1,0.52-0.15,1-0.15c0.22,0,0.45,0.02,0.69,0.05
	c0.25,0.03,0.47,0.07,0.66,0.12v-1.29c-0.38-0.09-0.78-0.14-1.21-0.16v-0.92h-1.48v1.05c-0.51,0.13-0.89,0.35-1.15,0.66
	c-0.26,0.3-0.39,0.69-0.39,1.15c0,0.48,0.14,0.87,0.42,1.17c0.28,0.3,0.7,0.51,1.26,0.65l0.51,0.13c0.21,0.06,0.37,0.11,0.48,0.17
	c0.11,0.05,0.19,0.11,0.23,0.18c0.05,0.07,0.07,0.16,0.07,0.26c0,0.19-0.08,0.33-0.24,0.43c-0.16,0.09-0.44,0.14-0.82,0.14
	c-0.26,0-0.55-0.02-0.87-0.07c-0.32-0.05-0.61-0.11-0.87-0.19v1.29c0.43,0.13,0.89,0.21,1.37,0.24v0.94h1.48v-1.05
	c0.5-0.14,0.88-0.36,1.14-0.68c0.27-0.31,0.4-0.7,0.4-1.16C38.61,23.96,38.47,23.57,38.18,23.27z M26.76,18.97
	c-2.28,0-4.12,1.84-4.12,4.11c0,2.03,1.48,3.72,3.41,4.05c0.05,0.01,0.1,0.04,0.12,0.08c0.13,0.22,0.28,0.46,0.36,0.57
	c0.07,0.09,0.16,0.16,0.29,0.13c0.06-0.02,0.11-0.06,0.15-0.11c0.08-0.12,0.24-0.37,0.37-0.59c0.03-0.04,0.07-0.07,0.12-0.08
	c1.93-0.33,3.41-2.02,3.41-4.05C30.87,20.81,29.03,18.97,26.76,18.97z M26.74,25.33c-1.24,0-2.25-1-2.25-2.25s1.01-2.25,2.25-2.25
	c1.25,0,2.26,1,2.26,2.25S27.99,25.33,26.74,25.33z M26.74,21.58c-0.83,0-1.5,0.67-1.5,1.5c0,0.83,0.67,1.5,1.5,1.5
	s1.51-0.67,1.51-1.5C28.25,22.25,27.57,21.58,26.74,21.58z M27.26,22.85c-0.21,0-0.37-0.17-0.37-0.37c0-0.21,0.16-0.38,0.37-0.38
	c0.21,0,0.37,0.17,0.37,0.38C27.63,22.68,27.47,22.85,27.26,22.85z M39.11,15.76h-9.14v-1.25c0.58-0.4,0.96-1.07,0.96-1.82v-1.41
	c0-1.23-1-2.22-2.22-2.22H10.44c-1.22,0-2.22,0.99-2.22,2.22v1.41c0,0.75,0.38,1.42,0.96,1.82V38.1c-0.58,0.4-0.96,1.07-0.96,1.83
	v1.41c0,1.22,1,2.22,2.22,2.22h18.27c1.22,0,2.22-1,2.22-2.22v-1.41c0-0.76-0.38-1.42-0.96-1.83v-6.97h9.14
	c1.64,0,2.98-1.34,2.98-2.98v-9.41C42.09,17.1,40.75,15.76,39.11,15.76z M10.12,11.28c0-0.18,0.15-0.32,0.32-0.32h18.27
	c0.18,0,0.32,0.14,0.32,0.32v1.41c0,0.18-0.14,0.32-0.32,0.32H10.44c-0.17,0-0.32-0.14-0.32-0.32V11.28z M18.13,21.99
	c-2.28,0.52-3.96,2.24-3.96,4.29c0,2.45,2.42,4.45,5.41,4.45c0.86,0,1.67-0.17,2.4-0.47c1.03,0.55,2.21,0.87,3.46,0.87h2.63v1.02
	H11.08V20.41h7.49C18.36,20.91,18.22,21.44,18.13,21.99z M20.06,28.8c-0.16,0.01-0.32,0.03-0.48,0.03c-1.9,0-3.51-1.17-3.51-2.55
	c0-0.99,0.82-1.85,1.97-2.28C18.11,25.85,18.86,27.53,20.06,28.8z M28.07,34.05v3.59H11.08v-3.59H28.07z M11.08,18.51v-3.6h16.99
	v0.85h-2.63c-2.32,0-4.39,1.07-5.75,2.75H11.08z M29.03,41.34c0,0.17-0.14,0.32-0.32,0.32H10.44c-0.17,0-0.32-0.15-0.32-0.32v-1.41
	c0-0.18,0.15-0.32,0.32-0.32h18.27c0.18,0,0.32,0.14,0.32,0.32V41.34z M40.49,28.15c0,0.76-0.62,1.38-1.38,1.38H25.44
	c-3.21,0-5.82-2.61-5.82-5.82v-0.53c0-3.21,2.61-5.82,5.82-5.82h13.67c0.76,0,1.38,0.62,1.38,1.38V28.15z M36.83,22.6l-0.51-0.13
	c-0.18-0.05-0.31-0.1-0.41-0.15c-0.1-0.05-0.16-0.1-0.2-0.17c-0.04-0.07-0.06-0.15-0.06-0.24c0-0.18,0.09-0.33,0.28-0.43
	c0.19-0.1,0.52-0.15,1-0.15c0.22,0,0.45,0.02,0.69,0.05c0.25,0.03,0.47,0.07,0.66,0.12v-1.29c-0.38-0.09-0.78-0.14-1.21-0.16v-0.92
	h-1.48v1.05c-0.51,0.13-0.89,0.35-1.15,0.66c-0.26,0.3-0.39,0.69-0.39,1.15c0,0.48,0.14,0.87,0.42,1.17c0.28,0.3,0.7,0.51,1.26,0.65
	l0.51,0.13c0.21,0.06,0.37,0.11,0.48,0.17c0.11,0.05,0.19,0.11,0.23,0.18c0.05,0.07,0.07,0.16,0.07,0.26c0,0.19-0.08,0.33-0.24,0.43
	c-0.16,0.09-0.44,0.14-0.82,0.14c-0.26,0-0.55-0.02-0.87-0.07c-0.32-0.05-0.61-0.11-0.87-0.19v1.29c0.43,0.13,0.89,0.21,1.37,0.24
	v0.94h1.48v-1.05c0.5-0.14,0.88-0.36,1.14-0.68c0.27-0.31,0.4-0.7,0.4-1.16c0-0.48-0.14-0.87-0.43-1.17
	C37.89,22.97,37.44,22.75,36.83,22.6z M26.76,18.97c-2.28,0-4.12,1.84-4.12,4.11c0,2.03,1.48,3.72,3.41,4.05
	c0.05,0.01,0.1,0.04,0.12,0.08c0.13,0.22,0.28,0.46,0.36,0.57c0.07,0.09,0.16,0.16,0.29,0.13c0.06-0.02,0.11-0.06,0.15-0.11
	c0.08-0.12,0.24-0.37,0.37-0.59c0.03-0.04,0.07-0.07,0.12-0.08c1.93-0.33,3.41-2.02,3.41-4.05C30.87,20.81,29.03,18.97,26.76,18.97z
	 M26.74,25.33c-1.24,0-2.25-1-2.25-2.25s1.01-2.25,2.25-2.25c1.25,0,2.26,1,2.26,2.25S27.99,25.33,26.74,25.33z M26.74,21.58
	c-0.83,0-1.5,0.67-1.5,1.5c0,0.83,0.67,1.5,1.5,1.5s1.51-0.67,1.51-1.5C28.25,22.25,27.57,21.58,26.74,21.58z M27.26,22.85
	c-0.21,0-0.37-0.17-0.37-0.37c0-0.21,0.16-0.38,0.37-0.38c0.21,0,0.37,0.17,0.37,0.38C27.63,22.68,27.47,22.85,27.26,22.85z
	 M26.74,21.58c-0.83,0-1.5,0.67-1.5,1.5c0,0.83,0.67,1.5,1.5,1.5s1.51-0.67,1.51-1.5C28.25,22.25,27.57,21.58,26.74,21.58z
	 M27.26,22.85c-0.21,0-0.37-0.17-0.37-0.37c0-0.21,0.16-0.38,0.37-0.38c0.21,0,0.37,0.17,0.37,0.38
	C27.63,22.68,27.47,22.85,27.26,22.85z M26.74,21.58c-0.83,0-1.5,0.67-1.5,1.5c0,0.83,0.67,1.5,1.5,1.5s1.51-0.67,1.51-1.5
	C28.25,22.25,27.57,21.58,26.74,21.58z M27.26,22.85c-0.21,0-0.37-0.17-0.37-0.37c0-0.21,0.16-0.38,0.37-0.38
	c0.21,0,0.37,0.17,0.37,0.38C27.63,22.68,27.47,22.85,27.26,22.85z M26.76,18.97c-2.28,0-4.12,1.84-4.12,4.11
	c0,2.03,1.48,3.72,3.41,4.05c0.05,0.01,0.1,0.04,0.12,0.08c0.13,0.22,0.28,0.46,0.36,0.57c0.07,0.09,0.16,0.16,0.29,0.13
	c0.06-0.02,0.11-0.06,0.15-0.11c0.08-0.12,0.24-0.37,0.37-0.59c0.03-0.04,0.07-0.07,0.12-0.08c1.93-0.33,3.41-2.02,3.41-4.05
	C30.87,20.81,29.03,18.97,26.76,18.97z M26.74,25.33c-1.24,0-2.25-1-2.25-2.25s1.01-2.25,2.25-2.25c1.25,0,2.26,1,2.26,2.25
	S27.99,25.33,26.74,25.33z M26.74,21.58c-0.83,0-1.5,0.67-1.5,1.5c0,0.83,0.67,1.5,1.5,1.5s1.51-0.67,1.51-1.5
	C28.25,22.25,27.57,21.58,26.74,21.58z M27.26,22.85c-0.21,0-0.37-0.17-0.37-0.37c0-0.21,0.16-0.38,0.37-0.38
	c0.21,0,0.37,0.17,0.37,0.38C27.63,22.68,27.47,22.85,27.26,22.85z M38.18,23.27c-0.29-0.3-0.74-0.52-1.35-0.67l-0.51-0.13
	c-0.18-0.05-0.31-0.1-0.41-0.15c-0.1-0.05-0.16-0.1-0.2-0.17c-0.04-0.07-0.06-0.15-0.06-0.24c0-0.18,0.09-0.33,0.28-0.43
	c0.19-0.1,0.52-0.15,1-0.15c0.22,0,0.45,0.02,0.69,0.05c0.25,0.03,0.47,0.07,0.66,0.12v-1.29c-0.38-0.09-0.78-0.14-1.21-0.16v-0.92
	h-1.48v1.05c-0.51,0.13-0.89,0.35-1.15,0.66c-0.26,0.3-0.39,0.69-0.39,1.15c0,0.48,0.14,0.87,0.42,1.17c0.28,0.3,0.7,0.51,1.26,0.65
	l0.51,0.13c0.21,0.06,0.37,0.11,0.48,0.17c0.11,0.05,0.19,0.11,0.23,0.18c0.05,0.07,0.07,0.16,0.07,0.26c0,0.19-0.08,0.33-0.24,0.43
	c-0.16,0.09-0.44,0.14-0.82,0.14c-0.26,0-0.55-0.02-0.87-0.07c-0.32-0.05-0.61-0.11-0.87-0.19v1.29c0.43,0.13,0.89,0.21,1.37,0.24
	v0.94h1.48v-1.05c0.5-0.14,0.88-0.36,1.14-0.68c0.27-0.31,0.4-0.7,0.4-1.16C38.61,23.96,38.47,23.57,38.18,23.27z M38.18,23.27
	c-0.29-0.3-0.74-0.52-1.35-0.67l-0.51-0.13c-0.18-0.05-0.31-0.1-0.41-0.15c-0.1-0.05-0.16-0.1-0.2-0.17
	c-0.04-0.07-0.06-0.15-0.06-0.24c0-0.18,0.09-0.33,0.28-0.43c0.19-0.1,0.52-0.15,1-0.15c0.22,0,0.45,0.02,0.69,0.05
	c0.25,0.03,0.47,0.07,0.66,0.12v-1.29c-0.38-0.09-0.78-0.14-1.21-0.16v-0.92h-1.48v1.05c-0.51,0.13-0.89,0.35-1.15,0.66
	c-0.26,0.3-0.39,0.69-0.39,1.15c0,0.48,0.14,0.87,0.42,1.17c0.28,0.3,0.7,0.51,1.26,0.65l0.51,0.13c0.21,0.06,0.37,0.11,0.48,0.17
	c0.11,0.05,0.19,0.11,0.23,0.18c0.05,0.07,0.07,0.16,0.07,0.26c0,0.19-0.08,0.33-0.24,0.43c-0.16,0.09-0.44,0.14-0.82,0.14
	c-0.26,0-0.55-0.02-0.87-0.07c-0.32-0.05-0.61-0.11-0.87-0.19v1.29c0.43,0.13,0.89,0.21,1.37,0.24v0.94h1.48v-1.05
	c0.5-0.14,0.88-0.36,1.14-0.68c0.27-0.31,0.4-0.7,0.4-1.16C38.61,23.96,38.47,23.57,38.18,23.27z M26.74,21.58
	c-0.83,0-1.5,0.67-1.5,1.5c0,0.83,0.67,1.5,1.5,1.5s1.51-0.67,1.51-1.5C28.25,22.25,27.57,21.58,26.74,21.58z M27.26,22.85
	c-0.21,0-0.37-0.17-0.37-0.37c0-0.21,0.16-0.38,0.37-0.38c0.21,0,0.37,0.17,0.37,0.38C27.63,22.68,27.47,22.85,27.26,22.85z
	 M26.74,21.58c-0.83,0-1.5,0.67-1.5,1.5c0,0.83,0.67,1.5,1.5,1.5s1.51-0.67,1.51-1.5C28.25,22.25,27.57,21.58,26.74,21.58z
	 M27.26,22.85c-0.21,0-0.37-0.17-0.37-0.37c0-0.21,0.16-0.38,0.37-0.38c0.21,0,0.37,0.17,0.37,0.38
	C27.63,22.68,27.47,22.85,27.26,22.85z M26.76,18.97c-2.28,0-4.12,1.84-4.12,4.11c0,2.03,1.48,3.72,3.41,4.05
	c0.05,0.01,0.1,0.04,0.12,0.08c0.13,0.22,0.28,0.46,0.36,0.57c0.07,0.09,0.16,0.16,0.29,0.13c0.06-0.02,0.11-0.06,0.15-0.11
	c0.08-0.12,0.24-0.37,0.37-0.59c0.03-0.04,0.07-0.07,0.12-0.08c1.93-0.33,3.41-2.02,3.41-4.05C30.87,20.81,29.03,18.97,26.76,18.97z
	 M26.74,25.33c-1.24,0-2.25-1-2.25-2.25s1.01-2.25,2.25-2.25c1.25,0,2.26,1,2.26,2.25S27.99,25.33,26.74,25.33z M26.74,21.58
	c-0.83,0-1.5,0.67-1.5,1.5c0,0.83,0.67,1.5,1.5,1.5s1.51-0.67,1.51-1.5C28.25,22.25,27.57,21.58,26.74,21.58z M27.26,22.85
	c-0.21,0-0.37-0.17-0.37-0.37c0-0.21,0.16-0.38,0.37-0.38c0.21,0,0.37,0.17,0.37,0.38C27.63,22.68,27.47,22.85,27.26,22.85z
	 M38.18,23.27c-0.29-0.3-0.74-0.52-1.35-0.67l-0.51-0.13c-0.18-0.05-0.31-0.1-0.41-0.15c-0.1-0.05-0.16-0.1-0.2-0.17
	c-0.04-0.07-0.06-0.15-0.06-0.24c0-0.18,0.09-0.33,0.28-0.43c0.19-0.1,0.52-0.15,1-0.15c0.22,0,0.45,0.02,0.69,0.05
	c0.25,0.03,0.47,0.07,0.66,0.12v-1.29c-0.38-0.09-0.78-0.14-1.21-0.16v-0.92h-1.48v1.05c-0.51,0.13-0.89,0.35-1.15,0.66
	c-0.26,0.3-0.39,0.69-0.39,1.15c0,0.48,0.14,0.87,0.42,1.17c0.28,0.3,0.7,0.51,1.26,0.65l0.51,0.13c0.21,0.06,0.37,0.11,0.48,0.17
	c0.11,0.05,0.19,0.11,0.23,0.18c0.05,0.07,0.07,0.16,0.07,0.26c0,0.19-0.08,0.33-0.24,0.43c-0.16,0.09-0.44,0.14-0.82,0.14
	c-0.26,0-0.55-0.02-0.87-0.07c-0.32-0.05-0.61-0.11-0.87-0.19v1.29c0.43,0.13,0.89,0.21,1.37,0.24v0.94h1.48v-1.05
	c0.5-0.14,0.88-0.36,1.14-0.68c0.27-0.31,0.4-0.7,0.4-1.16C38.61,23.96,38.47,23.57,38.18,23.27z M26.74,21.58
	c-0.83,0-1.5,0.67-1.5,1.5c0,0.83,0.67,1.5,1.5,1.5s1.51-0.67,1.51-1.5C28.25,22.25,27.57,21.58,26.74,21.58z M27.26,22.85
	c-0.21,0-0.37-0.17-0.37-0.37c0-0.21,0.16-0.38,0.37-0.38c0.21,0,0.37,0.17,0.37,0.38C27.63,22.68,27.47,22.85,27.26,22.85z
	 M26.74,21.58c-0.83,0-1.5,0.67-1.5,1.5c0,0.83,0.67,1.5,1.5,1.5s1.51-0.67,1.51-1.5C28.25,22.25,27.57,21.58,26.74,21.58z
	 M27.26,22.85c-0.21,0-0.37-0.17-0.37-0.37c0-0.21,0.16-0.38,0.37-0.38c0.21,0,0.37,0.17,0.37,0.38
	C27.63,22.68,27.47,22.85,27.26,22.85z M26.76,18.97c-2.28,0-4.12,1.84-4.12,4.11c0,2.03,1.48,3.72,3.41,4.05
	c0.05,0.01,0.1,0.04,0.12,0.08c0.13,0.22,0.28,0.46,0.36,0.57c0.07,0.09,0.16,0.16,0.29,0.13c0.06-0.02,0.11-0.06,0.15-0.11
	c0.08-0.12,0.24-0.37,0.37-0.59c0.03-0.04,0.07-0.07,0.12-0.08c1.93-0.33,3.41-2.02,3.41-4.05C30.87,20.81,29.03,18.97,26.76,18.97z
	 M26.74,25.33c-1.24,0-2.25-1-2.25-2.25s1.01-2.25,2.25-2.25c1.25,0,2.26,1,2.26,2.25S27.99,25.33,26.74,25.33z M26.74,21.58
	c-0.83,0-1.5,0.67-1.5,1.5c0,0.83,0.67,1.5,1.5,1.5s1.51-0.67,1.51-1.5C28.25,22.25,27.57,21.58,26.74,21.58z M27.26,22.85
	c-0.21,0-0.37-0.17-0.37-0.37c0-0.21,0.16-0.38,0.37-0.38c0.21,0,0.37,0.17,0.37,0.38C27.63,22.68,27.47,22.85,27.26,22.85z
	 M38.18,23.27c-0.29-0.3-0.74-0.52-1.35-0.67l-0.51-0.13c-0.18-0.05-0.31-0.1-0.41-0.15c-0.1-0.05-0.16-0.1-0.2-0.17
	c-0.04-0.07-0.06-0.15-0.06-0.24c0-0.18,0.09-0.33,0.28-0.43c0.19-0.1,0.52-0.15,1-0.15c0.22,0,0.45,0.02,0.69,0.05
	c0.25,0.03,0.47,0.07,0.66,0.12v-1.29c-0.38-0.09-0.78-0.14-1.21-0.16v-0.92h-1.48v1.05c-0.51,0.13-0.89,0.35-1.15,0.66
	c-0.26,0.3-0.39,0.69-0.39,1.15c0,0.48,0.14,0.87,0.42,1.17c0.28,0.3,0.7,0.51,1.26,0.65l0.51,0.13c0.21,0.06,0.37,0.11,0.48,0.17
	c0.11,0.05,0.19,0.11,0.23,0.18c0.05,0.07,0.07,0.16,0.07,0.26c0,0.19-0.08,0.33-0.24,0.43c-0.16,0.09-0.44,0.14-0.82,0.14
	c-0.26,0-0.55-0.02-0.87-0.07c-0.32-0.05-0.61-0.11-0.87-0.19v1.29c0.43,0.13,0.89,0.21,1.37,0.24v0.94h1.48v-1.05
	c0.5-0.14,0.88-0.36,1.14-0.68c0.27-0.31,0.4-0.7,0.4-1.16C38.61,23.96,38.47,23.57,38.18,23.27z M26.74,21.58
	c-0.83,0-1.5,0.67-1.5,1.5c0,0.83,0.67,1.5,1.5,1.5s1.51-0.67,1.51-1.5C28.25,22.25,27.57,21.58,26.74,21.58z M27.26,22.85
	c-0.21,0-0.37-0.17-0.37-0.37c0-0.21,0.16-0.38,0.37-0.38c0.21,0,0.37,0.17,0.37,0.38C27.63,22.68,27.47,22.85,27.26,22.85z
	 M26.74,21.58c-0.83,0-1.5,0.67-1.5,1.5c0,0.83,0.67,1.5,1.5,1.5s1.51-0.67,1.51-1.5C28.25,22.25,27.57,21.58,26.74,21.58z
	 M27.26,22.85c-0.21,0-0.37-0.17-0.37-0.37c0-0.21,0.16-0.38,0.37-0.38c0.21,0,0.37,0.17,0.37,0.38
	C27.63,22.68,27.47,22.85,27.26,22.85z M26.76,18.97c-2.28,0-4.12,1.84-4.12,4.11c0,2.03,1.48,3.72,3.41,4.05
	c0.05,0.01,0.1,0.04,0.12,0.08c0.13,0.22,0.28,0.46,0.36,0.57c0.07,0.09,0.16,0.16,0.29,0.13c0.06-0.02,0.11-0.06,0.15-0.11
	c0.08-0.12,0.24-0.37,0.37-0.59c0.03-0.04,0.07-0.07,0.12-0.08c1.93-0.33,3.41-2.02,3.41-4.05C30.87,20.81,29.03,18.97,26.76,18.97z
	 M26.74,25.33c-1.24,0-2.25-1-2.25-2.25s1.01-2.25,2.25-2.25c1.25,0,2.26,1,2.26,2.25S27.99,25.33,26.74,25.33z M26.74,21.58
	c-0.83,0-1.5,0.67-1.5,1.5c0,0.83,0.67,1.5,1.5,1.5s1.51-0.67,1.51-1.5C28.25,22.25,27.57,21.58,26.74,21.58z M27.26,22.85
	c-0.21,0-0.37-0.17-0.37-0.37c0-0.21,0.16-0.38,0.37-0.38c0.21,0,0.37,0.17,0.37,0.38C27.63,22.68,27.47,22.85,27.26,22.85z"/>
</svg>
