<?xml version="1.0" encoding="utf-8"?>
<!-- Generator: Adobe Illustrator 28.0.0, SVG Export Plug-In . SVG Version: 6.00 Build 0)  -->
<svg version="1.1" id="Capa_1" xmlns="http://www.w3.org/2000/svg" xmlns:xlink="http://www.w3.org/1999/xlink" x="0px" y="0px"
	 viewBox="0 0 50.5 50.5" style="enable-background:new 0 0 50.5 50.5;" xml:space="preserve">
<g>
	<path d="M25.23,15.798c-3.644,0-6.608-2.964-6.608-6.608s2.964-6.608,6.608-6.608c3.644,0,6.608,2.964,6.608,6.608
		S28.874,15.798,25.23,15.798z M25.23,4.181c-2.762,0-5.008,2.247-5.008,5.009s2.247,5.009,5.008,5.009s5.009-2.247,5.009-5.009
		S27.992,4.181,25.23,4.181z"/>
</g>
<g>
	<path d="M25.233,27.447c-3.188,0-6.343-0.937-9.123-2.709c-0.299-0.19-0.437-0.555-0.339-0.896c0.93-3.234,2.739-5.834,5.093-7.321
		c0.239-0.151,0.54-0.166,0.793-0.035c2.259,1.161,4.881,1.164,7.146,0c0.25-0.128,0.553-0.117,0.792,0.035
		c2.353,1.484,4.162,4.084,5.094,7.322c0.098,0.341-0.04,0.705-0.339,0.896C31.57,26.51,28.417,27.447,25.233,27.447z
		 M17.489,23.706c4.78,2.803,10.695,2.807,15.483,0c-0.799-2.389-2.178-4.383-3.867-5.589c-2.468,1.124-5.284,1.122-7.749,0
		C19.666,19.325,18.287,21.319,17.489,23.706z"/>
</g>
<path d="M19.86,32.09c-0.586-0.281-1.14-0.546-1.407-0.821c-0.002-0.001-0.995-0.973-2.672-2.644
	c-0.942-0.938-2.131-0.944-3.043-0.47l-0.135-3.474c-0.271-2.992-1.813-4.253-3.201-4.204c-1.15,0.052-1.985,1.023-1.985,2.31
	c0,2.208,0.103,9.644,0.104,9.666c-0.005,0.089-0.094,2.213,1.768,4.072l7.083,8.179c0.158,0.183,0.381,0.276,0.605,0.276
	c0.186,0,0.372-0.064,0.523-0.195c0.334-0.29,0.37-0.794,0.081-1.129l-7.122-8.221c-1.377-1.376-1.343-2.843-1.34-2.951
	c-0.001-0.075-0.104-7.5-0.104-9.697c0-0.334,0.121-0.696,0.458-0.711c0.472-0.021,1.351,0.703,1.533,2.708l0.228,5.885
	c0.003,0.07,0.029,0.133,0.049,0.197c0.078,0.517,0.325,1.039,0.797,1.512l3.194,3.194c0.313,0.313,0.819,0.312,1.131,0
	c0.313-0.313,0.313-0.819,0-1.131l-3.194-3.195c-0.695-0.695-0.206-1.293-0.039-1.46c0.279-0.279,0.903-0.599,1.479-0.027
	c1.672,1.666,2.667,2.639,2.667,2.639c0.452,0.465,1.1,0.775,1.849,1.135c1.701,0.815,3.459,1.657,3.459,4.326v9.22
	c0,0.442,0.358,0.8,0.8,0.8s0.8-0.358,0.8-0.8v-9.22C24.227,34.183,21.599,32.924,19.86,32.09z"/>
<path d="M41.058,20.477c-1.4-0.071-2.931,1.213-3.204,4.245l-0.133,3.433c-0.912-0.473-2.101-0.469-3.043,0.47
	c-1.677,1.67-2.67,2.642-2.686,2.658c-0.253,0.261-0.807,0.526-1.393,0.807c-1.739,0.833-4.367,2.093-4.367,5.769v9.22
	c0,0.442,0.358,0.8,0.8,0.8s0.8-0.358,0.8-0.8v-9.22c0-2.668,1.758-3.511,3.459-4.326c0.75-0.359,1.397-0.669,1.835-1.121
	c0,0,0.998-0.976,2.682-2.653c0.576-0.572,1.2-0.252,1.479,0.027c0.167,0.167,0.656,0.766-0.039,1.46l-3.194,3.195
	c-0.312,0.313-0.312,0.819,0,1.131s0.819,0.312,1.131,0l3.194-3.194c0.471-0.471,0.718-0.991,0.797-1.505
	c0.021-0.067,0.047-0.132,0.05-0.204l0.225-5.844c0.185-2.044,1.031-2.757,1.535-2.75c0.337,0.015,0.458,0.377,0.458,0.711
	c0,2.197-0.103,9.622-0.103,9.743c0.002,0.062,0.036,1.529-1.38,2.947l-7.083,8.179c-0.289,0.334-0.253,0.839,0.081,1.129
	c0.151,0.131,0.338,0.195,0.523,0.195c0.224,0,0.447-0.093,0.605-0.276l7.043-8.137c1.9-1.901,1.812-4.024,1.808-4.061
	c0.001-0.075,0.104-7.511,0.104-9.719C43.043,21.5,42.208,20.529,41.058,20.477z"/>
</svg>
