<?xml version="1.0" encoding="utf-8"?>
<!-- Generator: Adobe Illustrator 18.0.0, SVG Export Plug-In . SVG Version: 6.00 Build 0)  -->
<!DOCTYPE svg PUBLIC "-//W3C//DTD SVG 1.1//EN" "http://www.w3.org/Graphics/SVG/1.1/DTD/svg11.dtd">
<svg version="1.1" id="Layer_1" xmlns="http://www.w3.org/2000/svg" xmlns:xlink="http://www.w3.org/1999/xlink" x="0px" y="0px"
	 viewBox="0 0 50.5 50.5" style="enable-background:new 0 0 50.5 50.5;" xml:space="preserve">
<style type="text/css">
	.st0{fill:#65B4E1;}
</style>
<g>
	<g>
		<g>
			<path class="st0" d="M41.2,13.6L41.2,13.6l-6.8-7.3l-0.1-0.1H13.7c-2.3,0-4.2,1.9-4.2,4.2v29.7c0,2.3,1.9,4.2,4.2,4.2h23.4
				c2.3,0,4.2-1.9,4.2-4.2L41.2,13.6z M39.5,15.2v24.9c0,1.3-1,2.3-2.3,2.3H13.7c-1.3,0-2.3-1-2.3-2.3V10.4c0-1.3,1-2.3,2.3-2.3
				h19.4l0,6.1c0,0.6,0.5,1,1.1,1C34.6,15.2,37.2,15.2,39.5,15.2z M35.2,10l2.9,3.1c-1.1,0-2.1,0-2.8,0L35.2,10z"/>
		</g>
		<g>
			<path class="st0" d="M23.6,29.7c0-1.1,0.1-2,0.4-2.7c0.3-0.7,0.8-1.3,1.5-2c0.7-0.6,1.2-1.2,1.4-1.6c0.2-0.4,0.4-0.8,0.4-1.3
				c0-1.3-0.6-2-1.9-2c-0.6,0-1.1,0.2-1.4,0.5c-0.4,0.4-0.5,0.9-0.6,1.5H20c0-1.5,0.5-2.7,1.5-3.6c1-0.9,2.3-1.3,4-1.3
				c1.7,0,3,0.4,3.9,1.2c0.9,0.8,1.4,2,1.4,3.5c0,0.7-0.2,1.3-0.5,1.9c-0.3,0.6-0.8,1.3-1.6,2l-1,0.9c-0.6,0.6-1,1.3-1,2l0,0.7H23.6
				z M23.3,33.4c0-0.5,0.2-1,0.5-1.3c0.4-0.3,0.8-0.5,1.4-0.5s1,0.2,1.4,0.5c0.4,0.3,0.5,0.8,0.5,1.3c0,0.5-0.2,1-0.5,1.3
				c-0.4,0.3-0.8,0.5-1.4,0.5c-0.6,0-1.1-0.2-1.4-0.5S23.3,33.9,23.3,33.4z"/>
		</g>
	</g>
</g>
</svg>
