<svg id="Layer_1" data-name="Layer 1" xmlns="http://www.w3.org/2000/svg" viewBox="0 0 50.46 50.46"><defs><style>.cls-1{fill:#00b5e4;}</style></defs><title>Iconos</title><path class="cls-1" d="M41.23,13.55V13.47L34.46,6.27,34.4,6.2H13.7a4.2,4.2,0,0,0-4.2,4.2V40.06a4.2,4.2,0,0,0,4.2,4.2H37.12a4.2,4.2,0,0,0,4.19-4.2Zm-1.76,1.62V40.06a2.34,2.34,0,0,1-2.34,2.34H13.7a2.34,2.34,0,0,1-2.34-2.34V10.4A2.34,2.34,0,0,1,13.7,8.06H33.09l0,6.07a1.06,1.06,0,0,0,1.08,1C34.58,15.18,37.16,15.2,39.46,15.17ZM35.19,10L38,13.1H35.21Z"/><path class="cls-1" d="M23.63,29.74A7.2,7.2,0,0,1,24,27.07a5.47,5.47,0,0,1,1.49-2A7.64,7.64,0,0,0,27,23.55a2.47,2.47,0,0,0,.36-1.28,1.72,1.72,0,0,0-1.87-2,1.89,1.89,0,0,0-1.42.55,2.14,2.14,0,0,0-.56,1.5H20a4.61,4.61,0,0,1,1.48-3.58,5.75,5.75,0,0,1,4-1.29,5.77,5.77,0,0,1,3.93,1.23,4.36,4.36,0,0,1,1.4,3.47A4.22,4.22,0,0,1,30.34,24a7.91,7.91,0,0,1-1.59,2l-1,.92a3.29,3.29,0,0,0-1,2l0,0.73H23.63Zm-0.35,3.66a1.74,1.74,0,0,1,.54-1.32,2.13,2.13,0,0,1,2.79,0,1.86,1.86,0,0,1,0,2.62,2.18,2.18,0,0,1-2.81,0A1.73,1.73,0,0,1,23.29,33.41Z"/></svg>