<?xml version="1.0" encoding="utf-8"?>
<!-- Generator: Adobe Illustrator 18.0.0, SVG Export Plug-In . SVG Version: 6.00 Build 0)  -->
<!DOCTYPE svg PUBLIC "-//W3C//DTD SVG 1.1//EN" "http://www.w3.org/Graphics/SVG/1.1/DTD/svg11.dtd">
<svg version="1.1" id="Layer_1" xmlns="http://www.w3.org/2000/svg" xmlns:xlink="http://www.w3.org/1999/xlink" x="0px" y="0px"
	 viewBox="0 0 50.5 50.5" style="enable-background:new 0 0 50.5 50.5;" xml:space="preserve">
<style type="text/css">
	.st0{fill:#65B4E1;}
</style>
<g>
	<g>
		<g>
			<path class="st0" d="M25.2,35.6c-5.4,0-9.8-4.4-9.8-9.8c0-5.4,4.4-9.8,9.8-9.8c5.4,0,9.8,4.4,9.8,9.8
				C35,31.2,30.6,35.6,25.2,35.6z M25.2,17.1c-4.8,0-8.6,3.9-8.6,8.6c0,4.8,3.9,8.6,8.6,8.6c4.8,0,8.6-3.9,8.6-8.6
				C33.9,21,30,17.1,25.2,17.1z"/>
			<polygon class="st0" points="26.1,18.5 24.1,18.6 23.8,25 19.5,25.4 19.5,27.3 26.2,27.7 26.7,27.7 			"/>
		</g>
		<g>
			<path class="st0" d="M41,13.3L41,13.3l-6.8-7.3L34.2,6H13.5c-2.3,0-4.2,1.9-4.2,4.2v29.7c0,2.3,1.9,4.2,4.2,4.2h23.4
				c2.3,0,4.2-1.9,4.2-4.2L41,13.3z M39.3,15v24.9c0,1.3-1,2.3-2.3,2.3H13.5c-1.3,0-2.3-1-2.3-2.3V10.2c0-1.3,1-2.3,2.3-2.3h19.4
				l0,6.1c0,0.6,0.5,1,1.1,1C34.4,15,37,15,39.3,15z M35,9.8l2.9,3.1c-1.1,0-2.1,0-2.8,0L35,9.8z"/>
		</g>
	</g>
</g>
</svg>
