<svg xmlns="http://www.w3.org/2000/svg" viewBox="0 0 50.46 50.46">
  <title>Iconos</title>
  <g>
    <g>
      <path d="M25.23,35.57a9.8,9.8,0,1,1,9.8-9.8A9.81,9.81,0,0,1,25.23,35.57Zm0-18.43a8.63,8.63,0,1,0,8.63,8.63A8.64,8.64,0,0,0,25.23,17.14Z" fill="#00b5e4"/>
      <polygon points="26.07 18.52 24.14 18.56 23.76 24.99 19.47 25.43 19.49 27.34 26.2 27.66 26.75 27.7 26.07 18.52" fill="#00b5e4"/>
    </g>
    <path d="M41,13.35V13.26L34.28,6.06,34.22,6H13.52a4.2,4.2,0,0,0-4.2,4.2V39.85a4.2,4.2,0,0,0,4.2,4.2H36.94a4.2,4.2,0,0,0,4.19-4.2ZM39.28,15V39.85a2.34,2.34,0,0,1-2.34,2.34H13.52a2.34,2.34,0,0,1-2.34-2.34V10.19a2.34,2.34,0,0,1,2.34-2.34H32.91l0,6.07A1.06,1.06,0,0,0,34,15C34.4,15,37,15,39.28,15ZM35,9.77l2.86,3.12H35Z" fill="#00b5e4"/>
  </g>
</svg>
