<?xml version="1.0" encoding="utf-8"?>
<!-- Generator: Adobe Illustrator 16.0.0, SVG Export Plug-In . SVG Version: 6.00 Build 0)  -->
<!DOCTYPE svg PUBLIC "-//W3C//DTD SVG 1.1//EN" "http://www.w3.org/Graphics/SVG/1.1/DTD/svg11.dtd">
<svg version="1.1" id="Layer_1" xmlns="http://www.w3.org/2000/svg" xmlns:xlink="http://www.w3.org/1999/xlink" x="0px" y="0px"
	 width="595.28px" height="841.89px" viewBox="0 0 595.28 841.89" enable-background="new 0 0 595.28 841.89" xml:space="preserve">
<g>
	<g>
		<path d="M348.373,311.363c24.754,0,44.897-20.15,44.897-44.905s-20.144-44.897-44.897-44.897s-44.905,20.143-44.905,44.897
			S323.619,311.363,348.373,311.363L348.373,311.363z M348.373,239.523c14.852,0,26.936,12.084,26.936,26.935
			c0,14.859-12.084,26.943-26.936,26.943s-26.943-12.084-26.943-26.943C321.43,251.607,333.521,239.523,348.373,239.523
			L348.373,239.523z M348.373,239.523"/>
		<path d="M243.212,448.635c0,4.955-4.018,8.98-8.974,8.98c-4.955,0-8.98-4.025-8.98-8.98c0-4.964,4.025-8.981,8.98-8.981
			C239.194,439.653,243.212,443.671,243.212,448.635L243.212,448.635z M243.212,448.635"/>
		<path d="M212.29,411.64c0,4.963-4.018,8.981-8.981,8.981c-4.956,0-8.981-4.018-8.981-8.981c0-4.956,4.025-8.973,8.981-8.973
			C208.272,402.667,212.29,406.684,212.29,411.64L212.29,411.64z M212.29,411.64"/>
		<path d="M363.459,401.229c4.291,2.485,9.786,1.008,12.264-3.283l36.783-63.711l88.005,152.192
			c1.665,2.876,4.683,4.479,7.785,4.479c1.517,0,3.064-0.383,4.487-1.204c4.291-2.478,5.752-7.98,3.267-12.271l-95.782-165.636
			c-1.602-2.767-4.564-4.487-7.77-4.487c-3.212,0-6.174,1.72-7.776,4.495l-44.554,77.163
			C357.69,393.256,359.16,398.75,363.459,401.229L363.459,401.229z M363.459,401.229"/>
		<path d="M486.27,538.992c0-4.956-4.018-8.981-8.98-8.981H229.541c-4.964,0-8.981,4.025-8.981,8.981c0,4.955,4.018,8.98,8.981,8.98
			h247.748C482.252,547.973,486.27,543.947,486.27,538.992L486.27,538.992z M486.27,538.992"/>
		<path d="M571.39,507.852c0-4.956-4.018-8.981-8.981-8.981H33.827c-4.964,0-8.981,4.025-8.981,8.981c0,4.955,4.018,8.98,8.981,8.98
			h528.581C567.372,516.832,571.39,512.807,571.39,507.852L571.39,507.852z M571.39,507.852"/>
		<path d="M202.598,538.992c0-4.956-4.018-8.981-8.973-8.981h-71.841c-4.963,0-8.98,4.025-8.98,8.981c0,4.955,4.018,8.98,8.98,8.98
			h71.841C198.58,547.973,202.598,543.947,202.598,538.992L202.598,538.992z M202.598,538.992"/>
		<path d="M145.851,583.896h210.737c4.964,0,8.981-4.025,8.981-8.98c0-4.964-4.018-8.981-8.981-8.981H145.851
			c-4.948,0-8.973,4.018-8.973,8.981C136.878,579.871,140.903,583.896,145.851,583.896L145.851,583.896z M145.851,583.896"/>
		<path d="M271.444,601.852c-4.971,0-8.989,4.025-8.989,8.98s4.018,8.98,8.989,8.98h142.484c4.964,0,8.974-4.025,8.974-8.98
			s-4.01-8.98-8.974-8.98H271.444z M271.444,601.852"/>
		<path d="M86.259,489.701c4.292,2.479,9.786,1.017,12.264-3.274l76.545-132.401l22.902,16.946c3.173,2.353,7.504,2.353,10.677,0
			l25.591-18.931l25.591,18.931c1.579,1.172,3.455,1.758,5.331,1.758c1.884,0,3.76-0.586,5.346-1.758l22.855-16.907l76.421,132.362
			c1.657,2.876,4.674,4.486,7.777,4.486c1.532,0,3.071-0.383,4.486-1.204c4.291-2.478,5.761-7.965,3.283-12.264L242.023,229.229
			c-1.603-2.775-4.564-4.487-7.77-4.487c-3.212,0-6.175,1.704-7.77,4.479L82.976,477.43C80.49,481.729,81.96,487.224,86.259,489.701
			L86.259,489.701z M234.238,251.67l50.087,86.738l-19.166,14.171l-25.583-18.923c-3.174-2.353-7.512-2.353-10.685,0l-25.583,18.923
			l-19.189-14.194L234.238,251.67z M234.238,251.67"/>
	</g>
</g>
</svg>
