<?xml version="1.0" encoding="utf-8"?>
<!-- Generator: Adobe Illustrator 24.0.1, SVG Export Plug-In . SVG Version: 6.00 Build 0)  -->
<svg version="1.1" id="Layer_1" xmlns="http://www.w3.org/2000/svg" xmlns:xlink="http://www.w3.org/1999/xlink" x="0px" y="0px"
	 viewBox="0 0 50.5 50.5" style="enable-background:new 0 0 50.5 50.5;" xml:space="preserve">
<g>
	<path d="M45.9,37.574h-8.001l-8.979-1.764c-0.313-0.076-1.183-0.059-5.629,0.554l-5.648,0.007c-0.078,0-0.156,0.012-0.231,0.034
		l-3.142,0.955c-3.074,0-3.658,0-3.86,0.047l-0.001-0.003l-6.059,2.013c-0.42,0.139-0.646,0.592-0.507,1.011
		c0.111,0.336,0.424,0.548,0.759,0.548c0.083,0,0.169-0.013,0.252-0.041l5.938-1.973c0.635-0.002,3.599,0.004,3.597-0.002
		c0.079,0,0.157-0.012,0.232-0.034l3.142-0.955l5.585-0.007c0.036,0,0.072-0.002,0.108-0.007c2.139-0.295,4.562-0.587,5.082-0.587
		c0.008,0,0.017,0.001,0.022,0.001l9.106,1.788c0.051,0.01,0.103,0.015,0.154,0.015H45.9c0.441,0,0.8-0.358,0.8-0.8
		S46.341,37.574,45.9,37.574z"/>
	<path d="M38.155,42.125l-4.972-0.833l-0.003,0.02c-0.643-0.023-2.529,0.319-3.054,0.419l-3.58-0.505
		c-0.11-0.017-0.22-0.008-0.328,0.021c-6.857,1.929-8.787,2.506-9.384,2.715l-4.433,0.412c-0.439,0.041-0.764,0.431-0.723,0.871
		c0.039,0.415,0.388,0.726,0.796,0.726c0.024,0,0.05-0.001,0.075-0.003l4.516-0.42c0.094-0.009,0.185-0.034,0.269-0.074
		c0.539-0.198,5.809-1.698,9.155-2.641l3.546,0.5c0.077,0.01,0.161,0.012,0.24-0.003c0.058-0.009,2.231-0.355,2.77-0.438
		l4.846,0.812c0.432,0.078,0.849-0.221,0.921-0.657C38.886,42.61,38.592,42.198,38.155,42.125z"/>
	<path d="M5.636,20.68l5.514-4.317c0.072-0.038,0.274-0.039,0.32-0.022c0.03,0.028,0.062,0.053,0.098,0.076l2.511,1.657
		c0.29,0.193,0.672,0.174,0.943-0.045l4.403-3.562c0.075-0.038,0.276-0.037,0.344,0l6.467,5.415c0.28,0.235,0.685,0.248,0.98,0.037
		l2.307-1.665c0.037-0.013,0.126-0.013,0.16,0.006l3.561,2.638c0.144,0.106,0.311,0.158,0.476,0.158
		c0.245,0,0.487-0.112,0.644-0.324c0.264-0.355,0.188-0.856-0.166-1.119l-3.5-2.588c-0.561-0.508-1.622-0.509-2.114-0.057
		l-1.795,1.29l-1.902-1.592l3.717-3.114c0.1-0.063,0.409-0.062,0.531,0.02l5.02,4.056c0.271,0.219,0.652,0.237,0.943,0.045
		l1.404-0.927c0.22-0.008,0.435-0.098,0.587-0.28c0.042-0.051,0.062-0.11,0.09-0.167l0.784-0.518
		c0.035-0.022,0.055-0.038,0.085-0.065c0.1-0.063,0.409-0.063,0.541,0.027l6.275,4.909c0.146,0.115,0.32,0.17,0.492,0.17
		c0.238,0,0.474-0.105,0.631-0.307c0.272-0.348,0.211-0.851-0.137-1.123l-6.23-4.871c-0.639-0.579-1.858-0.597-2.544-0.067
		c0.121-0.361,0.128-0.772,0.01-1.173c-0.155-0.526-0.496-0.954-0.976-1.191c-0.136-0.059-0.267-0.347-0.212-0.531
		c0.121-0.479,0.019-1.017-0.279-1.477c-0.297-0.458-0.743-0.77-1.268-0.861c-0.144-0.018-0.353-0.258-0.35-0.447
		c-0.018-0.49-0.264-0.977-0.676-1.335c-0.412-0.359-0.924-0.537-1.463-0.479c-0.144,0.025-0.414-0.147-0.466-0.332
		c-0.155-0.466-0.53-0.864-1.028-1.091c-0.499-0.228-1.046-0.249-1.538-0.042c-0.135,0.062-0.436-0.023-0.538-0.187
		c-0.28-0.404-0.753-0.68-1.295-0.757c-0.545-0.078-1.072,0.056-1.483,0.391c-0.116,0.101-0.427,0.101-0.572-0.029
		c-0.385-0.308-0.914-0.44-1.455-0.362c-0.539,0.078-1.01,0.354-1.313,0.793c-0.08,0.129-0.381,0.215-0.557,0.134
		c-0.455-0.188-1.003-0.163-1.501,0.066c-0.496,0.229-0.868,0.626-1.035,1.134c-0.038,0.142-0.305,0.315-0.494,0.283
		c-0.476-0.047-1.006,0.125-1.418,0.483c-0.411,0.357-0.658,0.844-0.677,1.376c0.002,0.15-0.204,0.39-0.393,0.415
		c-0.483,0.086-0.93,0.399-1.227,0.858c-0.297,0.46-0.397,0.999-0.265,1.518c0.044,0.142-0.087,0.43-0.263,0.508
		c-0.438,0.221-0.778,0.648-0.932,1.171c-0.153,0.524-0.098,1.068,0.177,1.529c0.084,0.126,0.04,0.435-0.106,0.559
		c-0.079,0.073-0.148,0.158-0.211,0.247l-0.784-0.518c-0.63-0.509-1.784-0.495-2.341,0.012L4.65,19.42
		c-0.348,0.272-0.409,0.775-0.137,1.123C4.782,20.89,5.286,20.953,5.636,20.68z M14.948,13.74c0.033-0.112,0.09-0.174,0.08-0.174
		c0,0-0.001,0-0.002,0.001c0.89-0.39,1.397-1.503,1.12-2.39c-0.005-0.02,0.002-0.108,0.067-0.212
		c0.065-0.103,0.142-0.148,0.125-0.148h-0.001c0.964-0.119,1.767-1.043,1.753-1.977c0.001-0.025,0.034-0.106,0.126-0.187
		c0.093-0.081,0.18-0.103,0.163-0.105c0.96,0.153,1.99-0.512,2.232-1.409c0.007-0.02,0.062-0.091,0.177-0.143
		c0.113-0.051,0.201-0.045,0.179-0.055c0.883,0.419,2.053,0.072,2.541-0.718c0.012-0.018,0.083-0.07,0.206-0.088
		c0.031-0.004,0.059-0.006,0.084-0.006c0.07,0,0.119,0.014,0.107,0.003c0.724,0.65,1.948,0.651,2.644,0.027
		c0.018-0.013,0.102-0.042,0.224-0.025c0.131,0.02,0.191,0.065,0.182,0.049c0.505,0.818,1.707,1.168,2.528,0.769
		c0.02-0.008,0.108-0.013,0.222,0.039c0.108,0.049,0.162,0.129,0.161,0.099c0.255,0.938,1.284,1.602,2.206,1.454
		c0.026,0.006,0.106,0.018,0.2,0.097c0.095,0.081,0.127,0.166,0.129,0.142c-0.021,0.961,0.8,1.907,1.712,2.018
		c0.021,0.004,0.1,0.049,0.166,0.155c0.068,0.109,0.077,0.186,0.078,0.17c-0.287,0.931,0.224,2.043,1.076,2.412
		c0.019,0.01,0.08,0.073,0.115,0.192c0.032,0.108,0.021,0.189,0.028,0.189c0,0,0.001,0,0.002-0.002
		c-0.318,0.474-0.378,1.104-0.224,1.666l-0.651,0.43l-4.529-3.658c-0.667-0.605-1.972-0.605-2.611-0.021l-3.924,3.286l-2.819-2.36
		c-0.617-0.561-1.828-0.562-2.407-0.03l-3.409,2.754c0.325-0.637,0.322-1.448-0.061-2.017C14.931,13.945,14.914,13.858,14.948,13.74
		z"/>
	<path d="M18.794,32.514l-2.48-0.285c-0.104-0.011-0.21-0.004-0.312,0.025l-4.05,1.16c-0.425,0.122-0.67,0.565-0.549,0.99
		c0.101,0.351,0.421,0.579,0.77,0.579c0.072,0,0.146-0.01,0.221-0.03l3.896-1.117l2.589,0.298c0.163,0.015,0.324-0.012,0.466-0.089
		c0.187-0.099,1.368-0.836,1.95-1.2h2.453h3.003h2.966h0.142l3.329,1.134c0.083,0.027,0.17,0.042,0.258,0.042
		c-0.002,0.002,2.13,0,2.689,0.002l1.913,0.712c0.416,0.154,0.875-0.058,1.029-0.471c0.154-0.415-0.057-0.875-0.471-1.029
		l-2.046-0.761l-0.002,0.003c-0.202-0.055-0.708-0.056-2.98-0.056l-3.062-1.042v-3.246h0.774c0.487,0,0.918-0.298,1.069-0.741
		c0.147-0.43,0.007-0.891-0.358-1.174c-0.018-0.014-0.035-0.026-0.054-0.039l-5.987-3.905c-0.412-0.32-1.01-0.322-1.369-0.038
		l-6.095,3.981c-0.365,0.284-0.506,0.745-0.358,1.174c0.151,0.443,0.582,0.741,1.069,0.741h0.774v3.645
		C19.497,32.081,19.047,32.36,18.794,32.514z M25.951,31.246h-1.403v-2.331h1.403V31.246z M25.247,23.716l4.334,2.829
		c-0.377,0.064-0.664,0.393-0.664,0.788v3.912h-1.366v-3.131c0-0.441-0.358-0.8-0.8-0.8h-3.003c-0.441,0-0.8,0.358-0.8,0.8v3.131
		h-1.366v-3.912c0-0.396-0.287-0.725-0.665-0.789L25.247,23.716z"/>
</g>
</svg>
