<?xml version="1.0" encoding="utf-8"?>
<!-- Generator: Adobe Illustrator 24.2.1, SVG Export Plug-In . SVG Version: 6.00 Build 0)  -->
<svg version="1.1" id="Layer_1" xmlns="http://www.w3.org/2000/svg" xmlns:xlink="http://www.w3.org/1999/xlink" x="0px" y="0px"
	 viewBox="0 0 50.5 50.5" style="enable-background:new 0 0 50.5 50.5;" xml:space="preserve">
<path d="M47.7,37.49h-1.24V19.8c0-0.44-0.36-0.8-0.8-0.8h-6.01v-5.85c0-0.02-0.01-0.04-0.01-0.06c-0.01-0.06-0.02-0.11-0.03-0.17
	c-0.02-0.04-0.03-0.09-0.06-0.13c-0.02-0.05-0.05-0.09-0.08-0.13c-0.04-0.04-0.07-0.08-0.11-0.11c-0.02-0.02-0.03-0.04-0.05-0.06
	l-7.7-5.34V6.67c0-0.45-0.36-0.8-0.8-0.8s-0.8,0.35-0.8,0.8v0.32l-1.42,0.93c-0.37,0.24-0.48,0.74-0.24,1.11
	c0.24,0.37,0.74,0.47,1.11,0.23l1.23-0.8l7.36,5.11v6.23c0,0.44,0.36,0.8,0.8,0.8h6.01v16.89h-2.35v1.6h5.19
	c0.44,0,0.8-0.36,0.8-0.8S48.14,37.49,47.7,37.49z M42.65,40.69H41.4V22.68c0-0.45-0.35-0.8-0.8-0.8h-6.01v-5.85
	c0-0.03-0.01-0.05-0.01-0.07c0-0.06-0.02-0.11-0.03-0.16c-0.02-0.05-0.03-0.1-0.06-0.14c-0.02-0.04-0.05-0.08-0.08-0.12
	c-0.03-0.05-0.07-0.09-0.11-0.12c-0.02-0.02-0.03-0.04-0.05-0.05l-7.81-5.42V9.49c0-0.44-0.36-0.8-0.8-0.8s-0.8,0.36-0.8,0.8v0.25
	l-1.26,0.94c-0.35,0.27-0.43,0.77-0.16,1.12c0.15,0.21,0.4,0.32,0.64,0.32c0.17,0,0.33-0.05,0.48-0.16l0.96-0.71l7.49,5.2v6.23
	c0,0.44,0.36,0.8,0.8,0.8h6.01v17.21h-1.92v1.6h4.77c0.44,0,0.8-0.36,0.8-0.8C43.45,41.04,43.09,40.69,42.65,40.69z M31.91,33.8
	h-3.2c-0.44,0-0.8,0.36-0.8,0.8v3.69c0,0.44,0.36,0.8,0.8,0.8h3.2c0.44,0,0.8-0.36,0.8-0.8V34.6C32.71,34.16,32.35,33.8,31.91,33.8z
	 M31.11,37.49h-1.6V35.4h1.6V37.49z M13.24,33.8h-3.19c-0.45,0-0.8,0.36-0.8,0.8v3.69c0,0.44,0.35,0.8,0.8,0.8h3.19
	c0.44,0,0.8-0.36,0.8-0.8V34.6C14.04,34.16,13.68,33.8,13.24,33.8z M12.44,37.49h-1.59V35.4h1.59V37.49z M22.22,23.56h-0.46v-0.4
	c0-0.44-0.36-0.8-0.8-0.8s-0.8,0.36-0.8,0.8v1.2c0,0.44,0.36,0.8,0.8,0.8h1.26c0.44,0,0.8-0.36,0.8-0.8S22.66,23.56,22.22,23.56z
	 M22.22,23.56h-0.46v-0.4c0-0.44-0.36-0.8-0.8-0.8s-0.8,0.36-0.8,0.8v1.2c0,0.44,0.36,0.8,0.8,0.8h1.26c0.44,0,0.8-0.36,0.8-0.8
	S22.66,23.56,22.22,23.56z M22.22,23.56h-0.46v-0.4c0-0.44-0.36-0.8-0.8-0.8s-0.8,0.36-0.8,0.8v1.2c0,0.44,0.36,0.8,0.8,0.8h1.26
	c0.44,0,0.8-0.36,0.8-0.8S22.66,23.56,22.22,23.56z M22.22,23.56h-0.46v-0.4c0-0.44-0.36-0.8-0.8-0.8s-0.8,0.36-0.8,0.8v1.2
	c0,0.44,0.36,0.8,0.8,0.8h1.26c0.44,0,0.8-0.36,0.8-0.8S22.66,23.56,22.22,23.56z M21.08,19.95c-2.4,0-4.36,1.95-4.36,4.36
	c0,2.4,1.96,4.36,4.36,4.36c2.4,0,4.36-1.96,4.36-4.36C25.44,21.9,23.48,19.95,21.08,19.95z M21.08,27.07
	c-1.52,0-2.76-1.24-2.76-2.76s1.24-2.76,2.76-2.76c1.52,0,2.76,1.24,2.76,2.76S22.6,27.07,21.08,27.07z M22.22,23.56h-0.46v-0.4
	c0-0.44-0.36-0.8-0.8-0.8s-0.8,0.36-0.8,0.8v1.2c0,0.44,0.36,0.8,0.8,0.8h1.26c0.44,0,0.8-0.36,0.8-0.8S22.66,23.56,22.22,23.56z
	 M31.91,33.8h-3.2c-0.44,0-0.8,0.36-0.8,0.8v3.69c0,0.44,0.36,0.8,0.8,0.8h3.2c0.44,0,0.8-0.36,0.8-0.8V34.6
	C32.71,34.16,32.35,33.8,31.91,33.8z M31.11,37.49h-1.6V35.4h1.6V37.49z M22.22,23.56h-0.46v-0.4c0-0.44-0.36-0.8-0.8-0.8
	s-0.8,0.36-0.8,0.8v1.2c0,0.44,0.36,0.8,0.8,0.8h1.26c0.44,0,0.8-0.36,0.8-0.8S22.66,23.56,22.22,23.56z M22.22,23.56h-0.46v-0.4
	c0-0.44-0.36-0.8-0.8-0.8s-0.8,0.36-0.8,0.8v1.2c0,0.44,0.36,0.8,0.8,0.8h1.26c0.44,0,0.8-0.36,0.8-0.8S22.66,23.56,22.22,23.56z
	 M21.08,19.95c-2.4,0-4.36,1.95-4.36,4.36c0,2.4,1.96,4.36,4.36,4.36c2.4,0,4.36-1.96,4.36-4.36C25.44,21.9,23.48,19.95,21.08,19.95
	z M21.08,27.07c-1.52,0-2.76-1.24-2.76-2.76s1.24-2.76,2.76-2.76c1.52,0,2.76,1.24,2.76,2.76S22.6,27.07,21.08,27.07z M22.22,23.56
	h-0.46v-0.4c0-0.44-0.36-0.8-0.8-0.8s-0.8,0.36-0.8,0.8v1.2c0,0.44,0.36,0.8,0.8,0.8h1.26c0.44,0,0.8-0.36,0.8-0.8
	S22.66,23.56,22.22,23.56z M13.24,33.8h-3.19c-0.45,0-0.8,0.36-0.8,0.8v3.69c0,0.44,0.35,0.8,0.8,0.8h3.19c0.44,0,0.8-0.36,0.8-0.8
	V34.6C14.04,34.16,13.68,33.8,13.24,33.8z M12.44,37.49h-1.59V35.4h1.59V37.49z M13.24,33.8h-3.19c-0.45,0-0.8,0.36-0.8,0.8v3.69
	c0,0.44,0.35,0.8,0.8,0.8h3.19c0.44,0,0.8-0.36,0.8-0.8V34.6C14.04,34.16,13.68,33.8,13.24,33.8z M12.44,37.49h-1.59V35.4h1.59
	V37.49z M22.22,23.56h-0.46v-0.4c0-0.44-0.36-0.8-0.8-0.8s-0.8,0.36-0.8,0.8v1.2c0,0.44,0.36,0.8,0.8,0.8h1.26
	c0.44,0,0.8-0.36,0.8-0.8S22.66,23.56,22.22,23.56z M22.22,23.56h-0.46v-0.4c0-0.44-0.36-0.8-0.8-0.8s-0.8,0.36-0.8,0.8v1.2
	c0,0.44,0.36,0.8,0.8,0.8h1.26c0.44,0,0.8-0.36,0.8-0.8S22.66,23.56,22.22,23.56z M21.08,19.95c-2.4,0-4.36,1.95-4.36,4.36
	c0,2.4,1.96,4.36,4.36,4.36c2.4,0,4.36-1.96,4.36-4.36C25.44,21.9,23.48,19.95,21.08,19.95z M21.08,27.07
	c-1.52,0-2.76-1.24-2.76-2.76s1.24-2.76,2.76-2.76c1.52,0,2.76,1.24,2.76,2.76S22.6,27.07,21.08,27.07z M22.22,23.56h-0.46v-0.4
	c0-0.44-0.36-0.8-0.8-0.8s-0.8,0.36-0.8,0.8v1.2c0,0.44,0.36,0.8,0.8,0.8h1.26c0.44,0,0.8-0.36,0.8-0.8S22.66,23.56,22.22,23.56z
	 M31.91,33.8h-3.2c-0.44,0-0.8,0.36-0.8,0.8v3.69c0,0.44,0.36,0.8,0.8,0.8h3.2c0.44,0,0.8-0.36,0.8-0.8V34.6
	C32.71,34.16,32.35,33.8,31.91,33.8z M31.11,37.49h-1.6V35.4h1.6V37.49z M31.91,33.8h-3.2c-0.44,0-0.8,0.36-0.8,0.8v3.69
	c0,0.44,0.36,0.8,0.8,0.8h3.2c0.44,0,0.8-0.36,0.8-0.8V34.6C32.71,34.16,32.35,33.8,31.91,33.8z M31.11,37.49h-1.6V35.4h1.6V37.49z
	 M22.22,23.56h-0.46v-0.4c0-0.44-0.36-0.8-0.8-0.8s-0.8,0.36-0.8,0.8v1.2c0,0.44,0.36,0.8,0.8,0.8h1.26c0.44,0,0.8-0.36,0.8-0.8
	S22.66,23.56,22.22,23.56z M22.22,23.56h-0.46v-0.4c0-0.44-0.36-0.8-0.8-0.8s-0.8,0.36-0.8,0.8v1.2c0,0.44,0.36,0.8,0.8,0.8h1.26
	c0.44,0,0.8-0.36,0.8-0.8S22.66,23.56,22.22,23.56z M21.08,19.95c-2.4,0-4.36,1.95-4.36,4.36c0,2.4,1.96,4.36,4.36,4.36
	c2.4,0,4.36-1.96,4.36-4.36C25.44,21.9,23.48,19.95,21.08,19.95z M21.08,27.07c-1.52,0-2.76-1.24-2.76-2.76s1.24-2.76,2.76-2.76
	c1.52,0,2.76,1.24,2.76,2.76S22.6,27.07,21.08,27.07z M22.22,23.56h-0.46v-0.4c0-0.44-0.36-0.8-0.8-0.8s-0.8,0.36-0.8,0.8v1.2
	c0,0.44,0.36,0.8,0.8,0.8h1.26c0.44,0,0.8-0.36,0.8-0.8S22.66,23.56,22.22,23.56z M13.24,33.8h-3.19c-0.45,0-0.8,0.36-0.8,0.8v3.69
	c0,0.44,0.35,0.8,0.8,0.8h3.19c0.44,0,0.8-0.36,0.8-0.8V34.6C14.04,34.16,13.68,33.8,13.24,33.8z M12.44,37.49h-1.59V35.4h1.59
	V37.49z M13.24,33.8h-3.19c-0.45,0-0.8,0.36-0.8,0.8v3.69c0,0.44,0.35,0.8,0.8,0.8h3.19c0.44,0,0.8-0.36,0.8-0.8V34.6
	C14.04,34.16,13.68,33.8,13.24,33.8z M12.44,37.49h-1.59V35.4h1.59V37.49z M22.22,23.56h-0.46v-0.4c0-0.44-0.36-0.8-0.8-0.8
	s-0.8,0.36-0.8,0.8v1.2c0,0.44,0.36,0.8,0.8,0.8h1.26c0.44,0,0.8-0.36,0.8-0.8S22.66,23.56,22.22,23.56z M22.22,23.56h-0.46v-0.4
	c0-0.44-0.36-0.8-0.8-0.8s-0.8,0.36-0.8,0.8v1.2c0,0.44,0.36,0.8,0.8,0.8h1.26c0.44,0,0.8-0.36,0.8-0.8S22.66,23.56,22.22,23.56z
	 M21.08,19.95c-2.4,0-4.36,1.95-4.36,4.36c0,2.4,1.96,4.36,4.36,4.36c2.4,0,4.36-1.96,4.36-4.36C25.44,21.9,23.48,19.95,21.08,19.95
	z M21.08,27.07c-1.52,0-2.76-1.24-2.76-2.76s1.24-2.76,2.76-2.76c1.52,0,2.76,1.24,2.76,2.76S22.6,27.07,21.08,27.07z M22.22,23.56
	h-0.46v-0.4c0-0.44-0.36-0.8-0.8-0.8s-0.8,0.36-0.8,0.8v1.2c0,0.44,0.36,0.8,0.8,0.8h1.26c0.44,0,0.8-0.36,0.8-0.8
	S22.66,23.56,22.22,23.56z M31.91,33.8h-3.2c-0.44,0-0.8,0.36-0.8,0.8v3.69c0,0.44,0.36,0.8,0.8,0.8h3.2c0.44,0,0.8-0.36,0.8-0.8
	V34.6C32.71,34.16,32.35,33.8,31.91,33.8z M31.11,37.49h-1.6V35.4h1.6V37.49z M31.91,33.8h-3.2c-0.44,0-0.8,0.36-0.8,0.8v3.69
	c0,0.44,0.36,0.8,0.8,0.8h3.2c0.44,0,0.8-0.36,0.8-0.8V34.6C32.71,34.16,32.35,33.8,31.91,33.8z M31.11,37.49h-1.6V35.4h1.6V37.49z
	 M22.22,23.56h-0.46v-0.4c0-0.44-0.36-0.8-0.8-0.8s-0.8,0.36-0.8,0.8v1.2c0,0.44,0.36,0.8,0.8,0.8h1.26c0.44,0,0.8-0.36,0.8-0.8
	S22.66,23.56,22.22,23.56z M22.22,23.56h-0.46v-0.4c0-0.44-0.36-0.8-0.8-0.8s-0.8,0.36-0.8,0.8v1.2c0,0.44,0.36,0.8,0.8,0.8h1.26
	c0.44,0,0.8-0.36,0.8-0.8S22.66,23.56,22.22,23.56z M21.08,19.95c-2.4,0-4.36,1.95-4.36,4.36c0,2.4,1.96,4.36,4.36,4.36
	c2.4,0,4.36-1.96,4.36-4.36C25.44,21.9,23.48,19.95,21.08,19.95z M21.08,27.07c-1.52,0-2.76-1.24-2.76-2.76s1.24-2.76,2.76-2.76
	c1.52,0,2.76,1.24,2.76,2.76S22.6,27.07,21.08,27.07z M22.22,23.56h-0.46v-0.4c0-0.44-0.36-0.8-0.8-0.8s-0.8,0.36-0.8,0.8v1.2
	c0,0.44,0.36,0.8,0.8,0.8h1.26c0.44,0,0.8-0.36,0.8-0.8S22.66,23.56,22.22,23.56z M13.24,33.8h-3.19c-0.45,0-0.8,0.36-0.8,0.8v3.69
	c0,0.44,0.35,0.8,0.8,0.8h3.19c0.44,0,0.8-0.36,0.8-0.8V34.6C14.04,34.16,13.68,33.8,13.24,33.8z M12.44,37.49h-1.59V35.4h1.59
	V37.49z M13.24,33.8h-3.19c-0.45,0-0.8,0.36-0.8,0.8v3.69c0,0.44,0.35,0.8,0.8,0.8h3.19c0.44,0,0.8-0.36,0.8-0.8V34.6
	C14.04,34.16,13.68,33.8,13.24,33.8z M12.44,37.49h-1.59V35.4h1.59V37.49z M22.22,23.56h-0.46v-0.4c0-0.44-0.36-0.8-0.8-0.8
	s-0.8,0.36-0.8,0.8v1.2c0,0.44,0.36,0.8,0.8,0.8h1.26c0.44,0,0.8-0.36,0.8-0.8S22.66,23.56,22.22,23.56z M22.22,23.56h-0.46v-0.4
	c0-0.44-0.36-0.8-0.8-0.8s-0.8,0.36-0.8,0.8v1.2c0,0.44,0.36,0.8,0.8,0.8h1.26c0.44,0,0.8-0.36,0.8-0.8S22.66,23.56,22.22,23.56z
	 M21.08,19.95c-2.4,0-4.36,1.95-4.36,4.36c0,2.4,1.96,4.36,4.36,4.36c2.4,0,4.36-1.96,4.36-4.36C25.44,21.9,23.48,19.95,21.08,19.95
	z M21.08,27.07c-1.52,0-2.76-1.24-2.76-2.76s1.24-2.76,2.76-2.76c1.52,0,2.76,1.24,2.76,2.76S22.6,27.07,21.08,27.07z M22.22,23.56
	h-0.46v-0.4c0-0.44-0.36-0.8-0.8-0.8s-0.8,0.36-0.8,0.8v1.2c0,0.44,0.36,0.8,0.8,0.8h1.26c0.44,0,0.8-0.36,0.8-0.8
	S22.66,23.56,22.22,23.56z M31.91,33.8h-3.2c-0.44,0-0.8,0.36-0.8,0.8v3.69c0,0.44,0.36,0.8,0.8,0.8h3.2c0.44,0,0.8-0.36,0.8-0.8
	V34.6C32.71,34.16,32.35,33.8,31.91,33.8z M31.11,37.49h-1.6V35.4h1.6V37.49z M31.91,33.8h-3.2c-0.44,0-0.8,0.36-0.8,0.8v3.69
	c0,0.44,0.36,0.8,0.8,0.8h3.2c0.44,0,0.8-0.36,0.8-0.8V34.6C32.71,34.16,32.35,33.8,31.91,33.8z M31.11,37.49h-1.6V35.4h1.6V37.49z
	 M21.08,19.95c-2.4,0-4.36,1.95-4.36,4.36c0,2.4,1.96,4.36,4.36,4.36c2.4,0,4.36-1.96,4.36-4.36C25.44,21.9,23.48,19.95,21.08,19.95
	z M21.08,27.07c-1.52,0-2.76-1.24-2.76-2.76s1.24-2.76,2.76-2.76c1.52,0,2.76,1.24,2.76,2.76S22.6,27.07,21.08,27.07z M22.22,23.56
	h-0.46v-0.4c0-0.44-0.36-0.8-0.8-0.8s-0.8,0.36-0.8,0.8v1.2c0,0.44,0.36,0.8,0.8,0.8h1.26c0.44,0,0.8-0.36,0.8-0.8
	S22.66,23.56,22.22,23.56z M13.24,33.8h-3.19c-0.45,0-0.8,0.36-0.8,0.8v3.69c0,0.44,0.35,0.8,0.8,0.8h3.19c0.44,0,0.8-0.36,0.8-0.8
	V34.6C14.04,34.16,13.68,33.8,13.24,33.8z M12.44,37.49h-1.59V35.4h1.59V37.49z M38.29,43.98h-1.56v-17.7c0-0.44-0.36-0.8-0.8-0.8
	h-6.01v-5.84c0-0.27-0.13-0.51-0.35-0.66l-7.41-5.14c0.02-0.05,0.04-0.1,0.04-0.16V8.13c0-0.44-0.36-0.8-0.8-0.8h-5.21
	c-0.45,0-0.8,0.36-0.8,0.8v3.25c0,0.44,0.35,0.8,0.8,0.8h4.41v1.1c-0.03,0.01-0.07,0.02-0.09,0.04l-8.14,5.66
	c-0.21,0.15-0.34,0.39-0.34,0.66v5.84h-6c-0.45,0-0.8,0.36-0.8,0.8v17.7H3.18c-0.44,0-0.8,0.35-0.8,0.79c0,0.45,0.36,0.8,0.8,0.8
	h35.11c0.44,0,0.8-0.35,0.8-0.8C39.09,44.33,38.73,43.98,38.29,43.98z M16.98,10.58V8.93h3.62v1.65H16.98z M20.15,43.98h-3.04V33.62
	h3.04V43.98z M24.85,43.98h-3.1V33.62h3.1V43.98z M35.13,43.97h-8.68V32.82c0-0.45-0.36-0.8-0.8-0.8h-9.34c-0.45,0-0.8,0.35-0.8,0.8
	v11.15H6.83V27.08h6c0.44,0,0.8-0.35,0.8-0.8v-6.23l7.33-5.1l7.36,5.1v6.23c0,0.45,0.35,0.8,0.8,0.8h6.01V43.97z M27.91,34.6v3.69
	c0,0.44,0.36,0.8,0.8,0.8h3.2c0.44,0,0.8-0.36,0.8-0.8V34.6c0-0.44-0.36-0.8-0.8-0.8h-3.2C28.27,33.8,27.91,34.16,27.91,34.6z
	 M29.51,35.4h1.6v2.09h-1.6V35.4z M21.08,19.95c-2.4,0-4.36,1.95-4.36,4.36c0,2.4,1.96,4.36,4.36,4.36c2.4,0,4.36-1.96,4.36-4.36
	C25.44,21.9,23.48,19.95,21.08,19.95z M21.08,27.07c-1.52,0-2.76-1.24-2.76-2.76s1.24-2.76,2.76-2.76c1.52,0,2.76,1.24,2.76,2.76
	S22.6,27.07,21.08,27.07z M22.22,23.56h-0.46v-0.4c0-0.44-0.36-0.8-0.8-0.8s-0.8,0.36-0.8,0.8v1.2c0,0.44,0.36,0.8,0.8,0.8h1.26
	c0.44,0,0.8-0.36,0.8-0.8S22.66,23.56,22.22,23.56z M13.24,33.8h-3.19c-0.45,0-0.8,0.36-0.8,0.8v3.69c0,0.44,0.35,0.8,0.8,0.8h3.19
	c0.44,0,0.8-0.36,0.8-0.8V34.6C14.04,34.16,13.68,33.8,13.24,33.8z M12.44,37.49h-1.59V35.4h1.59V37.49z M13.24,33.8h-3.19
	c-0.45,0-0.8,0.36-0.8,0.8v3.69c0,0.44,0.35,0.8,0.8,0.8h3.19c0.44,0,0.8-0.36,0.8-0.8V34.6C14.04,34.16,13.68,33.8,13.24,33.8z
	 M12.44,37.49h-1.59V35.4h1.59V37.49z M22.22,23.56h-0.46v-0.4c0-0.44-0.36-0.8-0.8-0.8s-0.8,0.36-0.8,0.8v1.2
	c0,0.44,0.36,0.8,0.8,0.8h1.26c0.44,0,0.8-0.36,0.8-0.8S22.66,23.56,22.22,23.56z M22.22,23.56h-0.46v-0.4c0-0.44-0.36-0.8-0.8-0.8
	s-0.8,0.36-0.8,0.8v1.2c0,0.44,0.36,0.8,0.8,0.8h1.26c0.44,0,0.8-0.36,0.8-0.8S22.66,23.56,22.22,23.56z M21.08,19.95
	c-2.4,0-4.36,1.95-4.36,4.36c0,2.4,1.96,4.36,4.36,4.36c2.4,0,4.36-1.96,4.36-4.36C25.44,21.9,23.48,19.95,21.08,19.95z
	 M21.08,27.07c-1.52,0-2.76-1.24-2.76-2.76s1.24-2.76,2.76-2.76c1.52,0,2.76,1.24,2.76,2.76S22.6,27.07,21.08,27.07z M22.22,23.56
	h-0.46v-0.4c0-0.44-0.36-0.8-0.8-0.8s-0.8,0.36-0.8,0.8v1.2c0,0.44,0.36,0.8,0.8,0.8h1.26c0.44,0,0.8-0.36,0.8-0.8
	S22.66,23.56,22.22,23.56z M31.91,33.8h-3.2c-0.44,0-0.8,0.36-0.8,0.8v3.69c0,0.44,0.36,0.8,0.8,0.8h3.2c0.44,0,0.8-0.36,0.8-0.8
	V34.6C32.71,34.16,32.35,33.8,31.91,33.8z M31.11,37.49h-1.6V35.4h1.6V37.49z M31.91,33.8h-3.2c-0.44,0-0.8,0.36-0.8,0.8v3.69
	c0,0.44,0.36,0.8,0.8,0.8h3.2c0.44,0,0.8-0.36,0.8-0.8V34.6C32.71,34.16,32.35,33.8,31.91,33.8z M31.11,37.49h-1.6V35.4h1.6V37.49z
	 M22.22,23.56h-0.46v-0.4c0-0.44-0.36-0.8-0.8-0.8s-0.8,0.36-0.8,0.8v1.2c0,0.44,0.36,0.8,0.8,0.8h1.26c0.44,0,0.8-0.36,0.8-0.8
	S22.66,23.56,22.22,23.56z M22.22,23.56h-0.46v-0.4c0-0.44-0.36-0.8-0.8-0.8s-0.8,0.36-0.8,0.8v1.2c0,0.44,0.36,0.8,0.8,0.8h1.26
	c0.44,0,0.8-0.36,0.8-0.8S22.66,23.56,22.22,23.56z M21.08,19.95c-2.4,0-4.36,1.95-4.36,4.36c0,2.4,1.96,4.36,4.36,4.36
	c2.4,0,4.36-1.96,4.36-4.36C25.44,21.9,23.48,19.95,21.08,19.95z M21.08,27.07c-1.52,0-2.76-1.24-2.76-2.76s1.24-2.76,2.76-2.76
	c1.52,0,2.76,1.24,2.76,2.76S22.6,27.07,21.08,27.07z M22.22,23.56h-0.46v-0.4c0-0.44-0.36-0.8-0.8-0.8s-0.8,0.36-0.8,0.8v1.2
	c0,0.44,0.36,0.8,0.8,0.8h1.26c0.44,0,0.8-0.36,0.8-0.8S22.66,23.56,22.22,23.56z M13.24,33.8h-3.19c-0.45,0-0.8,0.36-0.8,0.8v3.69
	c0,0.44,0.35,0.8,0.8,0.8h3.19c0.44,0,0.8-0.36,0.8-0.8V34.6C14.04,34.16,13.68,33.8,13.24,33.8z M12.44,37.49h-1.59V35.4h1.59
	V37.49z M13.24,33.8h-3.19c-0.45,0-0.8,0.36-0.8,0.8v3.69c0,0.44,0.35,0.8,0.8,0.8h3.19c0.44,0,0.8-0.36,0.8-0.8V34.6
	C14.04,34.16,13.68,33.8,13.24,33.8z M12.44,37.49h-1.59V35.4h1.59V37.49z M22.22,23.56h-0.46v-0.4c0-0.44-0.36-0.8-0.8-0.8
	s-0.8,0.36-0.8,0.8v1.2c0,0.44,0.36,0.8,0.8,0.8h1.26c0.44,0,0.8-0.36,0.8-0.8S22.66,23.56,22.22,23.56z M22.22,23.56h-0.46v-0.4
	c0-0.44-0.36-0.8-0.8-0.8s-0.8,0.36-0.8,0.8v1.2c0,0.44,0.36,0.8,0.8,0.8h1.26c0.44,0,0.8-0.36,0.8-0.8S22.66,23.56,22.22,23.56z
	 M21.08,19.95c-2.4,0-4.36,1.95-4.36,4.36c0,2.4,1.96,4.36,4.36,4.36c2.4,0,4.36-1.96,4.36-4.36C25.44,21.9,23.48,19.95,21.08,19.95
	z M21.08,27.07c-1.52,0-2.76-1.24-2.76-2.76s1.24-2.76,2.76-2.76c1.52,0,2.76,1.24,2.76,2.76S22.6,27.07,21.08,27.07z M22.22,23.56
	h-0.46v-0.4c0-0.44-0.36-0.8-0.8-0.8s-0.8,0.36-0.8,0.8v1.2c0,0.44,0.36,0.8,0.8,0.8h1.26c0.44,0,0.8-0.36,0.8-0.8
	S22.66,23.56,22.22,23.56z M31.91,33.8h-3.2c-0.44,0-0.8,0.36-0.8,0.8v3.69c0,0.44,0.36,0.8,0.8,0.8h3.2c0.44,0,0.8-0.36,0.8-0.8
	V34.6C32.71,34.16,32.35,33.8,31.91,33.8z M31.11,37.49h-1.6V35.4h1.6V37.49z M31.91,33.8h-3.2c-0.44,0-0.8,0.36-0.8,0.8v3.69
	c0,0.44,0.36,0.8,0.8,0.8h3.2c0.44,0,0.8-0.36,0.8-0.8V34.6C32.71,34.16,32.35,33.8,31.91,33.8z M31.11,37.49h-1.6V35.4h1.6V37.49z
	 M22.22,23.56h-0.46v-0.4c0-0.44-0.36-0.8-0.8-0.8s-0.8,0.36-0.8,0.8v1.2c0,0.44,0.36,0.8,0.8,0.8h1.26c0.44,0,0.8-0.36,0.8-0.8
	S22.66,23.56,22.22,23.56z M22.22,23.56h-0.46v-0.4c0-0.44-0.36-0.8-0.8-0.8s-0.8,0.36-0.8,0.8v1.2c0,0.44,0.36,0.8,0.8,0.8h1.26
	c0.44,0,0.8-0.36,0.8-0.8S22.66,23.56,22.22,23.56z M21.08,19.95c-2.4,0-4.36,1.95-4.36,4.36c0,2.4,1.96,4.36,4.36,4.36
	c2.4,0,4.36-1.96,4.36-4.36C25.44,21.9,23.48,19.95,21.08,19.95z M21.08,27.07c-1.52,0-2.76-1.24-2.76-2.76s1.24-2.76,2.76-2.76
	c1.52,0,2.76,1.24,2.76,2.76S22.6,27.07,21.08,27.07z M22.22,23.56h-0.46v-0.4c0-0.44-0.36-0.8-0.8-0.8s-0.8,0.36-0.8,0.8v1.2
	c0,0.44,0.36,0.8,0.8,0.8h1.26c0.44,0,0.8-0.36,0.8-0.8S22.66,23.56,22.22,23.56z M13.24,33.8h-3.19c-0.45,0-0.8,0.36-0.8,0.8v3.69
	c0,0.44,0.35,0.8,0.8,0.8h3.19c0.44,0,0.8-0.36,0.8-0.8V34.6C14.04,34.16,13.68,33.8,13.24,33.8z M12.44,37.49h-1.59V35.4h1.59
	V37.49z M13.24,33.8h-3.19c-0.45,0-0.8,0.36-0.8,0.8v3.69c0,0.44,0.35,0.8,0.8,0.8h3.19c0.44,0,0.8-0.36,0.8-0.8V34.6
	C14.04,34.16,13.68,33.8,13.24,33.8z M12.44,37.49h-1.59V35.4h1.59V37.49z M22.22,23.56h-0.46v-0.4c0-0.44-0.36-0.8-0.8-0.8
	s-0.8,0.36-0.8,0.8v1.2c0,0.44,0.36,0.8,0.8,0.8h1.26c0.44,0,0.8-0.36,0.8-0.8S22.66,23.56,22.22,23.56z M22.22,23.56h-0.46v-0.4
	c0-0.44-0.36-0.8-0.8-0.8s-0.8,0.36-0.8,0.8v1.2c0,0.44,0.36,0.8,0.8,0.8h1.26c0.44,0,0.8-0.36,0.8-0.8S22.66,23.56,22.22,23.56z
	 M21.08,19.95c-2.4,0-4.36,1.95-4.36,4.36c0,2.4,1.96,4.36,4.36,4.36c2.4,0,4.36-1.96,4.36-4.36C25.44,21.9,23.48,19.95,21.08,19.95
	z M21.08,27.07c-1.52,0-2.76-1.24-2.76-2.76s1.24-2.76,2.76-2.76c1.52,0,2.76,1.24,2.76,2.76S22.6,27.07,21.08,27.07z M22.22,23.56
	h-0.46v-0.4c0-0.44-0.36-0.8-0.8-0.8s-0.8,0.36-0.8,0.8v1.2c0,0.44,0.36,0.8,0.8,0.8h1.26c0.44,0,0.8-0.36,0.8-0.8
	S22.66,23.56,22.22,23.56z M31.91,33.8h-3.2c-0.44,0-0.8,0.36-0.8,0.8v3.69c0,0.44,0.36,0.8,0.8,0.8h3.2c0.44,0,0.8-0.36,0.8-0.8
	V34.6C32.71,34.16,32.35,33.8,31.91,33.8z M31.11,37.49h-1.6V35.4h1.6V37.49z M31.91,33.8h-3.2c-0.44,0-0.8,0.36-0.8,0.8v3.69
	c0,0.44,0.36,0.8,0.8,0.8h3.2c0.44,0,0.8-0.36,0.8-0.8V34.6C32.71,34.16,32.35,33.8,31.91,33.8z M31.11,37.49h-1.6V35.4h1.6V37.49z
	 M22.22,23.56h-0.46v-0.4c0-0.44-0.36-0.8-0.8-0.8s-0.8,0.36-0.8,0.8v1.2c0,0.44,0.36,0.8,0.8,0.8h1.26c0.44,0,0.8-0.36,0.8-0.8
	S22.66,23.56,22.22,23.56z M22.22,23.56h-0.46v-0.4c0-0.44-0.36-0.8-0.8-0.8s-0.8,0.36-0.8,0.8v1.2c0,0.44,0.36,0.8,0.8,0.8h1.26
	c0.44,0,0.8-0.36,0.8-0.8S22.66,23.56,22.22,23.56z M21.08,19.95c-2.4,0-4.36,1.95-4.36,4.36c0,2.4,1.96,4.36,4.36,4.36
	c2.4,0,4.36-1.96,4.36-4.36C25.44,21.9,23.48,19.95,21.08,19.95z M21.08,27.07c-1.52,0-2.76-1.24-2.76-2.76s1.24-2.76,2.76-2.76
	c1.52,0,2.76,1.24,2.76,2.76S22.6,27.07,21.08,27.07z M22.22,23.56h-0.46v-0.4c0-0.44-0.36-0.8-0.8-0.8s-0.8,0.36-0.8,0.8v1.2
	c0,0.44,0.36,0.8,0.8,0.8h1.26c0.44,0,0.8-0.36,0.8-0.8S22.66,23.56,22.22,23.56z M13.24,33.8h-3.19c-0.45,0-0.8,0.36-0.8,0.8v3.69
	c0,0.44,0.35,0.8,0.8,0.8h3.19c0.44,0,0.8-0.36,0.8-0.8V34.6C14.04,34.16,13.68,33.8,13.24,33.8z M12.44,37.49h-1.59V35.4h1.59
	V37.49z M22.22,23.56h-0.46v-0.4c0-0.44-0.36-0.8-0.8-0.8s-0.8,0.36-0.8,0.8v1.2c0,0.44,0.36,0.8,0.8,0.8h1.26
	c0.44,0,0.8-0.36,0.8-0.8S22.66,23.56,22.22,23.56z M22.22,23.56h-0.46v-0.4c0-0.44-0.36-0.8-0.8-0.8s-0.8,0.36-0.8,0.8v1.2
	c0,0.44,0.36,0.8,0.8,0.8h1.26c0.44,0,0.8-0.36,0.8-0.8S22.66,23.56,22.22,23.56z M21.08,19.95c-2.4,0-4.36,1.95-4.36,4.36
	c0,2.4,1.96,4.36,4.36,4.36c2.4,0,4.36-1.96,4.36-4.36C25.44,21.9,23.48,19.95,21.08,19.95z M21.08,27.07
	c-1.52,0-2.76-1.24-2.76-2.76s1.24-2.76,2.76-2.76c1.52,0,2.76,1.24,2.76,2.76S22.6,27.07,21.08,27.07z M22.22,23.56h-0.46v-0.4
	c0-0.44-0.36-0.8-0.8-0.8s-0.8,0.36-0.8,0.8v1.2c0,0.44,0.36,0.8,0.8,0.8h1.26c0.44,0,0.8-0.36,0.8-0.8S22.66,23.56,22.22,23.56z
	 M13.24,33.8h-3.19c-0.45,0-0.8,0.36-0.8,0.8v3.69c0,0.44,0.35,0.8,0.8,0.8h3.19c0.44,0,0.8-0.36,0.8-0.8V34.6
	C14.04,34.16,13.68,33.8,13.24,33.8z M12.44,37.49h-1.59V35.4h1.59V37.49z M31.91,33.8h-3.2c-0.44,0-0.8,0.36-0.8,0.8v3.69
	c0,0.44,0.36,0.8,0.8,0.8h3.2c0.44,0,0.8-0.36,0.8-0.8V34.6C32.71,34.16,32.35,33.8,31.91,33.8z M31.11,37.49h-1.6V35.4h1.6V37.49z
	 M31.91,33.8h-3.2c-0.44,0-0.8,0.36-0.8,0.8v3.69c0,0.44,0.36,0.8,0.8,0.8h3.2c0.44,0,0.8-0.36,0.8-0.8V34.6
	C32.71,34.16,32.35,33.8,31.91,33.8z M31.11,37.49h-1.6V35.4h1.6V37.49z M22.22,23.56h-0.46v-0.4c0-0.44-0.36-0.8-0.8-0.8
	s-0.8,0.36-0.8,0.8v1.2c0,0.44,0.36,0.8,0.8,0.8h1.26c0.44,0,0.8-0.36,0.8-0.8S22.66,23.56,22.22,23.56z M22.22,23.56h-0.46v-0.4
	c0-0.44-0.36-0.8-0.8-0.8s-0.8,0.36-0.8,0.8v1.2c0,0.44,0.36,0.8,0.8,0.8h1.26c0.44,0,0.8-0.36,0.8-0.8S22.66,23.56,22.22,23.56z
	 M21.08,19.95c-2.4,0-4.36,1.95-4.36,4.36c0,2.4,1.96,4.36,4.36,4.36c2.4,0,4.36-1.96,4.36-4.36C25.44,21.9,23.48,19.95,21.08,19.95
	z M21.08,27.07c-1.52,0-2.76-1.24-2.76-2.76s1.24-2.76,2.76-2.76c1.52,0,2.76,1.24,2.76,2.76S22.6,27.07,21.08,27.07z M22.22,23.56
	h-0.46v-0.4c0-0.44-0.36-0.8-0.8-0.8s-0.8,0.36-0.8,0.8v1.2c0,0.44,0.36,0.8,0.8,0.8h1.26c0.44,0,0.8-0.36,0.8-0.8
	S22.66,23.56,22.22,23.56z M13.24,33.8h-3.19c-0.45,0-0.8,0.36-0.8,0.8v3.69c0,0.44,0.35,0.8,0.8,0.8h3.19c0.44,0,0.8-0.36,0.8-0.8
	V34.6C14.04,34.16,13.68,33.8,13.24,33.8z M12.44,37.49h-1.59V35.4h1.59V37.49z M22.22,23.56h-0.46v-0.4c0-0.44-0.36-0.8-0.8-0.8
	s-0.8,0.36-0.8,0.8v1.2c0,0.44,0.36,0.8,0.8,0.8h1.26c0.44,0,0.8-0.36,0.8-0.8S22.66,23.56,22.22,23.56z M22.22,23.56h-0.46v-0.4
	c0-0.44-0.36-0.8-0.8-0.8s-0.8,0.36-0.8,0.8v1.2c0,0.44,0.36,0.8,0.8,0.8h1.26c0.44,0,0.8-0.36,0.8-0.8S22.66,23.56,22.22,23.56z"/>
</svg>
