<?xml version="1.0" encoding="utf-8"?>
<!-- Generator: Adobe Illustrator 16.0.0, SVG Export Plug-In . SVG Version: 6.00 Build 0)  -->
<!DOCTYPE svg PUBLIC "-//W3C//DTD SVG 1.1//EN" "http://www.w3.org/Graphics/SVG/1.1/DTD/svg11.dtd">
<svg version="1.1" id="Layer_1" xmlns="http://www.w3.org/2000/svg" xmlns:xlink="http://www.w3.org/1999/xlink" x="0px" y="0px"
	 width="1366px" height="557px" viewBox="0 0 1366 557" enable-background="new 0 0 1366 557" xml:space="preserve">
<g>
	<path d="M1208.957,417.246h39.539l1.253-57.545l-9.562-1.855c-0.186-38.891,0.466-44.181,0.142-82.583
		c-0.047-4.084,0.557-3.271-0.513-6.683L1201.3,158.897c-2.506-7.217-8.725-12.205-20.512-13.458
		c-44.599-4.896-58.334-5.592-103.396-6.683l-0.371-26.963l-42.415,0.487l-0.465,192.197H745.349l-0.604,67.568l-11.602,1.021
		l0.186,44.551h23.111c1.577-49.006,41.858-88.268,91.236-88.268c49.471,0,89.705,39.262,91.236,88.268h87.57
		c1.53-49.006,41.813-88.268,91.235-88.268C1167.005,329.352,1207.147,368.426,1208.957,417.246z"/>
	<path d="M1000.82,58.912l-879.766,1.484l-4.804,357.127h27.381c1.601-48.912,41.859-88.221,91.236-88.127l157.808,0.324
		c1.671,0,3.04,0.094,4.803,0.371c0.998,0.094,1.903,0.278,2.854,0.372c42.439,6.683,75.18,42.603,76.943,86.597l194.122,0.092
		l63.787-141.031l260.81-1.462L1000.82,58.912z"/>
	<path d="M236.005,356.268c39.168,0,70.864,31.742,70.864,70.91c0,39.167-31.696,70.91-70.864,70.91
		c-39.191,0-70.887-31.742-70.887-70.91S196.814,356.268,236.005,356.268z"/>
	<path d="M386.411,356.268c39.168,0,70.911,31.742,70.911,70.91c0,39.167-31.743,70.91-70.911,70.91
		c-39.145,0-70.957-31.742-70.957-70.91S347.196,356.268,386.411,356.268z"/>
	<path d="M850.23,356.268c39.12,0,70.862,31.742,70.862,70.91c0,39.167-31.742,70.91-70.862,70.91
		c-39.168,0-70.912-31.742-70.912-70.91S811.063,356.268,850.23,356.268z"/>
	<path d="M1120.829,356.268c39.121,0,70.864,31.742,70.864,70.91c0,39.167-31.743,70.91-70.864,70.91
		c-39.168,0-70.91-31.742-70.91-70.91C1049.826,388.01,1081.569,356.268,1120.829,356.268z"/>
	<path fill="#FFFFFF" d="M1179.86,284.775c0,3.898,3.806,8.076,8.167,8.076l18.796,0.439c4.314,0,8.863-4.432,8.863-8.098
		l0.277-13.76l-24.225-95.251c-0.976-3.782-1.484-8.122-5.939-8.122c-1.996,0-3.99,0-5.895,0
		C1179.906,220.247,1179.86,233.311,1179.86,284.775"/>
	<path fill="#FFFFFF" d="M1088.112,166.693c-4.407,0-8.073,5.128-8.073,9.583v49.377c0,4.524,3.666,8.191,8.073,8.191l74.021,17.564
		v-84.53C1135.587,166.6,1114.704,166.693,1088.112,166.693z"/>
	<path fill="#FFFFFF" d="M236.005,392.001c19.445,0,35.13,15.778,35.13,35.177c0,19.396-15.686,35.131-35.13,35.131
		c-19.421,0-35.153-15.732-35.153-35.131C200.851,407.779,216.583,392.001,236.005,392.001"/>
	<path fill="#FFFFFF" d="M386.411,392.001c19.445,0,35.177,15.778,35.177,35.177c0,19.396-15.732,35.131-35.177,35.131
		c-19.398,0-35.153-15.732-35.153-35.131C351.188,407.779,366.966,392.001,386.411,392.001"/>
	<path fill="#FFFFFF" d="M850.23,392.001c19.442,0,35.129,15.778,35.129,35.177c0,19.396-15.687,35.131-35.129,35.131
		c-19.445,0-35.179-15.732-35.179-35.131S830.783,392.001,850.23,392.001"/>
	<path fill="#FFFFFF" d="M1120.829,392.001c19.397,0,35.084,15.778,35.084,35.177c0,19.396-15.687,35.131-35.084,35.131
		c-19.49,0-35.176-15.732-35.176-35.131C1085.56,407.779,1101.339,392.001,1120.829,392.001"/>
</g>
</svg>
