<svg id="Layer_1" data-name="Layer 1" xmlns="http://www.w3.org/2000/svg" viewBox="0 0 50.46 50.46"><defs><style>.cls-1{fill:#00b5e4;}</style></defs><title>Iconos</title><path class="cls-1" d="M17.9,24.38a0.65,0.65,0,0,0,.65-0.65V18.8a0.65,0.65,0,0,0-.65-0.65h-3a1.23,1.23,0,0,0-.88.36l-3.76,3.76a1.22,1.22,0,0,0-.36.88v0.58a0.65,0.65,0,0,0,.65.65h7.4Zm-3-4.94h2.4v3.64h-6Z"/><path class="cls-1" d="M21.5,35.25a0.76,0.76,0,0,0,.76.77H28.6a0.77,0.77,0,0,0,0-1.53H22.26A0.76,0.76,0,0,0,21.5,35.25Z"/><path class="cls-1" d="M46.21,10.4A2.25,2.25,0,0,0,44,8.17H19.68a2.25,2.25,0,0,0-2.23,2.23V14H14.57a4.29,4.29,0,0,0-1.63.35,4.28,4.28,0,0,0-1.4.9L7,19.79a3.89,3.89,0,0,0-.64.85,5,5,0,0,0-.38.83,4.44,4.44,0,0,0-.19,1c0,0.37-.05.64-0.06,0.82s0,0.48,0,.92,0,0.67,0,.78V31.7a2.26,2.26,0,0,0-.88,3.62A2.45,2.45,0,0,0,6.24,36,8.26,8.26,0,0,0,7.39,36c0.5,0,.07,0,0.22,0a0.77,0.77,0,0,0,.73-0.8,0.78,0.78,0,0,0-.8-0.73,4.39,4.39,0,0,1-1.06,0A1,1,0,0,1,6,34.24,0.71,0.71,0,0,1,6,33.3a0.65,0.65,0,0,1,.49-0.21,0.76,0.76,0,0,0,.76-0.77V25c0-.12,0-0.4,0-0.81s0-.66,0-0.82,0-.42.06-0.76A3,3,0,0,1,7.45,22a3.44,3.44,0,0,1,.26-0.57,2.36,2.36,0,0,1,.39-0.52l4.52-4.52a2.75,2.75,0,0,1,.91-0.57,2.77,2.77,0,0,1,1-.24h3.66A0.76,0.76,0,0,0,19,14.78V10.4a0.72,0.72,0,0,1,.7-0.7H44a0.72,0.72,0,0,1,.7.7v22a8.12,8.12,0,0,1-.12,1.88,2.57,2.57,0,0,1-1.57.28A0.77,0.77,0,0,0,43,36c1.53,0,2.47-.33,2.87-1a5.81,5.81,0,0,0,.34-2.69V10.4Z"/><path class="cls-1" d="M30.79,12a4,4,0,0,0-4.1,3.84A3.64,3.64,0,0,0,27.35,18a1.27,1.27,0,0,0-.44,1A1.34,1.34,0,0,0,28,20.2v0.46a1.46,1.46,0,0,0,1.46,1.46h2.7a1.46,1.46,0,0,0,1.46-1.46V20.2a1.34,1.34,0,0,0,1.07-1.27,1.29,1.29,0,0,0-.43-1,3.63,3.63,0,0,0,.66-2.09A4,4,0,0,0,30.79,12ZM29,17.27a1.1,1.1,0,1,1,1.14-1.1A1.12,1.12,0,0,1,29,17.27Zm1.89,1.62-1.13.55,1.14-1.9L32,19.4Zm1.74-1.62a1.1,1.1,0,1,1,1.13-1.1A1.12,1.12,0,0,1,32.61,17.27Z"/><path class="cls-1" d="M26.81,25.87a1,1,0,0,0-1.89.8,1,1,0,0,0,.68.57,1,1,0,0,0-.06.89,1,1,0,1,0,1.88-.8,0.57,0.57,0,0,0,0-.06l3.4-1.41,3.35,1.51a0.37,0.37,0,0,0,0,.06,1,1,0,1,0,1.82,0,1,1,0,0,0,.69-0.55A1,1,0,0,0,34.75,26s0,0,0,.07l-2.12-1,2.14-.89a0.34,0.34,0,0,0,0,.07,1,1,0,0,0,1.88-.79A1,1,0,0,0,36,22.9,1,1,0,0,0,36,22a1,1,0,0,0-1.88.8,0.59,0.59,0,0,1,0,.06l-3.39,1.41-3.35-1.51a0.6,0.6,0,0,0,0-.05,1,1,0,1,0-1.86-.85,1,1,0,0,0,0,.88,1,1,0,0,0-.69.55,1,1,0,1,0,1.86.85s0,0,0-.07L29,25l-2.14.89S26.82,25.89,26.81,25.87Z"/><path class="cls-1" d="M15,42.29a5.2,5.2,0,1,0-5.2-5.2A5.2,5.2,0,0,0,15,42.29Zm0-8.86a3.67,3.67,0,1,1-3.67,3.67A3.67,3.67,0,0,1,15,33.43Z"/><path class="cls-1" d="M30.62,37.1a5.2,5.2,0,1,0,5.2-5.2A5.2,5.2,0,0,0,30.62,37.1Zm8.86,0a3.67,3.67,0,1,1-3.67-3.67A3.67,3.67,0,0,1,39.48,37.1Z"/></svg>