<?xml version="1.0" encoding="utf-8"?>
<!-- Generator: Adobe Illustrator 18.0.0, SVG Export Plug-In . SVG Version: 6.00 Build 0)  -->
<!DOCTYPE svg PUBLIC "-//W3C//DTD SVG 1.1//EN" "http://www.w3.org/Graphics/SVG/1.1/DTD/svg11.dtd">
<svg version="1.1" id="Layer_1" xmlns="http://www.w3.org/2000/svg" xmlns:xlink="http://www.w3.org/1999/xlink" x="0px" y="0px"
	 viewBox="0 0 50.5 50.5" style="enable-background:new 0 0 50.5 50.5;" xml:space="preserve">
<style type="text/css">
	.st0{fill:#65B4E1;}
</style>
<path class="st0" d="M17.9,24.4c0.4,0,0.6-0.3,0.6-0.6v-4.9c0-0.4-0.3-0.6-0.6-0.6h-3c-0.3,0-0.6,0.1-0.9,0.4l-3.8,3.8
	c-0.2,0.2-0.4,0.5-0.4,0.9v0.6c0,0.4,0.3,0.6,0.6,0.6H17.9z M14.9,19.4h2.4v3.6h-6L14.9,19.4z"/>
<path class="st0" d="M21.5,35.3c0,0.4,0.3,0.8,0.8,0.8h6.3c0.4,0,0.8-0.3,0.8-0.8s-0.3-0.8-0.8-0.8h-6.3
	C21.8,34.5,21.5,34.8,21.5,35.3z"/>
<path class="st0" d="M46.2,10.4c0-0.6-0.2-1.1-0.7-1.6c-0.4-0.4-1-0.7-1.6-0.7H19.7c-0.6,0-1.1,0.2-1.6,0.7c-0.4,0.4-0.7,1-0.7,1.6
	V14h-2.9c-0.5,0-1.1,0.1-1.6,0.4c-0.6,0.2-1,0.5-1.4,0.9L7,19.8c-0.2,0.2-0.5,0.5-0.6,0.9c-0.2,0.3-0.3,0.6-0.4,0.8
	c-0.1,0.3-0.2,0.6-0.2,1c0,0.4-0.1,0.6-0.1,0.8c0,0.2,0,0.5,0,0.9c0,0.4,0,0.7,0,0.8v6.7C5.5,31.8,5.2,32,5,32.2
	c-0.9,0.9-0.9,2.3-0.1,3.1c0.3,0.3,0.8,0.6,1.4,0.7C6.5,36,7,36,7.4,36c0.5,0,0.1,0,0.2,0c0.4,0,0.8-0.4,0.7-0.8
	c0-0.4-0.4-0.7-0.8-0.7c-0.6,0-0.7,0-1.1,0c-0.2,0-0.4-0.1-0.5-0.2C5.7,34,5.8,33.5,6,33.3c0.1-0.1,0.3-0.2,0.5-0.2
	c0.4,0,0.8-0.3,0.8-0.8V25c0-0.1,0-0.4,0-0.8c0-0.4,0-0.7,0-0.8c0-0.2,0-0.4,0.1-0.8c0-0.4,0.1-0.6,0.1-0.7c0.1-0.2,0.1-0.4,0.3-0.6
	c0.1-0.2,0.2-0.4,0.4-0.5l4.5-4.5c0.2-0.2,0.5-0.4,0.9-0.6c0.4-0.2,0.7-0.2,1-0.2h3.7c0.4,0,0.8-0.3,0.8-0.8v-4.4
	c0-0.2,0.1-0.3,0.2-0.5c0.1-0.1,0.3-0.2,0.5-0.2H44c0.2,0,0.3,0.1,0.5,0.2c0.1,0.1,0.2,0.3,0.2,0.5l0,22c0,0.5,0,1.6-0.1,1.9
	c0,0-0.3,0.3-1.6,0.3c-0.4,0-0.8,0.3-0.8,0.8S42.6,36,43,36c1.5,0,2.5-0.3,2.9-1c0.3-0.6,0.4-1.5,0.3-2.7L46.2,10.4z"/>
<path class="st0" d="M30.8,12c-2.3,0-4.1,1.7-4.1,3.8c0,0.8,0.2,1.5,0.7,2.1c-0.3,0.2-0.4,0.6-0.4,1c0,0.6,0.5,1.1,1.1,1.3v0.5
	c0,0.8,0.7,1.5,1.5,1.5h2.7c0.8,0,1.5-0.7,1.5-1.5v-0.5c0.6-0.2,1.1-0.7,1.1-1.3c0-0.4-0.2-0.7-0.4-1c0.4-0.6,0.7-1.3,0.7-2.1
	C34.9,13.8,33.1,12,30.8,12z M29,17.3c-0.6,0-1.1-0.5-1.1-1.1c0-0.6,0.5-1.1,1.1-1.1c0.6,0,1.1,0.5,1.1,1.1
	C30.1,16.8,29.6,17.3,29,17.3z M30.9,18.9l-1.1,0.5l1.1-1.9l1.1,1.9L30.9,18.9z M32.6,17.3c-0.6,0-1.1-0.5-1.1-1.1
	c0-0.6,0.5-1.1,1.1-1.1c0.6,0,1.1,0.5,1.1,1.1C33.7,16.8,33.2,17.3,32.6,17.3z"/>
<path class="st0" d="M26.8,25.9c-0.2-0.5-0.8-0.8-1.3-0.5c-0.5,0.2-0.8,0.8-0.5,1.3c0.1,0.3,0.4,0.5,0.7,0.6
	c-0.1,0.3-0.2,0.6-0.1,0.9c0.2,0.5,0.8,0.8,1.3,0.5c0.5-0.2,0.8-0.8,0.5-1.3c0,0,0,0,0-0.1l3.4-1.4l3.4,1.5c0,0,0,0,0,0.1
	c-0.2,0.5,0,1.1,0.5,1.4c0.5,0.2,1.1,0,1.4-0.5c0.1-0.3,0.1-0.6,0-0.9c0.3-0.1,0.6-0.3,0.7-0.6c0.2-0.5,0-1.1-0.5-1.4
	c-0.5-0.2-1.1,0-1.4,0.5c0,0,0,0,0,0.1l-2.1-1l2.1-0.9c0,0,0,0,0,0.1c0.2,0.5,0.8,0.8,1.3,0.5c0.5-0.2,0.8-0.8,0.5-1.3
	c-0.1-0.3-0.4-0.5-0.7-0.6c0.1-0.3,0.2-0.6,0.1-0.9c-0.2-0.5-0.8-0.8-1.3-0.5c-0.5,0.2-0.8,0.8-0.5,1.3c0,0,0,0,0,0.1l-3.4,1.4
	l-3.4-1.5c0,0,0,0,0-0.1c0.2-0.5,0-1.1-0.5-1.4c-0.5-0.2-1.1,0-1.4,0.5c-0.1,0.3-0.1,0.6,0,0.9c-0.3,0.1-0.6,0.3-0.7,0.6
	c-0.2,0.5,0,1.1,0.5,1.4c0.5,0.2,1.1,0,1.4-0.5c0,0,0,0,0-0.1l2.1,1L26.8,25.9C26.8,25.9,26.8,25.9,26.8,25.9z"/>
<path class="st0" d="M15,42.3c2.9,0,5.2-2.3,5.2-5.2c0-2.9-2.3-5.2-5.2-5.2c-2.9,0-5.2,2.3-5.2,5.2C9.9,40,12.2,42.3,15,42.3z
	 M15,33.4c2,0,3.7,1.6,3.7,3.7s-1.6,3.7-3.7,3.7c-2,0-3.7-1.6-3.7-3.7S13,33.4,15,33.4z"/>
<path class="st0" d="M30.6,37.1c0,2.9,2.3,5.2,5.2,5.2S41,40,41,37.1c0-2.9-2.3-5.2-5.2-5.2S30.6,34.2,30.6,37.1z M39.5,37.1
	c0,2-1.6,3.7-3.7,3.7s-3.7-1.6-3.7-3.7s1.6-3.7,3.7-3.7S39.5,35.1,39.5,37.1z"/>
</svg>
