<svg xmlns="http://www.w3.org/2000/svg" viewBox="0 0 50.46 50.46">
  <title>Iconos</title>
  <g>
    <path d="M8.67,39.41A1,1,0,0,1,7.76,38L19.54,11.64a1,1,0,0,1,1.83.82L9.58,38.82A1,1,0,0,1,8.67,39.41Z" fill="#00b5e4"/>
    <path d="M41.79,39.41a1,1,0,0,1-.91-0.59L29.09,12.45a1,1,0,0,1,1.83-.82L42.7,38A1,1,0,0,1,41.79,39.41Z" fill="#00b5e4"/>
    <g>
      <path d="M25.23,39.32a1,1,0,0,1-1-1V28.63a1,1,0,0,1,2,0v9.68A1,1,0,0,1,25.23,39.32Z" fill="#00b5e4"/>
      <path d="M25.23,24.86a1,1,0,0,1-1-1v-5.2a1,1,0,0,1,2,0v5.2A1,1,0,0,1,25.23,24.86Z" fill="#00b5e4"/>
      <path d="M25.23,15.54a1,1,0,0,1-1-1V12a1,1,0,0,1,2,0v2.49A1,1,0,0,1,25.23,15.54Z" fill="#00b5e4"/>
    </g>
  </g>
</svg>
