<?xml version="1.0" encoding="utf-8"?>
<!-- Generator: Adobe Illustrator 24.2.1, SVG Export Plug-In . SVG Version: 6.00 Build 0)  -->
<svg version="1.1" id="Layer_1" xmlns="http://www.w3.org/2000/svg" xmlns:xlink="http://www.w3.org/1999/xlink" x="0px" y="0px"
	 viewBox="0 0 50.5 50.5" style="enable-background:new 0 0 50.5 50.5;" xml:space="preserve">
<path d="M25.25,1.937c-12.855,0-23.313,10.458-23.313,23.313c0,12.855,10.458,23.313,23.313,23.313
	c6.26,0,11.947-2.484,16.139-6.513c0.057-0.034,0.117-0.061,0.166-0.111c0.039-0.039,0.058-0.087,0.087-0.131
	c4.27-4.228,6.921-10.089,6.921-16.558C48.563,12.395,38.105,1.937,25.25,1.937z M3.536,25.25c0-5.602,2.133-10.714,5.628-14.57
	l15.542,15.541l-14.657,5.304c-0.199,0.072-0.362,0.221-0.452,0.412c-0.09,0.192-0.1,0.412-0.028,0.612l1.541,4.257
	c0.118,0.325,0.425,0.527,0.752,0.527c0.09,0,0.182-0.015,0.272-0.048l17.356-6.281l10.33,10.33
	c-3.856,3.496-8.969,5.629-14.57,5.629C13.277,46.964,3.536,37.223,3.536,25.25z M40.592,25.286l-0.996-2.752l0.786-0.284
	l0.996,2.752L40.592,25.286z M38.092,23.079l0.996,2.752l-0.786,0.284l-0.996-2.752L38.092,23.079z M35.802,23.907l0.996,2.752
	l-6.895,2.495l-2.285-2.285L35.802,23.907z M28.241,29.756l-8.326,3.013l-0.996-2.752l7.036-2.546L28.241,29.756z M17.415,30.562
	l0.996,2.752l-6.069,2.196l-0.996-2.752L17.415,30.562z M40.961,40.214l-9.81-9.81l11.523-4.17c0.199-0.072,0.362-0.221,0.452-0.413
	c0.09-0.192,0.1-0.412,0.027-0.612l-1.541-4.256c-0.149-0.415-0.61-0.628-1.024-0.48L26.367,25.62L10.286,9.538
	c3.898-3.714,9.167-6.002,14.964-6.002c11.973,0,21.714,9.741,21.714,21.714C46.964,31.047,44.676,36.316,40.961,40.214z"/>
<path d="M38.383,12.493h-1.555h-3.137H32.85c-0.433,0-0.784-0.352-0.784-0.785s0.352-0.785,0.784-0.785h3.088
	c0.441,0,0.8-0.358,0.8-0.8s-0.358-0.8-0.8-0.8H32.85c-1.314,0-2.384,1.069-2.384,2.384s1.069,2.384,2.384,2.384h0.842h3.137h1.555
	c0.433,0,0.784,0.352,0.784,0.784c0,0.433-0.352,0.785-0.784,0.785h-0.808c0,0-0.001,0-0.001,0l-0.201,0c-0.001,0-0.002,0-0.003,0
	c-0.636,0-1.234,0.248-1.685,0.697c-0.451,0.451-0.699,1.05-0.699,1.687c0,1.314,1.068,2.383,2.382,2.384l0.501,0h0.001
	c0.441,0,0.8-0.357,0.8-0.799c0.001-0.442-0.357-0.801-0.799-0.801l-0.502,0c-0.432,0-0.783-0.352-0.783-0.784
	c0-0.209,0.082-0.407,0.23-0.555c0.148-0.148,0.345-0.229,0.554-0.229c0.001,0,0.001,0,0.001,0l0.498,0c0.001,0,0.001,0,0.001,0
	c0.001,0,0.002,0,0.002,0h0.51c1.314,0,2.384-1.069,2.384-2.384C40.767,13.563,39.697,12.493,38.383,12.493z"/>
</svg>
