<?xml version="1.0" encoding="utf-8"?>
<!-- Generator: Adobe Illustrator 24.0.1, SVG Export Plug-In . SVG Version: 6.00 Build 0)  -->
<svg version="1.1" id="Layer_1" xmlns="http://www.w3.org/2000/svg" xmlns:xlink="http://www.w3.org/1999/xlink" x="0px" y="0px"
	 viewBox="0 0 50.5 50.5" style="enable-background:new 0 0 50.5 50.5;" xml:space="preserve">
<style type="text/css">
	.st0{fill-rule:evenodd;clip-rule:evenodd;}
</style>
<g id="Capa_x0020_1">
	<g id="_1217017490880">
		<path class="st0" d="M40.66,34.34l0.247,0.063L40.66,34.34z M40.66,34.34c-0.457-0.01-0.762-0.139-1.155-0.221
			c-7.258-1.517-12.555,1.024-19.369,1.024c0.061,2.76,3.992,2.345,5.966,2.404l4.697,0.577l-2.637,0.115
			c-4.377,0-5.837-0.017-10.1-0.908c-3.172-0.663-5.506-2.271-5.953-0.353l2.604,1.409c1.001,0.423,1.785,0.774,2.834,1.179
			c1.127,0.436,3.526,1.056,4.815,1.262c0.746,0.119,1.265-0.016,1.328,0.736c-6.138,0-12.253-4.064-12.423-4.108
			c-0.432-0.112-0.739-0.066-0.767,0.325c-0.027,0.395-0.091,0.163,0.427,0.607c0.252,0.216,0.387,0.308,0.635,0.513
			c2.743,2.261,6.566,3.769,10.164,4.169c0.411,0.046,0.614,0.051,0.818,0.329c-0.776,0.372-3.556-0.343-4.382-0.549l-2.723-1.062
			c-1.334-0.797-1.126,0.309-0.65,0.65l2.806,1.438c13.308,5.311,28.203-1.867,31.178-15.753c1.002-4.676,0.412-10.119-1.654-14.229
			c-1.59-3.162-3.4-5.663-6.23-7.873c-0.432-0.337-1.148-1.013-1.72-1.147l1.233,1.289c2.071,2.027,3.723,5.659,4.3,8.542
			c1.311,6.552-0.968,13.111-6.018,17.432c-0.535,0.458-0.566,0.354-0.662,0.714C38.317,32.928,40.456,34.062,40.66,34.34
			L40.66,34.34z"/>
		<path d="M16.467,29.18c4.707,0,4.288-4.647,3.555-7.797c0.834,0.611,1.313,4.201,1.47,5.639l0.594,6.63
			c1.049,0,1.705-0.229,2.637-0.229c0-0.656,0.068-0.888,0.109-1.382c0.042-0.506-0.013-1.089,0.002-1.603l0.118-3.092
			c0-11.828-3.44-11.366-3.44-12.727c0-0.386,2.752-1.768,2.752-4.013c0-1.825-0.208-2.535-1.632-3.872
			c-2.057-1.93-5.981-1.538-8.298,0.018c-6.06,4.069-7.697,12.14-4.095,18.223C11.258,26.698,13.823,29.18,16.467,29.18
			L16.467,29.18z"/>
		<path class="st0" d="M15.435,44.086c-0.302-0.412-1.035-0.563-1.462-0.946c-0.661-0.592-0.524-1.247-0.487-1.692
			c-0.843-0.446-2.571-1.619-3.242-2.262c-0.471-0.452-1.051-0.869-0.699-1.906c0.357-1.053,1.341-0.875,1.683-1.071
			c0.348-0.199,0.296-0.867,1.566-1.194c0.742-0.191,1.491,0.143,2.168,0.37c1.094,0.367,3.198,1.025,4.486,1.132
			c-0.261-0.543-0.317-1.605-0.634-1.647c-0.334-0.043-0.653-0.089-0.908-0.126c-3.22-0.463-6.12-1.976-8.09-4.533
			C4.564,23.393,3.606,14.757,8.881,7.606C9.255,7.1,9.565,6.661,10.017,6.219l1.29-1.347c-1.117,0.26-3.461,2.723-4.329,3.582
			c-7.647,7.56-7.35,20.701-0.816,28.967C7.984,39.726,12.946,43.878,15.435,44.086L15.435,44.086z"/>
		<path class="st0" d="M32.651,27.718c-2.426-1.029,0.68-7.69-2.196-7.825c-2.522,0.587-2.67,5.541-3.015,8.222
			c-0.116,0.902-0.31,2.472-0.31,3.474h-0.115c0-1.314-0.014-2.526-0.109-3.675c-0.137-1.655-0.25-4.954,0.538-7.215
			c0.834-2.396,5.099-5.806,1.918-7.609c-1.083-0.614-1.964-2.495-1.664-3.588c0.415-1.511,1.631-2.395,3.141-2.608
			c4.182-0.591,6.302,2.167,8.333,5.424C42.626,17.853,39.547,28.931,32.651,27.718L32.651,27.718z M28.965,14.389
			c-0.029,1.304-1.534,1.311-2.624,4.714c-1.223,3.818-0.71,8.689-0.705,12.603c0.001,0.692,0.119,0.833,0.119,1.487
			c1.013,0,1.847-0.269,2.752-0.344c0-2.585,0.755-10.591,1.949-11.466c-0.281,1.207-0.459,2.729-0.459,4.013
			c0,1.974,1.579,3.784,3.554,3.784c3.033,0,5.135-1.927,6.674-4.219c1.383-2.06,2.13-5.008,1.794-8.377
			c-0.321-3.228-1.539-5.323-3.077-7.357c-1.133-1.498-4.063-3.782-6.653-3.782h-1.032c-3.273,0-6.497,3.366-4.469,6.877
			C27.107,12.873,28.331,14.22,28.965,14.389L28.965,14.389z"/>
	</g>
</g>
</svg>
