<svg id="e61d267e-6e9f-44a5-95cc-7eb13631805e" data-name="stroke 1,6" xmlns="http://www.w3.org/2000/svg" viewBox="0 0 50.46 50.46"><path d="M9.342,32.909a4.783,4.783,0,0,0-.479-.647,7.671,7.671,0,0,0-.6-.6l-.845-.743c-.168-.152-.287-.263-.359-.335a3.9,3.9,0,0,1-.278-.323,1.343,1.343,0,0,1-.24-.446,1.788,1.788,0,0,1-.069-.513.974.974,0,0,1,.153-.53.5.5,0,0,1,.44-.242.583.583,0,0,1,.249.035.375.375,0,0,1,.173.141.952.952,0,0,1,.111.212,1.415,1.415,0,0,1,.066.3c.016.124.027.24.033.35s.011.249.015.417l1.9-.246c-.008-.187-.021-.363-.039-.527a3.994,3.994,0,0,0-.1-.542,2.994,2.994,0,0,0-.186-.533,2.347,2.347,0,0,0-.3-.474,1.713,1.713,0,0,0-.437-.392,2.212,2.212,0,0,0-.611-.252,3.142,3.142,0,0,0-.806-.1,2.937,2.937,0,0,0-2.037.683,2.459,2.459,0,0,0-.743,1.917,3.473,3.473,0,0,0,.1.845,2.36,2.36,0,0,0,.3.7,3.884,3.884,0,0,0,.411.543,6.811,6.811,0,0,0,.527.5l.881.76a5.762,5.762,0,0,1,.587.564,2.151,2.151,0,0,1,.353.578,1.871,1.871,0,0,1,.144.74q0,.72-.557.719a.679.679,0,0,1-.638-.422A3.311,3.311,0,0,1,6.226,33.7l-1.881.287a3.653,3.653,0,0,0,.745,2.4,2.729,2.729,0,0,0,2.106.752,2.57,2.57,0,0,0,1.888-.711A2.409,2.409,0,0,0,9.8,34.637a3.614,3.614,0,0,0-.117-.931,2.92,2.92,0,0,0-.345-.8Z"/><path d="M12.7,29.785a2.49,2.49,0,0,0-1.813.626,2.355,2.355,0,0,0-.644,1.77v2.54a2.372,2.372,0,0,0,.641,1.773,2.483,2.483,0,0,0,1.816.63,2.444,2.444,0,0,0,1.74-.56,2.075,2.075,0,0,0,.62-1.621V34.53H13.2V35c0,.46-.168.689-.5.689a.375.375,0,0,1-.365-.218,1.506,1.506,0,0,1-.109-.65V33.578h2.834v-1.4a2.474,2.474,0,0,0-.59-1.789,2.362,2.362,0,0,0-1.77-.607Zm.5,2.857h-.977v-.587a1.342,1.342,0,0,1,.117-.653.384.384,0,0,1,.351-.191.453.453,0,0,1,.377.164.912.912,0,0,1,.132.56Z"/><path d="M19.114,35.56l-.778-.1q-.594-.075-.761-.1-.628-.09-.653-.27a.184.184,0,0,1-.006-.047.846.846,0,0,1,.216-.443,2.765,2.765,0,0,0,.524.146,3.15,3.15,0,0,0,.609.063,2.249,2.249,0,0,0,1.752-.637,2.564,2.564,0,0,0,.578-1.783A2.5,2.5,0,0,0,20.242,31a5.6,5.6,0,0,1,.617-.311,5.347,5.347,0,0,1,.569-.228l-.461-.976-.264.132a3.241,3.241,0,0,0-.959.79,1.936,1.936,0,0,0-1.617-.617,2.518,2.518,0,0,0-1.824.644,2.674,2.674,0,0,0-.644,1.968,2.031,2.031,0,0,0,.773,1.761,3.7,3.7,0,0,0-.713.7.869.869,0,0,0-.168.521,1.04,1.04,0,0,0,.018.192.739.739,0,0,0,.24.443,1.9,1.9,0,0,0,.647.353q-1.014.7-1.013,1.408a.982.982,0,0,0,.111.467,1.149,1.149,0,0,0,.281.351,1.585,1.585,0,0,0,.431.243,3.346,3.346,0,0,0,.512.156,5.2,5.2,0,0,0,.572.084q.321.03.558.039c.158.006.332.009.524.009a4.874,4.874,0,0,0,1.21-.132,1.913,1.913,0,0,0,.791-.386,1.5,1.5,0,0,0,.413-.582,2.1,2.1,0,0,0,.126-.758,1.554,1.554,0,0,0-.416-1.166,2.563,2.563,0,0,0-1.441-.542ZM17.637,31.9q0-.138.018-.318a1.109,1.109,0,0,1,.047-.266.945.945,0,0,1,.093-.177.306.306,0,0,1,.15-.123.656.656,0,0,1,.216-.032.424.424,0,0,1,.458.272,3.82,3.82,0,0,1,.093,1.045,3.342,3.342,0,0,1-.1,1.022.423.423,0,0,1-.444.284.47.47,0,0,1-.284-.08.463.463,0,0,1-.162-.264,2.148,2.148,0,0,1-.069-.4c-.012-.141-.018-.33-.018-.566,0-.176,0-.309,0-.4ZM19.4,37.429a.4.4,0,0,1-.252.342,1.873,1.873,0,0,1-.719.1,2.163,2.163,0,0,1-.872-.123.409.409,0,0,1-.248-.392,1.326,1.326,0,0,1,.282-.7l1.072.132a1.134,1.134,0,0,1,.611.186.407.407,0,0,1,.132.335c0,.04,0,.08-.006.12Z"/><path d="M23.82,29.785a2.488,2.488,0,0,0-1.812.626,2.351,2.351,0,0,0-.644,1.77v2.54a2.368,2.368,0,0,0,.641,1.773,2.479,2.479,0,0,0,1.815.63,2.446,2.446,0,0,0,1.74-.56,2.072,2.072,0,0,0,.621-1.621V34.53H24.323V35c0,.46-.168.689-.5.689a.377.377,0,0,1-.366-.218,1.526,1.526,0,0,1-.107-.65V33.578h2.834v-1.4a2.47,2.47,0,0,0-.591-1.789,2.361,2.361,0,0,0-1.77-.607Zm.5,2.857h-.976v-.587a1.332,1.332,0,0,1,.116-.653.384.384,0,0,1,.351-.191.467.467,0,0,1,.378.164.919.919,0,0,1,.132.56v.707Z"/><path d="M33.558,29.773a2.343,2.343,0,0,0-1.815.839,1.328,1.328,0,0,0-.476-.624,1.274,1.274,0,0,0-.734-.215,2.317,2.317,0,0,0-1.689.706V29.9H26.885V37h1.959V31.413a1.3,1.3,0,0,1,.671-.269.351.351,0,0,1,.32.123.685.685,0,0,1,.105.422V37h1.948V31.4a1.164,1.164,0,0,1,.653-.258.349.349,0,0,1,.317.12.7.7,0,0,1,.1.426V37h1.965V31.485a1.937,1.937,0,0,0-.371-1.258,1.218,1.218,0,0,0-1-.456Z"/><path d="M37.1,28.251,35.319,37h1.5l.359-2.03H38.7L39.05,37h1.482L38.76,28.251Zm.253,5.677.586-3.593.585,3.593Z"/><path d="M45.013,32.688a1.5,1.5,0,0,0,.81-.76,3.183,3.183,0,0,0,.245-1.345,3.025,3.025,0,0,0-.182-1.116,1.6,1.6,0,0,0-.549-.722,2.321,2.321,0,0,0-.863-.38,5.363,5.363,0,0,0-1.186-.114h-2V37h1.594V33h.707L44.628,37h1.6l-1.214-4.31Zm-.746-1a1.385,1.385,0,0,1-1.005.3h-.385V29.349h.48a1.2,1.2,0,0,1,.949.3,1.544,1.544,0,0,1,.258,1.005,1.462,1.462,0,0,1-.3,1.028Z"/><polyline points="11.578 12.7 14.923 12.7 14.923 27.736" fill="none" stroke="#000" stroke-miterlimit="10" stroke-width="1.024"/><path d="M17.388,13.721s1.725-2.852,4.648-2.852a4.062,4.062,0,0,1,3.132,1.339,3.167,3.167,0,0,1,.782,2.5,4.615,4.615,0,0,1-1.449,2.82c-2.043,1.972-6.544,6.4-6.544,6.4H38.163" fill="none" stroke="#000" stroke-miterlimit="10" stroke-width="1.024"/><path d="M36.863,24.121a5.995,5.995,0,1,1,.863-2.588" fill="none" stroke="#000" stroke-miterlimit="10" stroke-width="1.024"/></svg>