<svg id="ba97dec0-2e8d-4772-b2e0-b5d10b0b610e" data-name="stroke 1,6" xmlns="http://www.w3.org/2000/svg" viewBox="0 0 50.46 50.46"><path d="M7.536,22.3l2.111,5.71A28.263,28.263,0,0,1,20.207,32.4c2.065,1.381,3.528,3.553,4.391,4.365C23.155,33.643,18.117,24.39,7.536,22.3Z"/><path d="M7.692,29.346a14.8,14.8,0,0,0-2.049.137L7.4,33.58a19.046,19.046,0,0,1,5.267-.736c4.732,0,9.15,2.671,11.226,3.768C21.017,33.659,14.734,29.346,7.692,29.346Z"/><path d="M24.646,37.546C22.6,36.3,14.556,32.027,5.828,35.567l1.149,2.152h35.34l1.149-2.152a18.714,18.714,0,0,0-7.088-1.374,23.657,23.657,0,0,0-11.732,3.353"/><polyline points="13.479 22.725 22.176 8.649 27.479 16.677 29.492 14.55 35.443 22.846" fill="none" stroke="#000" stroke-miterlimit="10" stroke-width="1.663"/><rect x="4.175" y="39.144" width="42.11" height="2.667"/><path d="M41.618,22.3l-2.11,5.71A28.256,28.256,0,0,0,28.948,32.4c-2.066,1.381-3.528,3.553-4.392,4.365C26,33.643,31.037,24.39,41.618,22.3Z"/><path d="M41.462,29.346a14.82,14.82,0,0,1,2.05.137l-1.756,4.1a19.051,19.051,0,0,0-5.267-.736c-4.733,0-9.151,2.671-11.227,3.768C28.138,33.659,34.42,29.346,41.462,29.346Z"/></svg>