<svg xmlns="http://www.w3.org/2000/svg" viewBox="0 0 50.46 50.46">
  <title>Iconos</title>
  <path d="M25.56,31.08h-0.3c-5.36.12-10.16,1.42-13.06,3.16,2.3,4.47,9.36,6.62,13.22,6.62H25.7c3.78,0,10.61-2.06,13.06-6.34a22.69,22.69,0,0,0-9.52-3.19L28,31.2l-0.27,0c-0.54,0-1.09-.07-1.64-0.08H25.86v0h-0.3Z" fill="#00b5e4"/>
  <path d="M11.85,31.29v1.23a27.77,27.77,0,0,1,13.41-3.07c5.66,0,10.63,1.32,14,3.43V31.63c-3.36-2.06-8.44-3.4-14-3.4A28.37,28.37,0,0,0,11.85,31.29Z" fill="#00b5e4"/>
  <path d="M7.36,23.35A49.27,49.27,0,0,1,11,29.71a29.91,29.91,0,0,1,14.25-3.22c5.86,0,11.06,1.32,14.67,3.46,1.17-1.52,3.53-6.3,3.83-6.59,0.67-.67-1.59-1.41-2.21-4.2s-0.53-3.78-3-4-6.2-.41-9.37-3.2c-2.06-1.82-3-2.24-3.34-2.31H25.73l-0.17,0-0.17,0H25.26c-0.38.07-1.27,0.49-3.34,2.31-3.16,2.79-6.91,3-9.37,3.2s-2.37,1.25-3,4S6.69,22.69,7.36,23.35ZM21.86,17a3,3,0,0,0,3.69-1.82h0A3,3,0,0,0,29.26,17a5.61,5.61,0,0,1-2.15,5.65,3.75,3.75,0,0,0-1.55,1.65A3.75,3.75,0,0,0,24,22.68,5.61,5.61,0,0,1,21.86,17Z" fill="#00b5e4"/>
</svg>
