<?xml version="1.0" encoding="utf-8"?>
<!-- Generator: Adobe Illustrator 18.0.0, SVG Export Plug-In . SVG Version: 6.00 Build 0)  -->
<!DOCTYPE svg PUBLIC "-//W3C//DTD SVG 1.1//EN" "http://www.w3.org/Graphics/SVG/1.1/DTD/svg11.dtd">
<svg version="1.1" id="Layer_1" xmlns="http://www.w3.org/2000/svg" xmlns:xlink="http://www.w3.org/1999/xlink" x="0px" y="0px"
	 viewBox="0 0 50.5 50.5" style="enable-background:new 0 0 50.5 50.5;" xml:space="preserve">
<style type="text/css">
	.st0{fill:#65B4E1;}
</style>
<path class="st0" d="M25.6,31.1c-0.1,0-0.2,0-0.3,0v0v0c-5.4,0.1-10.2,1.4-13.1,3.2c2.3,4.5,9.4,6.6,13.2,6.6c0,0,0.1,0,0.1,0
	c0,0,0.1,0,0.1,0c3.8,0,10.6-2.1,13.1-6.3c-2.3-1.6-5.7-2.7-9.5-3.2c-0.4,0-0.8-0.1-1.2-0.1c-0.1,0-0.2,0-0.3,0
	c-0.5,0-1.1-0.1-1.6-0.1c-0.1,0-0.1,0-0.2,0v0C25.8,31.1,25.7,31.1,25.6,31.1z"/>
<path class="st0" d="M11.9,31.3v1.2c3.4-1.9,8.1-3.1,13.4-3.1c5.7,0,10.6,1.3,14,3.4v-1.2c-3.4-2.1-8.4-3.4-14-3.4
	C20,28.2,15.2,29.4,11.9,31.3z"/>
<path class="st0" d="M7.4,23.4c0.3,0.3,1.4,2.1,3.6,6.4c3.6-2,8.6-3.2,14.3-3.2c5.9,0,11.1,1.3,14.7,3.5c1.2-1.5,3.5-6.3,3.8-6.6
	c0.7-0.7-1.6-1.4-2.2-4.2c-0.6-2.8-0.5-3.8-3-4c-2.5-0.2-6.2-0.4-9.4-3.2c-2.1-1.8-3-2.2-3.3-2.3v0c0,0-0.1,0-0.1,0c0,0,0,0,0,0
	c0,0,0,0,0,0c0,0,0,0,0,0c-0.1,0-0.1,0-0.2,0c0,0-0.1,0-0.2,0c0,0,0,0,0,0c0,0,0,0,0,0c0,0,0,0,0,0c0,0-0.1,0-0.1,0v0
	c-0.4,0.1-1.3,0.5-3.3,2.3c-3.2,2.8-6.9,3-9.4,3.2c-2.5,0.3-2.4,1.2-3,4C9,21.9,6.7,22.7,7.4,23.4z M21.9,17
	c2.8,0.7,3.7-1.8,3.7-1.8h0c0,0,0.9,2.5,3.7,1.8c0,0,0.9,3.1-2.2,5.6c0,0-1.1,0.6-1.5,1.7c-0.4-1.1-1.5-1.7-1.5-1.7
	C21,20.2,21.9,17,21.9,17z"/>
</svg>
