<?xml version="1.0" encoding="utf-8"?>
<!-- Generator: Adobe Illustrator 25.4.1, SVG Export Plug-In . SVG Version: 6.00 Build 0)  -->
<svg version="1.1" id="Capa_3" xmlns="http://www.w3.org/2000/svg" xmlns:xlink="http://www.w3.org/1999/xlink" x="0px" y="0px"
	 viewBox="0 0 50.46 50.46" enable-background="new 0 0 50.46 50.46" xml:space="preserve">
<g>
	<path d="M17.57,34.511c-0.407,0-0.808,0.001-1.209,0c-0.369-0.001-0.692-0.324-0.704-0.703c-0.012-0.363,0.341-0.75,0.7-0.751
		c0.962-0.004,1.924-0.007,2.887,0.003c0.193,0.002,0.271-0.031,0.284-0.248c0.1-1.636,0.216-3.271,0.325-4.907
		c0.103-1.552,0.2-3.105,0.311-4.656c0.016-0.229-0.038-0.308-0.274-0.289c-0.274,0.022-0.552,0.009-0.828,0.004
		c-0.418-0.007-0.783-0.357-0.794-0.754c-0.011-0.375,0.343-0.75,0.75-0.77c0.342-0.016,0.686-0.013,1.029-0.004
		c0.165,0.005,0.239-0.041,0.252-0.217c0.08-1.084,0.166-2.168,0.257-3.251c0.013-0.156-0.048-0.18-0.181-0.177
		c-0.293,0.008-0.586,0.004-0.878,0.002c-0.412-0.003-0.732-0.223-0.845-0.58c-0.101-0.317,0.052-0.687,0.395-0.925
		c1.099-0.763,2.2-1.523,3.3-2.284c0.619-0.428,1.237-0.857,1.856-1.285c0.025-0.017,0.046-0.04,0.108-0.096
		c-0.406,0-0.762,0.001-1.117,0c-0.41-0.001-0.673-0.269-0.673-0.681c0-0.644,0.018-1.289-0.006-1.932
		c-0.019-0.516,0.315-0.735,0.727-0.744c0.962-0.02,1.924-0.012,2.886-0.004c0.462,0.004,0.71,0.27,0.71,0.727
		c0,0.669,0.001,1.339,0,2.008c0,0.343-0.278,0.622-0.627,0.626c-0.389,0.004-0.778,0.001-1.2,0.001
		c1.761,1.24,3.488,2.455,5.214,3.672c0.386,0.272,0.498,0.569,0.369,0.965c-0.107,0.328-0.429,0.531-0.852,0.534
		c-0.293,0.002-0.586,0.006-0.878-0.002c-0.133-0.004-0.172,0.038-0.161,0.171c0.09,1.092,0.176,2.184,0.258,3.276
		c0.011,0.148,0.07,0.201,0.219,0.197c0.326-0.009,0.653-0.007,0.979-0.001c0.456,0.009,0.831,0.363,0.83,0.772
		c-0.001,0.404-0.39,0.754-0.843,0.758c-0.284,0.002-0.569,0.009-0.853-0.003c-0.167-0.007-0.213,0.044-0.2,0.211
		c0.065,0.842,0.117,1.685,0.177,2.528c0.11,1.568,0.223,3.137,0.333,4.705c0.057,0.801,0.118,1.601,0.163,2.403
		c0.012,0.208,0.087,0.254,0.287,0.252c0.945-0.011,1.891-0.006,2.836-0.005c0.354,0,0.668,0.336,0.661,0.704
		c-0.006,0.348-0.332,0.698-0.657,0.7c-0.402,0.003-0.803,0.005-1.205-0.001c-0.167-0.003-0.249-0.009-0.19,0.223
		c0.104,0.412,0.148,0.839,0.211,1.26c0.011,0.071,0.013,0.131,0.093,0.155c0.7,0.207,1.27,0.663,1.903,0.996
		c1.286,0.675,2.541,0.561,3.745-0.234c0.66-0.436,1.35-0.792,2.152-0.903c1.291-0.177,2.494,0.016,3.597,0.744
		c0.424,0.28,0.853,0.561,1.352,0.7c0.309,0.085,0.625,0.109,0.943,0.117c0.465,0.011,0.787,0.325,0.787,0.764
		c0,0.437-0.323,0.744-0.793,0.758c-1.069,0.031-2.026-0.302-2.888-0.911c-0.841-0.594-1.759-0.817-2.777-0.663
		c-0.562,0.085-1.044,0.346-1.501,0.657c-1.484,1.01-3.072,1.182-4.754,0.606c-0.487-0.167-0.901-0.473-1.335-0.738
		c-1.385-0.845-2.74-0.762-4.065,0.139c-1.476,1.003-3.057,1.172-4.731,0.603c-0.495-0.168-0.916-0.48-1.358-0.748
		c-1.378-0.836-2.724-0.75-4.044,0.138c-1.615,1.086-3.32,1.226-5.095,0.451c-0.365-0.159-0.693-0.401-1.037-0.607
		c-1.355-0.81-2.686-0.736-3.98,0.133c-0.89,0.598-1.845,0.967-2.932,0.94c-0.485-0.012-0.805-0.316-0.804-0.771
		c0.002-0.438,0.321-0.751,0.796-0.75c0.765,0.003,1.443-0.247,2.06-0.681c1.264-0.888,2.655-1.126,4.154-0.823
		c0.738,0.149,1.354,0.553,1.981,0.937c1.306,0.8,2.605,0.762,3.9-0.035c0.23-0.142,0.174-0.383,0.212-0.576
		C17.401,35.744,17.475,35.14,17.57,34.511z M24.605,33.055c1.112,0,2.224-0.005,3.336,0.005c0.202,0.002,0.273-0.036,0.257-0.256
		c-0.084-1.167-0.145-2.336-0.229-3.503c-0.016-0.229,0.075-0.545-0.093-0.664c-0.157-0.112-0.45-0.04-0.683-0.04
		c-1.873-0.001-3.746-0.001-5.618,0c-0.115,0-0.251-0.049-0.263,0.162c-0.079,1.36-0.165,2.719-0.258,4.079
		c-0.012,0.181,0.041,0.223,0.215,0.222C22.381,33.051,23.493,33.055,24.605,33.055z M24.702,17.793
		c-0.803,0-1.606,0.005-2.409-0.004c-0.167-0.002-0.212,0.055-0.223,0.211c-0.077,1.051-0.156,2.102-0.252,3.151
		c-0.022,0.245,0.059,0.29,0.281,0.286c0.953-0.018,1.906-0.04,2.859-0.023c0.744,0.013,1.488,0.008,2.232,0.022
		c0.186,0.004,0.265-0.033,0.252-0.245c-0.065-1.06-0.118-2.121-0.167-3.182c-0.008-0.172-0.066-0.222-0.238-0.22
		C26.258,17.798,25.48,17.793,24.702,17.793z M27.275,16.342c-0.033-0.042-0.043-0.064-0.061-0.077
		c-0.839-0.609-1.68-1.216-2.516-1.83c-0.122-0.09-0.194-0.03-0.284,0.035c-0.772,0.56-1.544,1.118-2.316,1.678
		c-0.071,0.051-0.138,0.108-0.247,0.194C23.688,16.342,25.469,16.342,27.275,16.342z M26.438,27.337
		c-0.61-0.423-1.16-0.801-1.705-1.187c-0.094-0.067-0.134-0.002-0.19,0.036c-0.536,0.373-1.07,0.747-1.649,1.151
		C24.084,27.337,25.222,27.337,26.438,27.337z M21.65,23.863c-0.059,0.916-0.113,1.758-0.171,2.668
		c0.554-0.592,1.191-0.951,1.765-1.398C22.743,24.73,22.132,24.447,21.65,23.863z M27.74,26.346
		c0.036-0.055,0.011-0.121,0.007-0.185c-0.034-0.568-0.07-1.135-0.108-1.703c-0.008-0.123,0.046-0.307-0.051-0.353
		c-0.125-0.059-0.208,0.119-0.311,0.194c-0.142,0.103-0.291,0.196-0.435,0.295c-0.251,0.174-0.501,0.349-0.766,0.533
		C26.651,25.549,27.195,25.947,27.74,26.346z M23.019,22.974c0.472,0.288,0.901,0.549,1.301,0.858
		c0.351,0.271,0.433,0.261,0.741-0.029c0.249-0.235,0.549-0.385,0.829-0.57c0.121-0.08,0.267-0.129,0.375-0.258
		C25.184,22.974,24.128,22.974,23.019,22.974z"/>
	<path d="M25.213,43.051c-1.075,0.039-2.033-0.293-2.895-0.904c-0.938-0.664-1.956-0.864-3.07-0.606
		c-0.456,0.106-0.848,0.349-1.23,0.604c-1.613,1.073-3.311,1.206-5.078,0.445c-0.365-0.157-0.694-0.4-1.038-0.606
		c-1.364-0.817-2.702-0.741-4.001,0.14c-0.883,0.599-1.839,0.943-2.913,0.929C4.501,43.046,4.18,42.74,4.18,42.287
		c0-0.44,0.319-0.756,0.793-0.753c0.775,0.004,1.459-0.253,2.082-0.692c1.05-0.739,2.213-1.027,3.488-0.912
		c0.775,0.07,1.482,0.319,2.136,0.731c0.248,0.156,0.487,0.328,0.747,0.459c1.217,0.612,2.415,0.577,3.576-0.151
		c0.653-0.41,1.302-0.818,2.079-0.958c1.362-0.244,2.643-0.076,3.821,0.697c0.495,0.325,0.991,0.656,1.596,0.757
		c0.913,0.153,1.782,0.059,2.58-0.451c0.394-0.252,0.776-0.53,1.213-0.703c1.646-0.651,3.233-0.557,4.748,0.395
		c0.501,0.315,0.991,0.655,1.596,0.757c0.914,0.154,1.782,0.062,2.58-0.446c0.38-0.242,0.747-0.513,1.166-0.684
		c1.657-0.675,3.26-0.59,4.795,0.37c0.304,0.19,0.604,0.389,0.929,0.544c0.425,0.203,0.875,0.272,1.339,0.282
		c0.507,0.011,0.832,0.313,0.828,0.773c-0.004,0.444-0.333,0.74-0.825,0.751c-1.05,0.023-1.994-0.302-2.84-0.903
		c-0.937-0.665-1.954-0.869-3.069-0.611c-0.457,0.106-0.848,0.346-1.231,0.601c-1.618,1.08-3.324,1.224-5.096,0.441
		c-0.432-0.191-0.807-0.507-1.23-0.724c-1.31-0.675-2.579-0.567-3.785,0.264C27.293,42.743,26.31,43.084,25.213,43.051z"/>
	<path d="M14.541,17.895c-0.441-0.009-0.757-0.244-0.864-0.588c-0.096-0.31,0.051-0.678,0.381-0.908
		c0.892-0.622,1.787-1.238,2.681-1.857c0.513-0.355,1.01-0.738,1.543-1.059c0.362-0.218,0.747-0.153,1.06,0.181
		c0.261,0.28,0.274,0.756,0.008,1.032c-0.157,0.163-0.364,0.279-0.552,0.411c-0.604,0.423-1.219,0.833-1.813,1.269
		c-0.615,0.451-1.225,0.908-1.871,1.313C14.916,17.815,14.7,17.875,14.541,17.895z"/>
	<path d="M18.393,12.925c-0.196,0.013-0.409-0.095-0.586-0.229c-1.026-0.775-2.11-1.467-3.157-2.212
		c-0.272-0.194-0.551-0.378-0.823-0.571c-0.426-0.301-0.546-0.752-0.304-1.125c0.262-0.403,0.742-0.487,1.201-0.238
		c1.138,0.618,2.091,1.498,3.153,2.223c0.405,0.276,0.8,0.567,1.196,0.855c0.224,0.163,0.282,0.595,0.113,0.872
		C19.018,12.777,18.77,12.925,18.393,12.925z"/>
	<path d="M30.005,12.977c-0.35-0.011-0.6-0.168-0.761-0.462c-0.139-0.252-0.11-0.503,0.05-0.732
		c0.115-0.164,0.305-0.246,0.462-0.362c0.649-0.484,1.32-0.94,1.962-1.433c0.651-0.5,1.3-0.996,2.022-1.393
		c0.438-0.241,0.92-0.156,1.181,0.236c0.247,0.372,0.135,0.831-0.291,1.127c-1.11,0.773-2.224,1.54-3.336,2.309
		c-0.279,0.193-0.561,0.382-0.837,0.58C30.316,12.949,30.157,12.962,30.005,12.977z"/>
	<path d="M34.457,17.943c-0.355,0.016-0.621-0.203-0.885-0.38c-1.282-0.855-2.49-1.814-3.734-2.722
		c-0.103-0.075-0.234-0.107-0.308-0.237c-0.163-0.289-0.16-0.575,0.04-0.842c0.198-0.265,0.559-0.397,0.866-0.321
		c0.262,0.065,0.46,0.234,0.673,0.385c0.482,0.344,0.973,0.677,1.461,1.014c0.769,0.532,1.54,1.061,2.306,1.598
		c0.574,0.403,0.565,1.085-0.011,1.409C34.738,17.918,34.602,17.95,34.457,17.943z"/>
</g>
</svg>
