<?xml version="1.0" encoding="utf-8"?>
<!-- Generator: Adobe Illustrator 24.0.1, SVG Export Plug-In . SVG Version: 6.00 Build 0)  -->
<svg version="1.1" id="Layer_1" xmlns="http://www.w3.org/2000/svg" xmlns:xlink="http://www.w3.org/1999/xlink" x="0px" y="0px"
	 viewBox="0 0 50.5 50.5" style="enable-background:new 0 0 50.5 50.5;" xml:space="preserve">
<g>
	<path d="M14.785,25.038l-0.006,0.187c-0.033,1.047,0.789,1.923,1.835,1.956l2.583,0.081c0.168,0.005,0.768-0.032,0.921-0.888
		l1.359-11.161l0.028-0.882c0.013-0.397-0.057-0.776-0.179-1.131c-0.796,0.887-1.938,1.456-3.223,1.459
		c-1.115,0.003-2.123-0.426-2.896-1.114c-0.042,0.189-0.071,0.383-0.078,0.584l-0.096,3.031c-0.991,0.514-1.689,1.522-1.726,2.718
		l-0.075,2.339C13.196,23.411,13.829,24.461,14.785,25.038z"/>
	<path d="M40.918,24.136c0.037-3.053-2.417-5.566-5.469-5.602c-0.003,0-0.007,0-0.01,0c-0.438,0-0.794,0.352-0.8,0.79l-0.024,2.009
		l-2.312-1.05l-2.781-4.396c-0.16-0.253-0.377-0.46-0.621-0.597l-2.566-0.903c-0.944-0.326-1.92-0.103-2.699,0.484
		c0,0-1.123,0.542-1.336,2.888c-0.213,2.346-1.154,8.983-1.154,8.983l-1.901,7.16l-0.152,0.311l-1.793,2.248
		c0.039,0.02,0.081,0.027,0.117,0.054l2.733,1.981l2.01-2.522c0.151-0.19,0.261-0.408,0.323-0.642l1.904-7.17l3.184,7.037
		l0.361,2.689l3.471-0.428l-0.4-2.981c-0.023-0.169-0.07-0.333-0.14-0.487l-2.904-6.44l0.885-6.197l0.784,1.239
		c0.182,0.288,0.444,0.516,0.755,0.657l3.823,1.737l-0.899,17.765c-0.029,0.577,0.415,1.069,0.992,1.098
		c0.018,0.001,0.036,0.001,0.054,0.001c0.554,0,1.016-0.434,1.044-0.993l0.673-13.3C38.77,29.221,40.884,26.932,40.918,24.136z
		 M36.229,20.224c0.744,0.163,1.425,0.538,1.97,1.096c0.734,0.752,1.132,1.745,1.12,2.796c-0.023,1.89-1.382,3.456-3.166,3.812
		l0.114-2.243c0.621-0.042,1.203-0.403,1.479-1.01c0.399-0.88,0.011-1.916-0.869-2.315l-0.669-0.304L36.229,20.224z"/>
	<path d="M25.153,9.69c-0.013,0.128-0.039,0.252-0.039,0.383c0,1.483,0.853,2.755,2.087,3.39L27.47,9.69H25.153z"/>
	<path d="M28.178,13.823c0.247,0.05,0.502,0.077,0.763,0.077c2.113,0,3.826-1.713,3.826-3.826c0-0.131-0.026-0.255-0.039-0.383
		h-4.255L28.178,13.823z"/>
	<path d="M16.343,37.662l-2.186,2.741c-0.602,0.755-0.478,1.855,0.277,2.457c0.322,0.256,0.707,0.381,1.089,0.381
		c0.513,0,1.023-0.226,1.368-0.658l2.261-2.836l-2.674-1.938C16.423,37.769,16.386,37.714,16.343,37.662z"/>
	<path d="M28.146,39.473l0.428,3.19c0.119,0.878,0.868,1.515,1.731,1.515c0.078,0,0.156-0.005,0.235-0.015
		c0.956-0.129,1.628-1.008,1.5-1.966l-0.424-3.153c-0.003,0-0.005,0.002-0.007,0.002L28.146,39.473z"/>
	<path d="M7.709,31.521c0.125,0.124,0.287,0.205,0.462,0.228l3.918,0.517l2.945,2.728c0.154,0.143,0.349,0.213,0.543,0.213
		c0.215,0,0.429-0.086,0.587-0.256c0.3-0.324,0.281-0.831-0.043-1.131l-3.132-2.9c-0.122-0.112-0.275-0.185-0.439-0.206L8.65,30.197
		L5.4,26.939c-0.312-0.312-0.818-0.311-1.131-0.001c-0.313,0.312-0.313,0.818-0.001,1.132L7.709,31.521z"/>
	<path d="M44.993,38.376c-0.164-0.175-0.395-0.273-0.635-0.25l-3.042,0.201l-3.014-1.63c-0.388-0.21-0.874-0.066-1.084,0.323
		c-0.21,0.389-0.065,0.874,0.323,1.085l3.217,1.739c0.132,0.07,0.28,0.108,0.433,0.094l2.896-0.191l1.91,2.028
		c0.157,0.168,0.37,0.252,0.583,0.252c0.197,0,0.394-0.072,0.548-0.217c0.322-0.304,0.337-0.81,0.034-1.131L44.993,38.376z"/>
	<path d="M11.9,38.849l-3.735,0.755l-4.071-0.9c-0.43-0.093-0.858,0.177-0.954,0.608c-0.095,0.432,0.177,0.858,0.608,0.954
		l4.236,0.937c0.057,0.013,0.115,0.019,0.173,0.019c0.053,0,0.106-0.005,0.158-0.016l3.9-0.788c0.433-0.088,0.713-0.51,0.626-0.942
		C12.755,39.041,12.329,38.764,11.9,38.849z"/>
	<path d="M26.005,40.837l-2.792,0.848l-2.542-0.932c-0.415-0.152-0.875,0.061-1.026,0.476c-0.152,0.415,0.061,0.875,0.476,1.026
		l2.794,1.023c0.089,0.032,0.182,0.049,0.275,0.049c0.078,0,0.156-0.012,0.232-0.034l3.048-0.925
		c0.423-0.128,0.662-0.575,0.533-0.998C26.874,40.946,26.428,40.709,26.005,40.837z"/>
	<path d="M41.672,41.682c-0.084-0.056-0.177-0.096-0.276-0.117l-3.601-0.777c-0.433-0.089-0.858,0.181-0.951,0.613
		c-0.093,0.432,0.182,0.857,0.613,0.951l3.452,0.745l4.177,2.794c0.137,0.092,0.291,0.135,0.444,0.135
		c0.258,0,0.512-0.124,0.666-0.355c0.246-0.367,0.147-0.863-0.22-1.109L41.672,41.682z"/>
	<path d="M24.546,9.067h8.788c0.108,0,0.199-0.093,0.194-0.2c-0.011-0.266-0.055-0.524-0.11-0.776
		c-0.449-2.066-2.278-3.616-4.479-3.616c-2.2,0-4.03,1.55-4.479,3.616c-0.055,0.253-0.098,0.51-0.11,0.776
		C24.348,8.975,24.439,9.067,24.546,9.067z"/>
	<path d="M21.831,10.29c-0.005-2.064-1.682-3.734-3.746-3.729s-3.734,1.682-3.729,3.746s1.682,3.734,3.746,3.729
		C20.166,14.031,21.836,12.354,21.831,10.29z M18.098,12.145c-1.02,0.002-1.849-0.823-1.851-1.842
		c-0.002-1.02,0.823-1.849,1.842-1.851c1.02-0.002,1.849,0.823,1.851,1.843C19.942,11.314,19.118,12.143,18.098,12.145z"/>
</g>
</svg>
