<?xml version="1.0" encoding="utf-8"?>
<!-- Generator: Adobe Illustrator 18.0.0, SVG Export Plug-In . SVG Version: 6.00 Build 0)  -->
<!DOCTYPE svg PUBLIC "-//W3C//DTD SVG 1.1//EN" "http://www.w3.org/Graphics/SVG/1.1/DTD/svg11.dtd">
<svg version="1.1" id="Layer_1" xmlns="http://www.w3.org/2000/svg" xmlns:xlink="http://www.w3.org/1999/xlink" x="0px" y="0px"
	 viewBox="0 0 50.5 50.5" style="enable-background:new 0 0 50.5 50.5;" xml:space="preserve">
<style type="text/css">
	.st0{fill:#65B4E1;}
</style>
<g>
	<g>
		<path class="st0" d="M41.9,30.6H8.6c-1.1,0-1.9,0.9-1.9,1.9v3.2c0,1.1,0.9,1.9,1.9,1.9h33.3c1.1,0,1.9-0.9,1.9-1.9v-3.2
			C43.8,31.4,42.9,30.6,41.9,30.6z M19.7,35.1H9.6v-1.7h10.2V35.1z M39.5,35.6c-0.8,0-1.4-0.6-1.4-1.4c0-0.8,0.6-1.4,1.4-1.4
			c0.8,0,1.4,0.6,1.4,1.4C40.9,35,40.3,35.6,39.5,35.6z"/>
		<path class="st0" d="M41.9,21.7H8.6c-1.1,0-1.9,0.9-1.9,1.9v3.2c0,1.1,0.9,1.9,1.9,1.9h33.3c1.1,0,1.9-0.9,1.9-1.9v-3.2
			C43.8,22.6,42.9,21.7,41.9,21.7z M19.7,26.3H9.6v-1.7h10.2V26.3z M39.5,26.7c-0.8,0-1.4-0.6-1.4-1.4c0-0.8,0.6-1.4,1.4-1.4
			c0.8,0,1.4,0.6,1.4,1.4C40.9,26.1,40.3,26.7,39.5,26.7z"/>
		<path class="st0" d="M41.9,12.8H8.6c-1.1,0-1.9,0.9-1.9,1.9V18c0,1.1,0.9,1.9,1.9,1.9h33.3c1.1,0,1.9-0.9,1.9-1.9v-3.2
			C43.8,13.7,42.9,12.8,41.9,12.8z M19.7,17.4H9.6v-1.7h10.2V17.4z M39.5,17.9c-0.8,0-1.4-0.6-1.4-1.4c0-0.8,0.6-1.4,1.4-1.4
			c0.8,0,1.4,0.6,1.4,1.4C40.9,17.3,40.3,17.9,39.5,17.9z"/>
	</g>
</g>
</svg>
