<?xml version="1.0" encoding="UTF-8"?>
<svg id="stroke_1_x2C_6" xmlns="http://www.w3.org/2000/svg" viewBox="0 0 50.46 50.46">
  <path d="M41.977,26.481l-.019.048c-4.775,4.964-9.555,9.923-14.319,14.896-.315.329-.751.514-1.207.513-5.723-.017-11.447-.011-17.17-.011-.44,0-.801-.356-.801-.795,0-.924.015-1.848-.006-2.771-.009-.366.128-.719.388-.977,2.191-2.175,4.366-4.366,6.561-6.537.251-.248.335-.493.323-.829-.044-1.262-.725-2.188-1.902-2.509-.279-.076-.58-.097-.872-.099-1.255-.01-2.509-.003-3.764-.005-.547-.001-.729-.182-.729-.719-.001-1.026-.017-2.052.013-3.077.007-.235.105-.459.271-.625,4.839-4.859,9.69-9.705,14.54-14.553l.035-.015h17.85c.446,0,.807.361.807.807v3.316c-.007.017-.013.031-.02.048-2.414,2.415-4.824,4.833-7.249,7.238-.286.284-.245.542-.058,1,.367.902,1.228,1.503,2.202,1.526,1.44.033,2.881.018,4.322.008.549-.015.802.112.802.39s0,3.731,0,3.731ZM40.031,9.533h-.279c-5.237,0-10.474-.002-15.711.008-.15,0-.337.088-.445.196-4.326,4.313-8.646,8.634-12.965,12.954-.063.063-.116.137-.208.248.138,0,.212,0,.286,0,5.226,0,10.452.002,15.678-.01.167,0,.371-.11.495-.233,4.304-4.29,8.6-8.587,12.897-12.884.073-.073.139-.153.254-.279ZM33.491,20.993c-.121.148-.19.248-.274.332-1.903,1.906-3.812,3.806-5.708,5.718-.258.26-.528.369-.893.369-1.416,0-2.834-.007-4.249.053-1.074.046-2.048,1.064-2.125,2.137-.039.542-.049,1.088-.046,1.632.007,1.351,0,2.703.053,4.052.042,1.057,1.09,2.085,2.141,2.121,1.252.043,2.507.017,3.759.053.375.011.617-.117.87-.381,4.266-4.458,8.543-8.907,12.817-13.358.048-.05.086-.11.183-.235-1.052,0-2.03-.007-3.008.003-.657.007-1.269-.142-1.841-.464-.792-.447-1.325-1.114-1.678-2.032ZM9.587,40.787h16.729v-2.2c-.134,0-.252,0-.369,0-1.08,0-2.16.008-3.24-.002-2.027-.018-3.626-1.617-3.637-3.641-.009-1.68-.01-3.359,0-5.039.013-2.007,1.618-3.606,3.622-3.618,1.091-.006,2.182-.001,3.272-.001.116,0,.231,0,.344,0v-2.208H9.6v2.208c1.2,0,2.376-.003,3.553,0,2.094.006,3.683,1.593,3.686,3.68.002,1.625.001,3.25,0,4.875-.001,2.155-1.575,3.737-3.726,3.744-1.058.004-2.116,0-3.174,0-.115,0-.229,0-.352,0v2.2ZM40.861,24.317c-.119.108-.185.161-.243.222-4.335,4.514-8.67,9.029-13.004,13.544-.059.062-.146.137-.148.208-.013.525-.007,1.051-.007,1.627.088-.072.124-.097.153-.127,4.374-4.538,8.747-9.075,13.117-13.617.068-.07.124-.184.126-.279.012-.5.006-1.001.006-1.578ZM27.454,25.457c.1-.084.144-.116.182-.154,4.357-4.356,8.714-8.712,13.07-13.069.06-.06.143-.136.144-.207.012-.537.007-1.074.007-1.646-.075.051-.105.065-.127.088-4.381,4.379-8.761,8.757-13.139,13.139-.064.064-.129.162-.131.246-.012.509-.006,1.019-.006,1.603ZM10.524,37.424c.931,0,1.897.014,2.862-.004,1.065-.02,2.016-.847,2.237-1.871.084-.389.088-.799.096-1.2.014-.714.004-1.428.004-2.132-1.744,1.746-3.473,3.477-5.2,5.206Z"/>
</svg>