<svg id="Layer_1" data-name="Layer 1" xmlns="http://www.w3.org/2000/svg" viewBox="0 0 50.46 50.46"><defs><style>.cls-1,.cls-3,.cls-4,.cls-5{fill:none;stroke:#12b5e1;}.cls-1,.cls-4,.cls-5{stroke-linecap:round;stroke-linejoin:round;}.cls-1{stroke-width:1.8px;}.cls-2{fill:#12b5e1;}.cls-3{stroke-miterlimit:10;}.cls-3,.cls-4{stroke-width:1.2px;}</style></defs><title>silla seguridad auto</title><rect class="cls-1" x="22.43" y="27.9" width="5.61" height="4.47" rx="0.45" ry="0.45"/><path class="cls-2" d="M24.64,30.53h1.18a.81.81,0,0,1,.81.81V39.2a.23.23,0,0,1-.23.23H24.05a.23.23,0,0,1-.23-.23V31.35a.81.81,0,0,1,.81-.81Z"/><path class="cls-3" d="M20.9,13.39c.39,0,.71-.18.71-.41v-.41c0-.23-.32-.42-.71-.42H16.1c-.39,0-.71.19-.71.42V13c0,.23.32.41.71.41h.54"/><path class="cls-3" d="M29.56,13.39c-.39,0-.71-.18-.71-.41v-.41c0-.23.32-.42.71-.42h4.8c.39,0,.71.19.71.42V13c0,.23-.32.41-.71.41h-.54"/><path class="cls-4" d="M22.61,24.84H19.1a.64.64,0,0,1-.62-.56L16.17,12.71a.51.51,0,0,1,.51-.56h3.51a.64.64,0,0,1,.62.56l2.3,11.57A.49.49,0,0,1,22.61,24.84Z"/><path class="cls-2" d="M21.76,29.21c-.18,0-.36-.08-.58-.6l-1.82-4.22c-.07-.17,0-.32.33-.32h1.94a.51.51,0,0,1,.57.4l1.85,4a.49.49,0,0,1-.44.71Z"/><path class="cls-4" d="M27.84,24.84h3.52a.63.63,0,0,0,.61-.56l2.31-11.57a.5.5,0,0,0-.5-.56H30.26a.64.64,0,0,0-.61.56L27.34,24.28A.49.49,0,0,0,27.84,24.84Z"/><path class="cls-2" d="M28.69,29.21c.19,0,.36-.08.58-.6l1.83-4.22c.07-.17,0-.32-.34-.32H28.82a.52.52,0,0,0-.57.4l-1.88,4a.49.49,0,0,0,.45.71Z"/><path class="cls-1" d="M9.71,39.88l2.48,1.47a21.17,21.17,0,0,0,10.81,3h4.3"/><path class="cls-1" d="M27.3,2.28H18.06A8.42,8.42,0,0,0,9.86,8.8a8.82,8.82,0,0,0,.56,5.06c2.32,6.19,6.48,11.56,0,13.15"/><path class="cls-1" d="M15.79,35,14.2,31.35c-1.69-3.87-4.49-5.13-6.78-3.87C3.52,29.61,5,34.08,7.34,37l2.37,2.91"/><path class="cls-1" d="M27.3,35H15.79a6.14,6.14,0,0,0-5.57,3.55l-.37,1"/><path class="cls-1" d="M21.62,44.32l1.16,3.86H13.61a2.93,2.93,0,0,1-2.93-2.94l-1-5.36"/><path class="cls-1" d="M40.75,39.88l-2.48,1.47a21.17,21.17,0,0,1-10.81,3h-4.3"/><path class="cls-1" d="M23.16,2.28H32.4A8.42,8.42,0,0,1,40.6,8.8,8.82,8.82,0,0,1,40,13.86c-2.32,6.19-6.48,11.56,0,13.15"/><path class="cls-1" d="M34.67,35l1.59-3.63C38,27.48,40.75,26.22,43,27.48c3.9,2.13,2.44,6.6.08,9.49l-2.37,2.91"/><path class="cls-1" d="M23.16,35H34.67a6.14,6.14,0,0,1,5.57,3.55l.37,1"/><path class="cls-1" d="M28.84,44.32l-1.16,3.86h9.17a2.93,2.93,0,0,0,2.93-2.94l1-5.36"/><line class="cls-5" x1="22.1" y1="47.02" x2="28.36" y2="47.02"/></svg>