<svg id="Layer_1" data-name="Layer 1" xmlns="http://www.w3.org/2000/svg" viewBox="0 0 50.46 50.46"><defs><style>.cls-1{fill:#12b5e1;}</style></defs><title>silla seguridad auto</title><path class="cls-1" d="M46.25,30.3a5.24,5.24,0,0,0-2.77-3.61,4.48,4.48,0,0,0-3-.48l-.16-.08a3.63,3.63,0,0,1-2.58-1.56c-.71-1.44.46-4.05,1.68-6.81.52-1.15,1.05-2.34,1.51-3.59a9.52,9.52,0,0,0,.6-5.57A9.28,9.28,0,0,0,32.4,1.38H18.06A9.28,9.28,0,0,0,9,8.6a9.52,9.52,0,0,0,.6,5.57c.46,1.25,1,2.44,1.51,3.59,1.22,2.76,2.39,5.37,1.68,6.81a3.63,3.63,0,0,1-2.58,1.56.8.8,0,0,0-.16.08,4.48,4.48,0,0,0-3,.48A5.24,5.24,0,0,0,4.21,30.3c-.42,2.15.49,4.86,2.43,7.24l2.22,2.73.92,5.06a3.83,3.83,0,0,0,3.83,3.75h9.17a.9.9,0,0,0,.72-.36.91.91,0,0,0,.14-.8l-.12-.4h3.42l-.12.4a.91.91,0,0,0,.14.8.9.9,0,0,0,.72.36h9.17a3.83,3.83,0,0,0,3.83-3.75l.92-5.06,2.22-2.73C45.76,35.16,46.67,32.45,46.25,30.3ZM14.38,25.36c1.08-2.2-.18-5-1.65-8.33-.5-1.13-1-2.3-1.47-3.49A7.87,7.87,0,0,1,10.74,9a7.48,7.48,0,0,1,7.32-5.83H32.4A7.48,7.48,0,0,1,39.72,9a7.79,7.79,0,0,1-.52,4.53c-.45,1.19-1,2.36-1.47,3.49-1.47,3.29-2.73,6.13-1.65,8.33a4.21,4.21,0,0,0,2.06,1.92A9.43,9.43,0,0,0,35.44,31l-1.36,3.09H26.63v-.81h.95a1.35,1.35,0,0,0,1.35-1.36V29.12a1.07,1.07,0,0,0,.34-.51l1.37-3.17h.72a1.2,1.2,0,0,0,1.2-1L34.64,14c.6-.1,1-.47,1-1v-.41c0-.58-.56-1-1.31-1h-4.8c-.74,0-1.31.44-1.31,1V13a1,1,0,0,0,.57.82L26.74,24.22a1.11,1.11,0,0,0,.28.86,1.1,1.1,0,0,0,.79.35L27.07,27h-3.7l-.73-1.57a1.12,1.12,0,0,0,.8-.35,1.16,1.16,0,0,0,.26-.91L21.63,13.8a.93.93,0,0,0,.58-.82v-.41c0-.58-.57-1-1.31-1H16.1c-.75,0-1.31.44-1.31,1V13c0,.5.43.87,1,1l2.07,10.39a1.24,1.24,0,0,0,1.22,1.1h.71l1.37,3.17a1.26,1.26,0,0,0,.35.52v2.78a1.35,1.35,0,0,0,1.35,1.36h.95v.81H16.38L15,31a9.43,9.43,0,0,0-2.7-3.71A4.21,4.21,0,0,0,14.38,25.36Zm13.08,18H23a20.36,20.36,0,0,1-10.35-2.83L10.83,39.5l.21-.59a5.26,5.26,0,0,1,4.75-3h8V39.2a.22.22,0,0,0,.22.22h2.36a.22.22,0,0,0,.22-.22V35.88h8a5.24,5.24,0,0,1,4.72,2.95l.24.67-1.82,1.08A20.36,20.36,0,0,1,27.46,43.41ZM25.82,30.53H24.64a.82.82,0,0,0-.81.82v.11h-.5V29.19h.28a.47.47,0,0,0,.46-.38h2.27a.49.49,0,0,0,.48.41h.31v2.25h-.5v-.11A.82.82,0,0,0,25.82,30.53Zm-4.19-6.46H19.69a.42.42,0,0,0-.31.1h-.31L16.8,12.76l3.42.07,2.27,11.41h-.43A.48.48,0,0,0,21.63,24.07Zm8.63-11.32h3.4l-2.3,11.49h-.25c0-.1-.14-.17-.35-.17H28.82a.49.49,0,0,0-.44.17H28ZM6,30.65a3.41,3.41,0,0,1,1.88-2.38,2.7,2.7,0,0,1,2.25-.21,6.28,6.28,0,0,1,3.27,3.65l1.11,2.51a7.1,7.1,0,0,0-5,3.9L8,36.4C6.79,34.88,5.6,32.57,6,30.65Zm7.64,16.63a2,2,0,0,1-2-2,1,1,0,0,0,0-.16l-.62-3.42.79.47a22.07,22.07,0,0,0,9.19,3l.65,2.18Zm9.61-.76-.39-1.31h4.8l-.39,1.31Zm15.66-1.28a2,2,0,0,1-2,2h-8l.65-2.18a22.07,22.07,0,0,0,9.19-3l.79-.47-.62,3.42A1,1,0,0,0,38.88,45.24ZM41,38.11A7.08,7.08,0,0,0,36,34.22l1.11-2.51a6.28,6.28,0,0,1,3.27-3.65,2.7,2.7,0,0,1,2.25.21,3.41,3.41,0,0,1,1.88,2.38c.37,1.92-.82,4.23-2.06,5.75Z"/></svg>