<?xml version="1.0" encoding="utf-8"?>
<!-- Generator: Adobe Illustrator 25.4.1, SVG Export Plug-In . SVG Version: 6.00 Build 0)  -->
<svg version="1.1" id="stroke_1_x2C_6" xmlns="http://www.w3.org/2000/svg" xmlns:xlink="http://www.w3.org/1999/xlink" x="0px"
	 y="0px" viewBox="0 0 50.5 50.5" style="enable-background:new 0 0 50.5 50.5;" xml:space="preserve">
<g>
	<polygon points="14.5,46.4 36.2,46.4 25.1,41.3 	"/>
	<path d="M39.5,35.5c0.3,0,0.5-0.2,0.5-0.5s-0.2-0.5-0.5-0.5h-3v-0.7c0-0.4-0.3-0.6-0.6-0.6h-0.6c3.9-3,6.3-7.6,6.3-12.9
		c0-9-7.3-16.3-16.3-16.3C16.3,4.1,9,11.3,9,20.3c0,5.2,2.5,9.9,6.3,12.9h-0.2c0,0,0,0,0,0h-0.5c-0.4,0-0.6,0.3-0.6,0.6v0.7h-3.1
		c-0.3,0-0.5,0.2-0.5,0.5s0.2,0.5,0.5,0.5h0.1V39h-0.1c-0.3,0-0.5,0.2-0.5,0.5s0.2,0.5,0.5,0.5h0.5L11,45.7c0,0.3,0.2,0.5,0.5,0.5
		c0,0,0,0,0,0c0.3,0,0.5-0.2,0.5-0.5l0.5-5.7h1.2l-0.3,5.8l11.6-5.7l12.4,5.7L37.1,40h1l0.5,5.7c0,0.3,0.2,0.5,0.5,0.5c0,0,0,0,0,0
		c0.3,0,0.5-0.3,0.5-0.5L39.1,40h0.3c0.3,0,0.5-0.2,0.5-0.5S39.7,39,39.4,39h-0.1v-3.5H39.5z M13.8,39h-1.6c0,0-0.1,0-0.1,0v-3.5
		h1.7V39z M17.7,33.2l-0.1-3.4l4.9-6.6l4,6.8l-1.9,3.2H24l0,0H17.7z M22.7,22l-2.4-3.8l2.2-4.4l5.4,0.3l1.3,6.2L22.7,22z M29.9,21.3
		l4.2,2.5l-1.2,4.7l-5.3,0.8l-3.8-6.5L29.9,21.3z M19.4,17.6l-3.9-0.8l-1.2-4.5l5.1-2l2.1,3.1L19.4,17.6z M19.4,18.8l2.3,3.7
		L17,28.7L13.3,25l-1.8-4.6l3.9-2.4L19.4,18.8z M27.6,30.6l5.5-0.8l0.3,1.7l0.2,1.4c-0.2,0.1-0.3,0.2-0.5,0.3H26L27.6,30.6z
		 M34.4,32.3l-0.2-1.1h0l-0.4-2.1l1.3-5.1l2.6-4.4l2.4,3.1C39.6,26.5,37.4,30,34.4,32.3z M40.4,20.3c0,0.1,0,0.2,0,0.4l-2-2.6
		L37,10.8C39.1,13.4,40.4,16.7,40.4,20.3z M37.2,18.3l-2.7,4.5l-4.1-2.5l-1.4-6.7l2.5-3.5l4.2,0.7L37.2,18.3z M25.3,5.3
		c4.2,0,8,1.7,10.7,4.5L31.4,9l-6.5-3.7C25,5.3,25.2,5.3,25.3,5.3z M30.4,9.8L28.2,13l-5.8-0.3l-2-3l4.2-3.2L30.4,9.8z M24.3,5.3
		L19.4,9l-6.2,2.4c-0.1,0.1-0.1,0.1-0.2,0.2l1.4,5.5l-4.2,2.5C10.6,12,16.6,5.8,24.3,5.3z M10.2,20.3l1.9,4.8l-0.9,0.5
		C10.6,23.9,10.2,22.2,10.2,20.3z M11.6,26.7l1.2-0.6l3.7,3.8l0.1,2.7C14.4,31,12.7,29,11.6,26.7z M16.5,39h-1.7v-3.5h1.7V39z
		 M19.2,39h-1.7v-3.5h1.7V39z M22,36.3V39h-1.7v-3.2v-0.3H22V36.3z M24.7,36.6V39H23v-2.6v-0.9h1.7V36.6z M27.4,36.4V39h-1.7v-2.5
		v-1h1.7V36.4z M30.2,35.8V39h-1.7v-2.8v-0.7h1.7V35.8z M32.9,39h-1.7v-3.5h1.7V39z M35.6,39h-1.7v-3.5h1.7V39z M38.3,39h-1.7v-3.5
		h1.7V39z"/>
	<path d="M8.9,19.4C8.9,19.4,8.9,19.4,8.9,19.4L8.9,19.4L8.9,19.4z"/>
</g>
</svg>
