<?xml version="1.0" encoding="utf-8"?>
<!-- Generator: Adobe Illustrator 24.0.1, SVG Export Plug-In . SVG Version: 6.00 Build 0)  -->
<svg version="1.1" id="Layer_1" xmlns="http://www.w3.org/2000/svg" xmlns:xlink="http://www.w3.org/1999/xlink" x="0px" y="0px"
	 viewBox="0 0 50.5 50.5" style="enable-background:new 0 0 50.5 50.5;" xml:space="preserve">
<g>
	<path d="M40.925,36.795c-0.033-0.034-0.066-0.068-0.1-0.1l-8.73-8.61c-1.058,1.644-2.456,3.042-4.1,4.1l8.73,8.61
		c1.105,1.16,2.94,1.205,4.1,0.1C41.985,39.79,42.03,37.955,40.925,36.795z"/>
	<path d="M31.975,20.435C31.975,20.435,31.975,20.435,31.975,20.435c0.017-6.407-5.163-11.613-11.57-11.63
		c-6.406-0.017-11.613,5.164-11.63,11.57c-0.016,6.406,5.163,11.613,11.57,11.63C26.751,32.022,31.958,26.841,31.975,20.435z
		 M20.365,29.134c-4.8-0.005-8.69-3.898-8.69-8.7c0-4.805,3.895-8.7,8.7-8.7c4.805,0,8.7,3.895,8.7,8.7
		C29.069,25.242,25.171,29.135,20.365,29.134z"/>
	<path d="M25.25,20.112h-1.588l-1.54-5.171c-0.103-0.348-0.433-0.557-0.792-0.571c-0.363,0.012-0.673,0.266-0.755,0.62l-1.733,7.517
		l-0.546-1.834c-0.101-0.339-0.413-0.571-0.767-0.571c-0.001,0-0.002,0-0.004,0l-2.209,0.01c-0.441,0.002-0.798,0.362-0.796,0.804
		c0.002,0.44,0.359,0.796,0.8,0.796c0.001,0,0.002,0,0.004,0l1.61-0.007l1.24,4.165c0.101,0.34,0.414,0.571,0.767,0.571
		c0.008,0,0.017,0,0.025,0c0.363-0.012,0.673-0.267,0.755-0.62l1.733-7.517l0.826,2.774c0.078,0.365,0.401,0.633,0.783,0.633h2.187
		c0.442,0,0.8-0.358,0.8-0.8S25.692,20.112,25.25,20.112z"/>
</g>
</svg>
