<svg id="fca48bb2-cf8b-4c3f-9c01-dc8ed849f042" data-name="stroke 1,6" xmlns="http://www.w3.org/2000/svg" viewBox="0 0 50.46 50.46"><path d="M18.149,34.886a8.309,8.309,0,0,1-6.7-3.4,8.262,8.262,0,0,1-1.736-6.438c.883-6.121,7.936-11.289,8.236-11.506a1.5,1.5,0,0,1,1.76,2.429c-.063.046-6.33,4.649-7.027,9.51a5.3,5.3,0,0,0,1.141,4.171,5.575,5.575,0,0,0,8.026.974c2.19-1.661,3.641-5.086.524-9.277a1.5,1.5,0,0,1,2.407-1.79c4.12,5.54,2.308,10.859-1.119,13.457A9.229,9.229,0,0,1,18.149,34.886Z"/><path d="M20.117,28.431a.976.976,0,0,1-.372-.072,1,1,0,0,1-.556-1.3,2.778,2.778,0,0,0-.16-2.666,1.008,1.008,0,0,1,.18-1.4.993.993,0,0,1,1.389.157,4.743,4.743,0,0,1,.447,4.651A1,1,0,0,1,20.117,28.431Z"/><path d="M28.366,37.271a1.5,1.5,0,0,1-1.2-2.4c7.874-10.449-.126-17.985-.471-18.3a1.5,1.5,0,0,1,2.015-2.221c3.637,3.288,8.494,12.186.853,22.326A1.5,1.5,0,0,1,28.366,37.271Z"/><path d="M34.146,41.317a1.5,1.5,0,0,1-1.2-2.392c11.177-15.131-.718-26.762-1.23-27.25A1.5,1.5,0,0,1,33.774,9.5c.145.137,14.359,13.911,1.579,31.212A1.5,1.5,0,0,1,34.146,41.317Z"/></svg>