<svg xmlns="http://www.w3.org/2000/svg" viewBox="0 0 50.46 50.46">
  <title>Iconos</title>
  <g>
    <path d="M21.91,7.63a3.23,3.23,0,0,0,.41.93,3.29,3.29,0,0,0,.42.51,3.25,3.25,0,0,0,.46.37l0.15,0.1L23.7,9.73l0.17,0.08a3.25,3.25,0,0,0,.47.14l0.3,0,0.2,0,0.2,0,0.16,0h0A3.1,3.1,0,0,0,25.66,10a3.33,3.33,0,0,0,.45-0.12,3.23,3.23,0,0,0,.75-0.35,3.3,3.3,0,0,0,.51-0.42,3.25,3.25,0,0,0,.83-1.46,3.24,3.24,0,0,0-.83-3.18c-0.07-.07-0.15-0.14-0.23-0.2A3.16,3.16,0,0,0,26.78,4l-0.36-.19a3.41,3.41,0,0,0-.61-0.21,3.27,3.27,0,0,0-4,3.8C21.85,7.46,21.88,7.55,21.91,7.63Z" fill="#00b5e4"/>
    <path d="M15.35,13.77a1.56,1.56,0,0,0,1-.32,14.35,14.35,0,0,1,4-2.14l2.11,4.43a1.57,1.57,0,0,0,1.37.89l2.86,0.08h0a1.57,1.57,0,0,0,1.46-1l1.74-4.45a14.33,14.33,0,0,1,3.93,2.06,1.57,1.57,0,1,0,1.87-2.51,17.47,17.47,0,0,0-6.12-2.92,4.6,4.6,0,0,1-8.92,0l-0.07,0a17.49,17.49,0,0,0-6.14,3A1.57,1.57,0,0,0,15.35,13.77Z" fill="#00b5e4"/>
    <path d="M40.23,22a4.58,4.58,0,0,1,2.1-1.19h0a17.49,17.49,0,0,0-3-6.19,1.57,1.57,0,0,0-2.49,1.91,14.35,14.35,0,0,1,2.14,4l-4.43,2.11a1.57,1.57,0,0,0-.89,1.37L33.54,26.8a1.57,1.57,0,0,0,1,1.5L39,30A14.33,14.33,0,0,1,36.93,34a1.57,1.57,0,0,0,2.51,1.88,17.47,17.47,0,0,0,2.92-6.12,4.58,4.58,0,0,1-2.13-1.2A4.63,4.63,0,0,1,40.23,22Z" fill="#00b5e4"/>
    <path d="M46.72,24.63A3.28,3.28,0,0,0,43.5,22h0a3.3,3.3,0,0,0-.63.06l-0.25.07a3.23,3.23,0,0,0-.93.41,3.25,3.25,0,0,0-1.28,3.83,3.24,3.24,0,0,0,.34.71,3.31,3.31,0,0,0,.94.93,3.24,3.24,0,0,0,.95.41A3.27,3.27,0,0,0,46.72,24.63Z" fill="#00b5e4"/>
    <path d="M33.75,37a14.35,14.35,0,0,1-4,2.14l-2.11-4.43a1.57,1.57,0,0,0-1.37-.89l-2.86-.08a1.61,1.61,0,0,0-1.5,1L20.21,39.2a14.34,14.34,0,0,1-3.93-2.06,1.57,1.57,0,1,0-1.87,2.51,17.47,17.47,0,0,0,6.12,2.91,4.6,4.6,0,0,1,8.92,0h0a17.48,17.48,0,0,0,6.16-3A1.57,1.57,0,1,0,33.75,37Z" fill="#00b5e4"/>
    <path d="M28,42.47a3.26,3.26,0,0,0-.3-0.57,3.3,3.3,0,0,0-.42-0.51A3.24,3.24,0,0,0,26,40.6a3.33,3.33,0,0,0-.47-0.12A3.29,3.29,0,0,0,25,40.43H24.85l-0.17,0a3.25,3.25,0,0,0-.54.1l-0.21.06a3.24,3.24,0,0,0-.48.21l-0.19.1A3.17,3.17,0,1,0,28,42.47Z" fill="#00b5e4"/>
    <path d="M11.1,30l4.43-2.11a1.57,1.57,0,0,0,.89-1.37l0.08-2.86a1.57,1.57,0,0,0-1-1.5l-4.45-1.74a14.33,14.33,0,0,1,2.06-3.93,1.57,1.57,0,0,0-2.51-1.88,17.47,17.47,0,0,0-2.92,6.12,4.6,4.6,0,0,1,0,8.92h0a17.48,17.48,0,0,0,3,6.2A1.57,1.57,0,0,0,13.24,34,14.35,14.35,0,0,1,11.1,30Z" fill="#00b5e4"/>
    <path d="M9.29,27a3.26,3.26,0,0,0-4.35-4.65A3.14,3.14,0,0,0,3.51,24a3.29,3.29,0,0,0,1.23,4,3.23,3.23,0,0,0,.58.29l0.12,0a3.28,3.28,0,0,0,1.11.2,3.28,3.28,0,0,0,.88-0.13h0a3.25,3.25,0,0,0,1.44-.83A3.3,3.3,0,0,0,9.29,27Z" fill="#00b5e4"/>
  </g>
</svg>
