<?xml version="1.0" encoding="utf-8"?>
<!-- Generator: Adobe Illustrator 18.0.0, SVG Export Plug-In . SVG Version: 6.00 Build 0)  -->
<!DOCTYPE svg PUBLIC "-//W3C//DTD SVG 1.1//EN" "http://www.w3.org/Graphics/SVG/1.1/DTD/svg11.dtd">
<svg version="1.1" id="Layer_1" xmlns="http://www.w3.org/2000/svg" xmlns:xlink="http://www.w3.org/1999/xlink" x="0px" y="0px"
	 viewBox="0 0 50.5 50.5" style="enable-background:new 0 0 50.5 50.5;" xml:space="preserve">
<style type="text/css">
	.st0{fill:#65B4E1;}
</style>
<g>
	<g>
		<path class="st0" d="M21.9,7.6C22,8,22.1,8.3,22.3,8.6c0.1,0.2,0.3,0.4,0.4,0.5c0.1,0.1,0.3,0.3,0.5,0.4c0,0,0.1,0.1,0.2,0.1
			c0.1,0.1,0.2,0.1,0.4,0.2c0.1,0,0.1,0.1,0.2,0.1c0.2,0.1,0.3,0.1,0.5,0.1c0.1,0,0.2,0,0.3,0c0.1,0,0.1,0,0.2,0c0.1,0,0.1,0,0.2,0
			c0.1,0,0.1,0,0.2,0c0,0,0,0,0,0c0.1,0,0.3,0,0.4-0.1c0.2,0,0.3-0.1,0.4-0.1c0.3-0.1,0.5-0.2,0.8-0.4c0.2-0.1,0.4-0.3,0.5-0.4
			c0.4-0.4,0.7-0.9,0.8-1.5c0.2-0.7,0.2-1.4-0.1-2.1c-0.1-0.2-0.2-0.4-0.3-0.6c-0.1-0.2-0.3-0.4-0.4-0.5c-0.1-0.1-0.2-0.1-0.2-0.2
			C27,4.1,26.9,4.1,26.8,4c-0.1-0.1-0.2-0.1-0.4-0.2c-0.2-0.1-0.4-0.2-0.6-0.2c-0.3-0.1-0.5-0.1-0.8-0.1c-0.2,0-0.4,0-0.6,0.1
			c-0.6,0.1-1.2,0.4-1.7,0.9c-0.8,0.8-1.1,1.9-0.9,2.9C21.8,7.5,21.9,7.5,21.9,7.6z"/>
		<path class="st0" d="M15.3,13.8c0.3,0,0.7-0.1,1-0.3c1.2-0.9,2.6-1.6,4-2.1l2.1,4.4c0.3,0.5,0.8,0.9,1.4,0.9l2.9,0.1c0,0,0,0,0,0
			c0.6,0,1.2-0.4,1.5-1l1.7-4.5c1.4,0.5,2.7,1.2,3.9,2.1c0.7,0.5,1.7,0.4,2.2-0.3c0.5-0.7,0.4-1.7-0.3-2.2c-1.9-1.4-4-2.4-6.1-2.9
			c-0.2,0.8-0.6,1.5-1.2,2.1c-0.9,0.9-2,1.4-3.3,1.4s-2.4-0.5-3.3-1.4c-0.6-0.6-1-1.3-1.2-2.1c0,0,0,0-0.1,0c-2.2,0.6-4.3,1.6-6.1,3
			c-0.7,0.5-0.8,1.5-0.3,2.2C14.4,13.6,14.9,13.8,15.3,13.8z"/>
		<path class="st0" d="M40.2,22c0.6-0.6,1.3-1,2.1-1.2c0,0,0,0,0,0c-0.6-2.2-1.6-4.3-3-6.2c-0.5-0.7-1.5-0.8-2.2-0.3
			c-0.7,0.5-0.8,1.5-0.3,2.2c0.9,1.2,1.6,2.6,2.1,4l-4.4,2.1c-0.5,0.3-0.9,0.8-0.9,1.4l-0.1,2.9c0,0.7,0.4,1.3,1,1.5L39,30
			c-0.5,1.4-1.2,2.7-2.1,3.9c-0.5,0.7-0.4,1.7,0.3,2.2c0.3,0.2,0.6,0.3,0.9,0.3c0.5,0,1-0.2,1.3-0.6c1.4-1.9,2.4-4,2.9-6.1
			c-0.8-0.2-1.5-0.6-2.1-1.2C38.4,26.7,38.4,23.8,40.2,22z"/>
		<path class="st0" d="M46.7,24.6c0-0.2-0.1-0.4-0.2-0.6c-0.2-0.4-0.4-0.8-0.7-1.1c-0.5-0.5-1.1-0.8-1.7-0.9c-0.2,0-0.4-0.1-0.6-0.1
			h0c-0.2,0-0.4,0-0.6,0.1c-0.1,0-0.2,0.1-0.3,0.1c-0.3,0.1-0.6,0.2-0.9,0.4c-0.2,0.1-0.4,0.3-0.5,0.4c-0.5,0.5-0.8,1.1-0.9,1.7
			c-0.1,0.6-0.1,1.2,0.1,1.7c0.1,0.2,0.2,0.5,0.3,0.7c0.1,0.2,0.3,0.4,0.4,0.5s0.3,0.3,0.5,0.4c0.3,0.2,0.6,0.3,0.9,0.4
			c0.3,0.1,0.6,0.1,0.9,0.1c0.2,0,0.4,0,0.6-0.1c0.2,0,0.4-0.1,0.6-0.2c0.2-0.1,0.4-0.2,0.6-0.3c0.2-0.1,0.4-0.3,0.5-0.4
			c0.6-0.6,1-1.5,1-2.3C46.8,25,46.8,24.8,46.7,24.6z"/>
		<path class="st0" d="M33.7,37c-1.2,0.9-2.6,1.6-4,2.1l-2.1-4.4c-0.3-0.5-0.8-0.9-1.4-0.9l-2.9-0.1c-0.6,0-1.3,0.4-1.5,1l-1.7,4.5
			c-1.4-0.5-2.7-1.2-3.9-2.1c-0.7-0.5-1.7-0.4-2.2,0.3c-0.5,0.7-0.4,1.7,0.3,2.2c1.9,1.4,4,2.4,6.1,2.9c0.2-0.8,0.6-1.5,1.2-2.1
			c0.9-0.9,2-1.4,3.3-1.4s2.4,0.5,3.3,1.4c0.6,0.6,1,1.3,1.2,2.1c0,0,0,0,0,0c2.2-0.6,4.3-1.6,6.2-3c0.7-0.5,0.8-1.5,0.3-2.2
			C35.4,36.6,34.4,36.5,33.7,37z"/>
		<path class="st0" d="M28,42.5c-0.1-0.2-0.2-0.4-0.3-0.6c-0.1-0.2-0.3-0.4-0.4-0.5c-0.4-0.4-0.8-0.6-1.3-0.8
			c-0.2-0.1-0.3-0.1-0.5-0.1c-0.2,0-0.4-0.1-0.6-0.1c0,0-0.1,0-0.1,0c-0.1,0-0.1,0-0.2,0c-0.2,0-0.4,0-0.5,0.1c-0.1,0-0.1,0-0.2,0.1
			c-0.2,0.1-0.3,0.1-0.5,0.2c-0.1,0-0.1,0.1-0.2,0.1c-0.2,0.1-0.4,0.3-0.6,0.5c-0.4,0.4-0.7,0.9-0.8,1.5c-0.1,0.3-0.1,0.6-0.1,0.9
			c0,0.4,0.1,0.8,0.2,1.2c0.2,0.4,0.4,0.8,0.7,1.1c0.6,0.6,1.5,1,2.3,1c0.2,0,0.4,0,0.6-0.1c0.5-0.1,0.9-0.3,1.3-0.6
			c0.1-0.1,0.3-0.2,0.4-0.3c0.2-0.2,0.3-0.3,0.4-0.5c0.1-0.2,0.2-0.4,0.3-0.6c0.3-0.7,0.3-1.4,0.1-2.1C28.1,42.7,28.1,42.6,28,42.5z
			"/>
		<path class="st0" d="M11.1,30l4.4-2.1c0.5-0.3,0.9-0.8,0.9-1.4l0.1-2.9c0-0.7-0.4-1.3-1-1.5l-4.5-1.7c0.5-1.4,1.2-2.7,2.1-3.9
			c0.5-0.7,0.4-1.7-0.3-2.2c-0.7-0.5-1.7-0.4-2.2,0.3c-1.4,1.9-2.4,4-2.9,6.1c0.8,0.2,1.5,0.6,2.1,1.2c0.9,0.9,1.4,2,1.4,3.3
			c0,1.2-0.5,2.4-1.4,3.3c-0.6,0.6-1.3,1-2.1,1.2c0,0,0,0,0,0c0.6,2.2,1.6,4.3,3,6.2c0.3,0.4,0.8,0.6,1.2,0.6c0.3,0,0.7-0.1,1-0.3
			c0.7-0.5,0.8-1.5,0.3-2.2C12.3,32.7,11.6,31.4,11.1,30z"/>
		<path class="st0" d="M9.3,27c0.1-0.2,0.2-0.4,0.3-0.6c0.1-0.2,0.1-0.4,0.2-0.6c0.1-0.7,0-1.4-0.3-2.1c-0.2-0.3-0.4-0.6-0.6-0.9
			c-0.4-0.4-0.9-0.7-1.5-0.8c-0.3-0.1-0.6-0.1-0.9-0.1c-0.2,0-0.4,0-0.6,0.1c-0.3,0.1-0.7,0.2-1,0.4c-0.3,0.1-0.5,0.3-0.7,0.5
			c-0.3,0.3-0.6,0.7-0.7,1.1c-0.2,0.4-0.2,0.8-0.2,1.2s0.1,0.8,0.2,1.2c0.2,0.4,0.4,0.8,0.7,1.1c0.2,0.2,0.3,0.3,0.5,0.4
			c0.2,0.1,0.4,0.2,0.6,0.3c0,0,0.1,0,0.1,0c0.4,0.1,0.7,0.2,1.1,0.2c0.3,0,0.6-0.1,0.9-0.1l0,0c0.5-0.1,1-0.4,1.4-0.8
			C9,27.4,9.2,27.2,9.3,27z"/>
	</g>
</g>
</svg>
