<svg xmlns="http://www.w3.org/2000/svg" viewBox="0 0 50.46 50.46">
  <title>Iconos</title>
  <g>
    <path d="M24.59,34.19l-1.15,1.24a1.66,1.66,0,0,0,.09,2.34h0a1.64,1.64,0,0,0,1.13.44h0.06a1.64,1.64,0,0,0,1.15-.53L27,36.44A1.66,1.66,0,1,0,24.59,34.19Z" fill="#00b5e4"/>
    <path d="M25.46,31.92a1.66,1.66,0,0,0-2.86-1.07L20,33.59a1.65,1.65,0,0,0,1.21,2.78h0.06a1.64,1.64,0,0,0,1.15-.52L25,33.11A1.64,1.64,0,0,0,25.46,31.92Z" fill="#00b5e4"/>
    <path d="M22.07,30.16a1.66,1.66,0,0,0-2.86-1.07l-2.28,2.37a1.65,1.65,0,0,0,1.21,2.78H18.2a1.64,1.64,0,0,0,1.15-.52l2.28-2.37A1.64,1.64,0,0,0,22.07,30.16Z" fill="#00b5e4"/>
    <path d="M17.17,30.75a1.66,1.66,0,0,0-2.43-2.26L14.31,29a1.65,1.65,0,0,0,1.21,2.78h0.06a1.64,1.64,0,0,0,1.15-.53Z" fill="#00b5e4"/>
    <path d="M35.75,16a0.28,0.28,0,0,0-.35-0.13,8.21,8.21,0,0,1-1.36.42,3.45,3.45,0,0,1-2-.86,10.27,10.27,0,0,0-1.93-1.08A3.84,3.84,0,0,0,27.2,14c-1.39.27-5.35,3-5.63,3.19l-3.38,2.49a1.81,1.81,0,0,0,2.16,2.9L25,20h0c0.65-.42,1.38-0.74,2.58.41a1.23,1.23,0,0,0,.13.18l0.8,0.89c2.39,2.65,7.58,8.31,7.64,8.37a0.28,0.28,0,0,0,.21.09h0a0.28,0.28,0,0,0,.21-0.09L40.7,25.7a0.28,0.28,0,0,0,0-.32Z" fill="#00b5e4"/>
    <path d="M46.74,23.52L41,12.52a0.35,0.35,0,0,0-.49-0.14l-3.55,2a0.35,0.35,0,0,0-.14.47l5.69,10.71a0.35,0.35,0,0,0,.47.15L46.58,24A0.35,0.35,0,0,0,46.74,23.52Z" fill="#00b5e4"/>
    <path d="M12.4,13.89L8.66,12.28a0.35,0.35,0,0,0-.47.2L3.7,24a0.35,0.35,0,0,0,.21.46l3.74,1.32a0.35,0.35,0,0,0,.45-0.2l4.49-11.27A0.35,0.35,0,0,0,12.4,13.89Z" fill="#00b5e4"/>
    <path d="M36.94,30.24a0.58,0.58,0,0,0-.37.39v0.06a1.25,1.25,0,0,1-2.14,1.08l-4-4.09a0.62,0.62,0,0,0-.65.06,0.75,0.75,0,0,0-.18.68L33.2,32.2a1.25,1.25,0,0,1-1.83,1.7l-3.85-4a0.67,0.67,0,0,0-.75.14,0.8,0.8,0,0,0-.09.73c0.07,0.08,1.66,1.84,2,2.15L29.74,34a1.25,1.25,0,0,1-.06,1.77,1.28,1.28,0,0,1-1.44.19l0,0h0a0.75,0.75,0,0,0-.51.7v0.07l0.06,0A2.2,2.2,0,0,0,31,34.86a2.2,2.2,0,0,0,3.46-1.73c0-.06,0-0.12,0-0.18a2.2,2.2,0,0,0,3-2.37A0.47,0.47,0,0,0,36.94,30.24Z" fill="#00b5e4"/>
    <path d="M14.2,28.4A0.47,0.47,0,0,0,14,28.07l-3.23-2.9,3.65-9.08a7.46,7.46,0,0,0,2.15.52,6.06,6.06,0,0,0,4-1.28l0.32-.2a3,3,0,0,1,2.89-.18,0.48,0.48,0,1,0,.51-0.81,4,4,0,0,0-3.9.18l-0.32.2a5.18,5.18,0,0,1-3.48,1.13A7.53,7.53,0,0,1,14.4,15a0.48,0.48,0,0,0-.64.25l-4,9.83a0.48,0.48,0,0,0,.12.53l3.48,3.12A0.48,0.48,0,0,0,14.2,28.4Z" fill="#00b5e4"/>
  </g>
</svg>
