<?xml version="1.0" encoding="utf-8"?>
<!-- Generator: Adobe Illustrator 18.0.0, SVG Export Plug-In . SVG Version: 6.00 Build 0)  -->
<!DOCTYPE svg PUBLIC "-//W3C//DTD SVG 1.1//EN" "http://www.w3.org/Graphics/SVG/1.1/DTD/svg11.dtd">
<svg version="1.1" id="Layer_1" xmlns="http://www.w3.org/2000/svg" xmlns:xlink="http://www.w3.org/1999/xlink" x="0px" y="0px"
	 viewBox="0 0 50.5 50.5" style="enable-background:new 0 0 50.5 50.5;" xml:space="preserve">
<style type="text/css">
	.st0{fill:#65B4E1;}
</style>
<g>
	<path class="st0" d="M24.5,34.2l-1.2,1.2c-0.3,0.3-0.5,0.7-0.4,1.2c0,0.4,0.2,0.9,0.5,1.2v0c0.3,0.3,0.7,0.4,1.1,0.4c0,0,0,0,0.1,0
		c0.4,0,0.9-0.2,1.2-0.5l1.2-1.2c0.6-0.7,0.6-1.7-0.1-2.3C26.2,33.5,25.2,33.5,24.5,34.2z"/>
	<path class="st0" d="M25.4,31.9c0-0.4-0.2-0.9-0.5-1.2c-0.3-0.3-0.7-0.5-1.2-0.4c-0.4,0-0.9,0.2-1.2,0.5l-2.6,2.7
		c-0.3,0.3-0.5,0.7-0.4,1.2c0,0.4,0.2,0.9,0.5,1.2c0.3,0.3,0.7,0.4,1.1,0.4c0,0,0,0,0.1,0c0.4,0,0.9-0.2,1.2-0.5l2.6-2.7
		C25.3,32.8,25.4,32.4,25.4,31.9z"/>
	<path class="st0" d="M22,30.2c0-0.4-0.2-0.9-0.5-1.2c-0.3-0.3-0.7-0.5-1.2-0.4c-0.4,0-0.9,0.2-1.1,0.5l-2.3,2.4
		c-0.3,0.3-0.5,0.7-0.4,1.2c0,0.4,0.2,0.9,0.5,1.2c0.3,0.3,0.7,0.4,1.1,0.4c0,0,0,0,0.1,0c0.4,0,0.9-0.2,1.1-0.5l2.3-2.4
		C21.9,31,22,30.6,22,30.2z"/>
	<path class="st0" d="M17.2,31c0.6-0.7,0.6-1.7-0.1-2.3c-0.3-0.3-0.7-0.5-1.2-0.4c-0.4,0-0.9,0.2-1.2,0.5l-0.4,0.5
		c-0.6,0.7-0.6,1.7,0.1,2.3c0.3,0.3,0.7,0.4,1.1,0.4c0,0,0,0,0.1,0c0.4,0,0.9-0.2,1.2-0.5L17.2,31z"/>
	<path class="st0" d="M35.7,16c-0.1-0.1-0.2-0.2-0.4-0.1c-0.3,0.1-1,0.4-1.4,0.4c-0.6,0.1-1.3-0.4-2-0.9c-0.6-0.4-1.2-0.8-1.9-1.1
		c-0.8-0.5-1.9-0.7-2.9-0.4c-1.4,0.3-5.3,3-5.6,3.2l-3.4,2.5c-0.4,0.3-0.6,0.7-0.7,1.2c-0.1,0.5,0.1,1,0.3,1.3
		c0.3,0.4,0.7,0.6,1.2,0.7c0.5,0.1,0.9-0.1,1.3-0.3l4.6-2.5c0,0,0,0,0,0c0.6-0.4,1.4-0.7,2.6,0.4c0,0.1,0.1,0.1,0.1,0.2
		c0.2,0.2,0.5,0.5,0.8,0.9c2.4,2.7,7.8,8.6,7.8,8.6c0.1,0.1,0.1,0.1,0.2,0.1h0c0.1,0,0.2,0,0.2-0.1l3.9-4.4c0.1-0.1,0.1-0.2,0-0.3
		L35.7,16z"/>
	<path class="st0" d="M46.7,23.5l-5.7-11c0-0.1-0.1-0.1-0.2-0.2s-0.2,0-0.3,0l-3.5,2c-0.2,0.1-0.2,0.3-0.1,0.5l5.7,10.7
		c0.1,0.1,0.2,0.2,0.3,0.2c0.1,0,0.1,0,0.2,0l3.6-1.7c0.1,0,0.2-0.1,0.2-0.2C46.7,23.7,46.7,23.6,46.7,23.5z"/>
	<path class="st0" d="M12.4,13.9l-3.7-1.6c-0.1,0-0.2,0-0.3,0c-0.1,0-0.2,0.1-0.2,0.2L3.7,24c0,0.1,0,0.2,0,0.3
		c0,0.1,0.1,0.2,0.2,0.2l3.7,1.3c0.1,0,0.1,0,0.2,0c0.1,0,0.2-0.1,0.3-0.2l4.5-11.3C12.6,14.2,12.5,14,12.4,13.9z"/>
	<path class="st0" d="M37.2,30.3c-0.3-0.1-0.5,0.2-0.6,0.4c0.1,0.4-0.1,0.9-0.4,1.3c-0.3,0.2-0.6,0.4-0.9,0.4c-0.4,0-0.7-0.1-1-0.4
		l-4-4.1c-0.1,0-0.2,0-0.4,0c-0.1,0.1-0.2,0.3-0.3,0.4c0,0,0,0.1,0,0.1l3.6,3.7c0.5,0.6,0.5,1.4-0.1,1.9c-0.3,0.2-0.6,0.4-0.9,0.4
		c-0.4,0-0.7-0.1-1-0.4l-3.8-4c-0.6-0.1-0.8,0.3-0.7,0.7c0,0,1.7,1.8,2,2.1l1.1,1.1c0.5,0.6,0.5,1.4-0.1,1.9
		c-0.3,0.2-0.6,0.4-0.9,0.4c-0.2,0-0.4-0.1-0.6-0.2c-0.3,0.1-0.4,0.4-0.4,0.6c0.3,0.2,0.7,0.3,1.1,0.3c0.5,0,1-0.2,1.4-0.6
		c0.5-0.5,0.7-1.2,0.6-1.8c0.4,0.3,0.9,0.5,1.4,0.5c0.5,0,1-0.2,1.4-0.6c0.4-0.4,0.6-0.9,0.7-1.4c0-0.1,0-0.3,0-0.4
		c0.3,0.2,0.6,0.3,1,0.3c0.5,0,1-0.2,1.4-0.6c0.5-0.5,0.7-1.2,0.6-1.8C37.3,30.3,37.2,30.3,37.2,30.3z"/>
	<path class="st0" d="M13.9,28.2l-3.3-3l3.7-9.3c0.5,0.2,1.4,0.5,2.2,0.6c1.8,0.1,2.8-0.5,4-1.3c0.1-0.1,0.2-0.1,0.3-0.2
		c0.9-0.6,2.4-0.6,3.2-0.1c0.2,0.1,0.4,0.1,0.5-0.1c0.1-0.2,0.1-0.4-0.1-0.5c-1.1-0.7-3-0.5-3.9,0.1c-0.1,0.1-0.2,0.1-0.3,0.2
		c-1.2,0.7-1.9,1.2-3.6,1.2c-1,0-2.3-0.6-2.3-0.6c-0.1,0-0.2,0-0.3,0s-0.2,0.1-0.2,0.2l-4,9.8c-0.1,0.1,0,0.3,0.1,0.4l3.5,3.1
		c0.1,0.1,0.2,0.1,0.2,0.1c0.1,0,0.2,0,0.3-0.1C14.1,28.5,14.1,28.3,13.9,28.2z"/>
</g>
</svg>
