<svg id="Layer_1" data-name="Layer 1" xmlns="http://www.w3.org/2000/svg" viewBox="0 0 50.46 50.46"><defs><style>.cls-1{fill:#00b5e4;}</style></defs><title>Iconos</title><path class="cls-1" d="M24.54,34.19l-1.15,1.24a1.66,1.66,0,0,0,.09,2.34h0a1.64,1.64,0,0,0,1.13.44h0.06a1.64,1.64,0,0,0,1.15-.53L27,36.44A1.66,1.66,0,1,0,24.54,34.19Z"/><path class="cls-1" d="M25.41,31.92a1.66,1.66,0,0,0-2.86-1.07l-2.61,2.75a1.65,1.65,0,0,0,1.21,2.78H21.2a1.64,1.64,0,0,0,1.15-.52L25,33.11A1.64,1.64,0,0,0,25.41,31.92Z"/><path class="cls-1" d="M22,30.16a1.66,1.66,0,0,0-2.86-1.07l-2.28,2.37a1.65,1.65,0,0,0,1.21,2.78h0.06a1.64,1.64,0,0,0,1.15-.52l2.28-2.37A1.64,1.64,0,0,0,22,30.16Z"/><path class="cls-1" d="M17.17,31a1.66,1.66,0,0,0-2.43-2.26l-0.43.47A1.65,1.65,0,0,0,15.52,32h0.06a1.64,1.64,0,0,0,1.15-.53Z"/><path class="cls-1" d="M35.7,16a0.28,0.28,0,0,0-.35-0.13,8.21,8.21,0,0,1-1.36.42,3.45,3.45,0,0,1-2-.86A10.27,10.27,0,0,0,30,14.38,3.84,3.84,0,0,0,27.16,14c-1.39.27-5.35,3-5.63,3.19l-3.38,2.49a1.81,1.81,0,0,0,2.16,2.9L24.91,20h0c0.65-.42,1.38-0.74,2.58.41a1.23,1.23,0,0,0,.13.18l0.8,0.89c2.39,2.65,7.79,8.57,7.84,8.63a0.28,0.28,0,0,0,.21.09h0a0.28,0.28,0,0,0,.21-0.09l3.95-4.4a0.28,0.28,0,0,0,0-.32Z"/><path class="cls-1" d="M46.69,23.52L41,12.52a0.35,0.35,0,0,0-.49-0.14l-3.55,2a0.35,0.35,0,0,0-.14.47l5.69,10.71a0.35,0.35,0,0,0,.47.15L46.53,24A0.35,0.35,0,0,0,46.69,23.52Z"/><path class="cls-1" d="M12.35,13.89L8.61,12.28a0.35,0.35,0,0,0-.47.2L3.65,24a0.35,0.35,0,0,0,.21.46L7.6,25.81A0.35,0.35,0,0,0,8,25.61l4.49-11.27A0.35,0.35,0,0,0,12.35,13.89Z"/><path class="cls-1" d="M37.21,30.3a0.45,0.45,0,0,0-.58.36,1.37,1.37,0,0,1-2.35,1.19l-4-4.07a0.45,0.45,0,0,0-.36,0,0.65,0.65,0,0,0-.26.41,0.9,0.9,0,0,0,0,.14l3.58,3.74a1.37,1.37,0,0,1-2,1.87l-3.85-4a0.52,0.52,0,0,0-.66.7s1.66,1.84,2,2.15l1.06,1.14a1.37,1.37,0,0,1-1.65,2.15,0.62,0.62,0,0,0-.42.57,2.08,2.08,0,0,0,3.12-2.09,2.08,2.08,0,0,0,2.82,0,2.07,2.07,0,0,0,.66-1.45,2.11,2.11,0,0,0,0-.38,2.08,2.08,0,0,0,3.05-2.14A0.35,0.35,0,0,0,37.21,30.3Z"/><path class="cls-1" d="M13.91,28.16l-3.29-3,3.73-9.27a7.56,7.56,0,0,0,2.23.55,6,6,0,0,0,4-1.26l0.32-.2a3.4,3.4,0,0,1,3.2-.09,0.35,0.35,0,1,0,.38-0.6,4.14,4.14,0,0,0-3.95.09l-0.32.2a5.26,5.26,0,0,1-3.55,1.15,7.67,7.67,0,0,1-2.3-.63,0.35,0.35,0,0,0-.48.19l-4,9.83a0.35,0.35,0,0,0,.09.39l3.48,3.12A0.35,0.35,0,0,0,13.91,28.16Z"/></svg>