<?xml version="1.0" encoding="UTF-8"?>
<svg xmlns="http://www.w3.org/2000/svg" version="1.1" viewBox="0 0 50.46 50.46">
  <!-- Generator: Adobe Illustrator 28.7.1, SVG Export Plug-In . SVG Version: 1.2.0 Build 142)  -->
  <g>
    <g id="stroke_1_x2C_6">
      <g>
        <path d="M8.934,13.755c-1.13-.509-1.724.226-2.176,1.102-1.696,3.222-2.628,6.641-2.544,10.287-.113,3.702.82,7.178,2.515,10.4.48.904,1.046,1.639,2.176,1.13.904-.396,1.017-1.357.424-2.515-2.996-5.963-3.024-11.927,0-17.89.594-1.159.509-2.091-.396-2.515Z"/>
        <path d="M43.724,14.886c-.48-.848-1.046-1.611-2.176-1.102-.904.396-1.017,1.357-.424,2.515,2.996,5.963,3.024,11.926,0,17.89-.594,1.159-.509,2.12.396,2.515,1.13.509,1.724-.226,2.176-1.102,1.696-3.222,2.628-6.642,2.544-10.287.17-3.957-1.074-7.772-2.515-10.429Z"/>
        <path d="M13.766,17.147c-.961-.48-1.554.141-2.007.961-1.187,2.233-1.837,4.578-1.667,7.122-.17,2.515.452,4.805,1.639,6.981.452.848,1.017,1.583,2.063,1.046.933-.48.989-1.3.537-2.261-1.894-3.844-1.894-7.744,0-11.587.48-.961.396-1.78-.565-2.261Z"/>
        <path d="M38.637,18.051c-.424-.791-1.046-1.328-1.922-.876-.876.424-1.102,1.187-.65,2.12,1.95,3.928,1.95,7.885.028,11.842-.48.989-.226,1.78.707,2.204.876.396,1.47-.17,1.893-.961,1.187-2.233,1.865-4.578,1.696-7.122.17-2.6-.509-4.974-1.752-7.207Z"/>
        <path d="M25.241,16.271c-4.946,0-8.959,4.013-8.959,8.959s4.013,8.959,8.959,8.959,8.959-4.013,8.959-8.959-4.013-8.959-8.959-8.959ZM28.632,26.36c-1.357.933-2.713,1.837-4.126,2.685-1.102.678-2.007.17-2.035-1.159-.028-.933,0-1.837,0-2.77,0-.848-.028-1.696,0-2.515.057-1.385.933-1.894,2.091-1.187,1.385.876,2.77,1.752,4.098,2.713.989.678.961,1.554-.028,2.233Z"/>
      </g>
    </g>
  </g>
</svg>