<?xml version="1.0" encoding="utf-8"?>
<!-- Generator: Adobe Illustrator 18.0.0, SVG Export Plug-In . SVG Version: 6.00 Build 0)  -->
<!DOCTYPE svg PUBLIC "-//W3C//DTD SVG 1.1//EN" "http://www.w3.org/Graphics/SVG/1.1/DTD/svg11.dtd">
<svg version="1.1" id="Layer_1" xmlns="http://www.w3.org/2000/svg" xmlns:xlink="http://www.w3.org/1999/xlink" x="0px" y="0px"
	 viewBox="0 0 50.5 50.5" style="enable-background:new 0 0 50.5 50.5;" xml:space="preserve">
<style type="text/css">
	.st0{fill:#65B4E1;}
</style>
<g>
	<g>
		<path class="st0" d="M43.9,9.5H5.8c-1.7,0-3.1,1.4-3.1,3.1v25c0,1.7,1.4,3.1,3.1,3.1h38.1c1.7,0,3.1-1.4,3.1-3.1v-25
			C47,10.9,45.6,9.5,43.9,9.5z M45.3,37.7c0,0.7-0.6,1.3-1.3,1.3H5.8c-0.7,0-1.3-0.6-1.3-1.3v-25c0-0.7,0.6-1.3,1.3-1.3h38.1
			c0.7,0,1.3,0.6,1.3,1.3V37.7z"/>
		<g>
			<path class="st0" d="M14.2,27.4c0-0.4-0.1-0.6-0.4-0.8c-0.3-0.2-0.7-0.4-1.4-0.6c-0.7-0.2-1.2-0.4-1.6-0.6
				c-1.1-0.6-1.6-1.4-1.6-2.3c0-0.5,0.1-1,0.4-1.4c0.3-0.4,0.7-0.7,1.2-0.9c0.5-0.2,1.1-0.3,1.8-0.3c0.7,0,1.3,0.1,1.8,0.4
				c0.5,0.2,0.9,0.6,1.2,1c0.3,0.4,0.4,0.9,0.4,1.5h-1.9c0-0.4-0.1-0.8-0.4-1s-0.7-0.4-1.1-0.4c-0.5,0-0.8,0.1-1.1,0.3
				s-0.4,0.5-0.4,0.8c0,0.3,0.2,0.6,0.5,0.8c0.3,0.2,0.8,0.4,1.4,0.6c1.1,0.3,1.9,0.7,2.4,1.2c0.5,0.5,0.8,1.1,0.8,1.8
				c0,0.8-0.3,1.4-0.9,1.9S13.7,30,12.7,30c-0.7,0-1.4-0.1-2-0.4s-1-0.6-1.4-1.1c-0.3-0.5-0.5-1-0.5-1.6h1.9c0,1,0.6,1.6,1.9,1.6
				c0.5,0,0.8-0.1,1.1-0.3S14.2,27.7,14.2,27.4z"/>
			<path class="st0" d="M24.5,20.5v6.2c0,1-0.3,1.8-1,2.4C22.9,29.7,22,30,20.9,30c-1.1,0-2-0.3-2.6-0.9s-1-1.4-1-2.4v-6.3h1.9v6.2
				c0,0.6,0.1,1.1,0.4,1.3s0.7,0.4,1.2,0.4c1.1,0,1.6-0.6,1.7-1.7v-6.2H24.5z"/>
			<path class="st0" d="M26.1,29.9v-9.4h3.3c1.1,0,2,0.2,2.6,0.7c0.6,0.4,0.9,1.1,0.9,1.9c0,0.5-0.1,0.9-0.4,1.2
				c-0.2,0.4-0.6,0.6-1,0.8c0.5,0.1,0.9,0.4,1.1,0.7s0.4,0.8,0.4,1.3c0,0.9-0.3,1.6-0.9,2c-0.6,0.5-1.4,0.7-2.5,0.7H26.1z M28,24.4
				h1.4c1,0,1.5-0.4,1.5-1.2c0-0.4-0.1-0.7-0.4-0.9c-0.2-0.2-0.6-0.3-1.2-0.3H28V24.4z M28,25.8v2.5h1.7c0.5,0,0.8-0.1,1.1-0.3
				s0.4-0.5,0.4-0.9c0-0.9-0.4-1.3-1.3-1.3H28z"/>
			<path class="st0" d="M40.2,25.8h-3.7v2.5h4.4v1.6h-6.3v-9.4h6.3V22h-4.3v2.2h3.7V25.8z"/>
		</g>
	</g>
</g>
</svg>
