<svg xmlns="http://www.w3.org/2000/svg" viewBox="0 0 50.46 50.46">
  <title>Iconos</title>
  <g>
    <path d="M43.92,9.54H5.79a3.11,3.11,0,0,0-3.11,3.11v25a3.11,3.11,0,0,0,3.11,3.11H43.92A3.11,3.11,0,0,0,47,37.68v-25A3.11,3.11,0,0,0,43.92,9.54Zm1.33,28.14A1.33,1.33,0,0,1,43.92,39H5.79a1.33,1.33,0,0,1-1.33-1.33v-25a1.33,1.33,0,0,1,1.33-1.33H43.92a1.33,1.33,0,0,1,1.33,1.33v25Z" fill="#00b5e4"/>
    <g>
      <path d="M14.16,27.4a1,1,0,0,0-.39-0.84,5.07,5.07,0,0,0-1.39-.62,9.87,9.87,0,0,1-1.59-.64A2.6,2.6,0,0,1,9.19,23a2.27,2.27,0,0,1,.43-1.36,2.8,2.8,0,0,1,1.23-.93,4.63,4.63,0,0,1,1.8-.34,4.22,4.22,0,0,1,1.79.36,2.85,2.85,0,0,1,1.22,1,2.69,2.69,0,0,1,.44,1.51H14.17a1.27,1.27,0,0,0-.41-1,1.67,1.67,0,0,0-1.14-.36,1.78,1.78,0,0,0-1.1.3,1,1,0,0,0-.39.79,0.91,0.91,0,0,0,.46.77,5.21,5.21,0,0,0,1.36.58,5.86,5.86,0,0,1,2.4,1.23,2.45,2.45,0,0,1,.75,1.83,2.26,2.26,0,0,1-.92,1.91A4,4,0,0,1,12.7,30a4.79,4.79,0,0,1-2-.4A3.12,3.12,0,0,1,9.37,28.5a2.78,2.78,0,0,1-.47-1.6h1.94q0,1.55,1.86,1.55a1.81,1.81,0,0,0,1.08-.28A0.91,0.91,0,0,0,14.16,27.4Z" fill="#00b5e4"/>
      <path d="M24.51,20.47v6.18a3.16,3.16,0,0,1-1,2.44,3.71,3.71,0,0,1-2.63.9,3.76,3.76,0,0,1-2.61-.87,3.11,3.11,0,0,1-1-2.39V20.47h1.93v6.19A1.79,1.79,0,0,0,19.7,28a1.69,1.69,0,0,0,1.22.42,1.5,1.5,0,0,0,1.66-1.71V20.47h1.94Z" fill="#00b5e4"/>
      <path d="M26.1,29.86V20.47h3.29a4.32,4.32,0,0,1,2.59.65A2.24,2.24,0,0,1,32.86,23a2.12,2.12,0,0,1-.35,1.21,2,2,0,0,1-1,.77,2,2,0,0,1,1.14.73,2.15,2.15,0,0,1,.42,1.34,2.48,2.48,0,0,1-.86,2,3.89,3.89,0,0,1-2.46.71H26.1ZM28,24.4h1.43q1.46,0,1.46-1.17a1.08,1.08,0,0,0-.37-0.92A2,2,0,0,0,29.39,22H28V24.4Zm0,1.37V28.3h1.66A1.6,1.6,0,0,0,30.76,28a1.12,1.12,0,0,0,.38-0.9,1.18,1.18,0,0,0-1.33-1.31H28Z" fill="#00b5e4"/>
      <path d="M40.17,25.78H36.46V28.3h4.36v1.55H34.52V20.47H40.8V22H36.46v2.24h3.71v1.5Z" fill="#00b5e4"/>
    </g>
  </g>
</svg>
