<svg id="b4b39b27-682f-4fa8-b250-0b9581c83d2c" data-name="stroke 1,6" xmlns="http://www.w3.org/2000/svg" viewBox="0 0 50.46 50.46"><path d="M42.474,8.368H8.054a2,2,0,0,0-2,2v24.48a2,2,0,0,0,2,2h13.5v3.38a2.42,2.42,0,0,1-2.41,2.42h-.45a.76.76,0,1,0,0,1.52h13.18a.76.76,0,1,0,0-1.52h-.45a2.42,2.42,0,0,1-2.37-2.42v-3.38h13.42a2,2,0,0,0,2-2V10.358A2,2,0,0,0,42.474,8.368Zm-20.22,34.28a3.948,3.948,0,0,0,.8-2.42v-3.38h4.4v3.38a3.929,3.929,0,0,0,.83,2.42Zm20.69-7.8a.47.47,0,0,1-.47.47H8.054a.469.469,0,0,1-.47-.47v-3h35.36Zm0-4.55H7.624V10.358a.47.47,0,0,1,.43-.47h34.42a.47.47,0,0,1,.47.47Z"/><path d="M20.218,21.482a1,1,0,0,0-1,1v4.9a1,1,0,0,0,1,1,.945.945,0,0,0,1-1v-4.9A1,1,0,0,0,20.218,21.482Z"/><path d="M16.407,15.982a.945.945,0,0,0-1,1v10.4a.945.945,0,0,0,1,1,1,1,0,0,0,1-1v-10.4A1,1,0,0,0,16.407,15.982Z"/><path d="M23.8,17.954a.945.945,0,0,0-1,1v8.428a.945.945,0,0,0,1,1,1,1,0,0,0,1-1V18.954A1,1,0,0,0,23.8,17.954Z"/><path d="M12.757,19.482a1,1,0,0,0-1,1v6.9a1,1,0,0,0,1,1,.945.945,0,0,0,1-1v-6.9A1,1,0,0,0,12.757,19.482Z"/><path d="M38.824,26.783H28.263a.8.8,0,1,0,0,1.6H38.824a.8.8,0,0,0,0-1.6Z"/><path d="M28.263,23.913a.8.8,0,1,0,0,1.6h7.864a.8.8,0,1,0,0-1.6Z"/><path d="M32.19,22.01h.027A4.9,4.9,0,1,0,30.333,12.6a.484.484,0,0,0-.064.013,4.9,4.9,0,0,0,1.921,9.4Zm.027-8.6a3.7,3.7,0,0,1,3.637,3.1H32.587l-1.269-2.975A3.658,3.658,0,0,1,32.217,13.415Zm-2,.6,1.423,3.336a.6.6,0,0,0,.552.364h3.648a3.706,3.706,0,0,1-1.754,2.575l-.036.019a3.65,3.65,0,0,1-.534.258c-.042.016-.086.026-.129.04a3.675,3.675,0,0,1-.5.14,3.6,3.6,0,0,1-.42.042c-.087.007-.171.023-.26.024a3.692,3.692,0,0,1-1.989-6.8Z"/><path d="M24.149,11.978a1.088,1.088,0,0,0-1.089,1.089,1.007,1.007,0,0,0,.041.205l-2.419,2.216a.971.971,0,0,0-.758-.014L17.36,12.782c0-.011.006-.021.006-.032a1.089,1.089,0,1,0-2.178,0,1.053,1.053,0,0,0,.032.158l-2.374,2.3a1.067,1.067,0,0,0-.371-.075,1.089,1.089,0,1,0,1.089,1.089,1.073,1.073,0,0,0-.053-.266l2.3-2.233a.989.989,0,0,0,1.012-.056L19.238,16.2a1.039,1.039,0,0,0-.059.29,1.089,1.089,0,1,0,2.178,0,1,1,0,0,0-.046-.225l2.405-2.2a1.077,1.077,0,0,0,.433.092,1.089,1.089,0,0,0,0-2.178Z"/></svg>