<svg id="a7864584-348a-4823-96b1-410f7b57a278" data-name="stroke 1,6" xmlns="http://www.w3.org/2000/svg" viewBox="0 0 50.46 50.46"><path d="M32.772,23.7A11.277,11.277,0,1,0,44.05,34.98h0A11.269,11.269,0,0,0,32.772,23.7ZM29.013,40.052a1.186,1.186,0,0,1-.954-.418,1.332,1.332,0,0,1,0-1.909l7.518-7.518a1.35,1.35,0,0,1,1.909,1.909l-7.518,7.518A1.408,1.408,0,0,1,29.013,40.052ZM31.1,31.46a1.671,1.671,0,1,1-1.671-1.671A1.707,1.707,0,0,1,31.1,31.46Zm6.981,6.981a1.671,1.671,0,1,1-1.671-1.671A1.707,1.707,0,0,1,38.083,38.441Z"/><line x1="13.694" y1="12.645" x2="30.029" y2="12.645" fill="none" stroke="#000" stroke-linecap="round" stroke-miterlimit="10" stroke-width="1.826"/><line x1="13.694" y1="17.058" x2="30.029" y2="17.058" fill="none" stroke="#000" stroke-linecap="round" stroke-miterlimit="10" stroke-width="1.826"/><line x1="13.694" y1="21.267" x2="25.595" y2="21.267" fill="none" stroke="#000" stroke-linecap="round" stroke-miterlimit="10" stroke-width="1.826"/><path d="M11.649,37.315a1.764,1.764,0,0,1-1.762-1.763V9.374a1.764,1.764,0,0,1,1.762-1.763H32.073a1.765,1.765,0,0,1,1.763,1.763V22.245a12.783,12.783,0,0,1,1.827.287V9.374a3.594,3.594,0,0,0-3.59-3.589H11.649A3.592,3.592,0,0,0,8.061,9.374V35.552a3.592,3.592,0,0,0,3.588,3.589H20.69a12.761,12.761,0,0,1-.483-1.826Z"/></svg>