<svg id="Layer_1" data-name="Layer 1" xmlns="http://www.w3.org/2000/svg" viewBox="0 0 50.46 50.46"><defs><style>.cls-1{fill:#00b5e4;}</style></defs><title>Iconos</title><path class="cls-1" d="M37.7,27.17a2,2,0,0,0-1.28-1.8c-1.71-.79-2.44.35-2.44,1.12s0.66,1.05,1.8,1.32S37.5,27.92,37.7,27.17Z"/><path class="cls-1" d="M7.36,16.43c0,2.68,1.52,11.53,6.29,14.68s7.09,2.25,7.36,2.16,3-1.43,5.08-5.26c2.75-5,0-13.56-1.27-15.92s-2.38-1.69-4.39-.53A27.82,27.82,0,0,1,11,13.92C8.68,13.83,7.38,13.76,7.36,16.43Zm12.86,1a2.23,2.23,0,0,1,2.72.72c0.3,0.71-.53,1.26-1.61,1.71s-2.08.92-2.43-.1A2.06,2.06,0,0,1,20.22,17.45Zm-1.06,9.63a9.56,9.56,0,0,0,3.57-1.75s0.5-.74.48,0.21a4.59,4.59,0,0,1-3.62,3.81,4.75,4.75,0,0,1-4.88-1.84c-0.44-.85.35-0.4,0.35-0.4C16.38,27.63,19,27.11,19.16,27.08Zm-5-7.94a2.07,2.07,0,0,1,2.12,1.62c0.08,1.07-1,1-2.2,1s-2.14-.17-2.15-0.94A2.23,2.23,0,0,1,14.12,19.14Z"/><path class="cls-1" d="M31.77,26c0.28-.72,0-2-1.88-1.9a2.35,2.35,0,0,0-1.21.43,14.73,14.73,0,0,1-.29,1.67,2.64,2.64,0,0,0,1.23.4C30.77,26.71,31.49,26.67,31.77,26Z"/><path class="cls-1" d="M31.1,39.42a6.92,6.92,0,0,0,2-.36,14.22,14.22,0,0,0,4.72-2.53c4.48-3.55,5.26-12.5,5-15.16S41.3,18.89,39,19.18a27.87,27.87,0,0,1-9.61-1.49c-0.4-.19-0.77-0.36-1.11-0.5,0.16,0.83.29,1.68,0.38,2.55A26.59,26.59,0,0,0,33.59,21a23.52,23.52,0,0,0,5.67.36h0.06c0.42-.05.95-0.12,1.3-0.13,0,0.1,0,.22.05,0.38A23.76,23.76,0,0,1,40,28.12a18.18,18.18,0,0,1-1.4,3.95,8.22,8.22,0,0,1-2.12,2.77,12.1,12.1,0,0,1-4,2.15,6.49,6.49,0,0,1-1.28.27,2.91,2.91,0,0,1-1-.4A11.25,11.25,0,0,1,27,33.36,7.36,7.36,0,0,1,26,31,17.18,17.18,0,0,1,24.33,33a8.44,8.44,0,0,0,.83,1.6C28.33,39.32,30.82,39.39,31.1,39.42Z"/><path class="cls-1" d="M28.38,33a7.72,7.72,0,0,1,3.27-.13,7.89,7.89,0,0,1,3.09,1.36s0.44,0.61.39-.19a3.92,3.92,0,0,0-3-3.06,3.77,3.77,0,0,0-4,1.69C27.76,33.35,28.38,33,28.38,33Z"/></svg>