<?xml version="1.0" encoding="utf-8"?>
<!-- Generator: Adobe Illustrator 18.0.0, SVG Export Plug-In . SVG Version: 6.00 Build 0)  -->
<!DOCTYPE svg PUBLIC "-//W3C//DTD SVG 1.1//EN" "http://www.w3.org/Graphics/SVG/1.1/DTD/svg11.dtd">
<svg version="1.1" id="Layer_1" xmlns="http://www.w3.org/2000/svg" xmlns:xlink="http://www.w3.org/1999/xlink" x="0px" y="0px"
	 viewBox="0 0 50.5 50.5" style="enable-background:new 0 0 50.5 50.5;" xml:space="preserve">
<style type="text/css">
	.st0{fill:#65B4E1;}
</style>
<path class="st0" d="M41.8,10.4h-9.3c-0.6,0-1.1,0.5-1.1,1.1v3c0,0.6-0.3,1.1-0.7,1.1H19.2c-0.4,0-0.7-0.5-0.7-1.1v-3
	c0-0.6-0.5-1.1-1.1-1.1H8.1c-0.4,0-0.8,0.3-0.8,0.8v31.1c0,1.9,1.3,3.5,3,3.5h29.3c1.6,0,3-1.6,3-3.5V11.2
	C42.6,10.8,42.2,10.4,41.8,10.4z M41,42.3c0,1-0.6,1.9-1.4,1.9H10.3c-0.8,0-1.4-0.9-1.4-1.9V12h8.1v2.6c0,1.4,1,2.6,2.3,2.6h11.4
	c1.3,0,2.3-1.2,2.3-2.6V12H41V42.3z"/>
<path class="st0" d="M32.9,32.9c0-0.2-0.1-0.8-0.7-1c-1-0.5-1.4,0.2-1.4,0.6c0,0.4,0.4,0.6,1,0.8C32.4,33.4,32.7,33.4,32.9,32.9z"/>
<path class="st0" d="M25.5,24.3c-0.7-1.4-1.4-1-2.5-0.3c-1.2,0.7-4.4,1.4-5.4,1.4c-1.3-0.1-2.1-0.1-2.1,1.4c0,1.5,0.9,6.6,3.6,8.4
	c2.7,1.8,4.1,1.3,4.2,1.2c0.2,0,1.7-0.8,2.9-3C27.8,30.5,26.2,25.6,25.5,24.3z M22.8,27.3c0.6-0.3,1.4,0,1.6,0.4
	c0.2,0.4-0.3,0.7-0.9,1c-0.6,0.3-1.2,0.5-1.4-0.1C21.9,28.3,22.2,27.6,22.8,27.3z M18,29.3c0-0.4,0.6-1,1.3-1c0.7,0,1.2,0.5,1.2,0.9
	c0,0.6-0.6,0.6-1.3,0.6C18.6,29.8,18,29.7,18,29.3z M22.5,34.2c-1.4,0.3-2.6-0.6-2.8-1.1c-0.3-0.5,0.2-0.2,0.2-0.2
	c0.8,0.3,2.3,0,2.4,0c0,0,1.5-0.4,2.1-1c0,0,0.3-0.4,0.3,0.1C24.5,32.5,23.9,33.8,22.5,34.2z"/>
<path class="st0" d="M29.5,32.2c0.2-0.4,0-1.2-1.1-1.1c-0.3,0-0.5,0.1-0.7,0.2c0,0.3-0.1,0.6-0.2,1c0.2,0.1,0.4,0.2,0.7,0.2
	C28.9,32.7,29.3,32.6,29.5,32.2z"/>
<path class="st0" d="M27.4,27.2c0.1,0.5,0.2,1,0.2,1.5c0.9,0.4,2.4,0.6,2.8,0.7c0.8,0.1,2.3,0.3,3.3,0.2l0,0c0.2,0,0.5-0.1,0.7-0.1
	c0,0.1,0,0.1,0,0.2c0.1,0.6,0,2.1-0.4,3.8c-0.2,0.9-0.5,1.6-0.8,2.3c-0.4,0.7-0.8,1.2-1.2,1.6c-0.9,0.7-1.8,1.1-2.3,1.2
	c-0.4,0.1-0.7,0.1-0.7,0.2c-0.2,0-0.4-0.2-0.6-0.2c-0.4-0.3-1.1-0.8-1.9-2c-0.2-0.4-0.4-0.8-0.6-1.3c-0.3,0.4-0.6,0.8-1,1.1
	c0.1,0.3,0.3,0.6,0.5,0.9c1.8,2.7,3.3,2.8,3.4,2.8c0.1,0,0.5,0,1.2-0.2c0.7-0.2,1.7-0.6,2.7-1.5c2.6-2,3-7.2,2.9-8.7
	c-0.1-1.5-0.9-1.4-2.2-1.3c-1.3,0.2-4.6-0.4-5.5-0.9C27.9,27.4,27.6,27.3,27.4,27.2z"/>
<path class="st0" d="M27.5,36.2c0.6-0.3,1.9-0.1,1.9-0.1c0.1,0,1.3,0.3,1.8,0.8c0,0,0.3,0.3,0.2-0.1c0-0.5-0.6-1.5-1.7-1.8
	c-1.2-0.2-2.1,0.6-2.3,1C27.1,36.5,27.5,36.2,27.5,36.2z"/>
<path class="st0" d="M35.8,8.8c0.3,0,0.5-0.2,0.5-0.5v-3c0-0.3-0.2-0.5-0.5-0.5H14.1c-0.3,0-0.5,0.2-0.5,0.5v3
	c0,0.3,0.2,0.5,0.5,0.5s0.5-0.2,0.5-0.5V5.8h20.6v2.4C35.2,8.5,35.5,8.8,35.8,8.8z"/>
</svg>
