<svg id="Layer_1" data-name="Layer 1" xmlns="http://www.w3.org/2000/svg" viewBox="0 0 50.46 50.46"><defs><style>.cls-1{fill:#00b5e4;}</style></defs><title>Iconos</title><path class="cls-1" d="M41.78,10.43H32.45a1.1,1.1,0,0,0-1.07,1.13v3a1,1,0,0,1-.72,1.08H19.21a1,1,0,0,1-.72-1.08v-3a1.1,1.1,0,0,0-1.07-1.13H8.09a0.77,0.77,0,0,0-.77.77V42.29a3.25,3.25,0,0,0,3,3.47H39.6a3.25,3.25,0,0,0,3-3.47V11.21A0.77,0.77,0,0,0,41.78,10.43ZM41,42.29a1.75,1.75,0,0,1-1.41,1.92H10.27a1.75,1.75,0,0,1-1.41-1.92V12h8.08v2.58a2.47,2.47,0,0,0,2.27,2.62H30.66a2.47,2.47,0,0,0,2.27-2.62V12H41V42.29Z"/><path class="cls-1" d="M32.86,32.92a1.15,1.15,0,0,0-.74-1c-1-.45-1.4.2-1.4,0.64s0.38,0.61,1,.76S32.75,33.35,32.86,32.92Z"/><path class="cls-1" d="M25.46,24.26c-0.73-1.36-1.37-1-2.52-.31a16,16,0,0,1-5.42,1.36c-1.33-.05-2.08-0.09-2.09,1.45S16.3,33.38,19,35.19s4.07,1.29,4.23,1.24a6.85,6.85,0,0,0,2.92-3C27.77,30.53,26.19,25.62,25.46,24.26Zm-2.64,3.08a1.28,1.28,0,0,1,1.57.41c0.17,0.41-.3.72-0.92,1s-1.2.53-1.4-.06A1.19,1.19,0,0,1,22.82,27.34ZM18,29.3a1.28,1.28,0,0,1,1.28-1,1.19,1.19,0,0,1,1.22.93c0,0.62-.59.6-1.26,0.6S18,29.74,18,29.3Zm4.42,4.88a2.73,2.73,0,0,1-2.8-1.06c-0.25-.49.2-0.23,0.2-0.23a5.59,5.59,0,0,0,2.36,0,5.49,5.49,0,0,0,2.05-1s0.29-.43.27,0.12A2.64,2.64,0,0,1,22.45,34.18Z"/><path class="cls-1" d="M29.45,32.23c0.16-.41,0-1.17-1.08-1.09a1.35,1.35,0,0,0-.69.24,8.46,8.46,0,0,1-.17,1,1.51,1.51,0,0,0,.71.23C28.88,32.66,29.29,32.64,29.45,32.23Z"/><path class="cls-1" d="M27.45,27.19c0.09,0.48.17,1,.22,1.46a15.28,15.28,0,0,0,2.83.71,13.52,13.52,0,0,0,3.26.21h0c0.24,0,.55-0.07.75-0.08,0,0.05,0,.13,0,0.22a13.65,13.65,0,0,1-.39,3.76,10.45,10.45,0,0,1-.8,2.27,4.72,4.72,0,0,1-1.22,1.59,7,7,0,0,1-2.29,1.23,3.73,3.73,0,0,1-.73.15,1.67,1.67,0,0,1-.56-0.23,6.46,6.46,0,0,1-1.88-2,4.23,4.23,0,0,1-.56-1.34,9.88,9.88,0,0,1-1,1.11,4.86,4.86,0,0,0,.48.92c1.82,2.73,3.25,2.77,3.42,2.79a4,4,0,0,0,1.15-.21,8.17,8.17,0,0,0,2.71-1.45c2.58-2,3-7.18,2.88-8.71s-0.88-1.43-2.21-1.26a16,16,0,0,1-5.52-.85Z"/><path class="cls-1" d="M27.51,36.25a4.44,4.44,0,0,1,1.88-.08,4.53,4.53,0,0,1,1.78.78s0.25,0.35.23-.11a2.25,2.25,0,0,0-1.75-1.76,2.17,2.17,0,0,0-2.3,1C27.15,36.48,27.51,36.25,27.51,36.25Z"/><path class="cls-1" d="M35.77,8.78a0.55,0.55,0,0,0,.55-0.55v-3a0.55,0.55,0,0,0-.55-0.55H14.11a0.55,0.55,0,0,0-.55.55v3a0.55,0.55,0,1,0,1.1,0V5.8H35.22V8.23A0.55,0.55,0,0,0,35.77,8.78Z"/></svg>