<svg id="Layer_1" data-name="Layer 1" xmlns="http://www.w3.org/2000/svg" viewBox="0 0 50.46 50.46"><defs><style>.cls-1{fill:none;stroke:#12b5e1;stroke-linecap:round;stroke-linejoin:round;stroke-width:1.8px;}</style></defs><title>telefono lineal</title><path class="cls-1" d="M32.16,43.42a17.54,17.54,0,0,0,5.38,1.21,5.72,5.72,0,0,0,4.91-1.86c.91-1,1.94-2,2.9-2.93a3,3,0,0,0,0-4.63c-1.7-1.71-3.41-3.4-5.11-5.1a3,3,0,0,0-4.55,0q-1.6,1.58-3.18,3.18a.62.62,0,0,1-.87.16c-.69-.38-1.42-.68-2.09-1.09a33,33,0,0,1-7.95-7.24,18.64,18.64,0,0,1-2.85-4.57.64.64,0,0,1,.16-.84c1.06-1,2.1-2.08,3.14-3.14a3,3,0,0,0,0-4.66l-2.49-2.5L17,6.84a3,3,0,0,0-4.55,0C11.37,7.9,10.34,9,9.25,10a5.15,5.15,0,0,0-1.62,3.49,14.81,14.81,0,0,0,1.14,6.38,38.53,38.53,0,0,0,6.88,11.45,42.76,42.76,0,0,0,9,8.11"/><path class="cls-1" d="M29.51,42.26l.11.05s0,0,0,0"/><path class="cls-1" d="M24.66,39.45c.95.64,1.94,1.24,2.95,1.81"/><path class="cls-1" d="M16.4,15l.13.12"/><path class="cls-1" d="M11.05,8.25a44.09,44.09,0,0,0,3.29,4.45"/></svg>