<svg xmlns="http://www.w3.org/2000/svg" viewBox="0 0 50.46 50.46">
  <title>Iconos</title>
  <path d="M29.51,10.36a3,3,0,0,0-.52.05,3,3,0,0,0-5.82,0,3,3,0,0,0-3.52,2.95v0.31a13.47,13.47,0,0,0-3.56,2.85,13.27,13.27,0,0,0-3.35,8.83c0,2.21,0,6.08,0,6.08a1,1,0,0,0,.81,1c0.18,0,2.2.69,5.05,1.26l1,0.19c0.67,0.12,1.38.23,2.11,0.33a35.43,35.43,0,0,0,4.57.32,39.91,39.91,0,0,0,12.27-2.1,1,1,0,0,0,.78-0.94c0-.16.14-3.92,0.14-6.12a13.35,13.35,0,0,0-6.92-11.69v-0.3A3,3,0,0,0,29.51,10.36ZM23.65,19.8a1,1,0,0,1-2,0V13.36a1,1,0,0,1,2,0V19.8Zm3.43,1.46a1,1,0,0,1-2,0V11.11a1,1,0,0,1,2,0V21.26Zm3.43-1.46a1,1,0,0,1-2,0V13.36a1,1,0,0,1,2,0V19.8Z" fill="#00b5e4"/>
  <path d="M18.13,39.32c1.8,2.45,5.32,3.09,7.89,3.09s6.1-.64,7.89-3.09C36.67,35.57,39,37,39,34.51H38.5a40.83,40.83,0,0,1-12.26,2,46.64,46.64,0,0,1-12.66-2H13.07C13.07,37,15.38,35.57,18.13,39.32Z" fill="#00b5e4"/>
</svg>
