<?xml version="1.0" encoding="utf-8"?>
<!-- Generator: Adobe Illustrator 24.2.1, SVG Export Plug-In . SVG Version: 6.00 Build 0)  -->
<svg version="1.1" id="Layer_1" xmlns="http://www.w3.org/2000/svg" xmlns:xlink="http://www.w3.org/1999/xlink" x="0px" y="0px"
	 viewBox="0 0 50.5 50.5" style="enable-background:new 0 0 50.5 50.5;" xml:space="preserve">
<path d="M43.1,44.9c-3.5-5.7-10.4-9.3-17.8-9.3c-7.5,0-14.3,3.6-17.8,9.3c-0.2,0.2-0.2,0.6,0,0.8c0.1,0.3,0.4,0.4,0.7,0.4h34.3
	c0.3,0,0.6-0.2,0.7-0.4C43.2,45.5,43.2,45.2,43.1,44.9z M9.6,44.5c3.4-4.5,9.3-7.3,15.6-7.3s12.2,2.8,15.6,7.3H9.6z M10.9,22.2h1.9
	c0.2,6.7,5.7,12,12.4,12s12.2-5.4,12.4-12h1.9c1.5,0,2.7-1.3,2.7-2.9s-1.2-2.9-2.7-2.9h-1.1c-1.4-4.6-4.5-8.2-8.6-9.8
	c-0.1-1.3-1-2.3-2.2-2.3c-0.9,0-1.7,0.6-2,1.4c-0.4,0-0.7,0-1.1,0c-0.3-0.9-1.1-1.4-2-1.4c-1.2,0-2.2,1.1-2.2,2.4v0
	c-3.9,1.7-6.9,5.2-8.3,9.6h-1.1c-1.5,0-2.7,1.3-2.7,2.9S9.4,22.2,10.9,22.2z M25.2,32.6c-5.8,0-10.5-4.6-10.8-10.3H36
	C35.8,28,31,32.6,25.2,32.6z M10.9,18h1.8c0.4,0,0.7-0.3,0.8-0.6c1.1-4.4,4.1-7.9,8-9.3c0.3-0.1,0.5-0.4,0.5-0.8V6.7
	c0-0.4,0.3-0.8,0.6-0.8c0.3,0,0.5,0.3,0.6,0.7c0,0.2,0.1,0.5,0.3,0.6c0.2,0.2,0.4,0.2,0.6,0.2c0.7-0.1,1.5-0.1,2.2,0
	c0.2,0,0.5,0,0.6-0.2c0.2-0.1,0.3-0.4,0.3-0.6c0-0.4,0.3-0.7,0.6-0.7c0.3,0,0.6,0.4,0.6,0.8v0.5c0,0.4,0.2,0.7,0.6,0.8
	c4,1.4,7.1,4.9,8.2,9.4c0.1,0.4,0.4,0.6,0.8,0.6h1.8c0.6,0,1,0.6,1,1.3s-0.5,1.3-1,1.3H10.9c-0.6,0-1-0.6-1-1.3S10.3,18,10.9,18z
	 M22.9,18.4c1.1,0.8,2.2,1.1,3.2,1.1c1.6,0,3-0.7,3.9-1.4c0.4,0.1,0.9,0.2,1.4,0.2c0,0,0.1,0,0.1,0c0.5,0,0.9-0.4,1-0.9
	c0.1-0.5-0.3-1-0.9-1.1c-0.3,0-0.5-0.1-0.7-0.1c0.1-0.9-0.1-2.2-1-3.3c-1.2-1.4-3-1.6-4.2-1.6c-0.3,0-0.7,0-0.9-0.1
	c-1.5-0.5-2.5-1.6-2.5-1.7c-0.2-0.3-0.6-0.4-0.9-0.4c-0.4,0-0.7,0.3-0.8,0.6C20.1,11.8,19.6,16,22.9,18.4z M22.3,12.1
	c0.6,0.4,1.3,0.8,2.1,1.1c0.4,0.1,0.8,0.1,1.3,0.2c1,0.1,2.2,0.1,2.8,0.9c0.4,0.4,0.5,1,0.5,1.4c-0.3-0.1-0.6-0.3-0.9-0.5
	c-0.5-0.2-1.1,0-1.3,0.4c-0.2,0.5,0,1.1,0.4,1.3c0.2,0.1,0.3,0.1,0.4,0.2c-1,0.4-2.3,0.6-3.6-0.4C22.3,15.5,22.2,13.5,22.3,12.1z"/>
</svg>
