<?xml version="1.0" encoding="utf-8"?>
<!-- Generator: Adobe Illustrator 18.0.0, SVG Export Plug-In . SVG Version: 6.00 Build 0)  -->
<!DOCTYPE svg PUBLIC "-//W3C//DTD SVG 1.1//EN" "http://www.w3.org/Graphics/SVG/1.1/DTD/svg11.dtd">
<svg version="1.1" id="Layer_1" xmlns="http://www.w3.org/2000/svg" xmlns:xlink="http://www.w3.org/1999/xlink" x="0px" y="0px"
	 viewBox="0 0 50.5 50.5" style="enable-background:new 0 0 50.5 50.5;" xml:space="preserve">
<style type="text/css">
	.st0{fill:#65B4E1;}
</style>
<path class="st0" d="M29.5,10.4c-0.2,0-0.4,0-0.5,0.1c-0.3-1.3-1.5-2.3-2.9-2.3c-1.4,0-2.6,1-2.9,2.3c-0.2,0-0.3-0.1-0.5-0.1
	c-1.7,0-3,1.3-3,3v0.3c-1.3,0.7-2.6,1.7-3.6,2.9c-2.1,2.4-3.4,5.4-3.4,8.8c0,2.2,0,6.1,0,6.1c0,0.5,0.3,0.9,0.8,1
	c0.2,0,2.2,0.7,5.1,1.3c0.3,0.1,0.6,0.1,1,0.2c0.7,0.1,1.4,0.2,2.1,0.3c1.5,0.2,3,0.3,4.6,0.3c6.6,0,12-2,12.3-2.1
	c0.4-0.1,0.8-0.5,0.8-0.9c0-0.2,0.1-3.9,0.1-6.1c0-5-2.8-9.4-6.9-11.7v-0.3C32.5,11.7,31.2,10.4,29.5,10.4z M23.6,19.8
	c0,0.6-0.4,1-1,1s-1-0.4-1-1v-6.4c0-0.6,0.4-1,1-1s1,0.4,1,1V19.8z M27.1,21.3c0,0.6-0.4,1-1,1s-1-0.4-1-1V11.1c0-0.6,0.4-1,1-1
	s1,0.4,1,1V21.3z M30.5,19.8c0,0.6-0.4,1-1,1s-1-0.4-1-1v-6.4c0-0.6,0.4-1,1-1s1,0.4,1,1V19.8z"/>
<path class="st0" d="M18.1,39.3c1.8,2.5,5.3,3.1,7.9,3.1s6.1-0.6,7.9-3.1c2.7-3.7,5.1-2.4,5.1-4.8h-0.5c-5.1,1.6-9.5,2-12.3,2
	c-3.8,0-8-0.7-12.7-2h-0.5C13.1,37,15.4,35.6,18.1,39.3z"/>
</svg>
