<svg id="Layer_1" data-name="Layer 1" xmlns="http://www.w3.org/2000/svg" viewBox="0 0 50.46 50.46"><defs><style>.cls-1{fill:#00b5e4;}</style></defs><title>Iconos</title><path class="cls-1" d="M31.08,40.25c-2.13,1.36-4.95,1.36-8.17,1.36-6.31,0-11.07,0-12.12-10,2.11,2,6,3,12.16,3a34.87,34.87,0,0,0,6-.45,10.3,10.3,0,0,1-.12-1.46c0-.12,0-0.25,0-0.37a32,32,0,0,1-5.93.48c-5.75,0-9.36-.85-11-2.59a5.2,5.2,0,0,1-1.33-2.91c0-.11,0-0.22,0-0.33h0a27.25,27.25,0,0,1-.06-4.13c0-.8.06-1.62,0.06-2.47a12.44,12.44,0,0,1,7.8-11.52V11a0.9,0.9,0,0,0,1.8,0V8.26A12.36,12.36,0,0,1,22,8v4.59a0.9,0.9,0,0,0,1.8,0V8a12.37,12.37,0,0,1,1.9.28V11a0.9,0.9,0,1,0,1.8,0V8.81a12.44,12.44,0,0,1,7.85,11.54c0,0.61,0,1.22,0,1.81s0,0.88,0,1.31a9.88,9.88,0,0,1,1.8-.46c0-.29,0-0.58,0-0.88,0-.58,0-1.18,0-1.78A14.24,14.24,0,0,0,27.53,6.89V6.06a0.9,0.9,0,0,0-1.8,0V6.4a14.23,14.23,0,0,0-1.9-.23V3.64a0.9,0.9,0,0,0-1.8,0V6.17a14.23,14.23,0,0,0-1.9.24V6.06a0.9,0.9,0,0,0-1.8,0V6.91a14.24,14.24,0,0,0-9.6,13.44c0,0.82,0,1.62-.05,2.4a26.4,26.4,0,0,0,.11,4.68c0.12,14.85,5.69,16,14.14,16,3.59,0,6.65-.21,9-1.6C31.63,41.3,31.35,40.78,31.08,40.25Z"/><path class="cls-1" d="M38.87,25a7.64,7.64,0,0,0-5.54,2.21,7.43,7.43,0,0,0-2.25,5.33c0,5.57,6.67,13.92,7,14.27l0.24,0.3a0.25,0.25,0,0,0,.19.09h0a0.25,0.25,0,0,0,.19-0.09l0.25-.29c0.31-.36,7.5-8.77,7.5-14.05A7.67,7.67,0,0,0,38.87,25ZM41.31,35.3a3.68,3.68,0,0,1-2.57,1H38.68A3.69,3.69,0,0,1,38.74,29H38.8A3.69,3.69,0,0,1,41.31,35.3Z"/></svg>