<?xml version="1.0" encoding="utf-8"?>
<!-- Generator: Adobe Illustrator 18.0.0, SVG Export Plug-In . SVG Version: 6.00 Build 0)  -->
<!DOCTYPE svg PUBLIC "-//W3C//DTD SVG 1.1//EN" "http://www.w3.org/Graphics/SVG/1.1/DTD/svg11.dtd">
<svg version="1.1" id="Layer_1" xmlns="http://www.w3.org/2000/svg" xmlns:xlink="http://www.w3.org/1999/xlink" x="0px" y="0px"
	 viewBox="0 0 50.5 50.5" style="enable-background:new 0 0 50.5 50.5;" xml:space="preserve">
<style type="text/css">
	.st0{fill:#65B4E1;}
</style>
<g>
	<g>
		<path class="st0" d="M31.1,40.2c-2.1,1.4-4.9,1.4-8.2,1.4c-6.3,0-11.1,0-12.1-10c2.1,2,6,3,12.2,3c2.3,0,4.3-0.1,6-0.5
			c-0.1-0.5-0.1-1-0.1-1.5c0-0.1,0-0.2,0-0.4c-1.6,0.3-3.6,0.5-5.9,0.5c-5.7,0-9.4-0.8-11-2.6c-0.8-0.8-1.1-1.8-1.3-2.9
			c0-0.1,0-0.2,0-0.3h0c-0.2-1.2-0.1-2.6-0.1-4.1c0-0.8,0.1-1.6,0.1-2.5c0-5.2,3.2-9.7,7.8-11.5V11c0,0.5,0.4,0.9,0.9,0.9
			s0.9-0.4,0.9-0.9V8.3C20.7,8.1,21.4,8,22,8v4.6c0,0.5,0.4,0.9,0.9,0.9c0.5,0,0.9-0.4,0.9-0.9V8c0.6,0,1.3,0.1,1.9,0.3V11
			c0,0.5,0.4,0.9,0.9,0.9s0.9-0.4,0.9-0.9V8.8c4.6,1.8,7.8,6.3,7.8,11.5c0,0.6,0,1.2,0,1.8c0,0.4,0,0.9,0,1.3
			c0.6-0.2,1.2-0.4,1.8-0.5c0-0.3,0-0.6,0-0.9c0-0.6,0-1.2,0-1.8c0-6.2-4-11.5-9.6-13.5V6.1c0-0.5-0.4-0.9-0.9-0.9s-0.9,0.4-0.9,0.9
			v0.3c-0.6-0.1-1.3-0.2-1.9-0.2V3.6c0-0.5-0.4-0.9-0.9-0.9c-0.5,0-0.9,0.4-0.9,0.9v2.5c-0.6,0-1.3,0.1-1.9,0.2V6.1
			c0-0.5-0.4-0.9-0.9-0.9s-0.9,0.4-0.9,0.9v0.8c-5.6,1.9-9.6,7.2-9.6,13.4c0,0.8,0,1.6-0.1,2.4c-0.1,1.6-0.1,3.2,0.1,4.7
			c0.1,14.8,5.7,16,14.1,16c3.6,0,6.7-0.2,9-1.6C31.6,41.3,31.4,40.8,31.1,40.2z"/>
		<path class="st0" d="M38.9,25c-2.1,0-4.1,0.8-5.5,2.2c-1.4,1.4-2.2,3.3-2.2,5.3c0,5.6,6.7,13.9,7,14.3l0.2,0.3
			c0,0.1,0.1,0.1,0.2,0.1c0,0,0,0,0,0c0.1,0,0.1,0,0.2-0.1l0.2-0.3c0.3-0.4,7.5-8.8,7.5-14.1C46.4,28.5,43.1,25.1,38.9,25z
			 M41.3,35.3c-0.7,0.7-1.6,1-2.6,1l-0.1,0c-1,0-1.9-0.4-2.6-1.1c-0.7-0.7-1.1-1.6-1-2.6c0-1,0.4-1.9,1.1-2.6c0.7-0.7,1.6-1,2.6-1
			l0.1,0c1,0,1.9,0.4,2.6,1.1c0.7,0.7,1.1,1.6,1,2.6C42.4,33.7,42,34.6,41.3,35.3z"/>
	</g>
</g>
</svg>
