<?xml version="1.0" encoding="utf-8"?>
<!-- Generator: Adobe Illustrator 16.0.0, SVG Export Plug-In . SVG Version: 6.00 Build 0)  -->
<!DOCTYPE svg PUBLIC "-//W3C//DTD SVG 1.1//EN" "http://www.w3.org/Graphics/SVG/1.1/DTD/svg11.dtd">
<svg version="1.1" id="Layer_1" xmlns="http://www.w3.org/2000/svg" xmlns:xlink="http://www.w3.org/1999/xlink" x="0px" y="0px"
	 width="1366px" height="557px" viewBox="0 0 1366 557" enable-background="new 0 0 1366 557" xml:space="preserve">
<g>
	<path d="M730.693,202.268l-95.153,0.186c-2.367,0-4.362-1.948-4.362-4.385l0.65-96.36c0-2.412,1.949-4.407,4.385-4.407h75.641
		c2.414,0,3.944,2.042,4.315,4.407C718.535,115.444,733.014,196.56,730.693,202.268 M538.507,97.301h62.809
		c2.436,0,4.385,2.135,4.432,4.408l1.81,82.832c-25.012-16.312-54.502-24.479-85.455-28.563l12.042-54.316
		C534.609,99.343,536.094,97.301,538.507,97.301z M459.874,91.918l26.59,0.95l-28.492,99.979c15.615-4.315,27.75-5.686,40.441-6.313
		c13.922-0.626,28.586,0,49.398,6.45c15.685,4.896,30.511,11.88,43.969,20.721c38.145,24.874,66.104,64.109,76.174,110.051
		l0.51,2.413v0.186c2.343,10.952,3.62,22.414,3.62,34.063l-0.046,4.687v0.511v0.464c-0.232,7.981-0.951,15.871-2.181,23.574
		l109.747-0.187l49.422-0.094c12.391-40.141,49.886-69.422,93.877-69.422c29.422,0,55.918,12.946,73.924,33.598h12.482
		l-0.232-48.633l-17.771-3.342l10.395-74.271l-10.023-13.249l-135.595-1.856l0.741-100.304c0-1.903-1.67-3.527-3.526-3.527H822.02
		c-1.855,0-3.525,1.671-3.525,3.527l-0.743,99.956l-56.382-1.137L732.18,56.72l-261.633-0.187L459.874,91.918z"/>
	<path d="M495.397,222.987c76.568,0,138.658,62.137,138.658,138.729c0,76.614-62.09,138.751-138.658,138.751
		c-76.591,0-138.705-62.137-138.705-138.751C356.692,285.124,418.759,222.987,495.397,222.987z"/>
	<path d="M922.16,349.65c41.578,0,75.361,33.689,75.361,75.269s-33.689,75.361-75.361,75.361c-41.578,0-75.27-33.782-75.27-75.361
		C846.893,383.341,880.674,349.65,922.16,349.65z"/>
	<path fill="#FFFFFF" d="M495.397,292.967c37.982,0,68.772,30.79,68.772,68.749c0,38.053-30.79,68.771-68.772,68.771
		c-38.005,0-68.795-30.72-68.795-68.771C426.602,323.757,457.392,292.967,495.397,292.967"/>
	<path fill="#FFFFFF" d="M922.16,387.609c20.697,0,37.355,16.752,37.355,37.31c0,20.696-16.752,37.355-37.355,37.355
		s-37.311-16.752-37.311-37.355C884.852,404.361,901.604,387.609,922.16,387.609"/>
</g>
</svg>
