<svg xmlns="http://www.w3.org/2000/svg" viewBox="0 0 50.46 50.46">
  <title>Iconos</title>
  <g>
    <path d="M44.54,9.54H6.41a3.11,3.11,0,0,0-3.11,3.11v25a3.11,3.11,0,0,0,3.11,3.11H44.54a3.11,3.11,0,0,0,3.11-3.11v-25A3.11,3.11,0,0,0,44.54,9.54Zm1.33,28.14A1.33,1.33,0,0,1,44.54,39H6.41a1.33,1.33,0,0,1-1.33-1.33v-25a1.33,1.33,0,0,1,1.33-1.33H44.54a1.33,1.33,0,0,1,1.33,1.33v25Z" fill="#00b5e4"/>
    <path d="M35.17,17.31a0.71,0.71,0,0,0-.52-0.22H22.91a0.74,0.74,0,0,0-.73.73V20H20.34a2,2,0,0,0-1.25.52l-2.27,2.27a1.57,1.57,0,0,0-.26.34,2.11,2.11,0,0,0-.16.35,1.89,1.89,0,0,0-.07.42q0,0.27,0,.4c0,0.08,0,.23,0,0.44s0,0.34,0,.4v3.67a0.74,0.74,0,0,0-.73.73,0.91,0.91,0,0,0,0,.3,0.43,0.43,0,0,0,.15.21L16,30.22a0.63,0.63,0,0,0,.27.07l0.26,0h1.28a2.94,2.94,0,0,0,5,2.08,2.83,2.83,0,0,0,.86-2.08H28a2.94,2.94,0,0,0,5.87,0h0.55l0.26,0A0.62,0.62,0,0,0,35,30.22l0.19-.13a0.44,0.44,0,0,0,.15-0.21,0.91,0.91,0,0,0,0-.3V17.82A0.71,0.71,0,0,0,35.17,17.31Zm-13.43,14a1.44,1.44,0,1,1,.44-1A1.41,1.41,0,0,1,21.74,31.34Zm0.44-6.91H17.77V24.09a0.34,0.34,0,0,1,.1-0.25l2.24-2.24a0.34,0.34,0,0,1,.25-0.1h1.81v2.94ZM32,31.34a1.44,1.44,0,1,1,.44-1A1.41,1.41,0,0,1,32,31.34Z" fill="#00b5e4"/>
  </g>
</svg>
