<svg id="eefb3b97-6a0e-4c0d-9b85-63866e9eadcf" data-name="stroke 1,6" xmlns="http://www.w3.org/2000/svg" viewBox="0 0 50.46 50.46"><path d="M9.359,27.065H6.711A1.87,1.87,0,0,1,4.847,25.2h0a1.869,1.869,0,0,1,1.864-1.863H9.373" fill="none" stroke="#000" stroke-linecap="round" stroke-linejoin="round" stroke-width="1.098"/><line x1="15.89" y1="27.065" x2="12.642" y2="27.065" fill="none" stroke="#000" stroke-linecap="round" stroke-linejoin="round" stroke-width="1.464"/><line x1="26.353" y1="27.065" x2="19.051" y2="27.065" fill="none" stroke="#000" stroke-linecap="round" stroke-linejoin="round" stroke-width="1.098"/><path d="M39.655,23.3l4.386.034A1.766,1.766,0,0,1,45.679,25.2h0a1.767,1.767,0,0,1-1.638,1.864H39.5" fill="none" stroke="#000" stroke-linecap="round" stroke-linejoin="round" stroke-width="1.098"/><line x1="19.101" y1="23.338" x2="26.454" y2="23.338" fill="none" stroke="#000" stroke-linecap="round" stroke-linejoin="round" stroke-width="1.098"/><line x1="12.617" y1="23.338" x2="15.853" y2="23.338" fill="none" stroke="#000" stroke-linecap="round" stroke-linejoin="round" stroke-width="1.464"/><path d="M20.222,11.363v-2.3a1.448,1.448,0,0,1,1.345-1.532h7.642a1.448,1.448,0,0,1,1.345,1.532v2.3" fill="none" stroke="#000" stroke-linecap="round" stroke-linejoin="round" stroke-width="1.171"/><rect x="27.038" y="15.035" width="12.454" height="20.066" rx="2.526" fill="none" stroke="#000" stroke-linecap="round" stroke-linejoin="round" stroke-width="1.098"/><line x1="30.856" y1="15.234" x2="30.856" y2="34.852" fill="none" stroke="#000" stroke-linecap="round" stroke-linejoin="round" stroke-width="1.098"/><line x1="35.549" y1="15.16" x2="35.549" y2="34.952" fill="none" stroke="#000" stroke-linecap="round" stroke-linejoin="round" stroke-width="1.098"/><line x1="27.063" y1="20.276" x2="39.364" y2="20.276" fill="none" stroke="#000" stroke-linecap="round" stroke-linejoin="round" stroke-width="1.098"/><line x1="27.063" y1="30.11" x2="39.336" y2="30.11" fill="none" stroke="#000" stroke-linecap="round" stroke-linejoin="round" stroke-width="1.098"/><line x1="27.063" y1="25.218" x2="39.449" y2="25.218" fill="none" stroke="#000" stroke-linecap="round" stroke-linejoin="round" stroke-width="1.098"/><rect x="9.689" y="22.123" width="2.535" height="6.689" rx="1.268" fill="none" stroke="#000" stroke-linecap="round" stroke-linejoin="round" stroke-width="1.098"/><rect x="16.228" y="22.123" width="2.535" height="6.689" rx="1.268" fill="none" stroke="#000" stroke-linecap="round" stroke-linejoin="round" stroke-width="1.098"/><path d="M43.784,27.262l-2.211,8.1c-.609,2.349-2.161,3.53-3.931,3.53H12.6A3.936,3.936,0,0,1,8.82,36.046l-2.361-8.9" fill="none" stroke="#000" stroke-linecap="round" stroke-linejoin="round" stroke-width="1.464"/><path d="M6.332,23.271l2.613-8.98a3.936,3.936,0,0,1,3.769-2.8H38.081a3.836,3.836,0,0,1,3.766,2.828l1.947,8.657" fill="none" stroke="#000" stroke-linecap="round" stroke-linejoin="round" stroke-width="1.464"/><path d="M28.377,38.9a3.936,3.936,0,0,1-3.783-2.849L22.166,27.6a3.953,3.953,0,0,1-.153-1.087V23.851a3.928,3.928,0,0,1,.167-1.135l2.539-8.425a3.936,3.936,0,0,1,3.769-2.8" fill="none" stroke="#000" stroke-linecap="round" stroke-linejoin="round" stroke-width="1.464"/><path d="M18.146,20.331l1.881-6.241" fill="none" stroke="#000" stroke-linecap="round" stroke-linejoin="round" stroke-width="1.098"/><path d="M14.552,20.331l1.881-6.241" fill="none" stroke="#000" stroke-linecap="round" stroke-linejoin="round" stroke-width="1.098"/><path d="M10.833,20.331l1.881-6.241" fill="none" stroke="#000" stroke-linecap="round" stroke-linejoin="round" stroke-width="1.098"/></svg>