<?xml version="1.0" encoding="utf-8"?>
<!-- Generator: Adobe Illustrator 16.0.0, SVG Export Plug-In . SVG Version: 6.00 Build 0)  -->
<!DOCTYPE svg PUBLIC "-//W3C//DTD SVG 1.1//EN" "http://www.w3.org/Graphics/SVG/1.1/DTD/svg11.dtd">
<svg version="1.1" id="Layer_1" xmlns="http://www.w3.org/2000/svg" xmlns:xlink="http://www.w3.org/1999/xlink" x="0px" y="0px"
	 width="1366px" height="557px" viewBox="0 0 1366 557" enable-background="new 0 0 1366 557" xml:space="preserve">
<g>
	<path d="M147.363,398.84c-6.265-6.403-7.425-57.635-4.942-66.08c1.949-6.59,7.981-6.59,11.207-6.867l15.313-242.466
		c-0.394-4.942-0.812-7.077,1.694-11.88c2.297-4.339,5.8-8.144,8.33-9.838c2.459-1.81,6.079-1.717,12.877-1.764
		c294.37-0.324,588.764-0.719,883.156-0.997c24.037-0.14,35.035,12.646,45.755,31.184c18.562,31.161,54.944,72.253,68.169,102.625
		c10.116,23.202,16.381,98.355,20.279,126.917c0.464,6.961,11.275,0.372,13.133,9.745c5.15,25.849,4.27,65.709-23.063,72.113
		c-0.788,0.186-11.973,29.143-15.685,31.556l-98.657-0.558c0.278-2.691,0.371-5.383,0.371-8.12
		c0-51.649-41.856-93.553-93.553-93.553c-51.603,0-93.506,41.902-93.506,93.553c0,2.46,0.046,4.872,0.325,7.192l-330.915-1.718
		c3.109-53.689-39.421-99.027-93.32-99.027c-38.099,0-70.884,22.785-85.478,55.547c-14.594-32.669-44.386-55.5-89.283-55.5
		c-44.92,0-90.095,41.95-89.678,93.552v1.671C185.949,425.292,171.749,424.085,147.363,398.84z"/>
	<path d="M302.518,355.219c39.421,0,71.371,31.929,71.371,71.371c0,39.444-31.95,71.464-71.371,71.464
		c-39.444,0-71.371-32.02-71.371-71.464C231.147,387.147,263.074,355.219,302.518,355.219z"/>
	<path d="M477.14,355.219c39.444,0,71.371,31.929,71.371,71.371c0,39.444-31.927,71.464-71.371,71.464
		c-39.491,0-71.417-32.02-71.417-71.464C405.723,387.147,437.696,355.219,477.14,355.219z"/>
	<path d="M993.79,355.219c39.444,0,71.371,31.929,71.371,71.371c0,39.444-31.927,71.464-71.371,71.464s-71.371-32.02-71.371-71.464
		C922.418,387.147,954.345,355.219,993.79,355.219z"/>
	<path fill="#FFFFFF" d="M838.983,109.088h134.063c2.831,0,5.06,2.599,5.06,5.894v81.765c0,3.318-2.229,5.986-5.06,5.986H838.983
		c-2.738,0-5.012-2.668-5.012-5.986v-81.765C833.972,111.641,836.245,109.088,838.983,109.088"/>
	<path fill="#FFFFFF" d="M652.62,109.088h134.157c2.738,0,4.966,2.599,4.966,5.894v81.765c0,3.318-2.32,5.986-4.966,5.986H652.62
		c-2.761,0-5.035-2.668-5.035-5.986v-81.765C647.539,111.641,649.859,109.088,652.62,109.088z"/>
	<path fill="#FFFFFF" d="M466.258,109.088h134.087c2.854,0,5.151,2.599,5.151,5.894v81.765c0,3.318-2.344,5.986-5.151,5.986H466.258
		c-2.761,0-5.035-2.668-5.035-5.986v-81.765C461.223,111.641,463.45,109.088,466.258,109.088z"/>
	<path fill="#FFFFFF" d="M279.942,109.088h134.087c2.808,0,5.035,2.599,5.035,5.894v81.765c0,3.318-2.228,5.986-5.035,5.986H279.942
		c-2.854,0-5.035-2.668-5.035-5.986v-81.765C274.907,111.641,277.134,109.088,279.942,109.088z"/>
	<path fill="#FFFFFF" d="M1156.485,186.445c1.113,40.048,2.043,78.263,2.366,118.564c0,3.248-2.366,5.985-5.059,5.985
		c-73.227,5.244-121.58-63.783-129.748-112.764v-84.689c0-3.225,2.32-5.939,5.104-5.939h62.646c2.783,0,12.111,2.715,12.111,5.939
		L1156.485,186.445z"/>
	<path fill="#FFFFFF" d="M302.518,391.23c19.56,0,35.384,15.777,35.384,35.359c0,19.583-15.824,35.407-35.384,35.407
		c-19.583,0-35.407-15.824-35.407-35.407C267.111,407.008,282.981,391.23,302.518,391.23"/>
	<path fill="#FFFFFF" d="M477.14,391.23c19.536,0,35.36,15.777,35.36,35.359c0,19.583-15.824,35.407-35.36,35.407
		c-19.583,0-35.454-15.824-35.454-35.407C441.687,407.008,457.604,391.23,477.14,391.23"/>
	<path fill="#FFFFFF" d="M993.79,391.23c19.583,0,35.36,15.777,35.36,35.359c0,19.583-15.777,35.407-35.36,35.407
		s-35.453-15.824-35.453-35.407C958.336,407.008,974.207,391.23,993.79,391.23"/>
</g>
</svg>
