<?xml version="1.0" encoding="utf-8"?>
<!-- Generator: Adobe Illustrator 18.0.0, SVG Export Plug-In . SVG Version: 6.00 Build 0)  -->
<!DOCTYPE svg PUBLIC "-//W3C//DTD SVG 1.1//EN" "http://www.w3.org/Graphics/SVG/1.1/DTD/svg11.dtd">
<svg version="1.1" id="Layer_1" xmlns="http://www.w3.org/2000/svg" xmlns:xlink="http://www.w3.org/1999/xlink" x="0px" y="0px"
	 viewBox="0 0 50.5 50.5" style="enable-background:new 0 0 50.5 50.5;" xml:space="preserve">
<style type="text/css">
	.st0{fill:#65B4E1;}
</style>
<g>
	<g>
		<path class="st0" d="M44.5,9.5H6.4c-1.7,0-3.1,1.4-3.1,3.1v25c0,1.7,1.4,3.1,3.1,3.1h38.1c1.7,0,3.1-1.4,3.1-3.1v-25
			C47.7,10.9,46.3,9.5,44.5,9.5z M45.9,37.7c0,0.7-0.6,1.3-1.3,1.3H6.4c-0.7,0-1.3-0.6-1.3-1.3v-25c0-0.7,0.6-1.3,1.3-1.3h38.1
			c0.7,0,1.3,0.6,1.3,1.3V37.7z"/>
		<g>
			<path class="st0" d="M35.2,17.3c-0.1-0.1-0.3-0.2-0.5-0.2H22.9c-0.2,0-0.4,0.1-0.5,0.2c-0.1,0.1-0.2,0.3-0.2,0.5V20h-1.8
				c-0.2,0-0.4,0-0.7,0.1c-0.2,0.1-0.4,0.2-0.6,0.4l-2.3,2.3c-0.1,0.1-0.2,0.2-0.3,0.3c-0.1,0.1-0.1,0.2-0.2,0.3
				c0,0.1-0.1,0.2-0.1,0.4c0,0.2,0,0.3,0,0.4c0,0.1,0,0.2,0,0.4c0,0.2,0,0.3,0,0.4v3.7c-0.2,0-0.4,0.1-0.5,0.2
				c-0.1,0.1-0.2,0.3-0.2,0.5c0,0.1,0,0.2,0,0.3c0,0.1,0.1,0.2,0.2,0.2c0.1,0.1,0.1,0.1,0.2,0.1c0.1,0,0.1,0.1,0.3,0.1
				c0.1,0,0.2,0,0.3,0c0,0,0.1,0,0.3,0c0.1,0,0.2,0,0.3,0h0.7c0,0.8,0.3,1.5,0.9,2.1c0.6,0.6,1.3,0.9,2.1,0.9c0.8,0,1.5-0.3,2.1-0.9
				c0.6-0.6,0.9-1.3,0.9-2.1H28c0,0.8,0.3,1.5,0.9,2.1c0.6,0.6,1.3,0.9,2.1,0.9c0.8,0,1.5-0.3,2.1-0.9c0.6-0.6,0.9-1.3,0.9-2.1
				c0,0,0.1,0,0.3,0c0.1,0,0.2,0,0.3,0c0,0,0.1,0,0.3,0c0.1,0,0.2,0,0.3-0.1c0.1,0,0.1-0.1,0.2-0.1c0.1-0.1,0.1-0.1,0.2-0.2
				c0-0.1,0-0.2,0-0.3V17.8C35.4,17.6,35.3,17.5,35.2,17.3z M21.7,31.3c-0.3,0.3-0.6,0.4-1,0.4c-0.4,0-0.7-0.1-1-0.4
				c-0.3-0.3-0.4-0.6-0.4-1c0-0.4,0.1-0.7,0.4-1c0.3-0.3,0.6-0.4,1-0.4c0.4,0,0.7,0.1,1,0.4c0.3,0.3,0.4,0.6,0.4,1
				C22.2,30.7,22,31,21.7,31.3z M22.2,24.4h-4.4v-0.3c0-0.1,0-0.2,0.1-0.3l2.2-2.2c0.1-0.1,0.2-0.1,0.3-0.1h1.8V24.4z M32,31.3
				c-0.3,0.3-0.6,0.4-1,0.4c-0.4,0-0.7-0.1-1-0.4c-0.3-0.3-0.4-0.6-0.4-1c0-0.4,0.1-0.7,0.4-1c0.3-0.3,0.6-0.4,1-0.4
				c0.4,0,0.7,0.1,1,0.4c0.3,0.3,0.4,0.6,0.4,1C32.5,30.7,32.3,31,32,31.3z"/>
		</g>
	</g>
</g>
</svg>
