<?xml version="1.0" encoding="utf-8"?>
<!-- Generator: Adobe Illustrator 16.0.0, SVG Export Plug-In . SVG Version: 6.00 Build 0)  -->
<!DOCTYPE svg PUBLIC "-//W3C//DTD SVG 1.1//EN" "http://www.w3.org/Graphics/SVG/1.1/DTD/svg11.dtd">
<svg version="1.1" id="Layer_1" xmlns="http://www.w3.org/2000/svg" xmlns:xlink="http://www.w3.org/1999/xlink" x="0px" y="0px"
	 width="1366px" height="557px" viewBox="0 0 1366 557" enable-background="new 0 0 1366 557" xml:space="preserve">
<g>
	<path d="M423.693,358.315c38.399,0,69.467,31.091,69.467,69.513c0,38.377-31.068,69.515-69.467,69.515s-69.49-31.138-69.49-69.515
		C354.202,389.406,385.293,358.315,423.693,358.315z"/>
	<path d="M982.074,358.315c38.375,0,69.467,31.091,69.467,69.513c0,38.377-31.092,69.515-69.467,69.515
		c-38.377,0-69.467-31.138-69.467-69.515C912.607,389.406,943.697,358.315,982.074,358.315z"/>
	<path d="M941.563,203.209c26.08,26.59,47.891,51.694,57.356,59.861c29.978,3.387,78.794,28.191,100.001,40.952
		c8.027,6.403,13.039,25.894,19.352,43.897c4.824,1.948,21.623,7.702,21.623,14.479v42.878c-1.578,10.72-9.143,19.489-13.039,26.729
		l-55.406,5.289c0.695-4.547,0.975-9.233,0.975-14.014c0-52.576-42.553-95.222-95.128-95.222c-52.53,0-95.129,42.599-95.129,95.222
		c0,5.568,0.464,11.09,1.438,16.521c-107.287-2.507-256.779-3.944-365.643-4.084c0.557-4.083,0.812-8.261,0.812-12.437
		c0-52.576-42.576-95.222-95.128-95.222c-52.506,0-95.128,42.599-95.128,95.222c0,2.97,0.139,5.939,0.417,8.91l-78.168-14.479
		c-12.39-2.228-22.576-3.201-22.993-18.887c-0.673-21.901-1.531-59.305-1.67-68.075c0-3.201,9.165-4.361,9.118-7.609
		c-0.51-65.337,4.385-146.498,19.072-207.426c7.169-29.792,23.411-55.105,40.325-56.058l437.893,0.998
		C800.123,60.655,896.645,157.454,941.563,203.209z"/>
	<path fill="#FFFFFF" d="M410.514,148.313h126.985c2.645,0,4.849,2.482,4.849,5.615v77.401c0,3.18-2.204,5.662-4.849,5.662H410.514
		c-2.599,0-4.733-2.482-4.733-5.662v-77.355C405.78,150.843,407.915,148.313,410.514,148.313"/>
	<path fill="#FFFFFF" d="M856.086,157.199c-1.206-0.998-2.553-2.042-3.896-2.854c-3.248-1.856-7.24-3.133-10.813-4.13l-60.279-4.178
		c-3.248-0.231-8.354-0.186-10.859,2.413c-1.762,1.856-1.901,4.617-1.717,7.007c1.949,20.417,1.902,47.61,6.357,67.657
		c1.484,6.543,3.898,14.153,9.281,18.631c2.783,2.32,6.125,3.597,9.697,4.315l144.271,15.638l0.232-11.555L856.086,157.199z"/>
	<path fill="#FFFFFF" d="M593.857,148.313h126.915c2.691,0,4.826,2.482,4.826,5.615v77.401c0,3.18-2.135,5.662-4.826,5.662H593.857
		c-2.668,0-4.803-2.482-4.803-5.662v-77.355C589.054,150.843,591.189,148.313,593.857,148.313z"/>
	<path fill="#FFFFFF" d="M423.693,393.396c19.002,0,34.455,15.406,34.455,34.479c0,19.073-15.406,34.433-34.455,34.433
		c-19.072,0-34.455-15.452-34.455-34.479C389.237,408.755,404.62,393.396,423.693,393.396z"/>
	<path fill="#FFFFFF" d="M982.074,393.396c18.979,0,34.479,15.406,34.479,34.479c0,19.073-15.406,34.479-34.479,34.479
		c-19.073,0-34.479-15.406-34.479-34.479C947.595,408.803,963.002,393.396,982.074,393.396z"/>
</g>
</svg>
