<?xml version="1.0" encoding="utf-8"?>
<!-- Generator: Adobe Illustrator 16.0.0, SVG Export Plug-In . SVG Version: 6.00 Build 0)  -->
<!DOCTYPE svg PUBLIC "-//W3C//DTD SVG 1.1//EN" "http://www.w3.org/Graphics/SVG/1.1/DTD/svg11.dtd">
<svg version="1.1" id="Layer_1" xmlns="http://www.w3.org/2000/svg" xmlns:xlink="http://www.w3.org/1999/xlink" x="0px" y="0px"
	 width="1366px" height="557px" viewBox="0 0 1366 557" enable-background="new 0 0 1366 557" xml:space="preserve">
<g>
	<path d="M421.833,324.377c45.94,0,83.157,37.217,83.157,83.158c0,45.94-37.263,83.157-83.157,83.157
		c-46.011,0-83.204-37.217-83.204-83.157C338.629,361.594,375.821,324.377,421.833,324.377z"/>
	<path d="M958.319,213.864c35.918,4.037,91.743,11.229,117.128,26.613c6.403,4.246,17.864,46.057,20.788,55.268
		c5.755,2.344,25.896,9.144,25.896,17.355v51.277c-1.949,12.901-10.998,23.39-15.687,32.021l-45.939,5.384
		c-3.017-60.837-53.366-109.261-114.991-109.261c-62.926,0-114.064,50.465-115.039,113.158h-4.965
		c-127.799-2.971-158.705-4.733-288.871-4.92c-3.527-60.419-53.621-108.285-114.854-108.285
		c-59.886,0-108.936,45.547-114.573,103.878c-21.161-10.627-60.837-18.794-61.44-39.678c-0.719-26.265-1.717-70.999-1.902-81.51
		c0-1.555,8.979-4.548,19.861-6.938c-2.947-2.993-4.757-7.03-4.757-11.532V140.218c0-9.024,7.425-16.449,16.497-16.449h22.715
		c9.072,0,16.474,7.563,16.474,16.449v43.946c12.321-21.903,19.537-36.429,43.157-70.373c27.333-39.235,56.267-48.471,101.79-47.402
		l254.438,6.126c68.771,0.882,74.989,8.585,130.213,53.598L958.319,213.864z"/>
	<path d="M945.791,324.377c45.94,0,83.251,37.217,83.251,83.158c0,45.94-37.311,83.157-83.251,83.157s-83.157-37.217-83.157-83.157
		C862.633,361.594,899.85,324.377,945.791,324.377z"/>
	<path fill="#FFFFFF" d="M457.472,100.312h17.958c4.362,0,7.843,4.548,7.843,7.843v84.109c0,3.409-4.385,7.818-7.843,7.818h-76.568
		c-19.42,0-17.518-9.723-11.973-21.416l27.843-58.447C424.339,100.009,435.174,100.312,457.472,100.312"/>
	<path fill="#FFFFFF" d="M515.57,100.312l132.625,2.599c4.315,0.047,7.844,4.131,7.844,7.843v81.512
		c0,3.688-4.131,7.818-7.844,7.818H515.57c-3.735,0-7.843-3.504-7.843-7.818v-84.109
		C507.728,103.815,511.255,100.266,515.57,100.312z"/>
	<path fill="#FFFFFF" d="M421.833,366.234c22.762,0,41.185,18.516,41.185,41.301s-18.423,41.3-41.185,41.3
		c-22.809,0-41.301-18.515-41.301-41.3S399.024,366.234,421.833,366.234z"/>
	<path fill="#FFFFFF" d="M695.064,105.253c-3.943-0.302-9.978-0.255-12.946,2.947c-2.135,2.134-2.319,5.498-2.089,8.354
		l-0.14,73.272c1.811,8.121,4.549,10.511,12.438,12.02l185.248,8.282l2.042-18.724l-82.229-65.688
		c-12.482-9.931-23.76-15.384-42.414-17.959C739.938,105.717,724.903,105.207,695.064,105.253z"/>
	<path fill="#FFFFFF" d="M945.791,366.234c22.832,0,41.301,18.516,41.301,41.301s-18.469,41.3-41.301,41.3
		c-22.738,0-41.207-18.515-41.207-41.3S923.052,366.234,945.791,366.234z"/>
</g>
</svg>
