<?xml version="1.0" encoding="utf-8"?>
<!-- Generator: Adobe Illustrator 18.0.0, SVG Export Plug-In . SVG Version: 6.00 Build 0)  -->
<!DOCTYPE svg PUBLIC "-//W3C//DTD SVG 1.1//EN" "http://www.w3.org/Graphics/SVG/1.1/DTD/svg11.dtd">
<svg version="1.1" id="Layer_1" xmlns="http://www.w3.org/2000/svg" xmlns:xlink="http://www.w3.org/1999/xlink" x="0px" y="0px"
	 viewBox="0 0 50.5 50.5" style="enable-background:new 0 0 50.5 50.5;" xml:space="preserve">
<style type="text/css">
	.st0{fill:#65B4E1;}
</style>
<g>
	<g>
		<path class="st0" d="M11.4,27.4c-0.1,0.1-0.2,0.3-0.2,0.5c0,0.1,0,0.2,0,0.3c0,0.1,0.1,0.1,0.1,0.2c0.1,0,0.1,0.1,0.2,0.1
			s0.1,0.1,0.2,0.1c0.1,0,0.2,0,0.2,0c0,0,0.1,0,0.3,0c0.1,0,0.2,0,0.2,0h0.7c0,0.7,0.3,1.4,0.8,1.9c0.5,0.5,1.2,0.8,1.9,0.8
			c0.7,0,1.4-0.3,1.9-0.8c0.5-0.5,0.8-1.2,0.8-1.9h9.6c0,0.7,0.3,1.4,0.8,1.9c0.5,0.5,1.2,0.8,1.9,0.8c0.7,0,1.4-0.3,1.9-0.8
			c0.5-0.5,0.8-1.2,0.8-1.9c0,0,0.1,0,0.2,0c0.1,0,0.2,0,0.3,0c0,0,0.1,0,0.2,0c0.1,0,0.2,0,0.2-0.1c0,0,0.1-0.1,0.2-0.1
			c0.1,0,0.1-0.1,0.1-0.2c0-0.1,0-0.2,0-0.3v-8.2c0-0.2-0.1-0.3-0.2-0.5c-0.1-0.1-0.3-0.2-0.5-0.2l-18.7,0.1c-0.2,0-0.4,0-0.6,0.1
			c-0.2,0.1-0.4,0.2-0.5,0.3l-2.1,2.1c-0.1,0.1-0.2,0.2-0.2,0.3C12,22.1,12,22.2,12,22.3c0,0.1-0.1,0.2-0.1,0.4c0,0.2,0,0.3,0,0.4
			c0,0.1,0,0.2,0,0.4c0,0.2,0,0.3,0,0.4v3.4C11.7,27.2,11.5,27.3,11.4,27.4z M30.8,20.5h2.7v2.7h-2.7V20.5z M30,27.6
			c0.3-0.3,0.6-0.4,1-0.4c0.4,0,0.7,0.1,1,0.4c0.3,0.3,0.4,0.6,0.4,1c0,0.4-0.1,0.7-0.4,1c-0.3,0.3-0.6,0.4-1,0.4
			c-0.4,0-0.7-0.1-1-0.4c-0.3-0.3-0.4-0.6-0.4-1C29.6,28.2,29.7,27.9,30,27.6z M26.7,20.5h2.7v2.7h-2.7V20.5z M22.7,20.5h2.7v2.7
			h-2.7V20.5z M18.6,20.5h2.7v2.7h-2.7V20.5z M16.9,29.5c-0.3,0.3-0.6,0.4-1,0.4c-0.4,0-0.7-0.1-1-0.4c-0.3-0.3-0.4-0.6-0.4-1
			c0-0.4,0.1-0.7,0.4-1c0.3-0.3,0.6-0.4,1-0.4c0.4,0,0.7,0.1,1,0.4c0.3,0.3,0.4,0.6,0.4,1C17.3,29,17.2,29.3,16.9,29.5z M13.2,22.9
			c0-0.1,0-0.2,0.1-0.2l2.1-2.1c0.1-0.1,0.1-0.1,0.2-0.1h1.7v2.7h-4.1V22.9z"/>
		<path class="st0" d="M48.5,31.4l-1.1-1.1l-0.5-0.5l-0.5,0.4l-0.6,0.5V12.4c0-1.7-1.4-3.1-3.1-3.1H4.6c-1.7,0-3.1,1.4-3.1,3.1v25.1
			c0,1.7,1.4,3.1,3.1,3.1h31.9c-0.5-0.5-1-1.1-1.3-1.8H4.6c-0.7,0-1.3-0.6-1.3-1.3V12.4c0-0.7,0.6-1.3,1.3-1.3h38.1
			c0.7,0,1.3,0.6,1.3,1.3V30c0.5,0.3,1.1,0.6,1.5,1l-0.2,0.2l-0.5,0.5L44.5,32c-0.1-0.1-0.3-0.2-0.4-0.3c-0.8-0.6-1.8-0.9-2.9-0.9
			c-2.9,0-5.2,2.3-5.2,5.2c0,1.1,0.3,2.1,0.9,2.9c0.5,0.8,1.3,1.4,2.1,1.8c0.7,0.3,1.4,0.5,2.2,0.5c0.9,0,1.7-0.2,2.4-0.6
			c0.9-0.5,1.7-1.2,2.2-2.1c0.4-0.7,0.6-1.6,0.6-2.5c0-0.4,0-0.7-0.1-1.1l0.3-0.3l0.6-0.7l1.3-1.5l0.5-0.5L48.5,31.4z M46.6,33.4
			L46,34.1l-4.9,5.4v0l0,0l-3.8-4.8l1.4-1.2l2.4,2.4l4.2-3.7l0.5-0.5l1.1-0.9l1.1,1.1L46.6,33.4z"/>
	</g>
</g>
</svg>
