<?xml version="1.0" encoding="utf-8"?>
<!-- Generator: Adobe Illustrator 16.0.0, SVG Export Plug-In . SVG Version: 6.00 Build 0)  -->
<!DOCTYPE svg PUBLIC "-//W3C//DTD SVG 1.1//EN" "http://www.w3.org/Graphics/SVG/1.1/DTD/svg11.dtd">
<svg version="1.1" id="Layer_1" xmlns="http://www.w3.org/2000/svg" xmlns:xlink="http://www.w3.org/1999/xlink" x="0px" y="0px"
	 width="1366px" height="557px" viewBox="0 0 1366 557" enable-background="new 0 0 1366 557" xml:space="preserve">
<g>
	<path d="M840.591,189.923c4.733,3.48,10.58-1.229,14.016,0.998l51.694,31.37c4.779,1.996,2.878,3.805,6.219,4.896
		c17.077,3.805,36.382,5.754,52.252,9.931c18.189,4.756,100.373,29.978,108.4,68.843l-16.798,25.057
		c-17.819-11.881-39.166-18.842-62.136-18.842c-47.705,0-88.402,29.887-104.365,71.928l-7.609,14.016
		c-3.807-0.093-7.426,0.277-9.745,2.229c-3.343,2.783-6.312,6.959-9.42,9.931c-10.813,10.767-21.207,24.594-35.361,29.515H592
		c-1.671-2.972-3.434-5.941-5.128-8.91l-104.411,5.662c0.534-4.225,0.766-8.492,0.766-12.902
		c0-59.397-48.145-107.473-107.497-107.473c-23.365,0-44.99,7.471-62.624,20.139c-0.998-0.834-1.995-1.764-2.993-2.598
		c-11.973-11.046-28.516-22.183-41.625-32.879l-2.042-36.544l18.817-38.191l41.671,3.04l29.792-59.259
		c4.618-12.877,106.546-92.624,122.834-105.339l3.086-22.623c0.487-2.438,1.67-3.944,4.942-4.292l172.348,12.228l8.562,8.26
		l-0.139,4.896L840.591,189.923z"/>
	<path d="M1074.565,347.027l-12.763-12.251l13.922-21.253c8.121-12.299,6.914-32.368,11.74-34.504
		c2.971-1.321,9.188,0.72,11.23,4.943c2.83,5.938-1.811,24.407-7.055,37.217L1074.565,347.027z"/>
	<path d="M994.192,328.232c52.716,0,95.594,42.785,95.594,95.595s-42.785,95.548-95.594,95.548
		c-52.81,0-95.594-42.738-95.594-95.548C898.69,371.018,941.383,328.232,994.192,328.232z"/>
	<path fill="#FFFFFF" d="M994.192,384.893c21.485,0,38.887,17.449,38.887,38.842c0,21.531-17.4,38.98-38.887,38.98
		s-38.888-17.449-38.888-38.98C955.305,402.342,972.706,384.893,994.192,384.893z"/>
	<path d="M375.637,328.232c52.739,0,95.571,42.785,95.571,95.595s-42.762,95.548-95.571,95.548
		c-52.786,0-95.548-42.738-95.548-95.548S322.851,328.232,375.637,328.232z"/>
	<path fill="#FFFFFF" d="M375.637,384.893c21.485,0,38.864,17.449,38.864,38.842c0,21.531-17.379,38.98-38.864,38.98
		c-21.485,0-38.864-17.449-38.864-38.98C336.772,402.342,354.151,384.893,375.637,384.893z"/>
	<path fill="#FFFFFF" d="M1056.374,297.141c-4.78,1.556-34.896-2.25-40.326-4.152c-4.314-1.555-67.056-37.425-33.271-33.644
		c10.117,1.16,22.924,1.81,32.576,4.618c10.163,2.947,16.475,7.935,21.161,12.065
		C1040.133,279.322,1056.189,293.754,1056.374,297.141z"/>
	<path fill="#FFFFFF" d="M651.189,238.161c17.773-0.139,34.039,12.506,51.58,13.341l83.854,4.292c5.8-0.046,7.285-1.949,9.049-4.385
		l26.821-37.24c1.3-3.527,1.347-5.569-1.484-7.657L652.164,81.591c-4.246-2.761-3.063-2.622-3.156-8.237L505.362,63.145
		l-9.351,78.75c57.635-10.209,39.05,58.354,25.801,61.533l11.021,26.266l-75.988-1.23L476.66,99.11l-104.202,85.919l-16.01,46.869
		L651.189,238.161z"/>
	<path d="M753.999,233.59l-21.996-14.293c-0.186-0.139-0.371-0.278-0.557-0.464l-11.414,22.948c-1.578,3.04-5.244,4.315-8.354,2.807
		c-3.017-1.531-4.315-5.29-2.784-8.33l26.079-52.507c1.484-3.039,5.196-4.315,8.354-2.807c3.017,1.531,4.271,5.267,2.784,8.376
		l-10.673,21.37l30.163,10.511l17.634-19.049l28.725,4.849c2.273,0.371,3.619,2.042,3.666,3.04
		c0.094,4.037-25.337,35.198-28.862,40.627l-46.222-2.575L753.999,233.59z"/>
</g>
</svg>
