<?xml version="1.0" encoding="utf-8"?>
<!-- Generator: Adobe Illustrator 16.0.0, SVG Export Plug-In . SVG Version: 6.00 Build 0)  -->
<!DOCTYPE svg PUBLIC "-//W3C//DTD SVG 1.1//EN" "http://www.w3.org/Graphics/SVG/1.1/DTD/svg11.dtd">
<svg version="1.1" id="Layer_1" xmlns="http://www.w3.org/2000/svg" xmlns:xlink="http://www.w3.org/1999/xlink" x="0px" y="0px"
	 width="1366px" height="557px" viewBox="0 0 1366 557" enable-background="new 0 0 1366 557" xml:space="preserve">
<g>
	<path d="M607.092,364.942l-59.028-98.496c-5.522-9.188-14.501-14.548-25.128-17.818c-50.954-15.5-120.47-23.715-175.205-34.271
		c-5.708-0.998-9.652,1.461-11.091,4.617c-2.32,5.035-2.993,13.342-2.947,23.133l153.07,32.066
		c17.448,6.148,32.368,18.074,40.303,34.434l49.608,102.371c76.987-2.042,151.422-5.197,227.436-6.961
		c-0.094-12.81,1.763-26.544,5.289-38.331L607.092,364.942z"/>
	<path d="M428.221,298.605c58.541,0,106.014,47.496,106.014,106.015s-47.473,106.037-106.014,106.037
		s-106.014-47.52-106.014-106.037C322.207,346.102,369.68,298.605,428.221,298.605z"/>
	<path fill="#FFFFFF" d="M428.221,361.51c23.853,0,43.134,19.305,43.134,43.11c0,23.854-19.282,43.203-43.134,43.203
		c-23.806,0-43.111-19.351-43.111-43.203C385.11,380.813,404.415,361.51,428.221,361.51z"/>
	<path d="M936.085,298.605c58.472,0,105.944,47.496,105.944,106.015c0,17.819-4.362,34.572-12.065,49.236
		c-17.542,34.525-53.319,58.192-94.668,58.192c-58.519,0-106.036-47.428-106.036-105.99c0-17.773,4.361-34.526,12.157-49.237
		C858.866,322.343,894.598,298.605,936.085,298.605z"/>
	<path fill="#FFFFFF" d="M973.859,425.363c-7.285,13.364-21.531,22.46-37.866,22.46c-23.853,0-43.157-19.351-43.157-43.203
		c0-6.729,1.484-13.04,4.27-18.701l0.231-0.465c7.285-13.458,21.578-22.6,37.96-22.6c23.807,0,43.157,19.352,43.157,43.204
		C978.454,413.02,976.784,419.516,973.859,425.363z"/>
	<path d="M865.688,139.898l0.465-7.101l8.863-0.696c4.084-22.901-16.938-65.062-29.887-86.338l-34.572-0.813l-6.82,19.536
		l-46.313-3.805l-3.063,19.235l44.039,21.948l0.231,29.793l13.181,3.133l-0.465,9.838l-1.021,2.528l-116.479,34.646
		c-98.404-13.736-195.021-28.749-294.33-35.594l-11.161,16.914l-31.788-6.265c-3.898-0.487-5.244-0.998-8.469-0.951
		c-5.174,0-10.882,1.811-7.169,10.976c1.949,4.987,10.975,9.489,15.569,12.6c10.975,7.354,19.978,11.16,22.391,24.177
		l141.607,26.521c17.727,2.715,37.542,13.968,47.659,27.89c19.444,26.799,38.633,60.561,58.124,89.889l139.589-0.278
		c11.508-41.208,36.428-69.841,75.733-87.753l16.287,41.439c17.312-11.416,37.682-18.539,59.633-19.723
		c-1.485-3.806-18.563-43.482-16.149-43.622c25.431-10.604,62.556-12.366,107.06-2.134c2.319-6.799-5.431-23.481-8.957-30.326
		C991.4,190.017,891.861,144.353,865.688,139.898z"/>
	<path d="M978.639,246.47l45.711,4.339c16.612,1.555,19.443,20.604,19.443,33.412v50.791
		c-10.533-14.016-23.296-26.219-37.914-35.896v-14.711c0-6.381-3.201-10.836-6.914-11.602l-5.15-1.09
		c-3.666-0.813-5.059,6.356-5.059,12.69v4.78c-8.215-4.037-16.846-7.402-25.803-9.979v-17.424
		C962.908,253.36,972.096,245.865,978.639,246.47z"/>
</g>
</svg>
