<?xml version="1.0" encoding="utf-8"?>
<!-- Generator: Adobe Illustrator 19.0.0, SVG Export Plug-In . SVG Version: 6.00 Build 0)  -->
<svg version="1.1" id="stroke_1_x2C_6" xmlns="http://www.w3.org/2000/svg" xmlns:xlink="http://www.w3.org/1999/xlink" x="0px"
	 y="0px" viewBox="-395 272.8 50.5 50.5" style="enable-background:new -395 272.8 50.5 50.5;" xml:space="preserve">
<g>
	<path d="M-369.8,321.4c-12.9,0-23.4-10.5-23.4-23.4c0-12.9,10.5-23.3,23.4-23.3c12.9,0,23.4,10.5,23.4,23.4
		C-346.4,311-356.9,321.4-369.8,321.4z M-371.7,301c0.4,0.6,0.7,0.9,0.9,1.2c1.9,2.6,3.8,5.2,5.6,7.9c0.4,0.6,0.8,0.8,1.5,0.8
		c2,0,3.9,0,5.9,0c0.3,0,0.6,0,1.1-0.1c-0.2-0.4-0.4-0.6-0.5-0.8c-3.1-4.4-6.3-8.9-9.5-13.3c-0.4-0.6-0.4-0.9,0.1-1.4
		c2.6-3,5.2-6.1,7.8-9.1c0.2-0.3,0.4-0.5,0.7-0.9c-1.2-0.2-2.1-0.2-2.9,0.8c-2.1,2.6-4.3,5.1-6.4,7.6c-0.2,0.3-0.5,0.5-0.8,0.8
		c-0.3-0.4-0.5-0.6-0.7-0.9c-1.8-2.6-3.6-5.1-5.4-7.7c-0.3-0.5-0.7-0.7-1.4-0.7c-2.1,0-4.1,0-6.2,0c-0.3,0-0.6,0-1,0.1
		c0.4,0.5,0.6,0.9,0.8,1.2c3,4.2,5.9,8.3,8.9,12.4c0.4,0.6,0.4,0.9-0.1,1.5c-2.7,3.1-5.4,6.2-8,9.4c-0.2,0.3-0.5,0.6-0.8,1
		c1.3,0.2,2.2,0.1,3-0.9c2.2-2.7,4.6-5.4,6.8-8.1C-372,301.6-371.9,301.4-371.7,301z"/>
	<path d="M-379.3,287c1.1,0,2.1,0,3,0c0.2,0,0.5,0.2,0.6,0.4c5,7.1,10.1,14.1,15.1,21.2c0.1,0.1,0.1,0.3,0.2,0.5c-1.1,0-2.1,0-3.1,0
		c-0.2,0-0.4-0.2-0.6-0.4c-5-7.1-10.1-14.1-15.1-21.2C-379.1,287.4-379.1,287.2-379.3,287z"/>
</g>
</svg>
