<?xml version="1.0" encoding="utf-8"?>
<!-- Generator: Adobe Illustrator 24.2.1, SVG Export Plug-In . SVG Version: 6.00 Build 0)  -->
<svg version="1.1" id="Layer_1" xmlns="http://www.w3.org/2000/svg" xmlns:xlink="http://www.w3.org/1999/xlink" x="0px" y="0px"
	 viewBox="0 0 50.5 50.5" style="enable-background:new 0 0 50.5 50.5;" xml:space="preserve">
<path d="M42.4,16.4c0,0.4,0,0.8,0,1.1c0,11.7-8.9,25.2-25.2,25.2c-5,0-9.7-1.4-13.6-4c0.8,0.1,1.4,0.1,2.2,0.1c4.2,0,8-1.4,11-3.8
	c-3.9-0.1-7.2-2.7-8.2-6.2C9.1,29,9.7,29,10.2,29c0.8,0,1.6-0.1,2.4-0.3c-4.1-0.9-7.1-4.4-7.1-8.7v-0.1c1.1,0.7,2.6,1,4,1.1
	c-2.4-1.6-4-4.3-4-7.4c0-1.6,0.5-3.1,1.2-4.5c4.4,5.4,10.9,8.9,18.3,9.3c-0.1-0.7-0.2-1.3-0.2-2c0-4.9,4-8.8,8.8-8.8
	c2.6,0,4.8,1,6.4,2.8c2-0.5,3.9-1.2,5.6-2.3c-0.7,2.1-2.1,3.8-3.9,4.9c1.8-0.2,3.5-0.7,5.1-1.3C45.7,13.6,44.1,15.1,42.4,16.4
	L42.4,16.4z"/>
</svg>
