<?xml version="1.0" encoding="utf-8"?>
<!-- Generator: Adobe Illustrator 19.0.0, SVG Export Plug-In . SVG Version: 6.00 Build 0)  -->
<svg version="1.1" id="stroke_1_x2C_6" xmlns="http://www.w3.org/2000/svg" xmlns:xlink="http://www.w3.org/1999/xlink" x="0px"
	 y="0px" viewBox="-395 272.8 50.5 50.5" style="enable-background:new -395 272.8 50.5 50.5;" xml:space="preserve">
<path d="M-373.1,303.2c-0.4,0.6-0.5,1-0.8,1.4c-4,4.7-8,9.3-11.9,14c-1.4,1.8-3,1.9-5.2,1.6c0.5-0.7,0.9-1.2,1.3-1.7
	c4.6-5.4,9.3-10.9,13.9-16.3c0.8-1,0.8-1.6,0.1-2.6c-5.2-7.2-10.3-14.4-15.4-21.6c-0.4-0.6-0.8-1.2-1.5-2.1c0.8-0.1,1.3-0.1,1.8-0.1
	c3.6,0,7.1,0,10.7,0c1.1,0,1.7,0.4,2.4,1.3c3.1,4.5,6.3,8.9,9.4,13.3c0.3,0.5,0.7,0.9,1.2,1.6c0.5-0.6,0.9-1,1.3-1.5
	c3.7-4.4,7.6-8.7,11.2-13.2c1.4-1.8,3-1.7,5.1-1.4c-0.5,0.7-0.9,1.1-1.3,1.6c-4.5,5.3-9,10.5-13.5,15.8c-0.8,0.9-0.8,1.5-0.1,2.4
	c5.5,7.6,11,15.3,16.4,23c0.3,0.4,0.5,0.8,0.9,1.4c-0.8,0-1.3,0.1-1.9,0.1c-3.4,0-6.8,0-10.2,0c-1.2,0-1.9-0.4-2.6-1.4
	c-3.2-4.6-6.5-9.1-9.7-13.7C-371.9,304.8-372.3,304.3-373.1,303.2z M-386.2,278.8c0.2,0.5,0.3,0.7,0.4,0.9
	c8.7,12.3,17.5,24.6,26.2,36.8c0.2,0.3,0.6,0.7,1,0.7c1.7,0.1,3.5,0,5.4,0c-0.2-0.5-0.3-0.7-0.4-0.9c-8.7-12.3-17.5-24.6-26.2-36.8
	c-0.2-0.3-0.7-0.7-1.1-0.7C-382.7,278.7-384.3,278.8-386.2,278.8z"/>
</svg>
