<?xml version="1.0" encoding="utf-8"?>
<!-- Generator: Adobe Illustrator 24.2.1, SVG Export Plug-In . SVG Version: 6.00 Build 0)  -->
<svg version="1.1" id="Layer_1" xmlns="http://www.w3.org/2000/svg" xmlns:xlink="http://www.w3.org/1999/xlink" x="0px" y="0px"
	 viewBox="0 0 50.5 50.5" style="enable-background:new 0 0 50.5 50.5;" xml:space="preserve">
<path d="M36.4,20.6c0,7.6-5.8,16.3-16.4,16.3c-3.2,0-6.3-0.9-8.8-2.6c0.4,0.1,0.9,0.1,1.4,0.1c2.7,0,5.2-0.9,7.1-2.5
	c-2.5,0-4.6-1.7-5.4-4c0.4,0.1,0.7,0.1,1.1,0.1c0.5,0,1-0.1,1.5-0.2c-2.6-0.5-4.6-2.8-4.6-5.6v-0.1c0.8,0.4,1.7,0.7,2.6,0.7
	c-1.5-1-2.6-2.8-2.6-4.8c0-1.1,0.3-2,0.8-2.9c2.8,3.5,7.1,5.8,11.9,6c-0.1-0.4-0.1-0.9-0.1-1.3c0-3.2,2.6-5.7,5.7-5.7
	c1.7,0,3.2,0.7,4.2,1.8c1.3-0.3,2.5-0.7,3.6-1.4c-0.4,1.3-1.3,2.5-2.5,3.2c1.2-0.1,2.3-0.4,3.3-0.9c-0.8,1.1-1.8,2.2-2.9,3
	C36.4,20.1,36.4,20.3,36.4,20.6 M25.2,3.8c-11.8,0-21.4,9.6-21.4,21.4s9.6,21.4,21.4,21.4S46.6,37,46.6,25.2S37,3.8,25.2,3.8"/>
</svg>
