<?xml version="1.0" encoding="utf-8"?>
<!-- Generator: Adobe Illustrator 16.0.0, SVG Export Plug-In . SVG Version: 6.00 Build 0)  -->
<!DOCTYPE svg PUBLIC "-//W3C//DTD SVG 1.1//EN" "http://www.w3.org/Graphics/SVG/1.1/DTD/svg11.dtd">
<svg version="1.1" id="Layer_1" xmlns="http://www.w3.org/2000/svg" xmlns:xlink="http://www.w3.org/1999/xlink" x="0px" y="0px"
	 width="128.165px" height="128.165px" viewBox="-44.435 -33.27 128.165 128.165"
	 enable-background="new -44.435 -33.27 128.165 128.165" xml:space="preserve">
<g>
	<g>
		<g>
			<g>
				<path fill="#FFFFFF" d="M35.148,68.542c6.674-2.475,12.871-6.512,18.01-12.104c0.413-0.459,0.825-0.92,1.222-1.39v-0.003
					c-0.396,0.473-0.809,0.934-1.222,1.393C48.019,62.031,41.822,66.068,35.148,68.542z"/>
				<path fill="#FFFFFF" d="M13.538,61.9c-3.492-0.485-6.939-1.438-10.227-2.897C6.601,60.465,10.045,61.415,13.538,61.9
					L13.538,61.9z"/>
				<path fill="#FFFFFF" d="M18.351,62.258c-1.606-0.011-3.215-0.144-4.813-0.358l0,0C15.136,62.115,16.745,62.248,18.351,62.258z"
					/>
				<path fill="#FFFFFF" d="M-7.031,52.213c3.149,2.893,6.646,5.153,10.342,6.789C-0.384,57.361-3.882,55.106-7.031,52.213
					c-1.014-0.933-1.962-1.913-2.851-2.925l0,0C-8.993,50.298-8.044,51.281-7.031,52.213z"/>
				<path fill="#FFFFFF" d="M-9.881,49.289L-9.881,49.289c-2.217-2.523-4.057-5.274-5.499-8.175h-0.002
					C-13.938,44.014-12.098,46.765-9.881,49.289z"/>
				<path fill="#FFFFFF" d="M-13.249,58.986c-1.253-1.15-2.42-2.36-3.521-3.605h-0.003C-15.671,56.628-14.505,57.835-13.249,58.986
					c3.945,3.625,8.341,6.455,12.978,8.504l0,0C-4.908,65.444-9.303,62.611-13.249,58.986z"/>
				<path fill="#FFFFFF" d="M-16.769,55.38c-2.797-3.172-5.112-6.635-6.922-10.284l0,0C-21.881,48.751-19.571,52.208-16.769,55.38
					L-16.769,55.38z"/>
				<path fill="#FFFFFF" d="M12.394,71.044c1.976,0.271,3.959,0.429,5.945,0.445C16.353,71.473,14.372,71.316,12.394,71.044
					L12.394,71.044z"/>
				<path fill="#FFFFFF" d="M-0.271,67.49L-0.271,67.49c4.076,1.794,8.341,2.969,12.665,3.555l0,0
					C8.07,70.458,3.805,69.281-0.271,67.49z"/>
				<path fill="#089BD8" d="M59.904,32.726c-0.18,0.912-0.38,1.813-0.613,2.708c-0.548,2.105-1.259,4.141-2.111,6.105
					c-1.649,3.804-3.837,7.32-6.474,10.446l3.674,3.061v0.003c-0.396,0.47-0.809,0.931-1.222,1.39
					c-5.144,5.592-11.336,9.629-18.01,12.104c-0.45,0.171-0.896,0.326-1.34,0.478c-4.998,1.683-10.224,2.523-15.466,2.472
					c-1.986-0.016-3.97-0.176-5.945-0.441c-4.324-0.587-8.589-1.764-12.665-3.561c-4.637-2.043-9.033-4.873-12.978-8.501
					c-1.254-1.147-2.423-2.36-3.523-3.605c-2.795-3.175-5.109-6.632-6.919-10.284l-8.093,3.88c2.164,4.385,4.939,8.536,8.299,12.341
					c1.305,1.474,2.691,2.903,4.173,4.266c4.729,4.341,9.995,7.728,15.554,10.167c4.842,2.119,9.905,3.524,15.033,4.225
					c8.586,1.161,17.36,0.336,25.576-2.448c8.521-2.892,16.45-7.9,22.956-14.982c0.526-0.567,1.021-1.146,1.509-1.726
					c3.582-4.228,6.409-8.856,8.515-13.714c1.156-2.697,2.105-5.459,2.822-8.27c0.293-1.129,0.537-2.264,0.754-3.408L59.904,32.726z
					"/>
				<g>
					<path fill="#089BD8" d="M59.6,34.037c0.021-0.095,0.049-0.189,0.064-0.284C59.649,33.847,59.622,33.942,59.6,34.037z"/>
					<path fill="#089BD8" d="M47.243,49.104c-0.304,0.358-0.607,0.711-0.922,1.059c-3.875,4.217-8.498,7.331-13.484,9.345
						c-0.711,0.287-1.43,0.554-2.157,0.798c-3.372,1.129-6.873,1.777-10.406,1.921c-0.639,0.027-1.283,0.038-1.922,0.032
						c-1.606-0.016-3.215-0.146-4.813-0.363c-3.492-0.483-6.939-1.436-10.227-2.897c-3.695-1.637-7.193-3.896-10.342-6.784
						c-1.014-0.933-1.962-1.918-2.851-2.93c-2.219-2.523-4.057-5.272-5.499-8.173l4.493-2.154c1.244,2.49,2.828,4.856,4.734,7.03
						c0.778,0.882,1.606,1.744,2.492,2.559c2.714,2.491,5.729,4.434,8.913,5.855c2.865,1.275,5.866,2.124,8.905,2.545
						c4.977,0.684,10.061,0.233,14.834-1.352c5.063-1.682,9.774-4.629,13.639-8.829c0.255-0.285,0.505-0.58,0.76-0.871
						c2.149-2.515,3.848-5.282,5.101-8.186c0.651-1.504,1.194-3.05,1.602-4.618c0.195-0.735,0.353-1.481,0.493-2.228
						c0.05-0.242,0.099-0.48,0.136-0.723c0.293-1.799,0.439-3.616,0.439-5.437h5.004V24.7h4.304v-3.97v-39.592H37.747v5.975v37.226
						c0,3.454-0.438,6.534-1.313,9.239c-0.871,2.716-2.144,5.012-3.799,6.897c-1.654,1.877-3.688,3.318-6.083,4.33
						c-2.393,1.01-5.12,1.517-8.166,1.517c-3.05,0-5.77-0.507-8.166-1.517c-2.397-1.01-4.428-2.464-6.085-4.368
						c-1.659-1.905-2.926-4.211-3.798-6.925c-0.873-2.708-1.308-5.79-1.308-9.239v-37.161v-5.975h-22.729v39.586v5.305
						c0,1.349,0.056,2.673,0.153,3.978C-20.929,50.841-3.16,66.96,18.384,66.96c12.955,0,24.512-5.85,32.262-15.023L47.243,49.104z"
						/>
					<path fill="#089BD8" d="M58.59,37.722c0.043-0.128,0.081-0.261,0.119-0.392C58.671,37.461,58.633,37.594,58.59,37.722z"/>
				</g>
				<path fill="#FFFFFF" d="M46.326,50.166c0.315-0.348,0.619-0.7,0.923-1.059l0,0C46.945,49.465,46.641,49.818,46.326,50.166
					c-3.88,4.219-8.503,7.334-13.483,9.348C37.823,57.5,42.446,54.384,46.326,50.166z"/>
				<path fill="#089BD8" d="M47.249,49.107c-0.304,0.358-0.607,0.711-0.923,1.059c-3.88,4.219-8.503,7.334-13.483,9.348
					c-0.711,0.287-1.433,0.553-2.157,0.792c-3.373,1.129-6.878,1.782-10.406,1.924c-0.639,0.029-1.283,0.04-1.922,0.029
					c-1.606-0.011-3.215-0.144-4.812-0.358c-3.493-0.485-6.94-1.438-10.228-2.897c-3.698-1.639-7.193-3.896-10.342-6.789
					c-1.016-0.933-1.962-1.913-2.851-2.925c-2.217-2.523-4.056-5.274-5.499-8.175h0.003c-1.292-2.597-2.27-5.315-2.935-8.095
					l-4.531,0.912c0.713,3.229,1.792,6.322,3.2,9.226c1.638,3.386,3.716,6.512,6.155,9.32c4.07,4.686,9.158,8.463,14.914,10.991
					c3.604,1.58,7.471,2.662,11.517,3.186c1.79,0.229,3.607,0.364,5.458,0.364c4.852,0,9.513-0.825,13.849-2.334
					c7.255-2.513,13.609-6.951,18.461-12.698L47.249,49.107z"/>
			</g>
		</g>
	</g>
</g>
</svg>
