<?xml version="1.0" encoding="utf-8"?>
<!-- Generator: Adobe Illustrator 16.0.0, SVG Export Plug-In . SVG Version: 6.00 Build 0)  -->
<!DOCTYPE svg PUBLIC "-//W3C//DTD SVG 1.1//EN" "http://www.w3.org/Graphics/SVG/1.1/DTD/svg11.dtd">
<svg version="1.1" id="Layer_1" xmlns="http://www.w3.org/2000/svg" xmlns:xlink="http://www.w3.org/1999/xlink" x="0px" y="0px"
	 width="128.165px" height="128.165px" viewBox="0 0 128.165 128.165" enable-background="new 0 0 128.165 128.165"
	 xml:space="preserve">
<g>
	<g>
		<g>
			<g>
				<path fill="#FFFFFF" d="M78.416,101.81c6.674-2.475,12.871-6.511,18.01-12.104c0.413-0.459,0.825-0.92,1.222-1.39v-0.003
					c-0.396,0.473-0.809,0.934-1.222,1.393C91.287,95.3,85.089,99.336,78.416,101.81z"/>
				<path fill="#FFFFFF" d="M56.805,95.168c-3.492-0.484-6.938-1.438-10.227-2.896C49.869,93.734,53.312,94.684,56.805,95.168
					L56.805,95.168z"/>
				<path fill="#FFFFFF" d="M61.619,95.527c-1.606-0.011-3.215-0.144-4.813-0.358l0,0C58.404,95.384,60.012,95.517,61.619,95.527z"
					/>
				<path fill="#FFFFFF" d="M36.237,85.482c3.148,2.893,6.646,5.153,10.342,6.789C42.883,90.629,39.385,88.375,36.237,85.482
					c-1.015-0.933-1.963-1.913-2.852-2.925l0,0C34.274,83.567,35.223,84.55,36.237,85.482z"/>
				<path fill="#FFFFFF" d="M33.386,82.558L33.386,82.558c-2.217-2.523-4.057-5.274-5.499-8.175h-0.002
					C29.33,77.283,31.169,80.034,33.386,82.558z"/>
				<path fill="#FFFFFF" d="M30.018,92.254c-1.253-1.149-2.42-2.359-3.521-3.604h-0.003C27.596,89.897,28.762,91.104,30.018,92.254
					c3.945,3.625,8.341,6.455,12.979,8.505l0,0C38.359,98.712,33.964,95.879,30.018,92.254z"/>
				<path fill="#FFFFFF" d="M26.499,88.649c-2.797-3.172-5.112-6.635-6.922-10.284l0,0C21.386,82.02,23.697,85.477,26.499,88.649
					L26.499,88.649z"/>
				<path fill="#FFFFFF" d="M55.662,104.312c1.976,0.271,3.959,0.43,5.944,0.445C59.621,104.742,57.639,104.584,55.662,104.312
					L55.662,104.312z"/>
				<path fill="#FFFFFF" d="M42.997,100.759L42.997,100.759c4.076,1.793,8.341,2.969,12.665,3.555l0,0
					C51.337,103.726,47.073,102.55,42.997,100.759z"/>
				<path fill="#FFFFFF" d="M103.171,65.995c-0.18,0.912-0.38,1.813-0.613,2.708c-0.548,2.105-1.259,4.142-2.11,6.105
					c-1.649,3.804-3.838,7.319-6.475,10.445l3.674,3.062v0.003c-0.396,0.47-0.809,0.931-1.222,1.39
					c-5.144,5.593-11.336,9.629-18.01,12.104c-0.45,0.17-0.896,0.326-1.34,0.478c-4.998,1.683-10.225,2.522-15.467,2.472
					c-1.985-0.016-3.97-0.176-5.944-0.441c-4.324-0.586-8.589-1.764-12.665-3.561c-4.637-2.043-9.033-4.872-12.979-8.5
					c-1.254-1.147-2.423-2.36-3.522-3.605c-2.795-3.175-5.109-6.632-6.919-10.284l-8.093,3.88c2.163,4.386,4.938,8.536,8.299,12.342
					c1.305,1.474,2.69,2.902,4.173,4.266c4.729,4.341,9.995,7.728,15.554,10.166c4.842,2.119,9.905,3.524,15.033,4.226
					c8.586,1.161,17.36,0.336,25.576-2.448c8.521-2.892,16.45-7.9,22.956-14.981c0.525-0.567,1.021-1.146,1.509-1.726
					c3.582-4.229,6.409-8.856,8.516-13.715c1.156-2.696,2.104-5.459,2.821-8.27c0.294-1.129,0.537-2.264,0.755-3.408L103.171,65.995
					z"/>
				<g>
					<path fill="#FFFFFF" d="M102.868,67.306c0.021-0.096,0.049-0.189,0.063-0.284C102.917,67.116,102.889,67.21,102.868,67.306z"/>
					<path fill="#FFFFFF" d="M90.51,82.373c-0.304,0.358-0.606,0.711-0.922,1.06c-3.875,4.217-8.498,7.331-13.484,9.345
						c-0.711,0.287-1.43,0.554-2.156,0.798c-3.372,1.129-6.873,1.777-10.406,1.921c-0.64,0.027-1.283,0.038-1.922,0.032
						c-1.606-0.016-3.215-0.146-4.813-0.363c-3.492-0.482-6.938-1.436-10.227-2.896c-3.695-1.638-7.193-3.896-10.342-6.784
						c-1.015-0.933-1.963-1.918-2.852-2.93c-2.219-2.523-4.057-5.272-5.499-8.174l4.493-2.153c1.244,2.49,2.828,4.855,4.734,7.03
						c0.777,0.882,1.605,1.743,2.491,2.559c2.715,2.491,5.729,4.434,8.913,5.854c2.865,1.275,5.866,2.124,8.905,2.546
						c4.977,0.684,10.061,0.232,14.834-1.353c5.063-1.682,9.774-4.629,13.639-8.829c0.255-0.285,0.505-0.58,0.761-0.871
						c2.148-2.515,3.848-5.281,5.101-8.186c0.651-1.504,1.194-3.05,1.602-4.618c0.195-0.735,0.354-1.481,0.493-2.228
						c0.051-0.242,0.1-0.48,0.137-0.723c0.293-1.799,0.438-3.616,0.438-5.437h5.004v-0.003h4.305v-3.97V14.407H81.014v5.975v37.226
						c0,3.454-0.438,6.534-1.313,9.239c-0.871,2.716-2.145,5.012-3.8,6.896c-1.653,1.877-3.688,3.318-6.082,4.33
						c-2.394,1.01-5.12,1.518-8.166,1.518c-3.051,0-5.771-0.508-8.166-1.518c-2.397-1.01-4.429-2.464-6.086-4.368
						c-1.658-1.904-2.926-4.211-3.798-6.925c-0.873-2.708-1.308-5.79-1.308-9.239V20.381v-5.975H19.567v39.586v5.305
						c0,1.349,0.057,2.673,0.153,3.978c2.618,20.835,20.387,36.953,41.931,36.953c12.955,0,24.513-5.85,32.263-15.022L90.51,82.373z
						"/>
					<path fill="#FFFFFF" d="M101.857,70.991c0.043-0.128,0.081-0.261,0.119-0.392C101.938,70.73,101.9,70.863,101.857,70.991z"/>
				</g>
				<path fill="#FFFFFF" d="M89.593,83.435c0.315-0.349,0.619-0.7,0.923-1.06l0,0C90.212,82.734,89.909,83.086,89.593,83.435
					c-3.88,4.219-8.503,7.334-13.483,9.348C81.09,90.769,85.713,87.653,89.593,83.435z"/>
				<path fill="#FFFFFF" d="M90.516,82.375c-0.304,0.358-0.606,0.711-0.923,1.06c-3.88,4.219-8.503,7.334-13.483,9.348
					c-0.711,0.287-1.433,0.553-2.156,0.792c-3.373,1.129-6.878,1.782-10.406,1.924c-0.639,0.029-1.283,0.04-1.922,0.029
					c-1.606-0.011-3.215-0.144-4.813-0.358c-3.492-0.484-6.939-1.438-10.228-2.896c-3.698-1.639-7.193-3.896-10.342-6.789
					c-1.017-0.933-1.962-1.913-2.852-2.925c-2.217-2.523-4.056-5.274-5.499-8.175h0.003c-1.292-2.598-2.27-5.315-2.935-8.096
					l-4.531,0.912c0.713,3.229,1.792,6.322,3.2,9.227c1.638,3.386,3.716,6.512,6.155,9.319c4.069,4.687,9.157,8.463,14.914,10.991
					c3.604,1.58,7.471,2.662,11.517,3.186c1.79,0.229,3.607,0.364,5.458,0.364c4.852,0,9.513-0.825,13.849-2.334
					c7.256-2.513,13.609-6.951,18.461-12.698L90.516,82.375z"/>
			</g>
		</g>
	</g>
</g>
</svg>
