<?xml version="1.0" encoding="utf-8"?>
<!-- Generator: Adobe Illustrator 16.0.0, SVG Export Plug-In . SVG Version: 6.00 Build 0)  -->
<!DOCTYPE svg PUBLIC "-//W3C//DTD SVG 1.1//EN" "http://www.w3.org/Graphics/SVG/1.1/DTD/svg11.dtd">
<svg version="1.1" id="Layer_1" xmlns="http://www.w3.org/2000/svg" xmlns:xlink="http://www.w3.org/1999/xlink" x="0px" y="0px"
	 width="50.46px" height="50.46px" viewBox="0 0 50.46 50.46" enable-background="new 0 0 50.46 50.46" xml:space="preserve">
<g>
	<g>
		<g>
			<g>
				<path fill="#FFFFFF" d="M31.121,39.134c2.401-0.891,4.633-2.344,6.481-4.356c0.149-0.165,0.298-0.331,0.44-0.5v-0.001
					c-0.144,0.17-0.291,0.336-0.44,0.501C35.753,36.791,33.522,38.244,31.121,39.134z"/>
				<path fill="#FFFFFF" d="M23.343,36.744c-1.257-0.175-2.498-0.518-3.681-1.043C20.846,36.227,22.086,36.569,23.343,36.744
					L23.343,36.744z"/>
				<path fill="#FFFFFF" d="M25.075,36.873c-0.578-0.004-1.157-0.052-1.732-0.129l0,0C23.918,36.821,24.497,36.869,25.075,36.873z"
					/>
				<path fill="#FFFFFF" d="M15.94,33.257c1.133,1.041,2.392,1.854,3.722,2.443C18.332,35.11,17.073,34.298,15.94,33.257
					c-0.365-0.336-0.706-0.688-1.026-1.053l0,0C15.234,32.568,15.575,32.921,15.94,33.257z"/>
				<path fill="#FFFFFF" d="M14.914,32.205L14.914,32.205c-0.798-0.908-1.46-1.898-1.979-2.942h-0.001
					C13.454,30.306,14.116,31.296,14.914,32.205z"/>
				<path fill="#FFFFFF" d="M13.702,35.695c-0.451-0.414-0.871-0.85-1.267-1.298h-0.001C12.83,34.846,13.25,35.281,13.702,35.695
					c1.42,1.305,3.002,2.323,4.671,3.061l0,0C16.704,38.019,15.122,37,13.702,35.695z"/>
				<path fill="#FFFFFF" d="M12.435,34.397c-1.007-1.142-1.84-2.388-2.491-3.701l0,0C10.595,32.011,11.427,33.255,12.435,34.397
					L12.435,34.397z"/>
				<path fill="#FFFFFF" d="M22.931,40.035c0.711,0.098,1.425,0.154,2.14,0.16C24.356,40.189,23.643,40.132,22.931,40.035
					L22.931,40.035z"/>
				<path fill="#FFFFFF" d="M18.373,38.755L18.373,38.755c1.467,0.646,3.002,1.068,4.558,1.279l0,0
					C21.375,39.824,19.84,39.4,18.373,38.755z"/>
				<path fill="#089BD8" d="M40.03,26.244c-0.063,0.328-0.137,0.652-0.221,0.975c-0.196,0.758-0.452,1.49-0.759,2.197
					c-0.594,1.369-1.381,2.635-2.33,3.76l1.322,1.102v0.001c-0.144,0.169-0.291,0.335-0.44,0.5c-1.851,2.013-4.08,3.466-6.481,4.356
					c-0.162,0.062-0.322,0.117-0.482,0.172c-1.799,0.605-3.68,0.908-5.566,0.89c-0.715-0.006-1.429-0.063-2.14-0.159
					c-1.556-0.211-3.091-0.635-4.558-1.281c-1.669-0.735-3.251-1.754-4.671-3.06c-0.451-0.413-0.872-0.85-1.268-1.298
					c-1.006-1.143-1.839-2.387-2.49-3.701l-2.913,1.396c0.779,1.578,1.778,3.072,2.987,4.441c0.47,0.53,0.969,1.045,1.502,1.535
					c1.702,1.563,3.597,2.781,5.598,3.659c1.743,0.763,3.565,1.269,5.411,1.521c3.09,0.418,6.248,0.121,9.205-0.881
					c3.067-1.041,5.921-2.844,8.263-5.393c0.188-0.204,0.366-0.412,0.543-0.621c1.289-1.521,2.307-3.188,3.063-4.936
					c0.417-0.971,0.759-1.965,1.017-2.977c0.104-0.406,0.192-0.814,0.271-1.227L40.03,26.244z"/>
				<g>
					<path fill="#089BD8" d="M39.921,26.715c0.008-0.034,0.017-0.068,0.023-0.103C39.938,26.647,39.929,26.681,39.921,26.715z"/>
					<path fill="#089BD8" d="M35.474,32.138c-0.109,0.129-0.219,0.256-0.332,0.381c-1.395,1.518-3.059,2.639-4.854,3.363
						c-0.256,0.104-0.515,0.199-0.776,0.287c-1.214,0.406-2.474,0.64-3.745,0.691c-0.23,0.01-0.462,0.014-0.692,0.012
						c-0.578-0.006-1.157-0.053-1.732-0.131c-1.257-0.174-2.498-0.517-3.681-1.043c-1.33-0.589-2.589-1.402-3.722-2.441
						c-0.365-0.336-0.706-0.69-1.026-1.055c-0.799-0.908-1.46-1.897-1.979-2.941l1.617-0.775c0.448,0.896,1.018,1.748,1.704,2.53
						c0.28,0.317,0.578,0.628,0.897,0.921c0.977,0.896,2.062,1.596,3.208,2.107c1.031,0.459,2.111,0.765,3.205,0.916
						c1.791,0.246,3.621,0.084,5.339-0.486c1.822-0.605,3.519-1.666,4.908-3.178c0.093-0.103,0.183-0.209,0.274-0.313
						c0.773-0.905,1.384-1.901,1.836-2.946c0.234-0.541,0.429-1.098,0.576-1.662c0.07-0.265,0.127-0.533,0.178-0.802
						c0.017-0.086,0.035-0.172,0.049-0.259c0.105-0.648,0.158-1.302,0.158-1.957h1.8v-0.001h1.55v-1.429V7.677h-8.178v2.15v13.398
						c0,1.243-0.158,2.351-0.473,3.325c-0.313,0.978-0.771,1.804-1.367,2.482c-0.596,0.676-1.327,1.194-2.189,1.559
						c-0.861,0.363-1.843,0.546-2.939,0.546c-1.098,0-2.077-0.183-2.939-0.546c-0.863-0.363-1.594-0.887-2.19-1.572
						c-0.597-0.686-1.053-1.516-1.367-2.492c-0.314-0.975-0.471-2.084-0.471-3.326V9.827v-2.15h-8.18v14.247v1.909
						c0,0.486,0.02,0.962,0.055,1.432c0.942,7.498,7.337,13.3,15.091,13.3c4.663,0,8.822-2.105,11.612-5.407L35.474,32.138z"/>
					<path fill="#089BD8" d="M39.558,28.042c0.016-0.046,0.028-0.094,0.043-0.141C39.586,27.948,39.574,27.996,39.558,28.042z"/>
				</g>
				<path fill="#FFFFFF" d="M35.144,32.52c0.113-0.125,0.223-0.252,0.332-0.381l0,0C35.367,32.268,35.257,32.395,35.144,32.52
					c-1.396,1.519-3.061,2.64-4.854,3.364C32.083,35.16,33.748,34.039,35.144,32.52z"/>
				<path fill="#089BD8" d="M35.476,32.139c-0.109,0.129-0.219,0.256-0.332,0.381c-1.396,1.519-3.061,2.64-4.854,3.364
					c-0.256,0.104-0.516,0.199-0.776,0.285c-1.214,0.406-2.476,0.642-3.745,0.692c-0.23,0.011-0.462,0.015-0.692,0.011
					c-0.578-0.004-1.157-0.052-1.732-0.129c-1.257-0.175-2.498-0.518-3.681-1.043c-1.331-0.59-2.589-1.402-3.722-2.443
					c-0.366-0.336-0.706-0.688-1.026-1.053c-0.798-0.908-1.46-1.898-1.979-2.942h0.001c-0.465-0.935-0.817-1.913-1.056-2.913
					l-1.631,0.328c0.257,1.162,0.645,2.275,1.152,3.32c0.589,1.219,1.337,2.344,2.215,3.354c1.465,1.687,3.296,3.046,5.368,3.956
					c1.297,0.568,2.689,0.958,4.145,1.146c0.644,0.082,1.298,0.131,1.964,0.131c1.746,0,3.424-0.297,4.984-0.84
					c2.61-0.904,4.897-2.502,6.644-4.57L35.476,32.139z"/>
			</g>
		</g>
	</g>
</g>
</svg>
