<?xml version="1.0" encoding="utf-8"?>
<!-- Generator: Adobe Illustrator 16.0.0, SVG Export Plug-In . SVG Version: 6.00 Build 0)  -->
<!DOCTYPE svg PUBLIC "-//W3C//DTD SVG 1.1//EN" "http://www.w3.org/Graphics/SVG/1.1/DTD/svg11.dtd">
<svg version="1.1" id="Layer_1" xmlns="http://www.w3.org/2000/svg" xmlns:xlink="http://www.w3.org/1999/xlink" x="0px" y="0px"
	 width="281.835px" height="281.835px" viewBox="-120.77 -109.605 281.835 281.835"
	 enable-background="new -120.77 -109.605 281.835 281.835" xml:space="preserve">
<g>
	<g>
		<g>
			<g>
				<path d="M55.578,122.318c16.186-6.002,31.216-15.793,43.679-29.354c1.002-1.113,2.001-2.231,2.963-3.37v-0.007
					c-0.962,1.146-1.961,2.264-2.963,3.377C86.793,106.525,71.763,116.316,55.578,122.318z"/>
				<path d="M3.167,106.208c-8.47-1.177-16.83-3.486-24.802-7.027C-13.657,102.728-5.303,105.031,3.167,106.208L3.167,106.208z"/>
				<path d="M14.84,107.077c-3.895-0.026-7.798-0.348-11.674-0.869l0,0C7.042,106.729,10.945,107.05,14.84,107.077z"/>
				<path d="M-46.718,82.715c7.637,7.015,16.12,12.498,25.082,16.465C-30.598,95.199-39.081,89.73-46.718,82.715
					c-2.458-2.262-4.758-4.64-6.913-7.094l0,0C-51.476,78.071-49.176,80.454-46.718,82.715z"/>
				<path d="M-53.631,75.622L-53.631,75.622c-5.376-6.12-9.839-12.792-13.335-19.826h-0.006
					C-63.47,62.83-59.007,69.501-53.631,75.622z"/>
				<path d="M-61.797,99.14c-3.04-2.79-5.87-5.725-8.538-8.744h-0.007C-67.673,93.422-64.844,96.35-61.797,99.14
					c9.568,8.792,20.229,15.655,31.475,20.624l0,0C-41.568,114.802-52.229,107.932-61.797,99.14z"/>
				<path d="M-70.335,90.396c-6.785-7.692-12.397-16.091-16.788-24.942l0,0C-82.733,74.319-77.13,82.704-70.335,90.396
					L-70.335,90.396z"/>
				<path d="M0.393,128.385c4.791,0.659,9.602,1.04,14.417,1.08C9.995,129.425,5.19,129.044,0.393,128.385L0.393,128.385z"/>
				<path d="M-30.322,119.764L-30.322,119.764c9.885,4.352,20.229,7.2,30.715,8.621l0,0
					C-10.093,126.964-20.438,124.108-30.322,119.764z"/>
				<path d="M115.617,35.453c-0.436,2.213-0.921,4.396-1.487,6.568c-1.328,5.106-3.053,10.042-5.12,14.808
					c-4,9.225-9.306,17.753-15.7,25.335l8.91,7.423v0.007c-0.962,1.139-1.961,2.257-2.963,3.37
					c-12.475,13.562-27.493,23.353-43.679,29.354c-1.092,0.414-2.172,0.791-3.25,1.158c-12.121,4.081-24.796,6.12-37.51,5.994
					C10,129.432,5.19,129.044,0.4,128.4c-10.486-1.424-20.832-4.277-30.716-8.636c-11.245-4.954-21.907-11.818-31.474-20.617
					c-3.042-2.782-5.877-5.725-8.545-8.744c-6.779-7.699-12.392-16.084-16.78-24.941l-19.627,9.409
					c5.249,10.635,11.979,20.703,20.127,29.93c3.166,3.574,6.527,7.042,10.122,10.346c11.469,10.527,24.24,18.741,37.723,24.658
					c11.743,5.139,24.023,8.547,36.459,10.245c20.825,2.816,42.104,0.815,62.029-5.938c20.667-7.013,39.896-19.16,55.675-36.336
					c1.276-1.376,2.475-2.778,3.659-4.186c8.688-10.253,15.544-21.479,20.65-33.26c2.805-6.542,5.106-13.239,6.845-20.056
					c0.711-2.738,1.303-5.49,1.828-8.266L115.617,35.453z"/>
				<g>
					<path d="M114.88,38.631c0.053-0.229,0.118-0.459,0.156-0.689C114.999,38.172,114.933,38.402,114.88,38.631z"/>
					<path d="M84.911,75.174c-0.736,0.869-1.474,1.724-2.236,2.567c-9.397,10.227-20.609,17.779-32.703,22.663
						c-1.724,0.696-3.467,1.343-5.231,1.936c-8.179,2.737-16.668,4.311-25.237,4.658c-1.549,0.066-3.112,0.093-4.662,0.078
						c-3.895-0.038-7.798-0.355-11.674-0.881c-8.47-1.173-16.83-3.481-24.802-7.027c-8.962-3.97-17.445-9.45-25.082-16.453
						c-2.458-2.262-4.758-4.651-6.913-7.105c-5.382-6.12-9.839-12.787-13.335-19.821l10.897-5.225
						c3.018,6.039,6.858,11.778,11.481,17.05c1.888,2.139,3.895,4.23,6.044,6.205c6.583,6.042,13.894,10.753,21.617,14.201
						C-9.979,91.114-2.7,93.171,4.67,94.193c12.069,1.657,24.4,0.565,35.977-3.278c12.28-4.078,23.705-11.227,33.077-21.413
						c0.618-0.691,1.225-1.406,1.843-2.112c5.213-6.099,9.332-12.811,12.37-19.853c1.58-3.647,2.896-7.396,3.885-11.2
						c0.474-1.783,0.854-3.593,1.196-5.402c0.12-0.587,0.238-1.165,0.329-1.753c0.71-4.362,1.065-8.77,1.065-13.186h12.136v-0.007
						h10.438V6.36v-96.021H61.879v14.491v90.282c0,8.377-1.063,15.848-3.183,22.408c-2.113,6.586-5.199,12.154-9.213,16.728
						c-4.013,4.553-8.943,8.049-14.754,10.502c-5.804,2.449-12.417,3.679-19.804,3.679c-7.397,0-13.993-1.229-19.804-3.679
						c-5.814-2.449-10.74-5.976-14.758-10.594c-4.024-4.621-7.097-10.213-9.212-16.795c-2.116-6.567-3.172-14.042-3.172-22.406
						v-90.125v-14.491h-55.123V6.347v12.866c0,3.271,0.135,6.482,0.372,9.646c6.348,50.528,49.441,89.622,101.691,89.622
						c31.418,0,59.449-14.188,78.245-36.437L84.911,75.174z"/>
					<path d="M112.431,47.57c0.104-0.311,0.197-0.632,0.289-0.949C112.628,46.938,112.536,47.259,112.431,47.57z"/>
				</g>
				<path d="M82.686,77.749c0.766-0.843,1.502-1.698,2.238-2.567l0,0C84.188,76.05,83.452,76.906,82.686,77.749
					c-9.409,10.231-20.621,17.787-32.7,22.671C62.065,95.536,73.277,87.98,82.686,77.749z"/>
				<path d="M84.924,75.181c-0.736,0.869-1.473,1.725-2.238,2.567c-9.409,10.231-20.621,17.787-32.7,22.671
					c-1.725,0.696-3.475,1.34-5.232,1.921c-8.181,2.737-16.682,4.322-25.238,4.665c-1.549,0.071-3.112,0.098-4.662,0.071
					c-3.895-0.026-7.798-0.348-11.67-0.869c-8.472-1.177-16.833-3.486-24.806-7.027c-8.969-3.974-17.444-9.45-25.082-16.465
					c-2.464-2.262-4.758-4.64-6.914-7.094c-5.376-6.12-9.837-12.792-13.335-19.826h0.007c-3.132-6.298-5.505-12.892-7.117-19.632
					l-10.99,2.212c1.73,7.83,4.346,15.333,7.762,22.375c3.972,8.211,9.012,15.793,14.928,22.604
					c9.872,11.363,22.21,20.524,36.17,26.656c8.742,3.832,18.12,6.456,27.931,7.726c4.34,0.555,8.749,0.884,13.237,0.884
					c11.766,0,23.071-2.001,33.586-5.66c17.595-6.095,33.007-16.859,44.773-30.797L84.924,75.181z"/>
			</g>
		</g>
	</g>
</g>
</svg>
