<?xml version="1.0" encoding="utf-8"?>
<!-- Generator: Adobe Illustrator 16.0.0, SVG Export Plug-In . SVG Version: 6.00 Build 0)  -->
<!DOCTYPE svg PUBLIC "-//W3C//DTD SVG 1.1//EN" "http://www.w3.org/Graphics/SVG/1.1/DTD/svg11.dtd">
<svg version="1.1" id="Layer_1" xmlns="http://www.w3.org/2000/svg" xmlns:xlink="http://www.w3.org/1999/xlink" x="0px" y="0px"
	 width="281.835px" height="281.835px" viewBox="0 0 281.835 281.835" enable-background="new 0 0 281.835 281.835"
	 xml:space="preserve">
<g>
	<g>
		<g>
			<g>
				<path d="M175.679,238.318c16.187-6.002,31.217-15.793,43.68-29.354c1.002-1.113,2-2.231,2.963-3.371v-0.006
					c-0.963,1.146-1.961,2.264-2.963,3.377C206.894,222.525,191.865,232.316,175.679,238.318z"/>
				<path d="M123.269,222.208c-8.47-1.178-16.83-3.486-24.802-7.027C106.444,218.728,114.798,221.031,123.269,222.208
					L123.269,222.208z"/>
				<path d="M134.941,223.078c-3.895-0.027-7.798-0.349-11.674-0.869l0,0C127.144,222.729,131.046,223.05,134.941,223.078z"/>
				<path d="M73.384,198.714c7.637,7.016,16.12,12.498,25.082,16.466C89.503,211.199,81.021,205.73,73.384,198.714
					c-2.458-2.262-4.758-4.639-6.913-7.094l0,0C68.625,194.071,70.926,196.455,73.384,198.714z"/>
				<path d="M66.471,191.623L66.471,191.623c-5.376-6.121-9.839-12.793-13.335-19.826h-0.006
					C56.631,178.83,61.095,185.501,66.471,191.623z"/>
				<path d="M58.305,215.14c-3.04-2.79-5.87-5.725-8.538-8.744H49.76C52.429,209.421,55.257,212.35,58.305,215.14
					c9.568,8.792,20.229,15.654,31.475,20.624l0,0C78.534,230.802,67.873,223.932,58.305,215.14z"/>
				<path d="M49.767,206.396c-6.785-7.691-12.397-16.091-16.788-24.941l0,0C37.369,190.319,42.972,198.705,49.767,206.396
					L49.767,206.396z"/>
				<path d="M120.495,244.384c4.791,0.66,9.602,1.041,14.417,1.08C130.097,245.425,125.292,245.044,120.495,244.384L120.495,244.384
					z"/>
				<path d="M89.78,235.764L89.78,235.764c9.885,4.353,20.229,7.2,30.715,8.62l0,0C110.009,242.964,99.664,240.108,89.78,235.764z"
					/>
				<path d="M235.718,151.453c-0.436,2.213-0.921,4.396-1.486,6.568c-1.328,5.105-3.053,10.042-5.121,14.809
					c-4,9.225-9.305,17.752-15.699,25.334l8.91,7.424v0.006c-0.963,1.14-1.961,2.258-2.963,3.371
					c-12.475,13.562-27.493,23.353-43.68,29.354c-1.092,0.414-2.172,0.791-3.25,1.158c-12.121,4.081-24.795,6.12-37.51,5.994
					c-4.818-0.038-9.628-0.426-14.418-1.07c-10.486-1.424-20.832-4.277-30.716-8.636c-11.245-4.954-21.907-11.818-31.474-20.617
					c-3.042-2.782-5.877-5.726-8.545-8.744c-6.779-7.698-12.392-16.084-16.78-24.94l-19.627,9.408
					c5.249,10.635,11.979,20.703,20.127,29.93c3.166,3.574,6.527,7.043,10.122,10.347c11.469,10.526,24.24,18.741,37.723,24.658
					c11.743,5.139,24.023,8.547,36.459,10.245c20.825,2.816,42.104,0.814,62.029-5.938c20.667-7.013,39.896-19.159,55.675-36.336
					c1.276-1.376,2.476-2.778,3.659-4.187c8.688-10.252,15.544-21.479,20.65-33.26c2.805-6.541,5.105-13.238,6.844-20.056
					c0.711-2.737,1.304-5.489,1.828-8.267L235.718,151.453z"/>
				<g>
					<path d="M234.982,154.63c0.053-0.229,0.117-0.459,0.156-0.688C235.101,154.171,235.035,154.402,234.982,154.63z"/>
					<path d="M205.013,191.173c-0.736,0.869-1.475,1.725-2.236,2.568c-9.397,10.227-20.609,17.778-32.703,22.662
						c-1.725,0.696-3.467,1.344-5.23,1.936c-8.18,2.738-16.668,4.312-25.238,4.658c-1.549,0.066-3.112,0.094-4.662,0.078
						c-3.895-0.037-7.798-0.354-11.674-0.881c-8.47-1.173-16.83-3.48-24.802-7.027c-8.962-3.969-17.445-9.449-25.082-16.453
						c-2.458-2.262-4.758-4.65-6.913-7.104c-5.382-6.12-9.839-12.786-13.335-19.821l10.897-5.225
						c3.018,6.039,6.858,11.777,11.481,17.051c1.888,2.139,3.895,4.229,6.044,6.204c6.583,6.042,13.894,10.753,21.617,14.201
						c6.946,3.095,14.225,5.151,21.595,6.173c12.069,1.657,24.4,0.564,35.977-3.277c12.28-4.078,23.705-11.228,33.077-21.414
						c0.617-0.69,1.225-1.405,1.843-2.111c5.213-6.1,9.332-12.811,12.37-19.854c1.58-3.646,2.896-7.396,3.885-11.199
						c0.475-1.783,0.854-3.594,1.196-5.402c0.12-0.587,0.237-1.165,0.329-1.753c0.71-4.362,1.064-8.77,1.064-13.186h12.137v-0.007
						h10.438v-9.629V26.339H181.98V40.83v90.282c0,8.377-1.063,15.849-3.183,22.408c-2.112,6.586-5.198,12.153-9.213,16.728
						c-4.013,4.553-8.942,8.049-14.754,10.502c-5.804,2.449-12.417,3.68-19.804,3.68c-7.397,0-13.993-1.229-19.804-3.68
						c-5.814-2.449-10.74-5.976-14.758-10.594c-4.024-4.621-7.097-10.213-9.212-16.795c-2.116-6.566-3.172-14.042-3.172-22.406
						V40.83V26.339H32.958v96.008v12.866c0,3.271,0.135,6.482,0.372,9.646c6.348,50.528,49.441,89.622,101.691,89.622
						c31.418,0,59.45-14.188,78.245-36.437L205.013,191.173z"/>
					<path d="M232.533,163.57c0.104-0.311,0.197-0.632,0.289-0.949C232.73,162.938,232.638,163.259,232.533,163.57z"/>
				</g>
				<path d="M202.788,193.75c0.767-0.844,1.502-1.699,2.237-2.567l0,0C204.29,192.05,203.554,192.906,202.788,193.75
					c-9.409,10.23-20.621,17.787-32.7,22.67C182.167,211.537,193.378,203.98,202.788,193.75z"/>
				<path d="M205.025,191.181c-0.735,0.869-1.473,1.725-2.237,2.566c-9.409,10.231-20.621,17.787-32.7,22.672
					c-1.725,0.695-3.475,1.34-5.232,1.92c-8.18,2.738-16.682,4.322-25.237,4.666c-1.549,0.07-3.112,0.098-4.662,0.07
					c-3.895-0.025-7.798-0.348-11.67-0.869c-8.472-1.177-16.833-3.485-24.806-7.026c-8.969-3.974-17.444-9.45-25.082-16.466
					c-2.464-2.262-4.758-4.639-6.914-7.094c-5.376-6.119-9.837-12.791-13.335-19.826h0.007c-3.132-6.297-5.505-12.892-7.117-19.631
					l-10.99,2.211c1.73,7.83,4.346,15.334,7.762,22.375c3.972,8.211,9.012,15.793,14.928,22.604
					c9.872,11.362,22.21,20.524,36.17,26.655c8.742,3.832,18.12,6.457,27.931,7.727c4.34,0.555,8.749,0.885,13.237,0.885
					c11.767,0,23.071-2.002,33.586-5.66c17.595-6.096,33.007-16.859,44.772-30.797L205.025,191.181z"/>
			</g>
		</g>
	</g>
</g>
</svg>
