<?xml version="1.0" encoding="utf-8"?>
<!-- Generator: Adobe Illustrator 16.0.0, SVG Export Plug-In . SVG Version: 6.00 Build 0)  -->
<!DOCTYPE svg PUBLIC "-//W3C//DTD SVG 1.1//EN" "http://www.w3.org/Graphics/SVG/1.1/DTD/svg11.dtd">
<svg version="1.1" id="Layer_1" xmlns="http://www.w3.org/2000/svg" xmlns:xlink="http://www.w3.org/1999/xlink" x="0px" y="0px"
	 width="50.46px" height="50.46px" viewBox="0 0 50.46 50.46" enable-background="new 0 0 50.46 50.46" xml:space="preserve">
<g>
	<defs>
		<rect id="SVGID_1_" width="50.46" height="50.46"/>
	</defs>
	<use xlink:href="#SVGID_1_"  overflow="visible" fill="#FFFFFF"/>
	<clipPath id="SVGID_2_">
		<use xlink:href="#SVGID_1_"  overflow="visible"/>
	</clipPath>
	<g clip-path="url(#SVGID_2_)">
		<g>
			<path fill="#089BD8" d="M32.056,7.677v2.15v13.398c0,1.243-0.158,2.351-0.473,3.326c-0.313,0.977-0.771,1.803-1.367,2.481
				c-0.596,0.676-1.327,1.195-2.189,1.56c-0.862,0.363-1.843,0.545-2.939,0.545c-1.098,0-2.077-0.182-2.939-0.545
				c-0.863-0.364-1.594-0.887-2.19-1.573c-0.597-0.685-1.053-1.516-1.367-2.492c-0.314-0.975-0.471-2.084-0.471-3.326V9.827v-2.15
				H9.941v14.247v1.909c0,0.486,0.02,0.962,0.055,1.432c0.942,7.498,7.337,13.3,15.091,13.3c7.752,0,14.144-5.797,15.09-13.29
				c0.036-0.472,0.057-0.951,0.057-1.441v-1.908V7.677H32.056z"/>
			<path fill="#FFFFFF" d="M31.12,39.135c2.402-0.892,4.633-2.345,6.482-4.357c0.15-0.165,0.298-0.331,0.441-0.5v-0.001
				c-0.144,0.17-0.291,0.336-0.441,0.501C35.753,36.79,33.522,38.243,31.12,39.135z"/>
			<path fill="#FFFFFF" d="M23.343,36.743c-1.257-0.174-2.498-0.517-3.681-1.043C20.846,36.227,22.086,36.569,23.343,36.743
				L23.343,36.743z"/>
			<path fill="#FFFFFF" d="M25.075,36.873c-0.578-0.005-1.157-0.052-1.732-0.13l0,0C23.918,36.821,24.497,36.868,25.075,36.873z"/>
			<path fill="#FFFFFF" d="M15.94,33.258c1.133,1.04,2.392,1.854,3.722,2.442C18.332,35.11,17.073,34.298,15.94,33.258
				c-0.365-0.336-0.706-0.689-1.026-1.054l0,0C15.234,32.568,15.575,32.922,15.94,33.258z"/>
			<path fill="#FFFFFF" d="M14.914,32.204L14.914,32.204c-0.798-0.908-1.46-1.898-1.979-2.942h-0.001
				C13.454,30.306,14.116,31.296,14.914,32.204z"/>
			<path fill="#FFFFFF" d="M13.702,35.695c-0.451-0.414-0.871-0.85-1.267-1.298h-0.001C12.83,34.846,13.25,35.281,13.702,35.695
				c1.42,1.305,3.002,2.323,4.671,3.06l0,0C16.704,38.019,15.122,37,13.702,35.695z"/>
			<path fill="#FFFFFF" d="M12.435,34.397c-1.007-1.142-1.84-2.387-2.491-3.701l0,0C10.595,32.011,11.427,33.256,12.435,34.397
				L12.435,34.397z"/>
			<path fill="#FFFFFF" d="M22.931,40.035c0.711,0.098,1.425,0.154,2.14,0.16C24.356,40.189,23.643,40.133,22.931,40.035
				L22.931,40.035z"/>
			<path fill="#FFFFFF" d="M18.373,38.755L18.373,38.755c1.467,0.646,3.002,1.069,4.558,1.28l0,0
				C21.375,39.824,19.84,39.4,18.373,38.755z"/>
			<path fill="#FFFFFF" d="M13.616,33.353c-0.878-1.011-1.626-2.137-2.215-3.354l-1.457,0.698c0.651,1.314,1.483,2.56,2.491,3.701
				c0.396,0.448,0.816,0.884,1.267,1.298c1.42,1.305,3.002,2.323,4.671,3.06l0.61-1.446C16.912,36.398,15.081,35.038,13.616,33.353z
				"/>
			<path fill="#FFFFFF" d="M36.721,33.176c-1.745,2.069-4.032,3.666-6.643,4.571c-1.562,0.542-3.239,0.839-4.985,0.839
				c-0.666,0-1.32-0.048-1.964-0.131c-1.456-0.188-2.848-0.577-4.145-1.146l-0.61,1.446c1.467,0.646,3.002,1.069,4.558,1.28
				c0.711,0.098,1.425,0.154,2.14,0.16c1.887,0.019,3.769-0.283,5.566-0.89c0.161-0.054,0.321-0.11,0.482-0.171
				c2.402-0.892,4.633-2.345,6.482-4.357c0.15-0.165,0.298-0.331,0.441-0.501L36.721,33.176z"/>
			<path fill="#089BD8" d="M40.03,26.244c-0.063,0.328-0.137,0.652-0.221,0.974c-0.196,0.758-0.452,1.491-0.759,2.197
				c-0.593,1.369-1.38,2.636-2.33,3.761l1.323,1.101v0.001c-0.144,0.169-0.291,0.335-0.441,0.5c-1.85,2.013-4.08,3.466-6.482,4.357
				c-0.161,0.061-0.321,0.117-0.482,0.171c-1.798,0.606-3.68,0.908-5.566,0.89c-0.715-0.006-1.429-0.063-2.14-0.16
				c-1.556-0.211-3.091-0.634-4.558-1.28c-1.669-0.736-3.251-1.755-4.671-3.06c-0.451-0.414-0.872-0.85-1.268-1.298
				c-1.006-1.142-1.839-2.387-2.49-3.701l-2.913,1.397c0.779,1.577,1.778,3.071,2.987,4.44c0.47,0.531,0.969,1.046,1.502,1.536
				c1.702,1.563,3.597,2.781,5.598,3.659c1.743,0.763,3.565,1.269,5.411,1.52c3.09,0.419,6.248,0.122,9.205-0.881
				c3.067-1.041,5.921-2.843,8.263-5.392c0.188-0.204,0.366-0.412,0.543-0.621c1.288-1.521,2.306-3.187,3.063-4.935
				c0.417-0.971,0.759-1.965,1.017-2.977c0.104-0.407,0.192-0.815,0.27-1.227L40.03,26.244z"/>
			<path fill="#FFFFFF" d="M38.684,23.356h-1.8c0.001,0.655-0.052,1.309-0.158,1.957c-0.014,0.087-0.032,0.173-0.049,0.259
				c-0.051,0.27-0.107,0.538-0.177,0.803c-0.148,0.564-0.343,1.12-0.577,1.662c-0.452,1.045-1.062,2.04-1.836,2.946
				c-0.091,0.105-0.181,0.211-0.274,0.314c-1.389,1.511-3.086,2.572-4.908,3.177c-1.718,0.571-3.548,0.733-5.339,0.486
				c-1.094-0.151-2.174-0.456-3.205-0.915c-1.146-0.513-2.231-1.212-3.208-2.108c-0.319-0.293-0.617-0.603-0.897-0.921
				c-0.686-0.782-1.256-1.633-1.704-2.53l-1.617,0.775c0.519,1.044,1.18,2.034,1.979,2.942c0.32,0.364,0.661,0.718,1.026,1.054
				c1.133,1.04,2.392,1.853,3.722,2.442c1.183,0.526,2.424,0.869,3.681,1.043c0.575,0.078,1.154,0.125,1.732,0.13
				c0.23,0.003,0.462-0.001,0.692-0.011c1.271-0.052,2.532-0.286,3.745-0.692c0.262-0.087,0.521-0.183,0.776-0.286
				c1.795-0.725,3.459-1.846,4.854-3.364c0.114-0.125,0.223-0.252,0.332-0.381l1.245,1.037c0.95-1.125,1.737-2.392,2.33-3.761
				c0.307-0.706,0.563-1.439,0.759-2.197c0.084-0.321,0.157-0.646,0.221-0.974c0.059-0.307,0.109-0.617,0.149-0.931
				c0.001-0.006,0.002-0.012,0.003-0.018c0.036-0.471,0.057-0.951,0.057-1.441v-0.498H38.684z"/>
			<path fill="#FFFFFF" d="M35.144,32.52c0.114-0.125,0.223-0.252,0.332-0.381l0,0C35.366,32.268,35.258,32.395,35.144,32.52
				c-1.396,1.519-3.06,2.64-4.854,3.364C32.084,35.159,33.748,34.038,35.144,32.52z"/>
			<path fill="#089BD8" d="M35.476,32.139c-0.109,0.129-0.218,0.256-0.332,0.381c-1.396,1.519-3.06,2.64-4.854,3.364
				c-0.256,0.104-0.515,0.199-0.776,0.286c-1.213,0.406-2.475,0.641-3.745,0.692c-0.23,0.01-0.462,0.014-0.692,0.011
				c-0.578-0.005-1.157-0.052-1.732-0.13c-1.257-0.174-2.498-0.517-3.681-1.043c-1.331-0.589-2.589-1.402-3.722-2.442
				c-0.366-0.336-0.706-0.689-1.026-1.054c-0.798-0.908-1.46-1.898-1.979-2.942h0.001c-0.465-0.935-0.817-1.913-1.056-2.913
				l-1.631,0.328c0.257,1.162,0.645,2.275,1.152,3.321c0.589,1.218,1.337,2.344,2.215,3.354c1.465,1.686,3.296,3.046,5.368,3.956
				c1.297,0.569,2.689,0.958,4.145,1.146c0.644,0.083,1.298,0.131,1.964,0.131c1.746,0,3.424-0.297,4.985-0.839
				c2.61-0.905,4.897-2.502,6.643-4.571L35.476,32.139z"/>
		</g>
	</g>
</g>
</svg>
