<svg id="Capa_1" data-name="Capa 1" xmlns="http://www.w3.org/2000/svg" viewBox="0 0 47.99 47.99"><defs><style>.cls-1{fill:#444;}.cls-2{fill:#fff;}</style></defs><title>validez-legal</title><path class="cls-1" d="M26.27,2.43l1.41-.89a1.94,1.94,0,0,1,2.54.4l1.07,1.28a1.93,1.93,0,0,0,2,.64l1.61-.41a2,2,0,0,1,2.29,1.17l.62,1.55a1.94,1.94,0,0,0,1.68,1.22l1.67.11A2,2,0,0,1,43,9.32L43.07,11a1.94,1.94,0,0,0,1.22,1.68l1.55.62A2,2,0,0,1,47,15.58l-.41,1.61a1.93,1.93,0,0,0,.64,2l1.28,1.07a1.94,1.94,0,0,1,.4,2.54L48,24.19a2,2,0,0,0,0,2.08l.89,1.41a1.94,1.94,0,0,1-.4,2.54l-1.28,1.07a1.93,1.93,0,0,0-.64,2L47,34.88a2,2,0,0,1-1.17,2.29l-1.55.62a1.94,1.94,0,0,0-1.22,1.68L43,41.14A2,2,0,0,1,41.14,43l-1.67.11a1.94,1.94,0,0,0-1.68,1.22l-.62,1.55A2,2,0,0,1,34.88,47l-1.61-.41a1.93,1.93,0,0,0-2,.64l-1.07,1.28a1.94,1.94,0,0,1-2.54.4L26.27,48a2,2,0,0,0-2.08,0l-1.41.89a1.94,1.94,0,0,1-2.54-.4l-1.07-1.28a1.93,1.93,0,0,0-2-.64L15.58,47a2,2,0,0,1-2.29-1.17l-.62-1.55A1.94,1.94,0,0,0,11,43.07L9.32,43A2,2,0,0,1,7.5,41.14l-.11-1.67a1.94,1.94,0,0,0-1.22-1.68l-1.55-.62a2,2,0,0,1-1.17-2.29l.41-1.61a1.93,1.93,0,0,0-.64-2L1.94,30.22a1.94,1.94,0,0,1-.4-2.54l.89-1.41a2,2,0,0,0,0-2.08l-.89-1.41a1.94,1.94,0,0,1,.4-2.54l1.28-1.07a1.93,1.93,0,0,0,.64-2l-.41-1.61a2,2,0,0,1,1.17-2.29l1.55-.62A1.94,1.94,0,0,0,7.39,11L7.5,9.32A2,2,0,0,1,9.32,7.5L11,7.39a1.94,1.94,0,0,0,1.68-1.22l.62-1.55a2,2,0,0,1,2.29-1.17l1.61.41a1.93,1.93,0,0,0,2-.64l1.07-1.28a1.94,1.94,0,0,1,2.54-.4l1.41.89A2,2,0,0,0,26.27,2.43Z" transform="translate(-1.23 -1.23)"/><path class="cls-2" d="M39.26,20.29,26,34.59a3.26,3.26,0,0,1-4.42.33l-10-8.08a3.25,3.25,0,0,1,4.06-5.07L23.31,28,34.5,15.87a3.25,3.25,0,1,1,4.76,4.42Z" transform="translate(-1.23 -1.23)"/></svg>