<?xml version="1.0" encoding="utf-8"?>
<!-- Generator: Adobe Illustrator 18.0.0, SVG Export Plug-In . SVG Version: 6.00 Build 0)  -->
<!DOCTYPE svg PUBLIC "-//W3C//DTD SVG 1.1//EN" "http://www.w3.org/Graphics/SVG/1.1/DTD/svg11.dtd">
<svg version="1.1" id="Layer_1" xmlns="http://www.w3.org/2000/svg" xmlns:xlink="http://www.w3.org/1999/xlink" x="0px" y="0px"
	 viewBox="0 0 50.5 50.5" style="enable-background:new 0 0 50.5 50.5;" xml:space="preserve">
<style type="text/css">
	.st0{fill:#65B4E1;}
</style>
<g>
	<g>
		<path class="st0" d="M46.8,31.9l-1.1-1.1l-0.5-0.5l-0.5,0.4l-0.6,0.5V11.9c0-1.7-1.4-3.1-3.1-3.1H6.3c-1.7,0-3.1,1.4-3.1,3.1v26.2
			c0,1.7,1.4,3.1,3.1,3.1h28.6c-0.5-0.5-1-1.1-1.3-1.8H6.3c-0.7,0-1.3-0.6-1.3-1.3V11.9c0-0.7,0.6-1.3,1.3-1.3h34.8
			c0.7,0,1.3,0.6,1.3,1.3v18.7c0.5,0.3,1.1,0.6,1.5,1l-0.2,0.2l-0.5,0.5l-0.3,0.3c-0.1-0.1-0.3-0.2-0.4-0.3
			c-0.8-0.6-1.8-0.9-2.9-0.9c-2.9,0-5.2,2.3-5.2,5.2c0,1.1,0.3,2.1,0.9,2.9c0.5,0.8,1.3,1.4,2.1,1.8c0.7,0.3,1.4,0.5,2.2,0.5
			c0.9,0,1.7-0.2,2.4-0.6c0.9-0.5,1.7-1.2,2.2-2.1c0.4-0.7,0.6-1.6,0.6-2.5c0-0.4,0-0.7-0.1-1.1l0.3-0.3l0.6-0.7l1.3-1.5l0.5-0.5
			L46.8,31.9z M45,33.9l-0.6,0.7l-4.9,5.4h0l-3.8-4.8l1.4-1.2l2.4,2.4l4.2-3.7l0.5-0.5l1.1-0.9l1.1,1.1L45,33.9z"/>
		<path class="st0" d="M21.3,32.6c0.3,0,0.6-0.1,0.8-0.4c0.4-0.4,0.8-0.9,1.2-1.3c0,0,0,0,0,0c0.2-0.2,0.5-0.5,0.6-0.8
			c0.1-0.4-0.1-0.9-0.5-1.1c-0.4-0.2-0.8,0-1.1,0.3c-0.3,0.3-0.6,0.6-0.8,0.9c-0.2,0.2-0.3,0.3-0.5,0.5c-0.3,0.3-0.6,0.6-0.6,1
			C20.5,32.3,20.9,32.6,21.3,32.6z"/>
		<path class="st0" d="M33.7,26.5c0.1-0.2,0.3-0.4,0.3-0.6c0.1-0.1,0.2-0.4,0.1-0.5c-0.8-1.5-1.6-3.1-2.4-4.6
			c-0.2-0.4-0.4-0.7-0.6-1.1c-0.1-0.1-0.1-0.2-0.2-0.3c0,0,0-0.1,0-0.1c0-0.1,0-0.1-0.1-0.1c-0.1,0-0.2,0.1-0.3,0.1
			c-0.1,0-0.2,0.1-0.3,0.1c-0.2,0.1-0.4,0.1-0.7,0c-0.5-0.1-0.9-0.4-1.3-0.7c-0.4-0.3-0.9-0.5-1.3-0.7c-0.5-0.2-1.1-0.3-1.6-0.2
			c-0.5,0.1-1,0.4-1.4,0.6c-0.4,0.2-0.8,0.5-1.2,0.7c-0.5,0.3-1,0.7-1.5,1c-0.4,0.3-0.9,0.6-1.3,1c-0.3,0.3-0.8,0.5-1,1
			c-0.1,0.4,0,0.9,0.4,1.1c0.4,0.2,0.8,0.1,1.1-0.1c0.3-0.2,0.7-0.4,1-0.6c0.4-0.2,0.8-0.4,1.2-0.7c0.3-0.1,0.5-0.3,0.8-0.4
			c0.4-0.2,0.8-0.4,1.3-0.2c0.4,0.2,0.7,0.4,0.9,0.7c0.3,0.3,0.6,0.6,0.9,0.9c0.7,0.7,1.3,1.5,2,2.3c0.7,0.7,1.3,1.4,2.3,1.8
			C32,27.5,33,27.4,33.7,26.5z"/>
		<path class="st0" d="M19.3,31c0.3,0,0.5-0.2,0.7-0.4c0.4-0.4,0.9-0.9,1.3-1.3c0.3-0.3,0.4-0.6,0.2-1c-0.2-0.4-0.7-0.6-1.2-0.4
			c-0.3,0.1-0.4,0.4-0.6,0.6c-0.2,0.2-0.4,0.4-0.5,0.6c-0.4,0.4-0.9,0.8-0.8,1.4C18.4,30.7,18.8,31,19.3,31z"/>
		<path class="st0" d="M31.3,30.1c0.5-0.2,0.8-0.9,0.6-1.4c0,0,0,0,0,0c0-0.1,0,0,0,0c-0.1-0.2-0.2-0.4-0.4-0.6
			c-0.2-0.2-0.6-0.2-0.8-0.3c-0.5-0.2-1-0.5-1.4-0.8c-0.8-0.7-1.5-1.5-2.1-2.3c-0.4-0.4-0.8-0.9-1.2-1.3c-0.2-0.2-0.4-0.4-0.6-0.6
			c-0.2-0.2-0.4-0.5-0.7-0.6c-0.3-0.1-0.6,0.2-0.9,0.3c-0.2,0.1-0.3,0.2-0.5,0.3c-0.5,0.3-1,0.6-1.6,0.9c-0.6,0.3-1.2,0.8-1.9,0.7
			c-1-0.1-1.8-1-1.7-2c0.1-0.5,0.3-0.9,0.7-1.2c0.1-0.1,0.3-0.2,0.4-0.3c1.2-0.9,2.5-1.8,3.8-2.6c-0.5-0.2-1.1-0.2-1.6-0.1
			c-0.6,0.2-1,0.5-1.5,0.8c-0.6,0.3-1.2,0.4-1.8,0.4c-0.3,0-0.6-0.1-0.9-0.2c-0.1,0-0.3-0.1-0.4-0.1c-0.1,0-0.3-0.2-0.4-0.1
			c0,0-0.1,0.1-0.1,0.2c-0.1,0.2-0.1,0.3-0.2,0.5c-0.2,0.5-0.4,1.1-0.7,1.6c-0.5,1.2-0.9,2.3-1.4,3.5c-0.1,0.2-0.1,0.3-0.2,0.5
			c0,0.1-0.1,0.3-0.1,0.3c0,0.1,0.2,0.2,0.3,0.3c0.2,0.2,0.5,0.4,0.7,0.6c0.2,0.2,0.5,0.4,0.7,0.6c0.1,0.1,0.1,0.1,0.2,0.2
			c0,0,0,0,0,0c0,0,0.1-0.1,0.1-0.1c0.4-0.4,0.8-0.7,1.4-0.7c0.5,0,1,0.2,1.3,0.6c0.2,0.2,0.3,0.5,0.4,0.7c0.3-0.3,0.5-0.5,0.9-0.7
			c0.3-0.1,0.7-0.1,1-0.1c0.7,0.1,1.3,0.7,1.4,1.4c1.4-0.5,2.7,0.9,2.3,2.3c1.1,0.2,1.8,1.4,1.4,2.4c0.5,0.1,1-0.1,1.2-0.4
			c0.3-0.4,0.3-0.8,0.2-1.2c0.3,0.1,0.5,0.3,0.8,0.4c0.3,0.1,0.7,0.1,1-0.1c0.3-0.2,0.5-0.5,0.5-0.8c0.1-0.3,0-0.5,0-0.8
			C30.4,30.2,30.8,30.4,31.3,30.1z"/>
		<path class="st0" d="M24.1,33.9c0.2-0.1,0.4-0.3,0.6-0.5c0.2-0.2,0.4-0.4,0.5-0.6c0.4-0.6,0-1.4-0.7-1.4c-0.4,0-0.7,0.3-1,0.6
			c-0.3,0.3-0.7,0.7-0.7,1.1C22.9,33.8,23.6,34.1,24.1,33.9z"/>
		<path class="st0" d="M16.6,28.9c0.4,0.4,1,0.3,1.3-0.1c0.2-0.2,0.4-0.3,0.4-0.6c0.1-0.3,0-0.5-0.1-0.8
			C17.5,26.5,15.8,28,16.6,28.9z"/>
		<path class="st0" d="M18.2,27.5C18.2,27.5,18.3,27.5,18.2,27.5C18.3,27.5,18.3,27.5,18.2,27.5z"/>
		<path class="st0" d="M18.3,27.5C18.4,27.7,18.3,27.6,18.3,27.5L18.3,27.5z"/>
		<path class="st0" d="M35.8,25.3c0,0,0,0.1,0.1,0.1c0.1,0,0.3-0.1,0.4-0.1c0.2-0.1,0.4-0.2,0.7-0.3c0.3-0.2,0.7-0.3,1-0.5
			c0,0,0.3-0.1,0.3-0.2c0,0,0-0.1,0-0.1c-0.1-0.2-0.2-0.4-0.3-0.6c-0.4-0.8-0.8-1.5-1.2-2.3c-0.7-1.4-1.5-2.8-2.2-4.2
			c0,0,0-0.1-0.1-0.1c0,0,0,0,0,0c0,0-1.8,1-2,1.1c-0.1,0.1-0.2,0.1-0.3,0.2c-0.1,0.1-0.1,0,0,0.1c0,0.1,0.1,0.1,0.1,0.2
			c0.1,0.2,0.2,0.5,0.4,0.7c0.8,1.4,1.5,2.8,2.3,4.3C35.1,24.1,35.4,24.7,35.8,25.3z"/>
		<path class="st0" d="M15.3,17.9c0,0-1.9-0.8-2.1-0.9c-0.1,0-0.4-0.2-0.4-0.2c0,0-0.1,0.3-0.1,0.3c-0.2,0.4-0.3,0.9-0.5,1.3
			c-0.5,1.4-1.1,2.7-1.6,4.1c-0.2,0.4-0.3,0.8-0.5,1.3c0,0.1-0.1,0.2-0.1,0.3c-0.1,0.1-0.2,0.3-0.2,0.4c0,0,0.8,0.3,0.8,0.3
			c0.4,0.2,0.9,0.3,1.3,0.5c0.1,0,0.2,0.1,0.3,0.1c0,0,0,0,0.1,0c0,0,0.1-0.3,0.1-0.3c0,0,0-0.1,0.1-0.1c0.1-0.2,0.1-0.3,0.2-0.5
			c0.7-1.7,1.3-3.4,2-5.1C14.9,19,15.1,18.5,15.3,17.9z"/>
	</g>
</g>
</svg>
