<svg xmlns="http://www.w3.org/2000/svg" viewBox="0 0 50.46 50.46">
  <title>Iconos</title>
  <g>
    <path d="M46.81,31.93l-1.09-1.05-0.47-.46-0.49.44-0.55.49V11.87A3.11,3.11,0,0,0,41.1,8.76H6.26a3.11,3.11,0,0,0-3.11,3.11V38.11a3.11,3.11,0,0,0,3.11,3.11H34.88a6.64,6.64,0,0,1-1.28-1.78H6.26a1.33,1.33,0,0,1-1.33-1.33V11.87a1.33,1.33,0,0,1,1.33-1.33H41.1a1.33,1.33,0,0,1,1.33,1.33V30.58a6.69,6.69,0,0,1,1.5,1l-0.24.21-0.52.46-0.31.28a5.19,5.19,0,0,0-7.63,6.9,5.22,5.22,0,0,0,2.11,1.78,5.15,5.15,0,0,0,4.57-.11A5.23,5.23,0,0,0,44.08,39a5.16,5.16,0,0,0,.63-2.47,5.08,5.08,0,0,0-.12-1.07l0.29-.33,0.63-.7,1.33-1.49,0.46-.51Zm-1.83,2-0.63.7-4.87,5.42h0L35.66,35.3,37,34.1l2.42,2.44,4.22-3.74,0.52-.46,1.07-.95,1.09,1.05Z" fill="#00b5e4"/>
    <path d="M21.26,32.61a1,1,0,0,0,.8-0.37c0.4-.42.79-0.89,1.22-1.29h0a2.08,2.08,0,0,0,.62-0.76,0.88,0.88,0,0,0-.5-1.09,1,1,0,0,0-1.08.33l-0.83.87L21,30.79a1.32,1.32,0,0,0-.56,1A0.87,0.87,0,0,0,21.26,32.61Z" fill="#00b5e4"/>
    <path d="M33.67,26.54A2.91,2.91,0,0,0,34,26a0.8,0.8,0,0,0,.13-0.53L31.7,20.85l-0.58-1.09L31,19.45l0-.08c0-.05,0-0.07-0.09-0.06a1.6,1.6,0,0,0-.31.11l-0.28.09a1.33,1.33,0,0,1-.65,0,4.13,4.13,0,0,1-1.31-.7,13,13,0,0,0-1.3-.71A2.38,2.38,0,0,0,25.42,18a5.42,5.42,0,0,0-1.41.64c-0.39.22-.78,0.46-1.16,0.7s-1,.65-1.47,1l-1.3,1a2.28,2.28,0,0,0-1,1,1,1,0,0,0,.41,1.11,1,1,0,0,0,1.15-.07l1-.56,1.22-.67,0.77-.42A1.47,1.47,0,0,1,25,21.4a2.45,2.45,0,0,1,.94.75l0.86,0.92c0.69,0.74,1.33,1.53,2,2.28a6,6,0,0,0,2.28,1.77A2.13,2.13,0,0,0,33.67,26.54Z" fill="#00b5e4"/>
    <path d="M19.3,31A1.12,1.12,0,0,0,20,30.55l1.3-1.35a0.92,0.92,0,0,0,.23-1,0.88,0.88,0,0,0-1.16-.44,2.35,2.35,0,0,0-.64.58l-0.55.57a1.83,1.83,0,0,0-.83,1.36A0.88,0.88,0,0,0,19.3,31Z" fill="#00b5e4"/>
    <path d="M31.32,30.15a1.17,1.17,0,0,0,.59-1.38h0c0-.12,0,0,0,0a1.3,1.3,0,0,0-.39-0.58,3.27,3.27,0,0,0-.83-0.32,4.67,4.67,0,0,1-1.37-.82,23.3,23.3,0,0,1-2.14-2.29c-0.39-.44-0.78-0.89-1.19-1.31l-0.59-.64a2.12,2.12,0,0,0-.65-0.6,1.1,1.1,0,0,0-.89.3l-0.51.28-1.57.86a3.44,3.44,0,0,1-1.87.7,1.84,1.84,0,0,1-1.67-2A1.86,1.86,0,0,1,19,21.08l0.43-.32c1.25-.92,2.48-1.84,3.82-2.64A2.5,2.5,0,0,0,21.55,18a8,8,0,0,0-1.49.8,3.41,3.41,0,0,1-1.78.38,3.81,3.81,0,0,1-.9-0.17L17,18.92a0.91,0.91,0,0,0-.35-0.12,0.56,0.56,0,0,0-.08.19l-0.2.49-0.65,1.62-1.4,3.48L14.12,25a1.71,1.71,0,0,0-.13.32,1.06,1.06,0,0,0,.29.26L15,26.25l0.71,0.62a1.8,1.8,0,0,0,.21.18,0.23,0.23,0,0,0,0,0,0.48,0.48,0,0,0,.15-0.14,1.92,1.92,0,0,1,1.39-.7,1.81,1.81,0,0,1,1.34.57,1.76,1.76,0,0,1,.4.72,2.43,2.43,0,0,1,.86-0.66,1.77,1.77,0,0,1,2.39,1.36,1.79,1.79,0,0,1,2.26,2.26,1.79,1.79,0,0,1,1.39,2.4,1.16,1.16,0,0,0,1.23-.44,1.82,1.82,0,0,0,.23-1.23,3.7,3.7,0,0,0,.76.41,1.19,1.19,0,0,0,1-.1,1.24,1.24,0,0,0,.55-0.78,2,2,0,0,0,0-.75A1.87,1.87,0,0,0,31.32,30.15Z" fill="#00b5e4"/>
    <path d="M24.11,33.86a2.2,2.2,0,0,0,.57-0.54,4.8,4.8,0,0,0,.53-0.59,0.88,0.88,0,0,0-.72-1.35,1.39,1.39,0,0,0-1,.64,1.57,1.57,0,0,0-.67,1.15A0.88,0.88,0,0,0,24.11,33.86Z" fill="#00b5e4"/>
    <path d="M16.63,28.94A0.9,0.9,0,0,0,18,28.86a1.5,1.5,0,0,0,.42-0.59,0.89,0.89,0,0,0-.13-0.76C17.47,26.45,15.76,28,16.63,28.94Z" fill="#00b5e4"/>
    <path d="M18.32,27.6h0Z" fill="#00b5e4"/>
    <path d="M18.32,27.6l0-.06Z" fill="#00b5e4"/>
    <path d="M35.75,25.29a0.39,0.39,0,0,0,.06.11,0.67,0.67,0,0,0,.36-0.14l0.67-.32,1-.5a1.27,1.27,0,0,0,.35-0.17,0.33,0.33,0,0,0,0-.09l-0.32-.61-1.2-2.3-2.18-4.2-0.07-.14h0s-1.82,1-2,1.11a2,2,0,0,0-.34.19c-0.06.06-.07,0,0,0.14l0.08,0.16,0.36,0.68,2.27,4.27Z" fill="#00b5e4"/>
    <path d="M15.34,17.95s-1.92-.83-2.11-0.91a1.69,1.69,0,0,0-.4-0.17,1,1,0,0,0-.12.31l-0.5,1.3-1.58,4.08-0.49,1.26L10,24.16a1.37,1.37,0,0,0-.17.44s0.76,0.27.81,0.29L12,25.36a1.19,1.19,0,0,0,.29.1,0.14,0.14,0,0,0,.06,0,1.09,1.09,0,0,0,.12-0.31L12.52,25l0.19-.48,2-5.05C14.93,19,15.15,18.47,15.34,17.95Z" fill="#00b5e4"/>
  </g>
</svg>
