<?xml version="1.0" encoding="utf-8"?>
<!-- Generator: Adobe Illustrator 24.0.1, SVG Export Plug-In . SVG Version: 6.00 Build 0)  -->
<svg version="1.1" id="Layer_1" xmlns="http://www.w3.org/2000/svg" xmlns:xlink="http://www.w3.org/1999/xlink" x="0px" y="0px"
	 viewBox="0 0 50.5 50.5" style="enable-background:new 0 0 50.5 50.5;" xml:space="preserve">
<g>
	<path d="M24.517,12.998v2.839c-0.345-0.53-0.739-1.031-1.192-1.484c-1.573-1.573-3.666-2.517-5.894-2.657
		c-0.239-0.009-0.454,0.07-0.616,0.232c-0.162,0.163-0.247,0.387-0.233,0.616c0.141,2.228,1.084,4.321,2.658,5.895
		c1.427,1.428,3.282,2.33,5.277,2.591v3.967c-0.345-0.53-0.739-1.031-1.192-1.484c-1.573-1.574-3.666-2.518-5.895-2.658
		c-0.226-0.014-0.453,0.07-0.615,0.232c-0.163,0.163-0.247,0.387-0.233,0.616c0.141,2.228,1.084,4.321,2.658,5.894
		c1.426,1.428,3.282,2.329,5.277,2.591v0.831h-4.048c-0.738,0-1.338,0.6-1.338,1.338v2.754c0,0.646,0.468,1.161,1.077,1.286v3.032
		c0,1.332,1.083,2.416,2.415,2.416h5.386c1.332,0,2.416-1.084,2.416-2.416v-3.032c0.609-0.125,1.077-0.64,1.077-1.286v-2.754
		c0-0.738-0.601-1.338-1.339-1.338h-4.047v-3.229V25.58c1.944-0.284,3.749-1.181,5.145-2.576c1.574-1.573,2.518-3.667,2.658-5.895
		c0.014-0.229-0.07-0.454-0.233-0.616c-0.162-0.162-0.383-0.241-0.615-0.232c-2.229,0.14-4.321,1.083-5.895,2.658
		c-0.393,0.394-0.748,0.819-1.06,1.272v-1.132v-6.061c0-0.442-0.358-0.8-0.8-0.8S24.517,12.556,24.517,12.998z M28.825,39.43
		c0,0.45-0.366,0.816-0.816,0.816h-5.386c-0.449,0-0.815-0.366-0.815-0.816v-2.97h7.018V39.43z M29.902,34.851H20.73v-2.231h9.172
		V34.851z M28.307,20.049c1.066-1.066,2.422-1.782,3.891-2.067c-0.286,1.469-1.001,2.825-2.067,3.891s-2.421,1.782-3.891,2.067
		C26.525,22.471,27.241,21.116,28.307,20.049z M20.37,17.308c-1.066-1.065-1.781-2.421-2.067-3.89
		c1.469,0.286,2.824,1.001,3.891,2.067s1.781,2.421,2.067,3.891C22.792,19.09,21.437,18.374,20.37,17.308z M20.37,26.467
		c-1.066-1.066-1.781-2.421-2.067-3.891c1.469,0.286,2.824,1.001,3.891,2.068c1.066,1.065,1.781,2.421,2.067,3.89
		C22.791,28.248,21.436,27.533,20.37,26.467z"/>
	<path d="M45.503,10.824L25.479,4.818c-0.148-0.045-0.311-0.045-0.459,0L4.997,10.824c-0.339,0.102-0.57,0.413-0.57,0.766v33.326
		c0,0.441,0.358,0.8,0.8,0.8h40.047c0.441,0,0.8-0.358,0.8-0.8V11.59C46.073,11.237,45.842,10.926,45.503,10.824z M44.474,44.116
		H6.026V12.185L25.25,6.419l19.224,5.766V44.116z"/>
</g>
</svg>
