<?xml version="1.0" encoding="utf-8"?>
<!-- Generator: Adobe Illustrator 18.0.0, SVG Export Plug-In . SVG Version: 6.00 Build 0)  -->
<!DOCTYPE svg PUBLIC "-//W3C//DTD SVG 1.1//EN" "http://www.w3.org/Graphics/SVG/1.1/DTD/svg11.dtd">
<svg version="1.1" id="Layer_1" xmlns="http://www.w3.org/2000/svg" xmlns:xlink="http://www.w3.org/1999/xlink" x="0px" y="0px"
	 viewBox="0 0 50.5 50.5" style="enable-background:new 0 0 50.5 50.5;" xml:space="preserve">
<style type="text/css">
	.st0{fill:#65B4E1;}
</style>
<path class="st0" d="M17.2,21.5l8.3-5.8l1.4,1l0,0c4.1,2.8,11.3,7.8,13.4,9.2l2-2.5L25.6,9.2V9.1l-0.1,0.1l-0.1-0.1v0.1L8.7,23.4
	l2.1,2.5C11.8,25.2,14.4,23.5,17.2,21.5z"/>
<path class="st0" d="M13.4,26.1v11c0,2.3,1.8,4.1,4.1,4.1h16c2.3,0,4.1-1.8,4.1-4.1V26c-0.5-0.4-1.1-0.8-1.7-1.2v12
	c0,1.6-1.3,2.9-2.9,2.9h-3v-9.3c0-1.3-1-2.3-2.3-2.3h-4.3c-1.3,0-2.3,1-2.3,2.3v9.3h-3c-1.6,0-2.9-1.3-2.9-2.9v-12
	C14.5,25.3,13.9,25.7,13.4,26.1z"/>
</svg>
