<svg id="Layer_1" data-name="Layer 1" xmlns="http://www.w3.org/2000/svg" viewBox="0 0 50.46 50.46"><defs><style>.cls-1{fill:#00b5e4;}</style></defs><title>Iconos</title><path class="cls-1" d="M17.24,21.53l8.29-5.79,1.39,1h0L40.3,25.89l2-2.47L25.59,9.21V9.11l-0.06.05-0.06-.05v0.1L8.74,23.42l2.07,2.52Z"/><path class="cls-1" d="M13.4,26.09V37a4.12,4.12,0,0,0,4.11,4.11h16A4.12,4.12,0,0,0,37.66,37V26l-1.74-1.2v12A2.93,2.93,0,0,1,33,39.78H30v-9.3a2.29,2.29,0,0,0-2.28-2.28H23.37a2.29,2.29,0,0,0-2.28,2.28v9.3h-3a2.93,2.93,0,0,1-2.92-2.92v-12Z"/></svg>