<svg xmlns="http://www.w3.org/2000/svg" viewBox="0 0 50.46 50.46">
  <title>Iconos</title>
  <g>
    <path d="M25.79,10a1,1,0,0,0-1.12,0L10.28,20.44a1,1,0,0,0-.39.77V42a1,1,0,0,0,1,1H39.62a1,1,0,0,0,1-1V21.21a1,1,0,0,0-.39-0.77Zm4,31.09H20.63V28.26h9.19V41.1Zm8.84,0H31.73V27.31a1,1,0,0,0-1-1H19.68a1,1,0,0,0-1,1V41.1H11.79V21.7L25.23,12,38.67,21.7V41.1Z" fill="#00b5e4"/>
    <path d="M43.84,17.67l-18-13a1.06,1.06,0,0,0-1.24,0l-8.5,6.17V5.48a1.06,1.06,0,1,0-2.12,0V12a1,1,0,0,0,.06.28L6.62,17.67a1.06,1.06,0,1,0,1.24,1.71L25.23,6.79,42.6,19.39A1.06,1.06,0,1,0,43.84,17.67Z" fill="#00b5e4"/>
  </g>
</svg>
