<?xml version="1.0" encoding="utf-8"?>
<!-- Generator: Adobe Illustrator 24.2.1, SVG Export Plug-In . SVG Version: 6.00 Build 0)  -->
<svg version="1.1" id="Layer_1" xmlns="http://www.w3.org/2000/svg" xmlns:xlink="http://www.w3.org/1999/xlink" x="0px" y="0px"
	 viewBox="0 0 50.5 50.5" style="enable-background:new 0 0 50.5 50.5;" xml:space="preserve">
<path d="M25.8,30.5c0-0.2,0.1-0.4,0.1-0.6c0-2.4-1.7-4.3-3.8-4.3s-3.8,1.9-3.8,4.3c0,0.2,0,0.4,0,0.6c-1.2,1.4-2,3.4-2,5.7
	c0,4.1,2.6,7.5,5.8,7.5s5.8-3.4,5.8-7.5C27.8,33.9,27,31.9,25.8,30.5z M22,27.3c0.9,0,1.7,0.8,2,1.8c-0.6-0.3-1.3-0.5-2-0.5
	s-1.4,0.2-2,0.5C20.3,28.1,21.1,27.3,22,27.3z M22,30.4c2,0,3.7,2.1,4,4.9h-8C18.3,32.5,20,30.4,22,30.4z M22,42c-2,0-3.7-2.2-4-4.9
	h8C25.8,39.8,24.1,42,22,42z M25.8,30.5c0-0.2,0.1-0.4,0.1-0.6c0-2.4-1.7-4.3-3.8-4.3s-3.8,1.9-3.8,4.3c0,0.2,0,0.4,0,0.6
	c-1.2,1.4-2,3.4-2,5.7c0,4.1,2.6,7.5,5.8,7.5s5.8-3.4,5.8-7.5C27.8,33.9,27,31.9,25.8,30.5z M22,27.3c0.9,0,1.7,0.8,2,1.8
	c-0.6-0.3-1.3-0.5-2-0.5s-1.4,0.2-2,0.5C20.3,28.1,21.1,27.3,22,27.3z M22,30.4c2,0,3.7,2.1,4,4.9h-8C18.3,32.5,20,30.4,22,30.4z
	 M22,42c-2,0-3.7-2.2-4-4.9h8C25.8,39.8,24.1,42,22,42z M24.4,10.9c-0.4-0.3-0.9-0.3-1.2,0.1l-1.1,1.3l-0.8,1l-0.5-0.4l-0.4-0.3
	c-0.4-0.3-0.9-0.2-1.2,0.2c-0.3,0.4-0.2,0.9,0.2,1.2l1.5,1.2c0.2,0.1,0.3,0.2,0.5,0.2c0.3,0,0.5-0.1,0.7-0.3l2.5-3
	C24.8,11.7,24.7,11.2,24.4,10.9z M24.4,10.9c-0.4-0.3-0.9-0.3-1.2,0.1l-1.1,1.3l-0.8,1l-0.5-0.4l-0.4-0.3c-0.4-0.3-0.9-0.2-1.2,0.2
	c-0.3,0.4-0.2,0.9,0.2,1.2l1.5,1.2c0.2,0.1,0.3,0.2,0.5,0.2c0.3,0,0.5-0.1,0.7-0.3l2.5-3C24.8,11.7,24.7,11.2,24.4,10.9z M24.4,10.9
	c-0.4-0.3-0.9-0.3-1.2,0.1l-1.1,1.3l-0.8,1l-0.5-0.4l-0.4-0.3c-0.4-0.3-0.9-0.2-1.2,0.2c-0.3,0.4-0.2,0.9,0.2,1.2l1.5,1.2
	c0.2,0.1,0.3,0.2,0.5,0.2c0.3,0,0.5-0.1,0.7-0.3l2.5-3C24.8,11.7,24.7,11.2,24.4,10.9z M25.8,30.5c0-0.2,0.1-0.4,0.1-0.6
	c0-2.4-1.7-4.3-3.8-4.3s-3.8,1.9-3.8,4.3c0,0.2,0,0.4,0,0.6c-1.2,1.4-2,3.4-2,5.7c0,4.1,2.6,7.5,5.8,7.5s5.8-3.4,5.8-7.5
	C27.8,33.9,27,31.9,25.8,30.5z M22,27.3c0.9,0,1.7,0.8,2,1.8c-0.6-0.3-1.3-0.5-2-0.5s-1.4,0.2-2,0.5C20.3,28.1,21.1,27.3,22,27.3z
	 M22,30.4c2,0,3.7,2.1,4,4.9h-8C18.3,32.5,20,30.4,22,30.4z M22,42c-2,0-3.7-2.2-4-4.9h8C25.8,39.8,24.1,42,22,42z M25.8,30.5
	c0-0.2,0.1-0.4,0.1-0.6c0-2.4-1.7-4.3-3.8-4.3s-3.8,1.9-3.8,4.3c0,0.2,0,0.4,0,0.6c-1.2,1.4-2,3.4-2,5.7c0,4.1,2.6,7.5,5.8,7.5
	s5.8-3.4,5.8-7.5C27.8,33.9,27,31.9,25.8,30.5z M22,27.3c0.9,0,1.7,0.8,2,1.8c-0.6-0.3-1.3-0.5-2-0.5s-1.4,0.2-2,0.5
	C20.3,28.1,21.1,27.3,22,27.3z M22,30.4c2,0,3.7,2.1,4,4.9h-8C18.3,32.5,20,30.4,22,30.4z M22,42c-2,0-3.7-2.2-4-4.9h8
	C25.8,39.8,24.1,42,22,42z M25.8,30.5c0-0.2,0.1-0.4,0.1-0.6c0-2.4-1.7-4.3-3.8-4.3s-3.8,1.9-3.8,4.3c0,0.2,0,0.4,0,0.6
	c-1.2,1.4-2,3.4-2,5.7c0,4.1,2.6,7.5,5.8,7.5s5.8-3.4,5.8-7.5C27.8,33.9,27,31.9,25.8,30.5z M22,27.3c0.9,0,1.7,0.8,2,1.8
	c-0.6-0.3-1.3-0.5-2-0.5s-1.4,0.2-2,0.5C20.3,28.1,21.1,27.3,22,27.3z M22,30.4c2,0,3.7,2.1,4,4.9h-8C18.3,32.5,20,30.4,22,30.4z
	 M22,42c-2,0-3.7-2.2-4-4.9h8C25.8,39.8,24.1,42,22,42z M25.8,30.5c0-0.2,0.1-0.4,0.1-0.6c0-2.4-1.7-4.3-3.8-4.3s-3.8,1.9-3.8,4.3
	c0,0.2,0,0.4,0,0.6c-1.2,1.4-2,3.4-2,5.7c0,4.1,2.6,7.5,5.8,7.5s5.8-3.4,5.8-7.5C27.8,33.9,27,31.9,25.8,30.5z M22,27.3
	c0.9,0,1.7,0.8,2,1.8c-0.6-0.3-1.3-0.5-2-0.5s-1.4,0.2-2,0.5C20.3,28.1,21.1,27.3,22,27.3z M22,30.4c2,0,3.7,2.1,4,4.9h-8
	C18.3,32.5,20,30.4,22,30.4z M22,42c-2,0-3.7-2.2-4-4.9h8C25.8,39.8,24.1,42,22,42z M25.8,30.5c0-0.2,0.1-0.4,0.1-0.6
	c0-2.4-1.7-4.3-3.8-4.3s-3.8,1.9-3.8,4.3c0,0.2,0,0.4,0,0.6c-1.2,1.4-2,3.4-2,5.7c0,4.1,2.6,7.5,5.8,7.5s5.8-3.4,5.8-7.5
	C27.8,33.9,27,31.9,25.8,30.5z M22,27.3c0.9,0,1.7,0.8,2,1.8c-0.6-0.3-1.3-0.5-2-0.5s-1.4,0.2-2,0.5C20.3,28.1,21.1,27.3,22,27.3z
	 M22,30.4c2,0,3.7,2.1,4,4.9h-8C18.3,32.5,20,30.4,22,30.4z M22,42c-2,0-3.7-2.2-4-4.9h8C25.8,39.8,24.1,42,22,42z M25.8,30.5
	c0-0.2,0.1-0.4,0.1-0.6c0-2.4-1.7-4.3-3.8-4.3s-3.8,1.9-3.8,4.3c0,0.2,0,0.4,0,0.6c-1.2,1.4-2,3.4-2,5.7c0,4.1,2.6,7.5,5.8,7.5
	s5.8-3.4,5.8-7.5C27.8,33.9,27,31.9,25.8,30.5z M22,27.3c0.9,0,1.7,0.8,2,1.8c-0.6-0.3-1.3-0.5-2-0.5s-1.4,0.2-2,0.5
	C20.3,28.1,21.1,27.3,22,27.3z M22,30.4c2,0,3.7,2.1,4,4.9h-8C18.3,32.5,20,30.4,22,30.4z M22,42c-2,0-3.7-2.2-4-4.9h8
	C25.8,39.8,24.1,42,22,42z M25.8,30.5c0-0.2,0.1-0.4,0.1-0.6c0-2.4-1.7-4.3-3.8-4.3s-3.8,1.9-3.8,4.3c0,0.2,0,0.4,0,0.6
	c-1.2,1.4-2,3.4-2,5.7c0,4.1,2.6,7.5,5.8,7.5s5.8-3.4,5.8-7.5C27.8,33.9,27,31.9,25.8,30.5z M22,27.3c0.9,0,1.7,0.8,2,1.8
	c-0.6-0.3-1.3-0.5-2-0.5s-1.4,0.2-2,0.5C20.3,28.1,21.1,27.3,22,27.3z M22,30.4c2,0,3.7,2.1,4,4.9h-8C18.3,32.5,20,30.4,22,30.4z
	 M22,42c-2,0-3.7-2.2-4-4.9h8C25.8,39.8,24.1,42,22,42z M46.5,19.3l-3.7-1.2c-0.2-0.1-0.4-0.1-0.7,0.1c-0.2,0.1-0.4,0.3-0.4,0.5
	L41.6,19c-0.8-0.7-1.9-1.7-2.9-3V2.7c0-0.6-0.5-1-1-1H6.4c-0.6,0-1,0.5-1,1v45c0,0.6,0.4,1,1,1h31.3c0.6,0,1-0.4,1-1V29.6
	c0.1,0.2,0.3,0.3,0.4,0.4l3.8,1.2c0.1,0,0.2,0,0.3,0c0.4,0,0.7-0.2,0.8-0.6s-0.1-0.9-0.5-1.1l0,0l-2.9-1l2.6-8.7l2.9,0.9l0,0
	c0.4,0.1,0.9-0.1,1.1-0.6C47.2,19.9,46.9,19.4,46.5,19.3z M36.7,46.7H7.4v-43h29.3v9.6c-2.5-2.2-6.6-1.8-7.1-1.7l-0.3-2.9h3
	c0.5,0,0.9-0.4,0.9-0.9s-0.4-0.9-0.9-0.9H11.8C11.4,7.1,11,7.5,11,8s0.4,0.9,0.9,0.9h3l-1,11.2c0,0.2,0.1,0.5,0.2,0.6
	c0.2,0.2,0.4,0.3,0.6,0.3h8.8c0.5,0.8,1.3,1.1,1.4,1.2c0,0,2.5,1.3,4.4,2.1c1.1,0.5,1.3,0.8,1.7,1.2c0.2,0.3,0.5,0.6,0.9,0.9
	c1.2,1.1,2.9,1.2,3.4,1.3l1.5,0.4L36.7,46.7L36.7,46.7z M28.3,17.3L27.6,17c-0.1-0.1-1.5-0.7-2.7-0.3c-0.7,0.2-1.2,0.7-1.6,1.5
	c-0.2,0.4-0.3,0.7-0.3,1.1h-7.4l0.9-10.4h11.1L28.3,17.3z M39.2,27.1l-3.6-1c-0.1,0-0.2,0-0.3,0c0,0-1.5,0-2.4-0.8
	c-0.3-0.3-0.5-0.6-0.7-0.8c-0.5-0.6-1-1.1-2.3-1.7c-1.9-0.8-4.3-2.1-4.4-2.1c0,0-0.6-0.3-0.8-0.8c-0.1-0.3-0.1-0.6,0.1-0.9
	c0.2-0.4,0.4-0.5,0.6-0.6c0.5-0.2,1.2,0.1,1.5,0.2l5.3,2.2c0.4,0.1,1.3,0.4,1.9-0.2c0.4-0.4,0.3-1-0.2-1.8c-0.9-1.4-2.5-1.7-3.2-1.7
	c-0.1,0-0.2,0-0.2,0c-0.1,0-0.2,0-0.3,0l0,0L29.8,14l-0.1-0.7c0,0,0,0,0.1,0c0,0,4.8-0.7,6.5,2.1c1.3,2.2,3.3,4.3,4.8,5.3L39.2,27.1
	z M25.9,30c0-2.4-1.7-4.3-3.8-4.3s-3.8,1.9-3.8,4.3c0,0.2,0,0.4,0,0.6c-1.2,1.4-2,3.4-2,5.7c0,4.1,2.6,7.5,5.8,7.5s5.8-3.4,5.8-7.5
	c0-2.3-0.8-4.3-2-5.7C25.8,30.3,25.9,30.2,25.9,30z M22,27.3c0.9,0,1.7,0.8,2,1.8c-0.6-0.3-1.3-0.5-2-0.5s-1.4,0.2-2,0.5
	C20.3,28.1,21.1,27.3,22,27.3z M22,42c-2,0-3.7-2.2-4-4.9h8C25.8,39.8,24.1,42,22,42z M26.1,35.3h-8c0.3-2.8,2-4.9,4-4.9
	S25.8,32.5,26.1,35.3z M20.8,15.2c0.2,0.1,0.3,0.2,0.5,0.2c0.3,0,0.5-0.1,0.7-0.3l2.5-3c0.3-0.4,0.2-0.9-0.1-1.2
	c-0.4-0.3-0.9-0.3-1.2,0.1l-1.1,1.3l-0.8,1l-0.5-0.4l-0.4-0.3c-0.4-0.3-0.9-0.2-1.2,0.2c-0.3,0.4-0.2,0.9,0.2,1.2L20.8,15.2z
	 M25.8,30.5c0-0.2,0.1-0.4,0.1-0.6c0-2.4-1.7-4.3-3.8-4.3s-3.8,1.9-3.8,4.3c0,0.2,0,0.4,0,0.6c-1.2,1.4-2,3.4-2,5.7
	c0,4.1,2.6,7.5,5.8,7.5s5.8-3.4,5.8-7.5C27.8,33.9,27,31.9,25.8,30.5z M22,27.3c0.9,0,1.7,0.8,2,1.8c-0.6-0.3-1.3-0.5-2-0.5
	s-1.4,0.2-2,0.5C20.3,28.1,21.1,27.3,22,27.3z M22,30.4c2,0,3.7,2.1,4,4.9h-8C18.3,32.5,20,30.4,22,30.4z M22,42c-2,0-3.7-2.2-4-4.9
	h8C25.8,39.8,24.1,42,22,42z M25.8,30.5c0-0.2,0.1-0.4,0.1-0.6c0-2.4-1.7-4.3-3.8-4.3s-3.8,1.9-3.8,4.3c0,0.2,0,0.4,0,0.6
	c-1.2,1.4-2,3.4-2,5.7c0,4.1,2.6,7.5,5.8,7.5s5.8-3.4,5.8-7.5C27.8,33.9,27,31.9,25.8,30.5z M22,27.3c0.9,0,1.7,0.8,2,1.8
	c-0.6-0.3-1.3-0.5-2-0.5s-1.4,0.2-2,0.5C20.3,28.1,21.1,27.3,22,27.3z M22,30.4c2,0,3.7,2.1,4,4.9h-8C18.3,32.5,20,30.4,22,30.4z
	 M22,42c-2,0-3.7-2.2-4-4.9h8C25.8,39.8,24.1,42,22,42z M25.8,30.5c0-0.2,0.1-0.4,0.1-0.6c0-2.4-1.7-4.3-3.8-4.3s-3.8,1.9-3.8,4.3
	c0,0.2,0,0.4,0,0.6c-1.2,1.4-2,3.4-2,5.7c0,4.1,2.6,7.5,5.8,7.5s5.8-3.4,5.8-7.5C27.8,33.9,27,31.9,25.8,30.5z M22,27.3
	c0.9,0,1.7,0.8,2,1.8c-0.6-0.3-1.3-0.5-2-0.5s-1.4,0.2-2,0.5C20.3,28.1,21.1,27.3,22,27.3z M22,30.4c2,0,3.7,2.1,4,4.9h-8
	C18.3,32.5,20,30.4,22,30.4z M22,42c-2,0-3.7-2.2-4-4.9h8C25.8,39.8,24.1,42,22,42z M25.8,30.5c0-0.2,0.1-0.4,0.1-0.6
	c0-2.4-1.7-4.3-3.8-4.3s-3.8,1.9-3.8,4.3c0,0.2,0,0.4,0,0.6c-1.2,1.4-2,3.4-2,5.7c0,4.1,2.6,7.5,5.8,7.5s5.8-3.4,5.8-7.5
	C27.8,33.9,27,31.9,25.8,30.5z M22,27.3c0.9,0,1.7,0.8,2,1.8c-0.6-0.3-1.3-0.5-2-0.5s-1.4,0.2-2,0.5C20.3,28.1,21.1,27.3,22,27.3z
	 M22,30.4c2,0,3.7,2.1,4,4.9h-8C18.3,32.5,20,30.4,22,30.4z M22,42c-2,0-3.7-2.2-4-4.9h8C25.8,39.8,24.1,42,22,42z M25.8,30.5
	c0-0.2,0.1-0.4,0.1-0.6c0-2.4-1.7-4.3-3.8-4.3s-3.8,1.9-3.8,4.3c0,0.2,0,0.4,0,0.6c-1.2,1.4-2,3.4-2,5.7c0,4.1,2.6,7.5,5.8,7.5
	s5.8-3.4,5.8-7.5C27.8,33.9,27,31.9,25.8,30.5z M22,27.3c0.9,0,1.7,0.8,2,1.8c-0.6-0.3-1.3-0.5-2-0.5s-1.4,0.2-2,0.5
	C20.3,28.1,21.1,27.3,22,27.3z M22,30.4c2,0,3.7,2.1,4,4.9h-8C18.3,32.5,20,30.4,22,30.4z M22,42c-2,0-3.7-2.2-4-4.9h8
	C25.8,39.8,24.1,42,22,42z M24.4,10.9c-0.4-0.3-0.9-0.3-1.2,0.1l-1.1,1.3l-0.8,1l-0.5-0.4l-0.4-0.3c-0.4-0.3-0.9-0.2-1.2,0.2
	c-0.3,0.4-0.2,0.9,0.2,1.2l1.5,1.2c0.2,0.1,0.3,0.2,0.5,0.2c0.3,0,0.5-0.1,0.7-0.3l2.5-3C24.8,11.7,24.7,11.2,24.4,10.9z"/>
</svg>
